<svg width="19" height="19" viewBox="0 0 19 19" fill="none" xmlns="http://www.w3.org/2000/svg">
<path d="M9.50001 6.50599C7.85137 6.50599 6.50596 7.8514 6.50596 9.50003C6.50596 11.1487 7.85137 12.4941 9.50001 12.4941C11.1486 12.4941 12.4941 11.1487 12.4941 9.50003C12.4941 7.8514 11.1486 6.50599 9.50001 6.50599ZM18.4799 9.50003C18.4799 8.26019 18.4911 7.03158 18.4215 5.79398C18.3519 4.35648 18.0239 3.0807 16.9728 2.02953C15.9193 0.976107 14.6458 0.650424 13.2083 0.580795C11.9685 0.511166 10.7399 0.522397 9.50225 0.522397C8.26241 0.522397 7.0338 0.511166 5.7962 0.580795C4.3587 0.650424 3.08292 0.978354 2.03175 2.02953C0.978328 3.08294 0.652644 4.35648 0.583015 5.79398C0.513386 7.03382 0.524617 8.26244 0.524617 9.50003C0.524617 10.7376 0.513386 11.9685 0.583015 13.2061C0.652644 14.6436 0.980574 15.9194 2.03175 16.9705C3.08516 18.024 4.3587 18.3496 5.7962 18.4193C7.03604 18.4889 8.26466 18.4777 9.50225 18.4777C10.7421 18.4777 11.9707 18.4889 13.2083 18.4193C14.6458 18.3496 15.9216 18.0217 16.9728 16.9705C18.0262 15.9171 18.3519 14.6436 18.4215 13.2061C18.4934 11.9685 18.4799 10.7399 18.4799 9.50003ZM9.50001 14.1068C6.95069 14.1068 4.89327 12.0494 4.89327 9.50003C4.89327 6.95072 6.95069 4.8933 9.50001 4.8933C12.0493 4.8933 14.1067 6.95072 14.1067 9.50003C14.1067 12.0494 12.0493 14.1068 9.50001 14.1068ZM14.2954 5.7805C13.7002 5.7805 13.2195 5.29984 13.2195 4.70462C13.2195 4.10941 13.7002 3.62874 14.2954 3.62874C14.8906 3.62874 15.3713 4.10941 15.3713 4.70462C15.3715 4.84596 15.3438 4.98594 15.2898 5.11655C15.2358 5.24717 15.1565 5.36584 15.0566 5.46578C14.9566 5.56572 14.838 5.64496 14.7073 5.69897C14.5767 5.75297 14.4368 5.78068 14.2954 5.7805Z" fill="black"/>
</svg>
