<svg width="88" height="88" fill="none" xmlns="http://www.w3.org/2000/svg"><circle cx="44" cy="44" r="44" fill="url(#paint0_linear)"/><path d="M46.16 47.52c-1.56 0-2.6-1.08-4.48-5l-9.56-19.8c-.08-.16-.56-.16-.6 0L23 42.36c-1.8 4.16-2.88 5.16-5 5.16-.24 0-.24.48 0 .48 1.68 0 2.56-.16 4.52-.16 2.04 0 3.12.16 4.72.16.24 0 .24-.48 0-.48-3.36 0-4.72-1.56-3.32-4.76l3.28-7.6h7.36l4.48 9.32c1.16 2.36.68 3.04-1.96 3.04-.24 0-.24.48 0 .48 1.56 0 2.6-.16 4.32-.16 1.52 0 3.24.16 4.76.16.24 0 .24-.48 0-.48zM27.6 34.24l3.08-7.16 3.44 7.16H27.6zM54.242 44.6V26.32c0-2.48.56-2.76 2.84-2.76 3.44 0 5.84 2.44 5.84 6.72 0 4.56-2.72 6.68-5.64 6.68-.4 0-.96-.04-1.44-.16-.16-.04-.28.48-.08.52.6.16 1.28.2 1.92.2 4.08 0 8.88-2.52 8.8-8.08-.12-4.68-3.64-6.56-8.32-6.56-2 0-4.24.24-5.52.24-1.84 0-3.48-.12-4.8-.12-.16 0-.16.48 0 .48 2.76 0 3.24.48 3.24 2.76v18.52c0 2.32-.48 2.76-3.24 2.76-.16 0-.16.48 0 .48 1.32 0 3-.08 4.84-.08 2.32 0 4.28.08 6.04.08.12 0 .12-.48 0-.48-3.88 0-4.48-.52-4.48-2.92zM22.26 64.04c1.79 0 3.3-1.27 3.3-3.27 0-1.72-1.37-3.04-3.44-3.04-.41 0-1.05.05-1.54.05-.48 0-.91-.03-1.26-.03-.04 0-.04.12 0 .12.6 0 .71.12.71.69v4.63c0 .58-.12.69-.73.69-.03 0-.03.12 0 .12.35 0 .8-.02 1.28-.02.53 0 1.25.06 1.68.06zm-.1-.23c-.84 0-1.02-.23-1.02-.73v-4.5c0-.54.3-.63 1.08-.63 1.29 0 2.11 1.34 2.11 3.04 0 1.83-.91 2.82-2.17 2.82zm11.75-1.4c-.29.9-.9 1.31-1.94 1.31h-.33c-.32 0-.46-.18-.46-.57v-2.26H32c.8 0 1.22.34 1.22.88 0 .03.12.03.12 0 0-.38-.03-.68-.03-1.02 0-.27.01-.46.01-.9 0-.04-.11-.04-.11 0 0 .47-.41.76-1.2.76h-.83v-2.04c0-.36.18-.53.58-.53h.3c.83 0 1.32.36 1.54 1.14.02.04.12.02.12-.01l-.02-1.33c0-.06-.02-.09-.1-.09h-4.24c-.04 0-.04.12 0 .12.61 0 .71.12.71.69v4.63c0 .58-.1.69-.71.69-.04 0-.04.12 0 .12h4.42c.12 0 .15-.04.15-.15 0-.45.05-1.03.1-1.42 0-.03-.11-.06-.12-.02zm5.198-3.65c0-.61.41-.9.91-.9 1.07 0 1.44 1.37 1.6 1.7.02.04.11.01.11-.03v-1.47c0-.08-.02-.14-.15-.2-.28-.12-.81-.22-1.29-.22-1 0-2.1.49-2.1 1.61 0 .89.69 1.33 1.39 1.79.71.47 1.44.94 1.44 1.88 0 .75-.46.95-.92.95-.95 0-1.47-1.11-1.88-1.95-.02-.05-.12-.04-.11.02l.03 1.59c0 .12.04.15.1.19.23.2 1 .4 1.6.4 1.23 0 2.16-.72 2.16-1.78 0-.96-.77-1.46-1.52-1.94-.7-.45-1.37-.88-1.37-1.64zm8.577 4.43v-4.61c0-.57.1-.71.71-.71.04 0 .04-.12 0-.12-.34 0-.77.03-1.28.03-.48 0-.93-.03-1.28-.03-.03 0-.03.12 0 .12.61 0 .73.12.73.69v4.63c0 .58-.12.69-.73.69-.03 0-.03.12 0 .12.35 0 .8-.02 1.28-.02.51 0 .93.02 1.28.02.04 0 .04-.12 0-.12-.62 0-.71-.11-.71-.69zm8.138.93c.74 0 1.58-.12 2.32-.28.09-.03.12-.04.12-.12 0-.16-.07-.21-.07-.88 0-1.06.02-1.18.36-1.17.07 0 .06-.14 0-.14-.83.04-1.51.04-2.43-.02-.07 0-.07.16.01.16.92 0 .99.11.99 1.07 0 1.03-.29 1.21-1.05 1.21-1.52 0-2.64-1.37-2.64-3.39 0-1.6.7-2.65 2.09-2.65 1.06 0 1.91.62 2.37 1.63.03.05.12.03.12-.01l-.13-1.39c-.01-.14-.03-.19-.15-.23-.4-.17-1.12-.27-1.72-.27-2.16 0-3.79 1.34-3.79 3.3 0 1.77 1.33 3.18 3.6 3.18zm13.227-6.37c-.29 0-.65.03-1.01.03-.37 0-.68-.03-.97-.03-.03 0-.03.12 0 .12.52 0 .83.45.83 1.16v3.23l-3.46-3.99c-.32-.38-.33-.52-.5-.52-.21 0-.62.02-1.1.02-.24 0-.54-.02-.8-.02-.03 0-.03.12 0 .12.32 0 .6.14 1.05.63v4.23c0 .71-.37 1.15-.95 1.15-.04 0-.04.12 0 .12.32 0 .71-.02 1.11-.02.37 0 .68.02.97.02.03 0 .03-.12 0-.12-.52 0-.83-.44-.83-1.15v-3.89l4.69 5.34c.02.02.11.01.11-.03v-5.12c0-.71.33-1.16.86-1.16.03 0 .03-.12 0-.12z" fill="#fff"/><defs><linearGradient id="paint0_linear" x1="58.5" y1="76.5" x2="-153.5" y2="-282" gradientUnits="userSpaceOnUse"><stop/><stop offset="1" stop-color="#fff" stop-opacity="0"/></linearGradient></defs></svg>