<svg width="99" height="100" viewBox="0 0 99 100" fill="none" xmlns="http://www.w3.org/2000/svg">
<path d="M98.8842 59.3106C98.6074 58.3924 97.8505 57.6638 96.8598 57.3618C96.4895 57.2487 96.0758 57.1647 95.5582 57.3133C95.02 57.4679 94.6105 57.6752 94.2694 57.9655C93.835 58.3355 93.5242 58.8071 93.3706 59.3296C93.327 59.478 93.2971 59.6296 93.2797 59.7824C91.0892 59.8434 88.8629 59.9496 86.7066 60.0529C84.5942 60.1542 82.414 60.2586 80.272 60.3198C79.9723 59.4684 79.6911 58.597 79.4181 57.7506C79.1012 56.768 78.7734 55.7521 78.4153 54.7625C78.3292 54.5249 78.0964 54.3736 77.8436 54.3925L72.0918 54.8224C72.1259 52.6715 72.1393 50.5217 72.1325 48.3751C72.1404 48.3751 72.1483 48.3752 72.1562 48.3752C73.192 48.3752 74.1985 48.3626 75.1761 48.3504C76.3034 48.3363 77.4692 48.3216 78.6697 48.3267C78.6705 48.3267 78.6713 48.3267 78.6721 48.3267C78.8937 48.3267 79.0947 48.1967 79.1857 47.9946C79.352 47.6252 79.4996 47.2763 79.6425 46.939C80.0467 45.9843 80.4002 45.1492 80.9982 44.2695C82.7961 44.2721 84.6381 44.2361 86.423 44.2008C88.265 44.1643 90.1685 44.1268 92.0124 44.133C92.187 44.7713 92.5696 45.354 93.1109 45.7377C93.5935 46.0798 94.1835 46.2507 94.7736 46.2507C95.3707 46.2507 95.9679 46.0757 96.4538 45.7263C97.4199 45.0315 97.8718 43.7001 97.5283 42.5607C97.2515 41.6425 96.4946 40.9139 95.5038 40.6118C95.1336 40.4989 94.7197 40.4149 94.2023 40.5634C93.6641 40.7179 93.2546 40.9252 92.9135 41.2156C92.4791 41.5855 92.1683 42.0572 92.0147 42.5796C91.9735 42.7195 91.9445 42.8622 91.9268 43.0062C90.0973 43.0016 88.2195 43.0384 86.4008 43.0744C84.5247 43.1115 82.584 43.15 80.7084 43.142C80.7075 43.142 80.7068 43.142 80.706 43.142C80.5253 43.142 80.3557 43.2286 80.2496 43.375C79.4745 44.4458 79.0522 45.4435 78.6051 46.4998C78.5088 46.7272 78.4103 46.9599 78.306 47.1991C77.2262 47.1981 76.1787 47.2111 75.1621 47.2239C74.1791 47.2362 73.1651 47.2481 72.1259 47.2478C72.0974 42.8513 71.984 38.47 71.7839 34.1232L91.3975 33.7814C91.5547 34.4676 91.9511 35.1011 92.5271 35.5094C93.0097 35.8515 93.5997 36.0223 94.1899 36.0223C94.787 36.0222 95.3841 35.8473 95.87 35.4979C96.8361 34.8031 97.288 33.4718 96.9445 32.3324C96.6677 31.4141 95.9108 30.6856 94.92 30.3835C94.5498 30.2706 94.136 30.1866 93.6185 30.335C93.0803 30.4897 92.6708 30.6969 92.3298 30.9873C91.8953 31.3571 91.5846 31.8288 91.4309 32.3513L91.431 32.3513C91.4016 32.4513 91.3786 32.5529 91.3612 32.6552L71.729 32.9973C71.7106 32.6248 71.6931 32.2519 71.6734 31.8798C71.5673 29.8784 69.9233 28.3187 67.9253 28.3187C67.9176 28.3187 67.9096 28.3187 67.9018 28.3187C66.6138 28.3266 65.3159 28.3307 64.0132 28.3321C64.9852 26.94 65.9905 25.5526 66.969 24.2032C68.1583 22.5628 69.3883 20.8665 70.5534 19.1673C70.6179 19.0732 70.6523 18.9618 70.6521 18.8478C70.6483 16.7262 70.6224 14.5698 70.5972 12.4844C70.5738 10.5458 70.55 8.54614 70.5438 6.57225C70.9637 6.50088 71.3676 6.34077 71.7146 6.09125C72.6807 5.3964 73.1327 4.06508 72.7892 2.92575C72.5124 2.00756 71.7555 1.27897 70.7646 0.976844C70.3944 0.863852 69.9805 0.779885 69.463 0.928399C68.9248 1.08294 68.5152 1.29024 68.1742 1.58071C67.7399 1.95063 67.429 2.42229 67.2755 2.9447C66.9399 4.08642 67.4009 5.41463 68.3717 6.10272C68.6847 6.3246 69.0431 6.47397 69.4172 6.55191C69.4233 8.53845 69.4473 10.5491 69.4708 12.498C69.4952 14.5231 69.5204 16.6153 69.5252 18.6746C68.3977 20.3136 67.2083 21.9541 66.0569 23.5419C64.9248 25.1035 63.7565 26.7156 62.6417 28.3329C59.0127 28.3317 55.3577 28.3115 51.7743 28.2906C51.328 21.2903 51.3485 14.2253 51.8376 6.71798C52.2228 6.63945 52.5917 6.48544 52.9121 6.25501C53.8782 5.56022 54.3301 4.2289 53.9866 3.0895C53.7098 2.17125 52.9529 1.44266 51.9621 1.1406C51.5919 1.02767 51.178 0.943708 50.6606 1.09216C50.1224 1.24677 49.7129 1.454 49.3717 1.74446C48.9374 2.11432 48.6266 2.58597 48.473 3.10852V3.10846C48.1373 4.25024 48.5983 5.57838 49.5693 6.26648C49.9082 6.50671 50.3002 6.66212 50.7079 6.73362C50.223 14.2286 50.2027 21.2883 50.6451 28.284C47.3608 28.2647 44.014 28.2458 40.6798 28.2413C38.2171 25.5945 35.6335 22.7306 33.3351 19.6747C33.2378 17.5517 33.1404 15.3548 33.0463 13.2281C32.957 11.2101 32.8648 9.12932 32.7724 7.10792C33.0984 7.02203 33.4088 6.88028 33.6837 6.68259C34.6498 5.98774 35.1017 4.65648 34.7582 3.51708C34.4814 2.5989 33.7246 1.87025 32.7337 1.56818C32.3635 1.45532 31.9495 1.37129 31.4322 1.51974C30.894 1.67428 30.4845 1.88158 30.1433 2.17198C29.709 2.54184 29.3982 3.01349 29.2446 3.53597C28.9089 4.67769 29.3699 6.00583 30.3408 6.69399C30.7263 6.96723 31.1804 7.13085 31.6482 7.18579C31.7401 9.19812 31.8319 11.2691 31.9209 13.2779C32.0176 15.4629 32.1177 17.7223 32.2177 19.8997C32.2229 20.0123 32.2618 20.1208 32.3293 20.2112C34.4643 23.066 36.8397 25.7461 39.1428 28.2403C37.5391 28.2405 35.9409 28.2443 34.3571 28.2537C33.3675 28.2596 32.4356 28.6465 31.7332 29.3432C31.0306 30.0401 30.6363 30.9689 30.6229 31.9584L30.6044 33.318C29.4658 33.3356 28.4508 33.3718 27.5409 33.4042C25.4507 33.4787 23.7999 33.5377 21.8303 33.3575C21.6726 33.3433 21.5163 33.3957 21.3994 33.5024C20.0805 34.7056 18.2418 36.6808 17.2154 38.4433C16.8674 38.4332 16.5178 38.4224 16.1671 38.4116C13.1728 38.319 10.0818 38.2244 7.10515 38.5726C7.09091 38.5081 7.0746 38.4439 7.05545 38.3804C6.77864 37.4622 6.02181 36.7337 5.03099 36.4315C4.66067 36.3186 4.24654 36.2346 3.72943 36.3831C3.19124 36.5376 2.78175 36.7449 2.44058 37.0353C2.00618 37.4052 1.69536 37.8769 1.54181 38.3993C1.20615 39.541 1.66721 40.8692 2.63808 41.5573C3.12067 41.8994 3.71074 42.0703 4.30082 42.0702C4.89792 42.0702 5.4951 41.8953 5.981 41.5458C6.58307 41.1128 6.98533 40.4326 7.11993 39.7058C10.0496 39.3509 13.1399 39.4451 16.1323 39.5375C16.599 39.5519 17.0636 39.5663 17.5252 39.5789C17.739 39.5842 17.9368 39.4696 18.0374 39.2814C18.8571 37.7477 20.5733 35.8122 21.9783 34.5012C23.9144 34.6609 25.6196 34.6001 27.5812 34.5301C28.4766 34.4981 29.4746 34.4626 30.5892 34.4449L30.3944 48.7552C22.5257 48.2304 14.8637 48.29 6.99786 48.9382C6.98944 48.9058 6.98057 48.8734 6.97089 48.8412C6.69407 47.923 5.93725 47.1944 4.94643 46.8922C4.57611 46.7792 4.16204 46.6953 3.64486 46.8438C3.10668 46.9983 2.69712 47.2056 2.35602 47.496C1.92161 47.8659 1.61081 48.3376 1.45726 48.8601C1.1216 50.0017 1.58264 51.3299 2.55352 52.0181C3.0361 52.3602 3.62618 52.531 4.21626 52.531C4.81336 52.531 5.41053 52.3561 5.89643 52.0066C6.52674 51.5533 6.93789 50.8291 7.0524 50.064C14.8953 49.4157 22.5332 49.3569 30.3791 49.8832L30.2219 61.4364L6.52276 61.6064C6.50639 61.5246 6.48657 61.4435 6.46238 61.3633C6.18557 60.4451 5.42876 59.7165 4.43787 59.4144C4.06748 59.3014 3.65348 59.2173 3.13637 59.366C2.59825 59.5205 2.18869 59.7278 1.84753 60.0183C1.41312 60.3882 1.10231 60.8598 0.948755 61.3823C0.613091 62.524 1.07414 63.8521 2.04501 64.5403C2.5276 64.8824 3.11762 65.0532 3.70776 65.0532C4.30487 65.0532 4.90196 64.8783 5.38793 64.5288C5.97768 64.1046 6.37531 63.4432 6.51786 62.7332L30.2065 62.5632L30.1695 65.2794C30.1553 66.3222 30.5594 67.2969 31.3072 68.0237C32.0155 68.7121 32.937 69.0857 33.9175 69.0857C33.9718 69.0857 34.0263 69.0845 34.081 69.0821C35.6639 69.0155 37.2648 68.9576 38.8942 68.9082C36.2916 71.1676 33.8365 73.6217 31.5813 76.2204C31.4945 76.3205 31.4458 76.4481 31.4436 76.5805C31.3998 79.2757 31.3635 82.0439 31.3283 84.7209C31.2938 87.3447 31.2581 90.0556 31.2155 92.6989C31.2118 92.7 31.2082 92.7008 31.2045 92.7019C30.6662 92.8564 30.2567 93.0637 29.9156 93.3541C29.4813 93.724 29.1705 94.1956 29.0168 94.7182C28.6812 95.8599 29.1422 97.1881 30.1131 97.8762C30.5957 98.2183 31.1857 98.389 31.7758 98.389C32.3729 98.389 32.9701 98.2141 33.456 97.8646C34.4221 97.1699 34.874 95.8385 34.5305 94.6991C34.2536 93.781 33.4968 93.0524 32.506 92.7503C32.4524 92.7339 32.3978 92.7184 32.3422 92.7038C32.3847 90.0631 32.4204 87.356 32.4547 84.7358C32.489 82.1276 32.5244 79.433 32.5667 76.8043C35.0549 73.9536 37.7872 71.2819 40.692 68.8577C43.9088 68.774 47.2492 68.7229 50.7923 68.7041C50.568 70.4339 50.4786 72.1875 50.5266 73.9302C49.7529 74.482 48.8919 75.1247 48.0566 75.7485C47.1369 76.4351 46.1859 77.1452 45.3636 77.7246C45.1992 77.8404 45.1089 78.0352 45.127 78.2355C45.5385 82.8142 45.4994 87.8696 45.0109 93.2611C45.0047 93.3289 45.0115 93.3949 45.0282 93.4571C45.0188 93.4597 45.0095 93.4618 44.9999 93.4645C44.4617 93.6191 44.0521 93.8263 43.7111 94.1168C43.2767 94.4866 42.9659 94.9583 42.8123 95.4808C42.4767 96.6225 42.9377 97.9507 43.9086 98.6388C44.3912 98.9809 44.9812 99.1517 45.5713 99.1517C46.1684 99.1517 46.7656 98.9767 47.2515 98.6273C48.2177 97.9325 48.6695 96.6013 48.326 95.4619C48.0492 94.5436 47.2924 93.815 46.3015 93.5129C46.2406 93.4943 46.1784 93.4767 46.115 93.4606C46.1236 93.429 46.1299 93.3964 46.1329 93.3626C46.6161 88.0302 46.6645 83.0175 46.2774 78.4576C47.0467 77.9084 47.9014 77.2703 48.7307 76.6511C49.6505 75.9645 50.6015 75.2544 51.4238 74.675C51.5796 74.5654 51.6693 74.3843 51.6623 74.1939C51.5951 72.3626 51.6854 70.5168 51.9298 68.699C55.1853 68.6881 58.6147 68.7035 62.278 68.745C64.2395 70.2278 66.0585 71.9106 67.6883 73.7516C67.3516 81.3517 67.5072 87.6513 68.1766 93.5405C67.754 93.6856 67.4158 93.8712 67.1275 94.1166C66.6931 94.4865 66.3823 94.9581 66.2287 95.4807C65.8929 96.6224 66.354 97.9505 67.3249 98.6387C67.8075 98.9808 68.3976 99.1516 68.9877 99.1516C69.5848 99.1516 70.1819 98.9766 70.6678 98.6272C71.634 97.9324 72.0859 96.6011 71.7423 95.4617C71.4655 94.5435 70.7087 93.8149 69.7178 93.5128C69.5839 93.4719 69.4441 93.435 69.2959 93.4114C68.6268 87.5247 68.4768 81.2157 68.824 73.5755C68.8307 73.4305 68.781 73.2884 68.6853 73.1791C67.2937 71.5877 65.7651 70.109 64.1281 68.7677C65.3747 68.7844 66.6479 68.8039 67.9508 68.8263C67.9728 68.8267 67.9948 68.8268 68.0167 68.8268C68.9755 68.8268 69.8857 68.4667 70.5862 67.8088C71.3023 67.1362 71.7219 66.2248 71.7677 65.2427C71.9117 62.1493 72.0119 59.0507 72.0713 55.9534L77.5 55.5476C77.797 56.3925 78.0758 57.2566 78.3465 58.0962C78.6636 59.0791 78.9915 60.0955 79.3498 61.0854C79.4307 61.3089 79.6427 61.457 79.8793 61.457C79.8842 61.457 79.8891 61.4569 79.894 61.4568C82.1789 61.3974 84.5084 61.2857 86.761 61.1778C88.9329 61.0737 91.1758 60.9667 93.3757 60.9063C93.5533 61.5352 93.9328 62.1083 94.4674 62.4872C94.95 62.8293 95.54 63.0001 96.1301 63.0001C96.7272 63.0001 97.3244 62.8252 97.8103 62.4757C98.7758 61.7813 99.2277 60.4501 98.8842 59.3106ZM94.6745 41.6141C95.2354 42.4482 95.7949 43.2797 96.3531 44.1088C96.2449 44.3527 96.0862 44.5725 95.8856 44.7409C95.222 43.7961 94.557 42.8489 93.8907 41.8996C94.061 41.8 94.262 41.7183 94.5131 41.6462C94.5694 41.6301 94.6218 41.6196 94.6745 41.6141ZM95.6756 41.9151C96.0528 42.148 96.3299 42.4888 96.4496 42.8859C96.4752 42.9708 96.4932 43.058 96.5041 43.1464C96.2282 42.7366 95.9521 42.3261 95.6756 41.9151ZM93.0605 43.0459C93.5141 43.7288 93.967 44.4106 94.4192 45.091C94.1823 45.0458 93.956 44.9557 93.7623 44.8185C93.2228 44.4361 92.9377 43.6968 93.0605 43.0459ZM92.4489 33.0851C92.8538 33.6648 93.2581 34.2438 93.6617 34.8218C93.4884 34.7706 93.3242 34.6935 93.1784 34.5902C92.7119 34.2594 92.4357 33.6616 92.4489 33.0851ZM95.4307 33.6387L95.6986 34.0226C95.6335 34.1412 95.5558 34.2519 95.4666 34.3517C94.8417 33.4137 94.2161 32.4743 93.59 31.5338C93.6812 31.4968 93.7804 31.4625 93.8891 31.4301C94.4038 32.1673 94.918 32.9041 95.4307 33.6387ZM95.931 33.1976C95.5419 32.6399 95.1513 32.0804 94.7609 31.5212C95.3061 31.7372 95.7134 32.1518 95.8658 32.6575C95.9181 32.8311 95.9386 33.0143 95.931 33.1976ZM93.0233 31.8786C93.6596 32.8345 94.2955 33.7892 94.9306 34.7425C94.7952 34.8026 94.6514 34.8454 94.5036 34.8702C93.901 34.0069 93.2969 33.1418 92.691 32.2746C92.7805 32.1301 92.8927 31.9959 93.0233 31.8786ZM71.1397 5.11117C70.5023 4.14732 69.8657 3.18407 69.2298 2.22155C69.3738 2.14613 69.5396 2.08125 69.7362 2.0228C70.3312 2.89712 70.9275 3.77243 71.525 4.6486C71.4236 4.82495 71.294 4.98313 71.1397 5.11117ZM71.7723 3.83439C71.3806 3.25989 70.9895 2.68578 70.5989 2.112C71.1474 2.32725 71.5573 2.7431 71.7103 3.25094C71.7669 3.43829 71.7854 3.63664 71.7723 3.83439ZM70.5486 5.41854C70.0379 5.56453 69.4511 5.48706 69.0231 5.18367C68.442 4.7718 68.1553 3.94586 68.3563 3.26254C68.4223 3.03808 68.5445 2.8217 68.708 2.63376C69.3207 3.56135 69.9343 4.48968 70.5486 5.41854ZM33.4984 5.23218C32.9196 4.35117 32.3426 3.47248 31.7678 2.59631C31.9609 2.54522 32.1154 2.55748 32.405 2.64575C33.035 2.83787 33.5114 3.28513 33.6794 3.84228C33.8161 4.2959 33.7365 4.81361 33.4984 5.23218ZM32.5569 5.99848C32.3087 6.07562 32.0411 6.09828 31.7812 6.06773C31.2959 5.32337 30.8122 4.58074 30.33 3.83982C30.387 3.65248 30.4824 3.47083 30.6087 3.3072L32.5569 5.99848ZM5.9287 39.8074C5.4269 39.0174 4.92569 38.2287 4.42501 37.4412C4.50454 37.4537 4.5938 37.476 4.70209 37.509C5.33213 37.7011 5.80856 38.1484 5.97649 38.7056C6.08325 39.0596 6.0578 39.4527 5.9287 39.8074ZM3.17063 37.8931C3.32252 37.7637 3.50013 37.6609 3.7234 37.5728C4.32925 38.5257 4.93596 39.4805 5.54354 40.437C5.47574 40.5083 5.40238 40.5739 5.32285 40.6312C4.96512 40.8885 4.4942 40.9873 4.04932 40.928C3.5729 40.1908 3.09714 39.4541 2.62204 38.7182C2.62217 38.7178 2.62224 38.7174 2.6223 38.717C2.7127 38.4099 2.9074 38.1172 3.17063 37.8931ZM4.09757 47.8968L5.80372 50.371C5.76197 50.468 5.7116 50.5607 5.65441 50.6487C5.05724 49.752 4.45875 48.8545 3.85893 47.9562C3.8906 47.9462 3.92201 47.9362 3.95535 47.9267C4.00479 47.9125 4.05124 47.9028 4.09757 47.8968ZM5.10197 48.186C5.48721 48.4191 5.77032 48.7637 5.89173 49.1663C5.91519 49.2442 5.93155 49.3242 5.94262 49.405L5.10197 48.186ZM3.08594 48.3538C3.1365 48.3108 3.19018 48.2709 3.24704 48.2332C3.89259 49.1999 4.53668 50.1658 5.17911 51.1306C4.85537 51.3414 4.45119 51.4311 4.0588 51.3987C3.54798 50.6736 3.03703 49.9487 2.52614 49.2241C2.53012 49.2087 2.5331 49.1931 2.53754 49.1779C2.62793 48.8706 2.82264 48.578 3.08594 48.3538ZM3.60828 62.6401L4.39147 63.7983C4.29803 63.8359 4.20088 63.8651 4.10154 63.8864C3.49562 62.99 2.88905 62.0933 2.28194 61.1963C2.34039 61.1159 2.4054 61.0391 2.4775 60.9679C2.85445 61.5254 3.2314 62.0828 3.60828 62.6401ZM4.15721 62.2689C3.78073 61.7123 3.40431 61.1554 3.02782 60.5986C3.11145 60.5613 3.20138 60.5265 3.30026 60.494C3.88146 61.4346 4.46239 62.3744 5.04306 63.3135C5.01091 63.3536 4.97745 63.3924 4.94193 63.4292L4.15721 62.2689ZM5.44731 62.2435L4.35814 60.5853C4.8632 60.809 5.23829 61.2077 5.38323 61.6885C5.43704 61.8669 5.45672 62.0552 5.44731 62.2435ZM2.48618 63.4419C2.34628 63.2124 2.20639 62.9828 2.06649 62.7532C1.9763 62.4891 1.94448 62.2056 1.98073 61.9337C2.42071 62.5839 2.86035 63.2338 3.29972 63.8836C3.08216 63.8355 2.87513 63.7482 2.69607 63.6213C2.62092 63.5681 2.55099 63.5077 2.48618 63.4419ZM33.4538 95.9697C33.4377 96.0295 33.4179 96.0882 33.3961 96.1462C32.83 95.3487 32.2634 94.5504 31.6964 93.7511C31.7559 93.7464 31.8164 93.7481 31.8837 93.7577C32.4075 94.4956 32.931 95.233 33.4538 95.9697ZM30.5871 94.2653C30.6064 94.2474 30.6254 94.2291 30.6455 94.2119C30.7583 94.116 30.8851 94.0345 31.034 93.9629C31.6956 94.8955 32.3567 95.8271 33.0171 96.7573C32.9496 96.8282 32.8767 96.8933 32.7977 96.9502C32.73 96.9988 32.6581 97.0413 32.5833 97.0786C31.9185 96.1418 31.253 95.204 30.5871 94.2653ZM31.1622 97.0855C31.1838 97.1176 31.2055 97.1498 31.2271 97.182C31.2253 97.1815 31.2236 97.1808 31.2219 97.1803C31.202 97.1487 31.1821 97.117 31.1622 97.0855ZM45.5052 94.5128C46.0391 95.383 46.571 96.2504 47.1005 97.1147C47.0152 97.2789 46.9059 97.4292 46.7759 97.5572C46.1124 96.6222 45.448 95.6859 44.783 94.749C44.9324 94.6724 45.1044 94.6066 45.3104 94.5474C45.3785 94.5279 45.4411 94.5168 45.5052 94.5128ZM43.8928 95.7986C43.9256 95.687 43.9725 95.5774 44.0312 95.4723L45.6784 98.0228C45.5405 98.0306 45.4019 98.0233 45.266 98.0012C44.7953 97.3382 44.3246 96.6749 43.8536 96.011L43.8488 96.0042C43.8593 95.9348 43.8729 95.8659 43.8928 95.7986ZM46.4665 94.8125C46.847 95.0455 47.1264 95.3878 47.2469 95.7872C47.2864 95.9182 47.3076 96.0545 47.3125 96.1922C47.0311 95.7331 46.7491 95.2732 46.4665 94.8125ZM67.2467 96.3198C67.2401 96.143 67.2596 95.9665 67.309 95.7986C67.3722 95.5835 67.4877 95.3761 67.641 95.1937C68.2021 96.1486 68.7553 97.0886 69.2934 98.0012C68.9947 98.0499 68.6823 98.0263 68.3976 97.9307C68.0148 97.3952 67.6311 96.8583 67.2467 96.3198ZM70.6779 95.8452C70.8043 96.3338 70.6898 96.8869 70.4005 97.3079C69.7637 96.4201 69.1233 95.5267 68.4794 94.6277C68.5564 94.5996 68.6381 94.5729 68.7267 94.5474C68.811 94.5232 68.8869 94.5106 68.968 94.5106C69.0841 94.5106 69.2109 94.5364 69.3888 94.5907C69.6239 94.6624 69.8376 94.7696 70.0219 94.9049L70.6779 95.8452ZM52.2729 2.5372C52.5792 2.76378 52.8033 3.0679 52.9078 3.41469C52.9102 3.42251 52.9117 3.4306 52.9138 3.43849L52.2729 2.5372ZM50.102 2.60221C50.2533 2.47331 50.4302 2.37073 50.6523 2.28285C51.2744 3.21754 51.8979 4.15435 52.5228 5.09308C52.4423 5.1854 52.353 5.26923 52.2541 5.34034C52.0333 5.49912 51.7693 5.5972 51.495 5.63551C50.8957 4.78392 50.2972 3.93393 49.6998 3.08579C49.8018 2.90686 49.9386 2.74131 50.102 2.60221ZM50.6265 5.55287C50.4818 5.50277 50.3443 5.43504 50.2206 5.34736C49.7804 5.03542 49.5098 4.4859 49.4914 3.94076C49.8694 4.47742 50.2477 5.01481 50.6265 5.55287ZM70.6416 65.1905C70.5749 66.6224 69.3983 67.7237 67.9696 67.7001C61.9669 67.597 56.5831 67.5544 51.6034 67.5738C51.5786 67.5665 51.5534 67.5602 51.5271 67.5563C51.4409 67.5433 51.3565 67.5512 51.2784 67.5752C45.0406 67.6031 39.434 67.7291 34.0331 67.9567C33.3045 67.9873 32.6152 67.7243 32.092 67.2159C31.5685 66.7071 31.2856 66.0247 31.2956 65.2947L31.7491 31.9737C31.7685 30.5521 32.9414 29.3887 34.3637 29.3803C35.9682 29.3707 37.5872 29.3668 39.2127 29.3668C43.1754 29.3668 47.1746 29.3902 51.0788 29.4131C54.9793 29.4361 58.9732 29.4594 62.9333 29.4595C62.9344 29.4595 62.9354 29.4597 62.9366 29.4597C62.9379 29.4597 62.9392 29.4595 62.9406 29.4595C64.6057 29.4595 66.265 29.4555 67.9087 29.4454C67.9142 29.4454 67.9196 29.4454 67.9251 29.4454C69.3233 29.4454 70.4741 30.5378 70.5483 31.9395C71.1282 42.8849 71.1595 54.0721 70.6416 65.1905ZM97.5761 61.1061C97.5423 61.1591 97.5058 61.2103 97.4666 61.2592C96.8421 60.3378 96.2168 59.414 95.5906 58.4878C95.617 58.4778 95.6449 58.4683 95.6727 58.4587C96.3087 59.3439 96.9432 60.2263 97.5761 61.1061ZM97.8533 60.3565C97.3896 59.7119 96.9251 59.0659 96.4598 58.4184C96.4827 58.4249 96.5063 58.4318 96.5311 58.4393C97.1613 58.6314 97.6376 59.0786 97.8055 59.6358C97.8751 59.8666 97.8878 60.1139 97.8533 60.3565ZM96.6093 61.8123C96.1069 61.9453 95.5368 61.8651 95.1184 61.5684C94.5373 61.1565 94.2506 60.3306 94.4515 59.6473C94.5028 59.4728 94.5888 59.3036 94.7008 59.1484C95.3391 60.0394 95.9753 60.9275 96.6093 61.8123Z" fill="white"/>
</svg>
