<svg width="18" height="19" viewBox="0 0 18 19" fill="none" xmlns="http://www.w3.org/2000/svg">
<g clip-path="url(#clip0_373_3814)">
<path d="M18 5.72909L12.7269 0.456055L9.71378 3.46923L8.96049 2.71595L1.42756 10.2489C-2.89337 14.9237 3.53707 21.3478 8.20717 17.0285L15.7401 9.49556L14.9868 8.74227L18 5.72909ZM12.7269 1.96263L16.4934 5.72909L14.2335 7.98899L10.4671 4.22252L12.7269 1.96263ZM7.45389 16.2752C6.74964 16.9795 5.8133 17.3673 4.81737 17.3673C1.51602 17.3781 -0.157774 13.3231 2.18085 11.0022L7.45392 5.72909L12.727 11.0021L7.45389 16.2752ZM13.4802 10.2488L8.20721 4.97581L8.96049 4.22252L14.2335 9.49556L13.4802 10.2488Z" fill="#00081E"/>
<path d="M11.9727 4.22363L12.7258 3.47045L13.479 4.22363L12.7258 4.97681L11.9727 4.22363Z" fill="#00081E"/>
<path d="M13.4785 5.72949L14.2317 4.97631L14.9849 5.72949L14.2317 6.48267L13.4785 5.72949Z" fill="#00081E"/>
<path d="M7.07761 11.3789C6.24688 10.5482 4.8952 10.5482 4.06443 11.3789C3.23373 12.2097 3.23373 13.5614 4.06443 14.3921C4.89705 15.2248 6.24485 15.2249 7.07761 14.3921C7.91026 13.5595 7.91041 12.2117 7.07761 11.3789ZM6.32432 13.6388C5.90803 14.0552 5.23415 14.0552 4.81772 13.6388C4.40239 13.2235 4.40239 12.5476 4.81772 12.1322C5.02545 11.9245 5.29818 11.8207 5.571 11.8207C6.51182 11.8167 6.99391 12.9737 6.32432 13.6388Z" fill="#00081E"/>
</g>
<defs>
<clipPath id="clip0_373_3814">
<rect width="18" height="18" fill="white" transform="translate(0 0.456055)"/>
</clipPath>
</defs>
</svg>
