<svg width="90" height="90" viewBox="0 0 90 90" fill="none" xmlns="http://www.w3.org/2000/svg">
<path d="M0 10.0007V79.9994C0 85.5141 4.48702 89.9996 10.0002 89.9996H80.0004C85.5135 89.9996 89.9991 85.5141 89.9991 79.9994V10.0007C89.9991 4.48754 85.5135 0.00195312 80.0004 0.00195312H10.0001C4.48701 0.00195312 0 4.48754 0 10.0007ZM45.9266 1.42934V10.3572C45.9266 10.4597 45.9674 10.5578 46.0381 10.6285L50.8282 15.4204H41.2477V1.42934H45.9266ZM88.5717 79.9994C88.5717 81.522 88.1705 82.9494 87.4749 84.1877C87.6047 83.9553 87.7231 83.7172 87.8313 83.4719L85.2032 80.8437V65.5916H88.5717V79.9994ZM87.0534 84.8631C87.2021 84.6481 87.3421 84.4244 87.4705 84.1949C87.3407 84.4244 87.2021 84.6481 87.0534 84.8631ZM84.0775 87.5404C83.9505 87.4913 83.8307 87.4191 83.7282 87.3167C83.3356 86.9256 83.3356 86.2906 83.7282 85.8994C84.1179 85.5083 84.7529 85.5083 85.144 85.8994C85.3446 86.1001 85.4384 86.3641 85.4327 86.6283C85.5294 86.5489 85.6203 86.4608 85.7141 86.3757C85.2148 86.823 84.6706 87.2185 84.0775 87.5404ZM52.1401 88.5708V81.32L73.7021 59.7595H88.5717V64.0531H84.4354C84.0111 64.0531 83.6676 64.398 83.6676 64.8223V81.1612C83.6676 81.3662 83.7484 81.561 83.8927 81.7053L87.052 84.866C86.6681 85.4216 86.2164 85.9254 85.7141 86.3757C85.6709 86.1217 85.5569 85.8777 85.3605 85.6814C84.8511 85.1706 84.0198 85.1705 83.5089 85.6829C82.9994 86.1923 82.9994 87.0237 83.5089 87.5345C83.5796 87.6053 83.6618 87.6514 83.7427 87.702C82.6112 88.2533 81.3441 88.5708 80.0004 88.5708H77.5686L78.3796 87.7597C78.8747 88.021 79.4996 87.9488 79.9153 87.5345C80.4261 87.0236 80.4261 86.1923 79.9153 85.6829C79.4043 85.1705 78.573 85.1706 78.0636 85.6814C77.6479 86.097 77.5757 86.722 77.837 87.217L76.4833 88.5708H72.1218L79.26 81.4326C79.3337 81.3618 79.374 81.2637 79.374 81.1612V71.5146C79.9066 71.3487 80.2977 70.8551 80.2977 70.2677C80.2977 69.546 79.7117 68.9587 78.9887 68.9587C78.267 68.9587 77.6796 69.546 77.6796 70.2677C77.6796 70.8551 78.0708 71.3487 78.6048 71.5146V81.0025L71.0364 88.5708H63.4176V81.4802L78.2526 66.6437C78.9627 66.9281 79.8056 66.7837 80.3771 66.2108C81.1435 65.4458 81.1435 64.1989 80.3771 63.4325C79.6107 62.6662 78.3652 62.6662 77.6003 63.4325C77.0273 64.0055 76.883 64.8484 77.1673 65.5556L62.1057 80.6186C61.9614 80.7629 61.882 80.9577 61.882 81.1612V88.5708H57.587V82.4068C58.121 82.2408 58.5121 81.7486 58.5121 81.1612C58.5121 80.4396 57.9262 79.8522 57.2031 79.8522C56.4815 79.8522 55.894 80.4396 55.894 81.1612C55.894 81.7486 56.2852 82.2408 56.8192 82.4068V88.5708L52.1401 88.5708ZM56.2014 81.1612C56.2014 80.6084 56.6503 80.1596 57.203 80.1596C57.7557 80.1596 58.2046 80.6084 58.2046 81.1612C58.2046 81.714 57.7557 82.1629 57.203 82.1629C56.6503 82.1629 56.2014 81.714 56.2014 81.1612ZM77.9264 63.7587C78.5138 63.1742 79.4663 63.1742 80.0509 63.7601C80.6383 64.3461 80.6383 65.2986 80.0509 65.8846C79.4649 66.472 78.5124 66.472 77.9264 65.8846C77.3405 65.2986 77.3405 64.3461 77.925 63.7601C77.6335 64.0517 77.7792 63.9059 77.925 63.7601C77.925 63.7601 77.9264 63.7601 77.9264 63.7587ZM77.9856 70.2677C77.9856 69.7164 78.4359 69.2661 78.9886 69.2661C79.5414 69.2661 79.9902 69.7164 79.9902 70.2677C79.9902 70.8219 79.5414 71.2707 78.9886 71.2707C78.4359 71.2707 77.9856 70.8219 77.9856 70.2677ZM78.28 85.8994C78.6697 85.5083 79.3076 85.5083 79.6973 85.8994C80.0884 86.2905 80.0884 86.9255 79.6973 87.3167C79.3076 87.7077 78.6697 87.7077 78.28 87.3167C77.8904 86.9255 77.8904 86.2905 78.28 85.8994ZM34.5395 88.5708L41.4064 81.7053C41.5508 81.561 41.6316 81.3647 41.6316 81.1612V49.2513H62.6498C62.8533 49.2513 63.0481 49.1704 63.1925 49.0261L68.0952 44.1235L72.9993 49.0261C73.1436 49.1704 73.3384 49.2513 73.5434 49.2513H88.5718V53.5449H69.3406C69.1761 53.0109 68.6825 52.6198 68.0952 52.6198C67.3735 52.6198 66.7861 53.2072 66.7861 53.9288C66.7861 54.6519 67.3735 55.2378 68.0952 55.2378C68.6825 55.2378 69.1761 54.8467 69.3406 54.3142H88.5718V58.9917H73.5434C73.4409 58.9917 73.3427 59.0321 73.2706 59.1028L51.4835 80.89C51.4128 80.9621 51.3724 81.0588 51.3724 81.1612V88.5708H46.6934V81.3201L62.0408 65.9741C62.5344 66.2353 63.1607 66.1646 63.5749 65.749C64.0859 65.238 64.0859 64.4067 63.5749 63.8959C63.0654 63.3849 62.2342 63.3849 61.7233 63.8959C61.3076 64.3115 61.2369 64.9364 61.4967 65.43L46.0382 80.8899C45.9674 80.9621 45.9267 81.0588 45.9267 81.1612V88.5708H39.4437L40.2548 87.7597C40.7498 88.021 41.3747 87.9488 41.7889 87.5331C42.2999 87.0236 42.2999 86.1923 41.7889 85.6814C41.278 85.1706 40.4467 85.1706 39.9373 85.6814C39.5216 86.097 39.4494 86.722 39.7107 87.217L38.3555 88.5708H34.5395ZM40.1537 85.8994C40.5462 85.5083 41.1813 85.5083 41.5709 85.8994C41.9621 86.2905 41.9621 86.9255 41.5709 87.3167C41.1813 87.7077 40.5462 87.7077 40.1537 87.3167C39.7626 86.9255 39.7626 86.2905 40.1537 85.8994ZM61.9411 64.1137C62.3323 63.7226 62.9673 63.7226 63.357 64.1137C63.7481 64.5034 63.7481 65.1399 63.357 65.531C62.9673 65.9221 62.3323 65.9221 61.9411 65.531C61.55 65.1399 61.55 64.5034 61.9411 64.1137ZM68.0951 54.9318C67.5423 54.9318 67.0935 54.4816 67.0935 53.9288C67.0935 53.3761 67.5423 52.9272 68.0951 52.9272C68.6479 52.9272 69.0967 53.3761 69.0967 53.9288C69.0967 54.4816 68.6479 54.9318 68.0951 54.9318ZM1.42878 48.866H7.79921V59.2169L1.42878 65.5873V58.6107L1.58466 58.7666C1.32485 59.2616 1.39561 59.8865 1.8127 60.3007C2.32214 60.8131 3.15345 60.8131 3.66286 60.3022C4.17382 59.7913 4.17382 58.9643 3.66576 58.4534C3.79276 58.5789 3.91691 58.7031 3.66286 58.449C3.41032 58.1965 3.53447 58.3206 3.66147 58.4476C3.24725 58.0348 2.62233 57.9626 2.12875 58.2239L1.42878 57.5239V48.866ZM2.0292 58.667C2.42031 58.2758 3.05533 58.2758 3.4464 58.667C3.83756 59.0581 3.83756 59.6931 3.4464 60.0842C3.05533 60.4753 2.42031 60.4753 2.0292 60.0842C1.63804 59.6931 1.63804 59.0581 2.0292 58.667ZM1.42878 43.8045H7.86707L23.4367 59.3756L1.53411 81.2781C1.47206 80.8596 1.42878 80.4353 1.42878 79.9994V72.6649L14.174 59.9197C14.3184 59.7754 14.3992 59.5805 14.3992 59.3756V55.7372C15.102 55.437 15.5942 54.7399 15.5942 53.9288C15.5942 52.8464 14.7138 51.966 13.6299 51.966C12.5475 51.966 11.6657 52.8464 11.6657 53.9288C11.6657 54.7399 12.1593 55.437 12.8622 55.7372V59.0581L1.42882 70.4914V66.6755L8.45596 59.6469C8.52811 59.5748 8.56856 59.4781 8.56856 59.3757V48.4835C8.56856 48.2699 8.39677 48.0982 8.18317 48.0982H1.42887V43.8045H1.42878ZM12.1275 53.9288C12.1275 53.1004 12.8014 52.4264 13.6299 52.4264C14.4598 52.4264 15.1338 53.1004 15.1338 53.9288C15.1338 54.7587 14.4598 55.4327 13.6299 55.4327C12.8014 55.4327 12.1275 54.7587 12.1275 53.9288ZM1.42878 38.3577H8.18309C8.38805 38.3577 8.58288 38.2769 8.72722 38.1326L19.6207 27.2405C19.7651 27.0962 19.8459 26.9014 19.8459 26.6978C19.8459 26.4929 19.7651 26.298 19.6207 26.1537L1.63084 8.16484C1.56879 8.45063 1.52114 8.74361 1.48654 9.03951C1.96424 4.75884 5.5925 1.4293 10.0001 1.4293H15.0529L23.3717 9.74807C23.1105 10.2432 23.1812 10.868 23.5983 11.2837C24.1092 11.7946 24.9376 11.7946 25.45 11.2837C25.9595 10.7742 25.9595 9.94579 25.4528 9.43488C25.5799 9.56045 25.704 9.68458 25.45 9.43201C25.1946 9.17657 25.3215 9.30353 25.4485 9.43058C25.0329 9.01492 24.4093 8.9442 23.9144 9.20541L16.1397 1.42926H20.4997L23.3718 4.30126C23.1105 4.79627 23.1813 5.42127 23.5984 5.83688C24.1093 6.34776 24.9376 6.34776 25.45 5.83688C25.9595 5.32596 25.9595 4.49465 25.45 3.98377C25.0344 3.56955 24.4094 3.4974 23.9144 3.7586L21.5865 1.42926H29.201V15.035H19.3956L10.0059 5.64497C10.2902 4.93632 10.1459 4.09491 9.57293 3.52194C8.80805 2.75558 7.56108 2.75558 6.79472 3.52194C6.02984 4.28687 6.02983 5.53093 6.79329 6.29733C6.41367 5.91771 6.60419 6.10824 6.79472 6.29872V6.30019C6.93322 6.43873 6.99531 6.49931 7.01118 6.51518C6.98664 6.49207 6.89137 6.39541 6.79615 6.30019C7.36769 6.87312 8.21053 7.01747 8.91918 6.73168L18.534 16.3469C18.6783 16.4926 18.8732 16.572 19.0781 16.572H29.9702C30.3945 16.572 30.7394 16.2285 30.7394 15.8043V1.4293H40.4784V15.8043C40.4784 16.0164 40.6515 16.1882 40.8637 16.1882H51.7562C51.912 16.1882 52.052 16.0943 52.1112 15.9515C52.1704 15.8071 52.1386 15.6426 52.0275 15.5329L46.6933 10.1984V1.42926H50.9884V8.55018C50.2855 8.85032 49.7919 9.54748 49.7919 10.3571C49.7919 11.441 50.6737 12.3213 51.7562 12.3213C52.8386 12.3213 53.7204 11.441 53.7204 10.3571C53.7204 9.54748 53.2268 8.85032 52.524 8.55018V1.42926H56.8191V15.6455L46.9199 25.5446C46.4234 25.2848 45.7982 25.3555 45.3839 25.7698C44.873 26.2807 44.873 27.112 45.3839 27.6229C45.8949 28.1338 46.725 28.1338 47.236 27.6229C47.6516 27.2087 47.7223 26.5823 47.4625 26.0887L57.4757 16.0756C57.5464 16.0034 57.5869 15.9067 57.5869 15.8043V1.4293H65.0426L62.1056 4.3663C61.9613 4.51065 61.8819 4.7069 61.8819 4.91039V42.2675H15.4383C15.1381 41.5661 14.441 41.0725 13.6299 41.0725C12.5475 41.0725 11.6657 41.9528 11.6657 43.0353C11.6657 44.1191 12.5475 45.001 13.6299 45.001C14.441 45.001 15.1381 44.5074 15.4383 43.8045H62.6498C63.0741 43.8045 63.4176 43.461 63.4176 43.0353V5.22931L67.2161 1.4293H71.0335L67.8238 4.639C67.6737 4.78912 67.6737 5.03302 67.8238 5.18174L78.7159 16.0756C78.7924 16.1507 78.8905 16.1882 78.9886 16.1882C79.0882 16.1882 79.1849 16.1507 79.2599 16.0756L88.1041 7.2311C88.0132 6.96552 87.9107 6.7057 87.7953 6.45313L78.9886 15.2602L68.6392 4.91035L72.1203 1.4293H76.4788L73.2705 4.639C73.1205 4.78912 73.1205 5.03302 73.2705 5.18174L77.8369 9.74811C77.5757 10.2417 77.6465 10.8666 78.0635 11.2837C78.573 11.7946 79.4043 11.7946 79.9152 11.2837C80.4261 10.7728 80.4261 9.94154 79.9152 9.43062C79.4995 9.01496 78.8746 8.94425 78.3796 9.20402L74.086 4.91039L77.567 1.42934H80.0004C80.7465 1.42934 81.4667 1.53471 82.1566 1.71362C81.8694 1.64004 81.5764 1.58089 81.2776 1.5361L79.7233 3.08906C79.0161 2.80475 78.1732 2.94905 77.6002 3.52202C76.8339 4.28838 76.8339 5.53392 77.6002 6.30028C78.3652 7.06659 79.6107 7.06659 80.3771 6.30028C80.95 5.72731 81.0943 4.88442 80.81 4.17582L83.0037 1.98206C82.7295 1.8796 82.4481 1.79015 82.1609 1.71509C85.8469 2.67484 88.5717 6.01592 88.5717 10.0007V10.5809L85.17 13.9826C84.4614 13.6968 83.62 13.8426 83.0456 14.4156C82.2806 15.1808 82.2806 16.4278 83.0456 17.1927C83.8119 17.9591 85.0589 17.9591 85.8238 17.1927C86.3982 16.6198 86.5411 15.7783 86.2567 15.0697L88.5717 12.7544V22.0174L85.0444 25.5447C84.5508 25.2849 83.9274 25.3556 83.5103 25.7699C83.6373 25.6414 83.7643 25.5159 83.5089 25.7699C83.5089 25.7713 83.5074 25.7713 83.5074 25.7713C82.9994 26.2822 82.9994 27.1121 83.5089 27.623C84.0198 28.1324 84.8511 28.1324 85.3605 27.623C85.7762 27.2073 85.8483 26.5823 85.5885 26.0873L88.5717 23.1042V31.7592H79.3739V22.4952C79.9065 22.3307 80.2976 21.837 80.2976 21.2511C80.2976 20.528 79.7116 19.9406 78.9886 19.9406C78.2669 19.9406 77.6795 20.528 77.6795 21.2511C77.6795 21.837 78.0707 22.3307 78.6047 22.4952V32.1432C78.6047 32.3568 78.775 32.5271 78.9886 32.5271H88.5716V36.8222H73.8607L69.9164 32.8777C70.2021 32.1692 70.0578 31.3278 69.4848 30.7547C68.7185 29.9884 67.4716 29.9884 66.7067 30.7547C65.9417 31.5197 65.9417 32.7666 66.7081 33.533C67.2796 34.106 68.121 34.2488 68.8296 33.9645L72.9991 38.1326C73.1435 38.2769 73.3383 38.3577 73.5432 38.3577H88.5716V42.6528H85.6808C85.5149 42.1188 85.0227 41.7262 84.4354 41.7262C83.7137 41.7262 83.1249 42.3151 83.1249 43.0353C83.1249 43.7583 83.7137 44.3457 84.4354 44.3457C85.0227 44.3457 85.5149 43.9546 85.6808 43.4206H88.5716V47.7142H73.8607L68.6391 42.4926C68.3505 42.204 67.841 42.204 67.5524 42.4926L62.3308 47.7142H40.8637C40.438 47.7142 40.0945 48.0577 40.0945 48.4834V80.8437L32.3674 88.5708H28.55L35.6882 81.4326C35.7604 81.3618 35.8008 81.2637 35.8008 81.1612V59.3757C35.8008 59.1635 35.6291 58.9917 35.4169 58.9917H30.1289L20.2298 49.0912C20.4895 48.5976 20.4188 47.9741 20.0046 47.5584C20.1316 47.6855 20.2572 47.811 20.0031 47.5556C19.7506 47.3016 19.8748 47.4286 20.0018 47.5556C19.4908 47.0461 18.6624 47.0461 18.1501 47.5556C17.6406 48.068 17.6406 48.8978 18.1501 49.4087C18.5672 49.8243 19.1921 49.8965 19.6871 49.6353L29.6989 59.647C29.7711 59.7191 29.8677 59.7596 29.9702 59.7596H35.0316V81.0026L27.4632 88.5709H19.0766H12.7538L18.342 82.9827C19.0506 83.267 19.8934 83.1227 20.465 82.5497C21.2329 81.7848 21.2329 80.5378 20.465 79.7729C19.7001 79.0066 18.4546 79.0066 17.6882 79.7729C17.1167 80.3444 16.9709 81.1873 17.2567 81.8959L10.5803 88.5709H10.0001C8.15707 88.5709 6.45408 87.9835 5.05561 86.9934H8.18305C8.28698 86.9934 8.38367 86.953 8.45587 86.8808L18.4676 76.8677C18.9627 77.1275 19.5861 77.0567 20.0018 76.6425C19.8748 76.7695 19.7506 76.8951 20.0031 76.6411C20.2572 76.3871 20.1316 76.5126 20.0046 76.6397C20.5141 76.1302 20.5141 75.3003 20.0031 74.7895C19.4923 74.2785 18.6624 74.2785 18.15 74.7895C17.7359 75.2051 17.6637 75.83 17.9249 76.3236L8.02573 86.2241H4.12036C4.41192 86.4998 4.72217 86.7566 5.05123 86.9891C3.1924 85.6714 1.8891 83.635 1.53549 81.2825C1.62638 81.8786 1.77506 82.4544 1.98146 83.0042L25.066 59.9197C25.3677 59.6195 25.3677 59.1331 25.066 58.8315L8.72714 42.4926C8.58279 42.3482 8.38797 42.2674 8.18301 42.2674H1.4287V38.3577H1.42878ZM18.3681 75.0073C18.7592 74.6147 19.3957 74.6147 19.7867 75.0073C20.1765 75.3969 20.1765 76.0334 19.7867 76.4245C19.3957 76.8142 18.7592 76.8142 18.3681 76.4245C17.9769 76.0334 17.9769 75.3969 18.3681 75.0073ZM18.0144 80.099C18.6004 79.5116 19.5544 79.5116 20.1389 80.099C20.7263 80.6849 20.7263 81.6375 20.1389 82.2234C19.5544 82.8109 18.6004 82.8109 18.0144 82.2234C17.4285 81.6375 17.4285 80.6849 18.0144 80.099ZM19.7867 49.1907C19.3957 49.5818 18.7592 49.5818 18.3681 49.1907C17.9769 48.7996 17.9769 48.166 18.3681 47.7749C18.7592 47.3838 19.3957 47.3838 19.7867 47.7749C20.1765 48.166 20.1765 48.7996 19.7867 49.1907ZM84.4354 44.0384C83.8827 44.0384 83.4339 43.5894 83.4339 43.0353C83.4339 42.4839 83.8827 42.0337 84.4354 42.0337C84.9882 42.0337 85.4384 42.4839 85.4384 43.0353C85.4384 43.5894 84.9882 44.0384 84.4354 44.0384ZM69.1588 33.2068C68.5728 33.7928 67.6189 33.7928 67.0329 33.2068C66.4469 32.6194 66.4469 31.6669 67.0329 31.0795C67.6189 30.4935 68.5728 30.4935 69.1588 31.0795C69.7447 31.6669 69.7447 32.6194 69.1588 33.2068ZM78.9886 22.2527C78.4359 22.2527 77.9856 21.8024 77.9856 21.2511C77.9856 20.6969 78.4359 20.2481 78.9886 20.2481C79.5414 20.2481 79.9902 20.6969 79.9902 21.2511C79.9902 21.8024 79.5414 22.2527 78.9886 22.2527ZM85.144 27.405C84.7529 27.7961 84.1164 27.7961 83.7282 27.405C83.3356 27.0154 83.3356 26.3789 83.7282 25.9878C84.1164 25.5966 84.7529 25.5966 85.144 25.9878C85.5337 26.3789 85.5337 27.0154 85.144 27.405ZM83.3732 14.7403C83.9592 14.1543 84.9117 14.1543 85.4991 14.7417C86.0851 15.3266 86.0851 16.2806 85.4991 16.8666C84.9117 17.4525 83.9592 17.4525 83.3732 16.8666C82.7873 16.2806 82.7858 15.3281 83.3718 14.7417C83.3718 14.7432 83.3718 14.7432 83.3718 14.7432C83.3718 14.7432 83.3718 14.7417 83.3732 14.7403ZM80.0537 5.97117C80.0523 5.97265 80.0523 5.97264 80.0509 5.97403C79.4649 6.55858 78.5109 6.55858 77.925 5.97403C77.3405 5.3881 77.3405 4.43412 77.925 3.84818C78.5124 3.26078 79.4649 3.26078 80.0509 3.84818C80.6368 4.43265 80.6368 5.38376 80.0537 5.97117ZM78.28 9.64855C78.6697 9.25744 79.3076 9.25744 79.6973 9.64855C80.0884 10.0397 80.0884 10.6747 79.6973 11.0658C79.3076 11.4555 78.6697 11.4555 78.28 11.0658C77.8904 10.6747 77.8904 10.0397 78.28 9.64855ZM13.6299 44.5391C12.8014 44.5391 12.1275 43.8651 12.1275 43.0353C12.1275 42.2068 12.8014 41.5329 13.6299 41.5329C14.4598 41.5329 15.1338 42.2069 15.1338 43.0353C15.1338 43.8651 14.4598 44.5391 13.6299 44.5391ZM47.0181 27.4065C46.6284 27.7961 45.9919 27.7961 45.6019 27.4065C45.2094 27.0154 45.2094 26.3789 45.6019 25.9878C45.9919 25.5981 46.6284 25.5981 47.0181 25.9878C47.4107 26.3789 47.4107 27.0154 47.0181 27.4065ZM53.2601 10.3572C53.2601 11.1856 52.5861 11.8611 51.7562 11.8611C50.9278 11.8611 50.2539 11.1856 50.2539 10.3572C50.2539 9.52731 50.9279 8.85475 51.7562 8.85475C52.5861 8.85475 53.2601 9.52731 53.2601 10.3572ZM9.24824 5.97407C8.66084 6.55862 7.70829 6.55862 7.12235 5.97407C6.53499 5.38814 6.53499 4.43416 7.12235 3.84823C7.70829 3.26082 8.65941 3.26082 9.24681 3.84679C9.0996 3.70097 8.9553 3.55524 9.24824 3.84823C9.24681 3.84679 9.24681 3.84679 9.24681 3.84679C9.24681 3.84822 9.24825 3.84822 9.24968 3.84965C9.83422 4.43555 9.83275 5.3881 9.24824 5.97407ZM9.24968 3.84965C9.39402 3.99539 9.53833 4.13826 9.24968 3.84965V3.84965ZM23.8148 4.20175C24.2059 3.81067 24.841 3.81067 25.2321 4.20175C25.6232 4.59286 25.6232 5.22931 25.2321 5.61904C24.841 6.01011 24.2059 6.01011 23.8148 5.61904C23.4237 5.22931 23.4237 4.59286 23.8148 4.20175ZM23.8148 9.64855C24.2059 9.25891 24.841 9.25891 25.2321 9.64855C25.6232 10.0397 25.6232 10.6747 25.2321 11.0658C24.841 11.457 24.2059 11.457 23.8148 11.0658C23.4237 10.6747 23.4237 10.0397 23.8148 9.64855ZM1.42878 15.582L11.7753 25.9286H1.42878V20.4847L1.58609 20.642C1.32485 21.1356 1.397 21.7605 1.8127 22.1762C2.32214 22.6871 3.15489 22.6871 3.66433 22.1762C4.17382 21.6667 4.17382 20.8354 3.66433 20.326C3.79134 20.453 3.91834 20.5785 3.66433 20.3245C3.66433 20.3231 3.66286 20.3231 3.66286 20.3231C3.24724 19.9089 2.62233 19.8382 2.13019 20.0979L1.42878 19.3979V15.582ZM2.0292 20.541C2.42031 20.1513 3.05533 20.1513 3.4464 20.541C3.83756 20.9321 3.83756 21.5686 3.4464 21.9583C3.05533 22.3494 2.42031 22.3494 2.0292 21.9583C1.63947 21.5686 1.63947 20.9321 2.0292 20.541ZM1.42878 10.1349L17.9899 26.6978L7.86703 36.8222H1.42874V32.5271H6.93903C7.10501 33.0611 7.5972 33.4537 8.18309 33.4537C8.90621 33.4537 9.49362 32.8648 9.49362 32.1432C9.49362 31.4215 8.90621 30.8342 8.18309 30.8342C7.5972 30.8342 7.10505 31.2253 6.93903 31.7592H1.42874V27.4656H13.6299C13.9416 27.4656 14.2231 27.278 14.3399 26.9909C14.4597 26.7036 14.3933 26.3731 14.174 26.1537L1.42874 13.4082V10.1349H1.42878ZM8.18309 31.1416C8.73728 31.1416 9.18763 31.5904 9.18763 32.1432C9.18763 32.696 8.73728 33.1448 8.18309 33.1448C7.63037 33.1448 7.1815 32.696 7.1815 32.1432C7.1815 31.5904 7.63037 31.1416 8.18309 31.1416ZM1.42878 10.0007C1.42878 9.68753 1.44894 9.37725 1.4822 9.07268C1.44755 9.37725 1.42878 9.68749 1.42878 10.0007Z" fill="white"/>
<path d="M80.3775 66.2099C79.6111 66.9763 81.1439 65.445 80.3775 66.2099V66.2099Z" fill="white"/>
<path d="M17.924 59.9841L8.79271 69.1154C8.29766 68.8556 7.67278 68.9264 7.25708 69.342C6.74764 69.853 6.74764 70.6828 7.25708 71.1952C7.76805 71.7046 8.59936 71.7046 9.11019 71.1952C9.52442 70.7795 9.59518 70.1545 9.33537 69.6595L18.4668 60.5282C18.9618 60.788 19.5852 60.7172 20.0009 60.303C19.8739 60.43 19.7498 60.5556 20.0023 60.3016C20.2563 60.0476 20.1308 60.1717 20.0038 60.3002C20.5132 59.7892 20.5132 58.9594 20.0023 58.4485C19.4914 57.939 18.6615 57.939 18.1492 58.4485C17.735 58.8641 17.6628 59.489 17.924 59.9841ZM8.89234 70.9757C8.50123 71.3683 7.86617 71.3683 7.4751 70.9757C7.08394 70.5861 7.08394 69.9511 7.4751 69.5599C7.86617 69.1688 8.50123 69.1688 8.89234 69.5599C9.28199 69.9511 9.28199 70.5861 8.89234 70.9757ZM18.3672 58.6664C18.7583 58.2753 19.3948 58.2753 19.7858 58.6664C20.1756 59.0575 20.1756 59.6925 19.7858 60.0837C19.3948 60.4748 18.7583 60.4748 18.3672 60.0837C17.976 59.6925 17.976 59.0575 18.3672 58.6664Z" fill="white"/>
<path d="M3.66176 20.3215C3.41357 20.0733 3.5348 20.1959 3.66176 20.3215V20.3215Z" fill="white"/>
<path d="M79.9151 9.43166C79.4041 8.92075 80.426 9.94263 79.9151 9.43166V9.43166Z" fill="white"/>
<path d="M77.6003 3.52203C76.834 4.28835 78.3652 2.75563 77.6003 3.52203V3.52203Z" fill="white"/>
<path d="M45.7661 58.8317C45.6232 58.976 45.541 59.1723 45.541 59.3758V70.2679C45.541 70.5796 45.7286 70.8597 46.0147 70.978C46.11 71.0184 46.211 71.0371 46.3092 71.0371C46.5098 71.0371 46.7061 70.9592 46.8533 70.812L56.4681 61.1971C57.1753 61.4815 58.0195 61.3371 58.5911 60.7641C59.3574 59.9993 59.3574 58.7523 58.5911 57.9874C57.8262 57.2211 56.5793 57.2211 55.8143 57.9874C55.2399 58.5603 55.0956 59.4017 55.3813 60.1104L47.0784 68.4133V59.6933L51.0214 55.7504C51.7299 56.0347 52.5728 55.8917 53.1444 55.3189C53.9107 54.5525 53.9107 53.3055 53.1444 52.5406C52.3794 51.7742 51.1339 51.7742 50.3676 52.5406C49.7947 53.1135 49.6503 53.9549 49.9346 54.6636L45.7661 58.8317ZM50.6937 52.8668C51.2782 52.2808 52.2322 52.2808 52.8196 52.8668C53.4042 53.4527 53.4042 54.4053 52.8196 54.9913C52.2322 55.5786 51.2782 55.5786 50.6937 54.9913C50.1078 54.4053 50.1078 53.4527 50.6937 52.8668ZM56.1391 58.3121C56.7264 57.7262 57.679 57.7262 58.2649 58.3121C58.8509 58.8981 58.8523 59.8462 58.2693 60.4337C58.2678 60.4351 58.2678 60.4365 58.2649 60.438C58.2621 60.4409 58.2605 60.4424 58.2577 60.4452C57.6703 61.024 56.7236 61.0225 56.1391 60.438C55.5531 59.852 55.5531 58.8995 56.1391 58.3121Z" fill="white"/>
<path d="M53.1445 55.3191C52.3796 56.0839 53.9109 54.5527 53.1445 55.3191V55.3191Z" fill="white"/>
<path d="M55.8151 57.987C55.0488 58.7519 56.5801 57.2207 55.8151 57.987V57.987Z" fill="white"/>
<path d="M50.8285 69.3435C50.3176 69.8545 50.3176 70.6843 50.8285 71.1952C51.3394 71.7061 52.1678 71.7061 52.6802 71.1967C52.5517 71.3236 52.4276 71.4506 52.6816 71.1952C52.937 70.9412 52.81 71.0668 52.683 71.1938C53.0972 70.7781 53.168 70.1546 52.9082 69.6596L62.9199 59.6479C62.9921 59.5757 63.0325 59.479 63.0325 59.3766C63.0325 59.2741 62.9921 59.1774 62.9199 59.1038L57.4732 53.6584C57.3231 53.5084 57.0806 53.5084 56.9305 53.6584L52.3641 58.2249C51.8705 57.9636 51.247 58.0358 50.83 58.45C50.9584 58.3216 51.0825 58.196 50.8285 58.45C50.5759 58.7054 50.7001 58.5799 50.827 58.4515C50.3176 58.9623 50.3191 59.7923 50.8285 60.3017C51.3394 60.8126 52.1693 60.8126 52.6816 60.3017C53.0972 59.8875 53.1694 59.2625 52.9082 58.7675L57.2018 54.4739L62.1045 59.3766L52.3641 69.117C51.8691 68.8571 51.2456 68.9279 50.8285 69.3435ZM52.4637 60.0852C52.0726 60.4763 51.4375 60.4763 51.0465 60.0852C50.6553 59.6941 50.6553 59.059 51.0465 58.6679C51.4375 58.2768 52.0726 58.2768 52.4637 58.6679C52.8548 59.059 52.8548 59.6941 52.4637 60.0852ZM51.0465 69.5615C51.4375 69.1703 52.0726 69.1703 52.4637 69.5615C52.8548 69.9511 52.8548 70.5876 52.4637 70.9772C52.0726 71.3684 51.4375 71.3684 51.0465 70.9772C50.6553 70.5876 50.6553 69.9511 51.0465 69.5615Z" fill="white"/>
<path d="M74.4702 82.0873C74.9796 81.5764 74.9796 80.7465 74.4687 80.2356C73.9579 79.7261 73.128 79.7261 72.6171 80.2356C72.2014 80.6513 72.1293 81.2776 72.3905 81.7713L68.7045 85.4573C68.2108 85.196 67.5845 85.2682 67.1703 85.6824C66.6594 86.1934 66.6594 87.0247 67.1703 87.5356C67.6798 88.0464 68.5096 88.0464 69.0205 87.537C68.8935 87.664 68.768 87.7895 69.0219 87.5356C69.2759 87.2801 69.1504 87.4071 69.0234 87.5341C69.4362 87.1185 69.5083 86.4949 69.2485 85.9999L72.9331 82.3154C73.4281 82.5752 74.0516 82.5044 74.4673 82.0902C74.3402 82.2173 74.2147 82.3428 74.4687 82.0888C74.7227 81.8348 74.5972 81.9603 74.4702 82.0873ZM68.8054 87.3176C68.4143 87.7087 67.7779 87.7087 67.3868 87.3176C66.9971 86.9265 66.9971 86.2914 67.3868 85.9003C67.7779 85.5092 68.4143 85.5092 68.8054 85.9003C69.1952 86.2914 69.1952 86.9265 68.8054 87.3176ZM74.2508 81.8708C73.8611 82.2619 73.2246 82.2619 72.8349 81.8708C72.4424 81.4811 72.4424 80.8446 72.8349 80.4535C73.2246 80.0624 73.8611 80.0624 74.2508 80.4535C74.6419 80.8446 74.6419 81.4812 74.2508 81.8708Z" fill="white"/>
<path d="M23.5981 47.5582C23.0871 48.0691 23.0871 48.899 23.5981 49.4098C24.0122 49.8255 24.6372 49.8977 25.1322 49.6364L28.8182 53.321C28.5571 53.816 28.6292 54.4409 29.0448 54.8566C29.5544 55.366 30.3856 55.366 30.8965 54.8566C31.4074 54.3456 31.4074 53.5144 30.8965 53.0035C30.4808 52.5893 29.8559 52.5171 29.3623 52.7783L25.6749 49.0923C25.9361 48.5987 25.8654 47.9738 25.4497 47.5567C24.9373 47.0473 24.1089 47.0473 23.5981 47.5582ZM29.2613 53.2214C29.6524 52.8317 30.2874 52.8317 30.6786 53.2214C31.0697 53.6126 31.0697 54.2475 30.6786 54.6387C30.2874 55.0298 29.6524 55.0298 29.2613 54.6387C28.8702 54.2475 28.8702 53.6126 29.2613 53.2214ZM23.8145 47.7761C24.2056 47.385 24.8407 47.385 25.2318 47.7761C25.6229 48.1672 25.6229 48.8008 25.2318 49.1919C24.8407 49.583 24.2056 49.583 23.8145 49.1919C23.4234 48.8008 23.4234 48.1672 23.8145 47.7761Z" fill="white"/>
<path d="M33.5964 53.196C33.3121 53.9047 33.455 54.7475 34.0279 55.3206C34.7943 56.0854 36.0398 56.0854 36.8061 55.3206C37.5711 54.5556 37.5725 53.3101 36.809 52.5437L36.8061 52.5423C36.4237 52.1598 36.6142 52.3503 36.8061 52.5408C36.2317 51.9693 35.3904 51.825 34.6831 52.1093L31.7923 49.2185C32.0766 48.5113 31.9323 47.6714 31.3623 47.097C31.5528 47.2875 31.7418 47.478 31.3608 47.0956C30.9798 46.7145 31.1674 46.9021 31.3579 47.0926C30.5916 46.3306 29.3461 46.3306 28.5825 47.0956C27.8162 47.8619 27.8162 49.1089 28.5825 49.8738C29.1555 50.4467 29.997 50.591 30.7056 50.3053L33.5964 53.196ZM31.0347 49.5476C30.4473 50.1335 29.4947 50.1335 28.9088 49.5476C28.3214 48.9616 28.3214 48.0076 28.9088 47.4217C29.4947 46.8357 30.4473 46.8357 31.0347 47.4217C31.6206 48.0076 31.6206 48.9616 31.0347 49.5476ZM34.3541 52.8685C34.9401 52.2825 35.894 52.2825 36.48 52.8685C37.0659 53.4544 37.0659 54.4069 36.48 54.9929C35.894 55.5803 34.9401 55.5803 34.3541 54.9929C33.7681 54.4069 33.7681 53.4544 34.3541 52.8685Z" fill="white"/>
<path d="M25.4491 63.8959C24.9367 63.385 24.1083 63.385 23.5975 63.8959C23.1804 64.3115 23.1096 64.9364 23.3709 65.43L8.79271 80.0082C8.29766 79.7484 7.67278 79.8191 7.25708 80.2348C6.74764 80.7457 6.74764 81.577 7.25708 82.0879C7.76805 82.5974 8.59936 82.5974 9.11019 82.0879C9.52442 81.6723 9.59518 81.0473 9.33537 80.5523L23.9135 65.9741C24.4085 66.2354 25.0335 66.1646 25.4491 65.749C25.9586 65.2381 25.9586 64.4068 25.4491 63.8959ZM8.89234 81.8699C8.50123 82.261 7.86617 82.261 7.4751 81.8699C7.08394 81.4803 7.08394 80.8438 7.4751 80.4526C7.86617 80.0615 8.50123 80.0615 8.89234 80.4526C9.28199 80.8438 9.28199 81.4803 8.89234 81.8699ZM25.2312 64.1138C25.6223 64.5035 25.6223 65.14 25.2312 65.5311C24.8401 65.9222 24.205 65.9222 23.8139 65.5311C23.4228 65.14 23.4228 64.5035 23.8139 64.1138C24.205 63.7227 24.8401 63.7227 25.2312 64.1138Z" fill="white"/>
<path d="M31.3594 66.2094L31.5773 65.9915C31.5989 65.9713 31.4792 66.0911 31.3594 66.2094Z" fill="white"/>
<path d="M17.687 87.997C18.0695 88.3809 18.5731 88.5714 19.0753 88.5714C19.579 88.5714 20.0813 88.3809 20.4638 87.997C21.0382 87.4241 21.1825 86.5826 20.8968 85.8754L30.513 76.2592C30.8132 75.9589 30.8132 75.4726 30.513 75.1724L25.6089 70.2683L29.2343 66.6443C29.9429 66.9287 30.7844 66.7843 31.3574 66.2114C31.1668 66.4033 30.9748 66.5938 31.3588 66.2114V66.21C32.1237 65.4451 32.1237 64.1995 31.3588 63.4332C30.5924 62.6668 29.3454 62.6668 28.5805 63.4332C28.0076 64.0061 27.8633 64.849 28.1475 65.5562L23.9795 69.7257C23.8352 69.87 23.7543 70.0663 23.7543 70.2683C23.7543 70.4733 23.8352 70.6681 23.9795 70.8125L28.8822 75.7165L19.81 84.7888C19.1014 84.503 18.2614 84.6473 17.687 85.2203C16.922 85.9851 16.922 87.2321 17.687 87.997ZM28.9067 63.7607C29.4926 63.1733 30.4466 63.1748 31.0326 63.7607C31.6185 64.3467 31.6185 65.2992 31.0326 65.8852C30.4452 66.4726 29.4912 66.4726 28.9067 65.8852C28.3193 65.2992 28.3193 64.3467 28.9067 63.7607ZM18.0131 87.6722C17.4272 87.0863 17.4272 86.1324 18.0131 85.5464C18.5991 84.959 19.5531 84.959 20.1376 85.5464C20.725 86.1324 20.725 87.0863 20.1376 87.6722C19.5531 88.2582 18.5991 88.2582 18.0131 87.6722Z" fill="white"/>
<path d="M20.4646 87.997C19.6997 88.7634 21.2325 87.2321 20.4646 87.997V87.997Z" fill="white"/>
<path d="M20.4646 82.5498C19.6997 83.3161 21.2325 81.7848 20.4646 82.5498V82.5498Z" fill="white"/>
<path d="M67.1695 11.2828C66.9169 11.0302 67.0425 11.1557 67.1695 11.2828V11.2828Z" fill="white"/>
<path d="M67.1685 9.43105C66.6576 9.94201 66.6576 10.7718 67.1671 11.2827L67.1685 11.2842C67.297 11.4112 67.4225 11.5381 67.1685 11.2842C67.5842 11.6998 68.2091 11.7705 68.7027 11.5093L72.3887 15.1956C72.1275 15.6892 72.1996 16.3142 72.6139 16.7298C72.6139 16.7298 72.6139 16.7298 72.6153 16.7313C72.8693 16.9852 72.7438 16.8597 72.6167 16.7313C73.1276 17.2407 73.9561 17.2407 74.467 16.7313C74.9778 16.2203 74.9778 15.389 74.467 14.8781C74.0513 14.4621 73.4264 14.3914 72.9313 14.6512L69.2468 10.9666C69.5066 10.4716 69.4344 9.84666 69.0202 9.431C68.5093 8.92013 67.678 8.92013 67.1685 9.43105ZM72.8332 15.0961C73.2229 14.7046 73.8594 14.7046 74.2491 15.0961C74.6401 15.4858 74.6401 16.1223 74.2491 16.5134C73.8594 16.9044 73.2229 16.9044 72.8332 16.5134C72.4407 16.1223 72.4407 15.4858 72.8332 15.0961ZM67.385 9.64898C67.7761 9.25786 68.4126 9.25786 68.8037 9.64898C69.1934 10.0401 69.1934 10.6751 68.8037 11.0663C68.4126 11.4559 67.7761 11.4559 67.385 11.0663C66.9953 10.6751 66.9953 10.0401 67.385 9.64898Z" fill="white"/>
<path d="M72.6147 16.73C72.3635 16.4775 72.4862 16.603 72.6147 16.73V16.73Z" fill="white"/>
<path d="M69.0234 14.8779C69.1505 15.0064 69.276 15.1319 69.0234 14.8779V14.8779Z" fill="white"/>
<path d="M67.1703 14.879C66.6594 15.3899 66.6594 16.2212 67.1703 16.7321C67.5845 17.1463 68.2109 17.2185 68.7045 16.9573L72.3905 20.6433C72.1293 21.1369 72.2014 21.7618 72.6171 22.1775C73.128 22.6884 73.9579 22.6884 74.4687 22.1775C74.9796 21.668 74.9796 20.8367 74.4702 20.3272C74.5972 20.4542 74.7227 20.5798 74.4687 20.3258C74.2147 20.0718 74.3403 20.1973 74.4673 20.3244C74.0516 19.9101 73.4281 19.8395 72.9331 20.0992L69.2486 16.4147C69.5084 15.921 69.4362 15.2961 69.0234 14.879H69.022C68.7665 14.6247 68.8935 14.7517 69.022 14.879C68.5111 14.3677 67.6798 14.3692 67.1703 14.879ZM72.835 20.5423C73.2247 20.1526 73.8611 20.1526 74.2508 20.5423C74.6419 20.9334 74.6419 21.5699 74.2508 21.9595C73.8611 22.3507 73.2247 22.3507 72.835 21.9595C72.4425 21.5699 72.4425 20.9333 72.835 20.5423ZM67.3868 15.0969C67.7779 14.7055 68.4144 14.7055 68.8055 15.0969C69.1952 15.4866 69.1952 16.1231 68.8055 16.5142C68.4144 16.9053 67.7779 16.9053 67.3868 16.5142C66.9971 16.1231 66.9971 15.488 67.3868 15.0969Z" fill="white"/>
<path d="M67.1703 25.7708C66.6594 26.2817 66.6594 27.113 67.1703 27.6239C67.5845 28.0395 68.2109 28.1103 68.7045 27.8504L72.3905 31.535C72.1293 32.0301 72.2014 32.655 72.6171 33.0706C73.128 33.5815 73.9579 33.5815 74.4687 33.0706C74.9796 32.5597 74.9796 31.7298 74.4702 31.2204C74.5972 31.3474 74.7227 31.473 74.4687 31.2175C74.2147 30.9635 74.3403 31.0905 74.4673 31.2175C74.0516 30.8033 73.4281 30.7311 72.9331 30.9924L69.2486 27.3078C69.5084 26.8127 69.4362 26.1878 69.0234 25.7722C69.1505 25.9006 69.276 26.0262 69.022 25.7707C68.768 25.5168 68.8935 25.6423 69.0206 25.7707C68.5097 25.2613 67.6798 25.2613 67.1703 25.7708ZM72.835 31.4355C73.2247 31.0444 73.8611 31.0444 74.2508 31.4355C74.6419 31.8266 74.6419 32.4631 74.2508 32.8527C73.8611 33.2439 73.2247 33.2439 72.835 32.8527C72.4425 32.4631 72.4425 31.8266 72.835 31.4355ZM67.3868 25.9887C67.7779 25.5976 68.4144 25.5976 68.8055 25.9887C69.1952 26.3798 69.1952 27.0163 68.8055 27.406C68.4144 27.7971 67.7779 27.7971 67.3868 27.406C66.9971 27.0163 66.9971 26.3798 67.3868 25.9887Z" fill="white"/>
<path d="M69.4849 30.7556C68.7186 29.9892 70.2512 31.5205 69.4849 30.7556V30.7556Z" fill="white"/>
<path d="M85.9766 17.042C86.0508 16.9662 86.0756 16.9415 85.9766 17.042V17.042Z" fill="white"/>
<path d="M85.9775 17.042C85.9515 17.0665 85.9183 17.1012 85.875 17.143C85.914 17.1055 85.9472 17.0708 85.9775 17.042Z" fill="white"/>
<path d="M85.6094 17.4083C85.6311 17.3865 85.7133 17.3043 85.7999 17.2178C85.6845 17.3346 85.6238 17.3952 85.6094 17.4083Z" fill="white"/>
<path d="M9.11115 9.4319C8.69553 9.01482 8.06914 8.94409 7.57561 9.2053L3.18672 4.81641C3.02941 5.02276 2.88073 5.2364 2.74219 5.45723L7.03143 9.74796C6.7717 10.243 6.84386 10.8679 7.25804 11.2836C7.769 11.7945 8.60031 11.7945 9.11115 11.2836C9.62068 10.7727 9.62068 9.94282 9.11115 9.4319ZM8.8933 11.0656C8.50218 11.4568 7.86713 11.4568 7.47605 11.0656C7.0849 10.6745 7.0849 10.0395 7.47605 9.64836C7.86713 9.25872 8.50218 9.25872 8.8933 9.64836C9.28294 10.0396 9.28294 10.6745 8.8933 11.0656Z" fill="white"/>
<path d="M9.11245 9.43321C8.60161 8.92086 9.62198 9.94413 9.11245 9.43321V9.43321Z" fill="white"/>
<path d="M14.5586 3.98633C14.6856 4.11337 14.8097 4.2389 14.5586 3.98633V3.98633Z" fill="white"/>
<path d="M14.5559 3.98451C14.3005 3.73055 14.4275 3.85755 14.5559 3.98451V3.98451Z" fill="white"/>
<path d="M12.7035 3.98462C12.1926 4.49554 12.1926 5.32686 12.7035 5.83773C13.1177 6.25335 13.7441 6.32415 14.2377 6.06434L17.9237 9.74888C17.6625 10.244 17.7347 10.8688 18.1488 11.2845C18.6612 11.7954 19.4911 11.7954 20.0019 11.2845C20.5129 10.7735 20.5129 9.94369 20.0034 9.43282H20.0019C20.0019 9.43139 20.0006 9.43139 20.0006 9.43139V9.42995C19.5834 9.01573 18.9614 8.94505 18.4664 9.20626L14.7818 5.52024C15.0416 5.02658 14.9709 4.40176 14.5567 3.98606L14.5552 3.98462C14.0443 3.47518 13.213 3.47518 12.7035 3.98462ZM18.3668 9.64936C18.7579 9.25972 19.3944 9.25972 19.7854 9.64936C20.1752 10.0405 20.1752 10.6755 19.7854 11.0666C19.3944 11.4578 18.7579 11.4578 18.3668 11.0666C17.9757 10.6755 17.9757 10.0405 18.3668 9.64936ZM12.9214 4.20255C13.3111 3.81148 13.9461 3.81148 14.3373 4.20255C14.7298 4.59367 14.7298 5.23012 14.3373 5.61985C13.9461 6.01092 13.3111 6.01092 12.9214 5.61985C12.5303 5.23012 12.5303 4.59367 12.9214 4.20255Z" fill="white"/>
<path d="M20.0009 9.43054C19.7498 9.18083 19.8739 9.30493 20.0009 9.43054V9.43054Z" fill="white"/>
<path d="M20.0039 9.43359C20.1309 9.5606 20.2565 9.6876 20.0039 9.43359V9.43359Z" fill="white"/>
<path d="M18.804 31.872C18.7319 31.9441 18.6914 32.0408 18.6914 32.1432V37.5901C18.6914 37.8022 18.8632 37.9739 19.0768 37.9739H40.8624C40.9634 37.9739 41.0615 37.9335 41.1337 37.8613L51.1458 27.8496C51.6408 28.1094 52.2672 28.0386 52.6814 27.623C53.1909 27.1121 53.1909 26.2808 52.6814 25.7699C52.1691 25.2604 51.3392 25.2604 50.8283 25.7714C50.4141 26.187 50.3434 26.8119 50.6032 27.307L40.7036 37.2062H19.4592V32.302L29.3598 22.4029C29.8548 22.6626 30.4797 22.5919 30.8954 22.1763C31.4063 21.6668 31.4063 20.8355 30.8954 20.3246C30.3845 19.8137 29.5532 19.8137 29.0437 20.3246C28.6281 20.7388 28.556 21.3652 28.8171 21.8588L18.804 31.872ZM29.2602 20.5411C29.6514 20.1514 30.2864 20.1514 30.6775 20.5411C31.0686 20.9322 31.0686 21.5687 30.6775 21.9583C30.2864 22.3495 29.6514 22.3495 29.2602 21.9583C28.8691 21.5687 28.8691 20.9321 29.2602 20.5411ZM51.0463 25.9878C51.4374 25.5982 52.0724 25.5982 52.4635 25.9878C52.8546 26.3789 52.8546 27.0154 52.4635 27.4065C52.0724 27.7962 51.4374 27.7962 51.0463 27.4065C50.6551 27.0154 50.6551 26.3789 51.0463 25.9878Z" fill="white"/>
<path d="M45.3832 36.6643C44.8723 37.1753 44.8723 38.0065 45.3832 38.5174C45.8941 39.027 46.7243 39.027 47.2353 38.5174C47.6509 38.1018 47.7216 37.4769 47.4618 36.9818L56.5931 27.8505C57.0868 28.1103 57.7103 28.0395 58.1273 27.6253C58.1273 27.6253 58.1273 27.6253 58.1287 27.6239C58.3827 27.3699 58.2572 27.4954 58.1287 27.6225C58.6382 27.1115 58.6382 26.2817 58.1287 25.7708C57.6178 25.2613 56.7865 25.2613 56.2771 25.7708C55.8614 26.1879 55.7893 26.8128 56.049 27.3079L46.9191 36.4392C46.4227 36.1779 45.7974 36.2487 45.3832 36.6643ZM56.4936 25.9887C56.8847 25.599 57.5197 25.599 57.9108 25.9887C58.302 26.3798 58.302 27.0163 57.9108 27.4074C57.5197 27.7971 56.8847 27.7971 56.4936 27.4074C56.1025 27.0163 56.1025 26.3798 56.4936 25.9887ZM45.6012 36.8823C45.9911 36.4911 46.6276 36.4911 47.0173 36.8823C47.4099 37.2734 47.4099 37.9099 47.0173 38.2995C46.6276 38.6906 45.9911 38.6906 45.6012 38.2995C45.2086 37.9099 45.2086 37.2734 45.6012 36.8823Z" fill="white"/>
<path d="M58.1266 27.627C57.8784 27.8738 57.9996 27.7525 58.1266 27.627V27.627Z" fill="white"/>
<path d="M50.8285 36.6627C50.3176 37.1737 50.3176 38.005 50.8285 38.5158C51.3394 39.0254 52.1678 39.0254 52.6802 38.5158C52.5517 38.6444 52.4276 38.7699 52.6816 38.5158C52.937 38.2604 52.81 38.3875 52.683 38.5145C53.0972 38.0988 53.168 37.4753 52.9082 36.9803L56.5927 33.2943C57.0864 33.5555 57.7099 33.4833 58.1269 33.0706C57.9985 33.1976 57.8729 33.3232 58.1283 33.0692C58.3823 32.8152 58.2568 32.9407 58.1283 33.0677C58.6378 32.5569 58.6378 31.727 58.1283 31.2161C57.6174 30.7066 56.7861 30.7066 56.2767 31.2161C55.861 31.6318 55.7889 32.2567 56.0486 32.7517L52.3641 36.4377C51.8691 36.1764 51.2456 36.2486 50.8285 36.6627ZM56.4932 31.4339C56.8843 31.0428 57.5194 31.0428 57.9105 31.4339C58.3016 31.825 58.3016 32.4615 57.9105 32.8512C57.5194 33.2423 56.8843 33.2423 56.4932 32.8512C56.1021 32.4615 56.1021 31.825 56.4932 31.4339ZM51.0465 36.8807C51.4375 36.4896 52.0726 36.4896 52.4637 36.8807C52.8548 37.2718 52.8548 37.9083 52.4637 38.298C52.0726 38.6891 51.4375 38.6891 51.0465 38.298C50.6553 37.9083 50.6553 37.2718 51.0465 36.8807Z" fill="white"/>
<path d="M36.7243 4.91058C36.7243 4.18897 36.1384 3.60156 35.4167 3.60156C34.6936 3.60156 34.1077 4.18897 34.1077 4.91058C34.1077 5.49799 34.4988 5.99017 35.0314 6.15612V21.0911L25.1322 30.9916C24.6372 30.7304 24.0122 30.8026 23.5981 31.2168C23.0871 31.7277 23.0871 32.559 23.5981 33.0699C24.109 33.5808 24.9373 33.5808 25.4497 33.0699C25.8654 32.6543 25.9361 32.0293 25.6749 31.5358L35.688 21.5226C35.7602 21.4504 35.8006 21.3523 35.8006 21.2513V6.15612C36.3346 5.99013 36.7243 5.49799 36.7243 4.91058ZM25.2318 32.852C24.8407 33.2431 24.2056 33.2431 23.8146 32.852C23.4234 32.4623 23.4234 31.8258 23.8146 31.4347C24.2056 31.0436 24.8407 31.0436 25.2318 31.4347C25.6229 31.8258 25.6229 32.4623 25.2318 32.852ZM36.4184 4.91058C36.4184 5.46334 35.9695 5.91217 35.4168 5.91217C34.8626 5.91217 34.4137 5.46334 34.4137 4.91058C34.4137 4.35782 34.8626 3.90899 35.4168 3.90899C35.9695 3.90899 36.4184 4.35782 36.4184 4.91058Z" fill="white"/>
<path d="M41.789 22.1765C42.3014 21.667 42.3014 20.8357 41.789 20.3248C41.2781 19.8138 40.4497 19.8138 39.9388 20.3234C40.0658 20.1964 40.1914 20.0708 39.9374 20.3248C39.6834 20.5788 39.8089 20.4532 39.9374 20.3262C39.5231 20.7419 39.451 21.3654 39.7108 21.859L30.5794 30.9917C30.0858 30.7305 29.4595 30.8027 29.0453 31.2169C28.5344 31.7278 28.5344 32.5591 29.0453 33.07C29.5548 33.5809 30.386 33.5809 30.8969 33.07C31.3111 32.6544 31.3833 32.0294 31.1221 31.5359L40.2549 22.4031C40.7499 22.6628 41.3748 22.5921 41.789 22.1765ZM30.679 32.8521C30.2879 33.2432 29.6529 33.2432 29.2617 32.8521C28.8706 32.4624 28.8706 31.8259 29.2617 31.4348C29.6529 31.0437 30.2879 31.0437 30.679 31.4348C31.0701 31.8259 31.0701 32.4624 30.679 32.8521ZM41.5725 21.9586C41.1814 22.3497 40.5464 22.3497 40.1538 21.9586C39.7641 21.5689 39.7641 20.9324 40.1538 20.5413C40.5464 20.1516 41.1814 20.1516 41.5725 20.5413C41.9622 20.9323 41.9622 21.5689 41.5725 21.9586Z" fill="white"/>
<path d="M23.5987 5.83695C23.0877 5.32603 24.1096 6.34779 23.5987 5.83695V5.83695Z" fill="white"/>
<path d="M83.5087 25.7734C83.2576 26.023 83.3817 25.8989 83.5087 25.7734V25.7734Z" fill="white"/>
<path d="M10.0006 89.9991H79.9994C85.514 89.9991 89.9996 85.5135 89.9996 80.0003V10.0002C89.9996 4.48559 85.514 0 79.9994 0H10.0006C4.48749 0 0.00195312 4.48559 0.00195312 10.0002V80.0003C0.00195312 85.5135 4.48754 89.9991 10.0006 89.9991ZM1.42931 44.0739H10.3572C10.4596 44.0739 10.5578 44.0335 10.6285 43.9627L15.42 39.1727V48.7529H1.42926V44.0739H1.42931ZM79.9994 1.42882C81.522 1.42882 82.9494 1.83 84.1877 2.52568C83.9553 2.39577 83.7172 2.27744 83.4718 2.16778L80.8437 4.79735H65.5916V1.42882H79.9994ZM84.8631 2.94567C84.6481 2.79703 84.4244 2.65845 84.1949 2.52998C84.4244 2.65988 84.6481 2.79703 84.8631 2.94567ZM87.5404 5.923C87.4913 6.05004 87.4191 6.16981 87.3166 6.27227C86.9256 6.66342 86.2905 6.66342 85.8994 6.27227C85.5083 5.88263 85.5083 5.24757 85.8994 4.85649C86.1 4.65582 86.3641 4.56203 86.6282 4.56784C86.5488 4.46971 86.4607 4.38022 86.3756 4.28639C86.823 4.78434 87.2185 5.32986 87.5404 5.923ZM88.5709 37.8608H81.32L59.7595 16.2988V1.42882H64.0531V5.56514C64.0531 5.98947 64.3981 6.33297 64.8223 6.33297H81.1613C81.3662 6.33297 81.561 6.25206 81.7054 6.10776L84.866 2.9471C85.4217 3.33241 85.9253 3.78418 86.3756 4.28496C86.1216 4.32966 85.8778 4.4437 85.6814 4.63848C85.1705 5.14944 85.1706 5.98075 85.6829 6.49163C86.1924 7.00112 87.0237 7.00112 87.5345 6.49163C87.6053 6.42095 87.6514 6.33869 87.702 6.25783C88.2533 7.38933 88.5709 8.65646 88.5709 10.0001V12.432L87.7597 11.6209C88.021 11.1259 87.9488 10.501 87.5345 10.0853C87.0236 9.57436 86.1924 9.57436 85.6829 10.0853C85.1706 10.5948 85.1705 11.426 85.6814 11.9369C86.0971 12.3526 86.722 12.4247 87.217 12.1635L88.5708 13.5173V17.8791L81.4326 10.7391C81.3618 10.6669 81.2637 10.6265 81.1613 10.6265H71.5146C71.3487 10.0939 70.8551 9.7028 70.2677 9.7028C69.5461 9.7028 68.9587 10.2887 68.9587 11.0118C68.9587 11.7335 69.5461 12.3208 70.2677 12.3208C70.8551 12.3208 71.3487 11.9283 71.5146 11.3957H81.0025L88.5709 18.9644V26.5832H81.4802L66.6438 11.7464C66.9281 11.0378 66.7838 10.1949 66.2108 9.62341C65.4459 8.85562 64.1989 8.85562 63.4326 9.62341C62.6662 10.3883 62.6662 11.6339 63.4326 12.4002C64.0056 12.9732 64.8484 13.1175 65.5556 12.8318L80.6186 27.8937C80.763 28.0395 80.9578 28.1189 81.1614 28.1189H88.5709V32.4125H82.4068C82.2409 31.88 81.7487 31.4888 81.1614 31.4888C80.4397 31.4888 79.8523 32.0748 79.8523 32.7979C79.8523 33.5195 80.4397 34.1069 81.1614 34.1069C81.7487 34.1069 82.2409 33.7158 82.4068 33.1818H88.5709V37.8608H88.5709ZM81.1613 33.7994C80.6084 33.7994 80.1596 33.3506 80.1596 32.7979C80.1596 32.2451 80.6084 31.7963 81.1613 31.7963C81.714 31.7963 82.1629 32.2451 82.1629 32.7979C82.1629 33.3506 81.714 33.7994 81.1613 33.7994ZM63.7587 12.0741C63.1742 11.4867 63.1742 10.5342 63.7602 9.94818C64.3461 9.36224 65.2987 9.36224 65.8846 9.94818C66.472 10.5342 66.472 11.4867 65.8846 12.0741C65.2987 12.6601 64.3461 12.6601 63.7602 12.0755C63.906 12.2213 64.0517 12.3671 63.7602 12.0755L63.7587 12.0741ZM70.2677 12.0135C69.7164 12.0135 69.2661 11.5647 69.2661 11.0119C69.2661 10.4591 69.7164 10.0088 70.2677 10.0088C70.8219 10.0088 71.2707 10.4591 71.2707 11.0119C71.2707 11.5647 70.8219 12.0135 70.2677 12.0135ZM85.8994 11.7205C85.5083 11.3294 85.5083 10.6929 85.8994 10.3018C86.2905 9.91214 86.9256 9.91214 87.3166 10.3018C87.7078 10.6929 87.7078 11.3294 87.3166 11.7205C86.9256 12.1102 86.2905 12.1102 85.8994 11.7205ZM88.5709 55.461L81.7054 48.5941C81.561 48.4497 81.3647 48.3689 81.1613 48.3689H49.2513V27.3511C49.2513 27.1476 49.1705 26.9527 49.0261 26.807L44.1231 21.9043L49.0261 17.0016C49.1705 16.8573 49.2513 16.6625 49.2513 16.4575V1.42874H53.5449V20.6602C53.0109 20.8248 52.6198 21.3169 52.6198 21.9043C52.6198 22.6274 53.2072 23.2147 53.9288 23.2147C54.6519 23.2147 55.2379 22.6274 55.2379 21.9043C55.2379 21.3169 54.8467 20.8248 54.3142 20.6602V1.42874H58.9917V16.4575C58.9917 16.56 59.0321 16.6567 59.1028 16.7303L80.89 38.5159C80.9621 38.588 81.0588 38.6285 81.1613 38.6285H88.5709V43.306H81.32L65.9741 27.9586C66.2353 27.4665 66.1646 26.8401 65.749 26.4259C65.238 25.915 64.4067 25.915 63.8958 26.4259C63.3849 26.9354 63.3849 27.7667 63.8958 28.2761C64.3115 28.6918 64.9364 28.7639 65.43 28.5027L80.8899 43.9627C80.9621 44.0334 81.0588 44.0738 81.1613 44.0738H88.5709V50.5569L87.7597 49.7457C88.021 49.2507 87.9488 48.6258 87.5331 48.2116C87.0236 47.7007 86.1923 47.7007 85.6814 48.2116C85.1705 48.7211 85.1705 49.5524 85.6814 50.0632C86.0971 50.4789 86.722 50.5511 87.217 50.2898L88.5708 51.645L88.5709 55.461ZM85.8994 49.8454C85.5083 49.4543 85.5083 48.8192 85.8994 48.4296C86.2905 48.0384 86.9256 48.0384 87.3166 48.4296C87.7078 48.8192 87.7078 49.4543 87.3166 49.8454C86.9256 50.238 86.2905 50.238 85.8994 49.8454ZM64.1137 28.0597C63.7226 27.6686 63.7226 27.0336 64.1137 26.6425C64.5034 26.2514 65.1399 26.2514 65.531 26.6425C65.9221 27.0336 65.9221 27.6686 65.531 28.0597C65.1399 28.4509 64.5034 28.4509 64.1137 28.0597ZM54.9318 21.9043C54.9318 22.4586 54.4816 22.9074 53.9288 22.9074C53.376 22.9074 52.9272 22.4586 52.9272 21.9043C52.9272 21.353 53.376 20.9027 53.9288 20.9027C54.4816 20.9027 54.9318 21.353 54.9318 21.9043ZM48.8659 88.5703V82.1998H59.2168L65.5873 88.5703H58.6106L58.7666 88.4158C59.2616 88.6757 59.8865 88.6049 60.3007 88.1879C60.813 87.6769 60.813 86.8471 60.3021 86.3361C59.7912 85.8267 58.9643 85.8267 58.4533 86.3333C58.5789 86.2077 58.7031 86.0836 58.449 86.3361C58.1964 86.5902 58.3205 86.466 58.4476 86.339C58.0348 86.7533 57.9626 87.3782 58.2239 87.8718L57.5239 88.5703H48.8659ZM58.667 87.9699C58.2759 87.5802 58.2759 86.9452 58.667 86.5541C59.0581 86.1629 59.6932 86.1629 60.0843 86.5541C60.4753 86.9452 60.4753 87.5802 60.0843 87.9699C59.6932 88.361 59.0581 88.361 58.667 87.9699ZM43.8041 88.5703V82.1335L59.3756 66.5638L81.2781 88.465C80.8596 88.5271 80.4353 88.5703 79.9994 88.5703H72.6649L59.9197 75.8266C59.7753 75.6823 59.5805 75.6014 59.3756 75.6014H55.7372C55.4369 74.8986 54.7399 74.405 53.9288 74.405C52.8464 74.405 51.966 75.2868 51.966 76.3692C51.966 77.4531 52.8464 78.3334 53.9288 78.3334C54.7399 78.3334 55.4369 77.8413 55.7372 77.137H59.0581L70.4914 88.5703H66.6755L59.6469 81.5446C59.5747 81.4725 59.478 81.4321 59.3756 81.4321H48.4835C48.2699 81.4321 48.0982 81.6038 48.0982 81.8174V88.5703H43.8041ZM53.9288 77.873C53.1004 77.873 52.4264 77.1991 52.4264 76.3692C52.4264 75.5407 53.1004 74.8653 53.9288 74.8653C54.7587 74.8653 55.4327 75.5407 55.4327 76.3692C55.4327 77.1991 54.7587 77.873 53.9288 77.873ZM38.3574 88.5703V81.8174C38.3574 81.611 38.2766 81.4176 38.1323 81.2733L27.2401 70.3798C27.0958 70.2354 26.901 70.1546 26.6975 70.1546C26.4926 70.1546 26.2977 70.2354 26.1534 70.3798L8.16488 88.3682C8.45067 88.4318 8.74362 88.4794 9.03947 88.514C4.75881 88.0348 1.42931 84.408 1.42931 80.0003V74.9476L9.74807 66.6288C10.2431 66.89 10.868 66.8179 11.2837 66.4022C11.7946 65.8913 11.7946 65.0614 11.2837 64.5506C10.7742 64.0411 9.94584 64.0396 9.43492 64.5477C9.56045 64.4206 9.68459 64.2965 9.43201 64.5506C9.17657 64.8045 9.30358 64.679 9.43058 64.5519C9.01497 64.9676 8.94421 65.5911 9.20545 66.0861L1.42926 73.8594V69.5008L4.30135 66.6287C4.79636 66.89 5.42127 66.8178 5.83689 66.4021C6.34785 65.8913 6.34785 65.0614 5.83689 64.5505C5.32601 64.0396 4.4947 64.0396 3.98378 64.5505C3.56955 64.9662 3.4974 65.5911 3.75861 66.0861L1.42922 68.414V60.7981H15.0346V70.6049L5.64489 79.9946C4.93624 79.7103 4.09491 79.8532 3.5219 80.4261C2.7555 81.1911 2.7555 82.4394 3.5219 83.2044C4.28678 83.9707 5.53089 83.9707 6.29721 83.2072C5.91763 83.5868 6.1082 83.3963 6.29868 83.2058L6.30011 83.2044C6.43865 83.0673 6.49927 83.0052 6.51514 82.9893C6.49203 83.0124 6.39533 83.1091 6.30011 83.2044C6.87308 82.6328 7.01743 81.79 6.73164 81.0813L16.3465 71.4665C16.4922 71.3222 16.5716 71.1259 16.5716 70.9224V60.0303C16.5716 59.606 16.2281 59.2611 15.8038 59.2611H1.42918V49.5221H15.8038C16.016 49.5221 16.1877 49.349 16.1877 49.1368V38.2433C16.1877 38.0888 16.0939 37.9489 15.951 37.8897C15.8067 37.8291 15.6421 37.8623 15.5325 37.9719L10.1983 43.3062H1.42918V39.0125H8.5501C8.85029 39.7154 9.54736 40.209 10.357 40.209C11.4409 40.209 12.3213 39.3272 12.3213 38.2433C12.3213 37.1609 11.4409 36.279 10.357 36.279C9.5474 36.279 8.85029 36.7741 8.5501 37.4755H1.42918V33.1819H15.6451L25.5442 43.081C25.2844 43.5761 25.3551 44.201 25.7694 44.6167C26.2803 45.1275 27.1116 45.1275 27.6225 44.6167C28.1333 44.1057 28.1333 43.2758 27.6225 42.765C27.2082 42.3493 26.5818 42.2771 26.0883 42.5384L16.0751 32.5252C16.0029 32.4544 15.9063 32.4126 15.8038 32.4126H1.42918V24.9569L4.36618 27.8939C4.51053 28.0397 4.70677 28.1191 4.91027 28.1191H42.267V74.5624C41.5656 74.8626 41.072 75.5582 41.072 76.3694C41.072 77.4532 41.9524 78.3335 43.0348 78.3335C44.1186 78.3335 45.0005 77.4532 45.0005 76.3694C45.0005 75.5582 44.5068 74.8626 43.804 74.5624V27.3511C43.804 26.9268 43.4605 26.5833 43.0348 26.5833H5.22927L1.42918 22.7833V18.9674L4.63896 22.1757C4.78899 22.3273 5.03294 22.3273 5.18162 22.1757L16.0751 11.2833C16.1502 11.2082 16.1877 11.11 16.1877 11.0119C16.1877 10.9123 16.1502 10.8157 16.0751 10.7392L7.23098 1.895C6.9654 1.98588 6.70566 2.08839 6.45309 2.20525L15.2597 11.0119L4.91023 21.3617L1.42918 17.8806V13.5202L4.63896 16.7304C4.78899 16.8804 5.03294 16.8804 5.18162 16.7304L9.74798 12.1636C10.2416 12.4248 10.8665 12.3527 11.2836 11.937C11.7945 11.4261 11.7945 10.5948 11.2836 10.0854C10.7727 9.57445 9.94137 9.57445 9.4305 10.0854C9.01488 10.501 8.94412 11.1259 9.20389 11.621L4.91027 15.915L1.42922 12.4336V10.0002C1.42922 9.25405 1.53454 8.53392 1.71358 7.84401C1.63991 8.13123 1.58077 8.42418 1.53602 8.72293L3.08894 10.2759C2.80462 10.9845 2.94897 11.8274 3.52194 12.4004C4.2883 13.1667 5.5338 13.1667 6.30015 12.4004C7.06651 11.634 7.06651 10.3885 6.30015 9.62353C5.72719 9.04909 4.88434 8.90483 4.17569 9.18914L1.98198 6.99548C1.87948 7.27112 1.79003 7.55254 1.71497 7.83828C2.67476 4.1537 6.01584 1.42887 10.0006 1.42887H10.5808L13.9825 4.83057C13.6967 5.53921 13.8425 6.38054 14.4154 6.95355C15.1803 7.71991 16.4273 7.71991 17.1922 6.95355C17.9586 6.18867 17.9586 4.9417 17.1922 4.17534C16.6193 3.60237 15.7779 3.4595 15.0693 3.74377L12.7544 1.42887H22.017L25.5443 4.95613C25.2845 5.44971 25.3552 6.0732 25.7694 6.49029C25.641 6.36324 25.5154 6.23623 25.7694 6.49167H25.7709C26.2818 7.00116 27.1117 7.00116 27.6225 6.49167C28.132 5.9808 28.132 5.14948 27.6225 4.63852C27.2069 4.22434 26.5819 4.15218 26.0869 4.41192L23.1038 1.42882H31.7589V10.6266H22.4947C22.3302 10.094 21.8367 9.70288 21.2507 9.70288C20.5276 9.70288 19.9402 10.2888 19.9402 11.0119C19.9402 11.7336 20.5276 12.3209 21.2507 12.3209C21.8367 12.3209 22.3302 11.9284 22.4947 11.3958H32.1428C32.3564 11.3958 32.5267 11.2241 32.5267 11.0119V1.42887H36.8217V16.1401L32.8774 20.083C32.1688 19.7987 31.3274 19.943 30.7544 20.516C29.988 21.2823 29.988 22.5279 30.7544 23.2943C31.5193 24.0592 32.7662 24.0592 33.5326 23.2928C34.1056 22.7213 34.2485 21.8784 33.9641 21.1698L38.1322 17.0017C38.2766 16.8574 38.3574 16.6625 38.3574 16.4576V1.42882H42.6524V4.3196C42.1184 4.48559 41.7259 4.97777 41.7259 5.56514C41.7259 6.28532 42.3147 6.8742 43.0349 6.8742C43.758 6.8742 44.3453 6.28532 44.3453 5.56514C44.3453 4.97777 43.9543 4.48563 43.4202 4.3196V1.42882H47.7142V16.1401L42.4922 21.3617C42.2036 21.6489 42.2036 22.1599 42.4922 22.4485L47.7142 27.6701V49.1367C47.7142 49.5625 48.0577 49.9059 48.4834 49.9059H80.8437L88.5708 57.6331V61.4504L81.4326 54.3122C81.3618 54.2401 81.2637 54.1997 81.1613 54.1997H59.3756C59.1634 54.1997 58.9917 54.3714 58.9917 54.5836V59.8715L49.0911 69.7707C48.5975 69.5109 47.9741 69.5816 47.5584 69.9958C47.6855 69.8674 47.811 69.7418 47.5556 69.9958C47.3016 70.2499 47.4286 70.1257 47.5556 69.9987C47.0461 70.5097 47.0461 71.3381 47.5556 71.849C48.0679 72.3598 48.8978 72.3598 49.4087 71.849C49.8243 71.4333 49.8965 70.8083 49.6353 70.3133L59.647 60.3016C59.7192 60.2295 59.7596 60.1314 59.7596 60.0303V54.9674H81.0026L88.5709 62.5358V70.9239V77.2452L82.9827 71.6584C83.2671 70.9498 83.1227 70.107 82.5497 69.534C81.7848 68.7677 80.5379 68.7677 79.773 69.534C79.0066 70.3003 79.0066 71.5459 79.773 72.3108C80.3445 72.8838 81.1873 73.0295 81.896 72.7437L88.5709 79.4187V80.0003C88.5709 81.8433 87.9835 83.5463 86.9934 84.9449V81.8173C86.9934 81.7134 86.953 81.6167 86.8809 81.5446L76.8677 71.5329C77.1275 71.0364 77.0568 70.413 76.6425 69.9987C76.7696 70.1257 76.8951 70.2499 76.6411 69.9958C76.3871 69.7418 76.5127 69.8674 76.6397 69.9958C76.1302 69.4864 75.3003 69.4864 74.7894 69.9958C74.2785 70.5082 74.2785 71.3381 74.7894 71.849C75.2051 72.2646 75.83 72.3353 76.3236 72.0756L86.2241 81.9747V85.88C86.4998 85.5885 86.7567 85.2783 86.9891 84.9492C85.6714 86.8081 83.635 88.1099 81.2825 88.4649C81.8786 88.374 82.4544 88.2254 83.0043 88.019L59.9197 64.933C59.6195 64.6328 59.1331 64.6328 58.8315 64.933L42.4922 81.2733C42.3479 81.4176 42.2671 81.611 42.2671 81.8174V88.5703H38.3574ZM75.0073 71.6325C74.6147 71.2413 74.6147 70.6049 75.0073 70.2138C75.397 69.8227 76.0334 69.8227 76.4246 70.2138C76.8142 70.6049 76.8142 71.2413 76.4246 71.6325C76.0334 72.0221 75.3969 72.0221 75.0073 71.6325ZM80.099 71.9861C79.5116 71.4001 79.5116 70.4461 80.099 69.8616C80.685 69.2742 81.6375 69.2742 82.2235 69.8616C82.8109 70.4461 82.8109 71.4001 82.2235 71.9861C81.6375 72.572 80.685 72.572 80.099 71.9861ZM49.1907 70.2138C49.5818 70.6049 49.5818 71.2413 49.1907 71.6325C48.7995 72.0221 48.166 72.0221 47.7748 71.6325C47.3837 71.2413 47.3837 70.6049 47.7748 70.2138C48.166 69.8227 48.7995 69.8227 49.1907 70.2138ZM44.0379 5.5651C44.0379 6.11647 43.5891 6.56669 43.0349 6.56669C42.4836 6.56669 42.0333 6.11647 42.0333 5.5651C42.0333 5.0109 42.4836 4.56203 43.0349 4.56203C43.5891 4.56203 44.0379 5.0109 44.0379 5.5651ZM33.2065 20.8421C33.7924 21.4281 33.7924 22.3806 33.2065 22.968C32.619 23.554 31.6665 23.554 31.0791 22.968C30.4932 22.3806 30.4932 21.4281 31.0791 20.8421C31.6665 20.2561 32.619 20.2561 33.2065 20.8421ZM22.2523 11.0119C22.2523 11.5647 21.8021 12.0135 21.2507 12.0135C20.6965 12.0135 20.2476 11.5647 20.2476 11.0119C20.2476 10.4591 20.6965 10.0088 21.2507 10.0088C21.8021 10.0088 22.2523 10.4591 22.2523 11.0119ZM27.4047 4.85649C27.7958 5.24757 27.7958 5.88402 27.4047 6.27227C27.015 6.66342 26.3785 6.66342 25.9874 6.27227C25.5963 5.88402 25.5963 5.24757 25.9874 4.85649C26.3785 4.46534 27.015 4.46534 27.4047 4.85649ZM14.7402 6.62592C14.1543 6.03994 14.1543 5.08887 14.7417 4.50146C15.3262 3.91552 16.2802 3.91552 16.8661 4.50146C17.4521 5.08887 17.4521 6.04137 16.8661 6.62735C16.2802 7.21328 15.3276 7.21475 14.7417 6.62878L14.7431 6.63021C14.7431 6.62878 14.7417 6.62878 14.7402 6.62735C14.7402 6.62735 14.7402 6.62735 14.7402 6.62592ZM5.97121 9.94531C5.9726 9.94679 5.9726 9.94679 5.97407 9.94818C5.97407 9.94818 5.97407 9.94818 5.97407 9.94965C6.55858 10.5356 6.55858 11.4896 5.97407 12.0755C5.3881 12.6601 4.43412 12.6601 3.84818 12.0755C3.26078 11.4867 3.26078 10.5342 3.84818 9.94818C4.43273 9.36228 5.3838 9.36228 5.97121 9.94531ZM9.64851 11.7205C9.25744 11.3294 9.25744 10.6929 9.64851 10.3018C10.0397 9.91214 10.6747 9.91214 11.0658 10.3018C11.4555 10.6929 11.4555 11.3294 11.0658 11.7205C10.6747 12.1102 10.0397 12.1102 9.64851 11.7205ZM44.5387 76.3692C44.5387 77.1991 43.8648 77.873 43.0349 77.873C42.2065 77.873 41.5325 77.1991 41.5325 76.3692C41.5325 75.5407 42.2065 74.8653 43.0349 74.8653C43.8648 74.8653 44.5387 75.5408 44.5387 76.3692ZM27.4061 42.9828C27.7958 43.3725 27.7958 44.009 27.4061 44.3986C27.015 44.7897 26.3785 44.7897 25.9874 44.3986C25.5977 44.009 25.5977 43.3725 25.9874 42.9828C26.3785 42.5902 27.015 42.5902 27.4061 42.9828ZM10.3572 36.7408C11.1856 36.7408 11.861 37.4148 11.861 38.2432C11.861 39.0731 11.1856 39.7471 10.3572 39.7471C9.52728 39.7471 8.85475 39.0731 8.85475 38.2432C8.85475 37.4148 9.52728 36.7408 10.3572 36.7408ZM5.97407 80.7523C6.55858 81.3397 6.55858 82.2922 5.97407 82.8782C5.3881 83.4656 4.43412 83.4656 3.84818 82.8782C3.26078 82.2922 3.26078 81.3397 3.84676 80.7537C3.70098 80.8995 3.55515 81.0452 3.84818 80.7523C3.84675 80.7537 3.84676 80.7537 3.84676 80.7537C3.84676 80.7537 3.84819 80.7523 3.84962 80.7508C4.4356 80.1663 5.3881 80.1678 5.97407 80.7523ZM3.84962 80.7508C3.9954 80.6065 4.13827 80.4608 3.84962 80.7508V80.7508ZM4.20179 66.1843C3.81068 65.7946 3.81068 65.1596 4.20179 64.767C4.59291 64.3773 5.2294 64.3773 5.61904 64.767C6.0102 65.1596 6.0102 65.7946 5.61904 66.1843C5.2294 66.5768 4.59291 66.5768 4.20179 66.1843ZM9.64851 66.1843C9.25887 65.7946 9.25887 65.1596 9.64851 64.767C10.0397 64.3773 10.6747 64.3773 11.0658 64.767C11.4569 65.1596 11.4569 65.7946 11.0658 66.1843C10.6747 66.5768 10.0397 66.5768 9.64851 66.1843ZM15.5817 88.5703L25.9283 78.2237V88.5703H20.4844L20.6417 88.4144C21.1353 88.6742 21.7602 88.6035 22.1758 88.1879C22.6867 87.6769 22.6867 86.8456 22.1758 86.3361C21.6664 85.8267 20.835 85.8267 20.3256 86.3347C20.4527 86.2077 20.5782 86.0822 20.3242 86.3361H20.3228C19.9085 86.7533 19.8378 87.3782 20.0976 87.8703L19.3976 88.5703H15.5817ZM20.5406 87.9699C20.151 87.5802 20.151 86.9452 20.5406 86.5541C20.9318 86.1629 21.5682 86.1629 21.9579 86.5541C22.349 86.9452 22.349 87.5802 21.9579 87.9699C21.5682 88.361 20.9318 88.361 20.5406 87.9699ZM10.1349 88.5703L26.6975 72.0107L36.8218 82.1335V88.5703H32.5267V83.0614C33.0608 82.8955 33.4533 82.4033 33.4533 81.8174C33.4533 81.0943 32.8645 80.5069 32.1429 80.5069C31.4212 80.5069 30.8338 81.0943 30.8338 81.8174C30.8338 82.4033 31.2249 82.8955 31.7589 83.0614V88.5703H27.4653V76.3692C27.4653 76.0588 27.2777 75.7774 26.9905 75.6591C26.7033 75.5407 26.3728 75.6072 26.1534 75.8265L13.4082 88.5703H10.1349ZM31.1412 81.8174C31.1412 81.2632 31.5901 80.8129 32.1429 80.8129C32.6956 80.8129 33.1445 81.2632 33.1445 81.8174C33.1445 82.3688 32.6956 82.819 32.1429 82.819C31.5901 82.819 31.1412 82.3688 31.1412 81.8174ZM10.0006 88.5703C9.68753 88.5703 9.37716 88.5516 9.07264 88.5183C9.3772 88.553 9.68753 88.5703 10.0006 88.5703Z" fill="white"/>
<path d="M66.2109 9.62333C65.446 8.8555 66.9772 10.3883 66.2109 9.62333V9.62333Z" fill="white"/>
<path d="M59.9841 72.0751L69.1155 81.2065C68.8557 81.7 68.9264 82.3264 69.3421 82.7406C69.853 83.2515 70.6829 83.2515 71.1952 82.7406C71.7046 82.2311 71.7046 81.3998 71.1952 80.889C70.7795 80.4747 70.1546 80.4025 69.6596 80.6638L60.5282 71.5324C60.788 71.036 60.7173 70.4125 60.3031 69.9983C60.4301 70.1253 60.5556 70.2494 60.3016 69.9954C60.0476 69.7414 60.1717 69.8669 60.3002 69.9954C59.7892 69.4859 58.9594 69.4859 58.4485 69.9954C57.939 70.5078 57.939 71.3377 58.4485 71.8485C58.8642 72.2641 59.4891 72.3349 59.9841 72.0751ZM70.9759 81.1069C71.3684 81.498 71.3684 82.133 70.9759 82.5241C70.5861 82.9152 69.9511 82.9152 69.5601 82.5241C69.1689 82.133 69.1689 81.498 69.5601 81.1069C69.9511 80.7157 70.5861 80.7157 70.9759 81.1069ZM58.6665 71.632C58.2754 71.2409 58.2754 70.6044 58.6665 70.2133C59.0576 69.8223 59.6927 69.8223 60.0838 70.2133C60.4749 70.6044 60.4749 71.2409 60.0838 71.632C59.6927 72.0217 59.0576 72.0217 58.6665 71.632Z" fill="white"/>
<path d="M20.3215 86.3398C20.0733 86.5881 20.1959 86.4654 20.3215 86.3398V86.3398Z" fill="white"/>
<path d="M9.43066 10.0861C8.91982 10.5956 9.94158 9.5752 9.43066 10.0861V10.0861Z" fill="white"/>
<path d="M3.52203 12.4009C2.75563 11.6346 4.28838 13.1672 3.52203 12.4009V12.4009Z" fill="white"/>
<path d="M58.8327 44.2333C58.977 44.3762 59.1733 44.4585 59.3768 44.4585H70.2689C70.5806 44.4585 70.8606 44.2708 70.979 43.9851C71.0194 43.8884 71.0381 43.7888 71.0381 43.6907C71.0381 43.4886 70.9601 43.2938 70.8129 43.1466L61.1981 33.5317C61.4824 32.8245 61.3381 31.9803 60.7651 31.4088C60.0002 30.6424 58.7533 30.6424 57.9884 31.4088C57.222 32.1736 57.222 33.4206 57.9884 34.1855C58.5613 34.7585 59.4028 34.9028 60.1114 34.6184L68.4143 42.9214H59.6943L55.7513 38.9771C56.0356 38.2699 55.8927 37.427 55.3198 36.8555C54.5535 36.0877 53.3065 36.0877 52.5416 36.8555C51.7752 37.6204 51.7752 38.8659 52.5416 39.6323C53.1145 40.2053 53.956 40.3496 54.6646 40.0638L58.8327 44.2333ZM52.8677 39.3061C52.2818 38.7202 52.2818 37.7661 52.8677 37.1802C53.4537 36.5957 54.4063 36.5957 54.9922 37.1802C55.5796 37.7661 55.5796 38.7202 54.9922 39.3061C54.4063 39.892 53.4537 39.892 52.8677 39.3061ZM58.3131 33.8608C57.7271 33.2733 57.7271 32.3209 58.3131 31.7349C58.899 31.1489 59.8472 31.1475 60.4346 31.7306C60.436 31.732 60.4375 31.732 60.4389 31.7349C60.4419 31.7378 60.4433 31.7392 60.4462 31.7421C61.0249 32.328 61.0235 33.2763 60.4389 33.8594C59.8531 34.4453 58.9005 34.4453 58.3131 33.8608Z" fill="white"/>
<path d="M55.319 36.8557C54.5527 36.0879 56.0839 37.6206 55.319 36.8557V36.8557Z" fill="white"/>
<path d="M57.987 34.1865C57.2207 33.4216 58.7519 34.9528 57.987 34.1865V34.1865Z" fill="white"/>
<path d="M69.3425 39.1694C69.8534 39.6817 70.6833 39.6817 71.1942 39.1694C71.7051 38.6599 71.7051 37.83 71.1956 37.3191C71.3226 37.4461 71.4496 37.5717 71.1942 37.3177C70.9402 37.0623 71.0657 37.1892 71.1928 37.3163C70.7771 36.902 70.1536 36.8314 69.6586 37.0911L59.6469 27.0794C59.5747 27.0073 59.478 26.9668 59.3756 26.9668C59.2731 26.9668 59.1764 27.0073 59.1028 27.0794L53.6574 32.5262C53.5074 32.6762 53.5074 32.9187 53.6574 33.0689L58.2239 37.6338C57.9626 38.1288 58.0349 38.7523 58.4491 39.168C58.3206 39.0409 58.1951 38.9154 58.4491 39.1694C58.7045 39.4234 58.579 39.2993 58.4505 39.1722C58.9614 39.6817 59.7913 39.6802 60.3007 39.1694C60.8117 38.6584 60.8117 37.8286 60.3007 37.3177C59.8865 36.902 59.2616 36.8299 58.7666 37.0911L54.4729 32.7975L59.3756 27.8934L69.116 37.6338C68.8561 38.1302 68.9269 38.7537 69.3425 39.1694ZM60.0842 37.5356C60.4753 37.9267 60.4753 38.5617 60.0842 38.9529C59.6931 39.344 59.058 39.344 58.6669 38.9529C58.2758 38.5617 58.2758 37.9267 58.6669 37.5356C59.058 37.1445 59.6931 37.1445 60.0842 37.5356ZM69.5605 38.9529C69.1693 38.5617 69.1693 37.9267 69.5605 37.5356C69.9501 37.1445 70.5866 37.1445 70.9763 37.5356C71.3674 37.9267 71.3674 38.5617 70.9763 38.9529C70.5866 39.344 69.9501 39.344 69.5605 38.9529Z" fill="white"/>
<path d="M82.0853 15.5315C81.5744 15.0221 80.7446 15.0221 80.2337 15.5315C79.7242 16.0438 79.7242 16.8737 80.2337 17.3847C80.6493 17.8003 81.2757 17.871 81.7693 17.6112L85.4553 21.2958C85.1941 21.7908 85.2663 22.4172 85.6804 22.8314C86.1914 23.3408 87.0227 23.3408 87.5335 22.8314C88.0445 22.3205 88.0445 21.4921 87.535 20.9797C87.662 21.1082 87.7876 21.2323 87.5335 20.9783C87.2781 20.7257 87.4051 20.8513 87.5321 20.9783C87.1165 20.5641 86.493 20.4933 85.998 20.7531L82.3134 17.0686C82.5732 16.5735 82.5024 15.9501 82.0883 15.5344C82.2153 15.6614 82.3408 15.787 82.0868 15.5315C81.8327 15.2775 81.9584 15.4045 82.0853 15.5315ZM87.3156 21.1962C87.7068 21.5874 87.7068 22.2238 87.3156 22.6135C86.9245 23.0046 86.2895 23.0046 85.8984 22.6135C85.5073 22.2238 85.5073 21.5874 85.8984 21.1962C86.2895 20.8066 86.9245 20.8066 87.3156 21.1962ZM81.8688 15.7509C82.26 16.1406 82.26 16.7756 81.8688 17.1667C81.4792 17.5578 80.8427 17.5578 80.4516 17.1667C80.0605 16.7756 80.0605 16.1406 80.4516 15.7509C80.8427 15.3583 81.4792 15.3583 81.8688 15.7509Z" fill="white"/>
<path d="M47.5572 66.4013C48.0681 66.9123 48.898 66.9123 49.4088 66.4013C49.8245 65.9871 49.8967 65.3622 49.6354 64.8672L53.32 61.1812C53.8151 61.4409 54.44 61.3702 54.8557 60.9546C55.3651 60.4451 55.3651 59.6138 54.8557 59.1029C54.3447 58.592 53.5135 58.592 53.0025 59.1029C52.5884 59.5185 52.5162 60.1435 52.7774 60.637L49.0914 64.323C48.5977 64.0633 47.9729 64.134 47.5557 64.5497C47.0463 65.0606 47.0463 65.8904 47.5572 66.4013ZM53.2204 60.7381C52.8308 60.3469 52.8308 59.7105 53.2204 59.3208C53.6116 58.9297 54.2466 58.9297 54.6377 59.3208C55.0288 59.7105 55.0288 60.3469 54.6377 60.7381C54.2466 61.1277 53.6116 61.1277 53.2204 60.7381ZM47.7751 66.1834C47.384 65.7937 47.384 65.1587 47.7751 64.7661C48.1662 64.3765 48.7998 64.3765 49.1909 64.7661C49.5821 65.1587 49.5821 65.7937 49.1909 66.1834C48.7998 66.576 48.1662 66.576 47.7751 66.1834Z" fill="white"/>
<path d="M53.1941 56.4032C53.9027 56.6889 54.7456 56.5462 55.3186 55.9717C56.0835 55.2068 56.0835 53.9612 55.3186 53.1935C54.5536 52.43 53.3081 52.4285 52.5418 53.192C52.5418 53.1935 52.5403 53.1935 52.5403 53.1935C52.1579 53.5774 52.3484 53.3869 52.5389 53.1949C51.9674 53.7693 51.8231 54.6093 52.1074 55.3164L49.2166 58.2073C48.5093 57.9243 47.6694 58.0687 47.095 58.6388C47.2855 58.4483 47.4761 58.2592 47.0936 58.6402C46.7126 59.0212 46.9002 58.8336 47.0908 58.6431C46.3286 59.4094 46.3286 60.6535 47.0936 61.4185C47.8599 62.1848 49.1069 62.1848 49.8718 61.4185C50.4448 60.8455 50.5891 60.0026 50.3034 59.2954L53.1941 56.4032ZM49.5456 58.9664C50.1316 59.5538 50.1316 60.5049 49.5456 61.0923C48.9597 61.6783 48.0057 61.6783 47.4197 61.0923C46.8338 60.5049 46.8338 59.5538 47.4197 58.9664C48.0057 58.3805 48.9597 58.3805 49.5456 58.9664ZM52.8665 55.647C52.2805 55.061 52.2805 54.1056 52.8665 53.521C53.4524 52.9337 54.405 52.9337 54.9909 53.521C55.5783 54.1056 55.5783 55.061 54.9909 55.647C54.405 56.2329 53.4524 56.2329 52.8665 55.647Z" fill="white"/>
<path d="M63.8969 64.5502C63.3859 65.0611 63.3859 65.8909 63.8969 66.4018C64.3125 66.8175 64.9375 66.8896 65.431 66.6284L80.0091 81.2065C79.7494 81.7001 79.8201 82.3265 80.2358 82.7406C80.7467 83.2516 81.578 83.2516 82.0889 82.7406C82.5984 82.2312 82.5984 81.3999 82.0889 80.8891C81.6732 80.4748 81.0483 80.4026 80.5533 80.6639L65.9751 66.0857C66.2363 65.5907 66.1656 64.9658 65.75 64.5501C65.2391 64.0393 64.4078 64.0393 63.8969 64.5502ZM81.8709 81.107C82.2621 81.4981 82.2621 82.1331 81.8709 82.5242C81.4813 82.9153 80.8448 82.9153 80.4537 82.5242C80.0626 82.1331 80.0626 81.4981 80.4537 81.107C80.8448 80.7158 81.4813 80.7158 81.8709 81.107ZM64.1148 64.7666C64.5045 64.377 65.141 64.377 65.5321 64.7666C65.9232 65.1592 65.9232 65.7942 65.5321 66.1839C65.141 66.5765 64.5045 66.5765 64.1148 66.1839C63.7237 65.7942 63.7237 65.1592 64.1148 64.7666Z" fill="white"/>
<path d="M66.2084 58.638L65.9905 58.4215C65.9704 58.3998 66.0901 58.5196 66.2084 58.638Z" fill="white"/>
<path d="M87.998 72.3107C88.3819 71.9297 88.5725 71.426 88.5725 70.9238C88.5725 70.4201 88.382 69.9179 87.998 69.534C87.425 68.961 86.5836 68.8167 85.8765 69.1024L76.2602 59.4861C75.96 59.1859 75.4736 59.1859 75.1735 59.4861L70.2693 64.3888L66.6453 60.7648C66.9297 60.0562 66.7853 59.2148 66.2123 58.6404C66.4043 58.8323 66.5948 59.0228 66.2123 58.6404L66.2109 58.6389C65.446 57.874 64.2005 57.874 63.4341 58.6404C62.6678 59.4067 62.6678 60.6537 63.4341 61.4186C64.0071 61.9915 64.85 62.1344 65.5572 61.8516L69.7267 66.0182C69.871 66.1639 70.0673 66.2448 70.2694 66.2448C70.4743 66.2448 70.6691 66.1639 70.8134 66.0182L75.7176 61.117L84.7897 70.1892C84.504 70.8963 84.6483 71.7378 85.2213 72.3107C85.9861 73.0771 87.2331 73.0771 87.998 72.3107ZM63.7618 61.0925C63.1744 60.5051 63.1758 59.5526 63.7618 58.9666C64.3477 58.3806 65.3003 58.3806 65.8862 58.9666C66.4736 59.554 66.4736 60.5065 65.8862 61.0925C65.3003 61.6784 64.3477 61.6784 63.7618 61.0925ZM87.6733 71.986C87.0873 72.572 86.1333 72.572 85.5473 71.986C84.96 71.4001 84.96 70.446 85.5473 69.8615C86.1333 69.2742 87.0873 69.2742 87.6733 69.8615C88.2592 70.446 88.2592 71.4001 87.6733 71.986Z" fill="white"/>
<path d="M87.998 69.5347C87.2331 68.7683 88.7643 70.301 87.998 69.5347V69.5347Z" fill="white"/>
<path d="M82.5488 69.5347C81.7839 68.7683 83.3152 70.301 82.5488 69.5347V69.5347Z" fill="white"/>
<path d="M11.2828 22.832C11.0302 23.0846 11.1557 22.959 11.2828 22.832V22.832Z" fill="white"/>
<path d="M9.43 22.8313C9.94092 23.3408 10.7708 23.3408 11.2817 22.8328C11.2817 22.8313 11.2831 22.8313 11.2831 22.8313C11.4102 22.7028 11.5371 22.5773 11.2831 22.8313C11.6988 22.4157 11.7695 21.7908 11.5083 21.2957L15.1943 17.6112C15.6878 17.871 16.3128 17.8002 16.7284 17.386C16.7284 17.3846 16.7299 17.3846 16.7299 17.3846C16.9838 17.1306 16.8583 17.2561 16.7299 17.3831C17.2393 16.8722 17.2393 16.0438 16.7299 15.5315C16.2189 15.0221 15.3876 15.0221 14.8768 15.5315C14.4611 15.9472 14.3904 16.5721 14.6502 17.0685L10.9656 20.7531C10.4706 20.4933 9.84566 20.5641 9.43 20.9783C8.91917 21.4906 8.91917 22.3204 9.43 22.8313ZM15.0947 17.1666C14.7036 16.7755 14.7036 16.1405 15.0947 15.7508C15.4844 15.3582 16.1209 15.3582 16.512 15.7508C16.9031 16.1405 16.9031 16.7755 16.512 17.1666C16.1209 17.5577 15.4844 17.5577 15.0947 17.1666ZM9.64793 22.6134C9.25686 22.2237 9.25686 21.5873 9.64793 21.1961C10.0391 20.8065 10.6741 20.8065 11.0652 21.1961C11.4549 21.5873 11.4549 22.2237 11.0652 22.6134C10.6741 23.0045 10.0391 23.0045 9.64793 22.6134Z" fill="white"/>
<path d="M16.728 17.3838C16.4755 17.635 16.6011 17.5108 16.728 17.3838V17.3838Z" fill="white"/>
<path d="M14.8789 20.9771C15.0073 20.8501 15.1329 20.7245 14.8789 20.9771V20.9771Z" fill="white"/>
<path d="M14.8768 22.8314C15.3877 23.3408 16.219 23.3408 16.7299 22.8314C17.1441 22.4171 17.2162 21.7908 16.955 21.2957L20.641 17.6112C21.1346 17.871 21.7595 17.8003 22.1752 17.3846C22.6861 16.8737 22.6861 16.0438 22.1752 15.5315C21.6658 15.0221 20.8344 15.0221 20.325 15.5315C20.452 15.4045 20.5775 15.2775 20.3235 15.5315C20.0695 15.7869 20.1951 15.6614 20.3221 15.5344C19.9078 15.95 19.8371 16.5735 20.0969 17.0685L16.4123 20.7531C15.9188 20.4933 15.2938 20.564 14.8767 20.9782C14.6227 21.2352 14.7497 21.1081 14.8767 20.9797C14.3658 21.4906 14.3674 22.3204 14.8768 22.8314ZM20.54 17.1666C20.1503 16.7755 20.1503 16.1405 20.54 15.7508C20.9311 15.3583 21.5676 15.3583 21.9573 15.7508C22.3484 16.1405 22.3484 16.7755 21.9573 17.1666C21.5676 17.5577 20.9311 17.5577 20.54 17.1666ZM15.0947 22.6134C14.7035 22.2238 14.7035 21.5873 15.0947 21.1962C15.4844 20.8065 16.1208 20.8065 16.5119 21.1962C16.9031 21.5873 16.9031 22.2238 16.5119 22.6134C16.1208 23.0045 15.4859 23.0045 15.0947 22.6134Z" fill="white"/>
<path d="M25.7688 22.8314C26.2797 23.3408 27.111 23.3408 27.6219 22.8314C28.0375 22.4171 28.1082 21.7908 27.8485 21.2957L31.5331 17.6112C32.0281 17.871 32.653 17.8003 33.0687 17.3846C33.5796 16.8737 33.5796 16.0438 33.0687 15.5315C32.5578 15.0221 31.7279 15.0221 31.2185 15.5315C31.3455 15.4045 31.471 15.2775 31.2156 15.5315C30.9616 15.7869 31.0886 15.6614 31.2156 15.5344C30.8014 15.95 30.7292 16.5735 30.9904 17.0685L27.3059 20.7531C26.8108 20.4933 26.1859 20.564 25.7702 20.9782C25.8987 20.8512 26.0242 20.7256 25.7688 20.9782C25.5148 21.2323 25.6404 21.1081 25.7688 20.9797C25.2594 21.492 25.2594 22.3204 25.7688 22.8314ZM31.4335 17.1666C31.0424 16.7755 31.0424 16.1405 31.4335 15.7508C31.8247 15.3583 32.4611 15.3583 32.8508 15.7508C33.2419 16.1405 33.2419 16.7755 32.8508 17.1666C32.4611 17.5577 31.8247 17.5577 31.4335 17.1666ZM25.9867 22.6134C25.5956 22.2238 25.5956 21.5873 25.9867 21.1962C26.3778 20.8065 27.0143 20.8065 27.404 21.1962C27.7951 21.5873 27.7951 22.2238 27.404 22.6134C27.0143 23.0045 26.3778 23.0045 25.9867 22.6134Z" fill="white"/>
<path d="M30.7546 20.5152C29.9883 21.2815 31.5195 19.7488 30.7546 20.5152V20.5152Z" fill="white"/>
<path d="M17.043 4.02296C16.9425 3.92244 16.9672 3.94865 17.043 4.02296V4.02296Z" fill="white"/>
<path d="M17.041 4.02344C17.0656 4.04794 17.1002 4.08254 17.142 4.1259C17.1045 4.08687 17.0699 4.05232 17.041 4.02344Z" fill="white"/>
<path d="M17.4073 4.39122C17.3857 4.36954 17.3034 4.28728 17.2168 4.19922C17.3337 4.31616 17.3943 4.37678 17.4073 4.39122Z" fill="white"/>
<path d="M9.43186 80.8891C9.01481 81.3047 8.94405 81.9311 9.2053 82.4246L4.81641 86.8135C5.02276 86.9708 5.2364 87.1195 5.45724 87.2581L9.74792 82.9673C10.243 83.2286 10.8679 83.1564 11.2835 82.7407C11.7944 82.2313 11.7944 81.4 11.2835 80.8891C10.7726 80.3781 9.94278 80.3781 9.43186 80.8891ZM11.0656 81.107C11.4567 81.4981 11.4567 82.1331 11.0656 82.5242C10.6745 82.9154 10.0395 82.9154 9.64831 82.5242C9.25867 82.1331 9.25867 81.4981 9.64831 81.107C10.0395 80.7159 10.6745 80.7159 11.0656 81.107Z" fill="white"/>
<path d="M9.43124 80.8887C8.91893 81.3996 9.94216 80.3778 9.43124 80.8887V80.8887Z" fill="white"/>
<path d="M3.98633 75.4413C4.11337 75.3143 4.23886 75.1902 3.98633 75.4413V75.4413Z" fill="white"/>
<path d="M3.98457 75.4434C3.73052 75.6974 3.85753 75.5703 3.98457 75.4434V75.4434Z" fill="white"/>
<path d="M3.98367 77.2953C4.49459 77.8047 5.32591 77.8047 5.83678 77.2953C6.25248 76.881 6.3232 76.2547 6.06338 75.7596L9.74792 72.0751C10.243 72.3349 10.8679 72.2641 11.2835 71.8485C11.7944 71.3376 11.7944 70.5077 11.2835 69.9954C10.7726 69.4859 9.94278 69.4859 9.43187 69.9954C9.43043 69.9968 9.43044 69.9968 9.43044 69.9968V69.9983H9.429C9.01482 70.4139 8.94406 71.0374 9.20531 71.5324L5.51929 75.2156C5.02572 74.9572 4.4008 75.0265 3.98515 75.4422C3.98515 75.4436 3.98371 75.4436 3.98371 75.4436C3.47418 75.9544 3.47419 76.7843 3.98367 77.2953ZM9.64832 71.632C9.25868 71.2408 9.25868 70.6044 9.64832 70.2133C10.0395 69.8222 10.6745 69.8222 11.0656 70.2133C11.4567 70.6044 11.4567 71.2408 11.0656 71.632C10.6745 72.0216 10.0395 72.0216 9.64832 71.632ZM4.20161 77.0773C3.81049 76.6862 3.81049 76.0512 4.20161 75.6615C4.59272 75.2689 5.22921 75.2689 5.61885 75.6615C6.01001 76.0512 6.01001 76.6862 5.61885 77.0773C5.22921 77.4684 4.59272 77.4684 4.20161 77.0773Z" fill="white"/>
<path d="M9.42952 69.998C9.17985 70.2478 9.30399 70.1251 9.42952 69.998V69.998Z" fill="white"/>
<path d="M9.43359 69.9966C9.5606 69.8696 9.6876 69.7441 9.43359 69.9966V69.9966Z" fill="white"/>
<path d="M31.8719 71.1949C31.944 71.2671 32.0408 71.3075 32.1432 71.3075H37.59C37.8021 71.3075 37.9739 71.1357 37.9739 70.9221V49.1364C37.9739 49.034 37.9335 48.9373 37.8613 48.8637L27.8496 38.8534C28.1093 38.3583 28.0386 37.732 27.623 37.3178C27.1121 36.8068 26.2808 36.8068 25.7699 37.3178C25.2604 37.8287 25.2604 38.6585 25.7713 39.1694C26.187 39.5851 26.8119 39.6558 27.3069 39.396L37.2061 49.2952V70.5382H32.302L22.4028 60.639C22.6626 60.144 22.5919 59.5191 22.1762 59.1034C21.6668 58.5925 20.8354 58.5925 20.3246 59.1034C19.8137 59.6143 19.8137 60.4456 20.3246 60.9551C20.7388 61.3707 21.3652 61.4414 21.8587 61.1817L31.8719 71.1949ZM20.5411 60.7386C20.1514 60.3475 20.1514 59.7111 20.5411 59.3214C20.9322 58.9302 21.5686 58.9302 21.9583 59.3214C22.3494 59.7111 22.3494 60.3475 21.9583 60.7386C21.5686 61.1283 20.9322 61.1283 20.5411 60.7386ZM25.9878 38.953C25.5981 38.5619 25.5981 37.9269 25.9878 37.5357C26.3789 37.1446 27.0154 37.1446 27.4065 37.5357C27.7962 37.9269 27.7962 38.5619 27.4065 38.953C27.0154 39.3441 26.3789 39.3441 25.9878 38.953Z" fill="white"/>
<path d="M36.6624 44.6168C37.1733 45.1276 38.0046 45.1276 38.5155 44.6168C39.025 44.1058 39.025 43.2759 38.5155 42.7651C38.0999 42.3494 37.4749 42.2772 36.9799 42.5385L27.8485 33.4071C28.1083 32.9121 28.0376 32.2886 27.6234 31.8729C27.6234 31.8716 27.6219 31.8716 27.6219 31.8716C27.3679 31.6161 27.4935 31.743 27.6205 31.8701C27.1096 31.3621 26.2797 31.3621 25.7688 31.8716C25.2593 32.3824 25.2593 33.2123 25.7688 33.7232C26.1859 34.1389 26.8108 34.211 27.3059 33.9512L36.4372 43.0811C36.176 43.5761 36.2467 44.2011 36.6624 44.6168ZM25.9868 33.5053C25.5971 33.1156 25.5971 32.4805 25.9868 32.0894C26.3779 31.6983 27.0143 31.6983 27.4055 32.0894C27.7951 32.4805 27.7951 33.1156 27.4055 33.5053C27.0143 33.8964 26.3779 33.8964 25.9868 33.5053ZM36.8803 44.3988C36.4892 44.0091 36.4892 43.3726 36.8803 42.983C37.2714 42.5904 37.9079 42.5904 38.2975 42.983C38.6887 43.3726 38.6887 44.0091 38.2975 44.3988C37.9079 44.7899 37.2714 44.7899 36.8803 44.3988Z" fill="white"/>
<path d="M27.625 31.874C27.7506 32.001 27.8718 32.1208 27.625 31.874V31.874Z" fill="white"/>
<path d="M36.6647 39.17C37.1757 39.6823 38.007 39.6823 38.5178 39.17C39.0273 38.6604 39.0273 37.8306 38.5178 37.3197C38.6463 37.4467 38.7718 37.5723 38.5178 37.3183C38.2624 37.0628 38.3894 37.1898 38.5164 37.3168C38.1008 36.9026 37.4772 36.8319 36.9823 37.0917L33.2962 33.4071C33.5575 32.9121 33.4853 32.2886 33.0726 31.8729C33.1996 32 33.3251 32.1255 33.0711 31.8716C32.8172 31.6161 32.9427 31.743 33.0697 31.8701C32.5588 31.3621 31.7289 31.3621 31.218 31.8716C30.7086 32.3824 30.7086 33.2123 31.218 33.7232C31.6337 34.1389 32.2586 34.211 32.7536 33.9512L36.4397 37.6343C36.1784 38.1308 36.2506 38.7543 36.6647 39.17ZM31.4359 33.5052C31.0448 33.1155 31.0448 32.4805 31.4359 32.0894C31.827 31.6983 32.4635 31.6983 32.8532 32.0894C33.2443 32.4805 33.2443 33.1155 32.8532 33.5052C32.4635 33.8964 31.827 33.8964 31.4359 33.5052ZM36.8826 38.9535C36.4915 38.5623 36.4915 37.9273 36.8826 37.5362C37.2737 37.1451 37.9102 37.1451 38.2999 37.5362C38.691 37.9273 38.691 38.5623 38.2999 38.9535C37.9102 39.3445 37.2737 39.3445 36.8826 38.9535Z" fill="white"/>
<path d="M4.91058 53.2744C4.18897 53.2744 3.60156 53.8604 3.60156 54.5835C3.60156 55.3052 4.18897 55.8925 4.91058 55.8925C5.49799 55.8925 5.99018 55.5014 6.15612 54.9674H21.0907L30.9913 64.868C30.73 65.363 30.8022 65.9879 31.2164 66.4021C31.7273 66.9131 32.5587 66.9131 33.0695 66.4021C33.5805 65.8912 33.5805 65.0613 33.0695 64.5505C32.6539 64.1348 32.029 64.0641 31.5354 64.3239L21.5223 54.3122C21.4501 54.24 21.3519 54.1996 21.2509 54.1996H6.15612C5.99014 53.6656 5.49799 53.2744 4.91058 53.2744ZM32.8517 64.767C33.2428 65.1595 33.2428 65.7945 32.8517 66.1842C32.462 66.5768 31.8255 66.5768 31.4344 66.1842C31.0433 65.7945 31.0433 65.1595 31.4344 64.767C31.8255 64.3773 32.462 64.3773 32.8517 64.767ZM4.91058 53.5819C5.46339 53.5819 5.91221 54.0307 5.91221 54.5835C5.91221 55.1363 5.46339 55.5865 4.91058 55.5865C4.35782 55.5865 3.90899 55.1363 3.90899 54.5835C3.90895 54.0307 4.35782 53.5819 4.91058 53.5819Z" fill="white"/>
<path d="M22.1764 48.2094C21.667 47.6984 20.8356 47.6984 20.3248 48.2094C19.8139 48.7203 19.8139 49.5487 20.3233 50.061C20.1963 49.934 20.0708 49.807 20.3248 50.0625C20.5787 50.3165 20.4533 50.1909 20.3262 50.0625C20.7419 50.4767 21.3654 50.5488 21.8589 50.2876L30.9917 59.4204C30.7304 59.914 30.8026 60.5403 31.2168 60.9546C31.7277 61.464 32.5591 61.464 33.0699 60.9546C33.5808 60.4451 33.5808 59.6138 33.0699 59.1029C32.6543 58.6887 32.0294 58.6165 31.5358 58.8763L22.403 49.7449C22.6628 49.2499 22.5921 48.625 22.1764 48.2094ZM32.8521 59.3208C33.2432 59.7105 33.2432 60.347 32.8521 60.7381C32.4624 61.1278 31.8259 61.1278 31.4348 60.7381C31.0437 60.347 31.0437 59.7105 31.4348 59.3208C31.8259 58.9297 32.4624 58.9297 32.8521 59.3208ZM21.9585 48.4273C22.3496 48.817 22.3496 49.4534 21.9585 49.8445C21.5688 50.2357 20.9323 50.2357 20.5412 49.8445C20.1515 49.4534 20.1515 48.817 20.5412 48.4273C20.9323 48.0376 21.5688 48.0376 21.9585 48.4273Z" fill="white"/>
<path d="M5.83691 66.4004C5.32607 66.9113 6.34787 65.8895 5.83691 66.4004V66.4004Z" fill="white"/>
<path d="M25.7715 6.49316C25.8971 6.61874 26.0212 6.74288 25.7715 6.49316V6.49316Z" fill="white"/>
</svg>
