<svg width="22" height="23" viewBox="0 0 22 23" fill="none" xmlns="http://www.w3.org/2000/svg">
<g clip-path="url(#clip0_373_3922)">
<path d="M15.6134 0.456055H6.38484C5.40803 0.456055 4.61328 1.25076 4.61328 2.22761V20.6845C4.61328 21.6613 5.40799 22.456 6.38484 22.456H15.6134C16.5902 22.456 17.385 21.6613 17.385 20.6845V2.22761C17.385 1.2508 16.5903 0.456055 15.6134 0.456055ZM6.38484 1.14355H15.6134C16.2112 1.14355 16.6975 1.62983 16.6975 2.22761V12.4559L13.4379 14.2486C13.3281 14.309 13.2598 14.4244 13.2598 14.5498V21.7685H8.73844V14.5498C8.73844 14.4244 8.67021 14.309 8.56034 14.2486L5.30082 12.4559V2.22761C5.30082 1.62987 5.7871 1.14355 6.38484 1.14355ZM5.30082 20.6845V13.2405L8.05095 14.7531V21.7685H6.38484C5.7871 21.7685 5.30082 21.2822 5.30082 20.6845ZM15.6134 21.7685H13.9473V14.753L16.6975 13.2405V20.6844C16.6975 21.2822 16.2112 21.7685 15.6134 21.7685ZM12.241 11.6539C12.5639 11.9819 12.7417 12.416 12.7417 12.8764C12.7417 13.8372 11.96 14.619 10.9991 14.619C10.0382 14.619 9.25652 13.8372 9.25652 12.8764C9.25652 12.416 9.43437 11.9819 9.75727 11.6539C9.89043 11.5186 10.1081 11.5169 10.2434 11.6501C10.3786 11.7833 10.3804 12.0009 10.2472 12.1362C10.0517 12.3347 9.94397 12.5976 9.94397 12.8763C9.94397 13.4581 10.4173 13.9314 10.9991 13.9314C11.5809 13.9314 12.0542 13.4581 12.0542 12.8763C12.0542 12.5976 11.9465 12.3347 11.751 12.1361C11.6178 12.0009 11.6195 11.7832 11.7548 11.65C11.8902 11.5169 12.1078 11.5186 12.241 11.6539ZM10.9991 12.9516C10.8093 12.9516 10.6554 12.7977 10.6554 12.6079V11.1015C10.6554 10.9117 10.8093 10.7578 10.9991 10.7578C11.1889 10.7578 11.3429 10.9117 11.3429 11.1015V12.6079C11.3429 12.7977 11.189 12.9516 10.9991 12.9516ZM8.05095 5.45649C8.05095 5.26665 8.20486 5.11274 8.3947 5.11274H13.6036C13.7934 5.11274 13.9473 5.26665 13.9473 5.45649C13.9473 5.64633 13.7934 5.80024 13.6036 5.80024H8.3947C8.20486 5.80024 8.05095 5.64633 8.05095 5.45649ZM8.05095 4.01704C8.05095 3.8272 8.20486 3.67329 8.3947 3.67329H13.6036C13.7934 3.67329 13.9473 3.8272 13.9473 4.01704C13.9473 4.20688 13.7934 4.36079 13.6036 4.36079H8.3947C8.20486 4.36079 8.05095 4.20688 8.05095 4.01704Z" fill="white"/>
</g>
<defs>
<clipPath id="clip0_373_3922">
<rect width="22" height="22" fill="white" transform="translate(0 0.456055)"/>
</clipPath>
</defs>
</svg>
