<svg width="21" height="22" viewBox="0 0 21 22" fill="none" xmlns="http://www.w3.org/2000/svg">
<g clip-path="url(#clip0_373_3869)">
<path d="M2.45011 4.30634H0.350109C0.156844 4.30634 0 4.14949 0 3.95655C0 3.76329 0.156844 3.60645 0.350109 3.60645H2.45011C2.64337 3.60645 2.80022 3.76329 2.80022 3.95655C2.79989 4.14949 2.64305 4.30634 2.45011 4.30634Z" fill="white"/>
<path d="M2.44972 18.3064C2.25645 18.3064 2.09961 18.1496 2.09961 17.9563V3.95655C2.09961 3.76329 2.25645 3.60645 2.44972 3.60645C2.64298 3.60645 2.79983 3.76329 2.79983 3.95655V17.9567C2.7995 18.1496 2.64266 18.3064 2.44972 18.3064Z" fill="white"/>
<path d="M2.44944 10.9562H1.04933C0.856063 10.9562 0.699219 10.7993 0.699219 10.6061V7.80616C0.699219 7.6129 0.856063 7.45605 1.04933 7.45605H2.44944C2.6427 7.45605 2.79955 7.6129 2.79955 7.80616V10.6061C2.79922 10.7993 2.64237 10.9562 2.44944 10.9562ZM1.39944 10.2563H2.09933V8.15627H1.39944V10.2563Z" fill="white"/>
<path d="M2.44944 16.5558H1.04933C0.856063 16.5558 0.699219 16.3989 0.699219 16.2057V13.4058C0.699219 13.2125 0.856063 13.0557 1.04933 13.0557H2.44944C2.6427 13.0557 2.79955 13.2125 2.79955 13.4058V16.2057C2.79922 16.3989 2.64237 16.5558 2.44944 16.5558ZM1.39944 15.8556H2.09933V13.7556H1.39944V15.8556Z" fill="white"/>
<path d="M12.599 18.3056H4.89894C4.70567 18.3056 4.54883 18.1488 4.54883 17.9555V15.5054C4.54883 15.3121 4.70567 15.1553 4.89894 15.1553H12.599C12.7923 15.1553 12.9492 15.3121 12.9492 15.5054V17.9555C12.9492 18.1488 12.7923 18.3056 12.599 18.3056ZM5.24905 17.6057H12.2489V15.8558H5.24905V17.6057Z" fill="white"/>
<path d="M6.65089 18.3059C6.45762 18.3059 6.30078 18.149 6.30078 17.9558V16.9058C6.30078 16.7125 6.45762 16.5557 6.65089 16.5557C6.84416 16.5557 7.001 16.7125 7.001 16.9058V17.9558C7.00067 18.149 6.84383 18.3059 6.65089 18.3059Z" fill="white"/>
<path d="M10.8501 18.3059C10.6568 18.3059 10.5 18.149 10.5 17.9558V16.9058C10.5 16.7125 10.6568 16.5557 10.8501 16.5557C11.0434 16.5557 11.2002 16.7125 11.2002 16.9058V17.9558C11.1999 18.149 11.043 18.3059 10.8501 18.3059Z" fill="white"/>
<path d="M16.1001 18.3059C15.9068 18.3059 15.75 18.149 15.75 17.9558V16.9058C15.75 16.7125 15.9068 16.5557 16.1001 16.5557C16.2934 16.5557 16.4502 16.7125 16.4502 16.9058V17.9558C16.4499 18.149 16.293 18.3059 16.1001 18.3059Z" fill="white"/>
<path d="M9.44972 18.3059C9.25645 18.3059 9.09961 18.149 9.09961 17.9558V16.9058C9.09961 16.7125 9.25645 16.5557 9.44972 16.5557C9.64298 16.5557 9.79983 16.7125 9.79983 16.9058V17.9558C9.79983 18.149 9.64298 18.3059 9.44972 18.3059Z" fill="white"/>
<path d="M8.04933 18.3059C7.85606 18.3059 7.69922 18.149 7.69922 17.9558V16.9058C7.69922 16.7125 7.85606 16.5557 8.04933 16.5557C8.24259 16.5557 8.39944 16.7125 8.39944 16.9058V17.9558C8.39944 18.149 8.24259 18.3059 8.04933 18.3059Z" fill="white"/>
<path d="M17.4996 18.3056H14.6997C14.5065 18.3056 14.3496 18.1488 14.3496 17.9555V15.5054C14.3496 15.3121 14.5065 15.1553 14.6997 15.1553H17.4996C17.6929 15.1553 17.8497 15.3121 17.8497 15.5054V17.9555C17.8497 18.1488 17.6929 18.3056 17.4996 18.3056ZM15.0498 17.6057H17.1498V15.8558H15.0498V17.6057Z" fill="white"/>
<path d="M2.44944 6.75588H1.04933C0.856063 6.75588 0.699219 6.59904 0.699219 6.40577C0.699219 6.21251 0.856063 6.05566 1.04933 6.05566H2.44944C2.6427 6.05566 2.79955 6.21251 2.79955 6.40577C2.79955 6.59904 2.64237 6.75588 2.44944 6.75588Z" fill="white"/>
<path d="M2.44944 12.3565H1.04933C0.856063 12.3565 0.699219 12.1996 0.699219 12.0064C0.699219 11.8131 0.856063 11.6562 1.04933 11.6562H2.44944C2.6427 11.6562 2.79955 11.8131 2.79955 12.0064C2.79922 12.1996 2.64237 12.3565 2.44944 12.3565Z" fill="white"/>
<path d="M7.34989 14.456C5.22725 14.456 3.5 12.7287 3.5 10.6061C3.5 8.48344 5.22725 6.75586 7.34989 6.75586C9.47253 6.75586 11.1998 8.48311 11.1998 10.6057C11.1998 12.7284 9.47253 14.456 7.34989 14.456ZM7.34989 7.45575C5.6128 7.45575 4.19989 8.86898 4.19989 10.6057C4.19989 12.3425 5.6128 13.7557 7.34989 13.7557C9.08698 13.7557 10.4999 12.3425 10.4999 10.6057C10.4999 8.86898 9.08698 7.45575 7.34989 7.45575Z" fill="white"/>
<path d="M7.34933 12.0063C6.57725 12.0063 5.94922 11.3782 5.94922 10.6062C5.94922 9.83409 6.57725 9.20605 7.34933 9.20605C8.12141 9.20605 8.74944 9.83409 8.74944 10.6062C8.74944 11.3782 8.12141 12.0063 7.34933 12.0063ZM7.34933 9.90627C6.96312 9.90627 6.64944 10.2203 6.64944 10.6062C6.64944 10.9924 6.96345 11.3061 7.34933 11.3061C7.73553 11.3061 8.04922 10.992 8.04922 10.6062C8.04922 10.2203 7.73553 9.90627 7.34933 9.90627Z" fill="white"/>
<path d="M18.8999 15.8555H2.44972C2.25645 15.8555 2.09961 15.6986 2.09961 15.5054V5.70558C2.09961 5.51231 2.25645 5.35547 2.44972 5.35547H18.8999C20.0579 5.35547 20.9996 6.29719 20.9996 7.45514V13.7561C20.9996 14.9138 20.0579 15.8555 18.8999 15.8555ZM2.7995 15.1556H18.8999C19.6717 15.1556 20.2997 14.5275 20.2997 13.7558V7.45514C20.2997 6.68339 19.6717 6.05536 18.8999 6.05536H2.7995V15.1556Z" fill="white"/>
<path d="M7.3505 9.90649C7.15723 9.90649 7.00039 9.74965 7.00039 9.55638C7.00039 8.80235 6.03833 8.15627 5.2505 8.15627C5.05723 8.15627 4.90039 7.99943 4.90039 7.80616C4.90039 7.6129 5.05723 7.45605 5.2505 7.45605C6.38352 7.45605 7.70061 8.37349 7.70061 9.55605C7.70061 9.74965 7.54377 9.90649 7.3505 9.90649Z" fill="white"/>
<path d="M9.45011 13.7558C8.31709 13.7558 7 12.8383 7 11.6558C7 11.4625 7.15684 11.3057 7.35011 11.3057C7.54337 11.3057 7.70022 11.4625 7.70022 11.6558C7.70022 12.4098 8.66228 13.0559 9.45011 13.0559C9.64337 13.0559 9.80022 13.2127 9.80022 13.406C9.80022 13.5989 9.64337 13.7558 9.45011 13.7558Z" fill="white"/>
<path d="M4.54933 13.0561C4.35606 13.0561 4.19922 12.8992 4.19922 12.706C4.19922 11.573 5.11666 10.2559 6.29922 10.2559C6.49248 10.2559 6.64933 10.4127 6.64933 10.606C6.64933 10.7992 6.49248 10.9561 6.29922 10.9561C5.54519 10.9561 4.89911 11.9185 4.89911 12.706C4.89911 12.8992 4.74227 13.0561 4.54933 13.0561Z" fill="white"/>
<path d="M8.40089 10.9565C8.20762 10.9565 8.05078 10.7996 8.05078 10.6064C8.05078 10.4131 8.20762 10.2562 8.40089 10.2562C9.15492 10.2562 9.801 9.29386 9.801 8.50636C9.801 8.31309 9.95784 8.15625 10.1511 8.15625C10.3444 8.15625 10.5012 8.31309 10.5012 8.50636C10.5009 9.63938 9.58345 10.9565 8.40089 10.9565Z" fill="white"/>
<path d="M3.88518 10.4615C3.79561 10.4615 3.70603 10.427 3.63778 10.3588C3.50095 10.2223 3.50095 10.0008 3.63778 9.86399C4.02726 9.4745 4.61296 9.19888 5.20425 9.12735C5.87198 9.04499 6.45867 9.21988 6.85504 9.61658C6.99154 9.75341 6.99154 9.97489 6.85504 10.1114C6.71822 10.2482 6.49673 10.2482 6.36023 10.1114C6.12267 9.87383 5.73253 9.7685 5.2889 9.82199C4.84757 9.87547 4.41576 10.0763 4.13325 10.3588C4.06434 10.427 3.97443 10.4615 3.88518 10.4615Z" fill="white"/>
<path d="M9.18003 12.1047C8.64387 12.1047 8.17728 11.9292 7.84456 11.5958C7.70806 11.459 7.70806 11.2375 7.84456 11.101C7.98139 10.9642 8.20287 10.9642 8.33937 11.101C8.57694 11.3386 8.96741 11.4446 9.4107 11.3904C9.85203 11.3369 10.2838 11.1361 10.5664 10.8536C10.7032 10.7168 10.9247 10.7168 11.0612 10.8536C11.198 10.9901 11.198 11.2116 11.0612 11.3484C10.6717 11.7379 10.086 12.0135 9.4947 12.0851C9.38773 12.0985 9.28241 12.1047 9.18003 12.1047Z" fill="white"/>
<path d="M6.85438 14.4206C6.76481 14.4206 6.67523 14.3862 6.60698 14.3179C5.8057 13.5167 5.52351 11.9367 6.35957 11.1007C6.4964 10.9638 6.71788 10.9638 6.85438 11.1007C6.99121 11.2372 6.99121 11.4587 6.85438 11.5955C6.32118 12.1287 6.54463 13.266 7.10179 13.8228C7.23862 13.9596 7.23862 14.1808 7.10179 14.3176C7.03354 14.3865 6.94396 14.4206 6.85438 14.4206Z" fill="white"/>
<path d="M8.09157 10.2143C8.002 10.2143 7.91242 10.1798 7.84417 10.1116C7.70734 9.97505 7.70734 9.75357 7.84417 9.61674C8.37737 9.08354 8.15392 7.94625 7.59676 7.38943C7.45993 7.2526 7.45993 7.03144 7.59676 6.89461C7.73326 6.75779 7.95507 6.75779 8.09157 6.89461C8.89286 7.69589 9.17504 9.27582 8.33898 10.1119C8.27106 10.1798 8.18115 10.2143 8.09157 10.2143Z" fill="white"/>
<path d="M15.7503 14.456C13.6276 14.456 11.9004 12.7287 11.9004 10.6061C11.9004 8.48344 13.6276 6.75586 15.7503 6.75586C17.8729 6.75586 19.6002 8.48311 19.6002 10.6057C19.6002 12.7284 17.8729 14.456 15.7503 14.456ZM15.7503 7.45575C14.0132 7.45575 12.6003 8.86898 12.6003 10.6057C12.6003 12.3425 14.0132 13.7557 15.7503 13.7557C17.4874 13.7557 18.9003 12.3425 18.9003 10.6057C18.9003 8.86898 17.4874 7.45575 15.7503 7.45575Z" fill="white"/>
<path d="M15.7497 12.0063C14.9776 12.0063 14.3496 11.3782 14.3496 10.6062C14.3496 9.83409 14.9776 9.20605 15.7497 9.20605C16.5218 9.20605 17.1498 9.83409 17.1498 10.6062C17.1498 11.3782 16.5218 12.0063 15.7497 12.0063ZM15.7497 9.90627C15.3635 9.90627 15.0498 10.2203 15.0498 10.6062C15.0498 10.9924 15.3638 11.3061 15.7497 11.3061C16.1356 11.3061 16.4496 10.992 16.4496 10.6062C16.4496 10.2203 16.1359 9.90627 15.7497 9.90627Z" fill="white"/>
<path d="M15.7509 9.90649C15.5576 9.90649 15.4008 9.74965 15.4008 9.55638C15.4008 8.80235 14.4387 8.15627 13.6509 8.15627C13.4576 8.15627 13.3008 7.99943 13.3008 7.80616C13.3008 7.6129 13.4576 7.45605 13.6509 7.45605C14.7839 7.45605 16.101 8.37349 16.101 9.55605C16.101 9.74965 15.9442 9.90649 15.7509 9.90649Z" fill="white"/>
<path d="M17.8505 13.7558C16.7175 13.7558 15.4004 12.8383 15.4004 11.6558C15.4004 11.4625 15.5572 11.3057 15.7505 11.3057C15.9438 11.3057 16.1006 11.4625 16.1006 11.6558C16.1006 12.4098 17.0627 13.0559 17.8505 13.0559C18.0438 13.0559 18.2006 13.2127 18.2006 13.406C18.2006 13.5989 18.0438 13.7558 17.8505 13.7558Z" fill="white"/>
<path d="M12.9497 13.0561C12.7565 13.0561 12.5996 12.8992 12.5996 12.706C12.5996 11.573 13.517 10.2559 14.6996 10.2559C14.8929 10.2559 15.0497 10.4127 15.0497 10.606C15.0497 10.7992 14.8929 10.9561 14.6996 10.9561C13.9456 10.9561 13.2995 11.9185 13.2995 12.706C13.2995 12.8992 13.1427 13.0561 12.9497 13.0561Z" fill="white"/>
<path d="M16.7993 10.9565C16.6061 10.9565 16.4492 10.7996 16.4492 10.6064C16.4492 10.4131 16.6061 10.2562 16.7993 10.2562C17.5534 10.2562 18.1994 9.29386 18.1994 8.50636C18.1994 8.31309 18.3563 8.15625 18.5495 8.15625C18.7428 8.15625 18.8997 8.31309 18.8997 8.50636C18.8993 9.63938 17.9819 10.9565 16.7993 10.9565Z" fill="white"/>
<path d="M12.2856 10.4615C12.196 10.4615 12.1064 10.427 12.0382 10.3588C11.9013 10.2223 11.9013 10.0008 12.0382 9.86399C12.4277 9.4745 13.0134 9.19888 13.6046 9.12735C14.2724 9.04499 14.8591 9.21988 15.2554 9.61658C15.3919 9.75341 15.3919 9.97489 15.2554 10.1114C15.1186 10.2482 14.8971 10.2482 14.7606 10.1114C14.5231 9.87383 14.1326 9.7685 13.6893 9.82199C13.248 9.87547 12.8162 10.0763 12.5336 10.3588C12.4647 10.427 12.3748 10.4615 12.2856 10.4615Z" fill="white"/>
<path d="M17.5804 12.1047C17.0443 12.1047 16.5777 11.9292 16.245 11.5958C16.1085 11.459 16.1085 11.2375 16.245 11.101C16.3818 10.9642 16.6033 10.9642 16.7398 11.101C16.9773 11.3386 17.3675 11.4446 17.8111 11.3904C18.2524 11.3369 18.6842 11.1361 18.9668 10.8536C19.1036 10.7168 19.3251 10.7168 19.4616 10.8536C19.5984 10.9901 19.5984 11.2116 19.4616 11.3484C19.0721 11.7379 18.4864 12.0135 17.8951 12.0851C17.7881 12.0985 17.6828 12.1047 17.5804 12.1047Z" fill="white"/>
<path d="M15.2548 14.4206C15.1652 14.4206 15.0756 14.3862 15.0074 14.3179C14.2061 13.5167 13.9239 11.9367 14.76 11.1007C14.8968 10.9638 15.1183 10.9638 15.2548 11.1007C15.3916 11.2372 15.3916 11.4587 15.2548 11.5955C14.7216 12.1287 14.945 13.266 15.5022 13.8228C15.639 13.9596 15.639 14.1808 15.5022 14.3176C15.4339 14.3865 15.3444 14.4206 15.2548 14.4206Z" fill="white"/>
<path d="M16.492 10.2143C16.4024 10.2143 16.3128 10.1798 16.2446 10.1116C16.1077 9.97505 16.1077 9.75357 16.2446 9.61674C16.7778 9.08354 16.5543 7.94625 15.9972 7.38943C15.8603 7.2526 15.8603 7.03144 15.9972 6.89461C16.1337 6.75779 16.3555 6.75779 16.492 6.89461C17.2932 7.69589 17.5754 9.27582 16.7394 10.1119C16.6714 10.1798 16.5815 10.2143 16.492 10.2143Z" fill="white"/>
</g>
<defs>
<clipPath id="clip0_373_3869">
<rect width="21" height="21" fill="white" transform="translate(0 0.456055)"/>
</clipPath>
</defs>
</svg>
