<svg width="14" height="14" viewBox="0 0 14 14" fill="none" xmlns="http://www.w3.org/2000/svg">
<g clip-path="url(#clip0_407_2186)">
<path d="M13.7857 1.50504C13.6148 1.29525 13.3583 1.17969 13.0634 1.17969C12.9043 1.17969 12.7358 1.21299 12.5625 1.27865L0.709756 5.76948C0.0795413 6.00831 -0.00528206 6.36781 0.000241584 6.56084C0.00573788 6.75291 0.109949 7.10439 0.744292 7.30729L3.25796 8.22846L4.58273 11.2609C4.7159 11.6803 4.99416 11.9746 5.34931 12.07C5.43118 12.092 5.51478 12.1028 5.59897 12.1028C5.8874 12.1028 6.18273 11.9758 6.43777 11.7363L7.53534 10.7051L10.2133 12.5484C10.4545 12.7266 10.717 12.8207 10.9728 12.8207C11.4922 12.8207 11.9065 12.4405 12.0282 11.852L13.9667 2.47654C14.0463 2.09123 13.9821 1.74622 13.7857 1.50504ZM4.09102 8.08613L7.5116 6.25181L5.12769 8.43855C5.04281 8.5164 4.99553 8.62608 4.99539 8.74038C4.99523 8.74459 4.99471 8.74869 4.99468 8.7529L4.98645 10.1358L4.09102 8.08613ZM5.87611 11.1383C5.85082 11.1621 5.82547 11.183 5.80042 11.2012L5.81046 9.51782L6.84384 10.2291L5.87611 11.1383ZM13.1633 2.31042L11.2249 11.6859C11.2053 11.7804 11.1416 12.0003 10.9728 12.0003C10.894 12.0003 10.7962 11.9598 10.6975 11.886C10.6932 11.8829 10.6889 11.8798 10.6846 11.8768L7.73219 9.8447C7.73178 9.84442 7.73137 9.84415 7.73099 9.84387L6.06175 8.69493L10.4712 4.6502C10.6236 4.51044 10.6481 4.27913 10.5284 4.11053C10.4088 3.94192 10.1823 3.88876 10.0001 3.98646L3.53187 7.45515L1.01815 6.53398C1.01632 6.5333 1.01449 6.53264 1.01263 6.53199L12.8532 2.04578C12.9529 2.00796 13.0226 2.00003 13.0634 2.00003C13.0837 2.00003 13.1326 2.00227 13.1495 2.02305C13.1712 2.04966 13.1985 2.14015 13.1633 2.31042Z" fill="#0088CC"/>
</g>
<defs>
<clipPath id="clip0_407_2186">
<rect width="14" height="14" fill="white"/>
</clipPath>
</defs>
</svg>
