<svg width="19" height="19" viewBox="0 0 19 19" fill="none" xmlns="http://www.w3.org/2000/svg">
<g clip-path="url(#clip0_429_20943)">
<mask id="mask0_429_20943" style="mask-type:luminance" maskUnits="userSpaceOnUse" x="0" y="0" width="19" height="19">
<path d="M0 1.90735e-06H19V19H0V1.90735e-06Z" fill="white"/>
</mask>
<g mask="url(#mask0_429_20943)">
<path d="M5.32642 0.556642C4.06155 0.556642 2.84822 1.05918 1.95359 1.95366C1.05925 2.84818 0.556641 4.0614 0.556641 5.32642C0.556641 12.5707 6.42916 18.4434 13.6736 18.4434C14.9385 18.4434 16.1518 17.9408 17.0464 17.0463C17.9407 16.1518 18.4434 14.9386 18.4434 13.6736L12.4811 11.2887L11.2887 14.2698H11.288C7.66631 14.2698 4.73022 11.3338 4.73022 7.71192V7.71133L7.71133 6.51889L5.32642 0.556642Z" stroke="white" stroke-miterlimit="10" stroke-linecap="round" stroke-linejoin="round"/>
</g>
</g>
<defs>
<clipPath id="clip0_429_20943">
<rect width="19" height="19" fill="white"/>
</clipPath>
</defs>
</svg>
