<svg width="23" height="23" viewBox="0 0 23 23" fill="none" xmlns="http://www.w3.org/2000/svg">
<path d="M18.6018 13.0868C18.2335 13.0868 17.9197 12.805 17.8867 12.4313C17.8514 12.0359 18.144 11.687 18.5393 11.6521H18.54C18.5882 11.2583 18.9439 10.9805 19.3411 11.0265C19.7353 11.075 20.0152 11.4336 19.9667 11.8275C19.8844 12.4963 19.3371 13.0246 18.6658 13.0839C18.6442 13.086 18.6227 13.0868 18.6018 13.0868Z" fill="#303030"/>
<path d="M6.92744 14.1078C6.55873 14.1078 6.24499 13.8257 6.21229 13.4516C6.17743 13.056 6.47032 12.7077 6.86563 12.6729L18.5392 11.6515C18.9367 11.6149 19.2831 11.9096 19.3176 12.3049C19.3525 12.7005 19.0596 13.0488 18.6643 13.0836L6.99069 14.105C6.96985 14.1068 6.94829 14.1078 6.92744 14.1078Z" fill="#303030"/>
<path d="M19.2541 12.4584C19.2246 12.4584 19.1951 12.4566 19.1653 12.453C18.7711 12.4045 18.4911 12.0458 18.5396 11.652L19.4118 4.57121C19.4607 4.17733 19.8219 3.89738 20.2129 3.94589C20.6071 3.99441 20.8871 4.35307 20.8386 4.74694L19.9664 11.8277C19.9218 12.1918 19.6117 12.4584 19.2541 12.4584Z" fill="#303030"/>
<path d="M5.01338 6.70058C4.64466 6.70058 4.33093 6.41847 4.29823 6.04436C4.26337 5.64869 4.55626 5.30046 4.95157 5.2656L20.0626 3.94346C20.4593 3.90716 20.8065 4.20149 20.841 4.5968C20.8758 4.99247 20.5829 5.34071 20.1876 5.37557L5.07663 6.69771C5.05543 6.6995 5.03423 6.70058 5.01338 6.70058Z" fill="#303030"/>
<path d="M4.82595 5.29611C4.47161 5.29611 4.1629 5.03377 4.11475 4.67259V4.67187C3.718 4.67187 3.396 4.35023 3.396 3.95312C3.396 3.55602 3.718 3.23438 4.11475 3.23438C4.83206 3.23438 5.44443 3.77056 5.53967 4.48177C5.59214 4.87528 5.31578 5.23681 4.92226 5.28964C4.88956 5.29395 4.85793 5.29611 4.82595 5.29611Z" fill="#303030"/>
<path d="M4.11448 4.67188H2.875C2.47825 4.67188 2.15625 4.34987 2.15625 3.95312C2.15625 3.55637 2.47825 3.23438 2.875 3.23438H4.11448C4.51123 3.23438 4.83323 3.55637 4.83323 3.95312C4.83323 4.34987 4.51159 4.67188 4.11448 4.67188Z" fill="#303030"/>
<path d="M5.83045 12.827C5.4761 12.827 5.16704 12.5647 5.11924 12.2032L4.11479 4.67245C4.06232 4.27894 4.33868 3.91741 4.7322 3.86494C5.1232 3.81175 5.4876 4.08883 5.53971 4.48234L6.5438 12.0134C6.59627 12.4069 6.31991 12.7685 5.9264 12.8209C5.89405 12.8252 5.86243 12.827 5.83045 12.827Z" fill="#303030"/>
<path d="M9.0625 19.7656C7.69903 19.7656 6.54688 18.6135 6.54688 17.25C6.54688 15.8865 7.69903 14.7344 9.0625 14.7344C10.426 14.7344 11.5781 15.8865 11.5781 17.25C11.5781 18.6135 10.426 19.7656 9.0625 19.7656ZM9.0625 16.1719C8.48822 16.1719 7.98438 16.6757 7.98438 17.25C7.98438 17.8243 8.48822 18.3281 9.0625 18.3281C9.63678 18.3281 10.1406 17.8243 10.1406 17.25C10.1406 16.6757 9.63642 16.1719 9.0625 16.1719Z" fill="#303030"/>
<path d="M15.8906 19.7656C14.5272 19.7656 13.375 18.6135 13.375 17.25C13.375 15.8865 14.5272 14.7344 15.8906 14.7344C17.2541 14.7344 18.4062 15.8865 18.4062 17.25C18.4062 18.6135 17.2541 19.7656 15.8906 19.7656ZM15.8906 16.1719C15.3163 16.1719 14.8125 16.6757 14.8125 17.25C14.8125 17.8243 15.3163 18.3281 15.8906 18.3281C16.4649 18.3281 16.9688 17.8243 16.9688 17.25C16.9688 16.6757 16.4645 16.1719 15.8906 16.1719Z" fill="#303030"/>
<path d="M7.25217 14.0741C6.18087 14.0741 5.26231 13.2842 5.1182 12.2024C5.06573 11.8089 5.34245 11.4474 5.73597 11.3953C6.12661 11.3417 6.49101 11.6195 6.54312 12.013C6.59415 12.3951 6.94059 12.6642 7.31793 12.634C7.72223 12.5995 8.0622 12.8924 8.0967 13.2874C8.13156 13.6827 7.83867 14.0313 7.44372 14.0662C7.37939 14.0712 7.31506 14.0741 7.25217 14.0741Z" fill="#303030"/>
</svg>
