<svg width="20" height="21" viewBox="0 0 20 21" fill="none" xmlns="http://www.w3.org/2000/svg">
<path d="M15.8327 19.6224C16.1642 19.6224 16.4821 19.4907 16.7166 19.2563C16.951 19.0219 17.0827 18.7039 17.0827 18.3724V2.53906C17.0827 2.20754 16.951 1.8896 16.7166 1.65518C16.4821 1.42076 16.1642 1.28906 15.8327 1.28906H4.16602C3.8345 1.28906 3.51655 1.42076 3.28213 1.65518C3.04771 1.8896 2.91602 2.20754 2.91602 2.53906V18.3724C2.91602 18.7039 3.04771 19.0219 3.28213 19.2563C3.51655 19.4907 3.8345 19.6224 4.16602 19.6224H15.8327ZM14.5827 17.9557V18.7891H12.4993V17.9557H14.5827ZM11.666 18.7891H5.41602V17.9557H11.666V18.7891ZM3.74935 18.3724V2.53906C3.74935 2.42856 3.79325 2.32257 3.87139 2.24443C3.94953 2.16629 4.05551 2.1224 4.16602 2.1224H15.8327C15.9432 2.1224 16.0492 2.16629 16.1273 2.24443C16.2055 2.32257 16.2493 2.42856 16.2493 2.53906V18.3724C16.2493 18.4829 16.2055 18.5889 16.1273 18.667C16.0492 18.7452 15.9432 18.7891 15.8327 18.7891H15.416V17.5391C15.416 17.4286 15.3721 17.3226 15.294 17.2444C15.2158 17.1663 15.1099 17.1224 14.9993 17.1224H4.99935C4.88884 17.1224 4.78286 17.1663 4.70472 17.2444C4.62658 17.3226 4.58268 17.4286 4.58268 17.5391V18.7891H4.16602C4.05551 18.7891 3.94953 18.7452 3.87139 18.667C3.79325 18.5889 3.74935 18.4829 3.74935 18.3724Z" fill="white"/>
<path d="M9.16667 10.4561C9.05616 10.4561 8.95018 10.5 8.87204 10.5781C8.7939 10.6562 8.75 10.7622 8.75 10.8727C8.75 10.9832 8.7939 11.0892 8.87204 11.1673C8.95018 11.2455 9.05616 11.2894 9.16667 11.2894H10.4167C10.6377 11.2894 10.8496 11.2016 11.0059 11.0453C11.1622 10.889 11.25 10.6771 11.25 10.4561V10.0394C11.25 9.81837 11.1622 9.60641 11.0059 9.45013C10.8496 9.29385 10.6377 9.20605 10.4167 9.20605H9.58333V8.78939H10.8333C10.9438 8.78939 11.0498 8.74549 11.128 8.66735C11.2061 8.58921 11.25 8.48323 11.25 8.37272C11.25 8.26221 11.2061 8.15623 11.128 8.07809C11.0498 7.99995 10.9438 7.95605 10.8333 7.95605H9.58333C9.36232 7.95605 9.15036 8.04385 8.99408 8.20013C8.8378 8.35641 8.75 8.56837 8.75 8.78939V9.20605C8.75 9.42707 8.8378 9.63903 8.99408 9.79531C9.15036 9.95159 9.36232 10.0394 9.58333 10.0394H10.4167V10.4561H9.16667Z" fill="white"/>
<path d="M6.2487 10.4561C6.13819 10.4561 6.03221 10.5 5.95407 10.5781C5.87593 10.6562 5.83203 10.7622 5.83203 10.8727C5.83203 10.9832 5.87593 11.0892 5.95407 11.1673C6.03221 11.2455 6.13819 11.2894 6.2487 11.2894H7.4987C7.71971 11.2894 7.93167 11.2016 8.08795 11.0453C8.24423 10.889 8.33203 10.6771 8.33203 10.4561V10.0394C8.33203 9.81837 8.24423 9.60641 8.08795 9.45013C7.93167 9.29385 7.71971 9.20605 7.4987 9.20605H6.66536V8.78939H7.91536C8.02587 8.78939 8.13185 8.74549 8.20999 8.66735C8.28813 8.58921 8.33203 8.48323 8.33203 8.37272C8.33203 8.26221 8.28813 8.15623 8.20999 8.07809C8.13185 7.99995 8.02587 7.95605 7.91536 7.95605H6.66536C6.44435 7.95605 6.23239 8.04385 6.07611 8.20013C5.91983 8.35641 5.83203 8.56837 5.83203 8.78939V9.20605C5.83203 9.42707 5.91983 9.63903 6.07611 9.79531C6.23239 9.95159 6.44435 10.0394 6.66536 10.0394H7.4987V10.4561H6.2487Z" fill="white"/>
<path d="M12.0827 11.2894H12.916C13.2475 11.2894 13.5655 11.1577 13.7999 10.9233C14.0343 10.6889 14.166 10.3709 14.166 10.0394V9.20605C14.166 8.87453 14.0343 8.55659 13.7999 8.32217C13.5655 8.08775 13.2475 7.95605 12.916 7.95605H12.0827C11.9722 7.95605 11.8662 7.99995 11.7881 8.07809C11.7099 8.15623 11.666 8.26221 11.666 8.37272V10.8727C11.666 10.9832 11.7099 11.0892 11.7881 11.1673C11.8662 11.2455 11.9722 11.2894 12.0827 11.2894ZM12.4993 8.78939H12.916C13.0265 8.78939 13.1325 8.83329 13.2106 8.91143C13.2888 8.98957 13.3327 9.09555 13.3327 9.20605V10.0394C13.3327 10.1499 13.2888 10.2559 13.2106 10.334C13.1325 10.4122 13.0265 10.4561 12.916 10.4561H12.4993V8.78939Z" fill="white"/>
</svg>
