<svg width="20" height="20" viewBox="0 0 20 20" fill="none" xmlns="http://www.w3.org/2000/svg">
<g clip-path="url(#clip0_429_20840)">
<path d="M15.2273 6.86527L14.3629 7.72965C14.7685 8.47563 14.9993 9.3252 14.9993 10.231C14.9993 13.1142 12.6519 15.4617 9.76867 15.4617C6.88543 15.4617 4.53799 13.1142 4.53799 10.231C4.53799 7.34774 6.88543 5.0003 9.76867 5.0003C10.6745 5.0003 11.5241 5.2312 12.27 5.63675L13.1344 4.77237C12.1545 4.16553 11.003 3.81622 9.76863 3.81622C6.23118 3.81622 3.35387 6.69354 3.35387 10.231C3.35387 13.7684 6.23123 16.6458 9.76867 16.6458C13.3061 16.6458 16.1834 13.7685 16.1834 10.2311C16.1834 8.99666 15.8341 7.84515 15.2273 6.86527ZM12.8266 9.269L11.7875 10.3051C11.749 11.3885 10.861 12.2528 9.76871 12.2528C8.65272 12.2528 7.74689 11.3471 7.74689 10.2311C7.74689 9.13875 8.61127 8.25069 9.69471 8.21225L10.7337 7.17618C10.4288 7.0785 10.1062 7.02521 9.76875 7.02521C8.00151 7.02521 6.56286 8.46387 6.56286 10.2311C6.56286 11.9984 8.00151 13.4371 9.76875 13.4371C11.536 13.4371 12.9747 11.9984 12.9747 10.2311C12.9746 9.89652 12.9242 9.57094 12.8266 9.269ZM18.143 5.20761L17.2787 6.07198C17.9625 7.30343 18.3533 8.72137 18.3533 10.2311C18.3533 14.9644 14.502 18.8157 9.76867 18.8157C5.0353 18.8157 1.18408 14.9644 1.18408 10.231C1.18408 5.49766 5.0353 1.64644 9.76867 1.64644C11.2784 1.64644 12.6963 2.03719 13.9278 2.72099L14.7921 1.85661C13.3238 0.971556 11.604 0.462401 9.76867 0.462401C4.3811 0.462401 0 4.8435 0 10.231C0 15.6186 4.3811 19.9997 9.76867 19.9997C15.1562 19.9997 19.5373 15.6186 19.5373 10.231C19.5373 8.39574 19.0282 6.67587 18.143 5.20761ZM16.8601 5.23277L15.7299 5.10726L10.1618 10.6751C9.93061 10.9063 9.55584 10.9063 9.32464 10.6751C9.09344 10.4439 9.09344 10.0692 9.32464 9.83797L14.8925 4.27009L14.767 3.1399L17.9069 0L18.3254 1.6746L20 2.09317L16.8601 5.23277Z" fill="#303030"/>
</g>
<defs>
<clipPath id="clip0_429_20840">
<rect width="20" height="20" fill="white"/>
</clipPath>
</defs>
</svg>
