<svg width="31" height="31" viewBox="0 0 31 31" fill="none" xmlns="http://www.w3.org/2000/svg">
<path d="M2.90626 11.8284V26.6018C2.90626 27.0314 2.99103 27.4567 3.1557 27.8534C3.32037 28.2502 3.56171 28.6105 3.86589 28.9138C4.17007 29.217 4.53111 29.4573 4.92832 29.6208C5.32553 29.7843 5.7511 29.8678 6.18064 29.8665H24.8291C25.6949 29.8665 26.5253 29.5226 27.1376 28.9103C27.7498 28.2981 28.0938 27.4677 28.0938 26.6018V11.8284C28.0938 10.9617 27.7501 10.1303 27.1381 9.5165C26.5262 8.90271 25.6958 8.5566 24.8291 8.55404H22.756C23.0418 8.25916 23.2952 7.93437 23.5116 7.58529C23.9258 6.89154 24.1542 6.10267 24.1745 5.29491C24.1949 4.48715 24.0066 3.68778 23.6278 2.97404C23.2983 2.39867 22.8188 1.92355 22.2404 1.59938C21.6621 1.27521 21.0065 1.11416 20.3438 1.13341C19.618 1.11028 18.8957 1.24464 18.2268 1.52726C17.5579 1.80989 16.9581 2.23406 16.4688 2.7706C16.0817 3.18042 15.7554 3.64369 15.5 4.14622C15.2595 3.64665 14.9497 3.18354 14.5797 2.7706C14.0904 2.23406 13.4906 1.80989 12.8217 1.52726C12.1527 1.24464 11.4305 1.11028 10.7047 1.13341C10.0417 1.11353 9.38556 1.27317 8.80578 1.59546C8.226 1.91775 7.74407 2.39072 7.41095 2.96435C7.03218 3.67809 6.84388 4.47746 6.86424 5.28522C6.88461 6.09299 7.11295 6.88185 7.5272 7.5756C7.7436 7.92469 7.99693 8.24947 8.28283 8.54435H6.18064C5.74983 8.54435 5.32325 8.62936 4.92535 8.79452C4.52745 8.95968 4.16606 9.20173 3.86187 9.50681C3.55769 9.8119 3.31671 10.174 3.15273 10.5724C2.98874 10.9708 2.90499 11.3976 2.90626 11.8284ZM26.1563 11.8284V26.6018C26.1563 26.7761 26.1219 26.9487 26.0552 27.1097C25.9885 27.2708 25.8908 27.4171 25.7675 27.5403C25.6443 27.6636 25.498 27.7613 25.337 27.828C25.1759 27.8947 25.0034 27.929 24.8291 27.929H16.4688L16.5366 10.4915H24.8581C25.2059 10.5016 25.5361 10.6469 25.7785 10.8965C26.0209 11.1462 26.1564 11.4805 26.1563 11.8284ZM20.3438 3.10966C20.667 3.08787 20.99 3.1571 21.2759 3.30949C21.5619 3.46188 21.7994 3.69134 21.9616 3.97185C22.1745 4.39009 22.2749 4.85659 22.2528 5.32541C22.2308 5.79423 22.087 6.24922 21.8356 6.6456C21.4191 7.37216 20.3244 8.5831 17.6894 8.5831H16.4688C16.4688 7.41091 16.6916 5.3281 17.8153 4.09779C18.1336 3.74901 18.5258 3.47579 18.9633 3.29812C19.4008 3.12045 19.8724 3.04282 20.3438 3.07091V3.10966ZM9.17408 6.60685C8.92274 6.21047 8.77896 5.75548 8.75688 5.28666C8.7348 4.81784 8.83518 4.35134 9.04814 3.9331C9.20958 3.65413 9.44557 3.42568 9.72963 3.27339C10.0137 3.12109 10.3346 3.05098 10.6563 3.07091C11.1152 3.04274 11.5747 3.1148 12.003 3.28209C12.4312 3.44938 12.818 3.70789 13.1363 4.03966C14.2697 5.29904 14.4731 7.38185 14.5313 8.55404H13.3203C10.6563 8.55404 9.59064 7.33341 9.17408 6.60685ZM4.84376 11.8284C4.84376 11.4739 4.98461 11.1338 5.23533 10.8831C5.48604 10.6324 5.82608 10.4915 6.18064 10.4915H14.5313L14.4635 27.929H6.18064C6.00554 27.9303 5.83191 27.8969 5.66977 27.8308C5.50763 27.7647 5.36018 27.6671 5.23591 27.5438C5.11164 27.4204 5.01301 27.2736 4.94571 27.112C4.87841 26.9503 4.84376 26.777 4.84376 26.6018V11.8284Z" fill="#02227A"/>
</svg>
