<svg width="21" height="21" viewBox="0 0 21 21" fill="none" xmlns="http://www.w3.org/2000/svg">
<path d="M19.3921 4.27153C18.2568 2.76084 16.9253 1.98581 15.4343 1.96875H15.3844C13.2253 1.96875 11.3655 3.58903 10.4999 4.48875C9.63368 3.58903 7.77452 1.96875 5.61481 1.96875H5.56559C4.07393 1.98581 2.74371 2.76084 1.58937 4.29778C0.87977 5.34837 0.560609 6.61434 0.687327 7.87577C0.814046 9.1372 1.37864 10.3144 2.28302 11.2028L10.0406 18.8423C10.1632 18.9625 10.3282 19.0298 10.4999 19.0298C10.6717 19.0298 10.8366 18.9625 10.9593 18.8423L18.7162 11.2028C19.623 10.3097 20.1874 9.12652 20.3109 7.85975C20.4345 6.59297 20.1093 5.32304 19.3921 4.27153ZM17.7961 10.2677L10.4999 17.4563L3.20374 10.2677C2.52041 9.59908 2.09192 8.71289 1.99224 7.76208C1.89256 6.81126 2.12793 5.85548 2.65774 5.05969C3.53384 3.89353 4.51559 3.29503 5.57806 3.28125H5.61612C7.89987 3.28125 9.96509 5.85637 9.98543 5.88262C10.0493 5.95664 10.1284 6.01601 10.2173 6.05671C10.3062 6.09741 10.4028 6.11848 10.5006 6.11848C10.5984 6.11848 10.695 6.09741 10.7839 6.05671C10.8728 6.01601 10.9519 5.95664 11.0157 5.88262C11.0367 5.85637 13.1157 3.2235 15.4231 3.28125C16.0102 3.32547 16.5787 3.50709 17.0827 3.81146C17.5866 4.11582 18.012 4.53441 18.3244 5.03344C18.862 5.83009 19.1035 6.7899 19.007 7.74612C18.9105 8.70233 18.4821 9.59453 17.7961 10.2677Z" fill="#303030"/>
</svg>
