<svg width="21" height="21" viewBox="0 0 21 21" fill="none" xmlns="http://www.w3.org/2000/svg">
<g clip-path="url(#clip0_429_20844)">
<path d="M19.6036 10.7721C19.5191 10.5992 19.5191 10.4009 19.6036 10.2281L20.3868 8.62582C20.8229 7.73369 20.4773 6.67037 19.6002 6.20497L18.0248 5.36907C17.8548 5.27892 17.7383 5.11847 17.705 4.92902L17.3969 3.17237C17.2254 2.19432 16.3206 1.53709 15.3376 1.67617L13.5718 1.92595C13.3812 1.95286 13.1927 1.89158 13.0545 1.75783L11.7727 0.517855C11.059 -0.172598 9.94091 -0.172639 9.22724 0.517855L7.94543 1.75796C7.80712 1.89175 7.61866 1.9529 7.4281 1.92608L5.66226 1.67629C4.67892 1.53713 3.77453 2.19444 3.60296 3.17249L3.29486 4.92906C3.26159 5.11855 3.14507 5.27896 2.97514 5.36916L1.39974 6.20505C0.522586 6.67041 0.177072 7.73382 0.613148 8.62594L1.39634 10.2282C1.48083 10.401 1.48083 10.5993 1.39634 10.7722L0.613107 12.3744C0.177031 13.2665 0.522545 14.3298 1.3997 14.7952L2.9751 15.6311C3.14507 15.7213 3.26159 15.8817 3.29486 16.0712L3.60296 17.8278C3.75915 18.7182 4.52261 19.3426 5.40005 19.3425C5.48647 19.3425 5.57416 19.3365 5.6623 19.324L7.42814 19.0742C7.61858 19.0472 7.80716 19.1086 7.94547 19.2423L9.22724 20.4823C9.58416 20.8276 10.042 21.0002 10.4999 21.0001C10.9578 21.0001 11.4159 20.8275 11.7727 20.4823L13.0545 19.2423C13.1928 19.1086 13.3813 19.0475 13.5718 19.0742L15.3376 19.324C16.3211 19.4631 17.2254 18.8058 17.3969 17.8278L17.7051 16.0712C17.7383 15.8817 17.8549 15.7213 18.0248 15.6311L19.6002 14.7952C20.4773 14.3299 20.8229 13.2665 20.3868 12.3743L19.6036 10.7721ZM19.0325 13.7253L17.4571 14.5612C16.9548 14.8277 16.6103 15.3018 16.5121 15.8619L16.204 17.6185C16.146 17.9494 15.84 18.1717 15.5073 18.1247L13.7414 17.8749C13.1783 17.7951 12.6211 17.9764 12.2123 18.3717L10.9305 19.6117C10.6891 19.8452 10.3108 19.8452 10.0693 19.6117L8.78755 18.3717C8.44212 18.0375 7.99054 17.8565 7.51911 17.8565C7.43273 17.8565 7.34566 17.8625 7.25846 17.8749L5.49262 18.1247C5.16015 18.1717 4.85397 17.9494 4.7959 17.6184L4.48775 15.8618C4.38947 15.3017 4.04503 14.8276 3.54271 14.5611L1.96731 13.7252C1.67052 13.5678 1.55363 13.208 1.70116 12.9062L2.48439 11.3039C2.73409 10.793 2.73409 10.2071 2.48439 9.6962L1.70116 8.09393C1.55363 7.7921 1.67052 7.43235 1.96731 7.27489L3.54271 6.439C4.04499 6.17244 4.38947 5.69839 4.48771 5.13828L4.79581 3.38167C4.85389 3.05076 5.15978 2.82846 5.49254 2.87546L7.25838 3.12524C7.82131 3.20494 8.37875 3.02377 8.78747 2.62843L10.0693 1.38845C10.3107 1.15491 10.689 1.15491 10.9305 1.38845L12.2123 2.62843C12.621 3.02381 13.1783 3.20494 13.7414 3.12524L15.5072 2.87546C15.8397 2.82842 16.1459 3.05076 16.2039 3.38167L16.512 5.13832C16.6103 5.69843 16.9547 6.17252 17.4571 6.439L19.0325 7.27489C19.3292 7.43235 19.4461 7.7921 19.2986 8.09393L18.5154 9.69616C18.2657 10.207 18.2657 10.793 18.5154 11.3039L19.2986 12.9061C19.4462 13.208 19.3293 13.5678 19.0325 13.7253Z" fill="#303030"/>
<path d="M14.9247 6.07483C14.6883 5.83834 14.3048 5.83834 14.0683 6.07483L6.07483 14.0683C5.83834 14.3048 5.83834 14.6883 6.07483 14.9248C6.19308 15.043 6.34808 15.1022 6.50303 15.1022C6.65799 15.1022 6.81303 15.043 6.93123 14.9248L14.9247 6.93132C15.1613 6.69478 15.1613 6.31137 14.9247 6.07483Z" fill="#303030"/>
<path d="M8.07747 5.0498C6.85307 5.0498 5.85693 6.04595 5.85693 7.27034C5.85693 8.49473 6.85307 9.49087 8.07747 9.49087C9.30186 9.49087 10.298 8.49473 10.298 7.27034C10.298 6.04595 9.30186 5.0498 8.07747 5.0498ZM8.07747 8.27964C7.52093 8.27964 7.06816 7.82687 7.06816 7.2703C7.06816 6.71376 7.52093 6.26099 8.07747 6.26099C8.634 6.26099 9.08681 6.71376 9.08681 7.2703C9.08677 7.82687 8.634 8.27964 8.07747 8.27964Z" fill="#303030"/>
<path d="M12.9222 11.5098C11.6978 11.5098 10.7017 12.5059 10.7017 13.7303C10.7017 14.9547 11.6978 15.9508 12.9222 15.9508C14.1466 15.9508 15.1427 14.9547 15.1427 13.7303C15.1427 12.5059 14.1466 11.5098 12.9222 11.5098ZM12.9222 14.7396C12.3657 14.7396 11.9128 14.2868 11.9128 13.7303C11.9128 13.1738 12.3656 12.721 12.9222 12.721C13.4787 12.721 13.9315 13.1738 13.9315 13.7303C13.9315 14.2868 13.4787 14.7396 12.9222 14.7396Z" fill="#303030"/>
</g>
<defs>
<clipPath id="clip0_429_20844">
<rect width="21" height="21" fill="white"/>
</clipPath>
</defs>
</svg>
