<svg width="21" height="22" viewBox="0 0 21 22" fill="none" xmlns="http://www.w3.org/2000/svg">
<path d="M15.4219 20.144C14.1553 20.144 13.125 19.1137 13.125 17.8471V9.2286C11.9011 8.44832 11.1562 7.10629 11.1562 5.63694C11.1562 4.02913 12.0474 2.57488 13.482 1.84054C13.6861 1.73685 13.9289 1.74538 14.1238 1.86482C14.3187 1.98491 14.4375 2.19623 14.4375 2.42526V5.26223L15.4219 5.65598L16.4062 5.26223V2.42526C16.4062 2.19623 16.525 1.98491 16.7199 1.86482C16.9148 1.74538 17.1577 1.73685 17.3617 1.84054C18.7963 2.57554 19.6875 4.02913 19.6875 5.6376C19.6875 7.10629 18.9427 8.44832 17.7188 9.22926V17.8471C17.7188 19.1137 16.6884 20.144 15.4219 20.144ZM13.125 3.78107C12.707 4.29623 12.4688 4.94591 12.4688 5.63694C12.4688 6.74863 13.0863 7.75598 14.0805 8.26523C14.2997 8.37744 14.4375 8.60319 14.4375 8.84929V17.8471C14.4375 18.3899 14.8792 18.8315 15.4219 18.8315C15.9646 18.8315 16.4062 18.3899 16.4062 17.8471V8.84929C16.4062 8.60319 16.5441 8.37744 16.7633 8.26523C17.7575 7.75598 18.375 6.74929 18.375 5.6376C18.375 4.94657 18.1368 4.29688 17.7188 3.78173V5.70651C17.7188 5.97491 17.5553 6.21576 17.3066 6.31616L15.666 6.97241C15.5092 7.03541 15.3352 7.03541 15.1784 6.97241L13.5378 6.31616C13.2884 6.21576 13.125 5.97491 13.125 5.70651V3.78107Z" fill="#00081E"/>
<path d="M11.2048 20.1436H9.79584C9.114 20.1436 8.53912 19.6113 8.48728 18.9321L8.40459 17.8591C7.95441 17.7226 7.51866 17.5415 7.10194 17.3184L6.28425 18.0186C5.76647 18.4629 4.98422 18.4321 4.50253 17.951L3.50503 16.9529C3.02334 16.4712 2.99316 15.6883 3.43678 15.1705L4.137 14.3535C3.91387 13.9367 3.73275 13.501 3.59625 13.0508L2.52394 12.9688C1.84472 12.9176 1.3125 12.3427 1.3125 11.6609V10.2512C1.3125 9.5694 1.84472 8.99452 2.52459 8.94268L3.59691 8.86065C3.73341 8.4098 3.91453 7.97405 4.13766 7.55799L3.43678 6.73965C2.99316 6.22252 3.02334 5.44027 3.50569 4.95727L4.50188 3.96043C4.98422 3.47809 5.76713 3.44855 6.28425 3.89218L7.10194 4.5924C7.51866 4.36927 7.95441 4.18815 8.40459 4.05165L8.48728 2.97868C8.53912 2.30077 9.114 1.76855 9.79519 1.76855H10.5C10.8623 1.76855 11.1562 2.0619 11.1562 2.4248C11.1562 2.78771 10.8623 3.08105 10.5 3.08105H9.79519L9.67706 4.61734C9.65475 4.90346 9.44934 5.14168 9.17044 5.20599C8.53584 5.35234 7.93209 5.60237 7.37625 5.95084C7.13409 6.10374 6.81975 6.08077 6.60122 5.89243L5.42981 4.88902L4.43362 5.88652L5.43703 7.05727C5.62406 7.27515 5.64703 7.58949 5.49478 7.8323C5.14697 8.3888 4.89628 8.99255 4.74994 9.62649C4.68562 9.90605 4.44675 10.1115 4.16062 10.1331L2.625 10.2512V11.6609L4.16062 11.779C4.44675 11.8006 4.68562 12.0067 4.74994 12.2856C4.89628 12.9202 5.14631 13.524 5.49478 14.0798C5.64703 14.3226 5.62341 14.637 5.43703 14.8548L4.43362 16.0256L5.43047 17.0231L6.60122 16.0197C6.81975 15.832 7.13409 15.809 7.37625 15.9613C7.93275 16.3091 8.5365 16.5598 9.17044 16.7061C9.45 16.7711 9.65541 17.0093 9.67706 17.2948L9.79519 18.8311H11.2042C11.2317 18.4701 11.5461 18.2004 11.909 18.2273C12.2706 18.2549 12.5409 18.5705 12.5127 18.9321C12.4609 19.6113 11.886 20.1436 11.2048 20.1436Z" fill="#00081E"/>
<path d="M5.90625 10.9562C5.90625 8.70263 7.51669 6.79753 9.73547 6.42609C10.0918 6.36244 10.4317 6.60722 10.4908 6.96488C10.5505 7.32253 10.3097 7.6605 9.95203 7.72022C8.3685 7.986 7.21875 9.34706 7.21875 10.9562C7.21875 13.2222 9.46969 14.8025 11.594 14.0511C11.9339 13.9297 12.3106 14.1082 12.432 14.4501C12.5527 14.792 12.3742 15.1667 12.0323 15.2874C9.04444 16.3447 5.90625 14.1167 5.90625 10.9562Z" fill="#00081E"/>
</svg>
