<svg width="20" height="21" viewBox="0 0 20 21" fill="none" xmlns="http://www.w3.org/2000/svg">
<path d="M17.9161 7.53973C18.0259 7.53866 18.1308 7.4943 18.2081 7.41627C18.2854 7.33825 18.3287 7.23288 18.3287 7.12307C18.3287 7.01326 18.2854 6.90788 18.2081 6.82986C18.1308 6.75184 18.0259 6.70747 17.9161 6.70641H17.0827V5.87309H17.9161C18.0266 5.87309 18.1325 5.82919 18.2107 5.75104C18.2888 5.6729 18.3327 5.56692 18.3327 5.45641C18.3327 5.3459 18.2888 5.23991 18.2107 5.16177C18.1325 5.08363 18.0266 5.03973 17.9161 5.03973H17.0827V4.62309C17.0823 4.29168 16.9505 3.97394 16.7162 3.7396C16.4818 3.50526 16.1641 3.37345 15.8327 3.37309H15.4161V2.53973C15.4161 2.42922 15.3722 2.32323 15.294 2.24509C15.2159 2.16695 15.1099 2.12305 14.9994 2.12305C14.8889 2.12305 14.7829 2.16695 14.7047 2.24509C14.6266 2.32323 14.5827 2.42922 14.5827 2.53973V3.37309H13.7494V2.53973C13.7483 2.42992 13.7039 2.32497 13.6259 2.2477C13.5479 2.17043 13.4425 2.12708 13.3327 2.12708C13.2229 2.12708 13.1175 2.17043 13.0395 2.2477C12.9615 2.32497 12.9171 2.42992 12.9161 2.53973V3.37309H12.0827V2.53973C12.0816 2.42992 12.0373 2.32497 11.9592 2.2477C11.8812 2.17043 11.7758 2.12708 11.666 2.12708C11.5562 2.12708 11.4509 2.17043 11.3728 2.2477C11.2948 2.32497 11.2504 2.42992 11.2494 2.53973V3.37309H10.4161V2.53973C10.4161 2.42922 10.3722 2.32323 10.294 2.24509C10.2159 2.16695 10.1099 2.12305 9.99938 2.12305C9.88886 2.12305 9.78288 2.16695 9.70474 2.24509C9.6266 2.32323 9.5827 2.42922 9.5827 2.53973V3.37309H8.74937V2.53973C8.74831 2.42992 8.70395 2.32497 8.62592 2.2477C8.5479 2.17043 8.44253 2.12708 8.33271 2.12708C8.2229 2.12708 8.11753 2.17043 8.03951 2.2477C7.96148 2.32497 7.91712 2.42992 7.91605 2.53973V3.37309H7.0827V2.53973C7.08163 2.42992 7.03727 2.32497 6.95924 2.2477C6.88122 2.17043 6.77585 2.12708 6.66604 2.12708C6.55622 2.12708 6.45085 2.17043 6.37283 2.2477C6.2948 2.32497 6.25044 2.42992 6.24937 2.53973V3.37309H5.41605V2.53973C5.41605 2.42922 5.37215 2.32323 5.29401 2.24509C5.21587 2.16695 5.10989 2.12305 4.99937 2.12305C4.88886 2.12305 4.78288 2.16695 4.70474 2.24509C4.6266 2.32323 4.5827 2.42922 4.5827 2.53973V3.37309H4.16605C3.83465 3.37345 3.51691 3.50526 3.28257 3.7396C3.04823 3.97394 2.91642 4.29168 2.91605 4.62309V5.03973H2.0827C1.97218 5.03973 1.8662 5.08363 1.78806 5.16177C1.70992 5.23991 1.66602 5.3459 1.66602 5.45641C1.66602 5.56692 1.70992 5.6729 1.78806 5.75104C1.8662 5.82919 1.97218 5.87309 2.0827 5.87309H2.91605V6.70641H2.0827C1.97289 6.70747 1.86794 6.75184 1.79067 6.82986C1.7134 6.90788 1.67005 7.01326 1.67005 7.12307C1.67005 7.23288 1.7134 7.33825 1.79067 7.41627C1.86794 7.4943 1.97289 7.53866 2.0827 7.53973H2.91605V8.37309H2.0827C1.97289 8.37415 1.86794 8.41852 1.79067 8.49654C1.7134 8.57456 1.67005 8.67993 1.67005 8.78975C1.67005 8.89956 1.7134 9.00493 1.79067 9.08295C1.86794 9.16098 1.97289 9.20534 2.0827 9.20641H2.91605V10.0397H2.0827C1.97218 10.0397 1.8662 10.0836 1.78806 10.1618C1.70992 10.2399 1.66602 10.3459 1.66602 10.4564C1.66602 10.5669 1.70992 10.6729 1.78806 10.751C1.8662 10.8292 1.97218 10.8731 2.0827 10.8731H2.91605V11.7064H2.0827C1.97289 11.7075 1.86794 11.7518 1.79067 11.8299C1.7134 11.9079 1.67005 12.0133 1.67005 12.1231C1.67005 12.2329 1.7134 12.3382 1.79067 12.4163C1.86794 12.4943 1.97289 12.5387 2.0827 12.5397H2.91605V13.3731H2.0827C1.97289 13.3741 1.86794 13.4185 1.79067 13.4965C1.7134 13.5746 1.67005 13.6799 1.67005 13.7897C1.67005 13.8996 1.7134 14.0049 1.79067 14.083C1.86794 14.161 1.97289 14.2053 2.0827 14.2064H2.91605V15.0397H2.0827C1.97218 15.0397 1.8662 15.0836 1.78806 15.1618C1.70992 15.2399 1.66602 15.3459 1.66602 15.4564C1.66602 15.5669 1.70992 15.6729 1.78806 15.751C1.8662 15.8292 1.97218 15.8731 2.0827 15.8731H2.91605V16.2897C2.91642 16.6211 3.04823 16.9389 3.28257 17.1732C3.51691 17.4076 3.83465 17.5394 4.16605 17.5397H4.5827V18.3731C4.5827 18.4836 4.6266 18.5896 4.70474 18.6677C4.78288 18.7459 4.88886 18.7898 4.99937 18.7898C5.10989 18.7898 5.21587 18.7459 5.29401 18.6677C5.37215 18.5896 5.41605 18.4836 5.41605 18.3731V17.5397H6.24937V18.3731C6.25044 18.4829 6.2948 18.5878 6.37283 18.6651C6.45085 18.7424 6.55622 18.7857 6.66604 18.7857C6.77585 18.7857 6.88122 18.7424 6.95924 18.6651C7.03727 18.5878 7.08163 18.4829 7.0827 18.3731V17.5397H7.91605V18.3731C7.91712 18.4829 7.96148 18.5878 8.03951 18.6651C8.11753 18.7424 8.2229 18.7857 8.33271 18.7857C8.44253 18.7857 8.5479 18.7424 8.62592 18.6651C8.70395 18.5878 8.74831 18.4829 8.74937 18.3731V17.5397H9.5827V18.3731C9.5827 18.4836 9.6266 18.5896 9.70474 18.6677C9.78288 18.7459 9.88886 18.7898 9.99938 18.7898C10.1099 18.7898 10.2159 18.7459 10.294 18.6677C10.3722 18.5896 10.4161 18.4836 10.4161 18.3731V17.5397H11.2494V18.3731C11.2504 18.4829 11.2948 18.5878 11.3728 18.6651C11.4509 18.7424 11.5562 18.7857 11.666 18.7857C11.7758 18.7857 11.8812 18.7424 11.9592 18.6651C12.0373 18.5878 12.0816 18.4829 12.0827 18.3731V17.5397H12.9161V18.3731C12.9171 18.4829 12.9615 18.5878 13.0395 18.6651C13.1175 18.7424 13.2229 18.7857 13.3327 18.7857C13.4425 18.7857 13.5479 18.7424 13.6259 18.6651C13.7039 18.5878 13.7483 18.4829 13.7494 18.3731V17.5397H14.5827V18.3731C14.5827 18.4836 14.6266 18.5896 14.7047 18.6677C14.7829 18.7459 14.8889 18.7898 14.9994 18.7898C15.1099 18.7898 15.2159 18.7459 15.294 18.6677C15.3722 18.5896 15.4161 18.4836 15.4161 18.3731V17.5397H15.8327C16.1641 17.5394 16.4818 17.4076 16.7162 17.1732C16.9505 16.9389 17.0823 16.6211 17.0827 16.2897V15.8731H17.9161C18.0266 15.8731 18.1325 15.8292 18.2107 15.751C18.2888 15.6729 18.3327 15.5669 18.3327 15.4564C18.3327 15.3459 18.2888 15.2399 18.2107 15.1618C18.1325 15.0836 18.0266 15.0397 17.9161 15.0397H17.0827V14.2064H17.9161C18.0259 14.2053 18.1308 14.161 18.2081 14.083C18.2854 14.0049 18.3287 13.8996 18.3287 13.7897C18.3287 13.6799 18.2854 13.5746 18.2081 13.4965C18.1308 13.4185 18.0259 13.3741 17.9161 13.3731H17.0827V12.5397H17.9161C18.0259 12.5387 18.1308 12.4943 18.2081 12.4163C18.2854 12.3382 18.3287 12.2329 18.3287 12.1231C18.3287 12.0133 18.2854 11.9079 18.2081 11.8299C18.1308 11.7518 18.0259 11.7075 17.9161 11.7064H17.0827V10.8731H17.9161C18.0266 10.8731 18.1325 10.8292 18.2107 10.751C18.2888 10.6729 18.3327 10.5669 18.3327 10.4564C18.3327 10.3459 18.2888 10.2399 18.2107 10.1618C18.1325 10.0836 18.0266 10.0397 17.9161 10.0397H17.0827V9.20641H17.9161C18.0259 9.20534 18.1308 9.16098 18.2081 9.08295C18.2854 9.00493 18.3287 8.89956 18.3287 8.78975C18.3287 8.67993 18.2854 8.57456 18.2081 8.49654C18.1308 8.41852 18.0259 8.37415 17.9161 8.37309H17.0827V7.53973H17.9161ZM16.2494 16.2897C16.2493 16.4002 16.2054 16.5062 16.1273 16.5843C16.0491 16.6624 15.9432 16.7063 15.8327 16.7064H4.16605C4.05557 16.7063 3.94962 16.6624 3.8715 16.5843C3.79337 16.5062 3.74945 16.4002 3.74937 16.2897V4.62309C3.74948 4.51261 3.79341 4.40668 3.87153 4.32856C3.94965 4.25044 4.05558 4.20651 4.16605 4.20641H15.8327C15.9432 4.20651 16.0491 4.25044 16.1272 4.32856C16.2053 4.40668 16.2493 4.51261 16.2494 4.62309V16.2897Z" fill="white"/>
<path d="M15.0007 5.03906H5.00066C4.94594 5.03905 4.89175 5.04981 4.84119 5.07075C4.79063 5.09168 4.74469 5.12238 4.70599 5.16107C4.6673 5.19977 4.63661 5.24571 4.61567 5.29627C4.59474 5.34683 4.58397 5.40102 4.58398 5.45574V15.4557C4.58395 15.5105 4.59471 15.5647 4.61564 15.6152C4.63657 15.6658 4.66726 15.7117 4.70596 15.7504C4.74466 15.7891 4.7906 15.8198 4.84117 15.8408C4.89174 15.8617 4.94594 15.8725 5.00066 15.8724H15.0007C15.0554 15.8725 15.1096 15.8617 15.1602 15.8408C15.2107 15.8198 15.2567 15.7891 15.2954 15.7504C15.3341 15.7117 15.3648 15.6658 15.3857 15.6152C15.4066 15.5647 15.4174 15.5105 15.4173 15.4557V5.45574C15.4174 5.40102 15.4066 5.34683 15.3857 5.29627C15.3647 5.24571 15.334 5.19977 15.2953 5.16107C15.2566 5.12238 15.2107 5.09168 15.1601 5.07075C15.1096 5.04981 15.0554 5.03905 15.0007 5.03906ZM14.584 15.0391H5.41734V5.87242H14.584V15.0391Z" fill="white"/>
<path d="M7.08332 12.1224H7.91668C8.02719 12.1224 8.13317 12.0785 8.21132 12.0004C8.28946 11.9222 8.33336 11.8163 8.33336 11.7057C8.33336 11.5952 8.28946 11.4892 8.21132 11.4111C8.13317 11.333 8.02719 11.2891 7.91668 11.2891H7.08332V9.62242H7.91668C8.02719 9.62242 8.13317 9.57852 8.21132 9.50038C8.28946 9.42224 8.33336 9.31625 8.33336 9.20574C8.33336 9.09523 8.28946 8.98925 8.21132 8.91111C8.13317 8.83296 8.02719 8.78906 7.91668 8.78906H7.08332C6.86238 8.78932 6.65057 8.87721 6.49435 9.03344C6.33812 9.18967 6.25025 9.40148 6.25 9.62242V11.2891C6.25028 11.51 6.33816 11.7218 6.49438 11.878C6.6506 12.0342 6.86239 12.1221 7.08332 12.1224Z" fill="white"/>
<path d="M9.16668 12.1224C9.2214 12.1224 9.2756 12.1117 9.32616 12.0908C9.37672 12.0698 9.42267 12.0391 9.46136 12.0004C9.50005 11.9617 9.53074 11.9158 9.55167 11.8652C9.5726 11.8147 9.58335 11.7605 9.58332 11.7057V10.8724H10.4167C10.4714 10.8724 10.5256 10.8617 10.5761 10.8407C10.6267 10.8198 10.6726 10.7891 10.7113 10.7504C10.75 10.7117 10.7807 10.6658 10.8016 10.6152C10.8226 10.5646 10.8333 10.5105 10.8333 10.4557V9.20574C10.8333 9.15102 10.8226 9.09684 10.8016 9.04628C10.7807 8.99572 10.75 8.94978 10.7113 8.91109C10.6726 8.87239 10.6267 8.8417 10.5761 8.82076C10.5256 8.79982 10.4714 8.78905 10.4167 8.78906H9.16668C9.11196 8.78905 9.05777 8.79981 9.0072 8.82075C8.95664 8.84168 8.9107 8.87238 8.87201 8.91107C8.83331 8.94977 8.80262 8.99571 8.78169 9.04627C8.76075 9.09683 8.74998 9.15102 8.75 9.20574V11.7057C8.74997 11.7605 8.76073 11.8147 8.78165 11.8652C8.80258 11.9158 8.83328 11.9617 8.87197 12.0004C8.91067 12.0391 8.95662 12.0698 9.00719 12.0908C9.05775 12.1117 9.11195 12.1225 9.16668 12.1224ZM9.58332 9.62242H10V10.0391H9.58332V9.62242Z" fill="white"/>
<path d="M12.0833 12.1225H12.9167C13.1376 12.1223 13.3494 12.0344 13.5056 11.8781C13.6619 11.7219 13.7497 11.5101 13.75 11.2892V9.20587C13.7506 9.15081 13.7402 9.0962 13.7195 9.04518C13.6988 8.99416 13.6682 8.94775 13.6294 8.90863C13.5907 8.86951 13.5446 8.83845 13.4937 8.81726C13.4429 8.79607 13.3884 8.78516 13.3334 8.78516C13.2783 8.78516 13.2238 8.79607 13.173 8.81726C13.1222 8.83845 13.076 8.86951 13.0373 8.90863C12.9986 8.94775 12.9679 8.99416 12.9472 9.04518C12.9265 9.0962 12.9162 9.15081 12.9167 9.20587V11.2892H12.0833V9.20587C12.0839 9.15081 12.0735 9.0962 12.0528 9.04518C12.0321 8.99416 12.0015 8.94775 11.9627 8.90863C11.924 8.86951 11.8779 8.83845 11.8271 8.81726C11.7763 8.79607 11.7217 8.78516 11.6667 8.78516C11.6116 8.78516 11.5571 8.79607 11.5063 8.81726C11.4555 8.83845 11.4094 8.86951 11.3706 8.90863C11.3319 8.94775 11.3013 8.99416 11.2806 9.04518C11.2599 9.0962 11.2495 9.15081 11.25 9.20587V11.2892C11.2503 11.5101 11.3382 11.7219 11.4944 11.8781C11.6506 12.0344 11.8624 12.1223 12.0833 12.1225Z" fill="white"/>
</svg>
