<svg width="21" height="21" viewBox="0 0 21 21" fill="none" xmlns="http://www.w3.org/2000/svg">
<path fill-rule="evenodd" clip-rule="evenodd" d="M4.375 7.50749V4.375H2.625V14.875C2.625 16.8079 4.19212 18.375 6.125 18.375H18.375V16.625H6.125C5.27187 16.625 4.56138 16.0142 4.40651 15.2057L7.875 11.7373L10.7564 14.6186C11.0976 14.9608 11.6524 14.9608 11.9936 14.6186L16.3686 10.2436L15.1314 9.00638L11.375 12.7628L8.49363 9.88138C8.15238 9.53925 7.59762 9.53925 7.25637 9.88138L4.375 12.7628V9.98288L7.84787 6.50912L9.83237 8.49363C10.1727 8.834 10.724 8.83575 11.0661 8.49713L14.8715 4.73376L16.8814 6.74363L18.1186 5.50638L15.4936 2.88138C15.1533 2.541 14.602 2.53925 14.2599 2.87788L10.4545 6.64125L8.4665 4.65325C8.12525 4.31112 7.57137 4.31112 7.22924 4.65325L4.375 7.50749Z" fill="#303030"/>
</svg>
