<svg width="19" height="20" viewBox="0 0 19 20" fill="none" xmlns="http://www.w3.org/2000/svg">
<g clip-path="url(#clip0_373_3825)">
<path d="M9.5004 0.456055C5.81155 0.456055 2.81055 3.50422 2.81055 7.25074V12.6616C2.81055 16.4081 5.81155 19.4561 9.5004 19.4561C13.189 19.4561 16.1903 16.4173 16.1903 12.6823V7.25074C16.1903 3.50422 13.189 0.456055 9.5004 0.456055ZM14.932 12.6823C14.932 15.7236 12.4955 18.1978 9.5004 18.1978C6.50549 18.1978 4.06885 15.7142 4.06885 12.6614V7.25074C4.06885 4.19794 6.50549 1.71432 9.5004 1.71432C12.4955 1.71432 14.932 4.19794 14.932 7.25074V12.6823Z" fill="#00081E"/>
<path d="M9.50025 5.65723C9.15275 5.65723 8.87109 5.93889 8.87109 6.28638V8.48838C8.87109 8.83587 9.15275 9.11753 9.50025 9.11753C9.84774 9.11753 10.1294 8.83587 10.1294 8.48838V6.28638C10.1294 5.93889 9.84774 5.65723 9.50025 5.65723Z" fill="#00081E"/>
</g>
<defs>
<clipPath id="clip0_373_3825">
<rect width="19" height="19" fill="white" transform="translate(0 0.456055)"/>
</clipPath>
</defs>
</svg>
