<svg width="35" height="35" viewBox="0 0 35 35" fill="none" xmlns="http://www.w3.org/2000/svg">
<g clip-path="url(#clip0_223_9)">
<path d="M2.45773 15.2593C2.59172 11.4416 4.13774 7.87156 6.85242 5.15687C9.69781 2.31094 13.4795 0.744141 17.5001 0.744141C25.6206 0.744141 32.2559 7.20766 32.5419 15.2593C33.7811 15.81 34.6484 17.0503 34.6484 18.4919V22.4633C34.6484 24.4134 33.062 26.0005 31.1112 26.0005C29.8491 26.0005 28.8226 24.974 28.8226 23.7118V17.2428C28.8226 16.0577 29.7315 15.0914 30.887 14.9766C30.4605 7.9618 24.6209 2.38477 17.5001 2.38477C13.917 2.38477 10.5477 3.78148 8.0118 6.31734C5.6832 8.64594 4.32039 11.6811 4.11531 14.9771C5.26977 15.093 6.17703 16.0588 6.17703 17.2428V23.7112C6.17703 24.9062 5.25391 25.8785 4.08469 25.9797V27.6143C4.08469 29.4551 5.58258 30.9524 7.42336 30.9524H9.89578C10.0172 30.6057 10.2075 30.2852 10.4744 30.0195C10.942 29.5497 11.5654 29.291 12.2293 29.291H14.7777C15.1436 29.291 15.4947 29.3687 15.8163 29.5185C16.6934 29.9216 17.26 30.8064 17.26 31.7727C17.26 32.4366 17.0013 33.0601 16.5327 33.5266C16.064 33.9963 15.4405 34.255 14.7777 34.255H12.2293C11.1727 34.255 10.2414 33.5719 9.89414 32.593H7.42336C4.6775 32.593 2.44407 30.3596 2.44407 27.6143V25.6877C1.2125 25.1337 0.351719 23.8977 0.351719 22.4622V18.4908C0.351719 17.0503 1.21906 15.81 2.45773 15.2593ZM30.4637 17.2428V23.7112C30.4637 24.0684 30.7541 24.3593 31.1118 24.3593C32.1574 24.3593 33.0084 23.5084 33.0084 22.4627V18.4913C33.0084 17.4452 32.1574 16.5948 31.1118 16.5948C30.7541 16.5948 30.4637 16.8857 30.4637 17.2428ZM11.4062 31.9488C11.4877 32.3349 11.8345 32.6155 12.2298 32.6155H14.7783C15.0025 32.6155 15.213 32.528 15.3738 32.3672C15.5324 32.2091 15.6199 31.998 15.6199 31.7738C15.6199 31.4462 15.428 31.1471 15.1272 31.0087C15.02 30.9584 14.9024 30.9327 14.7783 30.9327H12.2298C12.0056 30.9327 11.7951 31.0197 11.6348 31.1805C11.4763 31.3385 11.3888 31.5496 11.3888 31.7738C11.3882 31.834 11.3948 31.8941 11.4062 31.9488ZM1.99234 22.4627C1.99234 23.5084 2.84328 24.3593 3.88891 24.3593C4.24602 24.3593 4.53695 24.0689 4.53695 23.7112V17.2428C4.53695 16.8857 4.24656 16.5948 3.88891 16.5948C2.84328 16.5948 1.99234 17.4457 1.99234 18.4913V22.4627Z" fill="#02227A"/>
<path d="M12.1895 22.7454C10.2727 22.7454 8.71359 21.1857 8.71359 19.2695V12.1869C8.71359 11.2605 9.07562 10.3877 9.73297 9.73031C10.3903 9.07297 11.2626 8.71094 12.1895 8.71094H22.8131C24.7299 8.71094 26.2891 10.2701 26.2891 12.1869V19.2695C26.2891 21.1862 24.7299 22.7454 22.8131 22.7454H22.748V24.5807C22.748 25.2807 22.3308 25.902 21.6855 26.1639C21.4771 26.2476 21.2605 26.2891 21.0462 26.2891C20.5994 26.2891 20.1641 26.112 19.8452 25.7822L16.792 22.7454H12.1895ZM17.708 21.3432L21.0123 24.6294C21.027 24.6447 21.038 24.6562 21.0691 24.6425C21.1069 24.6272 21.1069 24.6026 21.1069 24.5807V21.9251C21.1069 21.4723 21.4738 21.1048 21.9272 21.1048H22.8126C23.8248 21.1048 24.6479 20.2812 24.6479 19.2695V12.1869C24.6479 11.1746 23.8248 10.3516 22.8126 10.3516H12.189C11.7001 10.3516 11.2402 10.543 10.8923 10.8902C10.5445 11.238 10.3537 11.6985 10.3537 12.1869V19.2695C10.3537 20.2817 11.1773 21.1048 12.189 21.1048H17.1295C17.3466 21.1048 17.5544 21.1906 17.708 21.3432Z" fill="#02227A"/>
<path d="M21.4851 14.6494C22.1523 14.6494 22.6953 15.193 22.6953 15.8596C22.6953 16.5263 22.1517 17.0699 21.4851 17.0699C20.8173 17.0699 20.2738 16.5263 20.2738 15.8596C20.2738 15.193 20.8168 14.6494 21.4851 14.6494Z" fill="#02227A"/>
<path d="M17.5007 14.6494C18.1679 14.6494 18.7109 15.193 18.7109 15.8596C18.7109 16.5263 18.1673 17.0699 17.5007 17.0699C16.8324 17.0699 16.2894 16.5263 16.2894 15.8596C16.2894 15.193 16.8324 14.6494 17.5007 14.6494Z" fill="#02227A"/>
<path d="M13.5163 14.6494C14.1835 14.6494 14.7266 15.193 14.7266 15.8596C14.7266 16.5263 14.183 17.0699 13.5163 17.0699C12.8486 17.0699 12.305 16.5263 12.305 15.8596C12.305 15.193 12.8486 14.6494 13.5163 14.6494Z" fill="#02227A"/>
</g>
<defs>
<clipPath id="clip0_223_9">
<rect width="35" height="35" fill="white" transform="matrix(-1 0 0 1 35 0)"/>
</clipPath>
</defs>
</svg>
