<svg width="22" height="23" viewBox="0 0 22 23" fill="none" xmlns="http://www.w3.org/2000/svg">
<g clip-path="url(#clip0_373_3942)">
<path d="M0.733348 16.7727H1.4667V18.6061C1.4667 19.2135 1.9592 19.7061 2.5667 19.7061C3.17419 19.7061 3.6667 19.2135 3.6667 18.6061V17.8727H4.4V18.6061C4.4 19.0111 4.72832 19.3394 5.13335 19.3394H9.9C10.305 19.3394 10.6333 19.0111 10.6333 18.6061V17.8727H11.3667V18.6061C11.3667 19.0111 11.695 19.3394 12.1 19.3394H20.5334C20.9384 19.3394 21.2667 19.0111 21.2667 18.6061V17.8052C21.7047 17.6504 21.9982 17.2372 22.0001 16.7727V7.2394C22.0001 6.63191 21.5076 6.1394 20.9001 6.1394H3.66665V4.30605C3.66665 3.69856 3.17414 3.20605 2.56665 3.20605H1.1C0.492508 3.20605 0 3.69856 0 4.30605C0 4.91355 0.492508 5.40605 1.1 5.40605H1.46665V6.87271H0.733348C0.328324 6.87271 0 7.20103 0 7.60605V9.80606C0 10.2111 0.328324 10.5394 0.733348 10.5394H1.4667V11.2727H0.733348C0.328324 11.2727 0 11.601 0 12.0061V16.0394C0 16.4444 0.328324 16.7727 0.733348 16.7727ZM5.13335 17.8727H6.23335V18.6061H5.13335V17.8727ZM6.96665 18.6061V17.8727H8.06665V18.6061H6.96665ZM9.9 18.6061H8.8V17.8727H9.9V18.6061ZM12.1 17.8727H13.2V18.6061H12.1V17.8727ZM13.9333 17.8727H15.0333V18.6061H13.9333V17.8727ZM15.7667 18.6061V17.8727H16.8667V18.6061H15.7667ZM17.6 18.6061V17.8727H18.7V18.6061H17.6ZM20.5333 18.6061H19.4333V17.8727H20.5333V18.6061ZM20.9 6.87271C21.1025 6.87271 21.2667 7.03689 21.2667 7.23936V16.7727C21.2667 16.9752 21.1025 17.1394 20.9 17.1394H3.66665V6.87271H20.9ZM1.1 4.67271C0.897488 4.67271 0.733348 4.50852 0.733348 4.30605C0.733348 4.10359 0.897531 3.9394 1.1 3.9394H2.56665C2.76916 3.9394 2.9333 4.10359 2.9333 4.30605V18.6061C2.9333 18.8086 2.76912 18.9727 2.56665 18.9727C2.36418 18.9727 2.2 18.8086 2.2 18.6061V5.0394C2.2 4.83689 2.03582 4.67275 1.83335 4.67275L1.1 4.67271ZM0.733348 9.80606V7.60605H1.4667V9.80606H0.733348ZM0.733348 12.0061H1.4667V16.0394H0.733348V12.0061Z" fill="white"/>
<path d="M8.0668 14.2059H9.41907L12.4129 16.2727C12.6369 16.4295 12.9294 16.4487 13.1719 16.3226C13.4144 16.1964 13.5666 15.9459 13.5668 15.6725V13.8025C14.4213 13.629 15.0353 12.8777 15.0353 12.0059C15.0353 11.134 14.4213 10.3827 13.5668 10.2092V8.3392C13.567 8.06609 13.4153 7.8155 13.1733 7.68895C12.9313 7.56241 12.639 7.5808 12.4148 7.73678L9.41907 9.80585H8.0668C7.4593 9.80585 6.9668 10.2984 6.9668 10.9059V13.1059C6.9668 13.7134 7.4593 14.2059 8.0668 14.2059ZM14.3001 12.0059C14.2982 12.4703 14.0047 12.8836 13.5668 13.0384V10.9733C14.0047 11.1281 14.2982 11.5414 14.3001 12.0059ZM12.8335 8.3392L12.8316 15.6696L9.90014 13.6467V10.365L12.8335 8.3392ZM7.70014 10.9059C7.70014 10.7033 7.86433 10.5392 8.0668 10.5392H9.1668V13.4725H8.0668C7.86429 13.4725 7.70014 13.3084 7.70014 13.1059V10.9059Z" fill="white"/>
<path d="M14.4843 9.78661C15.2783 10.2438 15.7675 11.0902 15.7675 12.0064C15.7675 12.9226 15.2782 13.769 14.4843 14.2262C14.3699 14.2912 14.2991 14.4126 14.2988 14.5442C14.2985 14.6757 14.3688 14.7974 14.4829 14.8629C14.5969 14.9284 14.7374 14.9278 14.8509 14.8613C15.8718 14.2731 16.5008 13.1846 16.5008 12.0064C16.5008 10.8282 15.8718 9.73969 14.8509 9.15149C14.6757 9.05189 14.453 9.11234 14.3522 9.28688C14.2513 9.46142 14.3104 9.68469 14.4843 9.78661Z" fill="white"/>
<path d="M15.2167 8.51653C16.4644 9.23574 17.2332 10.5663 17.2332 12.0064C17.2332 13.4466 16.4644 14.7772 15.2167 15.4964C15.1023 15.5614 15.0316 15.6827 15.0313 15.8143C15.031 15.9459 15.1012 16.0675 15.2153 16.133C15.3294 16.1986 15.4698 16.198 15.5834 16.1314C17.058 15.2812 17.9665 13.7085 17.9665 12.0064C17.9665 10.3043 17.0579 8.73159 15.5834 7.88141C15.4698 7.81485 15.3294 7.81425 15.2153 7.87977C15.1012 7.9453 15.031 8.06695 15.0313 8.19852C15.0316 8.33013 15.1023 8.45147 15.2167 8.51653Z" fill="white"/>
</g>
<defs>
<clipPath id="clip0_373_3942">
<rect width="22" height="22" fill="white" transform="translate(0 0.456055)"/>
</clipPath>
</defs>
</svg>
