<svg width="86" height="109" viewBox="0 0 86 109" fill="none" xmlns="http://www.w3.org/2000/svg">
<path d="M1.14241 5.95914C-0.00259459 15.2911 0.673401 25.0961 0.609401 34.4961C0.542401 43.7381 -0.844599 54.0581 0.803401 63.1761C0.962401 64.0591 1.85941 64.8852 2.09841 63.5182C2.75241 59.7802 2.3314 55.9631 2.2024 52.1841C2.0254 46.9501 2.1094 41.6941 2.1194 36.4571C2.1404 26.4981 2.9914 16.0901 1.8184 6.19314C1.7494 5.62114 1.25341 5.04914 1.14241 5.95914Z" fill="white"/>
<path d="M1.45171 7.61494C1.55571 5.39194 3.12071 3.51494 5.35471 3.30294C5.58671 3.27994 5.70471 3.01394 5.77071 2.82794C6.06871 1.98994 6.07971 1.40994 5.71471 0.59394C5.65471 0.45894 5.49471 0.0999366 5.27671 0.140937C1.58071 0.824937 0.803717 4.38694 1.19472 7.62294C1.22972 7.90994 1.43671 7.90994 1.45171 7.61494Z" fill="white"/>
<path d="M6.4361 2.71708C18.5501 3.40508 31.0211 3.55708 43.1471 3.24408C55.5421 2.92408 67.8401 4.30807 80.2211 4.47407C81.2011 4.48807 81.1571 0.408077 80.1211 0.413077C67.7691 0.464077 55.4141 -0.365925 43.0721 0.196075C30.8381 0.753075 18.6211 -0.395924 6.3771 0.374076C5.7431 0.414076 5.7901 2.68008 6.4361 2.71708Z" fill="white"/>
<path d="M76.7472 2.99813C78.8582 3.27913 82.9072 4.90413 83.2312 7.36313C83.2642 7.61313 83.5382 9.13614 84.1122 8.67514C84.6822 8.21814 84.6332 6.93914 84.5362 6.31414C84.2552 4.53714 83.6292 2.77313 81.9852 1.83413C81.3012 1.44313 80.4752 1.24413 79.7022 1.13913C78.6242 0.993132 77.7372 1.38714 76.7142 1.59214C76.3432 1.66614 76.3742 2.94713 76.7472 2.99813Z" fill="white"/>
<path d="M84.001 7.2599C82.669 22.2249 83.101 37.5569 82.884 52.5769C82.775 60.1019 82.677 67.6359 82.739 75.1589C82.794 81.6099 82.708 87.9729 84.52 94.2099C84.678 94.7509 85.114 94.4659 85.147 94.0339C85.635 87.7059 85.081 81.4379 84.991 75.1039C84.886 67.5809 84.952 60.0509 84.945 52.5259C84.931 37.5299 85.958 22.1919 84.708 7.24289C84.629 6.30489 84.081 6.3669 84.001 7.2599Z" fill="white"/>
<path d="M83.9251 95.9878C83.6301 98.9158 84.0951 101.642 80.6401 102.691C78.3121 103.396 75.7611 102.423 73.7631 104.072C73.3431 104.42 73.3921 105.472 73.8041 105.804C76.6461 108.087 81.1091 106.191 83.3661 103.917C85.3021 101.968 85.0811 98.4578 84.7841 95.9658C84.6731 95.0288 84.0171 95.0758 83.9251 95.9878Z" fill="white"/>
<path d="M9.41678 106.48C20.6068 108.304 32.3088 107.246 43.6028 107.214C49.1718 107.198 54.7088 107.571 60.2678 107.87C65.3518 108.145 71.7678 109.046 76.3658 106.456C76.6348 106.304 76.6238 105.345 76.3358 105.212C72.1198 103.306 66.5768 104.646 62.0438 104.685C56.5038 104.73 50.9658 104.472 45.4268 104.455C33.4908 104.42 21.2858 104.312 9.38678 105.191C9.00978 105.221 9.04678 106.422 9.41678 106.48Z" fill="white"/>
<path d="M69.8594 3.0744C69.5234 6.9064 69.5804 10.7184 69.6574 14.5624C69.7724 20.3374 71.4304 30.1564 66.8084 34.6014C64.5664 36.7614 61.9254 38.1034 60.1874 40.7734C58.7864 42.9254 58.6704 45.9314 58.5874 48.3964C58.2884 57.4024 59.0544 66.4214 59.1404 75.4214C59.2304 84.7884 58.2204 94.4294 59.4374 103.745C59.6254 105.177 60.8324 105.065 61.0114 103.706C61.5734 99.4504 61.0254 95.0854 60.8984 90.8084C60.7444 85.6624 60.8344 80.5274 60.8324 75.3784C60.8264 65.6464 58.7364 55.1614 60.2644 45.4994C61.2954 38.9744 70.4714 37.8214 71.0744 30.7694C71.8424 21.7694 70.9884 12.3354 70.5054 3.3284C70.4584 2.5004 69.9624 1.8954 69.8594 3.0744Z" fill="white"/>
<path d="M73.4447 2.47512C71.5647 3.56712 70.0017 6.06713 69.6327 8.17613C69.6227 8.23113 69.6507 8.70313 69.7677 8.53713C70.3417 7.72613 70.6817 6.75813 71.2167 5.91413C71.8667 4.88713 72.7147 4.06212 73.5277 3.17212C73.6297 3.06112 73.6207 2.37312 73.4447 2.47512Z" fill="white"/>
<path d="M74.0428 4.45488C72.2108 6.55688 70.5818 9.24188 69.8008 11.9299L69.8838 12.3049C70.5568 11.4199 70.9398 10.2869 71.4378 9.29288C72.1758 7.81588 73.0588 6.42788 74.1258 5.16588C74.2598 5.00588 74.1168 4.37088 74.0428 4.45488Z" fill="white"/>
<path d="M77.5448 2.41626C75.0608 6.39626 71.5448 10.1073 70.2548 14.7053C70.2338 14.7813 70.2828 15.3343 70.3828 15.1523C72.6898 11.0063 75.2808 7.08026 77.6678 2.97826C77.7438 2.84826 77.6558 2.23426 77.5448 2.41626Z" fill="white"/>
<path d="M78.9367 3.75418C76.1337 8.59018 71.3467 13.1372 70.2447 18.7602C70.2327 18.8192 70.2917 19.3072 70.3817 19.1312C71.6687 16.6452 72.7917 14.2072 74.3287 11.8482C75.9327 9.39118 77.6537 7.02018 79.0927 4.45918C79.1877 4.28918 79.0667 3.52918 78.9367 3.75418Z" fill="white"/>
<path d="M81.2868 4.46879C77.3868 9.84379 72.4998 15.6348 70.9058 22.2208C70.8748 22.3598 70.9798 23.0708 71.1358 22.6968C73.8198 16.3298 77.4678 10.7848 81.4368 5.14979C81.5448 4.99779 81.4418 4.25579 81.2868 4.46879Z" fill="white"/>
<path d="M82.4648 7.53879C80.3488 10.4118 78.5998 13.5018 76.7928 16.5718C75.1388 19.3838 72.3768 21.8468 71.4038 24.9818C71.3718 25.0868 71.4478 25.7788 71.5738 25.5458C73.1248 22.7018 75.3528 20.2628 76.9878 17.4418C78.8038 14.3108 80.5038 11.1368 82.6068 8.18379C82.7088 8.04079 82.6128 7.33779 82.4648 7.53879Z" fill="white"/>
<path d="M83.6772 10.3965C78.5402 16.9085 73.7002 24.2385 69.3152 31.2695C69.2482 31.3785 69.2912 32.0465 69.4312 31.9155C72.3042 29.2765 74.3492 25.6325 76.4392 22.3665C78.8782 18.5545 81.3062 14.7335 83.7652 10.9305C83.8372 10.8205 83.7352 10.3205 83.6772 10.3965Z" fill="white"/>
<path d="M84.5815 90.4879C79.9305 94.2129 75.8925 99.3589 72.3035 104.086C72.1615 104.274 72.2145 105.387 72.5195 105.156C74.5705 103.599 76.1265 101.254 77.7035 99.2419C79.8615 96.4839 82.0545 93.7499 84.7175 91.4609C84.9415 91.2659 84.7985 90.3139 84.5815 90.4879Z" fill="white"/>
<path d="M82.8567 96.527C81.7517 98.066 80.5357 99.513 79.2937 100.941C78.0337 102.39 76.4847 103.82 75.6007 105.529C75.5267 105.674 75.4837 106.763 75.8017 106.525C77.1257 105.533 78.1237 103.892 79.1977 102.63C80.5777 101.009 81.9367 99.376 83.1557 97.63C83.3537 97.346 83.1487 96.121 82.8567 96.527Z" fill="white"/>
<path d="M0.573095 65.5138C0.288095 71.8378 0.610097 78.1838 0.708097 84.5098C0.794097 90.2328 0.0420957 96.2798 1.0301 101.942C2.2721 109.063 13.3761 109.147 18.4141 106.772C18.7721 106.606 18.7411 105.534 18.3821 105.379C15.9521 104.342 13.2771 104.613 10.6891 104.477C8.82809 104.379 7.1251 104.268 5.3481 103.614C1.6381 102.243 2.12409 98.1758 2.33709 94.9808C2.98009 85.3928 2.1591 75.4338 1.6551 65.8458C1.5951 64.7108 0.644095 63.9338 0.573095 65.5138Z" fill="white"/>
<path d="M69.5075 31.9104C68.8875 39.6294 68.6145 48.0584 69.5195 55.7464C69.6395 56.7624 70.2615 56.6874 70.3745 55.7264C71.2825 48.0484 70.6565 39.5934 70.0345 31.8984C69.9765 31.1744 69.5645 31.2154 69.5075 31.9104Z" fill="white"/>
<path d="M70.0306 54.7337C68.4006 53.8957 66.4946 54.4587 64.7116 54.6497C62.7836 54.8567 60.6026 54.7437 58.8506 55.6227C58.8516 55.6277 58.8526 55.6327 58.8536 55.6377C58.8906 56.1557 58.8816 56.6727 58.8586 57.1887C60.4396 57.9347 62.1826 57.6817 63.9206 57.6507C65.8986 57.6097 68.3356 58.0627 70.0896 57.1077C70.5876 56.8357 70.5276 54.9897 70.0306 54.7337Z" fill="white"/>
<path d="M69.0629 55.4803C68.2479 62.2943 68.4759 69.9373 69.1189 76.7633C69.2599 78.2633 70.3279 78.1733 70.4569 76.7303C71.0679 69.9063 70.6659 62.2593 69.8239 55.4603C69.7029 54.4883 69.1729 54.5533 69.0629 55.4803Z" fill="white"/>
<path d="M60.1281 77.7577C61.0301 78.9007 62.7831 78.7457 64.1311 78.8927C65.8811 79.0817 67.5751 79.1487 69.3231 78.9257C70.2781 78.8047 69.9811 75.6557 69.0971 76.0137C67.5831 76.6267 65.6761 76.5337 64.0731 76.5937C62.7491 76.6427 61.0051 76.2947 60.1201 77.4547L60.1281 77.7577Z" fill="white"/>
<path d="M69.0938 76.2538C68.4918 80.6328 68.6878 85.0958 68.8258 89.4998C68.9588 93.7748 68.4938 98.7208 69.9898 102.781C70.1948 103.336 70.5598 102.929 70.6358 102.558C71.3918 98.8958 70.6018 94.9938 70.3788 91.2878C70.0888 86.4538 70.1738 81.6018 69.8488 76.7778C69.8148 76.2438 69.2538 75.0898 69.0938 76.2538Z" fill="white"/>
<path d="M83.3696 18.3794C78.4956 23.9684 73.3416 29.8534 69.2666 36.1274C69.2896 36.4704 69.3206 36.8114 69.3406 37.1524C74.4186 31.5334 78.5266 24.8224 83.4396 19.0504C83.5646 18.9044 83.4226 18.3184 83.3696 18.3794Z" fill="white"/>
<path d="M82.5795 24.658C78.2415 29.306 73.0115 33.795 69.4385 39.169C69.4565 39.574 69.4715 39.98 69.4855 40.385C71.2685 38.299 72.9345 36.091 74.7625 34.041C77.3665 31.125 80.0675 28.297 82.6535 25.367C82.7865 25.219 82.6465 24.586 82.5795 24.658Z" fill="white"/>
<path d="M81.5202 32.1843C77.8862 37.1703 72.5872 41.1753 69.4922 46.5413C69.4822 46.8953 69.4662 47.2493 69.4512 47.6033C73.5422 42.8643 77.9822 38.1433 81.6152 33.0643C81.7652 32.8543 81.5732 32.1073 81.5202 32.1843Z" fill="white"/>
<path d="M83.3538 35.8319C78.6218 40.7579 72.2658 45.9609 69.9378 52.5879C69.9048 52.6839 69.9438 53.332 70.0828 53.133C72.0718 50.289 73.8218 47.3869 76.0838 44.7229C78.4238 41.9649 80.9818 39.3989 83.4568 36.7659C83.6408 36.5699 83.4528 35.7289 83.3538 35.8319Z" fill="white"/>
<path d="M80.9893 43.6843C77.4643 48.6703 72.2403 52.9893 69.6993 58.5883C69.6563 58.6823 69.6993 59.2894 69.7933 59.1864C71.9243 56.8364 73.6433 54.0404 75.6783 51.5824C77.5643 49.3054 79.4443 47.0354 81.1333 44.6054C81.2773 44.3964 81.0553 43.5903 80.9893 43.6843Z" fill="white"/>
<path d="M83.0979 47.4366C78.1619 51.8116 72.6269 57.5596 69.6889 63.5266C69.6389 63.6286 69.6589 64.3506 69.7999 64.2236C72.2639 62.0246 74.0589 58.6376 76.1209 56.0376C78.3049 53.2856 80.6209 50.6526 83.1869 48.2526C83.3519 48.0996 83.2049 47.3436 83.0979 47.4366Z" fill="white"/>
<path d="M83.3595 52.4183C79.2615 57.6723 73.3555 62.0223 70.1995 67.9303C70.1235 68.0733 70.2095 68.8913 70.3335 68.7523C72.4105 66.4083 74.2355 63.8483 76.3345 61.5103C78.7655 58.8013 81.2475 56.1513 83.4515 53.2463C83.5975 53.0553 83.4225 52.3383 83.3595 52.4183Z" fill="white"/>
<path d="M82.8235 59.4261C80.9255 61.9011 78.8935 64.2541 76.7765 66.5431C74.3805 69.1351 71.5825 71.4811 69.4585 74.3011C69.3815 74.4031 69.3835 75.0351 69.5315 74.9321C72.0345 73.1981 74.1085 70.6061 76.1865 68.3891C78.5735 65.8481 80.8315 63.1941 82.9345 60.4141C83.1115 60.1801 82.9025 59.3261 82.8235 59.4261Z" fill="white"/>
<path d="M83.0809 64.3795C78.7349 69.1605 72.2009 73.7135 69.6879 79.8225C69.6519 79.9125 69.6719 80.6015 69.7969 80.4685C71.9509 78.2065 73.6159 75.4545 75.7739 73.1465C78.2139 70.5395 80.8129 68.0875 83.2019 65.4315C83.4089 65.2015 83.1939 64.2545 83.0809 64.3795Z" fill="white"/>
<path d="M83.0818 69.8906C78.7298 74.9686 72.7808 79.9626 69.9478 86.1096C69.9018 86.2116 69.9328 86.9186 70.0628 86.7816C72.2418 84.4926 73.9308 81.6586 75.9868 79.2286C78.3518 76.4336 80.8398 73.7426 83.2028 70.9436C83.4038 70.7046 83.1868 69.7696 83.0818 69.8906Z" fill="white"/>
<path d="M83.3414 75.3754C80.3524 78.6584 77.1034 81.7115 74.0234 84.9045C72.9764 85.9905 69.3484 88.6954 69.9434 90.6014C69.9864 90.7344 70.0644 90.7014 70.1094 90.5954C70.3124 90.1094 71.5004 89.0754 71.9394 88.5794C73.2204 87.1364 74.5624 85.7435 75.9004 84.3505C78.4164 81.7255 81.0434 79.1905 83.4684 76.4795C83.6854 76.2385 83.4634 75.2424 83.3414 75.3754Z" fill="white"/>
<path d="M83.0186 81.4003C81.0876 84.1463 78.4106 86.4964 76.0526 88.8634C74.3436 90.5784 72.2596 92.1793 70.9996 94.2613C70.9546 94.3373 70.9206 94.9723 71.0776 94.9093C73.2046 94.0673 75.0206 91.4213 76.5956 89.8193C78.8686 87.5073 81.4076 85.2023 83.2666 82.5263C83.4436 82.2713 83.2666 81.0473 83.0186 81.4003Z" fill="white"/>
<path d="M82.2799 86.5818C80.4109 88.8258 78.4579 90.9858 76.3899 93.0508C74.4829 94.9548 72.0979 96.5628 70.4689 98.6988C70.4029 98.7868 70.3929 99.4608 70.5529 99.3978C72.8259 98.4958 74.8189 96.0228 76.5429 94.3278C78.6269 92.2808 80.5639 90.0918 82.4279 87.8438C82.6729 87.5508 82.4069 86.4278 82.2799 86.5818Z" fill="white"/>
</svg>
