<svg width="20" height="21" viewBox="0 0 20 21" fill="none" xmlns="http://www.w3.org/2000/svg">
<g clip-path="url(#clip0_373_3862)">
<path d="M4.83871 9.48831H1.8761C1.74253 9.86287 1.38766 10.1335 0.967741 10.1335C0.434254 10.1335 -1.90735e-06 9.69922 -1.90735e-06 9.16573C-1.90735e-06 8.63225 0.434254 8.19799 0.967741 8.19799C1.38766 8.19799 1.74253 8.46859 1.8761 8.84315H4.83871V8.19799H3.87097C3.78512 8.19799 3.70322 8.16413 3.64289 8.10348L2.44707 6.90767H1.8761C1.74253 7.28223 1.38766 7.55283 0.967741 7.55283C0.434254 7.55283 -1.90735e-06 7.11857 -1.90735e-06 6.58509C-1.90735e-06 6.0516 0.434254 5.61735 0.967741 5.61735C1.38766 5.61735 1.74253 5.88795 1.8761 6.26251H2.58064C2.66649 6.26251 2.74839 6.29637 2.80872 6.35701L4.00454 7.55283H4.83871V7.23025C4.83871 7.14472 4.87257 7.0625 4.93322 7.00217L6.54612 5.38927C6.60644 5.32863 6.68835 5.29476 6.77419 5.29476H8.3871V4.87311L6.01547 3.98381C5.88993 3.93671 5.80645 3.81638 5.80645 3.68186V2.33216C5.43189 2.19859 5.16129 1.84372 5.16129 1.4238C5.16129 0.89031 5.59554 0.456055 6.12903 0.456055C6.66252 0.456055 7.09677 0.89031 7.09677 1.4238C7.09677 1.84372 6.82617 2.19859 6.45161 2.33216V3.45835L8.3871 4.18416V3.62248C8.01254 3.48891 7.74193 3.13404 7.74193 2.71412C7.74193 2.18063 8.17619 1.74638 8.70968 1.74638C9.24316 1.74638 9.67742 2.18063 9.67742 2.71412C9.67742 3.13404 9.40682 3.48891 9.03226 3.62248V5.29476H10.9677V2.33216C10.5932 2.19859 10.3226 1.84372 10.3226 1.4238C10.3226 0.89031 10.7568 0.456055 11.2903 0.456055C11.8238 0.456055 12.2581 0.89031 12.2581 1.4238C12.2581 1.84372 11.9875 2.19859 11.6129 2.33216V5.29476H12.2581V4.32702C12.2581 4.24149 12.2919 4.15927 12.3526 4.09895L13.5484 2.90313V2.33216C13.1738 2.19859 12.9032 1.84372 12.9032 1.4238C12.9032 0.89031 13.3375 0.456055 13.871 0.456055C14.4045 0.456055 14.8387 0.89031 14.8387 1.4238C14.8387 1.84372 14.5681 2.19859 14.1935 2.33216V3.0367C14.1935 3.12223 14.1597 3.20445 14.099 3.26477L12.9032 4.46059V5.29476H13.2258C13.3116 5.29476 13.3936 5.32863 13.4539 5.38927L15.0668 7.00217C15.1274 7.0625 15.1613 7.14472 15.1613 7.23025V8.84315H15.5829L16.4722 6.47184C16.5193 6.34599 16.6397 6.26251 16.7742 6.26251H18.1239C18.2575 5.88795 18.6123 5.61735 19.0323 5.61735C19.5657 5.61735 20 6.0516 20 6.58509C20 7.11857 19.5657 7.55283 19.0323 7.55283C18.6123 7.55283 18.2575 7.28223 18.1239 6.90767H16.9977L16.2719 8.84315H16.8336C16.9671 8.46859 17.322 8.19799 17.7419 8.19799C18.2754 8.19799 18.7097 8.63225 18.7097 9.16573C18.7097 9.69922 18.2754 10.1335 17.7419 10.1335C17.322 10.1335 16.9671 9.86287 16.8336 9.48831H15.1613V11.4238H18.1239C18.2575 11.0492 18.6123 10.7786 19.0323 10.7786C19.5657 10.7786 20 11.2129 20 11.7464C20 12.2799 19.5657 12.7141 19.0323 12.7141C18.6123 12.7141 18.2575 12.4435 18.1239 12.069H15.1613V12.7141H16.129C16.2149 12.7141 16.2968 12.748 16.3571 12.8086L17.5529 14.0044H18.1239C18.2575 13.6299 18.6123 13.3593 19.0323 13.3593C19.5657 13.3593 20 13.7935 20 14.327C20 14.8605 19.5657 15.2948 19.0323 15.2948C18.6123 15.2948 18.2575 15.0242 18.1239 14.6496H17.4194C17.3335 14.6496 17.2516 14.6157 17.1913 14.5551L15.9955 13.3593H15.1613V13.6819C15.1613 13.7677 15.1274 13.8496 15.0668 13.9099L13.4539 15.5228C13.3936 15.5835 13.3116 15.6173 13.2258 15.6173H11.6129V16.039L13.9845 16.9283C14.1101 16.9754 14.1935 17.0957 14.1935 17.2302V18.58C14.5681 18.7135 14.8387 19.0684 14.8387 19.4883C14.8387 20.0218 14.4045 20.4561 13.871 20.4561C13.3375 20.4561 12.9032 20.0218 12.9032 19.4883C12.9032 19.0684 13.1738 18.7135 13.5484 18.58V17.4538L11.6129 16.7279V17.2896C11.9875 17.4232 12.2581 17.7781 12.2581 18.198C12.2581 18.7315 11.8238 19.1657 11.2903 19.1657C10.7568 19.1657 10.3226 18.7315 10.3226 18.198C10.3226 17.7781 10.5932 17.4232 10.9677 17.2896V15.6173H9.03226V18.58C9.40682 18.7135 9.67742 19.0684 9.67742 19.4883C9.67742 20.0218 9.24316 20.4561 8.70968 20.4561C8.17619 20.4561 7.74193 20.0218 7.74193 19.4883C7.74193 19.0684 8.01254 18.7135 8.3871 18.58V15.6173H7.74193V16.5851C7.74193 16.6709 7.70807 16.7528 7.64743 16.8132L6.45161 18.009V18.58C6.82617 18.7135 7.09677 19.0684 7.09677 19.4883C7.09677 20.0218 6.66252 20.4561 6.12903 20.4561C5.59554 20.4561 5.16129 20.0218 5.16129 19.4883C5.16129 19.0684 5.43189 18.7135 5.80645 18.58V17.8754C5.80645 17.7896 5.84032 17.7077 5.90096 17.6473L7.09677 16.4515V15.6173H6.77419C6.68835 15.6173 6.60644 15.5835 6.54612 15.5228L4.93322 13.9099C4.87257 13.8496 4.83871 13.7677 4.83871 13.6819V12.069H4.41705L3.52775 14.4406C3.48066 14.5661 3.36032 14.6496 3.22581 14.6496H1.8761C1.74253 15.0242 1.38766 15.2948 0.967741 15.2948C0.434254 15.2948 -1.90735e-06 14.8605 -1.90735e-06 14.327C-1.90735e-06 13.7935 0.434254 13.3593 0.967741 13.3593C1.38766 13.3593 1.74253 13.6299 1.8761 14.0044H3.0023L3.72811 12.069H3.16642C3.03286 12.4435 2.67799 12.7141 2.25806 12.7141C1.72458 12.7141 1.29032 12.2799 1.29032 11.7464C1.29032 11.2129 1.72458 10.7786 2.25806 10.7786C2.67799 10.7786 3.03286 11.0492 3.16642 11.4238H4.83871V9.48831ZM0.967741 8.84315C0.789755 8.84315 0.645161 8.98806 0.645161 9.16573C0.645161 9.3434 0.789755 9.48831 0.967741 9.48831C1.14573 9.48831 1.29032 9.3434 1.29032 9.16573C1.29032 8.98806 1.14573 8.84315 0.967741 8.84315ZM0.967741 6.26251C0.789755 6.26251 0.645161 6.40742 0.645161 6.58509C0.645161 6.76276 0.789755 6.90767 0.967741 6.90767C1.14573 6.90767 1.29032 6.76276 1.29032 6.58509C1.29032 6.40742 1.14573 6.26251 0.967741 6.26251ZM6.12903 1.10122C5.95105 1.10122 5.80645 1.24613 5.80645 1.4238C5.80645 1.60147 5.95105 1.74638 6.12903 1.74638C6.30702 1.74638 6.45161 1.60147 6.45161 1.4238C6.45161 1.24613 6.30702 1.10122 6.12903 1.10122ZM8.70968 2.39154C8.53169 2.39154 8.3871 2.53645 8.3871 2.71412C8.3871 2.89179 8.53169 3.0367 8.70968 3.0367C8.88766 3.0367 9.03226 2.89179 9.03226 2.71412C9.03226 2.53645 8.88766 2.39154 8.70968 2.39154ZM11.2903 1.10122C11.1123 1.10122 10.9677 1.24613 10.9677 1.4238C10.9677 1.60147 11.1123 1.74638 11.2903 1.74638C11.4683 1.74638 11.6129 1.60147 11.6129 1.4238C11.6129 1.24613 11.4683 1.10122 11.2903 1.10122ZM13.871 1.10122C13.693 1.10122 13.5484 1.24613 13.5484 1.4238C13.5484 1.60147 13.693 1.74638 13.871 1.74638C14.049 1.74638 14.1935 1.60147 14.1935 1.4238C14.1935 1.24613 14.049 1.10122 13.871 1.10122ZM19.0323 6.90767C19.2102 6.90767 19.3548 6.76276 19.3548 6.58509C19.3548 6.40742 19.2102 6.26251 19.0323 6.26251C18.8543 6.26251 18.7097 6.40742 18.7097 6.58509C18.7097 6.76276 18.8543 6.90767 19.0323 6.90767ZM17.7419 9.48831C17.9199 9.48831 18.0645 9.3434 18.0645 9.16573C18.0645 8.98806 17.9199 8.84315 17.7419 8.84315C17.5639 8.84315 17.4194 8.98806 17.4194 9.16573C17.4194 9.3434 17.5639 9.48831 17.7419 9.48831ZM19.0323 12.069C19.2102 12.069 19.3548 11.9244 19.3548 11.7464C19.3548 11.5684 19.2102 11.4238 19.0323 11.4238C18.8543 11.4238 18.7097 11.5684 18.7097 11.7464C18.7097 11.9244 18.8543 12.069 19.0323 12.069ZM19.0323 14.6496C19.2102 14.6496 19.3548 14.505 19.3548 14.327C19.3548 14.149 19.2102 14.0044 19.0323 14.0044C18.8543 14.0044 18.7097 14.149 18.7097 14.327C18.7097 14.505 18.8543 14.6496 19.0323 14.6496ZM13.871 19.8109C14.049 19.8109 14.1935 19.6663 14.1935 19.4883C14.1935 19.3103 14.049 19.1657 13.871 19.1657C13.693 19.1657 13.5484 19.3103 13.5484 19.4883C13.5484 19.6663 13.693 19.8109 13.871 19.8109ZM11.2903 18.5206C11.4683 18.5206 11.6129 18.376 11.6129 18.198C11.6129 18.02 11.4683 17.8754 11.2903 17.8754C11.1123 17.8754 10.9677 18.02 10.9677 18.198C10.9677 18.376 11.1123 18.5206 11.2903 18.5206ZM8.70968 19.8109C8.88766 19.8109 9.03226 19.6663 9.03226 19.4883C9.03226 19.3103 8.88766 19.1657 8.70968 19.1657C8.53169 19.1657 8.3871 19.3103 8.3871 19.4883C8.3871 19.6663 8.53169 19.8109 8.70968 19.8109ZM6.12903 19.8109C6.30702 19.8109 6.45161 19.6663 6.45161 19.4883C6.45161 19.3103 6.30702 19.1657 6.12903 19.1657C5.95105 19.1657 5.80645 19.3103 5.80645 19.4883C5.80645 19.6663 5.95105 19.8109 6.12903 19.8109ZM0.967741 14.0044C0.789755 14.0044 0.645161 14.149 0.645161 14.327C0.645161 14.505 0.789755 14.6496 0.967741 14.6496C1.14573 14.6496 1.29032 14.505 1.29032 14.327C1.29032 14.149 1.14573 14.0044 0.967741 14.0044ZM2.25806 11.4238C2.08008 11.4238 1.93548 11.5684 1.93548 11.7464C1.93548 11.9244 2.08008 12.069 2.25806 12.069C2.43605 12.069 2.58064 11.9244 2.58064 11.7464C2.58064 11.5684 2.43605 11.4238 2.25806 11.4238ZM5.48387 13.5483L6.90776 14.9722H13.0922L14.5161 13.5483V7.36382L13.0922 5.93993H6.90776L5.48387 7.36382V13.5483Z" fill="white"/>
<path d="M7.41948 6.58496H12.5808C12.6666 6.58496 12.7485 6.61883 12.8088 6.67947L13.7766 7.64721C13.8372 7.70754 13.8711 7.78976 13.8711 7.87528V13.0366C13.8711 13.1224 13.8372 13.2043 13.7766 13.2646L12.8088 14.2324C12.7485 14.293 12.6666 14.3269 12.5808 14.3269H7.41948C7.33364 14.3269 7.25173 14.293 7.19141 14.2324L6.22366 13.2646C6.16302 13.2043 6.12916 13.1224 6.12916 13.0366V7.87528C6.12916 7.78976 6.16302 7.70754 6.22366 7.64721L7.19141 6.67947C7.25173 6.61883 7.33364 6.58496 7.41948 6.58496ZM6.77432 8.52044H8.57623L9.12689 7.96979C9.18722 7.90915 9.26912 7.87528 9.35496 7.87528H11.9356V8.52044H9.48853L8.93788 9.0711C8.87755 9.13174 8.79565 9.16561 8.7098 9.16561H6.77432V12.903L7.55305 13.6817H12.4472L13.2259 12.903V12.3914H11.424L10.8734 12.9421C10.813 13.0027 10.7311 13.0366 10.6453 13.0366H8.06464V12.3914H10.5117L11.0624 11.8408C11.1227 11.7801 11.2046 11.7463 11.2904 11.7463H13.2259V8.00885L12.4472 7.23012H7.55305L6.77432 8.00885V8.52044Z" fill="white"/>
</g>
<defs>
<clipPath id="clip0_373_3862">
<rect width="20" height="20" fill="white" transform="matrix(-1 0 0 1 20 0.456055)"/>
</clipPath>
</defs>
</svg>
