<svg width="34" height="34" viewBox="0 0 34 34" fill="none" xmlns="http://www.w3.org/2000/svg">
<g clip-path="url(#clip0_273_1438)">
<path d="M32.8033 19.6819C33.8176 11.1437 32.3159 5.75324 29.6073 3.31516L29.6087 3.31374C25.2369 -0.849843 10.4724 -1.46609 5.24202 3.50074C2.89319 5.93032 2.06586 9.49607 1.97519 13.9104C1.88452 18.3262 1.77686 26.5981 9.48494 28.8421H9.49202L9.48494 32.269C9.48494 32.269 9.43252 33.6573 10.3194 33.9364C11.3337 34.2651 11.7927 33.6205 14.9476 29.8522C20.2233 30.3097 24.2749 29.2614 24.7354 29.1084C25.8007 28.7514 31.8286 27.9538 32.8033 19.6819ZM15.4675 27.441C15.4675 27.441 12.1284 31.6046 11.09 32.6855C10.75 33.0368 10.3774 33.0042 10.3831 32.3072C10.3831 31.8497 10.4086 26.6179 10.4086 26.6179C3.87352 24.7451 4.25886 17.7014 4.32969 14.0167C4.40052 10.3305 5.07486 7.31157 7.06386 5.27866C11.6524 0.97624 24.5965 1.93816 27.8945 5.03782C31.9264 8.61207 30.4913 18.7101 30.4998 19.0543C29.671 25.9592 24.7864 26.3969 23.8882 26.6958C23.5043 26.8233 19.9414 27.7399 15.4675 27.441Z" fill="#8E24AA"/>
<path d="M17.3153 6.08789C16.7699 6.08789 16.7699 6.93789 17.3153 6.94497C21.5469 6.97756 25.0319 9.92706 25.0701 15.3373C25.0701 15.9082 25.906 15.9011 25.8989 15.3302C25.8536 9.50064 22.047 6.12047 17.3153 6.08789Z" fill="#8E24AA"/>
<path d="M22.8816 14.4401C22.8689 15.004 23.7033 15.0309 23.7104 14.46C23.7798 11.2456 21.7979 8.5978 18.0735 8.31872C17.5281 8.27905 17.4714 9.13613 18.0154 9.1758C21.2454 9.42088 22.9468 11.6252 22.8816 14.4401Z" fill="#8E24AA"/>
<path d="M21.9875 18.0965C21.2877 17.6913 20.5751 17.9435 20.2804 18.3416L19.6642 19.1392C19.3511 19.5443 18.766 19.4905 18.766 19.4905C14.4962 18.3614 13.3543 13.8932 13.3543 13.8932C13.3543 13.8932 13.3019 13.2883 13.6929 12.9639L14.4636 12.3264C14.8489 12.0204 15.0926 11.2837 14.7002 10.5598C13.6518 8.66573 12.9477 8.01265 12.5893 7.51115C12.2125 7.0394 11.6458 6.93315 11.0565 7.2519H11.0437C9.81832 7.96873 8.47674 9.31032 8.90599 10.6916C9.63841 12.1479 10.9842 16.7903 15.2739 20.298C17.2898 21.9569 20.4802 23.6569 21.8345 24.0493L21.8472 24.0692C23.1817 24.514 24.4794 23.12 25.1722 21.8577V21.8478C25.4796 21.2372 25.3776 20.6592 24.9285 20.281C24.1323 19.5047 22.931 18.6476 21.9875 18.0965Z" fill="#8E24AA"/>
<path d="M18.6569 11.481C20.0183 11.5604 20.6785 12.2715 20.7493 13.7321C20.7748 14.303 21.6036 14.2634 21.5781 13.6925C21.4874 11.7856 20.4929 10.7231 18.7022 10.624C18.1568 10.5914 18.1058 11.4485 18.6569 11.481Z" fill="#8E24AA"/>
</g>
<defs>
<clipPath id="clip0_273_1438">
<rect width="34" height="34" fill="white"/>
</clipPath>
</defs>
</svg>
