<svg width="20" height="21" viewBox="0 0 20 21" fill="none" xmlns="http://www.w3.org/2000/svg">
<g clip-path="url(#clip0_373_3760)">
<path d="M17.0695 3.38654C13.1623 -0.520598 6.83797 -0.520949 2.93049 3.38654C-0.976692 7.29372 -0.976965 13.6181 2.93049 17.5256C6.83766 21.4328 13.162 21.4331 17.0695 17.5256C20.9767 13.6184 20.977 7.29403 17.0695 3.38654ZM10 19.2041C5.17647 19.2041 1.25195 15.2796 1.25195 10.4561C1.25195 5.63252 5.17647 1.70801 10 1.70801C14.8235 1.70801 18.7481 5.63252 18.7481 10.4561C18.7481 15.2796 14.8235 19.2041 10 19.2041Z" fill="#00081E"/>
<path d="M3.94865 10.1433H6.04701C6.33675 10.1433 6.58849 9.94411 6.65512 9.66214C6.80938 9.00935 7.15043 8.41964 7.64138 7.95674C7.85215 7.75803 7.89871 7.44048 7.75382 7.1896L6.70475 5.37286C6.29605 4.66372 5.32846 4.53367 4.74261 5.10932C3.76806 6.06778 3.07451 7.27009 2.73689 8.58625C2.53463 9.37451 3.13227 10.1433 3.94865 10.1433ZM5.61894 6.00038C5.62546 5.99803 5.58239 5.92832 6.43805 7.4101C6.06204 7.8486 5.7718 8.35044 5.58016 8.89356H3.94865C3.94474 8.89032 4.2685 7.32852 5.61894 6.00038Z" fill="#00081E"/>
<path d="M11.7055 14.0351C11.5607 13.7843 11.2624 13.6659 10.9849 13.749C10.3552 13.9378 9.66214 13.9432 9.01467 13.749C8.73719 13.6659 8.43898 13.7842 8.29413 14.0351L7.24432 15.8527C6.83504 16.5615 7.20613 17.4651 7.99794 17.6837C9.30687 18.0459 10.7032 18.043 12.0016 17.6837C12.7937 17.465 13.1645 16.5615 12.7552 15.8526L11.7055 14.0351ZM11.6687 16.4791C10.5937 16.7767 9.42762 16.7826 8.33095 16.4791C8.32416 16.4769 8.26378 16.5864 9.14312 15.0639C9.70588 15.1682 10.2941 15.1682 10.8569 15.0639C11.7343 16.5807 11.676 16.4733 11.6687 16.4791Z" fill="#00081E"/>
<path d="M12.3583 7.9567C12.8493 8.41964 13.1904 9.00936 13.3446 9.6621C13.4113 9.94407 13.663 10.1432 13.9527 10.1432H16.0511C16.8678 10.1432 17.4651 9.3742 17.2629 8.58632C16.9252 7.27013 16.2317 6.06778 15.2569 5.10909C14.671 4.53332 13.7032 4.66446 13.2953 5.37235L12.2459 7.18953C12.101 7.44045 12.1476 7.75799 12.3583 7.9567ZM14.3767 5.99885C14.4199 6.01424 15.6002 7.13919 16.0514 8.89348C15.9109 8.89348 14.6117 8.89352 14.4196 8.89352C14.2279 8.3504 13.9377 7.84856 13.5617 7.41006L14.3767 5.99885Z" fill="#00081E"/>
<path d="M16.0511 10.7686H13.9527C13.663 10.7686 13.4113 10.9677 13.3446 11.2497C13.1904 11.9024 12.8493 12.4922 12.3583 12.9551C12.1476 13.1538 12.101 13.4714 12.2459 13.7222L13.295 15.5389C13.7032 16.2473 14.6707 16.3787 15.2571 15.8025C16.2317 14.844 16.9253 13.6416 17.2629 12.3256C17.4651 11.5374 16.8676 10.7686 16.0511 10.7686ZM14.3808 14.9115C14.3743 14.9138 14.4165 14.9821 13.5617 13.5018C13.9376 13.0634 14.2278 12.5617 14.4195 12.0187L16.0511 12.02C15.7694 13.1139 15.192 14.1137 14.3808 14.9115Z" fill="#00081E"/>
<path d="M7.6408 12.9551C7.14982 12.4922 6.80876 11.9025 6.65454 11.2497C6.58787 10.9677 6.33617 10.7686 6.04643 10.7686H3.94807C3.55843 10.7686 3.19792 10.9452 2.95899 11.2532C2.536 11.7985 2.7531 12.4096 2.73627 12.3255C3.07393 13.6417 3.76748 14.8441 4.74223 15.8027C5.32764 16.378 6.29551 16.248 6.70386 15.5394L7.75324 13.7222C7.89813 13.4714 7.85157 13.1538 7.6408 12.9551ZM5.62246 14.913C5.57673 14.8967 4.39769 13.7685 3.94768 12.0184C3.95158 12.0172 4.13229 12.0183 5.57958 12.0183C5.77122 12.5614 6.0615 13.0633 6.43747 13.5018L5.62246 14.913Z" fill="#00081E"/>
<path d="M8.29409 6.87714C8.43891 7.12791 8.7372 7.2464 9.01464 7.16317C9.64438 6.97439 10.3374 6.96904 10.9849 7.16317C11.2635 7.24667 11.5612 7.12689 11.7054 6.87714L12.7553 5.0595C13.1653 4.34939 12.7919 3.44678 12.002 3.22866C10.6982 2.86788 9.30184 2.86773 7.99795 3.22858C7.2059 3.44728 6.83512 4.35091 7.24433 5.05958C7.24823 5.06341 7.18575 4.95812 8.29409 6.87714ZM8.33092 4.43308C9.40596 4.13557 10.572 4.12959 11.6687 4.43308C11.6755 4.43534 11.7359 4.32564 10.8565 5.84827C10.3067 5.74642 9.72206 5.74103 9.14308 5.84827C8.26258 4.32381 8.32553 4.4373 8.33092 4.43308Z" fill="#00081E"/>
<path d="M8.97867 9.20678C9.15122 8.90792 9.04883 8.52577 8.74997 8.35322C8.45112 8.18067 8.06897 8.28306 7.89641 8.58192C7.72386 8.88077 7.82626 9.26293 8.12511 9.43548C8.42397 9.60803 8.80612 9.50564 8.97867 9.20678Z" fill="#00081E"/>
<path d="M12.1037 12.3308C12.2762 12.0319 12.1738 11.6498 11.875 11.4772C11.5761 11.3047 11.194 11.4071 11.0214 11.7059C10.8489 12.0048 10.9513 12.387 11.2501 12.5595C11.549 12.7321 11.9311 12.6297 12.1037 12.3308Z" fill="#00081E"/>
<path d="M11.875 9.43487C12.1738 9.26232 12.2762 8.88017 12.1037 8.58131C11.9311 8.28245 11.549 8.18006 11.2501 8.35261C10.9513 8.52516 10.8489 8.90731 11.0214 9.20617C11.194 9.50503 11.5761 9.60742 11.875 9.43487Z" fill="#00081E"/>
<path d="M8.74997 12.5589C9.04883 12.3863 9.15122 12.0042 8.97867 11.7053C8.80612 11.4065 8.42397 11.3041 8.12511 11.4766C7.82626 11.6492 7.72386 12.0313 7.89641 12.3302C8.06897 12.629 8.45112 12.7314 8.74997 12.5589Z" fill="#00081E"/>
<path d="M10.9371 10.4558C10.9371 10.9725 10.5165 11.3931 9.99979 11.3931C9.48311 11.3931 9.0625 10.9725 9.0625 10.4558C9.0625 9.93916 9.48311 9.51855 9.99979 9.51855C10.5165 9.51855 10.9371 9.93916 10.9371 10.4558Z" fill="#00081E"/>
</g>
<defs>
<clipPath id="clip0_373_3760">
<rect width="20" height="20" fill="#00081E" transform="translate(0 0.456055)"/>
</clipPath>
</defs>
</svg>
