<svg width="22" height="23" viewBox="0 0 22 23" fill="none" xmlns="http://www.w3.org/2000/svg">
<path d="M11.6616 14.5251C11.6616 14.8953 11.3618 15.1957 10.991 15.1957C10.6201 15.1957 10.3203 14.8953 10.3203 14.5251C10.3203 14.155 10.6201 13.8545 10.991 13.8545C11.3618 13.8545 11.6616 14.155 11.6616 14.5251Z" fill="#00081E"/>
<path fill-rule="evenodd" clip-rule="evenodd" d="M8.95104 17.1264V18.7528H7.4882C7.08693 18.7528 6.76114 19.0786 6.76114 19.4799C6.76114 19.8811 7.08693 20.2069 7.4882 20.2069H14.4958C14.8971 20.2069 15.2229 19.8811 15.2229 19.4799C15.2229 19.0786 14.8971 18.7528 14.4958 18.7528H13.033V17.1264H19.7516C20.879 17.1264 21.7926 16.2128 21.7926 15.0854V4.72945C21.7926 3.60206 20.879 2.68848 19.7516 2.68848H2.23249C1.10513 2.68848 0.191406 3.60209 0.191406 4.72945V15.0854C0.191406 16.2128 1.10513 17.1264 2.23249 17.1264H8.95104ZM11.5789 17.141V18.7527H10.4051V17.141H11.5789ZM20.3385 13.2684V15.0854C20.3385 15.4096 20.0758 15.6723 19.7516 15.6723H2.23249C1.9083 15.6723 1.6455 15.4096 1.6455 15.0854V13.2684H20.3385ZM20.3385 11.8143H1.6455V4.72945C1.6455 4.40526 1.9083 4.14257 2.23249 4.14257H19.7516C20.0758 4.14257 20.3385 4.40526 20.3385 4.72945V11.8143Z" fill="#00081E"/>
</svg>
