<svg width="19" height="20" viewBox="0 0 19 20" fill="none" xmlns="http://www.w3.org/2000/svg">
<path d="M17.3301 1.0498H1.66992C0.749146 1.0498 0 1.79895 0 2.71973V13.8525C0 14.7733 0.749146 15.5225 1.66992 15.5225H6.5011L5.75891 17.749H3.93359C3.62614 17.749 3.37695 17.9982 3.37695 18.3057C3.37695 18.6131 3.62614 18.8623 3.93359 18.8623H15.0664C15.3739 18.8623 15.623 18.6131 15.623 18.3057C15.623 17.9982 15.3739 17.749 15.0664 17.749H13.2411L12.4989 15.5225H17.3301C18.2509 15.5225 19 14.7733 19 13.8525V2.71973C19 1.79895 18.2509 1.0498 17.3301 1.0498ZM6.9325 17.749L7.67468 15.5225H11.3253L12.0675 17.749H6.9325ZM17.8867 13.8525C17.8867 14.1594 17.637 14.4092 17.3301 14.4092C15.7128 14.4092 3.30404 14.4092 1.66992 14.4092C1.36304 14.4092 1.11328 14.1594 1.11328 13.8525V13.2959H17.8867V13.8525ZM6.07028 8.98338L5.56394 8.47719L6.35107 7.68992L6.85741 8.19626C7.03687 8.37572 7.31504 8.41109 7.53378 8.28207C7.8466 8.09769 8.18059 7.95867 8.52631 7.86909C8.77187 7.8056 8.94336 7.58395 8.94336 7.33028V6.61621H10.0566V7.33028C10.0566 7.58395 10.2281 7.8056 10.4737 7.86909C10.8193 7.95867 11.1533 8.09769 11.4661 8.28222C11.6848 8.41109 11.963 8.37572 12.1424 8.19626L12.6488 7.68992L13.4361 8.47719L12.9297 8.98353C12.7503 9.16299 12.7149 9.44116 12.8439 9.65976C13.0284 9.97272 13.1673 10.3067 13.2569 10.6523C13.3204 10.8979 13.542 11.0693 13.7957 11.0693H14.5098V12.1826H12.227C12.2641 12.0003 12.2832 11.8137 12.2832 11.626C12.2832 10.0913 11.0347 8.84277 9.5 8.84277C7.96532 8.84277 6.7168 10.0913 6.7168 11.626C6.7168 11.8137 6.73593 12.0003 6.77304 12.1826H4.49023V11.0693H5.2043C5.45798 11.0693 5.67962 10.8979 5.74326 10.6523C5.8327 10.3067 5.97171 9.97272 6.1561 9.65976C6.28497 9.44116 6.24974 9.16299 6.07028 8.98338ZM11.1699 11.626C11.1699 11.8166 11.1369 12.0049 11.0742 12.1826H7.92575C7.86313 12.0049 7.83008 11.8166 7.83008 11.626C7.83008 10.7052 8.57922 9.95605 9.5 9.95605C10.4208 9.95605 11.1699 10.7052 11.1699 11.626ZM17.8867 12.1826H15.623V10.5127C15.623 10.2052 15.3739 9.95605 15.0664 9.95605H14.2065C14.1488 9.79428 14.0826 9.63526 14.0081 9.47943L14.6169 8.87075C14.8342 8.65331 14.8342 8.30092 14.6167 8.08348L13.0424 6.50909C12.938 6.40472 12.7964 6.34615 12.6488 6.34615C12.5012 6.34615 12.3596 6.40472 12.2552 6.50909L11.6465 7.11791C11.4907 7.0434 11.3317 6.97716 11.1699 6.91961V6.05957C11.1699 5.75211 10.9207 5.50293 10.6133 5.50293H8.38672C8.07926 5.50293 7.83008 5.75211 7.83008 6.05957V6.91961C7.6683 6.97716 7.50928 7.0434 7.35345 7.11791L6.74477 6.50909C6.6404 6.40472 6.49878 6.34615 6.35121 6.34615C6.2035 6.34615 6.06202 6.40472 5.9575 6.50909L4.38326 8.08348C4.16582 8.30092 4.16582 8.65331 4.38326 8.87075L4.99194 9.47958C4.91743 9.63526 4.85133 9.79428 4.79363 9.95605H3.93359C3.62614 9.95605 3.37695 10.2054 3.37695 10.5127V12.1826H1.11328V2.71973C1.11328 2.41285 1.36304 2.16309 1.66992 2.16309H17.3301C17.637 2.16309 17.8867 2.41285 17.8867 2.71973V12.1826Z" fill="#00081E"/>
<path d="M15.0664 3.27637C14.1456 3.27637 13.3965 4.02551 13.3965 4.94629C13.3965 5.86707 14.1456 6.61621 15.0664 6.61621C15.9872 6.61621 16.7363 5.86707 16.7363 4.94629C16.7363 4.02551 15.9872 3.27637 15.0664 3.27637ZM15.0664 5.50293C14.7595 5.50293 14.5098 5.25317 14.5098 4.94629C14.5098 4.63941 14.7595 4.38965 15.0664 4.38965C15.3733 4.38965 15.623 4.63941 15.623 4.94629C15.623 5.25317 15.3733 5.50293 15.0664 5.50293Z" fill="#00081E"/>
</svg>
