<svg width="19" height="20" viewBox="0 0 19 20" fill="none" xmlns="http://www.w3.org/2000/svg">
<g clip-path="url(#clip0_373_3926)">
<path d="M18.4062 8.1748H18.3303L16.6125 2.44894C16.5748 2.32341 16.459 2.2373 16.3281 2.2373H2.67188C2.54098 2.2373 2.42516 2.32341 2.38747 2.44894L0.669708 8.1748H0.59375C0.266289 8.1748 0 8.44109 0 8.76855V17.0811C0 17.4085 0.266289 17.6748 0.59375 17.6748H18.4062C18.7337 17.6748 19 17.4085 19 17.0811V8.76855C19 8.44109 18.7337 8.1748 18.4062 8.1748ZM2.89279 2.83105H16.1072L17.7103 8.1748H1.2897L2.89279 2.83105ZM0.59375 17.0811V8.76855H18.4062L18.4065 17.0811H0.59375Z" fill="white"/>
<path d="M6.44427 9.44928C6.38876 9.39347 6.31338 9.3623 6.23438 9.3623H3.26562C3.18662 9.3623 3.11124 9.39347 3.05573 9.44928L1.27448 11.2305C1.21867 11.286 1.1875 11.3617 1.1875 11.4404V14.4092C1.1875 14.4879 1.21867 14.5636 1.27448 14.6191L3.05573 16.4003C3.11124 16.4561 3.18662 16.4873 3.26562 16.4873H6.23438C6.31338 16.4873 6.38876 16.4561 6.44427 16.4003L8.22552 14.6191C8.28133 14.5636 8.3125 14.4879 8.3125 14.4092V11.4404C8.3125 11.3617 8.28133 11.286 8.22552 11.2305L6.44427 9.44928ZM7.71875 11.5634V12.6279H7.125V11.9801C7.125 11.9015 7.09383 11.8257 7.03802 11.7702L5.90459 10.6368C5.84879 10.581 5.77326 10.5498 5.69469 10.5498H5.04688V9.95605H6.11145L7.71875 11.5634ZM2.96875 13.2217H3.60468C3.71268 13.637 4.03782 13.9621 4.45312 14.0701V14.7061H3.92823L2.96875 13.7466V13.2217ZM4.75 13.5186C4.42254 13.5186 4.15625 13.2523 4.15625 12.9248C4.15625 12.5973 4.42254 12.3311 4.75 12.3311C5.07746 12.3311 5.34375 12.5973 5.34375 12.9248C5.34375 13.2523 5.07746 13.5186 4.75 13.5186ZM4.45312 11.7795C4.03782 11.8875 3.71268 12.2126 3.60468 12.6279H2.96875V12.103L3.92823 11.1436H4.45312V11.7795ZM5.04688 14.0701C5.46218 13.9621 5.78732 13.637 5.89532 13.2217H6.53125V13.7466L5.57177 14.7061H5.04688V14.0701ZM5.89532 12.6279C5.78732 12.2126 5.46218 11.8875 5.04688 11.7795V11.1436H5.57177L6.53125 12.103V12.6279H5.89532ZM3.38855 9.95605H4.45312V10.5498H3.80531C3.7263 10.5498 3.65092 10.581 3.59541 10.6368L2.46198 11.7702C2.40617 11.826 2.375 11.9015 2.375 11.9801V12.6279H1.78125V11.5634L3.38855 9.95605ZM1.78125 14.2863V13.2217H2.375V13.8695C2.375 13.9481 2.40617 14.0239 2.46198 14.0794L3.59541 15.2128C3.65121 15.2686 3.72674 15.2998 3.80531 15.2998H4.45312V15.8936H3.38855L1.78125 14.2863ZM6.11145 15.8936H5.04688V15.2998H5.69469C5.7737 15.2998 5.84908 15.2686 5.90459 15.2128L7.03802 14.0794C7.09383 14.0236 7.125 13.9481 7.125 13.8695V13.2217H7.71875V14.2863L6.11145 15.8936Z" fill="white"/>
<path d="M1.1875 9.3623H1.78125V9.95605H1.1875V9.3623Z" fill="white"/>
<path d="M1.1875 15.8936H1.78125V16.4873H1.1875V15.8936Z" fill="white"/>
<path d="M13.0126 13.6506C12.9574 13.5681 12.8648 13.5186 12.7656 13.5186H9.79688C9.69772 13.5186 9.60509 13.5681 9.54987 13.6506L8.95612 14.5412C8.92379 14.5899 8.90625 14.6476 8.90625 14.7061V16.1904C8.90625 16.3542 9.03889 16.4873 9.20312 16.4873H13.3594C13.5236 16.4873 13.6562 16.3542 13.6562 16.1904V14.7061C13.6562 14.6476 13.6387 14.5899 13.6064 14.5412L13.0126 13.6506ZM13.0625 15.8936H9.5V14.7961L9.95575 14.1123H12.6068L13.0625 14.7961V15.8936Z" fill="white"/>
<path d="M10.0938 14.7061H10.9844V15.2998H10.0938V14.7061Z" fill="white"/>
<path d="M11.5781 14.7061H12.4688V15.2998H11.5781V14.7061Z" fill="white"/>
<path d="M16.0312 9.3623H9.5C9.17254 9.3623 8.90625 9.62859 8.90625 9.95605V12.3311C8.90625 12.6585 9.17254 12.9248 9.5 12.9248H16.0312C16.3587 12.9248 16.625 12.6585 16.625 12.3311V9.95605C16.625 9.62859 16.3587 9.3623 16.0312 9.3623ZM9.5 9.95605H10.0938V12.3311H9.5V9.95605ZM10.6875 9.95605H11.2812V12.3311H10.6875V9.95605ZM11.875 9.95605H12.4688V12.3311H11.875V9.95605ZM13.0625 9.95605H13.6562V12.3311H13.0625V9.95605ZM14.25 9.95605H14.8438V12.3311H14.25V9.95605ZM15.4375 12.3311V9.95605H16.0312L16.0315 12.3311H15.4375Z" fill="white"/>
<path d="M17.2188 9.3623H17.8125V9.95605H17.2188V9.3623Z" fill="white"/>
<path d="M17.2188 15.8936H17.8125V16.4873H17.2188V15.8936Z" fill="white"/>
<path d="M16.2411 14.1993C16.1856 14.1435 16.1103 14.1123 16.0312 14.1123H14.8438C14.7647 14.1123 14.6894 14.1435 14.6339 14.1993L14.337 14.4962C14.2812 14.552 14.25 14.6273 14.25 14.7061V15.5967C14.25 15.7605 14.3826 15.8936 14.5469 15.8936H16.3281C16.4924 15.8936 16.625 15.7605 16.625 15.5967V14.7061C16.625 14.6273 16.5938 14.5517 16.538 14.4962L16.2411 14.1993ZM16.0312 15.2998H14.8438V14.8293L14.9667 14.7061H15.9083L16.0312 14.8293V15.2998Z" fill="white"/>
<path d="M3.26562 3.4248H3.85938V4.01855H3.26562V3.4248Z" fill="white"/>
<path d="M15.1406 3.4248H15.7344V4.01855H15.1406V3.4248Z" fill="white"/>
<path d="M13.6563 4.31543H5.64063C5.51264 4.31543 5.39957 4.39704 5.35913 4.51852L4.76538 6.29977C4.73493 6.39022 4.7503 6.48981 4.80611 6.56721C4.86192 6.64477 4.95165 6.69043 5.04688 6.69043H11.875V6.09668H5.459L5.85474 4.90918H13.405L13.6028 6.09668H12.4688V6.69043H13.9531C14.0404 6.69043 14.1233 6.65216 14.1797 6.58533C14.2361 6.51851 14.2604 6.43066 14.2461 6.34456L13.9492 4.56331C13.9252 4.42052 13.8014 4.31543 13.6563 4.31543Z" fill="white"/>
</g>
<defs>
<clipPath id="clip0_373_3926">
<rect width="19" height="19" fill="white" transform="translate(0 0.456055)"/>
</clipPath>
</defs>
</svg>
