<svg width="42" height="42" viewBox="0 0 42 42" fill="none" xmlns="http://www.w3.org/2000/svg">
<rect width="42" height="42" fill="#6A41AD"/>
<g clip-path="url(#clip0_601_4)">
<path d="M33.0839 23.0504C33.8596 16.5212 32.7113 12.3991 30.6399 10.5347L30.641 10.5336C27.2979 7.34966 16.0074 6.87841 12.0077 10.6766C10.2115 12.5345 9.57885 15.2612 9.50952 18.6369C9.44019 22.0137 9.35785 28.3392 15.2523 30.0552H15.2577L15.2523 32.6758C15.2523 32.6758 15.2122 33.7375 15.8904 33.9509C16.666 34.2022 17.017 33.7093 19.4296 30.8277C23.4639 31.1776 26.5623 30.3759 26.9144 30.2589C27.729 29.9859 32.3386 29.376 33.0839 23.0504ZM19.8272 28.9838C19.8272 28.9838 17.2738 32.1677 16.4797 32.9943C16.2197 33.263 15.9348 33.2381 15.9391 32.7051C15.9391 32.3552 15.9586 28.3544 15.9586 28.3544C10.9612 26.9222 11.2559 21.5359 11.31 18.7182C11.3642 15.8993 11.8799 13.5907 13.4009 12.0362C16.9098 8.74608 26.8082 9.48166 29.3302 11.852C32.4134 14.5852 31.3159 22.3072 31.3224 22.5705C30.6887 27.8507 26.9534 28.1854 26.2665 28.414C25.9729 28.5115 23.2484 29.2124 19.8272 28.9838Z" fill="white"/>
<path d="M21.2405 12.6553C20.8235 12.6553 20.8235 13.3053 21.2405 13.3107C24.4765 13.3356 27.1415 15.5911 27.1707 19.7284C27.1707 20.1649 27.8099 20.1595 27.8045 19.7229C27.7698 15.265 24.8589 12.6802 21.2405 12.6553Z" fill="white"/>
<path d="M25.4967 19.0425C25.4869 19.4736 26.125 19.4942 26.1304 19.0576C26.1835 16.5995 24.6679 14.5748 21.8199 14.3614C21.4028 14.331 21.3594 14.9865 21.7754 15.0168C24.2454 15.2042 25.5465 16.8899 25.4967 19.0425Z" fill="white"/>
<path d="M24.8141 21.8388C24.2789 21.5289 23.734 21.7218 23.5087 22.0262L23.0374 22.6361C22.798 22.9459 22.3506 22.9048 22.3506 22.9048C19.0854 22.0414 18.2122 18.6245 18.2122 18.6245C18.2122 18.6245 18.1722 18.1619 18.4712 17.9139L19.0605 17.4264C19.3552 17.1924 19.5415 16.629 19.2414 16.0754C18.4397 14.627 17.9013 14.1276 17.6272 13.7441C17.3391 13.3834 16.9057 13.3021 16.4551 13.5459H16.4453C15.5082 14.094 14.4823 15.1199 14.8106 16.1762C15.3707 17.2899 16.3998 20.8399 19.6802 23.5223C21.2217 24.7909 23.6614 26.0909 24.6971 26.3909L24.7068 26.4061C25.7273 26.7463 26.7197 25.6803 27.2494 24.715V24.7074C27.4845 24.2405 27.4065 23.7985 27.0631 23.5093C26.4542 22.9156 25.5356 22.2602 24.8141 21.8388Z" fill="white"/>
<path d="M22.2665 16.7792C23.3075 16.8398 23.8124 17.3837 23.8665 18.5006C23.886 18.9372 24.5198 18.9068 24.5003 18.4702C24.431 17.0121 23.6705 16.1996 22.3011 16.1237C21.884 16.0988 21.845 16.7542 22.2665 16.7792Z" fill="white"/>
</g>
<defs>
<clipPath id="clip0_601_4">
<rect width="26" height="26" fill="white" transform="translate(8 8)"/>
</clipPath>
</defs>
</svg>
