<svg width="22" height="23" viewBox="0 0 22 23" fill="none" xmlns="http://www.w3.org/2000/svg">
<path d="M21.6333 9.07305C21.8358 9.07305 22 8.90887 22 8.70638V7.23971C22 7.03722 21.8358 6.87305 21.6333 6.87305H0.366667C0.164175 6.87305 0 7.03722 0 7.23971V8.70638C0 8.90887 0.164175 9.07305 0.366667 9.07305C0.569158 9.07305 0.733333 9.23722 0.733333 9.43971C0.733333 9.64221 0.569158 9.80638 0.366667 9.80638C0.164175 9.80638 0 9.97056 0 10.173V14.573C0 14.7755 0.164175 14.9397 0.366667 14.9397H0.733333V15.673C0.733333 15.8755 0.897508 16.0397 1.1 16.0397H7.7C7.90249 16.0397 8.06667 15.8755 8.06667 15.673V14.9397H8.8V15.673C8.8 15.8755 8.96418 16.0397 9.16667 16.0397H20.9C21.1025 16.0397 21.2667 15.8755 21.2667 15.673V14.9397H21.6333C21.8358 14.9397 22 14.7755 22 14.573V10.173C22 9.97056 21.8358 9.80638 21.6333 9.80638C21.4308 9.80638 21.2667 9.64221 21.2667 9.43971C21.2667 9.23722 21.4308 9.07305 21.6333 9.07305ZM7.33333 15.3064H1.46667V14.9397H7.33333V15.3064ZM20.5333 15.3064H9.53333V14.9397H20.5333V15.3064ZM21.2667 8.40241C20.6938 8.60458 20.3933 9.23291 20.5954 9.80578C20.7062 10.1195 20.9529 10.3663 21.2667 10.477V14.2064H0.733333V10.477C0.7458 10.4726 0.7568 10.466 0.77 10.4612C0.790533 10.4532 0.809967 10.444 0.829767 10.4345C0.870375 10.4155 0.909792 10.3941 0.947833 10.3703C0.9658 10.3593 0.9845 10.3483 1.001 10.3362C1.04431 10.3055 1.08533 10.2716 1.12383 10.235C1.1319 10.2273 1.14107 10.2207 1.14877 10.213C1.19355 10.1677 1.23438 10.1186 1.27087 10.0663C1.28077 10.0517 1.2892 10.0355 1.29873 10.0205C1.3239 9.98059 1.3464 9.93907 1.3662 9.89621C1.37537 9.87605 1.38343 9.85588 1.3915 9.83498C1.40814 9.79194 1.42189 9.74785 1.43257 9.70298C1.4377 9.68281 1.44357 9.66338 1.44723 9.64285C1.4745 9.50979 1.4745 9.37257 1.44723 9.23951C1.44357 9.21898 1.4377 9.19955 1.43257 9.17938C1.42189 9.13451 1.40814 9.09042 1.3915 9.04738C1.38343 9.02648 1.37537 9.00595 1.3662 8.98578C1.34631 8.94311 1.3238 8.90172 1.29873 8.86185C1.2892 8.84681 1.28077 8.83068 1.27087 8.81601C1.23438 8.76376 1.19355 8.71468 1.14877 8.66935C1.14107 8.66165 1.1319 8.65505 1.12383 8.64735C1.08533 8.61073 1.04431 8.5769 1.001 8.54615C0.983767 8.53368 0.964333 8.52305 0.947833 8.51205C0.909792 8.4883 0.870375 8.46686 0.829767 8.44788C0.809967 8.43871 0.790533 8.42918 0.77 8.42111C0.7579 8.41635 0.7469 8.40975 0.733333 8.40535V7.60638H21.2667V8.40241Z" fill="white"/>
<path d="M12.0999 8.33984H9.89987C9.69738 8.33984 9.5332 8.50402 9.5332 8.70651V12.3732C9.5332 12.5757 9.69738 12.7398 9.89987 12.7398H12.0999C12.3024 12.7398 12.4665 12.5757 12.4665 12.3732V8.70651C12.4665 8.50402 12.3024 8.33984 12.0999 8.33984ZM11.7332 12.0065H10.2665V9.07318H11.7332V12.0065Z" fill="white"/>
<path d="M15.7659 8.33984H13.5659C13.3634 8.33984 13.1992 8.50402 13.1992 8.70651V12.3732C13.1992 12.5757 13.3634 12.7398 13.5659 12.7398H15.7659C15.9684 12.7398 16.1326 12.5757 16.1326 12.3732V8.70651C16.1326 8.50402 15.9684 8.33984 15.7659 8.33984ZM15.3992 12.0065H13.9326V9.07318H15.3992V12.0065Z" fill="white"/>
<path d="M4.76589 8.33984H2.56589C2.36339 8.33984 2.19922 8.50402 2.19922 8.70651V12.3732C2.19922 12.5757 2.36339 12.7398 2.56589 12.7398H4.76589C4.96838 12.7398 5.13255 12.5757 5.13255 12.3732V8.70651C5.13255 8.50402 4.96838 8.33984 4.76589 8.33984ZM4.39922 12.0065H2.93255V9.07318H4.39922V12.0065Z" fill="white"/>
<path d="M8.43385 8.33984H6.23385C6.03136 8.33984 5.86719 8.50402 5.86719 8.70651V12.3732C5.86719 12.5757 6.03136 12.7398 6.23385 12.7398H8.43385C8.63635 12.7398 8.80052 12.5757 8.80052 12.3732V8.70651C8.80052 8.50402 8.63635 8.33984 8.43385 8.33984ZM8.06719 12.0065H6.60052V9.07318H8.06719V12.0065Z" fill="white"/>
<path d="M19.4339 8.33984H17.2339C17.0314 8.33984 16.8672 8.50402 16.8672 8.70651V12.3732C16.8672 12.5757 17.0314 12.7398 17.2339 12.7398H19.4339C19.6363 12.7398 19.8005 12.5757 19.8005 12.3732V8.70651C19.8005 8.50402 19.6363 8.33984 19.4339 8.33984ZM19.0672 12.0065H17.6005V9.07318H19.0672V12.0065Z" fill="white"/>
</svg>
