<svg width="20" height="21" viewBox="0 0 20 21" fill="none" xmlns="http://www.w3.org/2000/svg">
<path d="M16.25 1.28906H3.75C3.41859 1.28942 3.10086 1.42124 2.86652 1.65558C2.63217 1.88992 2.50036 2.20765 2.5 2.53906V18.3724C2.50036 18.7038 2.63217 19.0216 2.86652 19.2559C3.10086 19.4902 3.41859 19.6221 3.75 19.6224H16.25C16.5814 19.6221 16.8991 19.4902 17.1335 19.2559C17.3678 19.0216 17.4996 18.7038 17.5 18.3724V2.53906C17.4996 2.20765 17.3678 1.88992 17.1335 1.65558C16.8991 1.42124 16.5814 1.28942 16.25 1.28906ZM16.6667 18.3724C16.6665 18.4829 16.6226 18.5888 16.5445 18.6669C16.4664 18.745 16.3605 18.7889 16.25 18.7891H3.75C3.63954 18.7889 3.53365 18.745 3.45554 18.6669C3.37743 18.5888 3.33348 18.4829 3.33332 18.3724V2.53906C3.33345 2.4286 3.3774 2.3227 3.45551 2.24459C3.53363 2.16648 3.63953 2.12255 3.75 2.12242H16.25C16.3605 2.12255 16.4664 2.16648 16.5445 2.24459C16.6226 2.3227 16.6665 2.4286 16.6667 2.53906V18.3724Z" fill="white"/>
<path d="M4.5827 3.78941C4.81282 3.78941 4.99937 3.60286 4.99937 3.37273C4.99937 3.14261 4.81282 2.95605 4.5827 2.95605C4.35257 2.95605 4.16602 3.14261 4.16602 3.37273C4.16602 3.60286 4.35257 3.78941 4.5827 3.78941Z" fill="white"/>
<path d="M15.4167 3.78941C15.6468 3.78941 15.8334 3.60286 15.8334 3.37273C15.8334 3.14261 15.6468 2.95605 15.4167 2.95605C15.1866 2.95605 15 3.14261 15 3.37273C15 3.60286 15.1866 3.78941 15.4167 3.78941Z" fill="white"/>
<path d="M4.5827 17.9564C4.81282 17.9564 4.99937 17.7699 4.99937 17.5397C4.99937 17.3096 4.81282 17.123 4.5827 17.123C4.35257 17.123 4.16602 17.3096 4.16602 17.5397C4.16602 17.7699 4.35257 17.9564 4.5827 17.9564Z" fill="white"/>
<path d="M15.4167 17.9564C15.6468 17.9564 15.8334 17.7699 15.8334 17.5397C15.8334 17.3096 15.6468 17.123 15.4167 17.123C15.1866 17.123 15 17.3096 15 17.5397C15 17.7699 15.1866 17.9564 15.4167 17.9564Z" fill="white"/>
<path d="M10.0007 13.7894C12.9875 13.7894 15.4173 11.3597 15.4173 8.37273C15.4173 5.38578 12.9875 2.95605 10.0007 2.95605C7.01379 2.95605 4.58398 5.38598 4.58398 8.37273C4.58398 11.3595 7.01379 13.7894 10.0007 13.7894ZM10.0007 3.78938C10.9072 3.78937 11.7933 4.05817 12.5471 4.56179C13.3008 5.06541 13.8883 5.78123 14.2352 6.61873C14.5821 7.45623 14.6728 8.37779 14.496 9.26688C14.3192 10.156 13.8826 10.9726 13.2416 11.6136C12.6006 12.2546 11.784 12.6912 10.8949 12.868C10.0058 13.0449 9.08424 12.9541 8.24674 12.6072C7.40923 12.2603 6.69341 11.6728 6.18978 10.9191C5.68615 10.1654 5.41734 9.27924 5.41734 8.37273C5.41871 7.15758 5.90203 5.99258 6.76127 5.13333C7.62051 4.27408 8.78551 3.79075 10.0007 3.78938Z" fill="white"/>
<path d="M10.0007 10.0394C10.3303 10.0394 10.6525 9.94166 10.9266 9.75853C11.2007 9.57539 11.4143 9.31509 11.5405 9.01054C11.6666 8.70599 11.6996 8.37087 11.6353 8.04757C11.571 7.72426 11.4123 7.42729 11.1792 7.1942C10.9461 6.96111 10.6491 6.80238 10.3258 6.73808C10.0025 6.67377 9.66737 6.70678 9.36283 6.83294C9.05828 6.95909 8.79798 7.17272 8.61485 7.44681C8.43172 7.7209 8.33398 8.04313 8.33398 8.37277C8.33449 8.81465 8.51025 9.23827 8.82271 9.55072C9.13516 9.86317 9.55879 10.0389 10.0007 10.0394ZM10.0007 7.53941C10.1655 7.53941 10.3266 7.58828 10.4637 7.67984C10.6007 7.77141 10.7075 7.90156 10.7706 8.05383C10.8337 8.20611 10.8502 8.37367 10.8181 8.53533C10.7859 8.69699 10.7065 8.84548 10.59 8.96203C10.4734 9.07859 10.325 9.15796 10.1633 9.19012C10.0016 9.22228 9.83408 9.20578 9.6818 9.1427C9.52952 9.07963 9.39937 8.97281 9.30779 8.83577C9.21622 8.69872 9.16734 8.5376 9.16734 8.37277C9.16757 8.15183 9.25544 7.94 9.41167 7.78376C9.56789 7.62753 9.77972 7.53965 10.0007 7.53941Z" fill="white"/>
<path d="M12.916 14.623H12.0827C11.9722 14.6231 11.8662 14.667 11.7881 14.7451C11.7099 14.8232 11.666 14.9292 11.666 15.0397V17.5397C11.666 17.6502 11.7099 17.7562 11.788 17.8343C11.8662 17.9125 11.9722 17.9564 12.0827 17.9564H12.916C13.2474 17.956 13.5652 17.8242 13.7995 17.5899C14.0338 17.3555 14.1657 17.0378 14.166 16.7064V15.873C14.1657 15.5416 14.0338 15.2239 13.7995 14.9896C13.5652 14.7552 13.2474 14.6234 12.916 14.623ZM13.3327 16.7064C13.3325 16.8168 13.2886 16.9227 13.2105 17.0008C13.1324 17.0789 13.0265 17.1229 12.916 17.123H12.4993V15.4564H12.916C13.0265 15.4565 13.1324 15.5005 13.2105 15.5786C13.2886 15.6567 13.3325 15.7626 13.3327 15.873V16.7064Z" fill="white"/>
<path d="M10 14.623H9.16668C9.05618 14.623 8.9502 14.6669 8.87206 14.7451C8.79392 14.8232 8.75001 14.9292 8.75 15.0397V17.5397C8.75 17.6502 8.7939 17.7562 8.87204 17.8343C8.95019 17.9125 9.05617 17.9564 9.16668 17.9564H10C10.3314 17.956 10.6491 17.8242 10.8835 17.5899C11.1178 17.3555 11.2496 17.0378 11.25 16.7064V15.873C11.2496 15.5416 11.1178 15.2239 10.8835 14.9896C10.6491 14.7552 10.3314 14.6234 10 14.623ZM10.4167 16.7064C10.4165 16.8168 10.3726 16.9227 10.2945 17.0008C10.2164 17.079 10.1105 17.1229 10 17.123H9.58332V15.4564H10C10.1105 15.4565 10.2164 15.5005 10.2945 15.5786C10.3726 15.6567 10.4165 15.7626 10.4167 15.873V16.7064Z" fill="white"/>
<path d="M7.91734 14.6231C7.80684 14.6231 7.70086 14.667 7.62272 14.7451C7.54458 14.8232 7.50067 14.9292 7.50066 15.0397V15.8731H6.66734V15.0397C6.66734 14.9292 6.62344 14.8232 6.5453 14.7451C6.46716 14.6669 6.36117 14.623 6.25066 14.623C6.14015 14.623 6.03417 14.6669 5.95603 14.7451C5.87788 14.8232 5.83398 14.9292 5.83398 15.0397V17.5397C5.83398 17.6502 5.87788 17.7562 5.95603 17.8344C6.03417 17.9125 6.14015 17.9564 6.25066 17.9564C6.36117 17.9564 6.46716 17.9125 6.5453 17.8344C6.62344 17.7562 6.66734 17.6502 6.66734 17.5397V16.7064H7.50066V17.5397C7.50013 17.5948 7.51051 17.6494 7.53121 17.7004C7.55191 17.7514 7.58252 17.7978 7.62126 17.837C7.66001 17.8761 7.70612 17.9071 7.75694 17.9283C7.80775 17.9495 7.86227 17.9604 7.91732 17.9604C7.97238 17.9604 8.0269 17.9495 8.07771 17.9283C8.12853 17.9071 8.17464 17.8761 8.21338 17.837C8.25213 17.7978 8.28273 17.7514 8.30343 17.7004C8.32413 17.6494 8.33452 17.5948 8.33398 17.5397V15.0397C8.33397 14.9292 8.29008 14.8233 8.21194 14.7451C8.13381 14.667 8.02784 14.6231 7.91734 14.6231Z" fill="white"/>
</svg>
