<svg width="21" height="22" viewBox="0 0 21 22" fill="none" xmlns="http://www.w3.org/2000/svg">
<g clip-path="url(#clip0_373_3755)">
<path d="M19.7695 2.95801H6.23438C5.55585 2.95801 5.00391 3.50996 5.00391 4.18848H0.615234C0.275414 4.18848 0 4.46389 0 4.80371V18.3389C0 18.6787 0.275414 18.9541 0.615234 18.9541H6.76758C7.1074 18.9541 7.38281 18.6787 7.38281 18.3389V15.2627H10.541V17.7236H9.31055C8.97073 17.7236 8.69531 17.999 8.69531 18.3389C8.69531 18.6787 8.97073 18.9541 9.31055 18.9541H16.6934C17.0332 18.9541 17.3086 18.6787 17.3086 18.3389C17.3086 17.999 17.0332 17.7236 16.6934 17.7236H15.4629V15.2627H19.7695C20.4481 15.2627 21 14.7107 21 14.0322V4.18848C21 3.50996 20.4481 2.95801 19.7695 2.95801ZM1.23047 7.87988H5.00391V9.11035H1.23047V7.87988ZM5.00391 5.41895V6.64941H1.23047V5.41895H5.00391ZM1.23047 17.7236V10.3408H5.00391V14.0322C5.00391 14.683 5.51196 15.2172 6.15234 15.2597V17.7236H1.23047ZM14.2324 17.7236H11.7715V15.2627H14.2324V17.7236ZM19.7695 14.0322H6.23438V4.18848H19.7695V14.0322Z" fill="#00081E"/>
<path d="M4.30664 16.3291C4.30664 16.6689 4.03123 16.9443 3.69141 16.9443C3.35159 16.9443 3.07617 16.6689 3.07617 16.3291C3.07617 15.9893 3.35159 15.7139 3.69141 15.7139C4.03123 15.7139 4.30664 15.9893 4.30664 16.3291Z" fill="#00081E"/>
</g>
<defs>
<clipPath id="clip0_373_3755">
<rect width="21" height="21" fill="white" transform="translate(0 0.456055)"/>
</clipPath>
</defs>
</svg>
