<svg width="24" height="24" viewBox="0 0 24 24" fill="none" xmlns="http://www.w3.org/2000/svg">
<g clip-path="url(#clip0_429_20832)">
<path d="M15.4735 7.63218C13.1395 4.19833 10.0221 2.37328 8.38958 3.49152C8.20981 3.61811 8.05361 3.77521 7.92804 3.9557C7.92804 3.96888 4.1487 11.6172 4.1487 11.6172L2.03881 13.0467C1.71491 13.2666 1.4375 13.5481 1.22244 13.8752C1.00737 14.2023 0.858859 14.5686 0.785384 14.9531C0.711909 15.3376 0.714911 15.7328 0.79422 16.1162C0.873528 16.4996 1.02759 16.8635 1.2476 17.1873L1.34254 17.3271C1.78726 17.9749 2.46944 18.4213 3.24113 18.5694C4.01281 18.7176 4.81178 18.5555 5.46474 18.1183L8.85375 23.1109C9.35221 23.7254 10.3096 24.3372 11.4911 23.6172C11.7004 23.4815 11.879 23.3034 12.0153 23.0945C12.1515 22.8855 12.2425 22.6503 12.2823 22.404C12.3301 22.1591 12.3288 21.9071 12.2785 21.6627C12.2283 21.4182 12.1301 21.1861 11.9896 20.9799L9.00408 16.5755C9.00408 16.5755 16.0617 16.0137 16.088 16.0032C16.3084 15.957 16.5173 15.8674 16.7025 15.7394C17.5412 15.1698 17.8419 13.975 17.5518 12.3742C17.2907 10.8999 16.5496 9.23042 15.4735 7.63218ZM2.11002 16.8076L2.01507 16.6678C1.86328 16.4443 1.75704 16.1931 1.70246 15.9285C1.64787 15.6639 1.646 15.3912 1.69695 15.1259C1.74791 14.8606 1.85069 14.6079 1.9994 14.3824C2.14812 14.1569 2.33986 13.9629 2.56364 13.8115L4.38606 12.572L6.79134 16.1139L4.96892 17.3535C4.74539 17.5055 4.49411 17.6119 4.22942 17.6668C3.96473 17.7216 3.69184 17.7237 3.42633 17.673C3.16082 17.6223 2.90791 17.5198 2.68205 17.3713C2.45619 17.2228 2.26181 17.0312 2.11002 16.8076ZM11.23 21.4994C11.3742 21.7139 11.4273 21.9768 11.3779 22.2304C11.3285 22.4841 11.1804 22.7078 10.9663 22.8524C10.7514 22.9967 10.4881 23.0499 10.234 23.0005C9.97994 22.9511 9.7558 22.803 9.61068 22.5887L6.23221 17.612L7.59046 16.6889L7.94914 16.6599L11.23 21.4994ZM7.6643 15.7553L5.04276 11.8942L7.54298 6.79614C7.78562 8.22822 8.49507 9.92932 9.62914 11.5988C10.7632 13.2682 12.0819 14.5553 13.3214 15.3095L7.6643 15.7553ZM15.4445 15.1407C14.1839 15.059 12.132 13.6375 10.394 11.0766C8.65595 8.5157 8.09156 6.09196 8.47925 4.88669C8.54926 4.66045 8.68897 4.46212 8.87843 4.32003C9.06789 4.17794 9.2974 4.09934 9.53419 4.09548C10.7843 4.09548 12.9127 5.52493 14.7008 8.15965C15.7083 9.64185 16.4414 11.1926 16.6419 12.5482C17.0349 15.1408 15.4445 15.1407 15.4445 15.1407Z" fill="#303030"/>
<path d="M12.1766 7.73001C11.8536 7.66657 11.5211 7.66818 11.1987 7.73475C10.8763 7.80131 10.5704 7.9315 10.2988 8.1177C10.2488 8.15233 10.2061 8.19649 10.1731 8.24764C10.1401 8.29879 10.1175 8.35593 10.1066 8.41581C10.0957 8.47569 10.0967 8.53713 10.1096 8.59662C10.1224 8.65611 10.1468 8.71249 10.1815 8.76253C10.2161 8.81258 10.2603 8.85532 10.3114 8.8883C10.3626 8.92128 10.4197 8.94387 10.4796 8.95477C10.5395 8.96566 10.6009 8.96466 10.6604 8.95181C10.7199 8.93897 10.7763 8.91453 10.8263 8.8799C10.9983 8.76318 11.1915 8.68147 11.3951 8.63945C11.5986 8.59742 11.8084 8.59589 12.0126 8.63496C12.2167 8.67402 12.4111 8.7529 12.5848 8.86711C12.7584 8.98131 12.9078 9.1286 13.0246 9.30056C13.1413 9.47252 13.223 9.66578 13.265 9.86932C13.307 10.0729 13.3086 10.2827 13.2695 10.4868C13.2304 10.6909 13.1516 10.8854 13.0373 11.059C12.9231 11.2326 12.7759 11.3821 12.6039 11.4988C12.5228 11.5548 12.4618 11.6353 12.4297 11.7284C12.3977 11.8216 12.3963 11.9226 12.4258 12.0166C12.4552 12.1107 12.514 12.1928 12.5935 12.251C12.673 12.3092 12.7691 12.3404 12.8676 12.3401C12.9616 12.3419 13.0539 12.3142 13.1314 12.261C13.5416 11.9831 13.8601 11.5897 14.0465 11.1307C14.233 10.6716 14.279 10.1676 14.1787 9.68235C14.0785 9.19712 13.8364 8.75258 13.4833 8.40502C13.1302 8.05747 12.6819 7.82254 12.1951 7.73001H12.1766Z" fill="#303030"/>
<path d="M16.0433 4.42278H16.0881C16.2022 4.42273 16.3123 4.38038 16.3971 4.30391C16.4818 4.22744 16.5353 4.12227 16.547 4.00871L16.903 0.548495C16.9111 0.487309 16.9069 0.42512 16.8905 0.365606C16.8742 0.306092 16.8461 0.250463 16.8078 0.20201C16.7696 0.153557 16.722 0.113265 16.6679 0.0835164C16.6139 0.053768 16.5544 0.0351681 16.493 0.0288172C16.4316 0.0224662 16.3695 0.0284933 16.3105 0.0465417C16.2515 0.0645902 16.1967 0.0942934 16.1494 0.133894C16.102 0.173495 16.0631 0.222188 16.0349 0.277094C16.0067 0.331999 15.9898 0.392001 15.9852 0.45355L15.6318 3.91641C15.6193 4.03811 15.6556 4.1598 15.7327 4.25475C15.8099 4.34971 15.9216 4.41014 16.0433 4.42278Z" fill="#303030"/>
<path d="M22.0088 3.71051C21.9411 3.60836 21.8357 3.53716 21.7156 3.51246C21.5955 3.48775 21.4706 3.51154 21.368 3.57864L18.153 5.68853C18.0695 5.74365 18.0062 5.82441 17.9726 5.91863C17.939 6.01286 17.9369 6.11545 17.9667 6.21096C17.9964 6.30647 18.0564 6.38973 18.1376 6.44819C18.2188 6.50666 18.3167 6.53717 18.4168 6.53513C18.5101 6.53727 18.6019 6.51156 18.6805 6.46128L21.8954 4.35139C21.9952 4.28122 22.0631 4.17442 22.0843 4.05434C22.1056 3.93426 22.0784 3.81065 22.0088 3.71051Z" fill="#303030"/>
<path d="M22.9928 9.34388L19.253 8.67135C19.1323 8.64967 19.008 8.6768 18.9073 8.74679C18.8067 8.81678 18.738 8.92388 18.7163 9.04454C18.6946 9.1652 18.7217 9.28953 18.7917 9.39018C18.8617 9.49083 18.9688 9.55956 19.0895 9.58124L22.8266 10.2538H22.9084C23.026 10.2572 23.1404 10.2156 23.2284 10.1375C23.3163 10.0593 23.3711 9.95056 23.3816 9.83338C23.392 9.7162 23.3573 9.59945 23.2845 9.507C23.2118 9.41455 23.1065 9.35337 22.9901 9.33597L22.9928 9.34388Z" fill="#303030"/>
</g>
<defs>
<clipPath id="clip0_429_20832">
<rect width="24" height="24" fill="white"/>
</clipPath>
</defs>
</svg>
