<svg width="22" height="23" viewBox="0 0 22 23" fill="none" xmlns="http://www.w3.org/2000/svg">
<g clip-path="url(#clip0_373_3835)">
<path d="M11.8903 6.35008C11.8903 6.63483 11.6594 6.8657 11.3746 6.8657H10.6254C10.3406 6.8657 10.1097 6.63483 10.1097 6.35008C10.1097 6.06532 10.3406 5.83445 10.6254 5.83445H11.3746C11.6594 5.83445 11.8903 6.06532 11.8903 6.35008ZM22 16.1021V16.7699C22 17.8978 21.0824 18.8154 19.9545 18.8154H2.04548C0.917555 18.8154 0 17.8978 0 16.7699V16.1021C0 15.8173 0.230871 15.5864 0.515625 15.5864H1.27742C1.14546 15.3287 1.07048 15.0372 1.07048 14.7284V5.98695C1.07048 4.94521 1.91804 4.09766 2.95977 4.09766H19.0403C20.082 4.09766 20.9296 4.94521 20.9296 5.98695V14.7284C20.9296 15.0373 20.8546 15.3288 20.7227 15.5865H21.4844C21.7691 15.5864 22 15.8173 22 16.1021ZM2.95973 15.5864H19.0403C19.5134 15.5864 19.8983 15.2015 19.8983 14.7284V5.98695C19.8983 5.51382 19.5134 5.12891 19.0403 5.12891H2.95973C2.4866 5.12891 2.10169 5.51382 2.10169 5.98695V14.7284C2.10169 15.2015 2.4866 15.5864 2.95973 15.5864ZM20.9688 16.6177H1.03125V16.7699C1.03125 17.3292 1.48625 17.7841 2.04548 17.7841H19.9546C20.5138 17.7841 20.9688 17.3292 20.9688 16.7699V16.6177H20.9688Z" fill="#00081E"/>
</g>
<defs>
<clipPath id="clip0_373_3835">
<rect width="22" height="22" fill="white" transform="translate(0 0.456055)"/>
</clipPath>
</defs>
</svg>
