<svg width="12" height="12" viewBox="0 0 12 12" fill="none" xmlns="http://www.w3.org/2000/svg">
<g clip-path="url(#clip0_407_2176)">
<path d="M11.9887 3.52803C11.9606 2.89043 11.8574 2.45208 11.7097 2.07224C11.5574 1.66906 11.3229 1.30809 11.0158 1.00801C10.7157 0.703262 10.3524 0.466461 9.95388 0.316468C9.57184 0.168765 9.13578 0.0656561 8.49818 0.0375439C7.85581 0.00705093 7.65188 0 6.02266 0C4.39343 0 4.1895 0.00705093 3.54952 0.0351631C2.91191 0.0632753 2.47356 0.166475 2.09382 0.314087C1.69054 0.466461 1.32957 0.700881 1.02949 1.00801C0.724747 1.30809 0.488037 1.67144 0.337952 2.06995C0.190249 2.45208 0.0871405 2.88805 0.0590283 3.52565C0.0285353 4.16802 0.0214844 4.37195 0.0214844 6.00117C0.0214844 7.6304 0.0285353 7.83432 0.0566475 8.47431C0.0847597 9.11192 0.18796 9.55027 0.335663 9.9301C0.488037 10.3333 0.724747 10.6943 1.02949 10.9943C1.32957 11.2991 1.69292 11.5359 2.09144 11.6859C2.47356 11.8336 2.90953 11.9367 3.54723 11.9648C4.18712 11.993 4.39114 12 6.02037 12C7.64959 12 7.85352 11.993 8.49351 11.9648C9.13111 11.9367 9.56946 11.8336 9.94921 11.6859C10.7557 11.3741 11.3933 10.7365 11.7051 9.9301C11.8527 9.54798 11.9559 9.11192 11.984 8.47431C12.0121 7.83432 12.0192 7.6304 12.0192 6.00117C12.0192 4.37195 12.0168 4.16802 11.9887 3.52803ZM10.908 8.42743C10.8822 9.01348 10.7838 9.32995 10.7017 9.54093C10.5001 10.0637 10.0852 10.4786 9.56241 10.6802C9.35143 10.7623 9.03267 10.8607 8.44891 10.8865C7.81598 10.9147 7.62615 10.9216 6.02504 10.9216C4.42393 10.9216 4.23172 10.9147 3.60107 10.8865C3.01502 10.8607 2.69855 10.7623 2.48757 10.6802C2.22742 10.5841 1.99062 10.4317 1.79841 10.2325C1.59915 10.0379 1.44678 9.80346 1.35063 9.54331C1.26858 9.33233 1.17015 9.01348 1.14441 8.42981C1.11621 7.79687 1.10925 7.60695 1.10925 6.00584C1.10925 4.40473 1.11621 4.21252 1.14441 3.58197C1.17015 2.99592 1.26858 2.67945 1.35063 2.46847C1.44678 2.20823 1.59915 1.97152 1.80079 1.77922C1.99529 1.57996 2.22971 1.42759 2.48995 1.33153C2.70093 1.24948 3.01978 1.15104 3.60345 1.12522C4.23639 1.09711 4.42631 1.09006 6.02733 1.09006C7.63082 1.09006 7.82065 1.09711 8.45129 1.12522C9.03734 1.15104 9.35381 1.24948 9.56479 1.33153C9.82494 1.42759 10.0617 1.57996 10.254 1.77922C10.4532 1.9738 10.6056 2.20823 10.7017 2.46847C10.7838 2.67945 10.8822 2.9982 10.908 3.58197C10.9362 4.2149 10.9432 4.40473 10.9432 6.00584C10.9432 7.60695 10.9362 7.79449 10.908 8.42743Z" fill="#D62976"/>
<path d="M6.02209 2.91895C4.32025 2.91895 2.93945 4.29965 2.93945 6.00158C2.93945 7.70351 4.32025 9.08421 6.02209 9.08421C7.72402 9.08421 9.10472 7.70351 9.10472 6.00158C9.10472 4.29965 7.72402 2.91895 6.02209 2.91895ZM6.02209 8.00121C4.91802 8.00121 4.02246 7.10574 4.02246 6.00158C4.02246 4.89742 4.91802 4.00195 6.02209 4.00195C7.12625 4.00195 8.02171 4.89742 8.02171 6.00158C8.02171 7.10574 7.12625 8.00121 6.02209 8.00121Z" fill="#D62976"/>
<path d="M9.94623 2.7968C9.94623 3.19422 9.624 3.51646 9.22649 3.51646C8.82907 3.51646 8.50684 3.19422 8.50684 2.7968C8.50684 2.39929 8.82907 2.07715 9.22649 2.07715C9.624 2.07715 9.94623 2.39929 9.94623 2.7968Z" fill="#D62976"/>
</g>
<defs>
<clipPath id="clip0_407_2176">
<rect width="12" height="12" fill="white"/>
</clipPath>
</defs>
</svg>
