<svg width="87" height="102" viewBox="0 0 87 102" fill="none" xmlns="http://www.w3.org/2000/svg">
<path d="M79.719 41.8784C80.974 41.8784 82.21 41.8919 83.4455 41.8708C83.8537 41.8639 84.2712 41.8094 84.6655 41.7046C85.6155 41.4519 85.8583 41.1163 85.856 40.1348C85.8501 37.5507 85.8469 34.9665 85.8239 32.3825C85.8107 30.9065 85.373 30.5381 83.9048 30.5834C82.6928 30.6208 81.4788 30.5911 80.2875 30.5911C80.144 29.8881 80.5033 29.7372 80.918 29.7172C82.1312 29.6588 83.3461 29.6359 84.5603 29.5949C84.856 29.5849 85.1808 29.6285 85.4372 29.5183C85.6444 29.4293 85.9108 29.1446 85.909 28.949C85.8681 24.4361 85.8793 19.92 85.6951 15.4123C85.5798 12.5913 85.1773 9.78112 84.8742 6.96933C84.5477 3.94053 82.302 1.51101 79.2982 1.02193C77.4578 0.72227 75.5571 0.740804 73.6825 0.723087C71.4346 0.701851 69.1847 0.860333 66.9374 0.824427C61.0162 0.72984 55.0891 0.703798 49.1774 0.396225C44.7753 0.167186 40.38 -0.0362497 35.9731 0.0054679C30.9214 0.0533113 25.8697 0.100966 20.8178 0.128547C19.8542 0.133825 19.0813 0.536802 18.3999 1.14598C15.2628 3.95052 12.1793 6.81173 9.49116 10.0677C7.92485 11.9649 6.39705 13.8942 4.82255 15.7844C4.33858 16.3654 3.77638 16.8856 3.21708 17.3973C1.68786 18.7962 0.942215 20.5218 0.900841 22.5986C0.868721 24.2102 0.664787 25.8209 0.679573 27.4307C0.727676 32.6662 0.81427 37.9019 0.938965 43.1362C1.02022 46.5466 1.1896 49.955 1.32629 53.364C1.55807 59.1449 1.8077 64.9251 2.02587 70.7066C2.18065 74.808 2.25449 78.9127 2.44141 83.0125C2.60719 86.6483 2.79979 90.2868 3.14127 93.9089C3.28817 95.467 3.76538 97.0098 4.22771 98.5177C4.85366 100.559 6.38516 101.469 8.45168 101.52C14.4851 101.668 20.5183 101.836 26.5526 101.933C30.9152 102.002 35.2801 102.023 39.6429 101.97C47.9553 101.87 56.2669 101.698 64.5789 101.565C66.5539 101.533 68.5302 101.566 70.5048 101.522C73.5094 101.456 76.5183 101.429 79.5156 101.234C81.9831 101.073 83.6236 99.6441 84.5904 97.3723C85.4551 95.3406 85.9696 93.2591 85.9889 91.0283C86.0285 86.4626 86.183 81.8979 86.2384 77.3322C86.2986 72.3752 86.3098 67.4174 86.3202 62.4599C86.3231 61.0807 86.2816 59.6987 86.1768 58.3245C86.1571 58.0672 85.7677 57.679 85.4993 57.6309C84.759 57.4982 83.9927 57.5059 83.236 57.4728C82.3429 57.4338 81.4487 57.3794 80.5557 57.3895C79.7774 57.3983 79.5916 57.0043 79.5965 56.3059C79.6287 51.6914 79.6369 47.0766 79.6559 42.4619C79.6564 42.3061 79.6885 42.1502 79.719 41.8784ZM85.1299 28.5111C83.9468 28.5111 82.6828 28.4313 81.4326 28.5294C79.462 28.6842 79.1325 29.0393 79.0617 31.0647C78.9659 33.8058 78.9217 36.5498 78.9111 39.2927C78.8949 43.5156 78.9296 47.7387 78.9356 51.9618C78.9379 53.5741 78.9138 55.1864 78.9154 56.7987C78.9162 57.5387 79.3118 57.9656 80.0043 58.2094C81.4644 58.7234 82.9528 58.8729 84.4816 58.6843C85.4428 58.5658 85.5455 58.634 85.5514 59.5754C85.5907 65.872 85.6785 72.1691 85.6354 78.4652C85.6043 83.0064 85.4151 87.547 85.2576 92.0865C85.1723 94.5483 84.3485 96.769 82.8388 98.7147C82.0824 99.6895 81.1182 100.408 79.8638 100.517C78.1278 100.667 76.3841 100.782 74.6424 100.802C64.9488 100.916 55.2548 101.005 45.5608 101.08C43.5175 101.096 41.4731 100.981 39.43 101.003C37.5945 101.022 35.7605 101.2 33.9251 101.213C30.5254 101.238 27.1251 101.197 23.725 101.175C19.752 101.151 15.7789 101.125 11.806 101.084C10.9583 101.075 10.1009 101.062 9.26674 100.93C8.39243 100.793 7.49618 100.615 6.68912 100.268C5.30385 99.672 4.65669 98.3857 4.39305 97.0098C4.04784 95.2085 3.83662 93.371 3.71468 91.5391C3.54171 88.9409 3.49304 86.334 3.40845 83.7303C3.22349 78.0372 3.05855 72.3436 2.86665 66.6508C2.78043 64.0932 2.65868 61.5367 2.53611 58.9805C2.33302 54.7448 2.08488 50.5109 1.9165 46.2738C1.80936 43.5778 1.81011 40.8775 1.76604 38.1791C1.73893 36.518 1.71125 34.8569 1.69665 33.1957C1.66785 29.9211 1.61565 26.6462 1.63832 23.372C1.6492 21.8016 1.96986 20.2593 3.15231 19.1193C4.80165 17.5292 6.13046 15.6922 7.53274 13.8945C10.52 10.0647 13.6937 6.38412 17.3991 3.21685C18.714 2.09295 20.0741 1.0617 21.9536 1.03273C24.0153 1.00094 26.0741 0.8156 28.1358 0.748375C30.7058 0.664562 33.2788 0.552478 35.848 0.596803C40.3896 0.675181 44.9286 0.888386 49.4698 0.998303C56.3794 1.16555 63.2897 1.3094 70.2003 1.42845C72.7667 1.47269 75.3407 1.30701 77.9002 1.44369C80.1488 1.56378 82.0055 2.55125 83.2566 4.58244C84.2593 6.21021 84.426 8.01497 84.5551 9.81637C84.807 13.3322 84.9972 16.8546 85.1129 20.3775C85.1996 23.024 85.1299 25.6757 85.1299 28.5111ZM80.0465 31.3549C81.5208 31.3549 82.8019 31.3845 84.0806 31.3416C84.6681 31.322 84.848 31.5689 84.8652 32.0968C84.9518 34.7635 85.0421 37.4302 85.1481 40.0962C85.1687 40.6153 84.9114 40.9303 84.4615 40.9612C82.8759 41.0703 81.2864 41.1206 79.6204 41.1967C79.7662 37.8279 79.9053 34.6166 80.0465 31.3549Z" fill="white"/>
<path d="M68.1569 52.6421C68.1569 49.112 68.1653 45.5818 68.155 42.0516C68.1385 36.3527 68.1179 30.6537 68.0825 24.9548C68.0649 22.141 67.9996 19.3275 67.9813 16.5137C67.9775 15.9349 67.6858 15.8094 67.2048 15.8094C65.6197 15.8094 64.0345 15.7869 62.4495 15.7962C55.283 15.838 48.1165 15.8991 40.95 15.9314C33.4154 15.9654 25.8807 15.9748 18.3461 15.9943C17.4711 15.9965 17.3821 16.0998 17.3877 17.0053C17.4254 23.0957 17.46 29.1862 17.4922 35.2766C17.5359 43.5366 17.5884 51.7967 17.6152 60.0568C17.6418 68.2247 17.638 76.3927 17.6555 84.5607C17.6587 86.0369 17.7145 87.513 17.7173 88.9892C17.7184 89.5866 17.9564 89.7855 18.5497 89.7796C22.6607 89.7386 26.772 89.7175 30.8832 89.7057C39.2677 89.6818 47.6523 89.6797 56.0367 89.6441C59.8262 89.6279 63.6153 89.5443 67.4048 89.5143C67.9534 89.5099 68.1249 89.2991 68.1236 88.7768C68.1098 82.9161 68.1092 77.0554 68.1038 71.1947C68.1004 67.5027 68.0937 63.8107 68.0906 60.1187C68.0886 57.6265 68.0902 55.1343 68.0902 52.6422C68.1125 52.6422 68.1347 52.6421 68.1569 52.6421ZM18.2019 26.6141C18.5804 26.6141 18.8315 26.6115 19.0826 26.6145C22.4352 26.6542 25.7877 26.7194 29.1404 26.7293C34.4243 26.7449 39.7082 26.7163 44.9921 26.7196C52.0211 26.7239 59.05 26.7344 66.0788 26.7579C67.4106 26.7623 67.1797 26.7333 67.1838 27.811C67.1953 30.8103 67.185 33.8097 67.207 36.809C67.2543 43.2451 67.3196 49.6811 67.3717 56.1173C67.4022 59.9005 67.4239 63.6838 67.4451 67.4672C67.4837 74.3879 67.5146 81.3086 67.5643 88.2292C67.5681 88.7636 67.4127 88.9487 66.8607 88.9492C58.4314 88.9556 50.0021 88.9758 41.5728 89.006C37.8521 89.0193 34.1315 89.0739 30.4108 89.0885C26.6442 89.1032 22.8774 89.0881 19.1107 89.0965C18.677 89.0975 18.4374 89.0157 18.4357 88.4915C18.4246 85.2618 18.373 82.0323 18.3562 78.8027C18.3349 74.6961 18.3379 70.5895 18.3233 66.4829C18.2986 59.4922 18.2643 52.5016 18.2417 45.5109C18.2228 39.6509 18.2147 33.7908 18.2021 27.9308C18.2012 27.5193 18.2019 27.1077 18.2019 26.6141ZM67.2149 26.284C50.8514 26.4566 34.5826 25.9469 18.3031 26.0888C18.2699 25.9174 18.2383 25.8306 18.2383 25.7437C18.2381 22.9515 18.2496 20.1593 18.2354 17.3672C18.2327 16.8456 18.529 16.8339 18.9009 16.83C21.2666 16.8054 23.6321 16.7633 25.9979 16.7483C31.2803 16.7148 36.5628 16.6792 41.8454 16.671C50.0689 16.6581 58.2925 16.6729 66.516 16.6556C67.1067 16.6544 67.2503 16.8623 67.2441 17.4166C67.2152 19.9993 67.2213 22.5824 67.2151 25.1654C67.2143 25.482 67.2149 25.7987 67.2149 26.284Z" fill="white"/>
<path d="M49.1543 1.95458C48.8609 1.91239 48.5682 1.83948 48.274 1.83282C45.7733 1.77624 43.2724 1.72921 40.7715 1.68426C38.0422 1.63522 35.3113 1.51484 32.5838 1.56793C30.0853 1.61656 27.5911 1.86577 25.0938 2.00471C24.0445 2.06311 22.9857 2.00251 21.9425 2.10772C20.3947 2.26382 19.0177 2.89338 17.9164 4.00738C16.6716 5.26645 15.4815 6.58015 14.2713 7.87358C14.216 7.9327 14.1969 8.02603 14.2742 8.24156C14.4699 8.10683 14.6885 7.99619 14.8574 7.83347C16.1159 6.62105 17.3113 5.336 18.6316 4.19668C19.9031 3.09955 21.4708 2.68602 23.1487 2.63324C26.3116 2.53375 29.4722 2.34549 32.6355 2.28046C36.1223 2.20878 39.611 2.2133 43.0987 2.22602C44.8645 2.23246 46.6297 2.33591 48.3956 2.37998C48.6464 2.38623 48.8994 2.3044 49.1514 2.26331C49.1524 2.16037 49.1533 2.05749 49.1543 1.95458Z" fill="white"/>
<path d="M2.7299 29.4173C2.89227 32.869 3.11414 36.3191 3.19992 39.7727C3.28177 43.0685 3.21684 46.3678 3.23072 49.6656C3.23244 50.0745 3.29746 50.4884 3.38415 50.8888C3.41436 51.0283 3.5986 51.1341 3.71247 51.2554C3.79469 51.1323 3.9256 51.0181 3.94972 50.8845C4.01461 50.5249 4.07206 50.1563 4.06559 49.7925C3.98246 45.1152 3.89564 40.4379 3.79312 35.7609C3.71535 32.2132 3.60201 28.6663 3.52871 25.1186C3.50043 23.7507 3.89649 22.4962 4.67168 21.3596C4.95543 20.9437 5.2096 20.5001 5.41398 20.0407C5.48644 19.8778 5.37107 19.6306 5.34142 19.4219C5.16316 19.5166 4.92801 19.5668 4.81529 19.7127C3.44504 21.4855 2.88208 23.5342 2.84502 25.7466C2.82456 26.9685 2.84136 28.1911 2.84136 29.4133C2.80421 29.4146 2.76705 29.416 2.7299 29.4173Z" fill="white"/>
<path d="M4.97733 91.153C4.95732 91.7144 4.86593 92.2844 4.93226 92.8353C5.06655 93.9513 5.23687 95.068 5.48303 96.1639C5.80222 97.5851 6.64381 98.5472 8.06432 99.0476C10.4709 99.8953 12.9477 99.7704 15.4212 99.71C17.5752 99.6573 19.7275 99.5396 21.8805 99.4504C22.0988 99.4414 22.317 99.4309 22.5352 99.421C22.5502 99.3539 22.5651 99.2868 22.5801 99.2197C22.3841 99.1564 22.189 99.0414 21.9919 99.0379C19.6065 98.9957 17.2209 98.9562 14.8351 98.9442C12.702 98.9333 10.5702 98.9913 8.4924 98.3453C7.14408 97.9261 6.37151 97.0483 6.14098 95.6656C5.92194 94.3518 5.70949 93.0368 5.48066 91.7248C5.44507 91.5206 5.33745 91.3291 5.26314 91.1318C5.16785 91.1389 5.07259 91.1459 4.97733 91.153Z" fill="white"/>
<path d="M5.12856 87.5531C5.18545 87.07 5.30976 86.5839 5.28862 86.1043C5.09907 81.8044 4.88056 77.5058 4.67934 73.2064C4.64275 72.4244 4.66126 71.6398 4.62811 70.8575C4.54721 68.9495 4.45479 67.0419 4.35378 65.1349C4.34533 64.9754 4.23718 64.8212 4.12619 64.54C3.59043 66.0476 4.3503 86.7207 4.90179 87.5235C4.97738 87.5334 5.05297 87.5433 5.12856 87.5531Z" fill="white"/>
<path d="M25.6064 99.2929C26.0014 99.8678 26.6365 99.8382 27.1767 99.8484C30.1784 99.9047 33.1813 99.8875 36.1835 99.9242C38.6128 99.9538 41.0417 100.06 43.4708 100.062C44.8419 100.064 46.2134 99.9281 47.584 99.8419C47.6655 99.8367 47.7401 99.7223 47.8711 99.6154C40.4145 98.7588 33.0094 99.7161 25.6064 99.2929Z" fill="white"/>
<path d="M79.4238 58.9593C78.1823 57.8499 78.0007 56.399 77.9892 54.9565C77.9505 50.1141 77.936 45.2704 78.0065 40.4286C78.0454 37.7634 78.2878 35.1017 78.3985 32.4367C78.4135 32.0761 78.195 31.7057 78.0846 31.3398C77.4851 31.5405 77.6628 32.0473 77.7079 32.4408C78.0596 35.506 77.598 38.5548 77.5651 41.611C77.5168 46.1067 77.5429 50.6038 77.5915 55.0997C77.6021 56.0776 77.8086 57.0591 77.9865 58.0275C78.142 58.8737 78.7079 59.2503 79.4238 58.9593Z" fill="white"/>
<path d="M83.8777 93.5909C84.0175 93.0852 84.2278 92.5874 84.2848 92.0725C84.5019 90.1102 84.7571 88.1458 84.8334 86.1758C84.9281 83.7352 84.877 81.288 84.8556 78.8439C84.8374 76.7708 84.7787 74.698 84.7197 72.6256C84.7111 72.3263 84.6002 72.0299 84.5367 71.7323C84.455 71.7307 84.3734 71.7291 84.2917 71.7275C84.2537 72.0132 84.1809 72.299 84.1831 72.5843C84.2134 76.5264 84.3241 80.4694 84.2689 84.4101C84.2285 87.3006 84.2222 90.2071 83.6347 93.0636C83.6038 93.2141 83.6307 93.3767 83.6307 93.5336C83.7131 93.5527 83.7954 93.5718 83.8777 93.5909Z" fill="white"/>
<path d="M82.7821 96.2275C82.5752 96.4238 82.3236 96.5899 82.1686 96.8214C81.1774 98.3015 79.641 98.8658 78.0304 99.145C75.4792 99.5872 72.9021 99.6852 70.3034 99.4989C68.7579 99.3881 67.1924 99.5518 65.6364 99.6054C65.5253 99.6092 65.418 99.7235 65.1941 99.8526C65.4453 99.9311 65.5799 100.008 65.7158 100.01C68.5805 100.059 71.4468 100.171 74.3097 100.114C75.9681 100.082 77.6305 99.834 79.2734 99.571C80.4389 99.3844 81.5316 98.8955 82.2876 97.9292C82.6323 97.4887 82.8157 96.9208 83.0723 96.4107C82.9755 96.3497 82.8788 96.2886 82.7821 96.2275Z" fill="white"/>
<path d="M65.4355 2.66725C66.1734 2.728 66.9104 2.80667 67.6494 2.84524C68.7453 2.90248 69.8424 2.9387 70.9394 2.97074C73.3863 3.04227 75.8344 3.08383 78.2796 3.19196C78.7378 3.21222 79.1805 3.50088 79.6392 3.63508C79.8403 3.69395 80.0638 3.67595 80.4424 3.70595C79.8075 2.64005 78.9338 2.31878 78.0254 2.26057C76.2445 2.14647 74.4556 2.12489 72.6701 2.12825C70.4708 2.1324 68.2716 2.19742 66.0726 2.24728C65.8506 2.2523 65.6302 2.33392 65.409 2.37997C65.4179 2.47575 65.4267 2.5715 65.4355 2.66725Z" fill="white"/>
<path d="M81.7788 4.74418C81.8412 5.02634 81.8586 5.32863 81.9731 5.58748C82.9921 7.88977 83.1017 10.3586 83.3138 12.8099C83.4188 14.0235 83.5199 15.2377 83.6535 16.4482C83.6738 16.6323 83.861 16.7978 84.0422 16.9339C84.2876 14.2591 84.5733 11.6257 83.839 9.02363C83.5281 7.922 83.2858 6.79767 82.9125 5.71854C82.7641 5.28946 82.3451 4.95481 82.0493 4.57715C81.9591 4.63285 81.869 4.68851 81.7788 4.74418Z" fill="white"/>
<path d="M83.7792 22.7609C83.7195 23.0072 83.621 23.2514 83.608 23.5001C83.5791 24.0513 83.6063 24.6052 83.5864 25.1571C83.559 25.9195 83.3142 26.0722 82.5614 26.1049C81.5646 26.1482 80.5638 26.2433 79.5807 26.4108C78.7715 26.5487 78.3264 27.1978 78.1616 27.9398C78.0089 28.627 78.0196 29.3537 77.9955 30.0642C77.9909 30.1987 78.1604 30.3391 78.2495 30.4767C78.3435 30.3444 78.4845 30.2244 78.5227 30.0775C78.632 29.6568 78.6944 29.2241 78.7845 28.7981C79.1473 27.0833 79.7627 26.6356 81.5101 26.7964C81.9658 26.8384 82.424 26.8886 82.8803 26.8816C83.777 26.8678 84.4649 26.2116 84.4687 25.3212C84.4715 24.6577 84.3911 23.9914 84.3081 23.3314C84.2825 23.1284 84.1258 22.942 84.0292 22.748C83.9459 22.7524 83.8626 22.7566 83.7792 22.7609Z" fill="white"/>
<path d="M63.3525 2.37235C63.2257 2.29086 63.1073 2.15892 62.9707 2.13593C62.0037 1.97317 61.036 1.73571 60.0628 1.70531C58.0051 1.64097 55.9439 1.68451 53.8842 1.6956C53.6464 1.69689 53.409 1.77288 53.1829 1.96591C56.5614 2.44086 59.9349 2.63553 63.3172 2.6601C63.329 2.56416 63.3407 2.46825 63.3525 2.37235Z" fill="white"/>
<path d="M12.4532 9.93652C9.99109 12.492 7.85927 15.3082 5.91573 18.273C5.99739 18.3526 6.07905 18.4321 6.16071 18.5117C6.42213 18.2747 6.72962 18.0724 6.93719 17.7948C7.93981 16.4537 8.89786 15.0789 9.9068 13.7428C10.6388 12.7733 11.4293 11.8485 12.1855 10.8972C12.3797 10.6529 12.5432 10.3838 12.7207 10.1262C12.6315 10.0629 12.5424 9.99973 12.4532 9.93652Z" fill="white"/>
<path d="M84.5216 65.9092C84.5643 65.7136 84.6395 65.5189 84.6445 65.3224C84.6799 63.9264 84.7935 62.5239 84.7006 61.1358C84.6078 59.7516 83.4149 59.1095 82.0704 59.5773C81.982 59.608 81.867 59.7096 81.8594 59.7876C81.8507 59.8768 81.9275 60.0341 82.0032 60.0615C82.2996 60.1691 82.6152 60.3207 82.9147 60.3029C83.6053 60.2617 83.8742 60.5997 83.9194 61.2234C84.0206 62.6195 84.1186 64.0158 84.2222 65.4117C84.2351 65.5863 84.2742 65.7589 84.3011 65.9324C84.3746 65.9247 84.4481 65.917 84.5216 65.9092Z" fill="white"/>
<path d="M56.7461 100.086C57.224 100.143 57.7005 100.219 58.18 100.253C59.2517 100.328 60.3247 100.384 61.3973 100.444C61.5799 100.454 61.7889 100.505 61.9408 100.437C62.2071 100.317 62.4385 100.119 62.6846 99.9541C62.4411 99.7917 62.1931 99.483 61.9549 99.4904C60.2676 99.5423 58.5823 99.658 56.8967 99.7594C56.8401 99.7628 56.7873 99.8299 56.7328 99.8674C56.7372 99.9402 56.7416 100.013 56.7461 100.086Z" fill="white"/>
<path d="M51.9775 100.131C52.3658 100.131 52.757 100.157 53.1411 100.117C53.2878 100.102 53.4186 99.9335 53.5566 99.8348C53.4376 99.7168 53.3278 99.5089 53.1981 99.4956C52.4044 99.4139 51.6065 99.3493 50.8096 99.3447C50.6295 99.3437 50.4479 99.6029 50.2669 99.7423C50.4488 99.8796 50.6165 100.102 50.8157 100.136C51.1934 100.199 51.5892 100.154 51.9775 100.154C51.9775 100.146 51.9775 100.139 51.9775 100.131Z" fill="white"/>
<path d="M3.83667 58.3355C3.82103 58.5486 3.80199 58.7614 3.79045 58.9747C3.74964 59.7284 3.70557 60.4821 3.67548 61.2362C3.66551 61.4869 3.64461 61.7557 3.72061 61.9855C3.78122 62.1689 3.98138 62.3057 4.11958 62.4632C4.21234 62.2957 4.38547 62.1268 4.38278 61.9609C4.37465 61.4614 4.28355 60.9639 4.2524 60.4639C4.22244 59.9829 4.24548 59.4984 4.20833 59.0183C4.18969 58.7774 4.08896 58.543 4.02535 58.3057C3.96246 58.3157 3.89956 58.3256 3.83667 58.3355Z" fill="white"/>
<path d="M3.51632 53.4866C3.48001 54.2079 3.40861 54.9303 3.42994 55.65C3.43592 55.8517 3.71489 56.0453 3.86863 56.2427C3.98456 56.0256 4.19904 55.8076 4.19725 55.5914C4.19253 55.0232 4.10737 54.4536 4.02384 53.8892C3.99954 53.7249 3.87278 53.5759 3.793 53.4199C3.70077 53.4421 3.60855 53.4644 3.51632 53.4866Z" fill="white"/>
<path d="M84.2805 21.1692C84.3422 20.5567 84.4477 19.9437 84.4411 19.332C84.4389 19.1224 84.1557 18.9159 84.0008 18.708C83.8667 18.9072 83.6216 19.1055 83.6201 19.3057C83.6161 19.8282 83.698 20.3553 83.7923 20.8719C83.8194 21.0202 84.0055 21.1391 84.1187 21.2715C84.1727 21.2374 84.2266 21.2033 84.2805 21.1692Z" fill="white"/>
<path d="M84.7272 69.7594C84.7272 68.9449 84.7434 68.2447 84.7124 67.5466C84.7068 67.4202 84.5083 67.3024 84.3988 67.1807C84.3131 67.2671 84.1468 67.3614 84.1542 67.4389C84.2215 68.1408 84.3151 68.8404 84.4158 69.5385C84.4238 69.5937 84.5432 69.6327 84.7272 69.7594Z" fill="white"/>
<path d="M23.8613 11.9116C23.5606 11.5775 23.3425 11.3351 23.1245 11.0928C22.9777 11.2483 22.679 11.4567 22.7112 11.55C22.8324 11.9017 23.0613 12.216 23.2499 12.5444C23.417 12.3714 23.5842 12.1984 23.8613 11.9116Z" fill="white"/>
<path d="M13.3793 82.6558C13.6366 82.9728 13.8035 83.1785 13.9704 83.3842C14.1243 83.0882 14.3519 82.8039 14.401 82.4914C14.4253 82.3362 14.1221 82.129 13.9671 81.9453C13.7907 82.1585 13.6144 82.3716 13.3793 82.6558Z" fill="white"/>
<path d="M83.1917 95.9147C83.311 95.8036 83.467 95.6583 83.623 95.5129C83.4397 95.3951 83.2661 95.2552 83.0693 95.1678C82.9535 95.1163 82.798 95.1279 82.6657 95.1473C82.4507 95.1788 82.2401 95.2401 82.0276 95.2888C82.1969 95.44 82.3501 95.6182 82.5408 95.7337C82.6883 95.8229 82.8829 95.8336 83.1917 95.9147Z" fill="white"/>
<path d="M14.6886 83.7695C14.8359 83.7695 14.9672 83.8066 15.0032 83.7635C15.2417 83.4778 15.4598 83.1749 15.6846 82.8776C15.5372 82.8069 15.3446 82.6381 15.2501 82.682C14.8049 82.8889 14.61 83.256 14.6886 83.7695Z" fill="white"/>
<path d="M78.9386 14.3936C79.1215 14.6763 79.2628 14.8947 79.4041 15.1131C79.5236 14.821 79.7038 14.5355 79.7366 14.2339C79.7528 14.0847 79.4973 13.9057 79.3647 13.7402C79.2361 13.9375 79.1075 14.1347 78.9386 14.3936Z" fill="white"/>
<path d="M6.09845 35.5145C6.49051 35.7634 6.7497 35.9507 7.03424 36.083C7.07502 36.102 7.23821 35.8553 7.34473 35.7316C7.08456 35.5503 6.83336 35.3521 6.55624 35.2024C6.50401 35.1742 6.34846 35.339 6.09845 35.5145Z" fill="white"/>
<path d="M76.3335 13.7205C76.4396 13.8076 76.6252 13.982 76.6397 13.9686C76.8654 13.761 77.0883 13.5426 77.26 13.2909C77.2916 13.2445 77.0372 12.9174 77.0127 12.929C76.7125 13.0708 76.4306 13.2516 76.144 13.4223C76.2071 13.5218 76.2703 13.6212 76.3335 13.7205Z" fill="white"/>
<path d="M24.4379 12.8668C24.6331 12.5919 24.8443 12.3263 25.0103 12.0347C25.0443 11.9751 24.9341 11.7656 24.8442 11.7224C24.7685 11.6861 24.5623 11.7598 24.5238 11.8389C24.3899 12.1137 24.3038 12.412 24.1995 12.7014C24.279 12.7565 24.3584 12.8117 24.4379 12.8668Z" fill="white"/>
<path d="M18.5273 10.9702C18.3998 10.6449 18.2803 10.3158 18.1301 10.0014C18.1178 9.97568 17.8967 10.0507 17.7726 10.0789C17.8954 10.424 18.0183 10.7691 18.1412 11.1142C18.27 11.0662 18.3987 11.0182 18.5273 10.9702Z" fill="white"/>
<path d="M75.2785 96.0967C75.4508 96.2367 75.614 96.3854 75.6245 96.3753C75.8262 96.1797 76.0165 95.9703 76.185 95.7455C76.1979 95.7283 75.9648 95.4911 75.9571 95.4972C75.7399 95.6696 75.5371 95.8602 75.2785 96.0967Z" fill="white"/>
<path d="M6.61133 37.7641C6.49299 37.4938 6.38115 37.22 6.24267 36.9606C6.2327 36.942 6.02822 37.0281 5.91419 37.0655C6.02634 37.3427 6.13849 37.6199 6.25064 37.8972C6.37086 37.8528 6.49111 37.8085 6.61133 37.7641Z" fill="white"/>
<path d="M84.2334 32.0067C83.0665 32.0067 82.1202 31.9828 81.1769 32.0254C80.9704 32.0348 80.705 32.2378 80.5865 32.4272C80.1885 33.0636 80.296 33.7535 80.3709 34.4298C80.4528 34.4396 80.5347 34.4494 80.6167 34.4592C80.6547 34.224 80.7167 33.9898 80.7265 33.7533C80.7711 32.6737 80.9474 32.5544 81.9884 32.6581C82.5196 32.7111 83.074 32.6234 83.6056 32.5289C83.7949 32.4952 83.9477 32.2538 84.2334 32.0067Z" fill="white"/>
<path d="M80.4647 39.1754C80.5065 39.0168 80.5756 38.8599 80.5856 38.6992C80.6375 37.8736 80.6852 37.0472 80.7078 36.2203C80.7129 36.0333 80.6235 35.8388 80.5501 35.659C80.5373 35.6277 80.3135 35.6406 80.3112 35.6542C80.2795 35.8428 80.254 36.0353 80.2568 36.2264C80.2672 36.9398 80.2903 37.653 80.305 38.3663C80.3105 38.63 80.3059 38.8939 80.3059 39.1577C80.3588 39.1636 80.4118 39.1695 80.4647 39.1754Z" fill="white"/>
<path d="M48.2422 86.1699C48.2115 86.3107 48.1641 86.3948 48.1885 86.4369C48.3562 86.7253 48.539 87.0048 48.7169 87.2872C48.8238 87.1757 49.0333 87.0494 49.0199 86.955C48.9609 86.5404 48.7903 86.1829 48.2422 86.1699Z" fill="white"/>
<path d="M65.6092 84.3261C66.0336 84.1612 66.1808 83.8154 66.0963 83.3713C66.0785 83.278 65.8713 83.2211 65.7514 83.1475C65.6205 83.5033 65.4895 83.8592 65.3586 84.2151C65.4422 84.2521 65.5257 84.2891 65.6092 84.3261Z" fill="white"/>
<path d="M23.2389 72.3129C23.4383 72.0646 23.6376 71.8162 23.8369 71.5678C23.6955 71.4874 23.5292 71.3132 23.4171 71.3433C22.999 71.4553 22.8555 71.7506 23.2389 72.3129Z" fill="white"/>
<path d="M65.3301 83.0131C65.1196 82.9554 64.9054 82.8264 64.7441 82.8749C64.617 82.9132 64.4829 83.1712 64.4853 83.3296C64.4875 83.48 64.6629 83.6278 64.7622 83.7767C64.8718 83.6294 64.9814 83.482 65.3301 83.0131Z" fill="white"/>
</svg>
