<svg width="19" height="19" viewBox="0 0 19 19" fill="none" xmlns="http://www.w3.org/2000/svg">
<g clip-path="url(#clip0_429_20826)">
<path d="M18.4434 0H0.556641C0.249184 0 0 0.249184 0 0.556641V18.4062C0 18.7137 0.249184 18.9629 0.556641 18.9629H18.4434C18.7508 18.9629 19 18.7137 19 18.4062V0.556641C19 0.249184 18.7508 0 18.4434 0ZM17.8867 8.94336H15.6602C15.0463 8.94336 14.5469 9.44274 14.5469 10.0566V10.6669C14.5469 10.9841 14.2888 11.2421 13.9717 11.2421C13.6545 11.2421 13.3965 10.9841 13.3965 10.6669V10.0566C13.3965 9.44274 12.8971 8.94336 12.2832 8.94336H10.0566V6.7168H10.6669C11.5978 6.7168 12.3554 5.95939 12.3554 5.02832C12.3554 4.09725 11.5978 3.33984 10.6669 3.33984H10.0566V1.11328H17.8867V8.94336ZM1.11328 1.11328H8.94336V3.33984C8.94336 3.95374 9.44274 4.45312 10.0566 4.45312H10.6669C10.9841 4.45312 11.2421 4.71115 11.2421 5.02832C11.2421 5.34549 10.9841 5.60352 10.6669 5.60352H10.0566C9.44274 5.60352 8.94336 6.1029 8.94336 6.7168V8.94336H1.11328V1.11328ZM1.11328 10.0566H8.94336V12.2832H8.33105C7.39999 12.2832 6.64258 13.0406 6.64258 13.9717C6.64258 14.9027 7.39999 15.6602 8.33105 15.6602H8.94336V17.8496H1.11328V10.0566ZM17.8867 17.8496H10.0566V15.6602C10.0566 15.0463 9.55726 14.5469 8.94336 14.5469H8.33105C8.01389 14.5469 7.75586 14.2888 7.75586 13.9717C7.75586 13.6545 8.01389 13.3965 8.33105 13.3965H8.94336C9.55726 13.3965 10.0566 12.8971 10.0566 12.2832V10.0566H12.2832V10.6669C12.2832 11.5978 13.0406 12.3554 13.9717 12.3554C14.9027 12.3554 15.6602 11.5978 15.6602 10.6669V10.0566H17.8867V17.8496Z" fill="#2D2D2D"/>
</g>
<defs>
<clipPath id="clip0_429_20826">
<rect width="19" height="19" fill="white"/>
</clipPath>
</defs>
</svg>
