<svg width="35" height="35" viewBox="0 0 35 35" fill="none" xmlns="http://www.w3.org/2000/svg">
<path d="M14.1537 19.3083C14.0438 19.3083 11.7383 19.309 10.675 19.308C10.1276 19.3076 9.9323 19.1109 9.9323 18.56C9.9316 17.145 9.93125 15.7299 9.9323 14.3149C9.93265 13.771 10.1392 13.5634 10.6796 13.5631C11.7429 13.5624 14.0357 13.5627 14.1537 13.5627C14.1537 13.4658 14.1533 11.4228 14.1537 10.482C14.1544 9.09112 14.4025 7.75972 15.1092 6.54067C15.8326 5.29292 16.8854 4.43822 18.2347 3.94402C19.0988 3.62727 19.9959 3.50092 20.9129 3.50022C22.0602 3.49952 23.2075 3.50057 24.3551 3.50267C24.8483 3.50337 25.067 3.72142 25.0681 4.21807C25.0702 5.54912 25.0702 6.88017 25.0681 8.21087C25.0674 8.71277 24.8577 8.91437 24.3534 8.91997C23.4129 8.93012 22.4718 8.92382 21.5324 8.96162C20.5835 8.96162 20.0844 9.42502 20.0844 10.4071C20.0617 11.4459 20.075 12.4858 20.075 13.5624C20.1639 13.5624 22.8641 13.562 24.1262 13.5624C24.6995 13.5624 24.8955 13.7594 24.8955 14.3359C24.8955 15.7432 24.8952 17.1509 24.8941 18.5583C24.8938 19.1263 24.7097 19.3076 24.1329 19.308C22.8708 19.3087 20.181 19.3083 20.0634 19.3083V30.6991C20.0634 31.3063 19.8723 31.4999 19.2731 31.4999C17.8122 31.4999 16.351 31.5002 14.8901 31.4999C14.3605 31.4999 14.154 31.2941 14.154 30.7645C14.1537 27.0549 14.1537 19.4385 14.1537 19.3083Z" fill="#3D6AD6"/>
</svg>
