<svg width="18" height="19" viewBox="0 0 18 19" fill="none" xmlns="http://www.w3.org/2000/svg">
<g clip-path="url(#clip0_373_3820)">
<path d="M14.1382 10.9609C12.0717 10.9609 10.3906 12.6422 10.3906 14.7085C10.3906 16.775 12.0717 18.4561 14.1382 18.4561C16.2047 18.4561 17.8858 16.775 17.8858 14.7085C17.8858 12.6422 16.2047 10.9609 14.1382 10.9609ZM14.1382 16.9571C12.8981 16.9571 11.8897 15.9486 11.8897 14.7085C11.8897 13.4686 12.8981 12.46 14.1382 12.46C15.3783 12.46 16.3868 13.4686 16.3868 14.7085C16.3868 15.9486 15.3783 16.9571 14.1382 16.9571Z" fill="#00081E"/>
<path d="M0.105469 7.96274H8.68483L4.39487 0.456055L0.105469 7.96274ZM2.68833 6.46371L4.39487 3.47736L6.1016 6.46371H2.68833Z" fill="#00081E"/>
<path d="M10.3906 7.96293H17.8858V0.467773H10.3906V7.96293ZM11.8897 1.96681H16.3868V6.4639H11.8897V1.96681Z" fill="#00081E"/>
<path d="M1.77117 18.3923L4.39447 15.769L7.01778 18.3923L8.07801 17.332L5.4547 14.7087L8.07801 12.0854L7.01778 11.0254L4.39447 13.6487L1.77117 11.0254L0.710938 12.0854L3.33424 14.7087L0.710938 17.332L1.77117 18.3923Z" fill="#00081E"/>
</g>
<defs>
<clipPath id="clip0_373_3820">
<rect width="18" height="18" fill="white" transform="translate(0 0.456055)"/>
</clipPath>
</defs>
</svg>
