<svg width="15" height="15" viewBox="0 0 15 15" fill="none" xmlns="http://www.w3.org/2000/svg">
<g clip-path="url(#clip0_407_2194)">
<path d="M13.6191 3.29493C12.0447 3.29493 10.7637 2.01396 10.7637 0.439453C10.7637 0.196758 10.567 0 10.3243 0H7.97072C7.72803 0 7.53127 0.196758 7.53127 0.439453V10.0889C7.53127 11.0145 6.77819 11.7676 5.85253 11.7676C4.9269 11.7676 4.17385 11.0145 4.17385 10.0889C4.17385 9.16321 4.9269 8.41014 5.85253 8.41014C6.09523 8.41014 6.29198 8.21338 6.29198 7.97068V5.61715C6.29198 5.37445 6.09523 5.1777 5.85253 5.1777C3.14453 5.1777 0.941406 7.38085 0.941406 10.0889C0.941436 12.7969 3.14453 15 5.85256 15C8.56059 15 10.7637 12.7969 10.7637 10.0889V5.81769C11.6384 6.28395 12.6116 6.52737 13.6192 6.52737C13.8619 6.52737 14.0586 6.33062 14.0586 6.08792V3.73438C14.0586 3.49169 13.8618 3.29493 13.6191 3.29493ZM13.1797 5.63027C12.2415 5.55226 11.3506 5.22451 10.5809 4.67077C10.4471 4.5745 10.2706 4.56123 10.1238 4.63641C9.97712 4.71161 9.88481 4.86261 9.88481 5.02749V10.0889C9.88481 12.3122 8.07593 14.1211 5.85253 14.1211C3.62916 14.1211 1.82031 12.3122 1.82031 10.0889C1.82031 8.01393 3.39564 6.30003 5.41308 6.08039V7.56902C4.21141 7.77791 3.29494 8.82838 3.29494 10.0889C3.29494 11.4991 4.44227 12.6465 5.85253 12.6465C7.26282 12.6465 8.41018 11.4991 8.41018 10.0889V0.878906H9.9105C10.1117 2.5875 11.4711 3.9469 13.1796 4.14812V5.63027H13.1797Z" fill="#212121"/>
</g>
<defs>
<clipPath id="clip0_407_2194">
<rect width="15" height="15" fill="white"/>
</clipPath>
</defs>
</svg>
