<svg width="42" height="42" viewBox="0 0 42 42" fill="none" xmlns="http://www.w3.org/2000/svg">
<rect width="42" height="42" fill="#01C070"/>
<g clip-path="url(#clip0_601_2)">
<path d="M21.552 9C21.5458 9.00616 21.5335 9.00616 21.515 9.00616C15.2787 9.00616 10.207 14.0778 10.207 20.3141C10.207 22.8592 11.0759 25.3303 12.6658 27.3208L11.0205 31.1415C10.8849 31.4557 11.0328 31.8193 11.3409 31.9487C11.4518 31.998 11.5751 32.0104 11.6922 31.9919L17.7251 30.9319C18.933 31.3695 20.2024 31.5913 21.4842 31.5851C27.7205 31.5851 32.7922 26.5135 32.7922 20.2772C32.8045 14.0593 27.7698 9.00616 21.552 9ZM21.4904 30.3588C20.301 30.3588 19.124 30.1432 18.0086 29.7241C17.9039 29.681 17.7929 29.6748 17.682 29.6933L12.6042 30.5807L13.9476 27.4564C14.04 27.2407 14.0031 26.988 13.849 26.8093C13.1218 25.9651 12.5426 25.0037 12.1359 23.9623C11.6798 22.7976 11.4457 21.5589 11.4457 20.308C11.4457 14.7495 15.9689 10.2325 21.5212 10.2325C27.0612 10.2202 31.5597 14.7002 31.5659 20.2402C31.5659 20.2525 31.5659 20.2648 31.5659 20.2772C31.5659 25.8418 27.0427 30.3588 21.4904 30.3588Z" fill="white"/>
<path d="M21.0103 18.04H17.6826C17.3437 18.04 17.0664 18.3173 17.0664 18.6563C17.0664 18.9952 17.3437 19.2725 17.6826 19.2725H21.0103C21.3493 19.2725 21.6266 18.9952 21.6266 18.6563C21.6266 18.3173 21.3493 18.04 21.0103 18.04Z" fill="white"/>
<path d="M25.324 21.1211H17.6826C17.3437 21.1211 17.0664 21.3984 17.0664 21.7373C17.0664 22.0763 17.3437 22.3536 17.6826 22.3536H25.324C25.6629 22.3536 25.9402 22.0763 25.9402 21.7373C25.9402 21.3984 25.6629 21.1211 25.324 21.1211Z" fill="white"/>
</g>
<defs>
<clipPath id="clip0_601_2">
<rect width="23" height="23" fill="white" transform="translate(10 9)"/>
</clipPath>
</defs>
</svg>
