<svg width="21" height="20" viewBox="0 0 21 20" fill="none" xmlns="http://www.w3.org/2000/svg">
<path d="M19.1543 11.1662H17.5854L20.9092 3.41051C21.0431 3.09822 20.8984 2.7365 20.5861 2.60267C20.2738 2.46883 19.9121 2.61349 19.7783 2.92579L16.2467 11.1662H4.75334L1.22173 2.92579C1.0879 2.61349 0.726264 2.46875 0.413889 2.60267C0.101596 2.7365 -0.0430664 3.09818 0.0907676 3.41051L3.41463 11.1662H1.8457C0.827982 11.1662 0 11.9942 0 13.0119V16.7033C0 17.721 0.827982 18.549 1.8457 18.549H2.50195V19.2053C2.50195 19.545 2.77741 19.8205 3.11719 19.8205C3.45696 19.8205 3.73242 19.545 3.73242 19.2053V18.549H17.2676V19.2053C17.2676 19.545 17.543 19.8205 17.8828 19.8205C18.2226 19.8205 18.498 19.545 18.498 19.2053V18.549H19.1543C20.172 18.549 21 17.721 21 16.7033V13.0119C21 11.9942 20.172 11.1662 19.1543 11.1662ZM19.7695 16.7033C19.7695 17.0425 19.4935 17.3185 19.1543 17.3185H1.8457C1.50646 17.3185 1.23047 17.0425 1.23047 16.7033V13.0119C1.23047 12.6727 1.50646 12.3967 1.8457 12.3967H19.1543C19.4935 12.3967 19.7695 12.6727 19.7695 13.0119V16.7033Z" fill="black"/>
<path d="M9.19778 8.01589C8.95751 8.25616 8.95751 8.64569 9.19778 8.88596C9.43801 9.12623 9.82758 9.12623 10.0678 8.88596C10.1354 8.8184 10.2815 8.70508 10.5004 8.70508C10.7193 8.70508 10.8654 8.8184 10.9329 8.88596C11.1732 9.12623 11.5627 9.12627 11.803 8.88596C12.0433 8.64569 12.0433 8.25616 11.803 8.01589C11.6008 7.81377 11.1628 7.47461 10.5004 7.47461C9.83799 7.47461 9.39995 7.81377 9.19778 8.01589Z" fill="black"/>
<path d="M4.84337 3.66774C6.3548 2.15525 8.36342 1.32227 10.4993 1.32227C12.6351 1.32227 14.6437 2.15525 16.1552 3.66774C16.3952 3.90801 16.7847 3.90834 17.0252 3.66807C17.2656 3.42793 17.2657 3.03836 17.0255 2.79801C15.2817 1.05288 12.964 0.0917969 10.4993 0.0917969C8.03455 0.0917969 5.71684 1.05287 3.97302 2.79797C3.73283 3.03832 3.73296 3.42784 3.97335 3.66803C4.21366 3.90822 4.60327 3.90805 4.84337 3.66774Z" fill="black"/>
<path d="M15.285 5.40746C15.5254 5.16736 15.5256 4.77779 15.2855 4.5374C14.0069 3.25759 12.3076 2.55273 10.5003 2.55273C8.69302 2.55273 6.99362 3.25759 5.71512 4.5374C5.47501 4.77779 5.47518 5.16732 5.71557 5.40746C5.95596 5.64761 6.34553 5.6474 6.58563 5.40701C7.63166 4.35988 9.02192 3.7832 10.5002 3.7832C11.9786 3.7832 13.3688 4.35988 14.4149 5.40701C14.6549 5.64728 15.0444 5.64777 15.285 5.40746Z" fill="black"/>
<path d="M13.5437 7.14632C13.784 6.90605 13.784 6.51653 13.5437 6.27626C12.7295 5.46205 11.6485 5.01367 10.4996 5.01367C9.35084 5.01367 8.26975 5.46205 7.45559 6.27626C7.21532 6.51653 7.21532 6.90605 7.45559 7.14632C7.69582 7.38659 8.08539 7.38663 8.32566 7.14632C8.90742 6.56455 9.6795 6.24414 10.4996 6.24414C11.3198 6.24414 12.0919 6.56455 12.6737 7.14632C12.9139 7.38659 13.3035 7.38659 13.5437 7.14632Z" fill="black"/>
<path d="M12.9609 13.627C12.6212 13.627 12.3457 13.9024 12.3457 14.2422V15.4727C12.3457 15.8124 12.6212 16.0879 12.9609 16.0879C13.3007 16.0879 13.5762 15.8124 13.5762 15.4727V14.2422C13.5762 13.9024 13.3007 13.627 12.9609 13.627Z" fill="black"/>
<path d="M15.4219 13.627C15.0821 13.627 14.8066 13.9024 14.8066 14.2422V15.4727C14.8066 15.8124 15.0821 16.0879 15.4219 16.0879C15.7616 16.0879 16.0371 15.8124 16.0371 15.4727V14.2422C16.0371 13.9024 15.7616 13.627 15.4219 13.627Z" fill="black"/>
<path d="M17.8828 13.627C17.543 13.627 17.2676 13.9024 17.2676 14.2422V15.4727C17.2676 15.8124 17.543 16.0879 17.8828 16.0879C18.2226 16.0879 18.498 15.8124 18.498 15.4727V14.2422C18.498 13.9024 18.2226 13.627 17.8828 13.627Z" fill="black"/>
</svg>
