<svg width="32" height="24" viewBox="0 0 32 24" fill="none" xmlns="http://www.w3.org/2000/svg">
<path d="M32 2.84123C30.81 3.32308 29.542 3.64246 28.22 3.79754C29.58 3.048 30.618 1.87015 31.106 0.450461C29.838 1.14831 28.438 1.64123 26.946 1.91631C25.742 0.732923 24.026 0 22.154 0C18.522 0 15.598 2.72123 15.598 6.05723C15.598 6.53723 15.642 6.99877 15.75 7.43815C10.296 7.19262 5.47 4.77969 2.228 1.104C1.662 2.01046 1.33 3.048 1.33 4.16492C1.33 6.26215 2.5 8.12123 4.244 9.19754C3.19 9.17908 2.156 8.89662 1.28 8.45169C1.28 8.47015 1.28 8.49415 1.28 8.51815C1.28 11.4609 3.554 13.9052 6.536 14.4683C6.002 14.6031 5.42 14.6677 4.816 14.6677C4.396 14.6677 3.972 14.6455 3.574 14.5643C4.424 16.9625 6.836 18.7255 9.704 18.7828C7.472 20.3945 4.638 21.3655 1.57 21.3655C1.032 21.3655 0.516 21.3434 0 21.2825C2.906 23.0123 6.35 24 10.064 24C22.136 24 28.736 14.7692 28.736 6.768C28.736 6.50031 28.726 6.24185 28.712 5.98523C30.014 5.13231 31.108 4.06708 32 2.84123Z" fill="#03A9F4"/>
</svg>
