<svg width="22" height="23" viewBox="0 0 22 23" fill="none" xmlns="http://www.w3.org/2000/svg">
<path d="M18.9062 2.51855H3.09375C3.00258 2.51855 2.91515 2.55477 2.85068 2.61924C2.78622 2.6837 2.75 2.77114 2.75 2.8623V14.2061C2.75 14.2972 2.78622 14.3847 2.85068 14.4491C2.91515 14.5136 3.00258 14.5498 3.09375 14.5498H4.125V18.3311H3.09375C3.00258 18.3311 2.91515 18.3673 2.85068 18.4317C2.78622 18.4962 2.75 18.5836 2.75 18.6748V20.0498C2.75 20.141 2.78622 20.2284 2.85068 20.2929C2.91515 20.3573 3.00258 20.3936 3.09375 20.3936H18.9062C18.9974 20.3936 19.0849 20.3573 19.1493 20.2929C19.2138 20.2284 19.25 20.141 19.25 20.0498V18.6748C19.25 18.5836 19.2138 18.4962 19.1493 18.4317C19.0849 18.3673 18.9974 18.3311 18.9062 18.3311H17.875V14.5498H18.9062C18.9974 14.5498 19.0849 14.5136 19.1493 14.4491C19.2138 14.3847 19.25 14.2972 19.25 14.2061V2.8623C19.25 2.77114 19.2138 2.6837 19.1493 2.61924C19.0849 2.55477 18.9974 2.51855 18.9062 2.51855ZM3.4375 3.20605H18.5625V9.0498H3.4375V3.20605ZM18.5625 19.7061H3.4375V19.0186H18.5625V19.7061ZM4.8125 18.3311V12.4873H5.51719C5.59573 13.8906 6.20851 15.2106 7.22973 16.1762C8.25095 17.1419 9.60311 17.68 11.0086 17.68C12.4141 17.68 13.7662 17.1419 14.7875 16.1762C15.8087 15.2106 16.4215 13.8906 16.5 12.4873H17.1875V18.3311H4.8125ZM9.31563 12.4873C9.39452 12.8758 9.60531 13.2252 9.91229 13.4761C10.2193 13.727 10.6035 13.864 11 13.864C11.3965 13.864 11.7807 13.727 12.0877 13.4761C12.3947 13.2252 12.6055 12.8758 12.6844 12.4873H15.8125C15.7107 13.689 15.1614 14.8087 14.2733 15.6247C13.3852 16.4406 12.2232 16.8934 11.0172 16.8934C9.81118 16.8934 8.64913 16.4406 7.76108 15.6247C6.87303 14.8087 6.32371 13.689 6.22188 12.4873H9.31563ZM10.0306 12.4873H11.9694C11.8971 12.6864 11.7653 12.8584 11.5919 12.98C11.4184 13.1015 11.2118 13.1667 11 13.1667C10.7882 13.1667 10.5816 13.1015 10.4081 12.98C10.2347 12.8584 10.1029 12.6864 10.0306 12.4873ZM18.5625 13.8623H17.875V12.1436C17.875 12.0524 17.8388 11.965 17.7743 11.9005C17.7099 11.836 17.6224 11.7998 17.5312 11.7998H4.46875C4.37758 11.7998 4.29015 11.836 4.22568 11.9005C4.16122 11.965 4.125 12.0524 4.125 12.1436V13.8623H3.4375V9.7373H18.5625V13.8623Z" fill="white"/>
<path d="M17.5312 11.1123C17.6224 11.1123 17.7099 11.0761 17.7743 11.0116C17.8388 10.9472 17.875 10.8597 17.875 10.7686C17.875 10.6774 17.8388 10.59 17.7743 10.5255C17.7099 10.461 17.6224 10.4248 17.5312 10.4248C17.4401 10.4248 17.3526 10.461 17.2882 10.5255C17.2237 10.59 17.1875 10.6774 17.1875 10.7686C17.1875 10.8597 17.2237 10.9472 17.2882 11.0116C17.3526 11.0761 17.4401 11.1123 17.5312 11.1123Z" fill="white"/>
<path d="M16.1562 11.1123C16.2474 11.1123 16.3349 11.0761 16.3993 11.0116C16.4638 10.9472 16.5 10.8597 16.5 10.7686C16.5 10.6774 16.4638 10.59 16.3993 10.5255C16.3349 10.461 16.2474 10.4248 16.1562 10.4248C16.0651 10.4248 15.9776 10.461 15.9132 10.5255C15.8487 10.59 15.8125 10.6774 15.8125 10.7686C15.8125 10.8597 15.8487 10.9472 15.9132 11.0116C15.9776 11.0761 16.0651 11.1123 16.1562 11.1123Z" fill="white"/>
<path d="M14.7812 11.1123C14.8724 11.1123 14.9599 11.0761 15.0243 11.0116C15.0888 10.9472 15.125 10.8597 15.125 10.7686C15.125 10.6774 15.0888 10.59 15.0243 10.5255C14.9599 10.461 14.8724 10.4248 14.7812 10.4248C14.6901 10.4248 14.6026 10.461 14.5382 10.5255C14.4737 10.59 14.4375 10.6774 14.4375 10.7686C14.4375 10.8597 14.4737 10.9472 14.5382 11.0116C14.6026 11.0761 14.6901 11.1123 14.7812 11.1123Z" fill="white"/>
<path d="M9.91344 15.0417C9.95211 15.0552 9.99278 15.0622 10.0337 15.0623C10.1149 15.0631 10.1936 15.0351 10.2561 14.9834C10.3185 14.9316 10.3607 14.8595 10.3751 14.7796C10.3895 14.6998 10.3752 14.6175 10.3348 14.5472C10.2943 14.4769 10.2303 14.4231 10.1541 14.3955C9.70639 14.2282 9.31867 13.9314 9.04031 13.543C8.98722 13.4694 8.9072 13.4198 8.81769 13.405C8.72819 13.3902 8.63646 13.4114 8.5625 13.4639C8.48894 13.517 8.43934 13.597 8.42453 13.6865C8.40972 13.776 8.4309 13.8678 8.48344 13.9417C8.84023 14.4423 9.33807 14.8253 9.91344 15.0417Z" fill="white"/>
<path d="M4.125 8.01855C4.05701 8.01855 3.99055 8.03871 3.93402 8.07649C3.87749 8.11426 3.83343 8.16795 3.80742 8.23076C3.7814 8.29357 3.77459 8.36269 3.78786 8.42937C3.80112 8.49605 3.83386 8.5573 3.88193 8.60537C3.93001 8.65345 3.99126 8.68619 4.05794 8.69945C4.12462 8.71271 4.19374 8.70591 4.25655 8.67989C4.31936 8.65387 4.37305 8.60981 4.41082 8.55328C4.44859 8.49675 4.46875 8.43029 4.46875 8.3623C4.46875 8.27114 4.43253 8.1837 4.36807 8.11924C4.3036 8.05477 4.21617 8.01855 4.125 8.01855Z" fill="white"/>
<path d="M4.125 3.5498C4.05701 3.5498 3.99055 3.56997 3.93402 3.60774C3.87749 3.64551 3.83343 3.6992 3.80742 3.76201C3.7814 3.82482 3.77459 3.89394 3.78786 3.96062C3.80112 4.0273 3.83386 4.08855 3.88193 4.13662C3.93001 4.1847 3.99126 4.21744 4.05794 4.2307C4.12462 4.24396 4.19374 4.23716 4.25655 4.21114C4.31936 4.18512 4.37305 4.14106 4.41082 4.08453C4.44859 4.028 4.46875 3.96154 4.46875 3.89355C4.46875 3.80239 4.43253 3.71495 4.36807 3.65049C4.3036 3.58602 4.21617 3.5498 4.125 3.5498Z" fill="white"/>
<path d="M17.875 8.01855C17.807 8.01855 17.7406 8.03871 17.684 8.07649C17.6275 8.11426 17.5834 8.16795 17.5574 8.23076C17.5314 8.29357 17.5246 8.36269 17.5379 8.42937C17.5511 8.49605 17.5839 8.5573 17.6319 8.60537C17.68 8.65345 17.7413 8.68619 17.8079 8.69945C17.8746 8.71271 17.9437 8.70591 18.0065 8.67989C18.0694 8.65387 18.123 8.60981 18.1608 8.55328C18.1986 8.49675 18.2188 8.43029 18.2188 8.3623C18.2188 8.27114 18.1825 8.1837 18.1181 8.11924C18.0536 8.05477 17.9662 8.01855 17.875 8.01855Z" fill="white"/>
<path d="M17.875 3.5498C17.807 3.5498 17.7406 3.56997 17.684 3.60774C17.6275 3.64551 17.5834 3.6992 17.5574 3.76201C17.5314 3.82482 17.5246 3.89394 17.5379 3.96062C17.5511 4.0273 17.5839 4.08855 17.6319 4.13662C17.68 4.1847 17.7413 4.21744 17.8079 4.2307C17.8746 4.24396 17.9437 4.23716 18.0065 4.21114C18.0694 4.18512 18.123 4.14106 18.1608 4.08453C18.1986 4.028 18.2188 3.96154 18.2188 3.89355C18.2188 3.80239 18.1825 3.71495 18.1181 3.65049C18.0536 3.58602 17.9662 3.5498 17.875 3.5498Z" fill="white"/>
</svg>
