<svg width="20" height="20" viewBox="0 0 20 20" fill="none" xmlns="http://www.w3.org/2000/svg">
<path fill-rule="evenodd" clip-rule="evenodd" d="M2.49984 1.66699C2.0396 1.66699 1.6665 2.04009 1.6665 2.50033V8.33366C1.6665 8.79391 2.0396 9.16699 2.49984 9.16699H8.33317C8.79342 9.16699 9.1665 8.79391 9.1665 8.33366V2.50033C9.1665 2.04009 8.79342 1.66699 8.33317 1.66699H2.49984ZM3.33317 7.50033V3.33366H7.49984V7.50033H3.33317Z" fill="white"/>
<path fill-rule="evenodd" clip-rule="evenodd" d="M2.49984 10.834C2.0396 10.834 1.6665 11.2071 1.6665 11.6673V17.5007C1.6665 17.9609 2.0396 18.334 2.49984 18.334H8.33317C8.79342 18.334 9.1665 17.9609 9.1665 17.5007V11.6673C9.1665 11.2071 8.79342 10.834 8.33317 10.834H2.49984ZM3.33317 16.6673V12.5007H7.49984V16.6673H3.33317Z" fill="white"/>
<path fill-rule="evenodd" clip-rule="evenodd" d="M10.833 5.41699C10.833 3.34593 12.5119 1.66699 14.583 1.66699C16.6541 1.66699 18.333 3.34593 18.333 5.41699C18.333 7.48806 16.6541 9.16699 14.583 9.16699H11.6663C11.2061 9.16699 10.833 8.79391 10.833 8.33366V5.41699ZM14.583 3.33366C13.4324 3.33366 12.4997 4.2664 12.4997 5.41699V7.50033H14.583C15.7336 7.50033 16.6663 6.56758 16.6663 5.41699C16.6663 4.2664 15.7336 3.33366 14.583 3.33366Z" fill="white"/>
<path fill-rule="evenodd" clip-rule="evenodd" d="M11.6663 10.834C11.2061 10.834 10.833 11.2071 10.833 11.6673V17.5007C10.833 17.9609 11.2061 18.334 11.6663 18.334H17.4997C17.9599 18.334 18.333 17.9609 18.333 17.5007V11.6673C18.333 11.2071 17.9599 10.834 17.4997 10.834H11.6663ZM12.4997 16.6673V12.5007H16.6663V16.6673H12.4997Z" fill="white"/>
</svg>
