<svg width="150" height="98" viewBox="0 0 150 98" fill="none" xmlns="http://www.w3.org/2000/svg">
<g clip-path="url(#clip0_223_1480)">
<path d="M10.617 29.7344H10.5918C9.94632 29.7344 9.43359 30.2585 9.43359 30.9063C9.43359 31.5541 9.96917 32.0782 10.617 32.0782C11.2624 32.0782 11.7889 31.5541 11.7889 30.9063C11.7889 30.2585 11.2624 29.7344 10.617 29.7344Z" fill="white"/>
<path d="M148.828 13.3281C148.18 13.3281 147.656 13.8523 147.656 14.5001V80.125C147.656 80.7728 148.18 81.2969 148.828 81.2969C149.476 81.2969 150 80.7728 150 80.125V14.5001C150 13.8523 149.476 13.3281 148.828 13.3281Z" fill="white"/>
<path d="M5.85944 13.3281C5.21165 13.3281 4.6875 13.8523 4.6875 14.5001V96.5315C4.6875 97.1793 5.21165 97.7035 5.85944 97.7035C6.50723 97.7035 7.03137 97.1793 7.03137 96.5315V14.5001C7.03137 13.8523 6.50723 13.3281 5.85944 13.3281Z" fill="white"/>
<path d="M148.828 13.3281H5.85944C5.21165 13.3281 4.6875 13.8523 4.6875 14.5001C4.6875 15.1478 5.21165 15.672 5.85944 15.672H148.828C149.476 15.672 150 15.1478 150 14.5001C150 13.8523 149.476 13.3281 148.828 13.3281Z" fill="white"/>
<path d="M148.828 78.9531H5.85944C5.21165 78.9531 4.6875 79.4773 4.6875 80.1251C4.6875 80.7728 5.21165 81.297 5.85944 81.297H148.828C149.476 81.297 150 80.7728 150 80.1251C150 79.4773 149.476 78.9531 148.828 78.9531Z" fill="white"/>
<path d="M5.85939 22.7031H1.17194C0.524149 22.7031 0 23.2273 0 23.8751C0 24.5228 0.524149 25.047 1.17194 25.047H5.85939C6.50718 25.047 7.03133 24.5228 7.03133 23.8751C7.03133 23.2273 6.50718 22.7031 5.85939 22.7031Z" fill="white"/>
<path d="M15.2344 18.0156C14.5866 18.0156 14.0625 18.5401 14.0625 19.1876V75.4379C14.0625 76.0857 14.5866 76.6098 15.2344 76.6098C15.8822 76.6098 16.4064 76.0857 16.4064 75.4379V19.1876C16.4064 18.5398 15.8822 18.0156 15.2344 18.0156Z" fill="white"/>
<path d="M10.5469 18.0156C9.89915 18.0156 9.375 18.5401 9.375 19.1876V26.2189C9.375 26.8667 9.89915 27.3908 10.5469 27.3908C11.1947 27.3908 11.7189 26.8667 11.7189 26.2189V19.1876C11.7189 18.5398 11.1947 18.0156 10.5469 18.0156Z" fill="white"/>
<path d="M1.17194 67.2344C0.524149 67.2344 0 67.7579 0 68.4057V75.4374C0 76.0851 0.524149 76.6093 1.17194 76.6093C1.81972 76.6093 2.34358 76.0851 2.34387 75.4374V68.4057C2.34387 67.7579 1.81972 67.2344 1.17194 67.2344Z" fill="white"/>
<path d="M5.85956 62.5469H3.51569C2.8679 62.5469 2.34375 63.071 2.34375 63.7188C2.34375 64.3666 2.86819 64.8907 3.51569 64.8907H5.85956C6.50735 64.8907 7.0315 64.3666 7.0315 63.7188C7.0315 63.071 6.50735 62.5469 5.85956 62.5469Z" fill="white"/>
<path d="M5.85956 78.9531H3.51569C2.8679 78.9531 2.34375 79.4773 2.34375 80.1251C2.34375 80.7728 2.86819 81.297 3.51569 81.297H5.85956C6.50735 81.297 7.0315 80.7728 7.0315 80.1251C7.0315 79.4773 6.50735 78.9531 5.85956 78.9531Z" fill="white"/>
<path d="M15.2344 81.2969C14.5866 81.2969 14.0625 81.821 14.0625 82.4688V84.8127C14.0625 85.4605 14.5866 85.9846 15.2344 85.9846C15.8822 85.9846 16.4064 85.4605 16.4064 84.8127V82.4688C16.4064 81.821 15.8822 81.2969 15.2344 81.2969Z" fill="white"/>
<path d="M15.2344 83.6406H10.5469C9.89915 83.6406 9.375 84.1648 9.375 84.8126C9.375 85.4603 9.89915 85.9845 10.5469 85.9845H15.2344C15.8822 85.9845 16.4063 85.4603 16.4063 84.8126C16.4063 84.1648 15.8822 83.6406 15.2344 83.6406Z" fill="white"/>
<path d="M10.5469 81.2969C9.89915 81.2969 9.375 81.821 9.375 82.4688V84.8127C9.375 85.4605 9.89915 85.9846 10.5469 85.9846C11.1947 85.9846 11.7189 85.4605 11.7189 84.8127V82.4688C11.7189 81.821 11.1947 81.2969 10.5469 81.2969Z" fill="white"/>
<path d="M10.5469 6.29688C9.89915 6.29688 9.375 6.82132 9.375 7.46881V12.1566C9.375 12.8043 9.89915 13.3285 10.5469 13.3285C11.1947 13.3285 11.7189 12.8043 11.7189 12.1566V7.46881C11.7189 6.82102 11.1947 6.29688 10.5469 6.29688Z" fill="white"/>
<path d="M19.9218 6.29688H10.5469C9.89915 6.29688 9.375 6.82132 9.375 7.46881C9.375 8.1166 9.89915 8.64075 10.5469 8.64075H19.9218C20.5696 8.64075 21.0938 8.11689 21.0938 7.46881C21.0938 6.82102 20.5696 6.29688 19.9218 6.29688Z" fill="white"/>
<path d="M19.9219 6.29688C19.2741 6.29688 18.75 6.82132 18.75 7.46881V12.1566C18.75 12.8043 19.2744 13.3285 19.9219 13.3285C20.5697 13.3285 21.0939 12.8043 21.0939 12.1566V7.46881C21.0939 6.82102 20.5697 6.29688 19.9219 6.29688Z" fill="white"/>
<path d="M15.2344 6.29688C14.5866 6.29688 14.0625 6.82132 14.0625 7.46881V9.81269C14.0625 10.4605 14.5866 10.9846 15.2344 10.9846C15.8822 10.9846 16.4064 10.4605 16.4064 9.81269V7.46881C16.4064 6.82102 15.8822 6.29688 15.2344 6.29688Z" fill="white"/>
<path d="M5.85944 10.9844C5.21165 10.9844 4.6875 11.5085 4.6875 12.1563V14.4999C4.6875 15.1477 5.21165 15.6718 5.85944 15.6718C6.50723 15.6718 7.03137 15.1477 7.03137 14.4999V12.1563C7.03137 11.5085 6.50723 10.9844 5.85944 10.9844Z" fill="white"/>
<path d="M24.6094 8.64062C23.9616 8.64062 23.4375 9.16477 23.4375 9.81256V12.1564C23.4375 12.8042 23.9616 13.3284 24.6094 13.3284C25.2572 13.3284 25.7814 12.8042 25.7814 12.1564V9.81256C25.7814 9.16477 25.2569 8.64062 24.6094 8.64062Z" fill="white"/>
<path d="M36.8522 11.1079L32.1647 8.76401C31.5858 8.47777 30.8853 8.7101 30.5923 9.28816C30.304 9.8671 30.5372 10.5711 31.1164 10.8606L35.8039 13.2045C35.9732 13.288 36.1516 13.3281 36.328 13.3281C36.7561 13.3281 37.1704 13.0911 37.3763 12.6803C37.6646 12.1014 37.4314 11.3974 36.8522 11.1079Z" fill="white"/>
<path d="M46.2272 11.1079L41.5397 8.76401C40.9605 8.47777 40.2579 8.7101 39.9673 9.28816C39.679 9.8671 39.9122 10.5711 40.4914 10.8606L45.1789 13.2045C45.3482 13.288 45.5266 13.3281 45.703 13.3281C46.1311 13.3281 46.5454 13.0911 46.7513 12.6803C47.0396 12.1014 46.8064 11.3974 46.2272 11.1079Z" fill="white"/>
<path d="M55.6022 11.1079L50.9147 8.76401C50.3378 8.47777 49.6329 8.7101 49.3423 9.28816C49.054 9.8671 49.2872 10.5711 49.8664 10.8606L54.5539 13.2045C54.7232 13.288 54.9016 13.3281 55.078 13.3281C55.5061 13.3281 55.9201 13.0911 56.1263 12.6803C56.4146 12.1014 56.1814 11.3974 55.6022 11.1079Z" fill="white"/>
<path d="M64.9772 11.1079L60.2897 8.76401C59.7108 8.47777 59.0103 8.7101 58.7173 9.28816C58.429 9.8671 58.6622 10.5711 59.2414 10.8606L63.9289 13.2045C64.0982 13.288 64.2766 13.3281 64.453 13.3281C64.8811 13.3281 65.2954 13.0911 65.5013 12.6803C65.7896 12.1014 65.5564 11.3974 64.9772 11.1079Z" fill="white"/>
<path d="M74.3522 11.1079L69.6647 8.76401C69.0858 8.47777 68.3829 8.7101 68.0923 9.28816C67.804 9.8671 68.0372 10.5711 68.6164 10.8606L73.3039 13.2045C73.4732 13.288 73.6516 13.3281 73.828 13.3281C74.2561 13.3281 74.6704 13.0911 74.8763 12.6803C75.1646 12.1014 74.9314 11.3974 74.3522 11.1079Z" fill="white"/>
<path d="M83.7269 11.1079L79.0394 8.76401C78.4625 8.47777 77.7579 8.7101 77.4673 9.28816C77.179 9.8671 77.4122 10.5711 77.9914 10.8606L82.6786 13.2045C82.8479 13.288 83.0264 13.3281 83.2027 13.3281C83.6308 13.3281 84.0451 13.0911 84.251 12.6803C84.5393 12.1014 84.3061 11.3974 83.7269 11.1079Z" fill="white"/>
<path d="M93.1019 11.1079L88.4147 8.76401C87.8358 8.47777 87.1353 8.7101 86.8423 9.28816C86.554 9.8671 86.7872 10.5711 87.3664 10.8606L92.0539 13.2045C92.2232 13.288 92.4016 13.3281 92.578 13.3281C93.0061 13.3281 93.4201 13.0911 93.626 12.6803C93.9143 12.1014 93.6811 11.3974 93.1019 11.1079Z" fill="white"/>
<path d="M102.477 11.1079L97.7897 8.76401C97.2108 8.47777 96.5079 8.7101 96.2173 9.28816C95.929 9.8671 96.1622 10.5711 96.7414 10.8606L101.429 13.2045C101.598 13.288 101.777 13.3281 101.953 13.3281C102.381 13.3281 102.795 13.0911 103.001 12.6803C103.29 12.1014 103.056 11.3974 102.477 11.1079Z" fill="white"/>
<path d="M111.852 11.1079L107.165 8.76401C106.588 8.47777 105.883 8.7101 105.592 9.28816C105.304 9.8671 105.537 10.5711 106.116 10.8606L110.804 13.2045C110.973 13.288 111.152 13.3281 111.328 13.3281C111.756 13.3281 112.17 13.0911 112.376 12.6803C112.665 12.1014 112.431 11.3974 111.852 11.1079Z" fill="white"/>
<path d="M121.227 11.1079L116.54 8.76401C115.961 8.47777 115.26 8.7101 114.967 9.28816C114.679 9.8671 114.912 10.5711 115.491 10.8606L120.179 13.2045C120.349 13.288 120.527 13.3281 120.703 13.3281C121.131 13.3281 121.545 13.0911 121.751 12.6803C122.04 12.1014 121.806 11.3974 121.227 11.1079Z" fill="white"/>
<path d="M130.602 11.1079L125.914 8.76401C125.335 8.47777 124.633 8.7101 124.342 9.28816C124.054 9.8671 124.287 10.5711 124.866 10.8606L129.554 13.2045C129.723 13.288 129.902 13.3281 130.078 13.3281C130.506 13.3281 130.92 13.0911 131.126 12.6803C131.415 12.1014 131.181 11.3974 130.602 11.1079Z" fill="white"/>
<path d="M139.977 11.1079L135.29 8.76401C134.713 8.47777 134.008 8.7101 133.717 9.28816C133.429 9.8671 133.662 10.5711 134.241 10.8606L138.929 13.2045C139.098 13.288 139.277 13.3281 139.453 13.3281C139.881 13.3281 140.295 13.0911 140.501 12.6803C140.79 12.1014 140.556 11.3974 139.977 11.1079Z" fill="white"/>
<path d="M148.828 8.64062C148.18 8.64062 147.656 9.16477 147.656 9.81256V12.1564C147.656 12.8042 148.18 13.3284 148.828 13.3284C149.476 13.3284 150 12.8042 150 12.1564V9.81256C150 9.16477 149.476 8.64062 148.828 8.64062Z" fill="white"/>
<path d="M148.828 8.64062H24.6094C23.9616 8.64062 23.4375 9.16477 23.4375 9.81256C23.4375 10.4603 23.9616 10.9845 24.6094 10.9845H148.828C149.476 10.9845 150 10.4603 150 9.81256C150 9.16477 149.476 8.64062 148.828 8.64062Z" fill="white"/>
<path d="M50.3906 20.3594C35.5293 20.3594 23.4375 32.45 23.4375 47.3125C23.4375 62.1761 35.5293 74.2658 50.3906 74.2658C65.2522 74.2658 77.344 62.1761 77.344 47.3125C77.344 32.4502 65.2519 20.3594 50.3906 20.3594ZM50.3906 71.922C36.8201 71.922 25.7811 60.8806 25.7811 47.3125C25.7811 33.7435 36.8201 22.7032 50.3906 22.7032C63.961 22.7032 75.0001 33.7435 75.0001 47.3125C75.0001 60.8808 63.961 71.922 50.3906 71.922Z" fill="white"/>
<path d="M49.0941 25.6947C48.8055 25.1202 48.1073 24.8799 47.5261 25.1706C46.9471 25.4577 46.7113 26.1603 46.9952 26.7395C47.018 26.7852 49.2178 31.3537 49.2178 40.2812C49.2178 40.929 49.7422 41.4532 50.3897 41.4532C51.0375 41.4532 51.5616 40.929 51.5613 40.2815C51.5613 30.7393 49.1949 25.8963 49.0941 25.6947Z" fill="white"/>
<path d="M39.3222 27.5878C38.7866 27.233 38.0586 27.3737 37.697 27.9128C37.3375 28.4516 37.484 29.1782 38.0219 29.5377C44.4307 33.8108 44.5315 42.5391 44.5315 42.6273C44.5338 43.2728 45.058 43.7957 45.7034 43.7957L45.7055 43.796C46.3509 43.7949 46.8751 43.2719 46.8751 42.6253C46.8751 42.2168 46.788 32.5659 39.3222 27.5878Z" fill="white"/>
<path d="M48.3467 25.0857C48.136 25.0294 43.048 23.7376 37.9601 27.632C37.445 28.0258 37.3489 28.7603 37.7403 29.2742C37.9715 29.5762 38.3196 29.7342 38.672 29.7342C38.9214 29.7342 39.171 29.6551 39.3837 29.493C43.5218 26.3241 47.5752 27.3062 47.7469 27.3519C48.3789 27.5177 49.0152 27.1436 49.1799 26.5198C49.3446 25.8937 48.9739 25.2515 48.3467 25.0857Z" fill="white"/>
<path d="M50.3906 41.4531C47.1587 41.4531 44.5312 44.0821 44.5312 47.3125C44.5312 50.5433 47.1587 53.1722 50.3906 53.1722C53.6226 53.1722 56.25 50.5433 56.25 47.3125C56.25 44.0821 53.6226 41.4531 50.3906 41.4531ZM50.3906 50.8283C48.452 50.8283 46.8748 49.2512 46.8748 47.3125C46.8748 45.3738 48.452 43.797 50.3906 43.797C52.3293 43.797 53.9065 45.3741 53.9065 47.3125C53.9065 49.2515 52.3293 50.8283 50.3906 50.8283Z" fill="white"/>
<path d="M53.7849 67.8841C53.7621 67.8384 51.5626 63.2702 51.5626 54.3438C51.5626 53.696 51.0385 53.1719 50.3907 53.1719C49.7429 53.1719 49.2188 53.696 49.2188 54.3438C49.2188 63.8857 51.5852 68.7285 51.686 68.93C51.8919 69.3399 52.3039 69.5778 52.7343 69.5778C52.9083 69.5778 53.0867 69.5365 53.254 69.4542C53.833 69.1659 54.0688 68.4654 53.7849 67.8841Z" fill="white"/>
<path d="M62.7594 65.0875C56.3509 60.814 56.2501 52.0857 56.2501 51.9975C56.2478 51.3521 55.7236 50.8291 55.0782 50.8291H55.0758C54.4304 50.8303 53.9062 51.3532 53.9062 51.9999C53.9062 52.4086 53.9933 62.0595 61.4594 67.0379C61.6586 67.1706 61.8851 67.2347 62.1095 67.2347C62.4872 67.2347 62.8581 67.0516 63.0843 66.7127C63.4438 66.1724 63.2973 65.447 62.7594 65.0875Z" fill="white"/>
<path d="M63.0411 65.3512C62.645 64.8361 61.9129 64.74 61.3978 65.1338C57.2573 68.3013 53.2039 67.3174 53.0346 67.2741C52.4049 67.1115 51.7686 67.4818 51.6016 68.1044C51.4369 68.7314 51.8075 69.3724 52.4348 69.5394C52.5218 69.5626 53.4122 69.789 54.7834 69.789C56.7839 69.789 59.8028 69.3039 62.8214 66.9925C63.3365 66.5987 63.4326 65.8663 63.0411 65.3512Z" fill="white"/>
<path d="M46.2468 41.5121C39.5017 34.7635 34.4023 33.0126 34.1893 32.9417C33.5784 32.7392 32.9145 33.0665 32.7109 33.68C32.5026 34.2921 32.8322 34.956 33.4457 35.1631C33.4914 35.1804 38.2773 36.8557 44.59 43.1695C44.8191 43.3983 45.1188 43.5129 45.4185 43.5129C45.7182 43.5129 46.018 43.3983 46.2468 43.1692C46.7044 42.7115 46.7044 41.9697 46.2468 41.5121Z" fill="white"/>
<path d="M44.591 46.4841C44.3004 46.1955 37.434 39.4252 28.6152 41.1922C27.9811 41.3193 27.5689 41.9372 27.6972 42.5712C27.8253 43.2088 28.4479 43.614 29.0772 43.4903C36.6163 41.975 42.8718 48.0805 42.9336 48.1423C43.1624 48.37 43.4624 48.4834 43.7621 48.4834C44.0619 48.4834 44.3619 48.3688 44.591 48.14C45.0486 47.6824 45.0486 46.9417 44.591 46.4841Z" fill="white"/>
<path d="M34.8343 33.4656C34.5071 32.9036 33.7863 32.717 33.2323 33.0398C33.0398 33.1521 28.5287 35.8378 27.684 42.1871C27.5994 42.829 28.0503 43.4185 28.6934 43.5032C28.7438 43.5099 28.7962 43.5134 28.8489 43.5134C29.4258 43.5134 29.9295 43.0854 30.0095 42.4959C30.6962 37.3265 34.2621 35.1546 34.4086 35.0676C34.9694 34.7427 35.1592 34.0252 34.8343 33.4656Z" fill="white"/>
<path d="M67.3364 59.4619C67.2907 59.4435 62.5021 57.7679 56.1898 51.4555C55.7319 50.9979 54.9903 50.9979 54.5327 51.4555C54.075 51.9135 54.075 52.6553 54.5327 53.1129C61.2778 59.8601 66.3795 61.6136 66.5925 61.6822C66.7161 61.7235 66.8398 61.744 66.9634 61.744C67.4509 61.744 67.9062 61.4349 68.0709 60.945C68.2792 60.3341 67.9496 59.6679 67.3364 59.4619Z" fill="white"/>
<path d="M73.0866 52.0539C72.9586 51.4175 72.3175 51.0024 71.7087 51.1351C64.1488 52.6346 57.9118 46.5437 57.8476 46.4831C57.3944 46.0278 56.6505 46.0266 56.1928 46.4866C55.7352 46.9442 55.7352 47.6846 56.1928 48.1414C56.4492 48.3966 61.8712 53.7251 69.2183 53.7251C70.1705 53.7251 71.157 53.6357 72.1666 53.4332C72.803 53.3061 73.2149 52.6891 73.0866 52.0539Z" fill="white"/>
<path d="M72.0906 51.1226C71.4909 51.0332 70.8616 51.4865 70.7745 52.1296C70.0878 57.2987 66.5219 59.4709 66.3754 59.5579C65.8146 59.8831 65.6248 60.6018 65.9497 61.1602C66.1671 61.5355 66.5606 61.7438 66.9634 61.7438C67.1647 61.7438 67.3663 61.6934 67.552 61.5859C67.7442 61.4737 72.2556 58.7888 73.1 52.4387C73.1846 51.7964 72.7337 51.2072 72.0906 51.1226Z" fill="white"/>
<path d="M43.3618 46.1406C33.8175 46.1406 28.9765 48.5074 28.7753 48.6081C28.1984 48.8976 27.9649 49.5981 28.2511 50.1771C28.4547 50.5893 28.8711 50.8272 29.3015 50.8272C29.4775 50.8272 29.6539 50.7882 29.8212 50.7059C29.8646 50.6839 34.4331 48.4845 43.3618 48.4845C44.0096 48.4845 44.5337 47.9603 44.5337 47.3126C44.5337 46.6648 44.0096 46.1406 43.3618 46.1406Z" fill="white"/>
<path d="M45.7032 50.8281C45.2959 50.8281 35.6439 50.914 30.6658 58.381C30.3063 58.9212 30.4528 59.6467 30.9907 60.0061C31.1899 60.1389 31.4164 60.203 31.6408 60.203C32.0185 60.203 32.3891 60.0199 32.6159 59.6812C36.8891 53.2728 45.6162 53.172 45.7055 53.172C46.351 53.1697 46.8751 52.6446 46.8751 51.9977C46.8728 51.3523 46.3486 50.8281 45.7032 50.8281Z" fill="white"/>
<path d="M32.5723 58.3193C29.4022 54.1792 30.3886 50.1219 30.432 49.9573C30.597 49.3312 30.226 48.6901 29.5991 48.5231C28.9627 48.3561 28.3334 48.7314 28.1664 49.3552C28.1092 49.5694 26.8183 54.6576 30.7092 59.7429C30.9403 60.045 31.2884 60.2029 31.6409 60.2029C31.8902 60.2029 32.1398 60.125 32.3525 59.9606C32.8676 59.5692 32.9637 58.8344 32.5723 58.3193Z" fill="white"/>
<path d="M72.5352 44.4495C72.2513 43.869 71.5488 43.6355 70.9651 43.9194C70.9215 43.9411 66.3483 46.1406 57.4219 46.1406C56.7741 46.1406 56.25 46.6647 56.25 47.3125C56.25 47.9603 56.7744 48.4844 57.4219 48.4844C66.9641 48.4844 71.8095 46.1177 72.0111 46.0172C72.588 45.7289 72.8215 45.0272 72.5352 44.4495Z" fill="white"/>
<path d="M69.793 34.6165C69.2574 34.2594 68.5294 34.4012 68.1678 34.9414C63.8923 41.3522 55.1652 41.453 55.0758 41.453C54.4304 41.4554 53.9062 41.9807 53.9062 42.6273C53.9086 43.2727 54.4327 43.7969 55.0782 43.7969C55.4857 43.7969 65.1375 43.7111 70.1179 36.2414C70.4774 35.7035 70.3309 34.976 69.793 34.6165Z" fill="white"/>
<path d="M70.0741 34.8798C69.6783 34.3647 68.9458 34.2686 68.4308 34.6612C67.9157 35.0538 67.8196 35.7895 68.211 36.3034C71.3811 40.445 70.3947 44.5031 70.3533 44.669C70.1887 45.2939 70.5617 45.9358 71.1866 46.1016C71.2871 46.128 71.3879 46.1406 71.4863 46.1406C72.0058 46.1406 72.4795 45.794 72.6193 45.2687C72.6764 45.0548 73.965 39.9654 70.0741 34.8798Z" fill="white"/>
<path d="M46.2476 51.4555C45.7899 50.9979 45.0484 50.9979 44.5908 51.4555C37.8433 58.203 36.0922 63.2983 36.0213 63.5133C35.8173 64.1268 36.147 64.786 36.7605 64.992C36.8838 65.0333 37.0098 65.0562 37.1334 65.0562C37.621 65.0562 38.0786 64.7447 38.2438 64.2595C38.2597 64.2091 39.9352 59.4253 46.2476 53.1129C46.7052 52.655 46.7052 51.9132 46.2476 51.4555Z" fill="white"/>
<path d="M51.2171 53.1116C50.7571 52.656 50.0179 52.6572 49.5623 53.1128C49.2737 53.4011 42.5102 60.288 44.2704 69.0883C44.3826 69.6447 44.8702 70.0291 45.4172 70.0291C45.4948 70.0291 45.5727 70.0224 45.6486 70.0063C46.2847 69.8803 46.6969 69.2624 46.5686 68.626C45.058 61.0752 51.16 54.8294 51.2218 54.7699C51.6771 54.3099 51.6747 53.5684 51.2171 53.1116Z" fill="white"/>
<path d="M45.5748 67.6962C40.4065 67.008 38.2347 63.4418 38.1476 63.2953C37.8204 62.7345 37.0993 62.5447 36.5453 62.8696C35.9845 63.1948 35.7947 63.9112 36.1196 64.4719C36.2315 64.6644 38.9164 69.1752 45.2633 70.0175C45.3161 70.0266 45.3685 70.029 45.4213 70.029C45.9982 70.029 46.5015 69.6009 46.5818 69.01C46.6664 68.3692 46.2155 67.7809 45.5748 67.6962Z" fill="white"/>
<path d="M64.0285 29.6309C63.4039 29.4293 62.7514 29.7554 62.5431 30.3642C62.527 30.4123 60.8473 35.1985 54.5346 41.5131C54.077 41.9708 54.077 42.7126 54.5346 43.1703C54.7635 43.3991 55.0635 43.5136 55.3632 43.5136C55.6629 43.5136 55.9626 43.3991 56.1918 43.1703C62.9368 36.4217 64.6924 31.3246 64.7656 31.1116C64.9693 30.4981 64.6397 29.838 64.0285 29.6309Z" fill="white"/>
<path d="M56.5101 25.5333C56.3818 24.8969 55.7568 24.4827 55.1322 24.6142C54.4958 24.7414 54.086 25.3581 54.2119 25.9933C55.7226 33.5499 49.6206 39.7926 49.5588 39.8544C49.1035 40.3135 49.1058 41.0547 49.5634 41.5115C49.7923 41.7392 50.0923 41.8537 50.3897 41.8537C50.6897 41.8537 50.9894 41.7392 51.2182 41.5103C51.5068 41.222 58.2701 34.3372 56.5101 25.5333Z" fill="white"/>
<path d="M64.6665 30.1506C64.5543 29.9584 61.8671 25.4485 55.5181 24.6015C54.8817 24.5148 54.2867 24.9657 54.1997 25.6088C54.115 26.2495 54.5659 26.839 55.2069 26.9249C60.3772 27.6148 62.5515 31.1808 62.6385 31.3272C62.8559 31.7026 63.2497 31.9109 63.6525 31.9109C63.8538 31.9109 64.0554 31.8593 64.2408 31.7518C64.8016 31.4266 64.9914 30.7102 64.6665 30.1506Z" fill="white"/>
<path d="M113.672 20.3594C98.8105 20.3594 86.7188 32.45 86.7188 47.3125C86.7188 62.1761 98.8105 74.2658 113.672 74.2658C128.533 74.2658 140.625 62.1761 140.625 47.3125C140.625 32.4502 128.533 20.3594 113.672 20.3594ZM113.672 71.922C100.101 71.922 89.0626 60.8806 89.0626 47.3125C89.0626 33.7435 100.101 22.7032 113.672 22.7032C127.242 22.7032 138.281 33.7435 138.281 47.3125C138.281 60.8806 127.242 71.922 113.672 71.922Z" fill="white"/>
<path d="M112.377 25.6947C112.089 25.1202 111.393 24.8799 110.809 25.1706C110.23 25.4577 109.994 26.1603 110.278 26.7395C110.301 26.7852 112.501 31.3537 112.501 40.2812C112.501 40.929 113.025 41.4532 113.673 41.4532C114.32 41.4532 114.844 40.929 114.845 40.2815C114.845 30.7393 112.478 25.8963 112.377 25.6947Z" fill="white"/>
<path d="M102.603 27.5878C102.07 27.233 101.338 27.3739 100.978 27.9127C100.619 28.4515 100.765 29.1781 101.303 29.5376C107.712 33.8108 107.813 42.5391 107.813 42.6272C107.815 43.2727 108.339 43.7957 108.985 43.7957L108.987 43.796C109.632 43.7948 110.157 43.2718 110.157 42.6252C110.157 42.2168 110.07 32.5659 102.603 27.5878Z" fill="white"/>
<path d="M111.628 25.0857C111.415 25.0294 106.329 23.7376 101.241 27.632C100.726 28.0258 100.63 28.7603 101.022 29.2742C101.253 29.5762 101.601 29.7342 101.953 29.7342C102.203 29.7342 102.452 29.6551 102.665 29.493C106.803 26.3241 110.856 27.3062 111.028 27.3519C111.658 27.5177 112.294 27.1436 112.461 26.5198C112.626 25.8937 112.255 25.2515 111.628 25.0857Z" fill="white"/>
<path d="M113.672 41.4531C110.44 41.4531 107.812 44.0821 107.812 47.3125C107.812 50.5433 110.44 53.1722 113.672 53.1722C116.904 53.1722 119.531 50.5433 119.531 47.3125C119.531 44.0821 116.904 41.4531 113.672 41.4531ZM113.672 50.8283C111.733 50.8283 110.156 49.2512 110.156 47.3125C110.156 45.3738 111.733 43.797 113.672 43.797C115.61 43.797 117.187 45.3741 117.187 47.3125C117.187 49.2515 115.61 50.8283 113.672 50.8283Z" fill="white"/>
<path d="M117.066 67.8841C117.043 67.8384 114.844 63.2702 114.844 54.3438C114.844 53.696 114.32 53.1719 113.672 53.1719C113.024 53.1719 112.5 53.696 112.5 54.3438C112.5 63.8857 114.866 68.7285 114.967 68.93C115.173 69.3399 115.585 69.5778 116.016 69.5778C116.19 69.5778 116.368 69.5365 116.535 69.4542C117.114 69.1659 117.35 68.4654 117.066 67.8841Z" fill="white"/>
<path d="M126.041 65.0875C119.632 60.814 119.531 52.0857 119.531 51.9975C119.529 51.3521 119.005 50.8291 118.359 50.8291H118.357C117.712 50.8303 117.188 51.3532 117.188 51.9999C117.188 52.4086 117.275 62.0595 124.741 67.0379C124.94 67.1706 125.166 67.2347 125.39 67.2347C125.768 67.2347 126.139 67.0516 126.366 66.7127C126.725 66.1724 126.579 65.447 126.041 65.0875Z" fill="white"/>
<path d="M126.322 65.3512C125.929 64.8361 125.194 64.74 124.679 65.1338C120.541 68.3013 116.485 67.3174 116.316 67.2741C115.682 67.1115 115.047 67.4818 114.883 68.1044C114.718 68.7314 115.089 69.3724 115.716 69.5394C115.803 69.5626 116.693 69.789 118.065 69.789C120.065 69.789 123.084 69.3039 126.103 66.9925C126.618 66.5987 126.714 65.8663 126.322 65.3512Z" fill="white"/>
<path d="M109.528 41.5121C102.783 34.7635 97.6839 33.0126 97.4709 32.9417C96.8597 32.7392 96.1958 33.0665 95.9922 33.68C95.7839 34.2921 96.1135 34.956 96.727 35.1631C96.7727 35.1804 101.559 36.8557 107.871 43.1695C108.1 43.3983 108.4 43.5129 108.7 43.5129C109 43.5129 109.3 43.3983 109.528 43.1692C109.986 42.7115 109.986 41.9697 109.528 41.5121Z" fill="white"/>
<path d="M107.872 46.4844C107.584 46.1958 100.692 39.4314 91.8984 41.1925C91.2643 41.3197 90.8521 41.9376 90.9804 42.5716C91.1088 43.2092 91.7334 43.6144 92.3607 43.4907C99.893 41.9687 106.153 48.0797 106.215 48.1427C106.444 48.3704 106.744 48.4837 107.043 48.4837C107.343 48.4837 107.643 48.3692 107.872 48.1404C108.33 47.6827 108.33 46.9421 107.872 46.4844Z" fill="white"/>
<path d="M98.1155 33.4653C97.7882 32.9022 97.0672 32.717 96.5131 33.0408C96.3207 33.1518 91.8119 35.8376 90.9672 42.1869C90.8826 42.8288 91.3335 43.4183 91.9766 43.503C92.027 43.5097 92.0794 43.5132 92.1321 43.5132C92.7087 43.5132 93.2121 43.0852 93.2927 42.4957C93.9794 37.3251 97.5433 35.1544 97.6898 35.0662C98.2505 34.7413 98.4404 34.0249 98.1155 33.4653Z" fill="white"/>
<path d="M130.62 59.4619C130.574 59.4435 125.783 57.7679 119.471 51.4555C119.013 50.9979 118.272 50.9979 117.814 51.4555C117.356 51.9135 117.356 52.6553 117.814 53.1129C124.561 59.8601 129.663 61.6136 129.876 61.6822C130 61.7235 130.123 61.744 130.247 61.744C130.737 61.744 131.19 61.4349 131.355 60.945C131.563 60.3341 131.233 59.6679 130.62 59.4619Z" fill="white"/>
<path d="M136.367 52.0539C136.239 51.4175 135.592 51.0024 134.99 51.1351C127.427 52.6378 121.195 46.5449 121.133 46.4831C120.676 46.0278 119.934 46.0266 119.476 46.4866C119.018 46.9442 119.018 47.6846 119.476 48.1414C119.732 48.3966 125.155 53.7251 132.499 53.7251C133.451 53.7251 134.438 53.6357 135.447 53.4332C136.083 53.3061 136.495 52.6891 136.367 52.0539Z" fill="white"/>
<path d="M135.371 51.1226C134.763 51.0332 134.142 51.4865 134.055 52.1296C133.369 57.301 129.805 59.4709 129.659 59.5579C129.098 59.8831 128.908 60.6018 129.233 61.1602C129.45 61.5355 129.844 61.7438 130.247 61.7438C130.448 61.7438 130.65 61.6911 130.835 61.5859C131.027 61.4737 135.536 58.7888 136.381 52.4387C136.465 51.7964 136.014 51.2072 135.371 51.1226Z" fill="white"/>
<path d="M106.645 46.1406C97.0984 46.1406 92.26 48.5074 92.0585 48.6081C91.4816 48.8976 91.2481 49.5981 91.5343 50.1771C91.7403 50.5893 92.1546 50.8272 92.585 50.8272C92.761 50.8272 92.9374 50.7882 93.1041 50.7059C93.1478 50.6839 97.7142 48.4845 106.645 48.4845C107.293 48.4845 107.817 47.9603 107.817 47.3126C107.817 46.6648 107.293 46.1406 106.645 46.1406Z" fill="white"/>
<path d="M108.985 50.8281C108.577 50.8281 98.9254 50.914 93.947 58.381C93.5875 58.9212 93.734 59.6467 94.272 60.0061C94.4712 60.1389 94.6977 60.203 94.9221 60.203C95.2997 60.203 95.6707 60.0199 95.8971 59.6812C100.17 53.2728 108.898 53.172 108.987 53.172C109.633 53.1697 110.157 52.6446 110.157 51.9977C110.154 51.3523 109.63 50.8281 108.985 50.8281Z" fill="white"/>
<path d="M95.8536 58.3193C92.6858 54.1792 93.6723 50.1219 93.7157 49.9573C93.8803 49.3312 93.5097 48.6901 92.8827 48.5231C92.2487 48.3561 91.6144 48.7314 91.4497 49.3552C91.3926 49.5694 90.1017 54.6576 93.9902 59.7429C94.2213 60.045 94.5694 60.2029 94.9219 60.2029C95.1715 60.2029 95.4208 60.125 95.6338 59.9606C96.1489 59.5692 96.245 58.8344 95.8536 58.3193Z" fill="white"/>
<path d="M135.819 44.4498C135.532 43.8729 134.823 43.6359 134.25 43.9198C134.205 43.9415 129.632 46.1409 120.703 46.1409C120.055 46.1409 119.531 46.6651 119.531 47.3128C119.531 47.9606 120.055 48.4848 120.703 48.4848C130.245 48.4848 135.093 46.1181 135.294 46.0176C135.871 45.7293 136.104 45.0276 135.819 44.4498Z" fill="white"/>
<path d="M133.076 34.6165C132.543 34.2594 131.813 34.4012 131.451 34.9414C127.174 41.3522 118.446 41.453 118.357 41.453C117.712 41.4554 117.188 41.9807 117.188 42.6273C117.19 43.2727 117.714 43.7969 118.359 43.7969C118.767 43.7969 128.419 43.7111 133.401 36.2414C133.761 35.7035 133.614 34.976 133.076 34.6165Z" fill="white"/>
<path d="M133.357 34.8798C132.964 34.3647 132.226 34.2686 131.714 34.6612C131.199 35.0538 131.103 35.7895 131.494 36.3034C134.662 40.445 133.678 44.5043 133.637 44.669C133.472 45.2951 133.845 45.9358 134.47 46.1016C134.57 46.128 134.671 46.1406 134.77 46.1406C135.289 46.1406 135.763 45.794 135.902 45.2687C135.959 45.0548 137.246 39.9654 133.357 34.8798Z" fill="white"/>
<path d="M109.529 51.4555C109.071 50.9979 108.329 50.9979 107.872 51.4555C101.124 58.203 99.3734 63.2983 99.3025 63.5133C99.0986 64.1268 99.4282 64.786 100.041 64.992C100.165 65.0333 100.291 65.0562 100.414 65.0562C100.902 65.0562 101.36 64.7447 101.525 64.2595C101.541 64.2091 103.216 59.4253 109.529 53.1129C109.986 52.655 109.986 51.9132 109.529 51.4555Z" fill="white"/>
<path d="M114.498 53.1116C114.038 52.656 113.299 52.6572 112.844 53.1128C112.555 53.4011 105.791 60.288 107.552 69.0883C107.664 69.6447 108.151 70.0291 108.698 70.0291C108.776 70.0291 108.854 70.0224 108.93 70.0063C109.566 69.8803 109.978 69.2624 109.85 68.626C108.339 61.0752 114.441 54.8294 114.503 54.7699C114.958 54.3099 114.956 53.5684 114.498 53.1116Z" fill="white"/>
<path d="M108.856 67.6962C103.688 67.008 101.516 63.4418 101.429 63.2953C101.101 62.7345 100.38 62.5447 99.8263 62.8696C99.2658 63.1948 99.0759 63.9112 99.4009 64.4719C99.5131 64.6644 102.198 69.1752 108.545 70.0175C108.597 70.0266 108.65 70.029 108.703 70.029C109.279 70.029 109.783 69.6009 109.863 69.01C109.948 68.3692 109.497 67.7809 108.856 67.6962Z" fill="white"/>
<path d="M127.31 29.6309C126.687 29.4293 126.035 29.7554 125.824 30.3642C125.808 30.4123 124.129 35.1985 117.816 41.5131C117.358 41.9708 117.358 42.7126 117.816 43.1703C118.045 43.3991 118.345 43.5136 118.644 43.5136C118.944 43.5136 119.244 43.3991 119.473 43.1703C126.218 36.4217 127.974 31.3246 128.047 31.1116C128.251 30.4981 127.921 29.838 127.31 29.6309Z" fill="white"/>
<path d="M119.791 25.5333C119.663 24.8969 119.041 24.4827 118.413 24.6142C117.777 24.7414 117.367 25.3581 117.493 25.9933C119.004 33.5499 112.902 39.7926 112.84 39.8544C112.385 40.3135 112.387 41.0547 112.845 41.5115C113.074 41.7392 113.373 41.8537 113.671 41.8537C113.971 41.8537 114.271 41.7392 114.499 41.5103C114.788 41.222 121.551 34.3372 119.791 25.5333Z" fill="white"/>
<path d="M127.946 30.1506C127.834 29.9596 125.149 25.4485 118.797 24.6015C118.163 24.5148 117.566 24.9657 117.479 25.6088C117.394 26.2495 117.845 26.839 118.486 26.9249C123.659 27.6148 125.831 31.1808 125.918 31.3272C126.135 31.7014 126.529 31.9109 126.932 31.9109C127.133 31.9109 127.335 31.8605 127.52 31.753C128.081 31.4277 128.271 30.7102 127.946 30.1506Z" fill="white"/>
<path d="M29.2969 81.2969C28.6491 81.2969 28.125 81.821 28.125 82.4688V87.1566C28.125 87.8043 28.6494 88.3285 29.2969 88.3285C29.9447 88.3285 30.4689 87.8043 30.4689 87.1566V82.4688C30.4689 81.821 29.9447 81.2969 29.2969 81.2969Z" fill="white"/>
<path d="M38.6721 85.9844H29.2969C28.6491 85.9844 28.125 86.5085 28.125 87.1563C28.125 87.8041 28.6494 88.3282 29.2969 88.3282H38.6721C39.3199 88.3282 39.8441 87.8041 39.8441 87.1563C39.8441 86.5085 39.3199 85.9844 38.6721 85.9844Z" fill="white"/>
<path d="M38.6719 81.2969C38.0241 81.2969 37.5 81.821 37.5 82.4688V87.1566C37.5 87.8043 38.0241 88.3285 38.6719 88.3285C39.3197 88.3285 39.8436 87.8043 39.8439 87.1566V82.4688C39.8439 81.821 39.3197 81.2969 38.6719 81.2969Z" fill="white"/>
<path d="M43.3594 81.2969C42.7116 81.2969 42.1875 81.821 42.1875 82.4688V87.1566C42.1875 87.8043 42.7116 88.3285 43.3594 88.3285C44.0072 88.3285 44.5314 87.8043 44.5314 87.1566V82.4688C44.5314 81.821 44.0072 81.2969 43.3594 81.2969Z" fill="white"/>
<path d="M76.1719 85.9844H43.3594C42.7116 85.9844 42.1875 86.5085 42.1875 87.1563C42.1875 87.8041 42.7116 88.3282 43.3594 88.3282H76.1719C76.8197 88.3282 77.3438 87.8041 77.3438 87.1563C77.3438 86.5085 76.8197 85.9844 76.1719 85.9844Z" fill="white"/>
<path d="M76.1719 81.2969C75.5241 81.2969 75 81.821 75 82.4688V87.1566C75 87.8043 75.5241 88.3285 76.1719 88.3285C76.8197 88.3285 77.3439 87.8043 77.3439 87.1566V82.4688C77.3439 81.821 76.8197 81.2969 76.1719 81.2969Z" fill="white"/>
<path d="M80.8594 81.2969C80.2116 81.2969 79.6875 81.821 79.6875 82.4688V84.8127C79.6875 85.4605 80.2116 85.9846 80.8594 85.9846C81.5072 85.9846 82.0314 85.4605 82.0314 84.8127V82.4688C82.0314 81.821 81.5072 81.2969 80.8594 81.2969Z" fill="white"/>
<path d="M8.20331 95.3594H5.85944C5.21165 95.3594 4.6875 95.8835 4.6875 96.5313C4.6875 97.1791 5.21165 97.7032 5.85944 97.7032H8.20331C8.8511 97.7032 9.37525 97.1791 9.37525 96.5313C9.37525 95.8835 8.85081 95.3594 8.20331 95.3594Z" fill="white"/>
<path d="M48.0469 84.8125C47.3991 84.8125 46.875 85.3366 46.875 85.9844V87.1564C46.875 87.8042 47.3991 88.3283 48.0469 88.3283C48.6947 88.3283 49.2189 87.8042 49.2189 87.1564V85.9844C49.2189 85.3366 48.6947 84.8125 48.0469 84.8125Z" fill="white"/>
<path d="M33.9844 84.8125C33.3366 84.8125 32.8125 85.3366 32.8125 85.9844V87.1564C32.8125 87.8042 33.3366 88.3283 33.9844 88.3283C34.6319 88.3283 35.1561 87.8042 35.1564 87.1564V85.9844C35.1564 85.3366 34.6319 84.8125 33.9844 84.8125Z" fill="white"/>
<path d="M52.7344 84.8125C52.0866 84.8125 51.5625 85.3366 51.5625 85.9844V87.1564C51.5625 87.8042 52.0866 88.3283 52.7344 88.3283C53.3822 88.3283 53.9064 87.8042 53.9064 87.1564V85.9844C53.9064 85.3366 53.3822 84.8125 52.7344 84.8125Z" fill="white"/>
<path d="M57.4219 84.8125C56.7741 84.8125 56.25 85.3366 56.25 85.9844V87.1564C56.25 87.8042 56.7744 88.3283 57.4219 88.3283C58.0697 88.3283 58.5939 87.8042 58.5939 87.1564V85.9844C58.5939 85.3366 58.0697 84.8125 57.4219 84.8125Z" fill="white"/>
<path d="M62.1094 84.8125C61.4616 84.8125 60.9375 85.3366 60.9375 85.9844V87.1564C60.9375 87.8042 61.4616 88.3283 62.1094 88.3283C62.7572 88.3283 63.2814 87.8042 63.2814 87.1564V85.9844C63.2814 85.3366 62.7569 84.8125 62.1094 84.8125Z" fill="white"/>
<path d="M66.7969 84.8125C66.1491 84.8125 65.625 85.3366 65.625 85.9844V87.1564C65.625 87.8042 66.1494 88.3283 66.7969 88.3283C67.4447 88.3283 67.9689 87.8042 67.9689 87.1564V85.9844C67.9689 85.3366 67.4447 84.8125 66.7969 84.8125Z" fill="white"/>
<path d="M71.4844 84.8125C70.8366 84.8125 70.3125 85.3366 70.3125 85.9844V87.1564C70.3125 87.8042 70.8366 88.3283 71.4844 88.3283C72.1319 88.3283 72.6561 87.8042 72.6564 87.1564V85.9844C72.6564 85.3366 72.1319 84.8125 71.4844 84.8125Z" fill="white"/>
<path d="M83.3861 83.6406H80.8594C80.2116 83.6406 79.6875 84.1648 79.6875 84.8126C79.6875 85.4603 80.2116 85.9845 80.8594 85.9845H83.3861C84.0339 85.9845 84.5581 85.4603 84.5581 84.8126C84.5581 84.1648 84.0339 83.6406 83.3861 83.6406Z" fill="white"/>
</g>
<defs>
<clipPath id="clip0_223_1480">
<rect width="150" height="98" fill="white"/>
</clipPath>
</defs>
</svg>
