<svg width="171" height="46" viewBox="0 0 171 46" fill="none" xmlns="http://www.w3.org/2000/svg">
<path d="M61.6606 11.8936H79.8042V16.3569H73.2139V35H68.2671V16.3569H61.6606V11.8936ZM89.6978 35L81.1255 11.8936H86.4106L92.3403 29.0542L98.2861 11.8936H103.571L94.9829 35H89.6978ZM111.821 18.0649C110.382 19.5259 109.662 21.3252 109.662 23.4629C109.662 25.5898 110.382 27.3838 111.821 28.8447C113.261 30.3057 115.012 31.0361 117.074 31.0361C119.147 31.0361 120.904 30.3057 122.343 28.8447C123.783 27.3838 124.502 25.5898 124.502 23.4629C124.502 21.3252 123.783 19.5259 122.343 18.0649C120.904 16.5933 119.147 15.8574 117.074 15.8574C115.012 15.8574 113.261 16.5933 111.821 18.0649ZM108.164 31.9707C105.747 29.6074 104.538 26.7661 104.538 23.4468C104.538 20.1274 105.747 17.2915 108.164 14.939C110.591 12.5864 113.562 11.4102 117.074 11.4102C120.598 11.4102 123.568 12.5864 125.985 14.939C128.413 17.2915 129.626 20.1274 129.626 23.4468C129.626 26.7661 128.413 29.6074 125.985 31.9707C123.568 34.3232 120.598 35.4995 117.074 35.4995C113.562 35.4995 110.591 34.3232 108.164 31.9707ZM151.105 18.0649C149.666 19.5259 148.946 21.3252 148.946 23.4629C148.946 25.5898 149.666 27.3838 151.105 28.8447C152.545 30.3057 154.296 31.0361 156.358 31.0361C158.432 31.0361 160.188 30.3057 161.627 28.8447C163.067 27.3838 163.787 25.5898 163.787 23.4629C163.787 21.3252 163.067 19.5259 161.627 18.0649C160.188 16.5933 158.432 15.8574 156.358 15.8574C154.296 15.8574 152.545 16.5933 151.105 18.0649ZM147.448 31.9707C145.031 29.6074 143.822 26.7661 143.822 23.4468C143.822 20.1274 145.031 17.2915 147.448 14.939C149.875 12.5864 152.846 11.4102 156.358 11.4102C159.882 11.4102 162.852 12.5864 165.269 14.939C167.697 17.2915 168.911 20.1274 168.911 23.4468C168.911 26.7661 167.697 29.6074 165.269 31.9707C162.852 34.3232 159.882 35.4995 156.358 35.4995C152.846 35.4995 149.875 34.3232 147.448 31.9707Z" fill="black"/>
<path d="M134.251 35V11.8936H139.214V35H134.251Z" fill="#FF7A00"/>
<circle cx="23" cy="23" r="23" fill="#FF5C00"/>
<g clip-path="url(#clip0)">
<path d="M34.9318 15.4237H14.6029L14.3007 12.0573C14.2513 11.5068 13.7899 11.085 13.2372 11.085H11.0678C10.4781 11.085 10 11.563 10 12.1527C10 12.7425 10.4781 13.2205 11.0678 13.2205H12.261C12.9131 20.4856 11.2278 1.7081 13.4891 26.9027C13.5763 27.8889 14.1091 28.9589 15.027 29.686C13.3721 31.7994 14.8842 34.915 17.5761 34.915C19.8104 34.915 21.3863 32.6866 20.6201 30.5761H26.4642C25.699 32.6839 27.2714 34.915 29.5082 34.915C31.2932 34.915 32.7454 33.4628 32.7454 31.6778C32.7454 29.8928 31.2932 28.4405 29.5082 28.4405H17.5833C16.7722 28.4405 16.0654 27.9512 15.7603 27.2382L32.8248 26.2353C33.2907 26.208 33.6849 25.8811 33.7981 25.4284L35.9677 16.7504C36.1359 16.0775 35.6265 15.4237 34.9318 15.4237ZM17.5761 32.7795C16.9687 32.7795 16.4745 32.2853 16.4745 31.6778C16.4745 31.0703 16.9687 30.5761 17.5761 30.5761C18.1836 30.5761 18.6778 31.0703 18.6778 31.6778C18.6778 32.2853 18.1836 32.7795 17.5761 32.7795ZM29.5081 32.7795C28.9007 32.7795 28.4064 32.2853 28.4064 31.6778C28.4064 31.0703 28.9007 30.5761 29.5081 30.5761C30.1156 30.5761 30.6098 31.0703 30.6098 31.6778C30.6098 32.2853 30.1156 32.7795 29.5081 32.7795ZM31.9165 24.1495L15.4729 25.1158L14.7946 17.5592H33.5642L31.9165 24.1495Z" fill="white"/>
</g>
<defs>
<clipPath id="clip0">
<rect width="26" height="26" fill="white" transform="translate(10 10)"/>
</clipPath>
</defs>
</svg>
