<svg width="120" height="30" viewBox="0 0 120 30" fill="none" xmlns="http://www.w3.org/2000/svg">
<path d="M49.3203 8.79688H58.1172V10.9609H54.9219V20H52.5234V10.9609H49.3203V8.79688ZM62.9141 20L58.7578 8.79688H61.3203L64.1953 17.1172L67.0781 8.79688H69.6406L65.4766 20H62.9141ZM73.6406 11.7891C72.9427 12.4974 72.5938 13.3698 72.5938 14.4062C72.5938 15.4375 72.9427 16.3073 73.6406 17.0156C74.3385 17.724 75.1875 18.0781 76.1875 18.0781C77.1927 18.0781 78.0443 17.724 78.7422 17.0156C79.4401 16.3073 79.7891 15.4375 79.7891 14.4062C79.7891 13.3698 79.4401 12.4974 78.7422 11.7891C78.0443 11.0755 77.1927 10.7188 76.1875 10.7188C75.1875 10.7188 74.3385 11.0755 73.6406 11.7891ZM71.8672 18.5312C70.6953 17.3854 70.1094 16.0078 70.1094 14.3984C70.1094 12.7891 70.6953 11.4141 71.8672 10.2734C73.0443 9.13281 74.4844 8.5625 76.1875 8.5625C77.8958 8.5625 79.3359 9.13281 80.5078 10.2734C81.6849 11.4141 82.2734 12.7891 82.2734 14.3984C82.2734 16.0078 81.6849 17.3854 80.5078 18.5312C79.3359 19.6719 77.8958 20.2422 76.1875 20.2422C74.4844 20.2422 73.0443 19.6719 71.8672 18.5312ZM92.6875 11.7891C91.9896 12.4974 91.6406 13.3698 91.6406 14.4062C91.6406 15.4375 91.9896 16.3073 92.6875 17.0156C93.3854 17.724 94.2344 18.0781 95.2344 18.0781C96.2396 18.0781 97.0911 17.724 97.7891 17.0156C98.487 16.3073 98.8359 15.4375 98.8359 14.4062C98.8359 13.3698 98.487 12.4974 97.7891 11.7891C97.0911 11.0755 96.2396 10.7188 95.2344 10.7188C94.2344 10.7188 93.3854 11.0755 92.6875 11.7891ZM90.9141 18.5312C89.7422 17.3854 89.1562 16.0078 89.1562 14.3984C89.1562 12.7891 89.7422 11.4141 90.9141 10.2734C92.0911 9.13281 93.5312 8.5625 95.2344 8.5625C96.9427 8.5625 98.3828 9.13281 99.5547 10.2734C100.732 11.4141 101.32 12.7891 101.32 14.3984C101.32 16.0078 100.732 17.3854 99.5547 18.5312C98.3828 19.6719 96.9427 20.2422 95.2344 20.2422C93.5312 20.2422 92.0911 19.6719 90.9141 18.5312Z" fill="white"/>
<path d="M84.5156 20V8.79688H86.9219V20H84.5156Z" fill="black"/>
<circle cx="27" cy="15" r="10" fill="white"/>
<g clip-path="url(#clip0)">
<path d="M32.1876 11.7059H23.3489L23.2175 10.2422C23.1961 10.0029 22.9955 9.81946 22.7552 9.81946H21.8119C21.5555 9.81946 21.3477 10.0273 21.3477 10.2837C21.3477 10.5401 21.5555 10.748 21.8119 10.748H22.3307C22.6142 13.9067 21.8815 5.74256 22.8647 16.6968C22.9026 17.1255 23.1342 17.5907 23.5333 17.9069C22.8138 18.8257 23.4712 20.1804 24.6416 20.1804C25.6131 20.1804 26.2982 19.2115 25.9651 18.2939H28.506C28.1733 19.2103 28.857 20.1804 29.8295 20.1804C30.6056 20.1804 31.237 19.549 31.237 18.7729C31.237 17.9968 30.6056 17.3654 29.8295 17.3654H24.6448C24.2921 17.3654 23.9848 17.1526 23.8522 16.8426L31.2715 16.4066C31.474 16.3947 31.6454 16.2526 31.6947 16.0557L32.638 12.2827C32.7111 11.9901 32.4896 11.7059 32.1876 11.7059ZM24.6416 19.2519C24.3775 19.2519 24.1627 19.037 24.1627 18.7729C24.1627 18.5087 24.3775 18.2939 24.6416 18.2939C24.9057 18.2939 25.1206 18.5087 25.1206 18.7729C25.1206 19.037 24.9057 19.2519 24.6416 19.2519ZM29.8294 19.2519C29.5653 19.2519 29.3505 19.037 29.3505 18.7729C29.3505 18.5087 29.5653 18.2939 29.8294 18.2939C30.0936 18.2939 30.3084 18.5087 30.3084 18.7729C30.3084 19.037 30.0936 19.2519 29.8294 19.2519ZM30.8766 15.4997L23.7272 15.9198L23.4323 12.6343H31.593L30.8766 15.4997Z" fill="#2F2F2F"/>
</g>
<defs>
<clipPath id="clip0">
<rect width="11.3043" height="11.3043" fill="white" transform="translate(21.3477 9.34778)"/>
</clipPath>
</defs>
</svg>
