<svg width="14" height="14" viewBox="0 0 14 14" fill="none" xmlns="http://www.w3.org/2000/svg">
<g clip-path="url(#clip0_387_794)">
<path d="M6.98275 12.8333C10.2045 12.8333 12.8161 10.2217 12.8161 6.99999C12.8161 3.77824 10.2045 1.16666 6.98275 1.16666C3.761 1.16666 1.14941 3.77824 1.14941 6.99999C1.14941 10.2217 3.761 12.8333 6.98275 12.8333Z" stroke="#8232EE" stroke-linecap="round" stroke-linejoin="round"/>
<path d="M5.09863 6.894V6.02C5.09863 4.93142 5.86796 4.48657 6.81 5.03086L7.56886 5.47047L8.32773 5.91009C9.26976 6.45438 9.26976 7.34408 8.32773 7.88837L7.56886 8.32799L6.81 8.76761C5.86796 9.31189 5.09863 8.86704 5.09863 7.77847V6.894Z" stroke="#8232EE" stroke-width="0.897178" stroke-miterlimit="10" stroke-linecap="round" stroke-linejoin="round"/>
</g>
<defs>
<clipPath id="clip0_387_794">
<rect width="14" height="14" fill="white"/>
</clipPath>
</defs>
</svg>
