<svg width="14" height="14" viewBox="0 0 14 14" fill="none" xmlns="http://www.w3.org/2000/svg">
<g clip-path="url(#clip0_366_1001)">
<path d="M9.08878 6.99998C9.08878 8.15498 8.15544 9.08832 7.00044 9.08832C5.84544 9.08832 4.91211 8.15498 4.91211 6.99998C4.91211 5.84498 5.84544 4.91165 7.00044 4.91165C8.15544 4.91165 9.08878 5.84498 9.08878 6.99998Z" stroke="#9747FF" stroke-width="0.875" stroke-linecap="round" stroke-linejoin="round"/>
<path d="M7.00089 11.8241C9.06005 11.8241 10.9792 10.6108 12.3151 8.51082C12.8401 7.68832 12.8401 6.30582 12.3151 5.48332C10.9792 3.38332 9.06005 2.16998 7.00089 2.16998C4.94172 2.16998 3.02255 3.38332 1.68672 5.48332C1.16172 6.30582 1.16172 7.68832 1.68672 8.51082C3.02255 10.6108 4.94172 11.8241 7.00089 11.8241Z" stroke="#9747FF" stroke-linecap="round" stroke-linejoin="round"/>
</g>
<defs>
<clipPath id="clip0_366_1001">
<rect width="14" height="14" fill="white"/>
</clipPath>
</defs>
</svg>
