<svg width="22" height="20" viewBox="0 0 22 20" fill="none" xmlns="http://www.w3.org/2000/svg">
<path d="M14.2821 10C14.2821 11.65 12.8154 12.9833 11.0004 12.9833C9.18542 12.9833 7.71875 11.65 7.71875 10C7.71875 8.35 9.18542 7.01666 11.0004 7.01666C12.8154 7.01666 14.2821 8.35 14.2821 10Z" stroke="white" stroke-width="1.5625" stroke-linecap="round" stroke-linejoin="round"/>
<path d="M10.9999 16.8916C14.2357 16.8916 17.2515 15.1583 19.3507 12.1583C20.1757 10.9833 20.1757 9.00831 19.3507 7.83331C17.2515 4.83331 14.2357 3.09998 10.9999 3.09998C7.76402 3.09998 4.74819 4.83331 2.64902 7.83331C1.82402 9.00831 1.82402 10.9833 2.64902 12.1583C4.74819 15.1583 7.76402 16.8916 10.9999 16.8916Z" stroke="white" stroke-width="1.78571" stroke-linecap="round" stroke-linejoin="round"/>
</svg>
