<svg width="20" height="20" viewBox="0 0 20 20" fill="none" xmlns="http://www.w3.org/2000/svg">
<path d="M10.0637 2.49902H10.175C11.2025 2.50277 16.4088 2.54027 17.8125 2.91777C18.2369 3.03298 18.6236 3.25755 18.9339 3.56903C19.2443 3.88052 19.4675 4.268 19.5812 4.69277C19.7075 5.16777 19.7962 5.79652 19.8563 6.44527L19.8688 6.57527L19.8962 6.90027L19.9062 7.03027C19.9875 8.17277 19.9975 9.24277 19.9987 9.47652V9.57027C19.9975 9.81277 19.9862 10.9553 19.8962 12.1453L19.8862 12.2765L19.875 12.4065C19.8125 13.1215 19.72 13.8315 19.5812 14.354C19.4679 14.779 19.2448 15.1666 18.9344 15.4782C18.6239 15.7897 18.237 16.0142 17.8125 16.129C16.3625 16.519 10.8512 16.5465 10.0875 16.5478H9.91C9.52375 16.5478 7.92625 16.5403 6.25125 16.4828L6.03875 16.4753L5.93 16.4703L5.71625 16.4615L5.5025 16.4528C4.115 16.3915 2.79375 16.2928 2.185 16.1278C1.76061 16.013 1.37383 15.7888 1.06341 15.4774C0.752979 15.1661 0.529809 14.7787 0.41625 14.354C0.2775 13.8328 0.185 13.1215 0.1225 12.4065L0.1125 12.2753L0.1025 12.1453C0.0408095 11.2983 0.00662483 10.4495 0 9.60027L0 9.44652C0.0025 9.17777 0.0125 8.24902 0.08 7.22402L0.08875 7.09527L0.0925 7.03027L0.1025 6.90027L0.13 6.57527L0.1425 6.44527C0.2025 5.79652 0.29125 5.16652 0.4175 4.69277C0.530867 4.26783 0.753953 3.88016 1.06439 3.56863C1.37483 3.25709 1.76171 3.03264 2.18625 2.91777C2.795 2.75527 4.11625 2.65527 5.50375 2.59277L5.71625 2.58402L5.93125 2.57652L6.03875 2.57277L6.2525 2.56402C7.44213 2.52574 8.63226 2.50449 9.8225 2.50027H10.0637V2.49902ZM8 6.51152V12.534L13.1962 9.52402L8 6.51152Z" fill="white"/>
</svg>
