<svg width="200" height="121" viewBox="0 0 200 121" fill="none" xmlns="http://www.w3.org/2000/svg">
<path d="M67.0838 66.7349H69.125V70.8029L72.8891 66.7349H75.3544L71.5771 70.6832L75.5267 76.0407H73.0747L70.1986 72.0791L69.125 73.1959V76.0407H67.0838V66.7349Z" fill="#AA2B2B"/>
<path d="M76.7602 66.7349H80.5509C82.7643 66.7349 84.103 68.0511 84.103 69.9786C84.103 72.1323 82.433 73.249 80.3521 73.249H78.8014V76.0406H76.7602V66.7349ZM80.4184 71.4278C81.439 71.4278 82.0353 70.8162 82.0353 69.992C82.0353 69.0748 81.3992 68.5828 80.3786 68.5828H78.8014V71.4278L80.4184 71.4278Z" fill="#AA2B2B"/>
<path d="M93.6071 76.0411H91.5925V69.9392L87.5368 76.0411H85.6149V66.7354H87.6296V72.8374L91.7118 66.7354H93.6071V76.0411Z" fill="#AA2B2B"/>
<path d="M95.8349 66.7349H97.876V70.4173H101.64V66.7349H103.681V76.0407H101.64V72.3052H97.876V76.0407H95.8349V66.7349Z" fill="#AA2B2B"/>
<path d="M113.901 76.0406H111.887V69.9387L107.831 76.0406H105.909V66.7349H107.924V72.8369L112.006 66.7349H113.901V76.0406H113.901Z" fill="#AA2B2B"/>
<path d="M123.008 76.0406H116.129V66.7349H118.17V74.1928H121.828V66.7349H123.869V74.1928H124.969L124.704 77.9817H123.008V76.0406H123.008Z" fill="#AA2B2B"/>
<path d="M133.745 76.0412H131.704V73.0635H130.1L128.112 76.0412H125.726L127.992 72.7178C126.813 72.2791 126.004 71.3351 126.004 69.8063C126.004 67.8788 127.33 66.7354 129.503 66.7354H133.745V76.0412ZM131.703 71.2555V68.5833H129.676C128.682 68.5833 128.072 69.0354 128.072 69.9393C128.072 70.7236 128.642 71.2556 129.636 71.2556H131.703V71.2555Z" fill="#AA2B2B"/>
<path d="M72.1618 58.6865H73.2557V60.6268H75.3621V58.6865H76.4559V63.474H75.362V61.5426H73.2556V63.474H72.1618V58.6865Z" fill="#AA2B2B"/>
<path d="M77.568 61.0803C77.568 59.7112 78.5353 58.5869 79.9003 58.5869C81.419 58.5869 82.1875 59.7838 82.1875 61.1621C82.1875 61.2345 82.1784 61.4158 82.1694 61.4704H78.6618C78.7794 62.2501 79.3308 62.6854 80.0359 62.6854C80.5693 62.6854 80.949 62.4858 81.3286 62.1142L81.9704 62.6854C81.5185 63.2294 80.8948 63.5829 80.0178 63.5829C78.6348 63.5829 77.568 62.5764 77.568 61.0803ZM81.1027 60.7448C81.0304 60.0377 80.6145 59.4846 79.8914 59.4846C79.2224 59.4846 78.7523 60.0014 78.6529 60.7448H81.1027Z" fill="#AA2B2B"/>
<path d="M83.1456 60.7898C83.1456 59.3028 83.3174 57.8067 85.0531 57.4439L87.6566 56.8999L87.8374 57.7793L85.2339 58.3507C84.3118 58.5501 84.0316 59.076 83.9774 59.7107C84.2215 59.2937 84.8181 58.8131 85.8124 58.8131C87.0418 58.8131 88.0905 59.8285 88.0905 61.1432C88.0905 62.4671 87.0418 63.5823 85.6045 63.5823C84.0587 63.5824 83.1456 62.5578 83.1456 60.7898ZM86.9966 61.1616C86.9966 60.3454 86.4001 59.6835 85.6046 59.6835C84.8 59.6835 84.2396 60.3364 84.2396 61.1616C84.2396 61.9775 84.8362 62.6305 85.6227 62.6305C86.4453 62.6305 86.9966 61.9775 86.9966 61.1616Z" fill="#AA2B2B"/>
<path d="M88.9404 61.0803C88.9404 59.7112 89.9077 58.5869 91.2727 58.5869C92.7914 58.5869 93.5599 59.7838 93.5599 61.1621C93.5599 61.2345 93.5507 61.4158 93.5417 61.4704H90.0342C90.1518 62.2501 90.7032 62.6854 91.4083 62.6854C91.9417 62.6854 92.3214 62.4858 92.701 62.1142L93.3429 62.6854C92.891 63.2294 92.2672 63.5829 91.3903 63.5829C90.0072 63.5829 88.9404 62.5764 88.9404 61.0803ZM92.4751 60.7448C92.4027 60.0377 91.9869 59.4846 91.2637 59.4846C90.5947 59.4846 90.1246 60.0014 90.0252 60.7448H92.4751Z" fill="#AA2B2B"/>
<path d="M94.4006 61.1075V61.0894C94.4006 59.7295 95.4492 58.5869 96.8776 58.5869C97.7816 58.5869 98.3421 58.9224 98.785 59.4121L98.1071 60.1466C97.7726 59.793 97.42 59.5482 96.8686 59.5482C96.073 59.5482 95.4945 60.2372 95.4945 61.0714V61.0895C95.4945 61.9418 96.0822 62.631 96.9228 62.631C97.4382 62.631 97.8179 62.3862 98.1613 62.0324L98.8213 62.6854C98.3512 63.2113 97.7997 63.5829 96.8686 63.5829C95.4493 63.5829 94.4006 62.4676 94.4006 61.1075Z" fill="#AA2B2B"/>
<path d="M99.7796 58.6865H100.873V60.6268H102.98V58.6865H104.074V63.474H102.98V61.5426H100.873V63.474H99.7796V58.6865Z" fill="#AA2B2B"/>
<path d="M108.368 63.4737V62.8843C108.042 63.2744 107.545 63.5736 106.822 63.5736C105.918 63.5736 105.122 63.0568 105.122 62.0775C105.122 61.0165 105.945 60.5088 107.057 60.5088C107.635 60.5088 108.006 60.5903 108.377 60.7084V60.6177C108.377 59.9557 107.961 59.593 107.202 59.593C106.668 59.593 106.27 59.7109 105.837 59.8922L105.538 59.0127C106.063 58.7771 106.578 58.6138 107.355 58.6138C108.765 58.6138 109.453 59.3574 109.453 60.6358V63.4739H108.368V63.4737ZM108.395 61.47C108.115 61.3611 107.726 61.2795 107.301 61.2795C106.614 61.2795 106.207 61.5607 106.207 62.0412C106.207 62.4945 106.614 62.7485 107.129 62.7485C107.852 62.7485 108.395 62.3403 108.395 61.742L108.395 61.47Z" fill="#AA2B2B"/>
<path fill-rule="evenodd" clip-rule="evenodd" d="M126.696 64.5364C115.219 45.1848 88.42 40.1906 75.5184 53.6084C75.1473 53.87 74.7845 54.1456 74.4308 54.4349C73.8216 54.8579 73.2427 55.3066 72.6954 55.7806C84.8961 36.2194 120.59 37.5576 133.745 64.5364H126.696Z" fill="#7B6DA7"/>
<path fill-rule="evenodd" clip-rule="evenodd" d="M125.545 64.5363C113.813 45.0017 85.9594 40.3969 73.5939 55.0463C72.7197 55.7193 71.9158 56.4504 71.1945 57.231C82.6117 36.6641 119.247 37.5052 132.561 64.5363H125.545Z" fill="#5BA3DA"/>
<path fill-rule="evenodd" clip-rule="evenodd" d="M123.806 64.5364C112.108 45.3523 84.1953 41.0333 72.2655 55.9199C71.2843 56.9094 70.3901 58.0171 69.5996 59.2353C69.4751 59.4195 69.3554 59.6049 69.2392 59.7918C78.8028 37.6734 117.073 37.3585 130.716 64.5364H123.806Z" fill="#A5CCED"/>
<path fill-rule="evenodd" clip-rule="evenodd" d="M121.653 64.5369C109.715 45.1789 80.4694 41.5943 70.018 58.6138C69.869 58.8267 69.7234 59.0423 69.5816 59.262C69.1425 59.9116 68.7563 60.5856 68.4247 61.2814C68.2125 61.7023 68.011 62.135 67.8214 62.5778C75.2374 38.583 114.63 37.3934 128.373 64.5369H121.653Z" fill="#AEBF33"/>
<path fill-rule="evenodd" clip-rule="evenodd" d="M119.249 64.5367C108.391 47.0243 82.7235 43.0713 71.6103 56.6112C70.8428 57.4621 70.134 58.3908 69.4959 59.3923C69.1139 59.9688 68.772 60.5646 68.4739 61.1777C68.3314 61.4566 68.1931 61.7411 68.0606 62.0298C76.1704 39.8453 112.729 38.9204 125.68 64.5367H119.249Z" fill="#FCE900"/>
<path fill-rule="evenodd" clip-rule="evenodd" d="M116.481 64.5366C105.719 47.384 79.8734 44.0345 70.0094 58.6257C69.8625 58.8347 69.7193 59.048 69.5789 59.2652C69.1432 59.9097 68.7599 60.5797 68.4302 61.2696C67.9905 62.1407 67.5993 63.0575 67.2609 64.0186C73.9121 41.3425 110.061 39.7326 122.622 64.5366H116.481Z" fill="#D07A1E"/>
<path fill-rule="evenodd" clip-rule="evenodd" d="M114.405 64.5362C105.239 45.5926 74.3246 44.9827 67.0911 64.5362H67C72.7154 43.7925 106.987 41.6091 118.916 64.5362H114.405Z" fill="#B11A28"/>
</svg>
