<svg width="1440" height="1024" viewBox="0 0 1440 1024" fill="none" xmlns="http://www.w3.org/2000/svg">
<path opacity="0.3" d="M0.053854 1021.87C3.8926 868.036 -5.69262 799.988 -13.5231 773.004C-28.4216 762.707 -22.0008 743.789 -13.5231 773.004C-10.1691 775.322 -5.73458 777.203 0.000144958 778C93.1228 790.94 119.506 888.558 255.177 848.105C353.031 818.927 419.576 621.164 490 573C560.424 524.836 684.639 742.477 764.375 677.06C844.112 611.643 843.103 378.527 917 278C999.14 166.26 1095.96 371.855 1153 305C1210.04 238.145 1376.34 -305.502 1435.8 -458.744C1521.04 -678.416 1986.51 -1267.06 1966.37 -458.894C1966.36 -458.8 1966.35 -458.698 1966.34 -458.604L1717.24 1022.33C1717.08 1023.29 1716.24 1024 1715.27 1024H2.05184C0.9272 1024 0.0257988 1022.99 0.053854 1021.87Z" fill="url(#paint0_linear_112_1427)" fill-opacity="0.1"/>
<defs>
<linearGradient id="paint0_linear_112_1427" x1="40.9999" y1="1111.07" x2="2033.54" y2="743.897" gradientUnits="userSpaceOnUse">
<stop stop-color="white"/>
<stop offset="1" stop-color="white" stop-opacity="0"/>
</linearGradient>
</defs>
</svg>
