<svg width="93" height="18" viewBox="0 0 93 18" fill="none" xmlns="http://www.w3.org/2000/svg">
<path d="M72.3937 0.5H67.2566L87.8533 17.4907H92.9903L72.3937 0.5ZM78.3449 12.5918L72.4033 17.4907H67.2663L73.1981 12.5918H78.3449ZM87.0585 5.39895L93 0.5H87.863L81.9214 5.39895H87.0585ZM12.8717 0.5L10.7684 3.26511L21.4981 17.4907H25.7434L12.8717 0.5ZM7.42449 7.69284H11.6311L4.24534 17.4907H0L7.42449 7.69284ZM51.6031 0.5L49.4998 3.26511L60.2295 17.4907H64.4748L51.6031 0.5ZM46.1559 7.69284H50.3625L42.9768 17.4907H38.7314L46.1559 7.69284ZM34.1469 0.5L34.1565 10.9025C34.1469 12.5918 33.2842 14.699 30.3861 14.8768H29.3297V17.4907C29.3297 17.4907 30.2504 17.4907 30.8514 17.4996C32.2471 17.5174 34.2632 16.895 35.5135 15.6681C37.2679 13.961 37.4811 11.7827 37.4811 10.7336V0.5H34.1469Z" fill="white"/>
</svg>
