<svg width="146" height="83" viewBox="0 0 146 83" fill="none" xmlns="http://www.w3.org/2000/svg">
<path d="M102.384 53.4175V52.691H102.194L101.975 53.1895L101.758 52.691H101.568V53.4175H101.702V52.8702L101.907 53.3424H102.046L102.251 52.869V53.4175H102.384H102.384ZM101.183 53.4175V52.8154H101.425V52.6928H100.806V52.8154H101.049V53.4175H101.182H101.183Z" fill="#F79410"/>
<path d="M80.8745 56.5329H64.498V27.1105H80.8748L80.8745 56.5329Z" fill="#FF5F00"/>
<path d="M65.5363 41.8222C65.5363 35.8539 68.3316 30.5373 72.6845 27.111C69.3896 24.5137 65.3143 23.1041 61.1183 23.1102C50.7821 23.1102 42.4034 31.4878 42.4034 41.8222C42.4034 52.1567 50.7821 60.5342 61.1183 60.5342C65.3144 60.5405 69.3898 59.1308 72.6848 56.5334C68.3322 53.1078 65.5363 47.7909 65.5363 41.8222Z" fill="#EB001B"/>
<path d="M102.968 41.8225C102.968 52.1569 94.5894 60.5344 84.2532 60.5344C80.0567 60.5406 75.9809 59.131 72.6853 56.5337C77.0394 53.1074 79.8347 47.7911 79.8347 41.8225C79.8347 35.8538 77.0394 30.5375 72.6853 27.1113C75.9808 24.514 80.0565 23.1044 84.2529 23.1105C94.5891 23.1105 102.968 31.488 102.968 41.8225" fill="#F79E1B"/>
</svg>
