<svg width="147" height="83" viewBox="0 0 147 83" fill="none" xmlns="http://www.w3.org/2000/svg">
<path d="M31.6849 49.508H34.2438V54.6079L38.9627 49.508H42.0534L37.3179 54.4578L42.2694 61.1743H39.1954L35.5898 56.2078L34.2438 57.6079V61.1743H31.6849V49.508Z" fill="#AA2B2B"/>
<path d="M43.8157 49.5079H48.5679C51.3427 49.5079 53.0209 51.1581 53.0209 53.5745C53.0209 56.2745 50.9273 57.6744 48.3186 57.6744H46.3746V61.1742H43.8157V49.5079ZM48.4018 55.3912C49.6812 55.3912 50.4288 54.6246 50.4288 53.5913C50.4288 52.4414 49.6313 51.8246 48.3519 51.8246H46.3746V55.3913L48.4018 55.3912Z" fill="#AA2B2B"/>
<path d="M64.9359 61.1743H62.4104V53.5246L57.3259 61.1743H54.9165V49.5081H57.4422V57.1579L62.5599 49.5081H64.9359V61.1743Z" fill="#AA2B2B"/>
<path d="M67.7288 49.5079H70.2877V54.1244H75.0066V49.5079H77.5655V61.1742H75.0066V56.4912H70.2877V61.1742H67.7288V49.5079Z" fill="#AA2B2B"/>
<path d="M90.3777 61.1742H87.8521V53.5244L82.7676 61.1742H80.3582V49.5079H82.8839V57.1577L88.0015 49.5079H90.3776V61.1742H90.3777Z" fill="#AA2B2B"/>
<path d="M101.794 61.1741H93.1705V49.5079H95.7294V58.8576H100.315V49.5079H102.874V58.8576H104.253L103.921 63.6075H101.794V61.1741H101.794Z" fill="#AA2B2B"/>
<path d="M115.254 61.1746H112.696V57.4416H110.685L108.193 61.1746H105.202L108.043 57.0082C106.564 56.4582 105.551 55.2748 105.551 53.3582C105.551 50.9417 107.212 49.5082 109.937 49.5082H115.254V61.1746ZM112.696 55.175V51.8249H110.153C108.907 51.8249 108.143 52.3917 108.143 53.5249C108.143 54.5081 108.857 55.175 110.103 55.175H112.696V55.175Z" fill="#AA2B2B"/>
<path d="M38.0509 39.418H39.4222V41.8504H42.0629V39.418H43.4342V45.4198H42.0628V42.9984H39.4222V45.4198H38.0509V39.418Z" fill="#AA2B2B"/>
<path d="M44.8284 42.4187C44.8284 40.7023 46.041 39.2928 47.7523 39.2928C49.6562 39.2928 50.6196 40.7934 50.6196 42.5212C50.6196 42.612 50.6082 42.8393 50.5969 42.9078H46.1996C46.347 43.8852 47.0383 44.4309 47.9222 44.4309C48.5909 44.4309 49.0669 44.1807 49.5428 43.7148L50.3475 44.4309C49.7809 45.1129 48.9989 45.5561 47.8995 45.5561C46.1657 45.556 44.8284 44.2943 44.8284 42.4187ZM49.2596 41.9981C49.169 41.1117 48.6476 40.4182 47.7411 40.4182C46.9023 40.4182 46.313 41.0662 46.1884 41.9981H49.2596Z" fill="#AA2B2B"/>
<path d="M51.8208 42.0549C51.8208 40.1908 52.0361 38.3152 54.2121 37.8603L57.476 37.1783L57.7026 38.2809L54.4387 38.9972C53.2828 39.2471 52.9314 39.9064 52.8635 40.7021C53.1695 40.1793 53.9175 39.5769 55.164 39.5769C56.7053 39.5769 58.02 40.8498 58.02 42.498C58.02 44.1577 56.7052 45.5558 54.9034 45.5558C52.9654 45.5559 51.8208 44.2714 51.8208 42.0549ZM56.6486 42.521C56.6486 41.4978 55.9008 40.668 54.9035 40.668C53.8948 40.668 53.1922 41.4865 53.1922 42.521C53.1922 43.5439 53.9401 44.3625 54.9262 44.3625C55.9574 44.3625 56.6486 43.5439 56.6486 42.521Z" fill="#AA2B2B"/>
<path d="M59.0854 42.419C59.0854 40.7026 60.2981 39.2932 62.0093 39.2932C63.9133 39.2932 64.8766 40.7937 64.8766 42.5215C64.8766 42.6123 64.8652 42.8396 64.8539 42.9081H60.4566C60.604 43.8855 61.2953 44.4312 62.1793 44.4312C62.8479 44.4312 63.3239 44.181 63.7999 43.7151L64.6046 44.4312C64.038 45.1132 63.256 45.5564 62.1567 45.5564C60.4228 45.5563 59.0854 44.2946 59.0854 42.419ZM63.5166 41.9984C63.426 41.112 62.9047 40.4185 61.998 40.4185C61.1593 40.4185 60.57 41.0665 60.4454 41.9984H63.5166Z" fill="#AA2B2B"/>
<path d="M65.9307 42.453V42.4303C65.9307 40.7254 67.2453 39.293 69.0359 39.293C70.1692 39.293 70.8719 39.7137 71.4272 40.3275L70.5772 41.2483C70.1579 40.8051 69.7159 40.4981 69.0246 40.4981C68.0273 40.4981 67.302 41.3619 67.302 42.4078V42.4304C67.302 43.4989 68.0387 44.3629 69.0926 44.3629C69.7387 44.3629 70.2147 44.056 70.6453 43.6125L71.4726 44.4311C70.8833 45.0904 70.192 45.5563 69.0247 45.5563C67.2453 45.5562 65.9307 44.1581 65.9307 42.453Z" fill="#AA2B2B"/>
<path d="M72.674 39.4179H74.0453V41.8504H76.6858V39.4179H78.0572V45.4197H76.6858V42.9984H74.0453V45.4197H72.674V39.4179Z" fill="#AA2B2B"/>
<path d="M83.4405 45.4196V44.6807C83.0325 45.1697 82.4092 45.5448 81.5026 45.5448C80.3693 45.5448 79.3719 44.8969 79.3719 43.6692C79.3719 42.3391 80.4033 41.7026 81.7972 41.7026C82.5226 41.7026 82.9872 41.8048 83.4519 41.9528V41.8391C83.4519 41.0092 82.9306 40.5545 81.9787 40.5545C81.31 40.5545 80.8114 40.7023 80.2673 40.9296L79.8934 39.8271C80.5507 39.5316 81.1967 39.3269 82.1713 39.3269C83.9392 39.3269 84.8006 40.2591 84.8006 41.8619V45.4198H83.4405V45.4196ZM83.4745 42.9076C83.1232 42.7711 82.6358 42.6689 82.1032 42.6689C81.2419 42.6689 80.7318 43.0213 80.7318 43.6237C80.7318 44.192 81.2418 44.5104 81.8878 44.5104C82.7945 44.5104 83.4744 43.9987 83.4744 43.2486L83.4745 42.9076Z" fill="#AA2B2B"/>
<path fill-rule="evenodd" clip-rule="evenodd" d="M106.418 46.7517C92.0296 22.4915 58.4331 16.2305 42.2589 33.0518C41.7937 33.3798 41.3389 33.7253 40.8955 34.0879C40.1318 34.6182 39.406 35.1808 38.7198 35.775C54.0153 11.252 98.763 12.9297 115.255 46.7517H106.418Z" fill="#7B6DA7"/>
<path fill-rule="evenodd" clip-rule="evenodd" d="M104.975 46.7516C90.2672 22.2619 55.3484 16.4891 39.8462 34.8543C38.7503 35.6981 37.7425 36.6147 36.8383 37.5933C51.1515 11.8095 97.0794 12.8639 113.771 46.7516H104.975Z" fill="#5BA3DA"/>
<path fill-rule="evenodd" clip-rule="evenodd" d="M102.794 46.752C88.1292 22.7018 53.1369 17.2872 38.181 35.9499C36.9509 37.1903 35.8298 38.579 34.8389 40.1063C34.6828 40.3371 34.5328 40.5696 34.3871 40.8039C46.3765 13.0751 94.3544 12.6803 111.457 46.752H102.794Z" fill="#A5CCED"/>
<path fill-rule="evenodd" clip-rule="evenodd" d="M100.096 46.752C85.129 22.4839 48.4658 17.9899 35.3633 39.3265C35.1766 39.5934 34.9941 39.8637 34.8162 40.1391C34.2657 40.9535 33.7817 41.7985 33.3659 42.6708C33.0998 43.1984 32.8472 43.7409 32.6095 44.2959C41.9066 14.2148 91.2909 12.7235 108.52 46.752H100.096Z" fill="#AEBF33"/>
<path fill-rule="evenodd" clip-rule="evenodd" d="M97.0814 46.7519C83.4693 24.7974 51.2917 19.8417 37.3595 36.8161C36.3974 37.8828 35.5088 39.0471 34.7089 40.3026C34.2299 41.0254 33.8013 41.7723 33.4276 42.541C33.249 42.8906 33.0756 43.2472 32.9094 43.6092C43.0763 15.7975 88.9088 14.638 105.144 46.7519H97.0814Z" fill="#FCE900"/>
<path fill-rule="evenodd" clip-rule="evenodd" d="M93.6124 46.7517C80.1205 25.2484 47.7186 21.0493 35.3526 39.3415C35.1684 39.6036 34.9889 39.8709 34.8128 40.1433C34.2667 40.9512 33.7861 41.7912 33.3727 42.6561C32.8216 43.7481 32.3311 44.8975 31.9069 46.1024C40.2452 17.6744 85.5634 15.6562 101.31 46.7517H93.6124Z" fill="#D07A1E"/>
<path fill-rule="evenodd" clip-rule="evenodd" d="M91.0093 46.7517C79.5184 23.0031 40.7624 22.2385 31.6941 46.7517H31.5798C38.745 20.7463 81.71 18.0092 96.6645 46.7517H91.0093Z" fill="#B11A28"/>
</svg>
