<svg width="200" height="121" viewBox="0 0 200 121" fill="none" xmlns="http://www.w3.org/2000/svg">
<path d="M123.158 69.3285V68.7573H123.01L122.838 69.1493L122.666 68.7573H122.517V69.3285H122.623V68.8982L122.784 69.2695H122.893L123.054 68.8973V69.3285H123.159H123.158ZM122.215 69.3285V68.8551H122.405V68.7588H121.918V68.8551H122.109V69.3285H122.214H122.215Z" fill="#F79410"/>
<path d="M106.247 71.7779H93.3716V48.645H106.248L106.247 71.7779Z" fill="#FF5F00"/>
<path d="M94.1878 60.212C94.1878 55.5195 96.3856 51.3394 99.808 48.6456C97.2174 46.6035 94.0133 45.4951 90.7143 45.5C82.5876 45.5 76 52.0867 76 60.212C76 68.3373 82.5876 74.924 90.7143 74.924C94.0134 74.929 97.2176 73.8206 99.8082 71.7785C96.3861 69.0851 94.1878 64.9048 94.1878 60.212Z" fill="#EB001B"/>
<path d="M123.618 60.212C123.618 68.3373 117.03 74.924 108.904 74.924C105.604 74.9289 102.4 73.8206 99.8087 71.7785C103.232 69.0846 105.43 64.9048 105.43 60.212C105.43 55.5193 103.232 51.3394 99.8087 48.6456C102.4 46.6035 105.604 45.4952 108.904 45.5C117.03 45.5 123.618 52.0867 123.618 60.212" fill="#F79E1B"/>
</svg>
