<svg width="147" height="83" viewBox="0 0 147 83" fill="none" xmlns="http://www.w3.org/2000/svg">
<path d="M33.9466 49.0191H30.8628V38.2542H41.9645V49.0191H38.8814V40.3454H33.9466V49.0191Z" fill="#60B238"/>
<path d="M43.4597 41.2065V51.8647H46.3016V48.2199C47.254 49.2353 48.8054 49.312 49.1794 49.312C51.8897 49.312 53.553 47.6043 53.553 45.1284C53.553 42.545 51.9079 40.9149 49.2357 40.9149C48.5621 40.9149 47.254 41.0226 46.1698 42.1455H46.1139L46.1323 41.2065H43.4597ZM46.1698 45.0974C46.1698 42.9142 47.5348 42.4838 48.3947 42.4838C49.2357 42.4838 50.6 42.9142 50.6 45.0974C50.6 46.4514 50.0209 47.7436 48.3947 47.7436C46.7312 47.7436 46.1698 46.4514 46.1698 45.0974Z" fill="#60B238"/>
<path d="M60.5988 48.0817C59.5526 49.0498 58.5446 49.3118 57.422 49.3118C54.3568 49.3118 54.2441 47.0355 54.2441 46.0976V41.2063H57.0853V45.728C57.0853 47.2818 57.6288 47.7434 58.6745 47.7434C60.4679 47.7434 60.5988 46.1591 60.5988 45.59V41.2063H63.4411V49.0191H60.5988V48.0817Z" fill="#60B238"/>
<path d="M67.516 45.728H69.2544C70.5992 45.728 70.8797 46.1282 70.8797 46.6513C70.8797 46.9893 70.6921 47.451 69.2897 47.451H67.516V45.728ZM64.6748 41.2064V49.0191H70.3195C72.3753 49.0191 73.7955 48.6194 73.7955 47.0201C73.7955 45.7897 73.103 45.2516 71.5338 44.975V44.9286C72.5621 44.7902 73.4597 44.1594 73.4597 43.0987C73.4597 41.2064 71.2164 41.2064 70.3379 41.2064H64.6748ZM67.516 42.7759H69.0475C69.8515 42.7759 70.5424 42.8988 70.5424 43.5441C70.5424 44.2523 69.4587 44.2675 68.9916 44.2675H67.516V42.7759Z" fill="#60B238"/>
<path d="M77.3837 43.7291C77.3837 42.5757 78.6171 42.4837 79.1221 42.4837C79.4402 42.4837 80.6168 42.4992 80.6552 43.514C80.6552 43.5909 80.6552 43.6524 80.6552 43.7291C80.5991 44.498 79.8514 44.3444 77.7588 44.6057C76.038 44.8363 74.2251 45.2665 74.2251 47.0511C74.2251 47.6972 74.5057 49.312 77.5336 49.312C78.6932 49.312 79.9643 49.0193 80.7106 48.2508H80.7683L81.0103 49.0193H84.0005V48.8813C83.4587 48.7734 83.4212 48.2508 83.4396 47.4047L83.4957 43.8363C83.5148 42.9296 83.4212 40.9149 79.1412 40.9149C78.113 40.9149 74.8047 41.0068 74.6738 43.7291H77.3837ZM80.6736 45.7898C80.6736 47.3587 79.2902 47.7436 78.5996 47.7436C78.0752 47.7436 77.1408 47.5738 77.1408 46.836C77.1408 45.959 78.2059 45.7898 78.8047 45.7129C79.9075 45.559 79.8137 45.6054 80.6736 45.2975V45.7898Z" fill="#60B238"/>
<path d="M83.8138 42.7761V41.2066H92.9345V42.7761H89.7945V49.0194H86.954V42.7761H83.8138Z" fill="#60B238"/>
<path d="M96.5609 40.3453H103.644V38.254H93.476V49.019H99.7186C102.747 49.019 104.69 47.9739 104.69 45.7741C104.69 42.3298 100.803 42.2524 99.7186 42.2524H96.5609V40.3453ZM96.5609 44.3441H99.1206C99.8701 44.3441 101.364 44.4213 101.364 45.7126C101.364 46.7279 100.28 46.9275 99.0654 46.9275H96.5609V44.3441Z" fill="#60B238"/>
<path d="M108.392 43.7291C108.392 42.5757 109.626 42.4838 110.13 42.4838C110.448 42.4838 111.626 42.4992 111.664 43.514C111.664 43.591 111.664 43.6524 111.664 43.7291C111.607 44.4981 110.86 44.3444 108.765 44.6057C107.046 44.8363 105.234 45.2666 105.234 47.0512C105.234 47.6972 105.513 49.312 108.541 49.312C109.7 49.312 110.971 49.0193 111.719 48.2508H111.774L112.018 49.0193H115.008V48.8814C114.468 48.7735 114.429 48.2508 114.448 47.4047L114.504 43.8364C114.523 42.9297 114.429 40.9149 110.148 40.9149C109.122 40.9149 105.812 41.0069 105.682 43.7291H108.392ZM111.682 45.7899C111.682 47.3587 110.298 47.7436 109.607 47.7436C109.084 47.7436 108.149 47.5738 108.149 46.8361C108.149 45.959 109.214 45.7899 109.812 45.7129C110.915 45.5591 110.821 45.6055 111.682 45.2975V45.7899Z" fill="#60B238"/>
<path d="M118.559 49.0193H115.718V41.2065H118.559V44.1443H121.98V41.2065H124.821V49.0193H121.98V45.7129H118.559V49.0193Z" fill="#60B238"/>
<path d="M131.998 41.2065H135.156L131.251 44.8666L135.344 49.0193H132.016L128.951 45.6055H128.896V49.0193H126.055V41.2065H128.896V44.3444H128.951L131.998 41.2065Z" fill="#60B238"/>
<path d="M10.2297 49.0472H17.3459V42.0211H10.2297V49.0472Z" fill="#373435"/>
<path d="M24.6762 34.7935C24.6762 37.1827 24.6762 42.9448 24.6762 45.334C24.0003 45.334 23.8813 45.334 23.2245 45.334C22.5977 40.1212 19.2803 36.8467 13.9998 36.2278C13.9998 35.5793 13.9998 35.4622 13.9998 34.7935C16.4198 34.7935 22.2562 34.7935 24.6762 34.7935ZM10.2373 31.0792V39.8244H12.1191C17.0711 39.8244 19.582 42.3031 19.582 47.1908V49.0488H28.4386V31.0792H10.2373Z" fill="#60B238"/>
</svg>
