<svg width="146" height="83" viewBox="0 0 146 83" fill="none" xmlns="http://www.w3.org/2000/svg">
<path d="M99.6735 32.6731H94.5233L115.173 49.9009H120.323L99.6735 32.6731ZM105.64 44.9336L99.6832 49.9009H94.533L100.48 44.9336H105.64ZM114.376 37.6404L120.333 32.6731H115.182L109.226 37.6404H114.376ZM39.9993 32.6731L37.8907 35.4768L48.6478 49.9009H52.904L39.9993 32.6731ZM34.5382 39.9663H38.7555L31.3509 49.9009H27.0947L34.5382 39.9663ZM78.8298 32.6731L76.7211 35.4768L87.4782 49.9009H91.7344L78.8298 32.6731ZM73.3687 39.9663H77.586L70.1814 49.9009H65.9252L73.3687 39.9663ZM61.3289 32.6731L61.3386 43.2208C61.3289 44.9336 60.464 47.0702 57.5586 47.2505H56.4994V49.9009C56.4994 49.9009 57.4225 49.9009 58.025 49.91C59.4243 49.928 61.4455 49.2969 62.699 48.0529C64.4579 46.322 64.6717 44.1133 64.6717 43.0495V32.6731H61.3289Z" fill="white"/>
</svg>
