<svg width="74" height="40" viewBox="0 0 74 40" fill="none" xmlns="http://www.w3.org/2000/svg">
<path d="M0.0930176 26.6396H2.35605V31.111L6.52932 26.6396H9.26257L5.07466 30.9795L9.45365 36.8682H6.73504L3.54635 32.5137L2.35605 33.7413V36.8682H0.0930176L0.0930176 26.6396Z" fill="#AA2B2B"/>
<path d="M10.8212 26.6396H15.0239C17.4778 26.6396 18.9621 28.0864 18.9621 30.205C18.9621 32.5723 17.1105 33.7996 14.8034 33.7996H13.0842V36.8681H10.8212V26.6396ZM14.877 31.7979C16.0085 31.7979 16.6697 31.1257 16.6697 30.2197C16.6697 29.2116 15.9644 28.6708 14.8329 28.6708H13.0842V31.7979L14.877 31.7979Z" fill="#AA2B2B"/>
<path d="M29.4993 36.8691H27.2657V30.1621L22.7692 36.8691H20.6384V26.6406H22.872V33.3477L27.398 26.6406H29.4993V36.8691Z" fill="#AA2B2B"/>
<path d="M31.9692 26.6396H34.2322V30.6873H38.4055V26.6396H40.6685V36.8682H38.4055V32.7623H34.2322V36.8682H31.9692V26.6396Z" fill="#AA2B2B"/>
<path d="M51.9993 36.8681H49.7658V30.1612L45.2692 36.8681H43.1384V26.6396H45.372V33.3467L49.898 26.6396H51.9993V36.8681H51.9993Z" fill="#AA2B2B"/>
<path d="M62.0957 36.8681H54.4692V26.6396H56.7322V34.8371H60.7879V26.6396H63.0508V34.8371H64.2705L63.9766 39.0016H62.0957V36.8681H62.0957Z" fill="#AA2B2B"/>
<path d="M73.9997 36.8692H71.7368V33.5963H69.9587L67.7546 36.8692H65.1093L67.6222 33.2163C66.3143 32.7341 65.418 31.6965 65.418 30.0161C65.418 27.8974 66.8875 26.6406 69.2974 26.6406H73.9997V36.8692ZM71.7367 31.609V28.6718H69.4883C68.3863 28.6718 67.7103 29.1687 67.7103 30.1623C67.7103 31.0243 68.3421 31.609 69.4443 31.609H71.7367V31.609Z" fill="#AA2B2B"/>
<path d="M5.72296 17.7939H6.93573V19.9266H9.27104V17.7939H10.4838V23.0561H9.27097V20.9332H6.93566V23.0561H5.72296V17.7939Z" fill="#AA2B2B"/>
<path d="M11.7168 20.4252C11.7168 18.9204 12.7892 17.6846 14.3026 17.6846C15.9864 17.6846 16.8384 19.0002 16.8384 20.5151C16.8384 20.5947 16.8283 20.794 16.8183 20.854H12.9295C13.0598 21.711 13.6712 22.1894 14.4529 22.1894C15.0443 22.1894 15.4652 21.97 15.8861 21.5616L16.5977 22.1894C16.0966 22.7873 15.4051 23.176 14.4328 23.176C12.8995 23.1759 11.7168 22.0696 11.7168 20.4252ZM15.6357 20.0564C15.5555 19.2792 15.0944 18.6713 14.2927 18.6713C13.551 18.6713 13.0298 19.2393 12.9196 20.0564H15.6357Z" fill="#AA2B2B"/>
<path d="M17.9007 20.1047C17.9007 18.4703 18.0911 16.8259 20.0155 16.427L22.902 15.8291L23.1024 16.7957L20.2159 17.4238C19.1936 17.6429 18.8829 18.2209 18.8228 18.9186C19.0934 18.4602 19.7549 17.932 20.8573 17.932C22.2204 17.932 23.383 19.048 23.383 20.4932C23.383 21.9483 22.2203 23.1741 20.6268 23.1741C18.913 23.1742 17.9007 22.048 17.9007 20.1047ZM22.1703 20.5133C22.1703 19.6162 21.5089 18.8887 20.6269 18.8887C19.7349 18.8887 19.1135 19.6063 19.1135 20.5133C19.1135 21.4102 19.7749 22.1279 20.647 22.1279C21.559 22.1279 22.1703 21.4102 22.1703 20.5133Z" fill="#AA2B2B"/>
<path d="M24.3253 20.4252C24.3253 18.9204 25.3978 17.6846 26.9112 17.6846C28.5949 17.6846 29.4469 19.0002 29.4469 20.5151C29.4469 20.5947 29.4368 20.794 29.4268 20.854H25.538C25.6683 21.711 26.2797 22.1894 27.0615 22.1894C27.6528 22.1894 28.0738 21.97 28.4947 21.5616L29.2064 22.1894C28.7053 22.7873 28.0137 23.176 27.0414 23.176C25.508 23.1759 24.3253 22.0696 24.3253 20.4252ZM28.2442 20.0564C28.164 19.2792 27.703 18.6713 26.9011 18.6713C26.1594 18.6713 25.6382 19.2393 25.5281 20.0564H28.2442Z" fill="#AA2B2B"/>
<path d="M30.379 20.4551V20.4352C30.379 18.9404 31.5416 17.6846 33.1252 17.6846C34.1275 17.6846 34.7489 18.0534 35.24 18.5915L34.4883 19.3989C34.1175 19.0103 33.7266 18.7411 33.1152 18.7411C32.2332 18.7411 31.5918 19.4985 31.5918 20.4155V20.4353C31.5918 21.3721 32.2433 22.1297 33.1754 22.1297C33.7467 22.1297 34.1677 21.8606 34.5485 21.4717L35.2802 22.1894C34.759 22.7675 34.1476 23.176 33.1153 23.176C31.5417 23.1759 30.379 21.9501 30.379 20.4551Z" fill="#AA2B2B"/>
<path d="M36.3427 17.7939H37.5554V19.9266H39.8907V17.7939H41.1035V23.0561H39.8907V20.9332H37.5554V23.0561H36.3427V17.7939Z" fill="#AA2B2B"/>
<path d="M45.8643 23.0547V22.4069C45.5034 22.8356 44.9522 23.1644 44.1505 23.1644C43.1482 23.1644 42.2661 22.5964 42.2661 21.52C42.2661 20.3538 43.1782 19.7958 44.411 19.7958C45.0525 19.7958 45.4634 19.8854 45.8743 20.0152V19.9155C45.8743 19.1879 45.4133 18.7892 44.5715 18.7892C43.9801 18.7892 43.5391 18.9188 43.058 19.1181L42.7273 18.1514C43.3086 17.8924 43.8799 17.7129 44.7419 17.7129C46.3053 17.7129 47.0671 18.5302 47.0671 19.9354V23.0549H45.8643V23.0547ZM45.8943 20.8523C45.5837 20.7326 45.1526 20.643 44.6816 20.643C43.9198 20.643 43.4688 20.952 43.4688 21.4801C43.4688 21.9784 43.9198 22.2576 44.4911 22.2576C45.293 22.2576 45.8943 21.809 45.8943 21.1513L45.8943 20.8523Z" fill="#AA2B2B"/>
<path fill-rule="evenodd" clip-rule="evenodd" d="M66.1848 24.2213C53.4602 2.951 23.7483 -2.53839 9.44428 12.2098C9.03285 12.4974 8.63067 12.8003 8.23855 13.1182C7.56311 13.5832 6.92127 14.0764 6.31445 14.5974C19.8413 -6.90333 59.415 -5.43243 74 24.2213H66.1848Z" fill="#7B6DA7"/>
<path fill-rule="evenodd" clip-rule="evenodd" d="M64.9087 24.2213C51.9015 2.74979 21.0203 -2.31155 7.3106 13.7903C6.34138 14.5301 5.4501 15.3337 4.65042 16.1917C17.3087 -6.41448 57.9261 -5.49003 72.6876 24.2213H64.9087Z" fill="#5BA3DA"/>
<path fill-rule="evenodd" clip-rule="evenodd" d="M62.9802 24.2216C50.0107 3.1353 19.0645 -1.61192 5.83785 14.7507C4.74997 15.8383 3.75857 17.0558 2.88223 18.3949C2.74412 18.5973 2.61148 18.8011 2.48264 19.0065C13.0857 -5.30494 55.5162 -5.65111 70.6414 24.2216H62.9802Z" fill="#A5CCED"/>
<path fill-rule="evenodd" clip-rule="evenodd" d="M60.594 24.2216C47.3575 2.94425 14.9336 -0.995866 3.34602 17.7112C3.18093 17.9452 3.0195 18.1822 2.86223 18.4236C2.37536 19.1377 1.94727 19.8786 1.57955 20.6433C1.34426 21.1059 1.12088 21.5816 0.910645 22.0682C9.1328 -4.30574 52.807 -5.61319 68.0437 24.2216H60.594Z" fill="#AEBF33"/>
<path fill-rule="evenodd" clip-rule="evenodd" d="M57.9278 24.2215C45.8896 4.97269 17.4326 0.627731 5.11135 15.5101C4.26049 16.4454 3.47466 17.4662 2.76721 18.567C2.34365 19.2007 1.96459 19.8555 1.63405 20.5295C1.47613 20.836 1.32274 21.1487 1.17581 21.4661C10.1671 -2.91811 50.7001 -3.93471 65.0585 24.2215H57.9278Z" fill="#FCE900"/>
<path fill-rule="evenodd" clip-rule="evenodd" d="M54.86 24.221C42.9281 5.36768 14.2727 1.68608 3.33653 17.724C3.17366 17.9537 3.01489 18.1881 2.8592 18.427C2.3762 19.1353 1.9512 19.8718 1.58564 20.6301C1.09819 21.5875 0.664432 22.5953 0.289246 23.6516C7.66348 -1.27284 47.7417 -3.04237 61.6679 24.221H54.86Z" fill="#D07A1E"/>
<path fill-rule="evenodd" clip-rule="evenodd" d="M52.5578 24.2215C42.3956 3.39968 8.1208 2.72925 0.101064 24.2215H0C6.33667 1.42102 44.3338 -0.978825 57.5591 24.2215H52.5578Z" fill="#B11A28"/>
</svg>
