<svg width="105" height="42" viewBox="0 0 105 42" fill="none" xmlns="http://www.w3.org/2000/svg">
<path d="M0.5 27.5L14.4483 41.0696L19.2258 22.2052L0.5 27.5ZM12.1412 31.9197C14.9297 32.469 17.6412 32.9341 20.2777 33.3204L20.7663 29.9854C18.1858 29.6074 15.5286 29.1516 12.7926 28.6127L12.1412 31.9197ZM28.5009 34.2975C31.3442 34.5538 34.0914 34.7138 36.7455 34.7855L36.8365 31.4162C34.255 31.3464 31.5783 31.1907 28.8035 30.9405L28.5009 34.2975ZM45.0492 34.718C47.9339 34.5887 50.6941 34.3495 53.3346 34.0137L52.9093 30.6701C50.3619 30.9941 47.6932 31.2255 44.8982 31.3509L45.0492 34.718ZM61.5378 32.5901C64.3793 31.9577 67.057 31.2085 69.5789 30.3651L68.5098 27.1686C66.0994 27.9747 63.5342 28.6927 60.8056 29.3L61.5378 32.5901ZM77.3345 27.2747C80.0077 26.025 82.4594 24.6726 84.7044 23.2591L82.9086 20.4068C80.7798 21.7471 78.451 23.0321 75.9071 24.2214L77.3345 27.2747ZM91.4981 18.3331C93.8318 16.3916 95.8442 14.4283 97.5687 12.535L95.0769 10.2653C93.4503 12.0511 91.5495 13.9059 89.3425 15.7419L91.4981 18.3331ZM102.768 5.91832C103.679 4.56089 104.407 3.34073 104.974 2.31652L102.026 0.683483C101.501 1.63095 100.822 2.76893 99.9693 4.04078L102.768 5.91832Z" fill="url(#paint0_linear_257_336)" fill-opacity="0.1"/>
<defs>
<linearGradient id="paint0_linear_257_336" x1="-72.5" y1="33" x2="47.9744" y2="-62.8476" gradientUnits="userSpaceOnUse">
<stop stop-color="white" stop-opacity="0"/>
<stop offset="0.567708" stop-color="white"/>
<stop offset="1" stop-color="white" stop-opacity="0"/>
</linearGradient>
</defs>
</svg>
