<svg width="200" height="121" viewBox="0 0 200 121" fill="none" xmlns="http://www.w3.org/2000/svg">
<path d="M125.579 51.5H120.429L141.078 68.7279H146.228L125.579 51.5ZM131.545 63.7605L125.588 68.7279H120.438L126.385 63.7605H131.545ZM140.281 56.4673L146.238 51.5H141.088L135.131 56.4673H140.281ZM65.9046 51.5L63.796 54.3037L74.553 68.7279H78.8092L65.9046 51.5ZM60.4435 58.7932H64.6608L57.2562 68.7279H53L60.4435 58.7932ZM104.735 51.5L102.626 54.3037L113.384 68.7279H117.64L104.735 51.5ZM99.2739 58.7932H103.491L96.0867 68.7279H91.8305L99.2739 58.7932ZM87.2342 51.5L87.2439 62.0477C87.2342 63.7605 86.3693 65.8971 83.4638 66.0774H82.4046V68.7279C82.4046 68.7279 83.3278 68.7279 83.9303 68.7369C85.3296 68.7549 87.3508 68.1238 88.6043 66.8798C90.3631 65.1489 90.5769 62.9402 90.5769 61.8764V51.5H87.2342Z" fill="white"/>
</svg>
