<svg width="81" height="42" viewBox="0 0 81 42" fill="none" xmlns="http://www.w3.org/2000/svg">
<path d="M0.101654 28.6873H2.57531V33.5025L7.13699 28.6873H10.1246L5.54694 33.3608L10.3335 39.7025H7.36185L3.87639 35.0131L2.57531 36.3351V39.7025H0.101654L0.101654 28.6873Z" fill="#AA2B2B"/>
<path d="M11.8283 28.6873H16.4222C19.1045 28.6873 20.7269 30.2453 20.7269 32.5269C20.7269 35.0762 18.7031 36.3979 16.1812 36.3979H14.302V39.7024H11.8283V28.6873ZM16.2617 34.2422C17.4985 34.2422 18.2212 33.5183 18.2212 32.5427C18.2212 31.457 17.4502 30.8746 16.2134 30.8746H14.302V34.2422L16.2617 34.2422Z" fill="#AA2B2B"/>
<path d="M32.2448 39.7026H29.8034V32.4798L24.8884 39.7026H22.5592V28.6875H25.0008V35.9104L29.9479 28.6875H32.2448V39.7026Z" fill="#AA2B2B"/>
<path d="M34.9446 28.6873H37.4183V33.0462H41.98V28.6873H44.4536V39.7025H41.98V35.2808H37.4183V39.7025H34.9446V28.6873Z" fill="#AA2B2B"/>
<path d="M56.839 39.7024H54.3976V32.4796L49.4825 39.7024H47.1534V28.6873H49.5949V35.9101L54.5421 28.6873H56.8389V39.7024H56.839Z" fill="#AA2B2B"/>
<path d="M67.8751 39.7024H59.5388V28.6873H62.0124V37.5151H66.4455V28.6873H68.9191V37.5151H70.2523L69.9311 41.9999H67.8751V39.7024H67.8751Z" fill="#AA2B2B"/>
<path d="M80.887 39.7027H78.4134V36.1781H76.4698L74.0606 39.7027H71.1691L73.9159 35.7689C72.4863 35.2496 71.5066 34.1322 71.5066 32.3226C71.5066 30.0409 73.1128 28.6875 75.747 28.6875H80.887V39.7027ZM78.4133 34.038V30.8749H75.9557C74.7511 30.8749 74.0122 31.41 74.0122 32.48C74.0122 33.4084 74.7028 34.038 75.9076 34.038H78.4133V34.038Z" fill="#AA2B2B"/>
<path d="M6.25562 19.1606H7.58126V21.4574H10.1339V19.1606H11.4596V24.8275H10.1338V22.5413H7.58118V24.8275H6.25562V19.1606Z" fill="#AA2B2B"/>
<path d="M12.8073 21.9936C12.8073 20.3731 13.9796 19.0422 15.6338 19.0422C17.4743 19.0422 18.4056 20.459 18.4056 22.0905C18.4056 22.1762 18.3945 22.3908 18.3836 22.4554H14.1329C14.2754 23.3783 14.9436 23.8935 15.7981 23.8935C16.4445 23.8935 16.9046 23.6573 17.3647 23.2174L18.1425 23.8935C17.5948 24.5374 16.8389 24.956 15.7761 24.956C14.1001 24.9559 12.8073 23.7646 12.8073 21.9936ZM17.0909 21.5965C17.0033 20.7595 16.4993 20.1048 15.623 20.1048C14.8122 20.1048 14.2425 20.7166 14.122 21.5965H17.0909Z" fill="#AA2B2B"/>
<path d="M19.5667 21.6503C19.5667 19.8902 19.7749 18.1193 21.8783 17.6898L25.0335 17.0459L25.2526 18.0869L22.0974 18.7632C20.98 18.9992 20.6403 19.6217 20.5747 20.373C20.8705 19.8794 21.5935 19.3106 22.7985 19.3106C24.2885 19.3106 25.5593 20.5124 25.5593 22.0687C25.5593 23.6357 24.2884 24.9558 22.5466 24.9558C20.6732 24.9559 19.5667 23.7431 19.5667 21.6503ZM24.2337 22.0904C24.2337 21.1242 23.5108 20.3408 22.5467 20.3408C21.5717 20.3408 20.8924 21.1136 20.8924 22.0904C20.8924 23.0562 21.6154 23.8291 22.5686 23.8291C23.5655 23.8291 24.2337 23.0562 24.2337 22.0904Z" fill="#AA2B2B"/>
<path d="M26.5894 21.9936C26.5894 20.3731 27.7616 19.0422 29.4158 19.0422C31.2563 19.0422 32.1876 20.459 32.1876 22.0905C32.1876 22.1762 32.1765 22.3908 32.1656 22.4554H27.9148C28.0573 23.3783 28.7256 23.8935 29.5801 23.8935C30.2265 23.8935 30.6866 23.6573 31.1467 23.2174L31.9246 23.8935C31.3769 24.5374 30.621 24.956 29.5582 24.956C27.8821 24.9559 26.5894 23.7646 26.5894 21.9936ZM30.8729 21.5965C30.7853 20.7595 30.2813 20.1048 29.4049 20.1048C28.5941 20.1048 28.0244 20.7166 27.904 21.5965H30.8729Z" fill="#AA2B2B"/>
<path d="M33.2065 22.0258V22.0044C33.2065 20.3947 34.4773 19.0422 36.2082 19.0422C37.3038 19.0422 37.9831 19.4394 38.5199 20.019L37.6983 20.8884C37.2929 20.4699 36.8657 20.1801 36.1973 20.1801C35.2332 20.1801 34.5321 20.9957 34.5321 21.9831V22.0045C34.5321 23.0134 35.2443 23.8292 36.2631 23.8292C36.8876 23.8292 37.3478 23.5394 37.764 23.1207L38.5638 23.8935C37.9941 24.5161 37.3258 24.956 36.1974 24.956C34.4774 24.9559 33.2065 23.6358 33.2065 22.0258Z" fill="#AA2B2B"/>
<path d="M39.7252 19.1606H41.0508V21.4574H43.6034V19.1606H44.929V24.8275H43.6034V22.5413H41.0508V24.8275H39.7252V19.1606Z" fill="#AA2B2B"/>
<path d="M50.1329 24.8269V24.1292C49.7385 24.5909 49.136 24.9451 48.2596 24.9451C47.164 24.9451 46.1999 24.3334 46.1999 23.1742C46.1999 21.9183 47.1969 21.3174 48.5444 21.3174C49.2456 21.3174 49.6947 21.4138 50.1439 21.5536V21.4463C50.1439 20.6626 49.64 20.2333 48.7198 20.2333C48.0734 20.2333 47.5914 20.3728 47.0655 20.5874L46.704 19.5465C47.3394 19.2675 47.9639 19.0742 48.906 19.0742C50.615 19.0742 51.4477 19.9544 51.4477 21.4677V24.8271H50.1329V24.8269ZM50.1658 22.4551C49.8262 22.3262 49.3551 22.2297 48.8401 22.2297C48.0075 22.2297 47.5145 22.5624 47.5145 23.1312C47.5145 23.6678 48.0075 23.9684 48.6319 23.9684C49.5085 23.9684 50.1657 23.4853 50.1657 22.7771L50.1658 22.4551Z" fill="#AA2B2B"/>
<path fill-rule="evenodd" clip-rule="evenodd" d="M72.3447 26.0842C58.4358 3.17795 25.9586 -2.73361 10.3233 13.1489C9.87353 13.4586 9.43392 13.7848 9.0053 14.1271C8.267 14.6278 7.56542 15.1591 6.90213 15.7201C21.688 -7.43426 64.9448 -5.85024 80.8872 26.0842H72.3447Z" fill="#7B6DA7"/>
<path fill-rule="evenodd" clip-rule="evenodd" d="M70.9499 26.0838C56.7321 2.96087 22.9767 -2.48974 7.99102 14.8505C6.93159 15.6472 5.95736 16.5126 5.08325 17.4366C18.9196 -6.90822 63.3174 -5.91267 79.4528 26.0838H70.9499Z" fill="#5BA3DA"/>
<path fill-rule="evenodd" clip-rule="evenodd" d="M68.8419 26.0847C54.6653 3.37668 20.8388 -1.73565 6.38117 15.8854C5.19205 17.0566 4.10837 18.3678 3.15046 19.8098C2.99951 20.0278 2.85452 20.2474 2.71368 20.4686C14.3036 -5.7127 60.6831 -6.08549 77.216 26.0847H68.8419Z" fill="#A5CCED"/>
<path fill-rule="evenodd" clip-rule="evenodd" d="M66.2335 26.0848C51.7652 3.17102 16.3234 -1.07213 3.65743 19.0737C3.47697 19.3257 3.30052 19.5809 3.12861 19.8409C2.59643 20.6099 2.1285 21.4077 1.72655 22.2313C1.46936 22.7295 1.2252 23.2417 0.995392 23.7658C9.98279 -4.63656 57.7218 -6.04457 74.3766 26.0848H66.2335Z" fill="#AEBF33"/>
<path fill-rule="evenodd" clip-rule="evenodd" d="M63.3192 26.0844C50.1606 5.35518 19.0551 0.676052 5.58707 16.7031C4.65702 17.7103 3.79805 18.8096 3.02476 19.995C2.56177 20.6775 2.14743 21.3826 1.78613 22.1085C1.61352 22.4385 1.44585 22.7753 1.28525 23.1171C11.1134 -3.1425 55.4189 -4.23728 71.1136 26.0844H63.3192Z" fill="#FCE900"/>
<path fill-rule="evenodd" clip-rule="evenodd" d="M59.9659 26.0842C46.9234 5.78086 15.6011 1.81612 3.64706 19.0875C3.46903 19.3349 3.29548 19.5873 3.12531 19.8445C2.59736 20.6073 2.1328 21.4005 1.73321 22.2171C1.20039 23.2482 0.726267 24.3334 0.316162 25.471C8.37672 -1.37038 52.1851 -3.276 67.4073 26.0842H59.9659Z" fill="#D07A1E"/>
<path fill-rule="evenodd" clip-rule="evenodd" d="M57.4495 26.0838C46.3414 3.66059 8.87661 2.9386 0.11047 26.0838H0C6.92643 1.52975 48.46 -1.05466 62.9162 26.0838H57.4495Z" fill="#B11A28"/>
</svg>
