<svg width="200" height="121" viewBox="0 0 200 121" fill="none" xmlns="http://www.w3.org/2000/svg">
<path d="M64.4348 67.7135H61.6477V57.9844H71.6812V67.7135H68.8947V59.8744H64.4348V67.7135Z" fill="#60B238"/>
<path d="M73.0326 60.6527V70.2854H75.601V66.9912C76.4617 67.909 77.8639 67.9783 78.2019 67.9783C80.6514 67.9783 82.1546 66.4349 82.1546 64.1972C82.1546 61.8624 80.6679 60.3892 78.2528 60.3892C77.644 60.3892 76.4617 60.4865 75.4819 61.5013H75.4314L75.448 60.6527H73.0326ZM75.4819 64.1692C75.4819 62.1961 76.7155 61.807 77.4927 61.807C78.2528 61.807 79.4858 62.1961 79.4858 64.1692C79.4858 65.3929 78.9624 66.5608 77.4927 66.5608C75.9893 66.5608 75.4819 65.3929 75.4819 64.1692Z" fill="#60B238"/>
<path d="M88.5225 66.8662C87.577 67.7412 86.6659 67.9779 85.6514 67.9779C82.8811 67.9779 82.7793 65.9207 82.7793 65.073V60.6523H85.3471V64.7389C85.3471 66.1432 85.8382 66.5605 86.7834 66.5605C88.4042 66.5605 88.5225 65.1286 88.5225 64.6143V60.6523H91.0913V67.7134H88.5225V66.8662Z" fill="#60B238"/>
<path d="M94.7742 64.7389H96.3453C97.5606 64.7389 97.8142 65.1006 97.8142 65.5734C97.8142 65.8789 97.6446 66.2961 96.3771 66.2961H94.7742V64.7389ZM92.2063 60.6523V67.7134H97.3079C99.1659 67.7134 100.449 67.3521 100.449 65.9067C100.449 64.7947 99.8236 64.3084 98.4054 64.0584V64.0164C99.3347 63.8913 100.146 63.3213 100.146 62.3626C100.146 60.6523 98.1185 60.6523 97.3245 60.6523H92.2063ZM94.7742 62.0708H96.1583C96.8849 62.0708 97.5093 62.1819 97.5093 62.7652C97.5093 63.4052 96.5299 63.419 96.1077 63.419H94.7742V62.0708Z" fill="#60B238"/>
<path d="M103.692 62.9326C103.692 61.8902 104.807 61.807 105.263 61.807C105.551 61.807 106.614 61.821 106.649 62.7382C106.649 62.8077 106.649 62.8633 106.649 62.9326C106.598 63.6275 105.923 63.4887 104.031 63.7249C102.476 63.9333 100.838 64.3221 100.838 65.935C100.838 66.5189 101.091 67.9783 103.828 67.9783C104.876 67.9783 106.025 67.7137 106.699 67.0192H106.751L106.97 67.7137H109.672V67.5891C109.183 67.4915 109.149 67.0192 109.166 66.2545L109.216 63.0295C109.233 62.2101 109.149 60.3892 105.281 60.3892C104.351 60.3892 101.361 60.4723 101.243 62.9326H103.692ZM106.666 64.7951C106.666 66.2129 105.415 66.5608 104.791 66.5608C104.317 66.5608 103.473 66.4074 103.473 65.7406C103.473 64.9479 104.435 64.7951 104.977 64.7255C105.973 64.5864 105.889 64.6284 106.666 64.3501V64.7951Z" fill="#60B238"/>
<path d="M109.504 62.0713V60.6528H117.747V62.0713H114.909V67.7139H112.342V62.0713H109.504Z" fill="#60B238"/>
<path d="M121.024 59.8744H127.426V57.9844H118.236V67.7135H123.878C126.615 67.7135 128.371 66.769 128.371 64.7808C128.371 61.6679 124.858 61.598 123.878 61.598H121.024V59.8744ZM121.024 63.4885H123.338C124.015 63.4885 125.365 63.5582 125.365 64.7253C125.365 65.6428 124.385 65.8233 123.288 65.8233H121.024V63.4885Z" fill="#60B238"/>
<path d="M131.717 62.9326C131.717 61.8902 132.833 61.807 133.288 61.807C133.575 61.807 134.64 61.821 134.674 62.7382C134.674 62.8077 134.674 62.8633 134.674 62.9326C134.623 63.6275 133.948 63.4887 132.054 63.7249C130.501 63.9333 128.863 64.3221 128.863 65.935C128.863 66.5189 129.115 67.9783 131.852 67.9783C132.899 67.9783 134.048 67.7137 134.724 67.0192H134.774L134.994 67.7137H137.697V67.5891C137.209 67.4915 137.173 67.0192 137.191 66.2545L137.241 63.0295C137.258 62.2101 137.173 60.3892 133.304 60.3892C132.376 60.3892 129.386 60.4723 129.268 62.9326H131.717ZM134.69 64.7951C134.69 66.2129 133.44 66.5608 132.815 66.5608C132.342 66.5608 131.498 66.4074 131.498 65.7406C131.498 64.9479 132.46 64.7951 133 64.7255C133.998 64.5864 133.913 64.6284 134.69 64.3501V64.7951Z" fill="#60B238"/>
<path d="M140.906 67.7139H138.338V60.6528H140.906V63.308H143.998V60.6528H146.566V67.7139H143.998V64.7256H140.906V67.7139Z" fill="#60B238"/>
<path d="M153.052 60.6528H155.906L152.376 63.9608L156.075 67.7139H153.068L150.298 64.6285H150.248V67.7139H147.681V60.6528H150.248V63.4888H150.298L153.052 60.6528Z" fill="#60B238"/>
<path d="M43 67.7392H49.4315V61.3892H43V67.7392Z" fill="#373435"/>
<path d="M56.0564 54.857C56.0564 57.0162 56.0564 62.2239 56.0564 64.3832C55.4456 64.3832 55.338 64.3832 54.7444 64.3832C54.1779 59.672 51.1797 56.7126 46.4073 56.1532C46.4073 55.5671 46.4073 55.4613 46.4073 54.857C48.5944 54.857 53.8693 54.857 56.0564 54.857ZM43.0069 51.5V59.4038H44.7076C49.1831 59.4038 51.4524 61.6439 51.4524 66.0614V67.7406H59.4569V51.5H43.0069Z" fill="#60B238"/>
</svg>
