<svg width="139" height="36" viewBox="0 0 139 36" fill="none" xmlns="http://www.w3.org/2000/svg">
<path d="M2.24968 6.31526H17.5757V26H13.3294V10.2803H6.52408V26H2.24968V6.31526ZM29.927 10.3928C32.2141 10.3928 34.1076 11.1521 35.6074 12.6706C37.1259 14.1892 37.8852 16.1014 37.8852 18.4073C37.8852 20.7132 37.1259 22.6348 35.6074 24.1721C34.0889 25.6907 32.1954 26.4499 29.927 26.4499C28.3709 26.4499 26.9742 26.0281 25.7369 25.1845V31.4836H21.6312V10.8146H24.359L25.062 12.1926C26.4118 10.9927 28.0335 10.3928 29.927 10.3928ZM26.6087 21.3881C27.3961 22.1755 28.3803 22.5692 29.5614 22.5692C30.7612 22.5692 31.7548 22.1755 32.5422 21.3881C33.3296 20.6008 33.7233 19.6071 33.7233 18.4073C33.7233 17.6199 33.5452 16.9075 33.189 16.2701C32.8328 15.6327 32.336 15.1359 31.6986 14.7797C31.0799 14.4235 30.3769 14.2454 29.5895 14.2454C28.8021 14.2454 28.0897 14.4235 27.4523 14.7797C26.8149 15.1359 26.3181 15.6327 25.9619 16.2701C25.6244 16.9075 25.4557 17.6199 25.4557 18.4073C25.4557 19.6071 25.84 20.6008 26.6087 21.3881ZM48.0268 26.4218C46.4708 26.4218 45.0647 26.075 43.8086 25.3813C42.5526 24.6877 41.5683 23.7316 40.8559 22.513C40.1623 21.2757 39.8155 19.9071 39.8155 18.4073C39.8155 16.1014 40.5935 14.1892 42.1495 12.6706C43.7055 11.1521 45.6646 10.3928 48.0268 10.3928C50.3702 10.3928 52.32 11.1521 53.876 12.6706C55.432 14.1892 56.21 16.1014 56.21 18.4073C56.21 20.6945 55.4226 22.6067 53.8479 24.144C52.2918 25.6625 50.3515 26.4218 48.0268 26.4218ZM48.0268 22.5692C49.2079 22.5692 50.1734 22.1849 50.9233 21.4163C51.6732 20.6289 52.0481 19.6259 52.0481 18.4073C52.0481 17.1887 51.6732 16.1951 50.9233 15.4265C50.1734 14.6391 49.1985 14.2454 47.9987 14.2454C46.8176 14.2454 45.8521 14.6391 45.1022 15.4265C44.3523 16.1951 43.9774 17.1887 43.9774 18.4073C43.9774 19.0072 44.0711 19.5697 44.2586 20.0946C44.4648 20.6195 44.746 21.0601 45.1022 21.4163C45.4584 21.7725 45.8802 22.0537 46.3677 22.2599C46.8738 22.4661 47.4269 22.5692 48.0268 22.5692Z" fill="#8E43FE"/>
<path d="M69.1619 26.3937C66.8747 26.3937 65.0281 25.7938 63.6221 24.5939C62.2348 23.3754 61.5411 21.7162 61.5411 19.6165H65.8436C65.8436 20.0852 65.928 20.507 66.0967 20.882C66.2842 21.2382 66.5279 21.5288 66.8279 21.7537C67.1466 21.9787 67.5028 22.1474 67.8965 22.2599C68.2902 22.3724 68.7026 22.4286 69.1338 22.4286C69.9962 22.4286 70.7367 22.2224 71.3554 21.81C71.9928 21.3975 72.3115 20.8351 72.3115 20.1227C72.3115 19.8227 72.2365 19.5603 72.0865 19.3353C71.9365 19.0916 71.7584 18.9041 71.5522 18.7729C71.3647 18.6229 71.0648 18.4729 70.6523 18.323C70.2586 18.173 69.9212 18.0605 69.64 17.9855C69.3588 17.9105 68.937 17.8074 68.3745 17.6762C67.9246 17.5637 67.5871 17.4793 67.3622 17.4231C67.1372 17.3668 66.7998 17.2731 66.3498 17.1419C65.9186 17.0106 65.5812 16.8982 65.3375 16.8044C65.1125 16.6919 64.8125 16.542 64.4376 16.3545C64.0626 16.167 63.7721 15.9795 63.5658 15.7921C63.3596 15.6046 63.1253 15.3702 62.8628 15.089C62.6191 14.8078 62.4316 14.5172 62.3004 14.2173C62.1692 13.8986 62.0567 13.5424 61.9629 13.1487C61.8692 12.7362 61.8223 12.305 61.8223 11.8551C61.8223 9.98037 62.4597 8.52745 63.7346 7.49635C65.0094 6.46524 66.7529 5.94969 68.9651 5.94969C71.196 5.94969 72.9301 6.51211 74.1675 7.63695C75.4235 8.76179 76.0516 10.3085 76.0516 12.2769H71.8334C71.8334 11.4708 71.5428 10.8615 70.9617 10.4491C70.3992 10.0179 69.6962 9.80227 68.8526 9.80227C68.1027 9.80227 67.4465 9.96162 66.8841 10.2803C66.3404 10.599 66.0686 11.0583 66.0686 11.6583C66.0686 11.9395 66.1342 12.1926 66.2655 12.4175C66.4154 12.6238 66.5842 12.8019 66.7716 12.9518C66.9591 13.0831 67.2497 13.2237 67.6434 13.3736C68.0371 13.5049 68.3652 13.608 68.6276 13.683C68.9088 13.7392 69.3213 13.833 69.8649 13.9642C70.4649 14.1142 70.9148 14.236 71.2148 14.3298C71.5147 14.4048 71.9459 14.5454 72.5083 14.7516C73.0707 14.9391 73.5019 15.1265 73.8019 15.314C74.1206 15.5015 74.4862 15.7546 74.8986 16.0733C75.3111 16.3732 75.6204 16.7107 75.8266 17.0856C76.0516 17.4418 76.2391 17.8824 76.389 18.4073C76.5578 18.9135 76.6421 19.4665 76.6421 20.0665C76.6421 21.435 76.2953 22.6067 75.6016 23.5816C74.908 24.5565 74.0081 25.2689 72.902 25.7188C71.8147 26.1687 70.568 26.3937 69.1619 26.3937ZM92.1689 10.7865H95.2341V25.9719H92.0002L91.6627 24.6221C90.2754 25.8219 88.635 26.4218 86.7415 26.4218C84.4544 26.4218 82.5515 25.6625 81.033 24.144C79.5332 22.6067 78.7833 20.6851 78.7833 18.3792C78.7833 16.092 79.5332 14.1892 81.033 12.6706C82.5515 11.1521 84.4544 10.3928 86.7415 10.3928C88.6725 10.3928 90.3317 11.0115 91.719 12.2488L92.1689 10.7865ZM84.0982 21.36C84.8855 22.1474 85.8698 22.5411 87.0509 22.5411C88.2507 22.5411 89.2443 22.1474 90.0317 21.36C90.8191 20.5726 91.2128 19.579 91.2128 18.3792C91.2128 17.1794 90.8191 16.1858 90.0317 15.3984C89.2443 14.611 88.2601 14.2173 87.079 14.2173C86.2916 14.2173 85.5792 14.4048 84.9418 14.7797C84.3231 15.1359 83.8357 15.6327 83.4795 16.2701C83.1233 16.8888 82.9452 17.5918 82.9452 18.3792C82.9452 19.579 83.3295 20.5726 84.0982 21.36ZM99.1831 26V5.33103H103.289V26H99.1831ZM121.965 18.3511C121.965 18.7448 121.937 19.1478 121.881 19.5603H110.407C110.576 20.5914 110.979 21.3881 111.616 21.9506C112.273 22.4942 113.107 22.7661 114.119 22.7661C114.813 22.7661 115.441 22.6161 116.003 22.3161C116.566 21.9974 117.006 21.5662 117.325 21.0226H121.656C121.093 22.6723 120.137 23.9847 118.787 24.9595C117.437 25.9344 115.881 26.4218 114.119 26.4218C111.869 26.4218 109.995 25.6532 108.495 24.1159C106.995 22.5786 106.245 20.6757 106.245 18.4073C106.245 17.5074 106.367 16.6451 106.611 15.8202C106.873 14.9953 107.239 14.2548 107.708 13.5986C108.195 12.9425 108.757 12.38 109.395 11.9114C110.032 11.4239 110.754 11.049 111.56 10.7865C112.366 10.524 113.219 10.3928 114.119 10.3928C115.638 10.3928 116.997 10.749 118.197 11.4614C119.415 12.1738 120.343 13.1393 120.981 14.3579C121.637 15.5765 121.965 16.9075 121.965 18.3511ZM114.119 13.8798C113.201 13.8798 112.423 14.1329 111.785 14.6391C111.166 15.1453 110.745 15.8483 110.52 16.7482H117.859C117.672 16.1295 117.4 15.614 117.044 15.2015C116.688 14.7703 116.256 14.4422 115.75 14.2173C115.263 13.9923 114.719 13.8798 114.119 13.8798ZM130.287 26.4218C129.031 26.4218 127.915 26.1968 126.94 25.7469C125.984 25.297 125.234 24.6596 124.691 23.8347C124.166 23.0098 123.903 22.0631 123.903 20.9945H127.896C127.915 21.4444 128.028 21.8287 128.234 22.1474C128.459 22.4474 128.759 22.6723 129.134 22.8223C129.509 22.9536 129.94 23.0192 130.427 23.0192C130.821 23.0192 131.177 22.9629 131.496 22.8504C131.815 22.738 132.077 22.5692 132.283 22.3443C132.49 22.1005 132.593 21.8193 132.593 21.5006C132.593 21.0319 132.349 20.6851 131.862 20.4602C131.374 20.2352 130.643 20.0383 129.668 19.8696C129.049 19.7759 128.534 19.6821 128.121 19.5884C127.728 19.4947 127.25 19.3353 126.687 19.1103C126.144 18.8666 125.703 18.5948 125.366 18.2948C125.047 17.9949 124.766 17.5824 124.522 17.0575C124.278 16.5326 124.156 15.9233 124.156 15.2296C124.156 13.8048 124.719 12.6425 125.844 11.7426C126.968 10.8428 128.44 10.3928 130.259 10.3928C132.096 10.3928 133.568 10.8615 134.674 11.7989C135.798 12.7175 136.361 13.9361 136.361 15.4546H132.452C132.452 14.2548 131.693 13.6549 130.174 13.6549C129.537 13.6549 129.04 13.7861 128.684 14.0486C128.328 14.311 128.15 14.6672 128.15 15.1172C128.15 15.3046 128.196 15.4827 128.29 15.6515C128.403 15.8014 128.525 15.9233 128.656 16.017C128.806 16.1108 129.031 16.2045 129.331 16.2982C129.631 16.3732 129.884 16.4295 130.09 16.467C130.296 16.5045 130.605 16.5607 131.018 16.6357C131.374 16.7107 131.627 16.7669 131.777 16.8044C131.927 16.8232 132.18 16.87 132.536 16.945C132.893 17.02 133.155 17.095 133.324 17.17C133.511 17.2262 133.755 17.3106 134.055 17.4231C134.374 17.5356 134.608 17.6574 134.758 17.7887C134.927 17.9011 135.124 18.0417 135.349 18.2105C135.592 18.3792 135.78 18.5667 135.911 18.7729C136.042 18.9791 136.173 19.2041 136.305 19.4478C136.436 19.6915 136.52 19.9727 136.558 20.2914C136.614 20.6101 136.642 20.9476 136.642 21.3038C136.642 22.8598 136.061 24.1065 134.899 25.0439C133.736 25.9625 132.199 26.4218 130.287 26.4218Z" fill="white"/>
</svg>
