<svg width="377" height="220" viewBox="0 0 377 220" fill="none" xmlns="http://www.w3.org/2000/svg">
<path d="M170.373 219L263.32 219L375.549 110L263.32 1.00002L170.373 1.00002L236.128 64.8634L279.373 110L236.128 155.137L170.373 219Z" stroke="url(#paint0_linear_40_63)"/>
<path d="M50.6863 219L143.634 219L255.863 110L143.634 1.00002L50.6863 1.00002L116.442 64.8634L159.686 110L116.442 155.137L50.6863 219Z" stroke="url(#paint1_linear_40_63)"/>
<path d="M-69 219L23.9474 219L136.177 110L23.9474 1.00002L-69 1.00002L-3.24463 64.8634L40 110L-3.24463 155.137L-69 219Z" stroke="url(#paint2_linear_40_63)"/>
<defs>
<linearGradient id="paint0_linear_40_63" x1="272.961" y1="219" x2="272.961" y2="1" gradientUnits="userSpaceOnUse">
<stop stop-color="#FF0404" stop-opacity="0"/>
<stop offset="0.479167" stop-color="#FF1E39"/>
<stop offset="0.875" stop-color="#5F0000" stop-opacity="0.49"/>
</linearGradient>
<linearGradient id="paint1_linear_40_63" x1="153.275" y1="219" x2="153.275" y2="1" gradientUnits="userSpaceOnUse">
<stop stop-color="#FF0404" stop-opacity="0"/>
<stop offset="0.479167" stop-color="#FF1E39"/>
<stop offset="0.875" stop-color="#5F0000" stop-opacity="0.49"/>
</linearGradient>
<linearGradient id="paint2_linear_40_63" x1="33.5883" y1="219" x2="33.5883" y2="1" gradientUnits="userSpaceOnUse">
<stop stop-color="#FF0404" stop-opacity="0"/>
<stop offset="0.479167" stop-color="#FF1E39"/>
<stop offset="0.875" stop-color="#5F0000" stop-opacity="0.49"/>
</linearGradient>
</defs>
</svg>
