<svg width="141" height="39" viewBox="0 0 141 39" fill="none" xmlns="http://www.w3.org/2000/svg">
<path d="M135.395 39H5.60457C2.51239 39 0 36.6028 0 33.6448V5.34752C0 2.39716 2.51239 0 5.60457 0H135.395C138.496 0 141 2.39716 141 5.34752V33.6448C141.008 36.6028 138.496 39 135.395 39Z" fill="#003087"/>
<path d="M36.9836 29.9675V18.2786H40.9331C41.8501 18.2786 42.5997 18.4442 43.1819 18.7752C43.7678 19.1024 44.2016 19.5457 44.4832 20.105C44.7647 20.6644 44.9055 21.2884 44.9055 21.9771C44.9055 22.6658 44.7647 23.2917 44.4832 23.8548C44.2054 24.418 43.7755 24.867 43.1933 25.2018C42.6111 25.5328 41.8654 25.6983 40.956 25.6983H38.1251V24.4427H40.9103C41.5381 24.4427 42.0423 24.3343 42.4228 24.1174C42.8033 23.9005 43.0791 23.6075 43.2504 23.2384C43.4254 22.8655 43.5129 22.4451 43.5129 21.9771C43.5129 21.5091 43.4254 21.0905 43.2504 20.7214C43.0791 20.3524 42.8014 20.0632 42.4171 19.8539C42.0328 19.6408 41.5229 19.5343 40.8875 19.5343H38.399V29.9675H36.9836ZM48.35 18.2786V29.9675H47.003V18.2786H48.35ZM53.3968 30.173C52.8413 30.173 52.3371 30.0684 51.8843 29.8591C51.4315 29.646 51.072 29.3397 50.8056 28.9402C50.5393 28.5369 50.4061 28.0498 50.4061 27.4791C50.4061 26.9768 50.505 26.5697 50.7029 26.2577C50.9007 25.9419 51.1652 25.6945 51.4962 25.5157C51.8273 25.3369 52.1925 25.2037 52.5921 25.1162C52.9954 25.0249 53.4006 24.9526 53.8078 24.8993C54.3404 24.8308 54.7723 24.7794 55.1033 24.7452C55.4382 24.7071 55.6817 24.6444 55.8339 24.5569C55.9899 24.4693 56.0679 24.3171 56.0679 24.1003V24.0546C56.0679 23.4915 55.9138 23.0539 55.6056 22.7419C55.3012 22.4299 54.8389 22.2739 54.2187 22.2739C53.5756 22.2739 53.0715 22.4146 52.7062 22.6962C52.3409 22.9778 52.0841 23.2784 51.9357 23.598L50.6572 23.1414C50.8855 22.6087 51.1899 22.194 51.5704 21.8972C51.9547 21.5966 52.3733 21.3873 52.8261 21.2694C53.2827 21.1476 53.7317 21.0867 54.173 21.0867C54.4546 21.0867 54.778 21.121 55.1433 21.1894C55.5124 21.2541 55.8681 21.3892 56.2106 21.5947C56.5568 21.8001 56.8441 22.1103 57.0724 22.525C57.3007 22.9397 57.4149 23.4953 57.4149 24.1916V29.9675H56.0679V28.7804H55.9994C55.9081 28.9706 55.7559 29.1742 55.5428 29.3911C55.3297 29.608 55.0463 29.7925 54.6924 29.9447C54.3385 30.0969 53.9067 30.173 53.3968 30.173ZM53.6023 28.963C54.135 28.963 54.584 28.8584 54.9492 28.6491C55.3183 28.4398 55.5961 28.1697 55.7825 27.8386C55.9728 27.5076 56.0679 27.1595 56.0679 26.7942V25.5614C56.0108 25.6299 55.8853 25.6926 55.6912 25.7497C55.501 25.803 55.2803 25.8505 55.0291 25.8924C54.7818 25.9304 54.5402 25.9647 54.3043 25.9951C54.0722 26.0218 53.8839 26.0446 53.7393 26.0636C53.3892 26.1093 53.062 26.1835 52.7576 26.2862C52.457 26.3851 52.2135 26.5354 52.027 26.7371C51.8444 26.935 51.7531 27.2051 51.7531 27.5476C51.7531 28.0156 51.9262 28.3694 52.2724 28.6092C52.6225 28.8451 53.0658 28.963 53.6023 28.963ZM60.427 33.255C60.1987 33.255 59.9951 33.236 59.8163 33.198C59.6375 33.1637 59.5138 33.1295 59.4453 33.0952L59.7877 31.9081C60.115 31.9918 60.4042 32.0222 60.6553 31.9994C60.9064 31.9766 61.129 31.8643 61.3231 31.6626C61.5209 31.4648 61.7017 31.1433 61.8653 30.6981L62.1164 30.0132L58.8746 21.2009H60.3357L62.7556 28.1868H62.847L65.2669 21.2009H66.728L63.0068 31.246C62.8393 31.6988 62.632 32.0736 62.3846 32.3704C62.1373 32.671 61.85 32.8936 61.5228 33.0381C61.1994 33.1827 60.8341 33.255 60.427 33.255ZM75.0809 21.2009C75.0124 20.6225 74.7347 20.1735 74.2476 19.8539C73.7606 19.5343 73.1632 19.3745 72.4555 19.3745C71.938 19.3745 71.4852 19.4582 71.0971 19.6256C70.7128 19.793 70.4122 20.0232 70.1953 20.3162C69.9822 20.6092 69.8757 20.9421 69.8757 21.315C69.8757 21.627 69.9499 21.8953 70.0983 22.1198C70.2505 22.3405 70.4445 22.525 70.6804 22.6734C70.9164 22.818 71.1637 22.9378 71.4224 23.033C71.6812 23.1243 71.919 23.1985 72.1359 23.2555L73.323 23.5752C73.6274 23.6551 73.966 23.7654 74.3389 23.9062C74.7156 24.047 75.0752 24.2391 75.4176 24.4827C75.7639 24.7224 76.0493 25.0306 76.2738 25.4073C76.4983 25.784 76.6105 26.2463 76.6105 26.7942C76.6105 27.4258 76.445 27.9966 76.114 28.5064C75.7867 29.0163 75.3073 29.4215 74.6757 29.7221C74.0479 30.0227 73.285 30.173 72.387 30.173C71.5499 30.173 70.825 30.0379 70.2124 29.7678C69.6036 29.4976 69.1242 29.1209 68.7742 28.6377C68.4279 28.1545 68.2319 27.5932 68.1863 26.954H69.6474C69.6854 27.3954 69.8338 27.7606 70.0926 28.0498C70.3551 28.3352 70.6862 28.5483 71.0857 28.6891C71.489 28.826 71.9228 28.8945 72.387 28.8945C72.9273 28.8945 73.4124 28.807 73.8424 28.632C74.2723 28.4531 74.6129 28.2058 74.864 27.89C75.1151 27.5704 75.2407 27.1975 75.2407 26.7713C75.2407 26.3832 75.1323 26.0674 74.9154 25.8239C74.6985 25.5804 74.4131 25.3825 74.0593 25.2303C73.7054 25.0781 73.323 24.945 72.9121 24.8308L71.4738 24.4199C70.5606 24.1573 69.8376 23.7825 69.3049 23.2955C68.7723 22.8085 68.5059 22.1711 68.5059 21.3835C68.5059 20.729 68.6828 20.1583 69.0367 19.6713C69.3944 19.1804 69.8738 18.7999 70.475 18.5298C71.08 18.2558 71.7554 18.1188 72.5011 18.1188C73.2545 18.1188 73.9242 18.2539 74.5102 18.5241C75.0961 18.7904 75.5603 19.1557 75.9028 19.6199C76.249 20.0841 76.4317 20.6111 76.4507 21.2009H75.0809ZM82.5677 21.2009V22.3424H78.0245V21.2009H82.5677ZM79.3487 19.1005H80.6956V27.4562C80.6956 27.8367 80.7508 28.1221 80.8611 28.3124C80.9753 28.4988 81.1199 28.6244 81.2949 28.6891C81.4737 28.7499 81.6621 28.7804 81.8599 28.7804C82.0083 28.7804 82.1301 28.7728 82.2252 28.7575C82.3204 28.7385 82.3965 28.7233 82.4535 28.7119L82.7275 29.9219C82.6362 29.9561 82.5087 29.9904 82.3451 30.0246C82.1815 30.0627 81.9741 30.0817 81.723 30.0817C81.3425 30.0817 80.9696 29.9999 80.6043 29.8363C80.2428 29.6726 79.9422 29.4234 79.7025 29.0886C79.4666 28.7537 79.3487 28.3314 79.3487 27.8215V19.1005ZM87.1736 30.173C86.6181 30.173 86.1139 30.0684 85.6611 29.8591C85.2083 29.646 84.8488 29.3397 84.5824 28.9402C84.3161 28.5369 84.1829 28.0498 84.1829 27.4791C84.1829 26.9768 84.2818 26.5697 84.4797 26.2577C84.6775 25.9419 84.942 25.6945 85.273 25.5157C85.604 25.3369 85.9693 25.2037 86.3688 25.1162C86.7722 25.0249 87.1774 24.9526 87.5845 24.8993C88.1172 24.8308 88.5491 24.7794 88.8801 24.7452C89.215 24.7071 89.4585 24.6444 89.6107 24.5569C89.7667 24.4693 89.8447 24.3171 89.8447 24.1003V24.0546C89.8447 23.4915 89.6906 23.0539 89.3824 22.7419C89.078 22.4299 88.6157 22.2739 87.9955 22.2739C87.3524 22.2739 86.8483 22.4146 86.483 22.6962C86.1177 22.9778 85.8609 23.2784 85.7125 23.598L84.434 23.1414C84.6623 22.6087 84.9667 22.194 85.3472 21.8972C85.7315 21.5966 86.1501 21.3873 86.6029 21.2694C87.0594 21.1476 87.5084 21.0867 87.9498 21.0867C88.2314 21.0867 88.5548 21.121 88.9201 21.1894C89.2892 21.2541 89.6449 21.3892 89.9874 21.5947C90.3336 21.8001 90.6209 22.1103 90.8492 22.525C91.0775 22.9397 91.1917 23.4953 91.1917 24.1916V29.9675H89.8447V28.7804H89.7762C89.6849 28.9706 89.5327 29.1742 89.3196 29.3911C89.1065 29.608 88.8231 29.7925 88.4692 29.9447C88.1153 30.0969 87.6835 30.173 87.1736 30.173ZM87.3791 28.963C87.9118 28.963 88.3608 28.8584 88.726 28.6491C89.0951 28.4398 89.3729 28.1697 89.5593 27.8386C89.7496 27.5076 89.8447 27.1595 89.8447 26.7942V25.5614C89.7876 25.6299 89.6621 25.6926 89.468 25.7497C89.2778 25.803 89.0571 25.8505 88.8059 25.8924C88.5586 25.9304 88.317 25.9647 88.0811 25.9951C87.849 26.0218 87.6606 26.0446 87.516 26.0636C87.166 26.1093 86.8388 26.1835 86.5344 26.2862C86.2338 26.3851 85.9903 26.5354 85.8038 26.7371C85.6212 26.935 85.5298 27.2051 85.5298 27.5476C85.5298 28.0156 85.703 28.3694 86.0492 28.6092C86.3993 28.8451 86.8426 28.963 87.3791 28.963ZM97.4627 21.2009V22.3424H92.9196V21.2009H97.4627ZM94.2437 19.1005H95.5907V27.4562C95.5907 27.8367 95.6459 28.1221 95.7562 28.3124C95.8704 28.4988 96.0149 28.6244 96.19 28.6891C96.3688 28.7499 96.5572 28.7804 96.755 28.7804C96.9034 28.7804 97.0252 28.7728 97.1203 28.7575C97.2154 28.7385 97.2915 28.7233 97.3486 28.7119L97.6225 29.9219C97.5312 29.9561 97.4038 29.9904 97.2401 30.0246C97.0765 30.0627 96.8692 30.0817 96.618 30.0817C96.2375 30.0817 95.8646 29.9999 95.4994 29.8363C95.1379 29.6726 94.8373 29.4234 94.5976 29.0886C94.3617 28.7537 94.2437 28.3314 94.2437 27.8215V19.1005ZM99.4889 29.9675V21.2009H100.836V29.9675H99.4889ZM100.174 19.7397C99.9112 19.7397 99.6848 19.6503 99.4946 19.4715C99.3081 19.2927 99.2149 19.0777 99.2149 18.8266C99.2149 18.5754 99.3081 18.3604 99.4946 18.1816C99.6848 18.0028 99.9112 17.9134 100.174 17.9134C100.436 17.9134 100.661 18.0028 100.847 18.1816C101.038 18.3604 101.133 18.5754 101.133 18.8266C101.133 19.0777 101.038 19.2927 100.847 19.4715C100.661 19.6503 100.436 19.7397 100.174 19.7397ZM106.864 30.1502C106.073 30.1502 105.379 29.9618 104.781 29.5851C104.188 29.2084 103.723 28.6814 103.389 28.0042C103.057 27.3269 102.892 26.5354 102.892 25.6299C102.892 24.7167 103.057 23.9195 103.389 23.2384C103.723 22.5573 104.188 22.0284 104.781 21.6518C105.379 21.2751 106.073 21.0867 106.864 21.0867C107.656 21.0867 108.348 21.2751 108.942 21.6518C109.539 22.0284 110.003 22.5573 110.334 23.2384C110.669 23.9195 110.837 24.7167 110.837 25.6299C110.837 26.5354 110.669 27.3269 110.334 28.0042C110.003 28.6814 109.539 29.2084 108.942 29.5851C108.348 29.9618 107.656 30.1502 106.864 30.1502ZM106.864 28.9402C107.466 28.9402 107.96 28.7861 108.348 28.4779C108.736 28.1697 109.024 27.7644 109.21 27.2622C109.397 26.7599 109.49 26.2158 109.49 25.6299C109.49 25.0439 109.397 24.4979 109.21 23.9918C109.024 23.4857 108.736 23.0767 108.348 22.7647C107.96 22.4527 107.466 22.2967 106.864 22.2967C106.263 22.2967 105.769 22.4527 105.38 22.7647C104.992 23.0767 104.705 23.4857 104.519 23.9918C104.332 24.4979 104.239 25.0439 104.239 25.6299C104.239 26.2158 104.332 26.7599 104.519 27.2622C104.705 27.7644 104.992 28.1697 105.38 28.4779C105.769 28.7861 106.263 28.9402 106.864 28.9402Z" fill="white"/>
<path d="M113.177 24.6938V29.9675H111.83V21.2009H113.132V22.5707H113.246C113.451 22.1255 113.763 21.7678 114.182 21.4976C114.6 21.2237 115.141 21.0867 115.803 21.0867C116.396 21.0867 116.916 21.2085 117.361 21.452C117.806 21.6917 118.152 22.057 118.4 22.5478C118.647 23.0349 118.771 23.6513 118.771 24.397V29.9675H117.424V24.4884C117.424 23.7997 117.245 23.2632 116.887 22.8789C116.529 22.4907 116.039 22.2967 115.415 22.2967C114.985 22.2967 114.6 22.3899 114.262 22.5764C113.927 22.7628 113.662 23.0349 113.468 23.3925C113.274 23.7502 113.177 24.184 113.177 24.6938Z" fill="white"/>
<path d="M120.099 21.3932V20.4951H120.554C120.591 20.4951 120.631 20.5057 120.674 20.5268C120.717 20.5471 120.753 20.5787 120.783 20.6217C120.814 20.6639 120.829 20.7174 120.829 20.7823C120.829 20.848 120.814 20.904 120.782 20.9503C120.75 20.9957 120.712 21.0302 120.666 21.0537C120.622 21.0772 120.58 21.089 120.54 21.089H120.211V20.943H120.479C120.506 20.943 120.535 20.9296 120.565 20.9028C120.597 20.876 120.613 20.8359 120.613 20.7823C120.613 20.7272 120.597 20.6898 120.565 20.6704C120.535 20.6509 120.507 20.6412 120.484 20.6412H120.296V21.3932H120.099ZM120.642 20.9697L120.866 21.3932H120.649L120.43 20.9697H120.642ZM120.44 21.9287C120.305 21.9287 120.179 21.9035 120.062 21.8532C119.944 21.8029 119.841 21.7332 119.751 21.6439C119.662 21.5547 119.592 21.4512 119.542 21.3336C119.492 21.216 119.466 21.0898 119.466 20.9551C119.466 20.8205 119.492 20.6943 119.542 20.5767C119.592 20.459 119.662 20.3556 119.751 20.2663C119.841 20.1771 119.944 20.1073 120.062 20.057C120.179 20.0067 120.305 19.9816 120.44 19.9816C120.575 19.9816 120.701 20.0067 120.819 20.057C120.936 20.1073 121.04 20.1771 121.129 20.2663C121.218 20.3556 121.288 20.459 121.338 20.5767C121.388 20.6943 121.414 20.8205 121.414 20.9551C121.414 21.0898 121.388 21.216 121.338 21.3336C121.288 21.4512 121.218 21.5547 121.129 21.6439C121.04 21.7332 120.936 21.8029 120.819 21.8532C120.701 21.9035 120.575 21.9287 120.44 21.9287ZM120.44 21.695C120.576 21.695 120.7 21.6618 120.812 21.5952C120.924 21.5287 121.014 21.4395 121.08 21.3275C121.147 21.2156 121.18 21.0914 121.18 20.9551C121.18 20.8188 121.147 20.6947 121.08 20.5828C121.014 20.4708 120.924 20.3816 120.812 20.315C120.7 20.2485 120.576 20.2152 120.44 20.2152C120.304 20.2152 120.18 20.2485 120.068 20.315C119.956 20.3816 119.866 20.4708 119.8 20.5828C119.733 20.6947 119.7 20.8188 119.7 20.9551C119.7 21.0914 119.733 21.2156 119.8 21.3275C119.866 21.4395 119.956 21.5287 120.068 21.5952C120.18 21.6618 120.304 21.695 120.44 21.695Z" fill="white"/>
<path d="M127.282 30.1273C126.612 30.1273 126.009 29.9942 125.472 29.7278C124.936 29.4615 124.506 29.0962 124.183 28.632C123.859 28.1678 123.682 27.6389 123.652 27.0453H125.022C125.075 27.5742 125.315 28.0118 125.741 28.358C126.171 28.7005 126.684 28.8717 127.282 28.8717C127.761 28.8717 128.187 28.7594 128.56 28.535C128.937 28.3105 129.232 28.0023 129.445 27.6103C129.662 27.2146 129.77 26.7675 129.77 26.2691C129.77 25.7592 129.658 25.3045 129.433 24.905C129.213 24.5017 128.908 24.184 128.52 23.9519C128.132 23.7198 127.689 23.6018 127.19 23.598C126.833 23.5942 126.466 23.6494 126.089 23.7635C125.712 23.8739 125.402 24.0165 125.159 24.1916L123.834 24.0318L124.542 18.2786H130.615V19.5343H125.729L125.318 22.9816H125.387C125.627 22.7913 125.927 22.6334 126.289 22.5079C126.65 22.3823 127.027 22.3195 127.419 22.3195C128.134 22.3195 128.771 22.4907 129.331 22.8332C129.894 23.1718 130.335 23.636 130.655 24.2258C130.978 24.8156 131.14 25.4891 131.14 26.2463C131.14 26.992 130.973 27.6579 130.638 28.2439C130.307 28.826 129.85 29.2864 129.268 29.6251C128.686 29.9599 128.024 30.1273 127.282 30.1273Z" fill="white"/>
<path d="M37.9786 15.2469L35.946 7.81341H36.8607L38.4142 13.8676H38.4868L40.0693 7.81341H41.0856L42.6681 13.8676H42.7407L44.2942 7.81341H45.2089L43.1763 15.2469H42.2471L40.6065 9.32333H40.5484L38.9078 15.2469H37.9786ZM47.9601 15.363C47.4568 15.363 47.0152 15.2433 46.6353 15.0037C46.2578 14.7641 45.9626 14.429 45.7497 13.9983C45.5392 13.5676 45.4339 13.0643 45.4339 12.4884C45.4339 11.9076 45.5392 11.4007 45.7497 10.9676C45.9626 10.5344 46.2578 10.1981 46.6353 9.95852C47.0152 9.71896 47.4568 9.59918 47.9601 9.59918C48.4634 9.59918 48.9038 9.71896 49.2813 9.95852C49.6612 10.1981 49.9564 10.5344 50.1669 10.9676C50.3799 11.4007 50.4863 11.9076 50.4863 12.4884C50.4863 13.0643 50.3799 13.5676 50.1669 13.9983C49.9564 14.429 49.6612 14.7641 49.2813 15.0037C48.9038 15.2433 48.4634 15.363 47.9601 15.363ZM47.9601 14.5936C48.3424 14.5936 48.657 14.4956 48.9038 14.2996C49.1506 14.1036 49.3333 13.8459 49.4519 13.5264C49.5705 13.207 49.6298 12.861 49.6298 12.4884C49.6298 12.1157 49.5705 11.7685 49.4519 11.4467C49.3333 11.1248 49.1506 10.8647 48.9038 10.6663C48.657 10.4679 48.3424 10.3687 47.9601 10.3687C47.5778 10.3687 47.2632 10.4679 47.0164 10.6663C46.7696 10.8647 46.5869 11.1248 46.4683 11.4467C46.3498 11.7685 46.2905 12.1157 46.2905 12.4884C46.2905 12.861 46.3498 13.207 46.4683 13.5264C46.5869 13.8459 46.7696 14.1036 47.0164 14.2996C47.2632 14.4956 47.5778 14.5936 47.9601 14.5936ZM51.7939 15.2469V9.67178H52.6215V10.5139H52.6795C52.7812 10.238 52.9651 10.0142 53.2313 9.84237C53.4974 9.67057 53.7975 9.58467 54.1314 9.58467C54.1943 9.58467 54.273 9.58588 54.3673 9.58829C54.4617 9.59071 54.5331 9.59434 54.5815 9.59918V10.4703C54.5524 10.463 54.4859 10.4521 54.3818 10.4376C54.2802 10.4207 54.1725 10.4122 54.0588 10.4122C53.7878 10.4122 53.5458 10.4691 53.3329 10.5828C53.1224 10.6941 52.9554 10.849 52.832 11.0474C52.711 11.2434 52.6505 11.4672 52.6505 11.7189V15.2469H51.7939ZM56.3954 13.2143L56.3809 12.1544H56.5551L58.9942 9.67178H60.054L57.4552 12.2996H57.3826L56.3954 13.2143ZM55.5969 15.2469V7.81341H56.4535V15.2469H55.5969ZM59.1394 15.2469L56.9616 12.4884L57.5714 11.8931L60.2283 15.2469H59.1394ZM65.1056 10.9204L64.3361 11.1381C64.2877 11.0099 64.2163 10.8853 64.122 10.7643C64.03 10.6409 63.9042 10.5393 63.7445 10.4594C63.5848 10.3796 63.3803 10.3396 63.1311 10.3396C62.7899 10.3396 62.5056 10.4183 62.2781 10.5756C62.0531 10.7304 61.9405 10.9276 61.9405 11.1672C61.9405 11.3801 62.018 11.5483 62.1728 11.6717C62.3277 11.7951 62.5697 11.8979 62.8988 11.9802L63.7263 12.1835C64.2248 12.3045 64.5962 12.4896 64.8406 12.7388C65.085 12.9856 65.2072 13.3038 65.2072 13.6934C65.2072 14.0128 65.1153 14.2983 64.9314 14.55C64.7499 14.8017 64.4958 15.0001 64.1691 15.1453C63.8425 15.2904 63.4626 15.363 63.0294 15.363C62.4608 15.363 61.9902 15.2396 61.6175 14.9928C61.2449 14.746 61.0089 14.3855 60.9097 13.9112L61.7228 13.7079C61.8002 14.008 61.9466 14.233 62.162 14.383C62.3797 14.5331 62.6641 14.6081 63.0149 14.6081C63.4142 14.6081 63.7312 14.5234 63.9659 14.354C64.203 14.1822 64.3216 13.9765 64.3216 13.737C64.3216 13.5434 64.2538 13.3813 64.1183 13.2506C63.9828 13.1175 63.7747 13.0183 63.494 12.953L62.5648 12.7352C62.0543 12.6142 61.6792 12.4267 61.4397 12.1726C61.2025 11.9161 61.084 11.5955 61.084 11.2107C61.084 10.8962 61.1723 10.6179 61.3489 10.3759C61.528 10.1339 61.7712 9.944 62.0785 9.80607C62.3882 9.66815 62.7391 9.59918 63.1311 9.59918C63.6828 9.59918 64.1159 9.72017 64.4305 9.96215C64.7475 10.2041 64.9725 10.5235 65.1056 10.9204ZM70.6344 15.2469L68.9358 9.67178H69.8359L71.0409 13.9402H71.099L72.2895 9.67178H73.2042L74.3802 13.9257H74.4383L75.6433 9.67178H76.5435L74.8448 15.2469H74.0027L72.7832 10.9639H72.696L71.4765 15.2469H70.6344ZM77.6759 15.2469V9.67178H78.5325V15.2469H77.6759ZM78.1115 8.74259C77.9445 8.74259 77.8005 8.68573 77.6795 8.572C77.561 8.45827 77.5017 8.32155 77.5017 8.16185C77.5017 8.00215 77.561 7.86543 77.6795 7.7517C77.8005 7.63797 77.9445 7.58111 78.1115 7.58111C78.2784 7.58111 78.4212 7.63797 78.5398 7.7517C78.6607 7.86543 78.7212 8.00215 78.7212 8.16185C78.7212 8.32155 78.6607 8.45827 78.5398 8.572C78.4212 8.68573 78.2784 8.74259 78.1115 8.74259ZM82.526 9.67178V10.3977H79.6368V9.67178H82.526ZM80.4789 8.33607H81.3355V13.6499C81.3355 13.8918 81.3706 14.0733 81.4407 14.1943C81.5133 14.3129 81.6053 14.3927 81.7166 14.4339C81.8303 14.4726 81.9501 14.4919 82.0759 14.4919C82.1703 14.4919 82.2477 14.4871 82.3082 14.4774C82.3687 14.4653 82.4171 14.4556 82.4534 14.4484L82.6276 15.2179C82.5695 15.2396 82.4885 15.2614 82.3844 15.2832C82.2804 15.3074 82.1485 15.3195 81.9888 15.3195C81.7468 15.3195 81.5097 15.2675 81.2774 15.1634C81.0475 15.0594 80.8564 14.9009 80.7039 14.6879C80.5539 14.475 80.4789 14.2064 80.4789 13.8821V8.33607ZM84.7909 11.8931V15.2469H83.9343V7.81341H84.7909V10.5429H84.8635C84.9941 10.2549 85.1901 10.0263 85.4515 9.85689C85.7152 9.68509 86.0661 9.59918 86.5041 9.59918C86.884 9.59918 87.2167 9.67541 87.5022 9.82785C87.7877 9.97788 88.0092 10.209 88.1664 10.5211C88.3261 10.8308 88.406 11.2253 88.406 11.7044V15.2469H87.5494V11.7624C87.5494 11.3196 87.4345 10.9772 87.2046 10.7353C86.9771 10.4909 86.6613 10.3687 86.2573 10.3687C85.9766 10.3687 85.7249 10.4279 85.5023 10.5465C85.2821 10.6651 85.1079 10.8381 84.9796 11.0656C84.8538 11.293 84.7909 11.5689 84.7909 11.8931Z" fill="white"/>
<path d="M14.1077 17.0988L18.6921 22.8188L28.7008 11.4171" stroke="white" stroke-width="2.57229" stroke-miterlimit="10"/>
<path d="M18.5226 28.9059C23.6333 28.9059 27.7763 24.794 27.7763 19.7218C27.7763 14.6495 23.6333 10.5377 18.5226 10.5377C13.412 10.5377 9.26904 14.6495 9.26904 19.7218C9.26904 24.794 13.412 28.9059 18.5226 28.9059Z" stroke="white" stroke-width="1.27763" stroke-miterlimit="10"/>
</svg>
