<svg width="21" height="22" viewBox="0 0 21 22" fill="none" xmlns="http://www.w3.org/2000/svg">
<g clip-path="url(#clip0_40_191)">
<path d="M20.8887 15.8787C20.8632 15.8239 20.8395 15.7784 20.8175 15.742C20.4532 15.0858 19.7569 14.2803 18.7292 13.3254L18.7074 13.3036L18.6966 13.2928L18.6856 13.2818H18.6745C18.2081 12.8372 17.9127 12.5382 17.789 12.3851C17.5627 12.0936 17.512 11.7984 17.6357 11.4994C17.7231 11.2734 18.0514 10.7962 18.6197 10.0672C18.9187 9.68082 19.1555 9.37116 19.3304 9.13786C20.5915 7.46125 21.1383 6.38988 20.9705 5.92332L20.9054 5.81429C20.8616 5.74865 20.7486 5.6886 20.5666 5.63384C20.3842 5.57919 20.151 5.57015 19.8666 5.60657L16.7178 5.62832C16.6668 5.61025 16.5939 5.61193 16.499 5.63384C16.4042 5.65574 16.3568 5.66673 16.3568 5.66673L16.302 5.69411L16.2585 5.72701C16.2221 5.74876 16.182 5.78702 16.1382 5.84171C16.0946 5.8962 16.0582 5.96016 16.0291 6.03303C15.6863 6.91503 15.2965 7.73507 14.8591 8.4931C14.5893 8.94511 14.3416 9.33684 14.1154 9.66853C13.8895 10.0001 13.7 10.2444 13.547 10.401C13.3938 10.5577 13.2556 10.6833 13.1314 10.7782C13.0075 10.8731 12.9128 10.9132 12.8473 10.8985C12.7816 10.8838 12.7198 10.8693 12.6612 10.8547C12.5593 10.7891 12.4772 10.6998 12.4154 10.5868C12.3533 10.4739 12.3114 10.3317 12.2896 10.1604C12.2678 9.98895 12.255 9.84151 12.2513 9.71755C12.2479 9.59374 12.2494 9.41861 12.2568 9.19266C12.2644 8.9666 12.2678 8.81364 12.2678 8.73345C12.2678 8.45642 12.2732 8.15575 12.2841 7.83138C12.2951 7.50702 12.304 7.25001 12.3115 7.06067C12.3189 6.87115 12.3224 6.67063 12.3224 6.45923C12.3224 6.24784 12.3095 6.08205 12.2841 5.96173C12.2589 5.84155 12.2204 5.7249 12.1696 5.61182C12.1184 5.49884 12.0436 5.41145 11.9454 5.34941C11.847 5.28745 11.7247 5.23827 11.5791 5.20174C11.1928 5.11431 10.7008 5.06701 10.1029 5.05966C8.74722 5.04511 7.8761 5.13265 7.48977 5.32218C7.3367 5.40226 7.19818 5.51167 7.07433 5.65007C6.94309 5.8105 6.92479 5.89804 7.01953 5.91244C7.45695 5.97797 7.76661 6.13471 7.94886 6.38253L8.01454 6.51384C8.06563 6.60859 8.11664 6.77633 8.16769 7.01683C8.21866 7.25733 8.25156 7.52337 8.26603 7.8148C8.30241 8.347 8.30241 8.80258 8.26603 9.18155C8.22954 9.56069 8.19507 9.85583 8.16217 10.0672C8.12928 10.2786 8.0801 10.4499 8.01454 10.5811C7.94886 10.7123 7.90517 10.7925 7.88326 10.8216C7.8614 10.8507 7.84317 10.869 7.82869 10.8762C7.73395 10.9125 7.63541 10.931 7.53343 10.931C7.43129 10.931 7.30744 10.88 7.16169 10.7779C7.01597 10.6758 6.86474 10.5355 6.70799 10.3569C6.55125 10.1782 6.37447 9.9286 6.17759 9.60791C5.98086 9.28721 5.77674 8.9082 5.56535 8.47085L5.39045 8.15368C5.28112 7.94964 5.13176 7.65254 4.94223 7.26265C4.75259 6.8726 4.58497 6.49531 4.43925 6.13084C4.381 5.97777 4.2935 5.86124 4.17688 5.78105L4.12216 5.74815C4.08578 5.71904 4.02738 5.68814 3.94726 5.6552C3.86703 5.62231 3.78331 5.59872 3.69577 5.5842L0.6999 5.60596C0.393761 5.60596 0.186043 5.67531 0.0766689 5.81383L0.0328964 5.87935C0.0110293 5.91585 0 5.97414 0 6.05437C0 6.13456 0.0218671 6.23298 0.0656396 6.34951C0.502982 7.37738 0.978582 8.36868 1.49244 9.32356C2.0063 10.2784 2.45283 11.0476 2.83177 11.6304C3.21079 12.2136 3.59712 12.764 3.99077 13.2814C4.38441 13.799 4.64498 14.1307 4.77247 14.2764C4.90011 14.4224 5.00037 14.5315 5.07324 14.6044L5.34664 14.8668C5.52158 15.0417 5.77847 15.2513 6.11743 15.4954C6.45646 15.7397 6.8318 15.9802 7.24364 16.2173C7.65555 16.454 8.13475 16.6472 8.68151 16.7966C9.22819 16.9461 9.76027 17.0062 10.2778 16.9772H11.5353C11.7903 16.9552 11.9835 16.875 12.1148 16.7366L12.1583 16.6818C12.1876 16.6383 12.2149 16.5707 12.2402 16.4797C12.2658 16.3886 12.2785 16.2882 12.2785 16.1791C12.271 15.8657 12.2949 15.5833 12.3494 15.3318C12.4039 15.0804 12.466 14.8909 12.5355 14.7633C12.6049 14.6357 12.6833 14.5281 12.7705 14.4409C12.8579 14.3535 12.9202 14.3005 12.9567 14.2823C12.993 14.2639 13.022 14.2515 13.0439 14.244C13.2188 14.1857 13.4247 14.2422 13.6618 14.4136C13.8987 14.5849 14.121 14.7964 14.3288 15.0478C14.5366 15.2994 14.7862 15.5817 15.0777 15.8951C15.3694 16.2086 15.6245 16.4416 15.8431 16.5949L16.0617 16.7261C16.2077 16.8136 16.3972 16.8938 16.6305 16.9667C16.8634 17.0395 17.0674 17.0578 17.2426 17.0214L20.0416 16.9777C20.3184 16.9777 20.5338 16.9319 20.6866 16.8409C20.8397 16.7498 20.9307 16.6494 20.96 16.5402C20.9893 16.4309 20.9908 16.3069 20.9656 16.1683C20.9396 16.03 20.9141 15.9333 20.8887 15.8787Z" fill="white"/>
</g>
<defs>
<clipPath id="clip0_40_191">
<rect width="21" height="21" fill="white" transform="translate(0 0.548828)"/>
</clipPath>
</defs>
</svg>
