<svg width="35" height="31" viewBox="0 0 35 31" fill="none" xmlns="http://www.w3.org/2000/svg">
<g clip-path="url(#clip0_54_455)">
<path d="M30.0796 18.8845L27.8269 15.8926L24.6087 18.0389C24.1228 20.214 22.9142 22.1551 21.1843 23.5393C19.4543 24.9234 17.3074 25.6669 15.1009 25.6461C12.8945 25.6252 10.7617 24.8412 9.05762 23.4246C7.3536 22.008 6.18118 20.0444 5.7356 17.8605C5.29001 15.6767 5.59815 13.4045 6.60869 11.4223C7.61924 9.44017 9.27121 7.86759 11.2895 6.96648C13.3079 6.06537 15.5708 5.89009 17.7014 6.46984C19.8321 7.04959 21.7019 8.34937 22.9996 10.1528L16.1771 14.8194L13.2003 9.55114L9.00057 11.9902L14.5841 21.8601L34.4724 8.1365L31.737 4.08772L26.7649 7.50236L24.1743 6.93325L23.6593 3.27471L20.0872 4.25032L18.1724 0.998291L15.276 3.24219L12.3314 0.998291L10.4648 4.25032L6.90876 3.27471L6.37776 6.96577L2.72513 7.50236L3.69059 11.0959L0.472412 12.982L2.69295 15.9576L0.472412 18.8845L3.69059 20.7706L2.72513 24.4292L6.28121 24.9332L6.79612 27.9739L6.90876 28.6406V28.7706L10.4487 27.8113L12.3314 31.0633L15.2116 28.8357L18.1724 30.9983L20.0228 27.7463L23.6272 28.7219L24.126 25.0145L27.8269 24.5267V24.4292L27.7303 24.0715L26.9741 20.8194L30.0796 18.8845Z" fill="white"/>
</g>
<defs>
<clipPath id="clip0_54_455">
<rect width="34" height="30" fill="white" transform="translate(0.472412 0.998291)"/>
</clipPath>
</defs>
</svg>
