<svg width="280" height="82" viewBox="0 0 280 82" fill="none" xmlns="http://www.w3.org/2000/svg">
<g clip-path="url(#clip0_134_73)">
<path d="M63.4348 31.263H72.8857L75.2044 23.6037L95.3664 12.2148L97.4078 5.45654H87.856C87.856 5.45654 86.9739 8.33506 86.8479 8.83567L72.0792 17.1959L62.7543 9.18609L63.8884 5.45654H54.4123L52.4717 11.9144L65.8038 23.3784L63.4348 31.263Z" fill="#5C5C5C"/>
<path d="M143.175 20.7752L140.025 31.263H182.869L184.936 24.4547H152.4L166.74 18.4724L155.474 12.2649H188.641L190.758 5.45654H147.914L144.839 15.6189L149.451 18.122L143.276 20.625" fill="#5C5C5C"/>
<path d="M17.1881 5.48169H7.78758L0 31.2631H9.40054L17.1881 5.48169Z" fill="#5C5C5C"/>
<path d="M49.7498 5.45654H41.1558C41.1558 5.45654 38.6355 14.067 38.3079 14.9431H16.8606L14.7939 21.7514H36.3169L33.4438 31.238H42.8192L50.6067 5.45654H49.7498Z" fill="#5C5C5C"/>
<path d="M107.993 12.2649H131.96L131.305 14.3924L123.24 17.7716H108.799L106.733 24.5548H124.778L139.572 18.3973L143.453 5.45654H100.608L92.7957 31.263H102.247L107.993 12.2649Z" fill="#5C5C5C"/>
<path d="M189.977 22.6025L187.456 31.2381H196.932L198.898 24.6801C196.05 23.9041 193.102 23.2033 190.077 22.6025" fill="#5C5C5C"/>
<path d="M202.553 12.2648H226.52C226.243 13.2661 225.915 14.2673 225.815 14.7679L218.481 17.7716H200.839C201.217 16.5951 202.301 12.9657 202.502 12.2648H202.553ZM220.346 24.2044L233.98 18.6977L237.987 5.45654H195.143L191.06 18.9981C201.045 19.2783 210.932 21.033 220.396 24.2044" fill="#5C5C5C"/>
<path d="M280.025 81.9751C274.918 65.8422 265.514 51.3813 252.807 40.124C263.685 29.5244 270.076 15.1988 270.675 0.0751953C270.675 0.0751953 266.643 17.5966 244.969 34.1417C212.76 12.3652 174.225 18.5477 174.225 18.5477C196.642 20.143 218.273 27.4162 237.055 39.6735C216.742 52.4641 184.609 63.5276 133.926 63.878C133.926 63.878 206.459 74.7413 245.951 45.9061C259.342 55.892 270.873 68.1238 280.025 82.0502" fill="#5C5C5C"/>
<path d="M245.246 7.03358C246.052 7.03358 247.262 7.18377 247.262 6.00733C247.262 4.8309 246.531 5.03114 245.8 5.03114H244.187V7.03358H245.246ZM247.942 10.2125H247.085L245.447 7.58426H244.187V10.2125H243.456V4.53053H245.977C247.489 4.53053 248.018 5.0812 248.018 6.03236C248.018 6.98352 247.237 7.55923 246.203 7.58426L247.942 10.2125ZM249.681 7.35898C249.727 6.76769 249.649 6.17344 249.452 5.61349C249.256 5.05354 248.945 4.53996 248.539 4.10495C248.133 3.66994 247.641 3.32289 247.094 3.08555C246.547 2.84821 245.956 2.7257 245.359 2.7257C244.762 2.7257 244.171 2.84821 243.624 3.08555C243.077 3.32289 242.585 3.66994 242.179 4.10495C241.773 4.53996 241.462 5.05354 241.266 5.61349C241.069 6.17344 240.991 6.76769 241.037 7.35898C240.991 7.95027 241.069 8.54452 241.266 9.10447C241.462 9.66443 241.773 10.178 242.179 10.613C242.585 11.048 243.077 11.3951 243.624 11.6324C244.171 11.8698 244.762 11.9923 245.359 11.9923C245.956 11.9923 246.547 11.8698 247.094 11.6324C247.641 11.3951 248.133 11.048 248.539 10.613C248.945 10.178 249.256 9.66443 249.452 9.10447C249.649 8.54452 249.727 7.95027 249.681 7.35898ZM240.23 7.35898C240.255 6.37457 240.572 5.41928 241.14 4.61266C241.709 3.80604 242.505 3.18391 243.428 2.82413C244.351 2.46435 245.36 2.38289 246.329 2.58996C247.298 2.79702 248.185 3.28341 248.877 3.98825C249.57 4.6931 250.037 5.58509 250.222 6.55261C250.406 7.52013 250.299 8.5202 249.914 9.42768C249.529 10.3352 248.884 11.1097 248.058 11.6545C247.232 12.1992 246.262 12.4899 245.271 12.4902C244.598 12.4904 243.932 12.3569 243.312 12.0976C242.692 11.8382 242.131 11.4582 241.661 10.98C241.192 10.5018 240.823 9.93508 240.577 9.31319C240.331 8.6913 240.214 8.02685 240.23 7.35898Z" fill="#5C5C5C"/>
</g>
<defs>
<clipPath id="clip0_134_73">
<rect width="280" height="82" fill="white"/>
</clipPath>
</defs>
</svg>
