<svg width="18" height="21" viewBox="0 0 18 21" fill="none" xmlns="http://www.w3.org/2000/svg">
<path fill-rule="evenodd" clip-rule="evenodd" d="M1.31579 1.79883H16.6842C17.4109 1.79883 18 2.36413 18 3.06146V18.0362C18 18.7335 17.4109 19.2988 16.6842 19.2988H1.31579C0.5891 19.2988 0 18.7335 0 18.0362V3.06146C0 2.36413 0.5891 1.79883 1.31579 1.79883ZM9.83843 7.40074C8.74711 7.40074 7.84464 7.79778 7.13107 8.59185V3.65479H4.94537V16.9124H7.13107V10.2404C7.56281 9.49238 8.21643 9.11836 9.0919 9.11836C9.65559 9.11836 10.0813 9.25358 10.3691 9.52402C10.663 9.78872 10.8099 10.2433 10.8099 10.8877V16.9124H12.9956V10.8101C12.9656 8.53719 11.9133 7.40074 9.83843 7.40074Z" fill="white"/>
</svg>
