<svg width="33" height="27" viewBox="0 0 33 27" fill="none" xmlns="http://www.w3.org/2000/svg">
<path d="M18.5362 0H14.7447C14.4638 0 14.183 0.279793 14.183 0.559586V26.4404C14.183 26.7202 14.4638 27 14.7447 27H18.5362C18.817 27 19.0979 26.7202 19.0979 26.4404V0.559586C19.0979 0.279793 18.817 0 18.5362 0ZM32.8596 10.9119H28.2255V6.15544C28.2255 6.01554 28.0851 5.87565 27.9447 6.01554L19.6596 13.9896C19.5191 14.1295 19.5191 14.2694 19.6596 14.2694L27.9447 22.1036C28.0851 22.2435 28.2255 22.1036 28.2255 21.9637V17.2073H32.8596V10.9119C33 10.9119 33 10.9119 32.8596 10.9119ZM5.05532 6.15544C4.91489 6.01554 4.77447 6.15544 4.77447 6.29534V11.0518H0V17.3472H4.63404V22.1036C4.63404 22.2435 4.77447 22.3834 4.91489 22.2435L13.2 14.2694C13.3404 14.1295 13.3404 13.9896 13.2 13.9896L5.05532 6.15544Z" fill="white"/>
</svg>
