<svg width="20" height="21" viewBox="0 0 20 21" fill="none" xmlns="http://www.w3.org/2000/svg">
<path d="M18.9789 5.86232C18.7628 5.05906 18.1295 4.42586 17.3263 4.20956C15.8591 3.80811 9.99 3.80811 9.99 3.80811C9.99 3.80811 4.12113 3.80811 2.65388 4.19434C1.86619 4.41041 1.21742 5.05917 1.00136 5.86232C0.615234 7.32945 0.615234 10.3721 0.615234 10.3721C0.615234 10.3721 0.615234 13.4301 1.00136 14.8819C1.21765 15.685 1.85074 16.3182 2.654 16.5345C4.13658 16.9361 9.99023 16.9361 9.99023 16.9361C9.99023 16.9361 15.8591 16.9361 17.3263 16.5498C18.1296 16.3337 18.7628 15.7005 18.9791 14.8973C19.3651 13.4301 19.3651 10.3875 19.3651 10.3875C19.3651 10.3875 19.3806 7.32945 18.9789 5.86232ZM8.12141 13.183V7.56119L13.0019 10.3721L8.12141 13.183Z" fill="white"/>
</svg>
