<svg width="34" height="30" viewBox="0 0 34 30" fill="none" xmlns="http://www.w3.org/2000/svg">
<g clip-path="url(#clip0_52_362)">
<path d="M29.6072 17.8862L27.3545 14.8943L24.1363 17.0406C23.6504 19.2157 22.4418 21.1569 20.7118 22.541C18.9819 23.9251 16.8349 24.6686 14.6285 24.6478C12.422 24.6269 10.2892 23.8429 8.58521 22.4263C6.88119 21.0098 5.70877 19.0461 5.26319 16.8622C4.8176 14.6784 5.12573 12.4062 6.13628 10.4241C7.14683 8.44187 8.7988 6.8693 10.8171 5.96819C12.8355 5.06708 15.0984 4.8918 17.229 5.47155C19.3597 6.05129 21.2295 7.35108 22.5272 9.15447L15.7047 13.8211L12.7279 8.55285L8.52816 10.9919L14.1117 20.8618L34 7.13821L31.2646 3.08943L26.2925 6.50406L23.7018 5.93496L23.1869 2.27642L19.6148 3.25203L17.7 0L14.8036 2.2439L11.859 0L9.99243 3.25203L6.43635 2.27642L5.90535 5.96748L2.25272 6.50406L3.21817 10.0976L0 11.9837L2.22054 14.9593L0 17.8862L3.21817 19.7724L2.25272 23.4309L5.8088 23.935L6.32371 26.9756L6.43635 27.6423V27.7724L9.97634 26.813L11.859 30.065L14.7392 27.8374L17.7 30L19.5504 26.748L23.1548 27.7236L23.6536 24.0163L27.3545 23.5285V23.4309L27.2579 23.0732L26.5017 19.8211L29.6072 17.8862Z" fill="white"/>
</g>
<defs>
<clipPath id="clip0_52_362">
<rect width="34" height="30" fill="white"/>
</clipPath>
</defs>
</svg>
