<svg width="18" height="19" viewBox="0 0 18 19" fill="none" xmlns="http://www.w3.org/2000/svg">
<g clip-path="url(#clip0_40_196)">
<path d="M9.00302 4.92725C6.45077 4.92725 4.38452 6.99574 4.38452 9.54574C4.38452 12.098 6.45302 14.1642 9.00302 14.1642C11.5553 14.1642 13.6215 12.0957 13.6215 9.54574C13.6215 6.99349 11.553 4.92725 9.00302 4.92725ZM9.00302 12.5435C7.34627 12.5435 6.00527 11.2017 6.00527 9.54574C6.00527 7.88974 7.34702 6.548 9.00302 6.548C10.659 6.548 12.0008 7.88974 12.0008 9.54574C12.0015 11.2017 10.6598 12.5435 9.00302 12.5435Z" fill="white"/>
<path d="M12.7109 0.605856C11.0549 0.528606 6.95318 0.532356 5.29568 0.605856C3.83918 0.674106 2.55443 1.02586 1.51868 2.06161C-0.212324 3.79261 0.0089263 6.12511 0.0089263 9.54586C0.0089263 13.0469 -0.186074 15.3254 1.51868 17.0301C3.25643 18.7671 5.62268 18.5399 9.00292 18.5399C12.4709 18.5399 13.6679 18.5421 14.8942 18.0674C16.5614 17.4201 17.8199 15.9299 17.9429 13.2531C18.0209 11.5964 18.0164 7.49536 17.9429 5.83786C17.7944 2.67811 16.0987 0.761857 12.7109 0.605856ZM15.3322 15.8849C14.1974 17.0196 12.6232 16.9184 8.98118 16.9184C5.23118 16.9184 3.72743 16.9739 2.63018 15.8736C1.36643 14.6159 1.59518 12.5961 1.59518 9.53386C1.59518 5.39011 1.16993 2.40586 5.32868 2.19286C6.28418 2.15911 6.56543 2.14786 8.97068 2.14786L9.00443 2.17036C13.0012 2.17036 16.1369 1.75186 16.3252 5.90986C16.3679 6.85861 16.3777 7.14361 16.3777 9.54511C16.3769 13.2516 16.4474 14.7644 15.3322 15.8849Z" fill="white"/>
<path d="M13.8046 5.82452C14.4006 5.82452 14.8838 5.34132 14.8838 4.74527C14.8838 4.14921 14.4006 3.66602 13.8046 3.66602C13.2085 3.66602 12.7253 4.14921 12.7253 4.74527C12.7253 5.34132 13.2085 5.82452 13.8046 5.82452Z" fill="white"/>
</g>
<defs>
<clipPath id="clip0_40_196">
<rect width="18" height="18" fill="white" transform="translate(0 0.548828)"/>
</clipPath>
</defs>
</svg>
