<svg width="34" height="34" viewBox="0 0 34 34" fill="none" xmlns="http://www.w3.org/2000/svg">
<path d="M21.2159 10.336C21.2159 11.016 20.3999 11.56 20.3999 11.56L21.0799 12.512L21.7599 13.464C21.8959 13.328 23.5279 12.24 23.6639 10.472C23.6639 9.38399 23.1199 8.02399 21.7599 6.93599C21.3519 6.52799 20.8079 5.848 20.8079 5.304C20.8079 4.624 21.4879 4.21599 21.4879 4.21599L20.3999 2.17599C20.2639 2.31199 18.7679 3.26399 18.6319 5.03199C18.4959 6.25599 19.0399 7.48 20.2639 8.568C20.6719 8.976 21.3519 9.65599 21.2159 10.336V10.336ZM12.7839 10.336C12.7839 11.016 11.9679 11.56 11.9679 11.56L12.6479 12.512L13.1919 13.6C13.3279 13.464 14.9599 12.376 15.0959 10.608C15.2319 9.384 14.6879 8.02399 13.3279 6.93599C12.9199 6.39199 12.3759 5.848 12.3759 5.304C12.3759 4.624 13.0559 4.21599 13.0559 4.21599L11.9679 2.17599C11.6959 2.31199 10.1999 3.26399 10.0639 5.03199C9.92793 6.25599 10.4719 7.48 11.6959 8.568C12.2399 8.976 12.7839 9.65599 12.7839 10.336ZM26.6559 16.184H7.34393C5.03193 16.184 3.12793 18.088 3.12793 20.4V27.744C3.12793 30.056 5.03193 31.96 7.34393 31.96H22.1679L30.7359 25.024V20.536C30.8719 18.088 28.9679 16.184 26.6559 16.184V16.184ZM19.8559 29.512H7.34393C6.39193 29.512 5.43993 28.696 5.43993 27.608V20.264C5.43993 19.312 6.25593 18.36 7.34393 18.36H26.6559C27.6079 18.36 28.5599 19.176 28.5599 20.264V22.44L24.0719 22.304C21.2159 22.304 20.2639 23.12 19.9919 25.568L19.8559 29.512V29.512ZM22.1679 28.832V25.976C22.3039 24.752 22.3039 24.752 23.9359 24.752H27.0639L22.1679 28.832Z" fill="white"/>
<path d="M7.61597 21.08H18.224V22.712H7.61597V21.08ZM7.61597 24.208H15.64V25.84H7.61597V24.208Z" fill="white"/>
</svg>
