<svg width="29" height="27" viewBox="0 0 29 27" fill="none" xmlns="http://www.w3.org/2000/svg">
<g clip-path="url(#clip0_54_477)">
<path d="M13.655 8.36157V19.9651L21.3453 14.1633L13.655 8.36157Z" fill="white"/>
<path d="M28.2034 9.54227C27.1922 6.74103 25.2558 4.37478 22.7186 2.83989C20.1814 1.30501 17.1974 0.694707 14.2666 1.11123C11.3358 1.52775 8.63619 2.94579 6.61989 5.12781C4.60359 7.30984 3.39312 10.1233 3.19123 13.097C2.57349 13.6936 0.972412 14.7093 0.972412 15.5725V19.0765C0.972412 19.302 1.0614 19.5184 1.21981 19.6779C1.37821 19.8374 1.59306 19.927 1.81708 19.927H2.29614C2.31538 19.9253 2.33478 19.9276 2.35309 19.9338C2.3714 19.94 2.38821 19.95 2.40246 19.9632C2.4167 19.9763 2.42806 19.9923 2.4358 20.0101C2.44354 20.028 2.4475 20.0472 2.44742 20.0667V22.6058C2.46326 22.7617 2.53699 22.9059 2.65386 23.0095C2.77074 23.113 2.92214 23.1684 3.07777 23.1643C3.23812 23.1686 3.39426 23.1124 3.51555 23.0067C3.63684 22.901 3.71452 22.7535 3.73333 22.5931V20.0413C3.73157 20.0219 3.73386 20.0024 3.74004 19.9839C3.74621 19.9655 3.75615 19.9486 3.76921 19.9342C3.78226 19.9199 3.79815 19.9085 3.81586 19.9007C3.83356 19.8929 3.85268 19.8889 3.87201 19.889H5.51091C5.53015 19.8872 5.54955 19.8895 5.56786 19.8957C5.58617 19.9019 5.60298 19.9119 5.61722 19.9251C5.63147 19.9382 5.64283 19.9542 5.65057 19.9721C5.65831 19.9899 5.66227 20.0091 5.66219 20.0286V22.5677C5.67764 22.7226 5.74911 22.8664 5.86302 22.9718C5.97692 23.0771 6.1253 23.1366 6.27993 23.139C6.44428 23.1453 6.60551 23.0926 6.73483 22.9903C6.86415 22.8879 6.95315 22.7427 6.98592 22.5804V20.0413C6.98592 20.0043 7.00053 19.9687 7.02654 19.9426C7.05254 19.9164 7.08782 19.9016 7.1246 19.9016H7.5028C7.72682 19.9016 7.94167 19.812 8.10007 19.6525C8.25848 19.493 8.34747 19.2767 8.34747 19.0511V15.5472C8.34747 14.6585 6.82203 13.719 6.09083 13.1097C6.27232 11.0118 7.09691 9.02256 8.45045 7.41735C9.804 5.81215 11.6196 4.67032 13.6459 4.1499C15.6722 3.62949 17.809 3.75622 19.7607 4.51256C21.7123 5.26891 23.3822 6.61745 24.5393 8.37156C25.6964 10.1257 26.2834 12.1986 26.2191 14.3034C26.1548 16.4083 25.4424 18.4409 24.1804 20.1201C22.9184 21.7993 21.1694 23.0419 19.1752 23.676C17.1811 24.3101 15.0406 24.3043 13.0499 23.6595C12.6904 23.5399 12.2986 23.5691 11.9605 23.7405C11.6224 23.9119 11.3658 24.2116 11.2471 24.5735C11.1284 24.9355 11.1573 25.3301 11.3275 25.6705C11.4978 26.011 11.7953 26.2694 12.1548 26.389C13.4232 26.7921 14.7454 26.9976 16.0755 26.9983C17.581 27.001 19.075 26.7345 20.4879 26.2112C23.7026 25.0264 26.3198 22.6067 27.766 19.4822C29.2122 16.3577 29.3695 12.7833 28.2034 9.54227Z" fill="white"/>
</g>
<defs>
<clipPath id="clip0_54_477">
<rect width="28" height="26" fill="white" transform="translate(0.972412 0.998291)"/>
</clipPath>
</defs>
</svg>
