<svg width="37" height="31" viewBox="0 0 37 31" fill="none" xmlns="http://www.w3.org/2000/svg">
<g clip-path="url(#clip0_52_356)">
<path d="M36.7855 17.0834L32.0341 12.0134C31.9559 11.9338 31.8601 11.8723 31.7539 11.8337C31.6477 11.7951 31.5339 11.7803 31.421 11.7904C31.3094 11.8006 31.2017 11.8353 31.106 11.892C31.0104 11.9487 30.9294 12.0258 30.8692 12.1175L27.1753 17.9607C27.125 18.0407 27.0913 18.1296 27.0764 18.2222C27.0615 18.3149 27.0655 18.4095 27.0883 18.5006C27.1111 18.5917 27.1521 18.6776 27.2092 18.7534C27.2662 18.8291 27.338 18.8932 27.4206 18.942C27.535 19.0124 27.6682 19.0486 27.8037 19.046H27.8804L29.1066 18.942C29.1549 18.9357 29.2041 18.9389 29.2512 18.9513C29.2983 18.9636 29.3424 18.985 29.3809 19.014C29.4194 19.0431 29.4516 19.0793 29.4755 19.1205C29.4995 19.1617 29.5147 19.2072 29.5204 19.2542V19.4029C28.9475 21.2634 27.8932 22.9507 26.4578 24.304C25.0224 25.6574 23.2538 26.6317 21.3203 27.1343C21.0858 27.1929 20.8655 27.2957 20.672 27.4368C20.4784 27.578 20.3155 27.7548 20.1924 27.957C20.0692 28.1593 19.9884 28.3831 19.9545 28.6157C19.9205 28.8482 19.9341 29.085 19.9945 29.3125C20.0549 29.5399 20.1609 29.7536 20.3064 29.9414C20.4519 30.1291 20.6341 30.2872 20.8426 30.4066C21.0511 30.526 21.2819 30.6045 21.5216 30.6374C21.7614 30.6703 22.0055 30.6571 22.2399 30.5986C25.0786 29.8698 27.645 28.373 29.6398 26.2827C31.6345 24.1924 32.9752 21.5949 33.5055 18.7933C33.519 18.7181 33.558 18.6495 33.6163 18.5983C33.6746 18.5471 33.7489 18.5163 33.8273 18.5108L36.3257 18.2878C36.4225 18.2785 36.5165 18.2507 36.6021 18.206C36.6878 18.1612 36.7635 18.1005 36.8248 18.0272C36.8861 17.9539 36.9318 17.8695 36.9592 17.779C36.9867 17.6885 36.9954 17.5936 36.9848 17.4998C36.9653 17.3441 36.8955 17.1984 36.7855 17.0834ZM13.7946 27.8926L9.9015 22.1981C9.82688 22.0863 9.72086 21.9975 9.59595 21.9421C9.47103 21.8868 9.33242 21.8673 9.19645 21.8858C9.06014 21.8997 8.93052 21.9501 8.8222 22.0316C8.71387 22.113 8.63115 22.2222 8.58335 22.3468L8.15419 23.5511C8.14058 23.5995 8.11659 23.6446 8.08378 23.6834C8.05097 23.7223 8.01008 23.754 7.96379 23.7764C7.9175 23.7989 7.86685 23.8116 7.81514 23.8137C7.76343 23.8159 7.71183 23.8075 7.66372 23.789L7.5411 23.7146C6.06029 22.4298 4.94231 20.7995 4.29318 18.978C3.64404 17.1566 3.48527 15.2046 3.8319 13.3069C3.87568 13.0723 3.87052 12.8315 3.81673 12.5988C3.76294 12.3661 3.6616 12.1462 3.51871 11.9522C3.37582 11.7581 3.19428 11.5938 2.98481 11.469C2.77535 11.3442 2.54221 11.2613 2.29918 11.2254C1.82171 11.1382 1.32804 11.2378 0.926 11.5024C0.523955 11.767 0.246191 12.1753 0.153363 12.6379C-0.370742 15.4335 -0.0639097 18.3161 1.03801 20.9489C2.13993 23.5817 3.99144 25.856 6.37623 27.506C6.44163 27.5523 6.4902 27.6176 6.51499 27.6924C6.53977 27.7672 6.53949 27.8477 6.51418 27.9223L5.67118 30.1674C5.62986 30.2839 5.62037 30.4089 5.64364 30.5301C5.6669 30.6513 5.72212 30.7645 5.80393 30.8589C5.88573 30.9532 5.99132 31.0253 6.11042 31.0683C6.22952 31.1113 6.35806 31.1236 6.48352 31.1041H6.59081L13.2888 29.082C13.3813 29.055 13.4672 29.0103 13.5415 28.9504C13.6158 28.8906 13.6769 28.8168 13.7212 28.7336C13.7656 28.6504 13.7922 28.5594 13.7995 28.466C13.8069 28.3726 13.7948 28.2787 13.764 28.1899C13.8023 28.0954 13.8129 27.9925 13.7946 27.8926ZM23.2822 16.3549C23.4051 16.2361 23.5023 16.0947 23.5681 15.9389C23.6339 15.7832 23.667 15.6163 23.6654 15.448C23.6626 15.0974 23.5198 14.7616 23.2669 14.5113C21.5614 12.8688 19.2556 11.9471 16.8524 11.9471C14.4492 11.9471 12.1434 12.8688 10.438 14.5113C10.2202 14.7619 10.1074 15.0826 10.1218 15.4101C10.1361 15.7375 10.2767 16.0478 10.5156 16.2796C10.7545 16.5113 11.0744 16.6477 11.4119 16.6616C11.7495 16.6756 12.0802 16.5661 12.3385 16.3549C12.9345 15.7692 13.6445 15.3041 14.4272 14.9866C15.21 14.6692 16.05 14.5057 16.8984 14.5057C17.7468 14.5057 18.5868 14.6692 19.3695 14.9866C20.1523 15.3041 20.8623 15.7692 21.4583 16.3549C21.7071 16.5764 22.0325 16.6993 22.3702 16.6993C22.7079 16.6993 23.0334 16.5764 23.2822 16.3549Z" fill="white"/>
<path d="M7.15775 9.88733C7.03396 10.0084 6.93596 10.1519 6.86936 10.3097C6.80275 10.4675 6.76883 10.6365 6.76954 10.807C6.77025 10.9775 6.80558 11.1462 6.8735 11.3035C6.94143 11.4607 7.04062 11.6035 7.16541 11.7235C7.2902 11.8436 7.43816 11.9387 7.60082 12.0033C7.76349 12.0679 7.93768 12.1008 8.11346 12.1001C8.28923 12.0994 8.46314 12.0652 8.62526 11.9993C8.78738 11.9334 8.93454 11.8372 9.05833 11.7161C11.1291 9.71775 13.9313 8.59596 16.8522 8.59596C19.7732 8.59596 22.5754 9.71775 24.6461 11.7161C24.8327 11.8999 25.0716 12.0255 25.3322 12.0766C25.5929 12.1277 25.8633 12.1021 26.1088 12.003C26.3543 11.9039 26.5637 11.7359 26.71 11.5205C26.8563 11.3051 26.9329 11.0522 26.9299 10.7943C26.9298 10.6227 26.8946 10.4528 26.8262 10.2945C26.7577 10.1363 26.6575 9.99279 26.5314 9.87247C23.9598 7.38308 20.4744 5.98623 16.8414 5.98902C13.2084 5.99181 9.72525 7.39401 7.15775 9.88733Z" fill="white"/>
<path d="M6.13099 6.69066C9.03508 4.04667 12.8652 2.57008 16.848 2.55904C20.8308 2.54801 24.6695 4.00334 27.5892 6.63118C27.8437 6.87097 28.1846 7.0051 28.5394 7.0051C28.8943 7.0051 29.2352 6.87097 29.4897 6.63118C29.7307 6.3764 29.8578 6.03948 29.8435 5.69403C29.8291 5.34857 29.6744 5.02267 29.4131 4.78754C26.0004 1.73987 21.5266 0.0555993 16.888 0.0721422C12.2494 0.0886851 7.7885 1.80482 4.39901 4.87675C4.25613 5.11608 4.19609 5.39354 4.22771 5.6684C4.25932 5.94326 4.38091 6.20106 4.57465 6.40397C4.76839 6.60687 5.02408 6.7442 5.30418 6.79579C5.58428 6.84739 5.87406 6.81054 6.13099 6.69066Z" fill="white"/>
</g>
<defs>
<clipPath id="clip0_52_356">
<rect width="37" height="31" fill="white"/>
</clipPath>
</defs>
</svg>
