<svg width="34" height="28" viewBox="0 0 34 28" fill="none" xmlns="http://www.w3.org/2000/svg">
<g clip-path="url(#clip0_54_485)">
<path d="M19.5086 0.998291H15.7171C15.4362 0.998291 15.1554 1.27808 15.1554 1.55788V27.4387C15.1554 27.7185 15.4362 27.9983 15.7171 27.9983H19.5086C19.7894 27.9983 20.0703 27.7185 20.0703 27.4387V1.55788C20.0703 1.27808 19.7894 0.998291 19.5086 0.998291ZM33.832 11.9102H29.1979V7.15373C29.1979 7.01384 29.0575 6.87394 28.9171 7.01384L20.632 14.9879C20.4916 15.1278 20.4916 15.2677 20.632 15.2677L28.9171 23.1019C29.0575 23.2418 29.1979 23.1019 29.1979 22.962V18.2055H33.832V11.9102C33.9724 11.9102 33.9724 11.9102 33.832 11.9102ZM6.02773 7.15373C5.88731 7.01384 5.74688 7.15373 5.74688 7.29363V12.0501H0.972412V18.3454H5.60645V23.1019C5.60645 23.2418 5.74688 23.3817 5.88731 23.2418L14.1724 15.2677C14.3128 15.1278 14.3128 14.9879 14.1724 14.9879L6.02773 7.15373Z" fill="white"/>
</g>
<defs>
<clipPath id="clip0_54_485">
<rect width="33" height="27" fill="white" transform="translate(0.972412 0.998291)"/>
</clipPath>
</defs>
</svg>
