<svg width="33" height="33" viewBox="0 0 33 33" fill="none" xmlns="http://www.w3.org/2000/svg">
<g clip-path="url(#clip0_49_351)">
<path d="M12.86 19.0269C13.0641 17.1932 13.8252 15.4662 15.041 14.0784C14.2389 13.5545 13.337 13.2025 12.3921 13.0446C11.4472 12.8867 10.4798 12.9263 9.55099 13.1609C9.56564 14.3379 9.87646 15.4922 10.4548 16.5174C11.0331 17.5426 11.8603 18.4056 12.86 19.0269ZM16.5451 12.7097C18.0774 11.5869 19.9249 10.9764 21.8245 10.9649C22.3029 10.9738 22.7802 11.014 23.2534 11.0852C22.8221 9.64322 21.9371 8.37881 20.7299 7.47985C19.5227 6.58089 18.0577 6.09534 16.5526 6.09534C15.0474 6.09534 13.5825 6.58089 12.3753 7.47985C11.1681 8.37881 10.2831 9.64322 9.85181 11.0852C10.32 11.0147 10.7923 10.9745 11.2657 10.9649C13.1664 10.9691 15.0161 11.5804 16.5451 12.7097ZM14.8003 19.8391C15.9134 20.14 17.0865 20.14 18.1996 19.8391C18.1911 18.1801 17.5881 16.5791 16.4999 15.3268C15.4187 16.5832 14.8167 18.1816 14.8003 19.8391ZM23.494 13.1609C22.9331 13.0216 22.3573 12.9509 21.7793 12.9503C20.4539 12.9637 19.1599 13.3551 18.0492 14.0784C19.254 15.47 20.0045 17.1967 20.2 19.0269C21.197 18.4038 22.0212 17.54 22.5968 16.5149C23.1724 15.4899 23.481 14.3365 23.494 13.1609ZM15.041 21.9148C15.3566 22.8725 15.8689 23.7537 16.5451 24.5018C17.1944 23.7495 17.6764 22.8676 17.9589 21.9148C17.4917 21.9934 17.0188 22.0337 16.5451 22.0351C16.0412 22.0381 15.538 21.9978 15.041 21.9148ZM7.52045 13.9882C5.95472 14.9854 4.84928 16.5639 4.44733 18.3762C4.04537 20.1885 4.37982 22.0863 5.37711 23.652C6.37439 25.2177 7.95281 26.3232 9.76513 26.7251C11.5775 27.1271 13.4752 26.7926 15.041 25.7954C13.9337 24.5195 13.2136 22.9541 12.9653 21.2831C11.4927 20.6587 10.2125 19.6542 9.25574 18.3724C8.29901 17.0906 7.70014 15.5775 7.52045 13.9882Z" fill="white"/>
<path d="M25.8856 0H7.12944C5.23982 0.00397399 3.42873 0.756386 2.09256 2.09256C0.756386 3.42873 0.00397399 5.23982 0 7.12944L0 25.8856C0.00794125 27.7726 0.762104 29.5799 2.09785 30.9128C3.43359 32.2457 5.24242 32.996 7.12944 33H25.8856C27.77 32.9921 29.575 32.24 30.9075 30.9075C32.24 29.575 32.9921 27.77 33 25.8856V7.12944C32.996 5.24242 32.2457 3.43359 30.9128 2.09785C29.5799 0.762104 27.7726 0.00794125 25.8856 0V0ZM21.7794 28.9088C19.8953 28.8879 18.065 28.2778 16.5451 27.1641C15.5305 27.9829 14.3506 28.5722 13.0864 28.8913C11.8223 29.2104 10.5041 29.2519 9.22239 29.0128C7.94072 28.7737 6.72607 28.2597 5.66204 27.5063C4.59802 26.7528 3.70988 25.7777 3.05877 24.6482C2.40765 23.5186 2.00901 22.2614 1.89028 20.963C1.77156 19.6646 1.93557 18.356 2.37103 17.1271C2.80648 15.8981 3.50304 14.7782 4.41277 13.8442C5.3225 12.9103 6.42379 12.1845 7.64084 11.717C8.04015 9.66039 9.14252 7.80681 10.7589 6.47408C12.3753 5.14135 14.405 4.41249 16.5 4.41249C18.595 4.41249 20.6247 5.14135 22.2411 6.47408C23.8575 7.80681 24.9598 9.66039 25.3592 11.717C27.1979 12.5792 28.692 14.0364 29.5999 15.853C30.5079 17.6695 30.7766 19.7392 30.3626 21.7274C29.9486 23.7156 28.8761 25.506 27.3186 26.8092C25.761 28.1124 23.8094 28.8522 21.7794 28.9088Z" fill="white"/>
<path d="M25.4193 13.9882C25.2519 15.5689 24.67 17.0774 23.7323 18.361C22.7947 19.6447 21.5347 20.6578 20.0797 21.2981C19.8192 22.9683 19.0948 24.5318 17.989 25.8104C18.7653 26.2983 19.63 26.6285 20.5339 26.7822C21.4378 26.9358 22.3631 26.91 23.2569 26.7061C24.1508 26.5022 24.9958 26.1242 25.7436 25.5937C26.4914 25.0632 27.1274 24.3907 27.6153 23.6144C28.1031 22.8382 28.4334 21.9734 28.587 21.0695C28.7407 20.1657 28.7149 19.2404 28.5109 18.3465C28.307 17.4526 27.929 16.6076 27.3986 15.8598C26.8681 15.112 26.1955 14.476 25.4193 13.9882Z" fill="white"/>
<path d="M25.3592 11.7169C24.9598 9.66038 23.8575 7.8068 22.2411 6.47407C20.6247 5.14134 18.595 4.41248 16.5 4.41248C14.405 4.41248 12.3753 5.14134 10.7589 6.47407C9.14252 7.8068 8.04015 9.66038 7.64083 11.7169C6.42378 12.1845 5.32249 12.9103 4.41277 13.8442C3.50304 14.7782 2.80648 15.8981 2.37102 17.127C1.93556 18.356 1.77155 19.6646 1.89028 20.963C2.009 22.2614 2.40764 23.5186 3.05876 24.6482C3.70988 25.7777 4.59801 26.7528 5.66204 27.5062C6.72606 28.2597 7.94071 28.7737 9.22238 29.0128C10.5041 29.2519 11.8223 29.2104 13.0864 28.8913C14.3506 28.5721 15.5305 27.9829 16.5451 27.1641C17.5597 28.0013 18.7451 28.6065 20.0181 28.9375C21.2912 29.2684 22.6213 29.3171 23.9151 29.0801C25.209 28.843 26.4354 28.326 27.5084 27.5652C28.5815 26.8044 29.4753 25.8182 30.1272 24.6757C30.7791 23.5332 31.1733 22.262 31.2824 20.9512C31.3914 19.6403 31.2125 18.3214 30.7583 17.087C30.3041 15.8525 29.5855 14.7322 28.6529 13.8046C27.7202 12.877 26.5961 12.1645 25.3592 11.7169ZM18.0492 14.0784C19.1771 13.344 20.4936 12.9522 21.8396 12.9503C22.4175 12.9509 22.9933 13.0216 23.5542 13.1609C23.5348 14.3421 23.2171 15.4992 22.6307 16.5248C22.0443 17.5503 21.2082 18.411 20.2001 19.0269C20.0046 17.1966 19.254 15.4699 18.0492 14.0784ZM18.2598 19.8391C17.1467 20.14 15.9736 20.14 14.8605 19.8391C14.8769 18.1816 15.4789 16.5832 16.5602 15.3268C17.6265 16.5877 18.2079 18.1878 18.1996 19.8391H18.2598ZM16.5451 6.0164C18.0533 6.0184 19.5207 6.50683 20.7292 7.40916C21.9377 8.31149 22.823 9.57957 23.2534 11.0251C22.7802 10.9539 22.3029 10.9137 21.8245 10.9047C19.9182 10.9336 18.0701 11.5655 16.5451 12.7097C15.0038 11.5712 13.1368 10.9594 11.2206 10.9649C10.7472 10.9745 10.2749 11.0147 9.80674 11.0852C10.2278 9.62359 11.1129 8.33861 12.3285 7.42423C13.544 6.50985 15.024 6.01571 16.5451 6.0164ZM11.2206 12.9503C12.5767 12.9463 13.9045 13.3384 15.041 14.0784C13.8362 15.4699 13.0857 17.1966 12.8901 19.0269C11.8848 18.4092 11.0517 17.5477 10.468 16.5223C9.88428 15.4969 9.56888 14.3407 9.55104 13.1609C10.0971 13.0239 10.6576 12.9532 11.2206 12.9503ZM11.2206 26.9234C9.69359 26.9373 8.20419 26.4499 6.98076 25.536C5.75733 24.6221 4.8674 23.3322 4.44743 21.864C4.02746 20.3958 4.10063 18.8304 4.65572 17.4078C5.2108 15.9852 6.21717 14.7839 7.5205 13.9881C7.69488 15.5769 8.28808 17.0909 9.23946 18.3753C10.1908 19.6596 11.4662 20.6683 12.9353 21.2981C13.1836 22.9691 13.9037 24.5345 15.0109 25.8104C13.8814 26.5395 12.565 26.926 11.2206 26.9234ZM16.5451 24.5018C15.8689 23.7537 15.3566 22.8725 15.041 21.9148C15.5083 21.9928 15.9811 22.033 16.4549 22.0351C16.9286 22.0336 17.4015 21.9934 17.8687 21.9148C17.6131 22.8601 17.1622 23.7414 16.5451 24.5018ZM21.8245 26.9234C20.4837 26.9187 19.1728 26.527 18.0492 25.7953C19.155 24.5167 19.8794 22.9533 20.1399 21.283C21.5816 20.6358 22.828 19.6213 23.7545 18.3411C24.681 17.0609 25.2551 15.5599 25.4193 13.9881C26.7181 14.7813 27.7221 15.9772 28.2783 17.3938C28.8344 18.8104 28.9123 20.3699 28.5001 21.8348C28.0879 23.2998 27.2081 24.5898 25.9948 25.5085C24.7815 26.4271 23.3012 26.924 21.7794 26.9234H21.8245Z" fill="black"/>
</g>
<defs>
<clipPath id="clip0_49_351">
<rect width="33" height="33" fill="white"/>
</clipPath>
</defs>
</svg>
