<svg width="37" height="37" viewBox="0 0 37 37" fill="none" xmlns="http://www.w3.org/2000/svg">
<path d="M21.5834 14.3374C21.5834 14.3374 21.5834 14.1833 21.4292 14.1833C20.3501 12.4874 18.1917 12.0249 16.4959 12.9499C14.8001 14.0291 14.3376 16.1874 15.2626 17.8833C16.3417 19.5791 18.5001 20.0416 20.1959 19.1166C20.3501 19.1166 20.3501 18.9624 20.3501 18.9624L28.2126 18.3458L21.5834 14.3374ZM24.5126 25.1291C26.5167 25.2833 28.3667 25.5916 30.3709 26.0541C31.4501 24.8208 32.2209 23.4333 32.8376 21.8916L28.3667 20.6583C27.4417 22.5083 26.2084 24.0499 24.5126 25.1291Z" fill="white"/>
<path d="M18.5 0.462524C9.8667 0.462524 2.9292 7.40002 2.9292 16.0334C2.9292 20.1959 4.62503 24.05 7.24587 26.825C9.09587 26.2084 11.1 25.9 12.95 25.5917C9.71253 23.7417 7.40003 20.1959 7.40003 16.0334C7.40003 9.86669 12.3334 5.08752 18.5 5.08752C24.5125 5.08752 29.4459 10.0209 29.4459 16.0334L34.0709 17.2667V16.1875C34.0709 7.40002 26.9792 0.462524 18.5 0.462524Z" fill="white"/>
</svg>
