<svg width="33" height="33" viewBox="0 0 33 33" fill="none" xmlns="http://www.w3.org/2000/svg">
<path d="M4.75195 22.176V25.74C4.75195 25.74 5.14795 28.512 16.896 28.776C16.896 28.776 26.004 28.644 28.116 25.872V22.176C28.116 22.176 25.476 24.156 16.896 24.552C16.896 24.42 9.50395 24.684 4.75195 22.176V22.176Z" fill="white"/>
<path d="M4.75195 16.104V19.668C4.75195 19.668 5.14795 22.44 16.896 22.704C16.896 22.704 26.004 22.572 28.116 19.8V16.104C28.116 16.104 25.476 18.084 16.896 18.48C16.896 18.348 9.50395 18.612 4.75195 16.104V16.104Z" fill="white"/>
<path d="M4.75195 9.89999V13.464C4.75195 13.464 5.14795 16.236 16.896 16.5C16.896 16.5 26.004 16.368 28.116 13.596V9.89999C28.116 9.89999 25.476 11.88 16.896 12.276C16.896 12.144 9.50395 12.408 4.75195 9.89999V9.89999Z" fill="white"/>
<path d="M5.01609 6.99599C5.01609 6.99599 6.33609 4.61999 16.5001 4.35599C16.5001 4.35599 24.4201 4.35599 27.9841 6.99599C27.9841 6.99599 28.2481 7.39199 27.9841 7.65599C27.9841 7.65599 26.5321 10.032 16.5001 10.296C16.5001 10.296 7.78809 10.428 5.01609 7.65599C5.01609 7.78799 4.62009 7.25999 5.01609 6.99599V6.99599Z" fill="white"/>
</svg>
