<svg width="31" height="31" viewBox="0 0 31 31" fill="none" xmlns="http://www.w3.org/2000/svg">
<path d="M16.4919 18.352L12.6479 14.508H12.5239L8.30791 18.724L5.33191 15.748C5.20791 15.624 5.08391 15.748 5.08391 15.872L2.10791 28.644C2.10791 28.768 2.23191 28.892 2.35591 28.892L15.1279 25.916C15.2519 25.916 15.2519 25.668 15.2519 25.668L12.2759 22.692L16.4919 18.352C16.4919 18.352 16.4919 18.476 16.4919 18.352ZM28.5199 2.23199L15.7479 5.20799C15.6239 5.20799 15.6239 5.45599 15.6239 5.45599L18.5999 8.43199L14.3839 12.648V12.772L18.2279 16.616H18.3519L22.5679 12.4L25.5439 15.376C25.6679 15.5 25.7919 15.376 25.7919 15.252L28.6439 2.47999C28.7679 2.35599 28.6439 2.23199 28.5199 2.23199Z" fill="white"/>
</svg>
