<svg width="38" height="38" viewBox="0 0 38 38" fill="none" xmlns="http://www.w3.org/2000/svg">
<path d="M22.5558 15.3359C22.5558 15.3359 22.5558 15.1817 22.4016 15.1817C21.3225 13.4859 19.1641 13.0234 17.4683 13.9484C15.7725 15.0275 15.31 17.1859 16.235 18.8817C17.3141 20.5775 19.4725 21.04 21.1683 20.115C21.3225 20.115 21.3225 19.9609 21.3225 19.9609L29.185 19.3442L22.5558 15.3359ZM25.485 26.1275C27.4891 26.2817 29.3391 26.59 31.3433 27.0525C32.4225 25.8192 33.1933 24.4317 33.81 22.89L29.3391 21.6567C28.4141 23.5067 27.1808 25.0484 25.485 26.1275Z" fill="white"/>
<path d="M19.4724 1.46069C10.8391 1.46069 3.90161 8.39819 3.90161 17.0315C3.90161 21.194 5.59744 25.0482 8.21828 27.8232C10.0683 27.2065 12.0724 26.8982 13.9224 26.5899C10.6849 24.7399 8.37245 21.194 8.37245 17.0315C8.37245 10.8649 13.3058 6.08569 19.4724 6.08569C25.4849 6.08569 30.4183 11.019 30.4183 17.0315L35.0433 18.2649V17.1857C35.0433 8.39819 27.9516 1.46069 19.4724 1.46069Z" fill="white"/>
</svg>
