<svg width="34" height="34" viewBox="0 0 34 34" fill="none" xmlns="http://www.w3.org/2000/svg">
<path d="M5.72437 23.1743V26.7383C5.72437 26.7383 6.12037 29.5103 17.8684 29.7743C17.8684 29.7743 26.9764 29.6423 29.0884 26.8703V23.1743C29.0884 23.1743 26.4484 25.1543 17.8684 25.5503C17.8684 25.4183 10.4764 25.6823 5.72437 23.1743Z" fill="white"/>
<path d="M5.72437 17.1023V20.6663C5.72437 20.6663 6.12037 23.4383 17.8684 23.7023C17.8684 23.7023 26.9764 23.5703 29.0884 20.7983V17.1023C29.0884 17.1023 26.4484 19.0823 17.8684 19.4783C17.8684 19.3463 10.4764 19.6103 5.72437 17.1023Z" fill="white"/>
<path d="M5.72437 10.8982V14.4622C5.72437 14.4622 6.12037 17.2342 17.8684 17.4982C17.8684 17.4982 26.9764 17.3662 29.0884 14.5942V10.8982C29.0884 10.8982 26.4484 12.8782 17.8684 13.2742C17.8684 13.1422 10.4764 13.4062 5.72437 10.8982Z" fill="white"/>
<path d="M5.9885 7.99425C5.9885 7.99425 7.3085 5.61825 17.4725 5.35425C17.4725 5.35425 25.3925 5.35425 28.9565 7.99425C28.9565 7.99425 29.2205 8.39025 28.9565 8.65425C28.9565 8.65425 27.5045 11.0302 17.4725 11.2942C17.4725 11.2942 8.7605 11.4262 5.9885 8.65425C5.9885 8.78625 5.5925 8.25825 5.9885 7.99425Z" fill="white"/>
</svg>
