<svg width="28" height="28" viewBox="0 0 28 28" fill="none" xmlns="http://www.w3.org/2000/svg">
<g clip-path="url(#clip0_52_360)">
<path d="M9.92443 24.4981C10.3609 24.5384 10.7666 24.7403 11.062 25.0643C11.3574 25.3882 11.5211 25.8107 11.5211 26.2491C11.5211 26.6874 11.3574 27.11 11.062 27.4339C10.7666 27.7578 10.3609 27.9597 9.92443 28H1.74348C1.28228 27.9961 0.841082 27.8112 0.514956 27.485C0.188829 27.1589 0.00389215 26.7177 0 26.2565L0 18.0905C0.0153634 17.6371 0.205352 17.2072 0.530261 16.8906C0.855169 16.574 1.28986 16.3953 1.74348 16.3917C2.20983 16.3917 2.65708 16.577 2.98684 16.9067C3.3166 17.2365 3.50186 17.6837 3.50186 18.1501V20.6833C3.50186 20.7597 3.51689 20.8352 3.5461 20.9057C3.57531 20.9763 3.61811 21.0403 3.67208 21.0943C3.72605 21.1482 3.79011 21.1911 3.86062 21.2203C3.93113 21.2495 4.0067 21.2645 4.08302 21.2645C4.16032 21.2529 4.23447 21.2257 4.30104 21.1848C4.36761 21.1438 4.42524 21.0898 4.47046 21.0261L8.6578 16.8536C8.99175 16.5236 9.44312 16.3398 9.91261 16.3426C10.3821 16.3454 10.8313 16.5346 11.1613 16.8685C11.4913 17.2025 11.6751 17.6539 11.6723 18.1234C11.6695 18.5929 11.4803 19.042 11.1464 19.372L6.97392 23.5444C6.89098 23.6249 6.83389 23.7282 6.80993 23.8412C6.78598 23.9542 6.79625 24.0718 6.83942 24.1789C6.8826 24.2861 6.95674 24.3779 7.05235 24.4427C7.14797 24.5075 7.26074 24.5424 7.37626 24.5428L9.92443 24.4981ZM11.1464 8.6876C11.3137 8.84415 11.4485 9.03213 11.5432 9.24079C11.6378 9.44945 11.6905 9.67472 11.6981 9.90373C11.7057 10.1327 11.6681 10.361 11.5875 10.5755C11.5069 10.79 11.3849 10.9865 11.2283 11.1538C11.0718 11.3211 10.8838 11.456 10.6751 11.5506C10.4665 11.6453 10.2412 11.6979 10.0122 11.7056C9.78318 11.7132 9.55491 11.6756 9.34042 11.595C9.12593 11.5144 8.92942 11.3923 8.76211 11.2358V11.1464L4.47046 6.97392C4.38413 6.89607 4.27644 6.8459 4.1613 6.82989C4.04616 6.81388 3.92886 6.83276 3.82457 6.88411C3.72027 6.93545 3.63377 7.0169 3.57625 7.11791C3.51872 7.21893 3.49281 7.33488 3.50186 7.45077V9.92443C3.46155 10.3609 3.25965 10.7666 2.93575 11.062C2.61184 11.3574 2.18929 11.5211 1.75093 11.5211C1.31257 11.5211 0.890021 11.3574 0.566116 11.062C0.24221 10.7666 0.0403114 10.3609 0 9.92443L0 1.74348C0.00389215 1.28228 0.188829 0.841082 0.514956 0.514956C0.841082 0.188829 1.28228 0.00389215 1.74348 0L9.92443 0C10.3609 0.0403114 10.7666 0.24221 11.062 0.566116C11.3574 0.890021 11.5211 1.31257 11.5211 1.75093C11.5211 2.18929 11.3574 2.61184 11.062 2.93575C10.7666 3.25965 10.3609 3.46155 9.92443 3.50186H7.45077C7.29664 3.50186 7.14882 3.56309 7.03983 3.67208C6.93084 3.78107 6.86961 3.92889 6.86961 4.08302C6.85728 4.22046 6.89426 4.35779 6.97392 4.47046L11.1464 8.6876ZM28 26.2565C27.9961 26.7177 27.8112 27.1589 27.485 27.485C27.1589 27.8112 26.7177 27.9961 26.2565 28H18.0905C17.847 28.0225 17.6014 27.9939 17.3696 27.9162C17.1377 27.8384 16.9247 27.7131 16.744 27.5483C16.5633 27.3836 16.4189 27.1829 16.3202 26.9592C16.2214 26.7355 16.1704 26.4936 16.1704 26.2491C16.1704 26.0045 16.2214 25.7627 16.3202 25.5389C16.4189 25.3152 16.5633 25.1146 16.744 24.9498C16.9247 24.785 17.1377 24.6597 17.3696 24.582C17.6014 24.5042 17.847 24.4756 18.0905 24.4981H20.6237C20.7779 24.4981 20.9257 24.4369 21.0347 24.3279C21.1437 24.2189 21.2049 24.0711 21.2049 23.917C21.2046 23.839 21.1886 23.7619 21.1579 23.6902C21.1272 23.6185 21.0824 23.5537 21.0261 23.4997L16.8536 19.372C16.6905 19.21 16.5611 19.0173 16.4728 18.805C16.3844 18.5927 16.339 18.3651 16.339 18.1352C16.339 17.9053 16.3844 17.6776 16.4728 17.4654C16.5611 17.2531 16.6905 17.0604 16.8536 16.8983C17.1808 16.5978 17.6089 16.431 18.0532 16.431C18.4975 16.431 18.9256 16.5978 19.2528 16.8983L23.4252 21.0708C23.5056 21.1537 23.6089 21.2108 23.722 21.2348C23.835 21.2587 23.9525 21.2485 24.0597 21.2053C24.1668 21.1621 24.2587 21.088 24.3235 20.9923C24.3883 20.8967 24.4232 20.784 24.4236 20.6684V18.1352C24.4011 17.8917 24.4297 17.6461 24.5075 17.4143C24.5852 17.1824 24.7105 16.9694 24.8753 16.7887C25.0401 16.608 25.2407 16.4636 25.4644 16.3649C25.6882 16.2661 25.93 16.2151 26.1746 16.2151C26.4191 16.2151 26.661 16.2661 26.8847 16.3649C27.1084 16.4636 27.3091 16.608 27.4738 16.7887C27.6386 16.9694 27.7639 17.1824 27.8417 17.4143C27.9194 17.6461 27.948 17.8917 27.9255 18.1352L28 26.2565ZM28 9.86482C27.9597 10.3013 27.7578 10.707 27.4339 11.0024C27.11 11.2978 26.6874 11.4615 26.2491 11.4615C25.8107 11.4615 25.3882 11.2978 25.0643 11.0024C24.7403 10.707 24.5384 10.3013 24.4981 9.86482V7.45077C24.4981 7.29664 24.4369 7.14882 24.3279 7.03983C24.2189 6.93084 24.0711 6.86961 23.917 6.86961C23.839 6.8699 23.7619 6.88588 23.6902 6.9166C23.6185 6.94732 23.5537 6.99215 23.4997 7.04843L19.372 11.1464C19.0558 11.4862 18.6176 11.6866 18.1537 11.7034C17.6898 11.7201 17.2382 11.5519 16.8983 11.2358C16.5585 10.9196 16.3581 10.4814 16.3413 10.0175C16.3246 9.55355 16.4928 9.10199 16.8089 8.76211H16.8983L21.0261 4.47046C21.109 4.39005 21.1661 4.28674 21.1901 4.17373C21.214 4.06072 21.2038 3.94314 21.1606 3.83599C21.1174 3.72884 21.0433 3.637 20.9476 3.57217C20.852 3.50735 20.7393 3.4725 20.6237 3.47206H18.0905C17.6396 3.45683 17.2119 3.26892 16.8957 2.94719C16.5795 2.62545 16.3991 2.19451 16.3917 1.74348C16.3953 1.28986 16.574 0.855169 16.8906 0.530261C17.2072 0.205352 17.6371 0.0153634 18.0905 0L26.2565 0C26.7177 0.00389215 27.1589 0.188829 27.485 0.514956C27.8112 0.841082 27.9961 1.28228 28 1.74348V9.86482Z" fill="white"/>
</g>
<defs>
<clipPath id="clip0_52_360">
<rect width="28" height="28" fill="white"/>
</clipPath>
</defs>
</svg>
