<svg width="31" height="31" viewBox="0 0 31 31" fill="none" xmlns="http://www.w3.org/2000/svg">
<path d="M23.932 15.128C31.496 7.56401 29.636 1.48801 29.636 1.48801C29.636 1.48801 23.436 -0.371992 15.996 7.19201L15.004 8.18401L10.168 6.57201L7.68796 9.05201L12.152 13.516C10.912 13.888 9.67196 14.508 8.43196 15.252L15.748 22.568C16.492 21.204 17.112 19.964 17.484 18.848L21.948 23.312L24.428 20.832L22.816 16.12C23.312 15.748 23.684 15.376 23.932 15.128V15.128ZM21.948 9.17601C21.08 8.30801 21.08 6.94401 21.948 6.07601C22.816 5.20801 24.18 5.20801 25.048 6.07601C25.916 6.94401 25.916 8.30801 25.048 9.17601C24.056 10.044 22.692 10.044 21.948 9.17601ZM9.79596 23.932C5.45596 28.396 3.71996 27.404 3.71996 27.404C3.71996 27.404 2.72796 25.668 7.06796 21.204C7.56396 20.708 8.92796 19.344 9.54796 18.6L8.18396 17.236L6.32396 19.096C-0.248041 25.668 1.48796 29.512 1.48796 29.512C1.48796 29.512 5.20796 31.248 11.78 24.676L13.64 22.816L12.276 21.452L9.79596 23.932V23.932Z" fill="white"/>
</svg>
