<svg width="243" height="85" viewBox="0 0 243 85" fill="none" xmlns="http://www.w3.org/2000/svg">
<g clip-path="url(#clip0_134_88)">
<path d="M1.11921 65.1121C1.02156 65.3598 0.923906 65.5999 0.841279 65.8626C0.0488124 68.2549 -0.168291 70.8 0.207568 73.2918C0.583427 75.7835 1.54167 78.1517 3.00462 80.2044L4.50694 82.2982L19.7179 44.6314L12.9575 35.7456L1.11921 65.1121Z" fill="#D21438"/>
<path d="M69.9029 18.0642H49.4939L47.5108 20.1731H6.26465L13.0702 29.1489H17.8776L16.2175 33.2991L24.3451 44.0085L9.55473 80.5046L28.2586 73.9004L37.6481 50.6878H56.7125L61.4148 39.0928H38.8499L33.1261 31.5054H64.4645L69.9029 18.0642Z" fill="#D21438"/>
<path d="M101.286 45.532L111.389 20.4733C111.676 19.7628 112.169 19.1542 112.805 18.7262C113.441 18.2982 114.19 18.0702 114.957 18.0718H125.511L107.881 61.6825L98.5519 59.0258H65.1254C64.4944 59.0261 63.8731 58.8717 63.3159 58.576C62.7586 58.2804 62.2826 57.8526 61.9296 57.3301C61.5765 56.8077 61.3573 56.2067 61.2911 55.5798C61.2248 54.9529 61.3137 54.3194 61.5498 53.7349L76.0472 18.0718H83.6865C84.3168 18.0727 84.9372 18.228 85.4935 18.5242C86.0497 18.8203 86.5247 19.2483 86.8769 19.7705C87.2291 20.2928 87.4477 20.8934 87.5135 21.5196C87.5793 22.1459 87.4904 22.7788 87.2545 23.3627L78.7063 44.2037C78.6468 44.3519 78.6249 44.5126 78.6426 44.6713C78.6604 44.8301 78.7171 44.982 78.8078 45.1135C78.8986 45.245 79.0205 45.3521 79.1626 45.4251C79.3048 45.4981 79.4629 45.5349 79.6227 45.532H101.309H101.286Z" fill="#D21438"/>
<path d="M167.899 57.7876L159.246 50.6955H167.644C168.412 50.6959 169.163 50.4667 169.8 50.0375C170.438 49.6082 170.932 48.9984 171.219 48.2864L180.428 25.4641C180.657 24.8821 180.739 24.2533 180.67 23.6322C180.6 23.011 180.38 22.4161 180.029 21.8989C179.678 21.3817 179.205 20.9577 178.653 20.6636C178.101 20.3694 177.486 20.214 176.86 20.2107H154.123L152.05 18.1094H131.641L114.003 61.6826H125.669C126.436 61.6842 127.185 61.4573 127.822 61.0308C128.459 60.6043 128.954 59.9977 129.244 59.2885L140.467 31.5206H163.084C163.273 31.5206 163.459 31.5669 163.626 31.6553C163.793 31.7438 163.935 31.8717 164.041 32.0279C164.147 32.1841 164.213 32.3639 164.234 32.5515C164.254 32.739 164.228 32.9288 164.158 33.1041L161.732 39.108H143.524L140.339 46.9731C139.999 47.844 139.947 48.8011 140.192 49.7035C140.437 50.6059 140.965 51.4061 141.699 51.9863L172.015 76.257C175.163 69.9679 173.585 62.0428 167.907 57.8026" fill="#D21438"/>
<path d="M221.307 39.0929H194.227L199.711 25.4491C199.939 24.8664 200.022 24.237 199.952 23.6152C199.882 22.9935 199.661 22.3981 199.309 21.8807C198.957 21.3633 198.484 20.9395 197.931 20.6459C197.378 20.3523 196.761 20.1977 196.135 20.1957H188.684L178.483 45.4045C178.255 45.9865 178.172 46.6153 178.242 47.2364C178.311 47.8576 178.531 48.4525 178.883 48.9697C179.234 49.4869 179.706 49.9109 180.258 50.205C180.81 50.4991 181.425 50.6546 182.051 50.6579H195.639L186.558 73.0974L197.72 82.2533L210.49 50.6579H227.226C227.993 50.6578 228.743 50.4284 229.379 49.9991C230.015 49.5697 230.507 48.9602 230.794 48.2488L243 18.0718H232.409C231.642 18.0728 230.892 18.3016 230.255 18.7292C229.619 19.1568 229.124 19.7639 228.833 20.4733L221.307 39.0929Z" fill="#D21438"/>
<path d="M201.01 84.9999C207.59 83.2963 211.346 82.5534 213.885 76.2568L222.599 54.7854H213.239L201.01 84.9999Z" fill="#D21438"/>
<path d="M216.431 83.6416V80.1069H215.087V79.4915H218.482V80.1069H217.123V83.6416H216.431ZM218.94 83.6416V79.4915H219.962L221.014 82.8086L222.028 79.4915H223.027V83.6416H222.396V80.1594L221.322 83.6416H220.698L219.579 80.1069V83.6416H218.94Z" fill="white"/>
<path d="M9.67484 5.5237L13.6785 11.1974H11.5227C8.08238 6.10157 8.14998 6.34923 8.14998 6.34923V11.1974H6.28711V0.187744H8.14998V4.86327L11.41 0.187744H13.5959L9.67484 5.5237Z" fill="white"/>
<path d="M24.4051 0.187744H22.5422V11.1974H24.4051V0.187744Z" fill="white"/>
<path d="M41.8245 11.1974H39.4809L35.9204 2.49173C35.973 3.30226 36.003 4.94582 36.003 5.77886V11.1974H34.2078V0.187744H36.5439L40.1119 8.89338C40.1119 8.01531 40.0217 6.46931 40.0217 5.77886V0.187744H41.8245V11.1974Z" fill="white"/>
<path d="M51.3643 7.43731V3.94755C51.3643 1.10321 52.5811 0 55.2327 0C57.8843 0 58.9885 1.05068 58.9885 3.51978H57.1257C57.1257 2.1689 56.5698 1.59103 55.2327 1.59103C53.8957 1.59103 53.2271 2.11637 53.2271 3.75993V7.62493C53.2271 9.31353 53.8731 9.78633 55.3154 9.78633C56.7576 9.78633 57.2984 9.31353 57.2984 7.85758V6.35661H55.3003V4.85564H59.1613V11.2123H58.2299L57.9219 10.3492C57.5824 10.7162 57.164 11.0015 56.6982 11.1835C56.2324 11.3655 55.7313 11.4395 55.2327 11.3999C52.5511 11.3999 51.3643 10.2967 51.3643 7.45232" fill="white"/>
<path d="M74.1319 3.18206C74.1319 2.03382 73.6061 1.59103 72.269 1.59103C70.9319 1.59103 70.3686 2.03382 70.3686 3.092C70.3686 4.15019 70.7366 4.65301 72.6221 4.92319C75.4765 5.32845 76.2201 6.1765 76.2201 8.05271C76.2201 10.4618 74.8455 11.3774 72.254 11.3774C69.6625 11.3774 68.3555 10.5068 68.3555 8.06022H70.2334C70.2334 9.32854 70.8268 9.78633 72.269 9.78633C73.7112 9.78633 74.3647 9.32854 74.3647 8.06022C74.3647 7.00954 73.9892 6.60427 71.9235 6.28157C69.5723 5.92884 68.5057 5.0958 68.5057 3.0845C68.5057 1.07319 69.67 0 72.254 0C74.838 0 76.0098 0.863058 76.0098 3.18206H74.1319Z" fill="white"/>
<path d="M87.3748 1.77877H84.7607V0.187744H91.8517V1.77877H89.2377V11.1974H87.3748V1.77877Z" fill="white"/>
<path d="M108.325 7.55744C108.325 10.2967 107.123 11.3849 104.396 11.3849C101.669 11.3849 100.46 10.2967 100.46 7.55744V3.80502C100.46 1.05824 101.662 -0.0224609 104.396 -0.0224609C107.13 -0.0224609 108.325 1.05824 108.325 3.80502V7.55744ZM102.315 7.55744C102.315 9.25354 102.991 9.8089 104.389 9.8089C105.786 9.8089 106.454 9.28356 106.454 7.55744V3.80502C106.454 2.10892 105.778 1.55356 104.389 1.55356C102.999 1.55356 102.315 2.0789 102.315 3.80502V7.55744Z" fill="white"/>
<path d="M125.481 11.1974H123.145L119.584 2.49173C119.637 3.30226 119.667 4.94582 119.667 5.77886V11.1974H117.872V0.187744H120.185L123.746 8.89338C123.746 8.01531 123.663 6.46931 123.663 5.77886V0.187744H125.459L125.481 11.1974Z" fill="white"/>
</g>
<defs>
<clipPath id="clip0_134_88">
<rect width="243" height="85" fill="white"/>
</clipPath>
</defs>
</svg>
