<svg width="140" height="49" viewBox="0 0 140 49" fill="none" xmlns="http://www.w3.org/2000/svg">
<g clip-path="url(#clip0_40_133)">
<path d="M0.644852 37.5354C0.588592 37.6781 0.532333 37.8166 0.484728 37.968C0.0281635 39.3471 -0.0969166 40.8143 0.119628 42.2507C0.336172 43.6871 0.888246 45.0523 1.7311 46.2356L2.59663 47.4427L11.3602 25.7288L7.46525 20.6064L0.644852 37.5354Z" fill="#D21438"/>
<path d="M40.2734 10.4136H28.5151L27.3726 11.6293H3.60938L7.53024 16.8036H10.2999L9.34353 19.196L14.0261 25.3697L5.50489 46.4086L16.2808 42.6015L21.6904 29.2201H32.674L35.3831 22.536H22.3828L19.0851 18.162H37.1401L40.2734 10.4136Z" fill="#D21438"/>
<path d="M58.3543 26.2478L64.175 11.8022C64.3401 11.3925 64.6242 11.0417 64.9905 10.795C65.3569 10.5482 65.7888 10.4168 66.2306 10.4177H72.311L62.154 35.558L56.779 34.0265H37.5209C37.1574 34.0267 36.7994 33.9377 36.4784 33.7672C36.1573 33.5968 35.8831 33.3502 35.6797 33.049C35.4763 32.7479 35.35 32.4014 35.3118 32.04C35.2737 31.6786 35.3249 31.3134 35.4609 30.9764L43.8133 10.4177H48.2145C48.5777 10.4182 48.9351 10.5078 49.2556 10.6785C49.5761 10.8492 49.8497 11.0959 50.0526 11.397C50.2555 11.6981 50.3815 12.0443 50.4194 12.4053C50.4573 12.7663 50.4061 13.1312 50.2702 13.4678L45.3453 25.482C45.311 25.5675 45.2984 25.6601 45.3086 25.7516C45.3188 25.8431 45.3515 25.9307 45.4038 26.0065C45.4561 26.0823 45.5263 26.144 45.6082 26.1861C45.6901 26.2282 45.7812 26.2494 45.8733 26.2478H58.3672H58.3543Z" fill="#D21438"/>
<path d="M96.7319 33.3128L91.7464 29.2244H96.5848C97.0275 29.2246 97.4602 29.0925 97.8273 28.8451C98.1944 28.5976 98.479 28.2461 98.6447 27.8356L103.95 14.6793C104.082 14.3437 104.13 13.9813 104.089 13.6232C104.049 13.2651 103.923 12.9222 103.72 12.624C103.518 12.3258 103.246 12.0814 102.928 11.9119C102.61 11.7423 102.255 11.6527 101.895 11.6508H88.795L87.6005 10.4395H75.8423L65.6809 35.5581H72.4018C72.8435 35.5591 73.2755 35.4282 73.6425 35.1824C74.0094 34.9365 74.2947 34.5868 74.4617 34.178L80.9273 18.1706H93.9579C94.0667 18.1706 94.1738 18.1973 94.27 18.2483C94.3661 18.2993 94.4483 18.373 94.5093 18.4631C94.5704 18.5531 94.6084 18.6567 94.6202 18.7649C94.6319 18.873 94.617 18.9824 94.5767 19.0835L93.1789 22.5445H82.6886L80.8537 27.0785C80.6577 27.5806 80.628 28.1323 80.769 28.6526C80.91 29.1728 81.2142 29.634 81.637 29.9685L99.1035 43.9599C100.917 40.3344 100.008 35.7658 96.7362 33.3214" fill="#D21438"/>
<path d="M127.502 22.5358H111.901L115.06 14.6705C115.191 14.3346 115.239 13.9718 115.199 13.6134C115.158 13.2549 115.031 12.9117 114.828 12.6135C114.625 12.3152 114.353 12.0709 114.034 11.9016C113.716 11.7324 113.361 11.6433 113 11.6421H108.707L102.83 26.1742C102.698 26.5097 102.651 26.8722 102.691 27.2303C102.731 27.5884 102.858 27.9313 103.06 28.2295C103.262 28.5276 103.534 28.772 103.852 28.9416C104.17 29.1112 104.525 29.2007 104.885 29.2026H112.714L107.482 42.1384L113.913 47.4165L121.27 29.2026H130.912C131.354 29.2026 131.786 29.0703 132.152 28.8229C132.519 28.5754 132.803 28.224 132.968 27.8139L140 10.4177H133.898C133.456 10.4183 133.024 10.5502 132.657 10.7967C132.291 11.0432 132.005 11.3932 131.838 11.8022L127.502 22.5358Z" fill="#D21438"/>
<path d="M115.808 49.0001C119.599 48.018 121.763 47.5897 123.226 43.9599L128.246 31.5823H122.854L115.808 49.0001Z" fill="#D21438"/>
<path d="M124.693 48.2169V46.1792H123.918V45.8245H125.875V46.1792H125.091V48.2169H124.693ZM126.139 48.2169V45.8245H126.727L127.333 47.7367L127.917 45.8245H128.493V48.2169H128.129V46.2095L127.51 48.2169H127.151L126.506 46.1792V48.2169H126.139Z" fill="white"/>
<path d="M5.57409 3.18417L7.88074 6.45488H6.6387C4.65663 3.5173 4.69558 3.66007 4.69558 3.66007V6.45488H3.62231V0.108154H4.69558V2.80346L6.57378 0.108154H7.83313L5.57409 3.18417Z" fill="white"/>
<path d="M14.0606 0.108154H12.9873V6.45488H14.0606V0.108154Z" fill="white"/>
<path d="M24.0965 6.45488H22.7463L20.695 1.43634C20.7253 1.90358 20.7426 2.85105 20.7426 3.33127V6.45488H19.7083V0.108154H21.0542L23.1098 5.1267C23.1098 4.62051 23.0579 3.72929 23.0579 3.33127V0.108154H24.0965V6.45488Z" fill="white"/>
<path d="M29.5925 4.28739V2.27565C29.5925 0.63597 30.2936 0 31.8213 0C33.3489 0 33.9851 0.605686 33.9851 2.02905H32.9119C32.9119 1.25031 32.5916 0.917182 31.8213 0.917182C31.051 0.917182 30.6658 1.22002 30.6658 2.16749V4.39555C30.6658 5.36897 31.038 5.64153 31.8689 5.64153C32.6998 5.64153 33.0114 5.36897 33.0114 4.52967V3.6644H31.8602V2.79913H34.0846V6.46353H33.548L33.3706 5.96601C33.175 6.17758 32.934 6.34202 32.6656 6.44693C32.3972 6.55185 32.1085 6.59451 31.8213 6.57169C30.2763 6.57169 29.5925 5.93572 29.5925 4.29604" fill="white"/>
<path d="M42.7098 1.83436C42.7098 1.17244 42.4069 0.917182 41.6365 0.917182C40.8662 0.917182 40.5417 1.17244 40.5417 1.78245C40.5417 2.39246 40.7537 2.68232 41.84 2.83807C43.4845 3.07169 43.9129 3.56057 43.9129 4.64215C43.9129 6.0309 43.1209 6.55872 41.6279 6.55872C40.1349 6.55872 39.3818 6.05686 39.3818 4.64648H40.4638C40.4638 5.37763 40.8056 5.64153 41.6365 5.64153C42.4675 5.64153 42.844 5.37763 42.844 4.64648C42.844 4.04079 42.6276 3.80717 41.4375 3.62114C40.0829 3.4178 39.4684 2.93758 39.4684 1.77812C39.4684 0.618665 40.1392 0 41.6279 0C43.1166 0 43.7917 0.497528 43.7917 1.83436H42.7098Z" fill="white"/>
<path d="M50.3395 1.02534H48.8335V0.108154H52.9188V1.02534H51.4128V6.45488H50.3395V1.02534Z" fill="white"/>
<path d="M62.4093 4.35665C62.4093 5.93576 61.7168 6.56308 60.1459 6.56308C58.5749 6.56308 57.8782 5.93576 57.8782 4.35665V2.19349C57.8782 0.610052 58.5706 -0.0129395 60.1459 -0.0129395C61.7212 -0.0129395 62.4093 0.610052 62.4093 2.19349V4.35665ZM58.9471 4.35665C58.9471 5.3344 59.3366 5.65455 60.1415 5.65455C60.9465 5.65455 61.3317 5.35171 61.3317 4.35665V2.19349C61.3317 1.21574 60.9422 0.89559 60.1415 0.89559C59.3409 0.89559 58.9471 1.19843 58.9471 2.19349V4.35665Z" fill="white"/>
<path d="M72.2936 6.45488H70.9477L68.8964 1.43634C68.9267 1.90358 68.944 2.85105 68.944 3.33127V6.45488H67.9097V0.108154H69.2426L71.2939 5.1267C71.2939 4.62051 71.2463 3.72929 71.2463 3.33127V0.108154H72.2806L72.2936 6.45488Z" fill="white"/>
</g>
<defs>
<clipPath id="clip0_40_133">
<rect width="140" height="49" fill="white"/>
</clipPath>
</defs>
</svg>
