<svg width="133" height="47" viewBox="0 0 133 47" fill="none" xmlns="http://www.w3.org/2000/svg">
<path d="M0.597066 35.6703C0.54362 35.8059 0.490173 35.9374 0.44495 36.0813C0.0112157 37.3914 -0.10761 38.7852 0.0981061 40.1498C0.303822 41.5144 0.828289 42.8113 1.62899 43.9355L2.45124 45.0821L10.7765 24.4541L7.07641 19.5879L0.597066 35.6703Z" fill="white"/>
<path d="M38.2439 9.90527H27.0736L25.9882 11.0602H3.41333L7.13813 15.9757H9.76933L8.86075 18.2485L13.3091 24.1135L5.21406 44.1004L15.4511 40.4836L20.5902 27.7714H31.0245L33.5982 21.4215H21.248L18.1152 17.2663H35.2674L38.2439 9.90527Z" fill="white"/>
<path d="M55.4206 24.9476L60.9503 11.2244C61.1071 10.8352 61.377 10.502 61.7251 10.2676C62.0731 10.0332 62.4834 9.90833 62.9031 9.90918H68.6794L59.0303 33.7923L53.9241 32.3374H35.629C35.2837 32.3376 34.9436 32.253 34.6387 32.0911C34.3337 31.9292 34.0731 31.6949 33.8799 31.4088C33.6867 31.1227 33.5667 30.7935 33.5304 30.4502C33.4942 30.1069 33.5428 29.76 33.6721 29.4398L41.6068 9.90918H45.788C46.1329 9.90966 46.4725 9.99473 46.7769 10.1569C47.0814 10.3191 47.3414 10.5535 47.5341 10.8395C47.7269 11.1255 47.8465 11.4544 47.8826 11.7974C47.9186 12.1404 47.8699 12.4869 47.7408 12.8067L43.0622 24.2202C43.0296 24.3013 43.0177 24.3893 43.0273 24.4763C43.037 24.5632 43.0681 24.6464 43.1178 24.7184C43.1674 24.7904 43.2341 24.849 43.312 24.889C43.3898 24.929 43.4763 24.9492 43.5638 24.9476H55.433H55.4206Z" fill="white"/>
<path d="M91.8794 31.6592L87.1432 27.7753H91.7396C92.1602 27.7755 92.5713 27.65 92.92 27.4149C93.2687 27.1798 93.5391 26.8459 93.6966 26.4559L98.7369 13.9575C98.8618 13.6387 98.9071 13.2944 98.869 12.9542C98.8309 12.614 98.7105 12.2882 98.5182 12.005C98.326 11.7217 98.0676 11.4896 97.7655 11.3285C97.4633 11.1674 97.1265 11.0823 96.7841 11.0805H84.3393L83.2046 9.92969H72.0343L62.3811 33.7923H68.7659C69.1855 33.7932 69.5959 33.6689 69.9445 33.4353C70.2932 33.2018 70.5641 32.8696 70.7228 32.4812L76.8651 17.2742H89.2441C89.3474 17.2743 89.4492 17.2996 89.5405 17.3481C89.6318 17.3965 89.7099 17.4665 89.7679 17.5521C89.8259 17.6376 89.8621 17.7361 89.8732 17.8388C89.8844 17.9415 89.8702 18.0454 89.832 18.1414L88.504 21.4294H78.5383L76.7952 25.7367C76.6089 26.2137 76.5807 26.7378 76.7147 27.232C76.8486 27.7262 77.1377 28.1644 77.5393 28.4822L94.1323 41.7739C95.855 38.3297 94.9916 33.9895 91.8835 31.6674" fill="white"/>
<path d="M121.11 21.4213H106.289L109.29 13.9493C109.415 13.6302 109.461 13.2855 109.422 12.945C109.384 12.6045 109.263 12.2785 109.07 11.9951C108.878 11.7118 108.619 11.4797 108.316 11.3189C108.014 11.1581 107.676 11.0734 107.333 11.0723H103.255L97.672 24.8778C97.5472 25.1965 97.5018 25.5408 97.54 25.881C97.5781 26.2212 97.6985 26.547 97.8907 26.8302C98.083 27.1135 98.3413 27.3457 98.6435 27.5067C98.9456 27.6678 99.2824 27.7529 99.6248 27.7547H107.062L102.092 40.0436L108.201 45.0578L115.19 27.7547H124.35C124.77 27.7547 125.18 27.6291 125.528 27.3939C125.876 27.1588 126.146 26.825 126.303 26.4354L132.984 9.90918H127.187C126.767 9.90971 126.357 10.035 126.008 10.2692C125.66 10.5034 125.389 10.8359 125.23 11.2244L121.11 21.4213Z" fill="white"/>
<path d="M110.002 46.5624C113.603 45.6295 115.659 45.2226 117.048 41.7743L121.817 30.0156H116.695L110.002 46.5624Z" fill="white"/>
<path d="M118.442 45.8177V43.8819H117.706V43.5449H119.565V43.8819H118.82V45.8177H118.442ZM119.815 45.8177V43.5449H120.375L120.95 45.3615L121.505 43.5449H122.052V45.8177H121.707V43.9107L121.119 45.8177H120.777L120.165 43.8819V45.8177H119.815Z" fill="white"/>
<path d="M5.27971 3.03743L7.47101 6.14458H6.29108C4.40813 3.3539 4.44513 3.48953 4.44513 3.48953V6.14458H3.42554V0.115234H4.44513V2.67576L6.22941 0.115234H7.42579L5.27971 3.03743Z" fill="white"/>
<path d="M13.3419 0.115234H12.3223V6.14458H13.3419V0.115234Z" fill="white"/>
<path d="M22.8761 6.14458H21.5934L19.6446 1.377C19.6734 1.82088 19.6899 2.72097 19.6899 3.17717V6.14458H18.7073V0.115234H19.9859L21.9387 4.88282C21.9387 4.40195 21.8894 3.55529 21.8894 3.17717V0.115234H22.8761V6.14458Z" fill="white"/>
<path d="M28.0972 4.08472V2.17357C28.0972 0.615887 28.7632 0.0117188 30.2145 0.0117188C31.6657 0.0117188 32.2701 0.587117 32.2701 1.9393H31.2505C31.2505 1.1995 30.9463 0.883036 30.2145 0.883036C29.4827 0.883036 29.1168 1.17074 29.1168 2.07082V4.18746C29.1168 5.11221 29.4703 5.37114 30.2597 5.37114C31.0491 5.37114 31.3451 5.11221 31.3451 4.31487V3.49288H30.2515V2.67088H32.3647V6.15204H31.8549L31.6863 5.67939C31.5005 5.88038 31.2715 6.0366 31.0166 6.13627C30.7616 6.23594 30.4874 6.27646 30.2145 6.25479C28.7467 6.25479 28.0972 5.65062 28.0972 4.09294" fill="white"/>
<path d="M40.5585 1.75435C40.5585 1.12553 40.2707 0.883036 39.5389 0.883036C38.8071 0.883036 38.4988 1.12553 38.4988 1.70503C38.4988 2.28454 38.7002 2.55991 39.7322 2.70787C41.2944 2.92981 41.7015 3.39424 41.7015 4.42173C41.7015 5.74104 40.9491 6.24246 39.5307 6.24246C38.1123 6.24246 37.397 5.7657 37.397 4.42585H38.4248C38.4248 5.12043 38.7496 5.37114 39.5389 5.37114C40.3283 5.37114 40.686 5.12043 40.686 4.42585C40.686 3.85045 40.4804 3.62851 39.3498 3.45178C38.063 3.25861 37.4792 2.8024 37.4792 1.70092C37.4792 0.599447 38.1164 0.0117188 39.5307 0.0117188C40.945 0.0117188 41.5863 0.484367 41.5863 1.75435H40.5585Z" fill="white"/>
<path d="M47.8067 0.986551H46.376V0.115234H50.257V0.986551H48.8263V6.14458H47.8067V0.986551Z" fill="white"/>
<path d="M59.273 4.15109C59.273 5.65123 58.6152 6.24718 57.1228 6.24718C55.6304 6.24718 54.9685 5.65123 54.9685 4.15109V2.09609C54.9685 0.591838 55.6263 0 57.1228 0C58.6193 0 59.273 0.591838 59.273 2.09609V4.15109ZM55.984 4.15109C55.984 5.07994 56.354 5.38408 57.1187 5.38408C57.8834 5.38408 58.2493 5.09638 58.2493 4.15109V2.09609C58.2493 1.16724 57.8793 0.863097 57.1187 0.863097C56.3581 0.863097 55.984 1.1508 55.984 2.09609V4.15109Z" fill="white"/>
<path d="M68.663 6.14458H67.3844L65.4357 1.377C65.4644 1.82088 65.4809 2.72097 65.4809 3.17717V6.14458H64.4983V0.115234H65.7646L67.7133 4.88282C67.7133 4.40195 67.6681 3.55529 67.6681 3.17717V0.115234H68.6507L68.663 6.14458Z" fill="white"/>
</svg>
