<svg width="32" height="32" viewBox="0 0 26 26" fill="none" xmlns="http://www.w3.org/2000/svg">
<path d="M20.9028 14.2367C20.3984 18.4019 17.424 18.6619 16.8728 18.8439C16.6388 18.9219 14.4704 19.4731 11.7404 19.2911L8.78679 22.5671L8.78159 18.7919L8.76079 18.7867C4.78799 17.6583 4.92319 13.4203 4.96479 11.1999C5.01159 8.97955 5.41719 7.15435 6.62879 5.93235C8.80239 3.91475 13.29 4.21635 13.29 4.21635C17.0756 4.23195 18.8904 5.40195 19.3116 5.79195C20.7104 7.01395 21.4228 9.94675 20.9028 14.2367ZM20.3464 4.75195C19.8472 4.28395 17.84 2.79155 13.3628 2.77075C13.3628 2.77075 8.08479 2.44315 5.51079 4.86115C4.08079 6.32755 3.57639 8.47515 3.51919 11.1375C3.46719 13.7999 3.39959 18.7867 8.09519 20.1387H8.10039V22.2031C8.10039 22.2031 8.06919 23.0403 8.60999 23.2067C9.25999 23.4147 9.63959 22.7803 10.2636 22.0939C10.6068 21.7195 11.0748 21.1683 11.4284 20.7471C14.642 21.0227 17.112 20.3883 17.3876 20.2999C18.0376 20.0815 21.7036 19.6031 22.3016 14.6164C22.91 9.46835 21.9948 6.21835 20.3464 4.75195Z" fill="#ffffff"/>
<path d="M17.4802 14.8609C17.4802 14.8609 16.877 14.3461 16.5858 14.1277C16.3102 13.9197 15.8682 13.6389 15.6238 13.4985C15.1818 13.2489 14.7294 13.4049 14.5422 13.6545L14.1522 14.1537C13.9546 14.4085 13.6478 14.3617 13.5698 14.3461C12.9978 14.2005 12.3894 13.8469 11.7654 13.2437C11.1362 12.6353 10.7514 12.0009 10.6162 11.3405L10.6058 11.2989C10.5694 11.0285 10.6162 10.9037 10.7254 10.7165L10.7462 10.7009C11.0062 10.4565 11.495 10.1601 11.5574 9.87933C11.7498 9.39053 10.9178 8.36613 10.8034 8.18933C10.8034 8.18933 10.2002 7.39373 9.98702 7.23773C9.75822 7.04533 9.39942 6.93613 9.03542 7.15973L9.01462 7.17533C7.97462 7.87733 7.60022 8.28293 7.70422 8.88093L7.75622 9.12533C8.28142 10.7841 9.30062 12.5521 10.8138 14.1277C12.3114 15.6825 13.9338 16.6133 15.5302 17.2581C15.9462 17.3985 16.3778 17.2789 16.8198 16.8993L16.825 16.8941C17.163 16.5769 17.4334 16.2389 17.631 15.8749V15.8697C17.8338 15.4693 17.7662 15.1053 17.4802 14.8609Z" fill="#ffffff"/>
<path d="M14.9956 11.2261C14.9332 11.2261 14.8812 11.1741 14.876 11.1117C14.8552 10.6801 14.7408 10.3525 14.5328 10.1341C14.3248 9.91575 14.018 9.79615 13.6124 9.77015C13.5448 9.76495 13.498 9.70775 13.498 9.64015C13.5032 9.57255 13.5552 9.52055 13.6228 9.52575C14.0908 9.55175 14.4496 9.69735 14.6992 9.96255C14.9488 10.2277 15.0892 10.6073 15.11 11.1013C15.1152 11.1689 15.0632 11.2261 14.9956 11.2313" fill="#ffffff"/>
<path d="M16.1752 11.6317C16.1076 11.6317 16.0556 11.5745 16.0556 11.5069C16.0764 10.6801 15.832 9.98328 15.338 9.43208C15.0936 9.15648 14.792 8.93808 14.4488 8.78728C14.1056 8.63128 13.7 8.53768 13.258 8.50648C13.1904 8.50128 13.1436 8.44408 13.1488 8.37648C13.154 8.30888 13.2112 8.25688 13.2788 8.26208C14.2304 8.33488 14.9844 8.67288 15.52 9.27088C16.0556 9.86888 16.3208 10.6281 16.3 11.5173C16.2948 11.5797 16.2428 11.6317 16.1752 11.6317Z" fill="#ffffff"/>
<path d="M17.3877 12.1195C17.3201 12.1195 17.2681 12.0675 17.2681 11.9999C17.2629 11.2719 17.1537 10.6115 16.9405 10.0395C16.7273 9.47266 16.4101 8.97346 15.9941 8.55226C15.5781 8.13626 15.0997 7.81906 14.5849 7.60586C14.0649 7.39266 13.4877 7.28346 12.8637 7.28346C12.7961 7.28346 12.7441 7.22626 12.7441 7.15866C12.7441 7.09106 12.7961 7.03906 12.8637 7.03906C14.1741 7.04946 15.2817 7.49666 16.1605 8.37546C16.6025 8.81746 16.9405 9.34786 17.1641 9.95106C17.3877 10.5491 17.5021 11.2407 17.5073 11.9999C17.5073 12.0623 17.4553 12.1143 17.3877 12.1195Z" fill="#ffffff"/>
</svg>
