<svg width="177" height="42" viewBox="0 0 177 42" fill="none" xmlns="http://www.w3.org/2000/svg">
<path d="M2.84883 25.4668H0L6.40119 7.67898H9.5019L15.9031 25.4668H13.0543L8.02537 10.91H7.8864L2.84883 25.4668ZM3.32653 18.5011H12.5679V20.7593H3.32653V18.5011Z" fill="white"/>
<path d="M18.4718 25.4668V7.67898H21.1556V23.1565H29.2157V25.4668H18.4718Z" fill="white"/>
<path d="M32.2774 25.4668V7.67898H38.6177C40.0016 7.67898 41.1481 7.93086 42.0572 8.43462C42.9663 8.93838 43.6466 9.62742 44.0983 10.5018C44.5499 11.3703 44.7757 12.3489 44.7757 13.4374C44.7757 14.5318 44.547 15.5162 44.0896 16.3905C43.6379 17.2591 42.9547 17.9481 42.0398 18.4576C41.1307 18.9614 39.9872 19.2133 38.6091 19.2133H34.249V16.9377H38.3659C39.2402 16.9377 39.9495 16.7871 40.4938 16.486C41.0381 16.1792 41.4376 15.7623 41.6924 15.2353C41.9472 14.7084 42.0746 14.1091 42.0746 13.4374C42.0746 12.7658 41.9472 12.1694 41.6924 11.6482C41.4376 11.1271 41.0352 10.7189 40.4851 10.4236C39.9408 10.1283 39.2228 9.98063 38.3311 9.98063H34.9612V25.4668H32.2774Z" fill="white"/>
<path d="M47.922 25.4668V7.67898H50.6059V15.409H59.4737V7.67898H62.1662V25.4668H59.4737V17.7107H50.6059V25.4668H47.922Z" fill="white"/>
<path d="M67.5773 25.4668H64.7284L71.1296 7.67898H74.2303L80.6315 25.4668H77.7827L72.7538 10.91H72.6148L67.5773 25.4668ZM68.055 18.5011H77.2963V20.7593H68.055V18.5011Z" fill="white"/>
<path d="M89.6731 25.4668V7.67898H100.825V9.98932H92.3569V15.409H100.243V17.7107H92.3569V23.1565H100.929V25.4668H89.6731Z" fill="white"/>
<path d="M114.112 12.3518C114.019 11.5295 113.637 10.8926 112.965 10.441C112.294 9.98353 111.448 9.75481 110.429 9.75481C109.7 9.75481 109.068 9.87062 108.536 10.1022C108.003 10.3281 107.589 10.6407 107.294 11.0403C107.004 11.434 106.859 11.8827 106.859 12.3865C106.859 12.8092 106.958 13.174 107.155 13.4809C107.357 13.7878 107.621 14.0454 107.945 14.2539C108.275 14.4565 108.628 14.6274 109.005 14.7663C109.381 14.8995 109.743 15.0095 110.09 15.0964L111.828 15.548C112.395 15.687 112.977 15.8752 113.573 16.1126C114.17 16.35 114.723 16.6627 115.232 17.0506C115.742 17.4386 116.153 17.9191 116.466 18.4924C116.784 19.0656 116.943 19.7518 116.943 20.5508C116.943 21.5584 116.683 22.453 116.162 23.2347C115.646 24.0163 114.896 24.633 113.912 25.0847C112.933 25.5363 111.749 25.7621 110.36 25.7621C109.028 25.7621 107.876 25.5508 106.903 25.1281C105.93 24.7054 105.169 24.1061 104.619 23.3302C104.069 22.5485 103.765 21.6221 103.707 20.5508H106.399C106.451 21.1936 106.66 21.7292 107.024 22.1577C107.395 22.5803 107.867 22.8959 108.44 23.1044C109.019 23.307 109.653 23.4084 110.342 23.4084C111.101 23.4084 111.775 23.2897 112.366 23.0523C112.962 22.8091 113.431 22.4732 113.773 22.0447C114.115 21.6105 114.286 21.1038 114.286 20.5248C114.286 19.9979 114.135 19.5665 113.834 19.2307C113.539 18.8948 113.136 18.6169 112.627 18.3968C112.123 18.1768 111.552 17.9828 110.916 17.8149L108.814 17.2417C107.389 16.8537 106.26 16.2834 105.426 15.5306C104.598 14.7779 104.184 13.782 104.184 12.5428C104.184 11.518 104.462 10.6234 105.018 9.85904C105.574 9.09471 106.327 8.50121 107.276 8.07852C108.226 7.65003 109.297 7.43579 110.49 7.43579C111.694 7.43579 112.757 7.64714 113.678 8.06983C114.604 8.49252 115.334 9.07445 115.866 9.81561C116.399 10.551 116.677 11.3964 116.7 12.3518H114.112Z" fill="white"/>
<path d="M119.273 9.98932V7.67898H133.04V9.98932H127.49V25.4668H124.814V9.98932H119.273Z" fill="white"/>
<path d="M135.482 25.4668H132.634L139.035 7.67898H142.135L148.537 25.4668H145.688L140.659 10.91H140.52L135.482 25.4668ZM135.96 18.5011H145.201V20.7593H135.96V18.5011Z" fill="white"/>
<path d="M148.126 9.98932V7.67898H161.893V9.98932H156.343V25.4668H153.668V9.98932H148.126Z" fill="white"/>
<path d="M164.935 25.4668V7.67898H176.087V9.98932H167.619V15.409H175.505V17.7107H167.619V23.1565H176.191V25.4668H164.935Z" fill="white"/>
<path d="M54.4976 36.057H52.6334V30.5556H54.5352C55.0814 30.5556 55.5506 30.6657 55.9428 30.886C56.3368 31.1045 56.6394 31.4188 56.8507 31.8289C57.0621 32.239 57.1677 32.7297 57.1677 33.3009C57.1677 33.874 57.0612 34.3665 56.8481 34.7784C56.6367 35.1902 56.3314 35.5063 55.9321 35.7266C55.5345 35.9469 55.0564 36.057 54.4976 36.057ZM53.63 35.1947H54.4493C54.8325 35.1947 55.1522 35.1249 55.4082 34.9852C55.6643 34.8437 55.8568 34.6333 55.9858 34.3539C56.1147 34.0728 56.1792 33.7218 56.1792 33.3009C56.1792 32.8801 56.1147 32.5309 55.9858 32.2533C55.8568 31.9739 55.6661 31.7653 55.4136 31.6274C55.1629 31.4877 54.8513 31.4179 54.4788 31.4179H53.63V35.1947Z" fill="white"/>
<path d="M60.6547 36.1376C60.241 36.1376 59.8838 36.0516 59.5829 35.8797C59.2838 35.706 59.0537 35.4607 58.8925 35.1437C58.7314 34.8249 58.6508 34.4497 58.6508 34.0182C58.6508 33.5937 58.7314 33.2212 58.8925 32.9007C59.0555 32.5783 59.283 32.3276 59.5749 32.1485C59.8668 31.9677 60.2097 31.8772 60.6037 31.8772C60.858 31.8772 61.0979 31.9184 61.3236 32.0008C61.551 32.0814 61.7516 32.2067 61.9253 32.3769C62.1008 32.547 62.2387 32.7637 62.339 33.0269C62.4393 33.2884 62.4894 33.6 62.4894 33.9617V34.2599H59.1074V33.6045H61.5573C61.5555 33.4182 61.5152 33.2526 61.4364 33.1075C61.3576 32.9607 61.2475 32.8452 61.106 32.761C60.9663 32.6768 60.8034 32.6347 60.6171 32.6347C60.4183 32.6347 60.2437 32.6831 60.0933 32.7798C59.9429 32.8747 59.8256 33.0001 59.7414 33.1559C59.659 33.3099 59.6169 33.4791 59.6151 33.6636V34.2357C59.6151 34.4757 59.659 34.6816 59.7468 34.8536C59.8345 35.0237 59.9572 35.1544 60.1148 35.2458C60.2724 35.3353 60.4568 35.3801 60.6681 35.3801C60.8096 35.3801 60.9377 35.3604 61.0523 35.321C61.1669 35.2798 61.2663 35.2198 61.3504 35.141C61.4346 35.0622 61.4982 34.9646 61.5412 34.8482L62.4491 34.9503C62.3918 35.1902 62.2826 35.3998 62.1214 35.5788C61.962 35.7561 61.7579 35.894 61.5089 35.9925C61.26 36.0892 60.9753 36.1376 60.6547 36.1376Z" fill="white"/>
<path d="M67.6358 31.931L66.1665 36.057H65.092L63.6226 31.931H64.6595L65.6077 34.9959H65.6507L66.6016 31.931H67.6358Z" fill="white"/>
<path d="M70.7514 36.1376C70.3378 36.1376 69.9805 36.0516 69.6796 35.8797C69.3806 35.706 69.1504 35.4607 68.9893 35.1437C68.8281 34.8249 68.7475 34.4497 68.7475 34.0182C68.7475 33.5937 68.8281 33.2212 68.9893 32.9007C69.1522 32.5783 69.3797 32.3276 69.6716 32.1485C69.9635 31.9677 70.3064 31.8772 70.7004 31.8772C70.9547 31.8772 71.1947 31.9184 71.4203 32.0008C71.6477 32.0814 71.8483 32.2067 72.022 32.3769C72.1975 32.547 72.3354 32.7637 72.4357 33.0269C72.536 33.2884 72.5861 33.6 72.5861 33.9617V34.2599H69.2042V33.6045H71.654C71.6522 33.4182 71.6119 33.2526 71.5331 33.1075C71.4543 32.9607 71.3442 32.8452 71.2027 32.761C71.063 32.6768 70.9001 32.6347 70.7138 32.6347C70.515 32.6347 70.3404 32.6831 70.19 32.7798C70.0396 32.8747 69.9223 33.0001 69.8381 33.1559C69.7557 33.3099 69.7137 33.4791 69.7119 33.6636V34.2357C69.7119 34.4757 69.7557 34.6816 69.8435 34.8536C69.9312 35.0237 70.0539 35.1544 70.2115 35.2458C70.3691 35.3353 70.5535 35.3801 70.7649 35.3801C70.9063 35.3801 71.0344 35.3604 71.149 35.321C71.2636 35.2798 71.363 35.2198 71.4472 35.141C71.5313 35.0622 71.5949 34.9646 71.6379 34.8482L72.5458 34.9503C72.4885 35.1902 72.3793 35.3998 72.2181 35.5788C72.0587 35.7561 71.8546 35.894 71.6057 35.9925C71.3567 36.0892 71.072 36.1376 70.7514 36.1376Z" fill="white"/>
<path d="M75.1376 30.5556V36.057H74.1652V30.5556H75.1376Z" fill="white"/>
<path d="M78.6938 36.1376C78.2909 36.1376 77.9417 36.0489 77.6462 35.8716C77.3507 35.6944 77.1215 35.4463 76.9585 35.1276C76.7973 34.8088 76.7167 34.4363 76.7167 34.0101C76.7167 33.5839 76.7973 33.2105 76.9585 32.8899C77.1215 32.5694 77.3507 32.3205 77.6462 32.1432C77.9417 31.9659 78.2909 31.8772 78.6938 31.8772C79.0967 31.8772 79.4459 31.9659 79.7414 32.1432C80.0369 32.3205 80.2652 32.5694 80.4264 32.8899C80.5894 33.2105 80.6709 33.5839 80.6709 34.0101C80.6709 34.4363 80.5894 34.8088 80.4264 35.1276C80.2652 35.4463 80.0369 35.6944 79.7414 35.8716C79.4459 36.0489 79.0967 36.1376 78.6938 36.1376ZM78.6992 35.3586C78.9176 35.3586 79.1003 35.2986 79.2472 35.1786C79.394 35.0568 79.5033 34.8939 79.5749 34.6897C79.6483 34.4856 79.685 34.2581 79.685 34.0074C79.685 33.7549 79.6483 33.5266 79.5749 33.3224C79.5033 33.1165 79.394 32.9526 79.2472 32.8308C79.1003 32.7091 78.9176 32.6482 78.6992 32.6482C78.4753 32.6482 78.2891 32.7091 78.1404 32.8308C77.9936 32.9526 77.8835 33.1165 77.81 33.3224C77.7384 33.5266 77.7026 33.7549 77.7026 34.0074C77.7026 34.2581 77.7384 34.4856 77.81 34.6897C77.8835 34.8939 77.9936 35.0568 78.1404 35.1786C78.2891 35.2986 78.4753 35.3586 78.6992 35.3586Z" fill="white"/>
<path d="M82.2526 37.6043V31.931H83.2089V32.6133H83.2654C83.3155 32.513 83.3862 32.4064 83.4776 32.2936C83.5689 32.179 83.6925 32.0814 83.8483 32.0008C84.0041 31.9184 84.2028 31.8772 84.4446 31.8772C84.7634 31.8772 85.0508 31.9587 85.3069 32.1217C85.5648 32.2828 85.7689 32.5219 85.9193 32.8389C86.0716 33.1541 86.1477 33.5409 86.1477 33.9993C86.1477 34.4524 86.0733 34.8374 85.9247 35.1544C85.7761 35.4714 85.5737 35.7132 85.3176 35.8797C85.0615 36.0463 84.7714 36.1295 84.4473 36.1295C84.2109 36.1295 84.0148 36.0901 83.859 36.0113C83.7032 35.9325 83.5779 35.8376 83.4829 35.7266C83.3898 35.6138 83.3173 35.5072 83.2654 35.4069H83.2251V37.6043H82.2526ZM83.2063 33.994C83.2063 34.2608 83.2439 34.4945 83.3191 34.6951C83.3961 34.8957 83.5062 35.0523 83.6495 35.1652C83.7945 35.2762 83.97 35.3317 84.176 35.3317C84.3909 35.3317 84.5709 35.2744 84.7159 35.1598C84.861 35.0434 84.9702 34.8849 85.0436 34.6843C85.1188 34.482 85.1564 34.2519 85.1564 33.994C85.1564 33.7379 85.1197 33.5105 85.0463 33.3117C84.9729 33.1129 84.8636 32.9571 84.7186 32.8443C84.5735 32.7314 84.3927 32.675 84.176 32.675C83.9682 32.675 83.7918 32.7297 83.6468 32.8389C83.5017 32.9481 83.3916 33.1013 83.3164 33.2982C83.243 33.4952 83.2063 33.7271 83.2063 33.994Z" fill="white"/>
<path d="M87.7368 36.057V31.931H88.6663V32.6321H88.7146C88.8006 32.3957 88.943 32.2112 89.1417 32.0787C89.3405 31.9444 89.5778 31.8772 89.8536 31.8772C90.133 31.8772 90.3685 31.9453 90.5601 32.0814C90.7535 32.2157 90.8896 32.3993 90.9684 32.6321H91.0114C91.1027 32.4028 91.2567 32.2202 91.4734 32.0841C91.6919 31.9462 91.9506 31.8772 92.2497 31.8772C92.6294 31.8772 92.9392 31.9972 93.1791 32.2372C93.4191 32.4771 93.5391 32.8273 93.5391 33.2875V36.057H92.564V33.4379C92.564 33.1818 92.4959 32.9947 92.3598 32.8765C92.2237 32.7565 92.0572 32.6965 91.8602 32.6965C91.6256 32.6965 91.442 32.77 91.3095 32.9168C91.1788 33.0619 91.1134 33.2508 91.1134 33.4836V36.057H90.1598V33.3976C90.1598 33.1845 90.0953 33.0144 89.9664 32.8872C89.8393 32.7601 89.6727 32.6965 89.4668 32.6965C89.3271 32.6965 89.1999 32.7323 89.0853 32.804C88.9707 32.8738 88.8794 32.9732 88.8113 33.1021C88.7433 33.2293 88.7093 33.3779 88.7093 33.5481V36.057H87.7368Z" fill="white"/>
<path d="M97.1087 36.1376C96.695 36.1376 96.3377 36.0516 96.0369 35.8797C95.7378 35.706 95.5077 35.4607 95.3465 35.1437C95.1853 34.8249 95.1048 34.4497 95.1048 34.0182C95.1048 33.5937 95.1853 33.2212 95.3465 32.9007C95.5095 32.5783 95.7369 32.3276 96.0288 32.1485C96.3207 31.9677 96.6637 31.8772 97.0576 31.8772C97.3119 31.8772 97.5519 31.9184 97.7775 32.0008C98.005 32.0814 98.2056 32.2067 98.3793 32.3769C98.5548 32.547 98.6927 32.7637 98.7929 33.0269C98.8932 33.2884 98.9434 33.6 98.9434 33.9617V34.2599H95.5614V33.6045H98.0113C98.0095 33.4182 97.9692 33.2526 97.8904 33.1075C97.8116 32.9607 97.7014 32.8452 97.56 32.761C97.4203 32.6768 97.2573 32.6347 97.0711 32.6347C96.8723 32.6347 96.6977 32.6831 96.5473 32.7798C96.3968 32.8747 96.2795 33.0001 96.1954 33.1559C96.113 33.3099 96.0709 33.4791 96.0691 33.6636V34.2357C96.0691 34.4757 96.113 34.6816 96.2007 34.8536C96.2885 35.0237 96.4112 35.1544 96.5688 35.2458C96.7263 35.3353 96.9108 35.3801 97.1221 35.3801C97.2636 35.3801 97.3916 35.3604 97.5062 35.321C97.6208 35.2798 97.7202 35.2198 97.8044 35.141C97.8886 35.0622 97.9522 34.9646 97.9951 34.8482L98.9031 34.9503C98.8458 35.1902 98.7365 35.3998 98.5754 35.5788C98.416 35.7561 98.2118 35.894 97.9629 35.9925C97.714 36.0892 97.4292 36.1376 97.1087 36.1376Z" fill="white"/>
<path d="M101.495 33.6394V36.057H100.522V31.931H101.452V32.6321H101.5C101.595 32.401 101.746 32.2175 101.954 32.0814C102.164 31.9453 102.423 31.8772 102.731 31.8772C103.015 31.8772 103.263 31.9381 103.475 32.0599C103.688 32.1817 103.853 32.3581 103.969 32.5891C104.087 32.8201 104.145 33.1004 104.144 33.4299V36.057H103.171V33.5803C103.171 33.3045 103.099 33.0887 102.956 32.9329C102.815 32.7771 102.619 32.6992 102.368 32.6992C102.198 32.6992 102.046 32.7368 101.914 32.812C101.783 32.8855 101.68 32.992 101.605 33.1317C101.532 33.2714 101.495 33.4406 101.495 33.6394Z" fill="white"/>
<path d="M107.949 31.931V32.6831H105.577V31.931H107.949ZM106.162 30.9424H107.135V34.816C107.135 34.9467 107.155 35.047 107.194 35.1168C107.235 35.1849 107.289 35.2314 107.355 35.2565C107.421 35.2816 107.495 35.2941 107.575 35.2941C107.636 35.2941 107.692 35.2896 107.742 35.2807C107.794 35.2717 107.833 35.2637 107.86 35.2565L108.024 36.0167C107.972 36.0346 107.898 36.0543 107.801 36.0758C107.706 36.0973 107.59 36.1098 107.452 36.1134C107.208 36.1206 106.989 36.0839 106.794 36.0033C106.599 35.9209 106.444 35.7937 106.329 35.6218C106.216 35.4499 106.161 35.235 106.162 34.9771V30.9424Z" fill="white"/>
<path d="M113.795 36.1376C113.419 36.1376 113.096 36.0695 112.826 35.9334C112.555 35.7973 112.346 35.6138 112.2 35.3828C112.055 35.1499 111.982 34.8876 111.982 34.5957C111.982 34.3754 112.027 34.1802 112.116 34.0101C112.208 33.84 112.333 33.6824 112.492 33.5373C112.654 33.3923 112.84 33.2481 113.051 33.1048L114.026 32.4413C114.17 32.3482 114.278 32.2497 114.351 32.1458C114.427 32.042 114.464 31.9202 114.464 31.7805C114.464 31.6623 114.414 31.5504 114.314 31.4447C114.215 31.3391 114.079 31.2863 113.905 31.2863C113.789 31.2863 113.686 31.314 113.596 31.3695C113.509 31.4233 113.44 31.494 113.39 31.5817C113.341 31.6695 113.317 31.7626 113.317 31.8611C113.317 31.9811 113.35 32.1029 113.416 32.2264C113.485 32.35 113.572 32.478 113.68 32.6106C113.789 32.7431 113.905 32.8837 114.029 33.0323L116.61 36.057H115.557L113.414 33.6018C113.254 33.4155 113.1 33.232 112.952 33.0511C112.805 32.8702 112.684 32.6822 112.589 32.487C112.496 32.29 112.449 32.0769 112.449 31.8477C112.449 31.588 112.509 31.3561 112.629 31.1519C112.749 30.946 112.917 30.7839 113.132 30.6657C113.348 30.5475 113.602 30.4884 113.892 30.4884C114.182 30.4884 114.431 30.5458 114.639 30.6604C114.846 30.775 115.007 30.9272 115.12 31.117C115.232 31.3069 115.289 31.5137 115.289 31.7375C115.289 31.9972 115.224 32.23 115.095 32.436C114.966 32.6401 114.787 32.8255 114.558 32.992L113.446 33.8059C113.263 33.9385 113.133 34.0728 113.054 34.2089C112.975 34.3432 112.936 34.4578 112.936 34.5527C112.936 34.6978 112.972 34.8294 113.046 34.9476C113.119 35.0658 113.222 35.1607 113.355 35.2323C113.489 35.3022 113.646 35.3371 113.825 35.3371C114.022 35.3371 114.216 35.2932 114.408 35.2055C114.599 35.1159 114.774 34.9888 114.932 34.824C115.089 34.6593 115.214 34.4623 115.308 34.233C115.401 34.002 115.447 33.7459 115.447 33.4648H116.283C116.283 33.8122 116.244 34.1149 116.167 34.3727C116.09 34.6288 115.991 34.8455 115.869 35.0228C115.747 35.1983 115.618 35.3389 115.482 35.4445C115.439 35.475 115.398 35.5054 115.359 35.5359C115.319 35.5663 115.278 35.5968 115.235 35.6272C115.042 35.8027 114.815 35.9316 114.555 36.014C114.298 36.0964 114.044 36.1376 113.795 36.1376Z" fill="white"/>
<path d="M125.308 32.4118H124.304C124.275 32.247 124.222 32.1011 124.145 31.9739C124.068 31.845 123.972 31.7358 123.858 31.6462C123.743 31.5567 123.612 31.4895 123.466 31.4447C123.32 31.3982 123.164 31.3749 122.995 31.3749C122.696 31.3749 122.431 31.4501 122.2 31.6005C121.969 31.7492 121.788 31.9677 121.658 32.256C121.527 32.5425 121.462 32.8926 121.462 33.3063C121.462 33.7271 121.527 34.0817 121.658 34.37C121.79 34.6566 121.971 34.8733 122.2 35.0201C122.431 35.1652 122.695 35.2377 122.993 35.2377C123.158 35.2377 123.312 35.2162 123.455 35.1732C123.6 35.1285 123.73 35.0631 123.844 34.9771C123.961 34.8912 124.058 34.7855 124.137 34.6602C124.218 34.5348 124.273 34.3915 124.304 34.2304L125.308 34.2357C125.271 34.4972 125.189 34.7425 125.064 34.9718C124.94 35.201 124.778 35.4033 124.578 35.5788C124.377 35.7526 124.142 35.8887 123.874 35.9872C123.605 36.0839 123.307 36.1322 122.979 36.1322C122.496 36.1322 122.064 36.0203 121.685 35.7964C121.305 35.5726 121.006 35.2493 120.787 34.8267C120.569 34.4041 120.46 33.8973 120.46 33.3063C120.46 32.7135 120.57 32.2067 120.79 31.7859C121.01 31.3633 121.31 31.04 121.69 30.8162C122.07 30.5923 122.499 30.4804 122.979 30.4804C123.286 30.4804 123.57 30.5234 123.834 30.6093C124.097 30.6953 124.331 30.8215 124.537 30.9881C124.743 31.1528 124.913 31.3552 125.045 31.5952C125.179 31.8334 125.267 32.1056 125.308 32.4118Z" fill="white"/>
<path d="M128.734 36.1376C128.331 36.1376 127.982 36.0489 127.687 35.8716C127.391 35.6944 127.162 35.4463 126.999 35.1276C126.838 34.8088 126.757 34.4363 126.757 34.0101C126.757 33.5839 126.838 33.2105 126.999 32.8899C127.162 32.5694 127.391 32.3205 127.687 32.1432C127.982 31.9659 128.331 31.8772 128.734 31.8772C129.137 31.8772 129.486 31.9659 129.782 32.1432C130.077 32.3205 130.306 32.5694 130.467 32.8899C130.63 33.2105 130.711 33.5839 130.711 34.0101C130.711 34.4363 130.63 34.8088 130.467 35.1276C130.306 35.4463 130.077 35.6944 129.782 35.8716C129.486 36.0489 129.137 36.1376 128.734 36.1376ZM128.74 35.3586C128.958 35.3586 129.141 35.2986 129.288 35.1786C129.434 35.0568 129.544 34.8939 129.615 34.6897C129.689 34.4856 129.725 34.2581 129.725 34.0074C129.725 33.7549 129.689 33.5266 129.615 33.3224C129.544 33.1165 129.434 32.9526 129.288 32.8308C129.141 32.7091 128.958 32.6482 128.74 32.6482C128.516 32.6482 128.329 32.7091 128.181 32.8308C128.034 32.9526 127.924 33.1165 127.85 33.3224C127.779 33.5266 127.743 33.7549 127.743 34.0074C127.743 34.2581 127.779 34.4856 127.85 34.6897C127.924 34.8939 128.034 35.0568 128.181 35.1786C128.329 35.2986 128.516 35.3586 128.74 35.3586Z" fill="white"/>
<path d="M133.265 33.6394V36.057H132.293V31.931H133.222V32.6321H133.271C133.366 32.401 133.517 32.2175 133.725 32.0814C133.934 31.9453 134.193 31.8772 134.501 31.8772C134.786 31.8772 135.034 31.9381 135.245 32.0599C135.458 32.1817 135.623 32.3581 135.739 32.5891C135.858 32.8201 135.916 33.1004 135.914 33.4299V36.057H134.942V33.5803C134.942 33.3045 134.87 33.0887 134.727 32.9329C134.585 32.7771 134.389 32.6992 134.138 32.6992C133.968 32.6992 133.817 32.7368 133.684 32.812C133.554 32.8855 133.451 32.992 133.376 33.1317C133.302 33.2714 133.265 33.4406 133.265 33.6394Z" fill="white"/>
<path d="M140.92 33.0216L140.034 33.1183C140.009 33.0287 139.965 32.9446 139.902 32.8658C139.841 32.787 139.759 32.7234 139.655 32.675C139.551 32.6267 139.424 32.6025 139.273 32.6025C139.071 32.6025 138.901 32.6464 138.763 32.7341C138.627 32.8219 138.56 32.9356 138.562 33.0753C138.56 33.1953 138.604 33.2929 138.693 33.3681C138.785 33.4433 138.935 33.5051 139.145 33.5534L139.848 33.7039C140.239 33.788 140.529 33.9214 140.719 34.1041C140.91 34.2868 141.007 34.5258 141.009 34.8213C141.007 35.081 140.931 35.3102 140.78 35.509C140.632 35.706 140.425 35.86 140.16 35.971C139.895 36.0821 139.59 36.1376 139.247 36.1376C138.742 36.1376 138.335 36.0319 138.027 35.8206C137.719 35.6075 137.535 35.3111 137.476 34.9315L138.425 34.8401C138.468 35.0264 138.559 35.167 138.699 35.2619C138.838 35.3568 139.02 35.4042 139.244 35.4042C139.475 35.4042 139.66 35.3568 139.8 35.2619C139.941 35.167 140.012 35.0497 140.012 34.91C140.012 34.7918 139.966 34.6942 139.875 34.6172C139.786 34.5402 139.646 34.4811 139.456 34.4399L138.752 34.2921C138.357 34.2098 138.064 34.071 137.874 33.8758C137.684 33.6788 137.59 33.4299 137.592 33.129C137.59 32.8747 137.659 32.6544 137.799 32.4682C137.94 32.2802 138.136 32.1351 138.387 32.033C138.639 31.9292 138.93 31.8772 139.26 31.8772C139.744 31.8772 140.124 31.9802 140.402 32.1861C140.681 32.3921 140.854 32.6706 140.92 33.0216Z" fill="white"/>
<path d="M144.627 31.931V32.6831H142.255V31.931H144.627ZM142.841 30.9424H143.813V34.816C143.813 34.9467 143.833 35.047 143.873 35.1168C143.914 35.1849 143.967 35.2314 144.034 35.2565C144.1 35.2816 144.173 35.2941 144.254 35.2941C144.315 35.2941 144.37 35.2896 144.421 35.2807C144.472 35.2717 144.512 35.2637 144.539 35.2565L144.703 36.0167C144.651 36.0346 144.576 36.0543 144.48 36.0758C144.385 36.0973 144.268 36.1098 144.13 36.1134C143.887 36.1206 143.667 36.0839 143.472 36.0033C143.277 35.9209 143.122 35.7937 143.008 35.6218C142.895 35.4499 142.839 35.235 142.841 34.9771V30.9424Z" fill="white"/>
<path d="M146.197 36.057V31.931H147.14V32.6186H147.183C147.258 32.3804 147.387 32.1969 147.57 32.068C147.754 31.9372 147.965 31.8719 148.201 31.8719C148.255 31.8719 148.315 31.8745 148.381 31.8799C148.449 31.8835 148.505 31.8898 148.55 31.8987V32.7932C148.509 32.7789 148.444 32.7664 148.354 32.7556C148.266 32.7431 148.181 32.7368 148.099 32.7368C147.922 32.7368 147.762 32.7753 147.621 32.8523C147.481 32.9275 147.371 33.0323 147.29 33.1666C147.21 33.3009 147.169 33.4558 147.169 33.6313V36.057H146.197Z" fill="white"/>
<path d="M152.582 34.3217V31.931H153.555V36.057H152.612V35.3237H152.569C152.476 35.5547 152.323 35.7436 152.11 35.8904C151.898 36.0373 151.638 36.1107 151.328 36.1107C151.058 36.1107 150.819 36.0507 150.611 35.9307C150.405 35.809 150.244 35.6326 150.127 35.4016C150.011 35.1688 149.953 34.8876 149.953 34.5581V31.931H150.925V34.4077C150.925 34.6691 150.997 34.8768 151.14 35.0309C151.283 35.1849 151.471 35.2619 151.704 35.2619C151.847 35.2619 151.986 35.227 152.12 35.1571C152.255 35.0873 152.365 34.9834 152.451 34.8455C152.539 34.7058 152.582 34.5312 152.582 34.3217Z" fill="white"/>
<path d="M157.111 36.1376C156.699 36.1376 156.345 36.0471 156.05 35.8663C155.756 35.6854 155.53 35.4356 155.37 35.1168C155.213 34.7963 155.134 34.4274 155.134 34.0101C155.134 33.591 155.215 33.2212 155.376 32.9007C155.537 32.5783 155.764 32.3276 156.058 32.1485C156.354 31.9677 156.703 31.8772 157.106 31.8772C157.441 31.8772 157.737 31.939 157.995 32.0626C158.254 32.1844 158.461 32.3572 158.615 32.581C158.769 32.8031 158.857 33.0627 158.879 33.36H157.949C157.912 33.1612 157.822 32.9956 157.681 32.8631C157.541 32.7288 157.354 32.6616 157.119 32.6616C156.92 32.6616 156.746 32.7153 156.595 32.8228C156.445 32.9284 156.328 33.0807 156.243 33.2794C156.161 33.4782 156.12 33.7164 156.12 33.994C156.12 34.2751 156.161 34.5169 156.243 34.7193C156.326 34.9198 156.441 35.0747 156.59 35.184C156.74 35.2914 156.917 35.3451 157.119 35.3451C157.262 35.3451 157.39 35.3183 157.503 35.2646C157.618 35.209 157.714 35.1294 157.791 35.0255C157.868 34.9216 157.921 34.7954 157.949 34.6467H158.879C158.855 34.9386 158.769 35.1974 158.621 35.423C158.472 35.6469 158.27 35.8224 158.014 35.9495C157.758 36.0749 157.457 36.1376 157.111 36.1376Z" fill="white"/>
<path d="M162.494 31.931V32.6831H160.122V31.931H162.494ZM160.708 30.9424H161.68V34.816C161.68 34.9467 161.7 35.047 161.739 35.1168C161.78 35.1849 161.834 35.2314 161.9 35.2565C161.966 35.2816 162.04 35.2941 162.12 35.2941C162.181 35.2941 162.237 35.2896 162.287 35.2807C162.339 35.2717 162.378 35.2637 162.405 35.2565L162.569 36.0167C162.517 36.0346 162.443 36.0543 162.346 36.0758C162.251 36.0973 162.135 36.1098 161.997 36.1134C161.753 36.1206 161.534 36.0839 161.339 36.0033C161.144 35.9209 160.989 35.7937 160.874 35.6218C160.761 35.4499 160.706 35.235 160.708 34.9771V30.9424Z" fill="white"/>
<path d="M164.064 36.057V31.931H165.036V36.057H164.064ZM164.552 31.3454C164.398 31.3454 164.266 31.2943 164.155 31.1922C164.044 31.0884 163.988 30.9639 163.988 30.8189C163.988 30.672 164.044 30.5475 164.155 30.4455C164.266 30.3416 164.398 30.2897 164.552 30.2897C164.708 30.2897 164.841 30.3416 164.95 30.4455C165.061 30.5475 165.117 30.672 165.117 30.8189C165.117 30.9639 165.061 31.0884 164.95 31.1922C164.841 31.2943 164.708 31.3454 164.552 31.3454Z" fill="white"/>
<path d="M168.592 36.1376C168.189 36.1376 167.84 36.0489 167.544 35.8716C167.249 35.6944 167.02 35.4463 166.857 35.1276C166.696 34.8088 166.615 34.4363 166.615 34.0101C166.615 33.5839 166.696 33.2105 166.857 32.8899C167.02 32.5694 167.249 32.3205 167.544 32.1432C167.84 31.9659 168.189 31.8772 168.592 31.8772C168.995 31.8772 169.344 31.9659 169.64 32.1432C169.935 32.3205 170.164 32.5694 170.325 32.8899C170.488 33.2105 170.569 33.5839 170.569 34.0101C170.569 34.4363 170.488 34.8088 170.325 35.1276C170.164 35.4463 169.935 35.6944 169.64 35.8716C169.344 36.0489 168.995 36.1376 168.592 36.1376ZM168.597 35.3586C168.816 35.3586 168.999 35.2986 169.145 35.1786C169.292 35.0568 169.402 34.8939 169.473 34.6897C169.547 34.4856 169.583 34.2581 169.583 34.0074C169.583 33.7549 169.547 33.5266 169.473 33.3224C169.402 33.1165 169.292 32.9526 169.145 32.8308C168.999 32.7091 168.816 32.6482 168.597 32.6482C168.374 32.6482 168.187 32.7091 168.039 32.8308C167.892 32.9526 167.782 33.1165 167.708 33.3224C167.637 33.5266 167.601 33.7549 167.601 34.0074C167.601 34.2581 167.637 34.4856 167.708 34.6897C167.782 34.8939 167.892 35.0568 168.039 35.1786C168.187 35.2986 168.374 35.3586 168.597 35.3586Z" fill="white"/>
<path d="M173.123 33.6394V36.057H172.151V31.931H173.08V32.6321H173.129C173.224 32.401 173.375 32.2175 173.583 32.0814C173.792 31.9453 174.051 31.8772 174.359 31.8772C174.644 31.8772 174.892 31.9381 175.103 32.0599C175.316 32.1817 175.481 32.3581 175.597 32.5891C175.716 32.8201 175.774 33.1004 175.772 33.4299V36.057H174.8V33.5803C174.8 33.3045 174.728 33.0887 174.585 32.9329C174.443 32.7771 174.247 32.6992 173.996 32.6992C173.826 32.6992 173.675 32.7368 173.542 32.812C173.412 32.8855 173.309 32.992 173.234 33.1317C173.16 33.2714 173.123 33.4406 173.123 33.6394Z" fill="white"/>
<rect x="52.3428" y="8.22925" width="3.79273" height="3.79273" transform="rotate(-45 52.3428 8.22925)" fill="#31C13F"/>
<rect x="0.400391" width="175.999" height="1.26074" fill="white"/>
<rect x="0.400391" y="40.3435" width="175.999" height="1.26074" fill="white"/>
</svg>
