<svg xmlns="http://www.w3.org/2000/svg" width="207" height="48" viewBox="0 0 207.17 48.17" xml:space="preserve"><path fill="#fff" d="M10.29 45.04c-3.22-2.06-5.7-4.86-7.44-8.4C1.11 33.1.24 29.16.24 24.81c0-4.48.95-8.62 2.85-12.41 1.9-3.79 4.48-6.79 7.75-8.98S17.66.13 21.5.13c3.66 0 6.87.51 9.63 1.54 2.77 1.03 4.81 2.34 6.14 3.94.78.96 1.26 2.23 1.44 3.81.18 1.58.27 3.74.27 6.48h-1.37c-.87-4.44-2.47-7.72-4.8-9.84-2.33-2.13-5.42-3.19-9.26-3.19-4.94 0-8.91 1.74-11.93 5.21-3.01 3.47-4.52 9.05-4.52 16.73 0 3.61.58 6.97 1.75 10.08 1.17 3.11 2.98 5.63 5.45 7.58 2.47 1.94 5.56 2.91 9.26 2.91 3.34 0 6.25-.8 8.74-2.4 2.49-1.6 4.72-4 6.69-7.2l1.37 1.03c-2.1 4.11-4.7 7.03-7.78 8.74-3.09 1.71-6.78 2.57-11.07 2.57-4.26 0-8-1.03-11.22-3.08zM59.42 4.55c-.64-1.12-1.92-1.68-3.84-1.68h-1.37V1.49h6.17c1.69 0 2.96.22 3.81.65.85.43 1.45 1.22 1.82 2.37.37 1.14.55 2.88.55 5.21v12.34h20.57V1.49h6.17v37.03c0 2.33.32 4.06.96 5.18s1.92 1.68 3.84 1.68h1.37v1.37H93.3c-1.69 0-2.96-.22-3.81-.65-.85-.43-1.45-1.22-1.82-2.37-.37-1.14-.55-2.88-.55-5.21V24.81H66.55v21.94h-6.17V9.72c0-2.33-.32-4.05-.96-5.17zM117.23 4.55c-.64-1.12-1.92-1.68-3.84-1.68h-1.37V1.49h29.21c3.88 0 5.83 1.83 5.83 5.49v5.14h-1.37c0-5.26-2.86-7.89-8.57-7.89h-12.75v17.83h18.51v2.74h-18.51V44h12c3.15 0 5.62-.57 7.41-1.71 1.78-1.14 3.2-3.09 4.25-5.83l1.37.34-2.4 6.51c-.82 2.29-2.54 3.43-5.14 3.43H118.2V9.72c-.01-2.33-.33-4.05-.97-5.17zM197.8 45.11c-2.15-1.1-3.86-3.4-5.14-6.93l-1.72-4.8h-19.2l-5.48 13.37h-3.08l19.2-45.6h2.06l15.09 37.03c1.14 2.65 2.22 4.47 3.22 5.45 1.01.98 2.45 1.56 4.32 1.73v1.39h-2.74c-2.21 0-4.38-.55-6.53-1.64zm-8.23-14.47-8.23-19.89-8.57 19.89h16.8z"/></svg>