<?xml version="1.0" standalone="no"?>
<!DOCTYPE svg PUBLIC "-//W3C//DTD SVG 20010904//EN"
 "http://www.w3.org/TR/2001/REC-SVG-20010904/DTD/svg10.dtd">
<svg version="1.0" xmlns="http://www.w3.org/2000/svg"
 width="700.000000pt" height="700.000000pt" viewBox="0 0 700.000000 700.000000"
 preserveAspectRatio="xMidYMid meet">
<metadata>
Created by potrace 1.11, written by Peter Selinger 2001-2013
</metadata>
<g transform="translate(0.000000,700.000000) scale(0.100000,-0.100000)"
fill="#000000" stroke="none">
<path d="M3299 6996 c-2 -2 -42 -7 -89 -10 -47 -4 -98 -8 -115 -11 -16 -2 -50
-7 -75 -10 -25 -4 -62 -8 -82 -10 -20 -2 -42 -7 -49 -11 -7 -4 -26 -8 -43 -9
-54 -4 -156 -28 -156 -37 0 -5 -4 -7 -9 -4 -11 7 -72 -4 -67 -13 2 -3 -8 -7
-22 -7 -31 -2 -110 -22 -126 -32 -6 -3 -20 -8 -31 -9 -11 -2 -29 -7 -40 -12
-11 -5 -56 -21 -100 -36 -44 -16 -86 -32 -92 -38 -7 -5 -13 -6 -13 -2 0 4 -12
-1 -27 -11 -15 -9 -41 -20 -58 -24 -22 -5 -29 -11 -27 -26 2 -14 1 -16 -6 -5
-8 11 -23 7 -78 -20 -38 -19 -71 -37 -72 -41 -2 -5 -8 -6 -13 -2 -5 3 -12 -2
-15 -10 -3 -9 -10 -14 -14 -11 -5 3 -47 -17 -95 -45 -48 -27 -91 -50 -96 -50
-5 0 -9 -4 -9 -8 0 -5 -16 -16 -35 -25 -19 -9 -35 -22 -35 -27 0 -6 -4 -8 -10
-5 -5 3 -10 1 -10 -4 0 -6 -5 -11 -11 -11 -10 0 -88 -50 -116 -75 -22 -18 -38
-30 -66 -48 -15 -10 -25 -21 -23 -26 3 -4 -1 -8 -8 -8 -15 0 -76 -44 -76 -55
0 -4 -5 -8 -10 -8 -11 0 -45 -29 -127 -106 -29 -28 -53 -49 -53 -48 0 5 -113
-112 -182 -186 -32 -35 -55 -67 -51 -73 3 -5 1 -7 -4 -4 -6 4 -31 -19 -57 -51
-25 -31 -52 -64 -59 -72 -44 -49 -237 -331 -237 -346 0 -3 6 -2 13 2 7 4 9 3
4 -2 -5 -5 -14 -9 -20 -9 -7 0 -11 -8 -11 -18 1 -9 -2 -15 -5 -12 -8 4 -46
-65 -43 -77 1 -5 -2 -8 -6 -8 -12 0 -129 -238 -185 -375 -50 -124 -103 -277
-108 -315 -2 -14 -6 -27 -9 -30 -6 -5 -42 -143 -45 -170 -1 -8 -6 -23 -10 -33
-4 -10 -5 -21 -1 -24 3 -3 2 -11 -3 -17 -5 -6 -12 -29 -15 -51 -4 -22 -13 -78
-21 -125 -18 -113 -24 -161 -31 -250 -3 -41 -7 -81 -9 -88 -3 -7 0 -10 6 -6 8
4 8 1 1 -12 -6 -11 -9 -102 -7 -224 3 -280 3 -272 18 -264 9 6 9 4 2 -7 -6 -8
-10 -21 -9 -29 1 -22 16 -142 20 -165 5 -24 15 -90 20 -129 2 -15 6 -35 8 -45
3 -9 8 -31 11 -50 3 -19 8 -37 10 -41 2 -4 7 -20 9 -37 9 -50 56 -224 65 -242
5 -9 9 -20 10 -26 2 -34 76 -223 84 -218 6 3 7 1 3 -5 -3 -6 3 -34 15 -64 29
-73 168 -353 196 -395 13 -19 23 -36 23 -39 0 -3 42 -69 94 -147 215 -324 471
-599 786 -844 71 -55 238 -173 245 -173 3 0 37 -21 77 -47 142 -90 403 -216
613 -295 63 -23 302 -96 335 -101 14 -3 43 -10 65 -16 50 -13 234 -48 300 -56
28 -4 60 -8 73 -10 171 -27 709 -26 852 0 8 2 51 8 95 15 44 7 89 14 100 16
11 2 36 7 55 10 19 3 96 21 170 39 1161 288 2104 1166 2476 2305 53 160 111
403 129 530 3 25 8 52 10 60 2 8 7 44 10 80 4 36 10 99 15 140 8 75 5 542 -4
612 -2 21 -7 57 -10 80 -3 24 -8 61 -11 83 -45 364 -195 821 -386 1170 -79
145 -228 373 -314 480 -31 39 -67 85 -81 102 -15 18 -30 30 -35 27 -5 -3 -8
-1 -7 4 2 6 -12 29 -31 52 -40 49 -271 276 -321 316 -19 16 -55 45 -80 67 -25
21 -49 42 -55 46 -5 4 -36 26 -67 50 -34 25 -62 40 -69 35 -7 -4 -9 -3 -5 4 4
7 -30 35 -84 71 -49 33 -90 58 -90 55 0 -2 -10 4 -22 16 -20 18 -33 24 -41 18
-1 -2 -12 6 -25 18 -12 11 -79 49 -149 83 -71 35 -137 68 -147 73 -38 20 -182
80 -226 94 -25 8 -52 18 -60 23 -17 9 -76 23 -86 21 -4 -1 -10 2 -13 7 -8 12
-122 44 -132 37 -5 -3 -9 0 -9 7 0 6 -8 9 -20 6 -11 -3 -20 -2 -20 2 0 7 -132
41 -158 41 -7 0 -10 -5 -6 -12 4 -7 3 -8 -5 -4 -6 4 -9 11 -6 15 2 5 -30 14
-73 21 -42 7 -86 14 -97 16 -31 7 -75 13 -135 19 -30 3 -68 8 -85 10 -16 3
-132 7 -257 9 -170 3 -228 1 -228 -7 0 -8 -3 -8 -8 -2 -7 10 -27 17 -33 11z
m511 -196 c0 -5 -2 -10 -4 -10 -3 0 -8 5 -11 10 -3 6 -1 10 4 10 6 0 11 -4 11
-10z m75 0 c3 -5 1 -10 -4 -10 -6 0 -11 5 -11 10 0 6 2 10 4 10 3 0 8 -4 11
-10z m-425 -34 c0 -2 -8 -10 -17 -17 -16 -13 -17 -12 -4 4 13 16 21 21 21 13z
m27 -201 c0 -8 -4 -12 -9 -9 -5 3 -6 10 -3 15 9 13 12 11 12 -6z m-667 -1 c0
-8 -19 -13 -24 -6 -3 5 1 9 9 9 8 0 15 -2 15 -3z m395 -3 c-9 -8 -36 -10 -30
-2 2 4 11 8 20 8 8 0 13 -3 10 -6z m70 -9 c-3 -3 -11 0 -18 7 -9 10 -8 11 6 5
10 -3 15 -9 12 -12z m-359 -32 c0 -12 -4 -16 -9 -11 -5 5 -6 14 -3 20 10 15
12 14 12 -9z m404 16 c0 -2 -8 -10 -17 -17 -16 -13 -17 -12 -4 4 13 16 21 21
21 13z m195 -84 c-3 -3 -11 0 -18 7 -9 10 -8 11 6 5 10 -3 15 -9 12 -12z
m-441 -50 c3 -5 -1 -9 -9 -9 -8 0 -12 4 -9 9 3 4 7 8 9 8 2 0 6 -4 9 -8z
m-323 -49 c13 -16 12 -17 -3 -4 -17 13 -22 21 -14 21 2 0 10 -8 17 -17z m946
2 c0 -8 -4 -12 -9 -9 -5 3 -6 10 -3 15 9 13 12 11 12 -6z m-742 -104 c3 -5 2
-12 -3 -15 -5 -3 -9 1 -9 9 0 17 3 19 12 6z m-480 -179 c-3 -3 -11 0 -18 7 -9
10 -8 11 6 5 10 -3 15 -9 12 -12z m280 8 c3 -5 1 -10 -4 -10 -6 0 -11 5 -11
10 0 6 2 10 4 10 3 0 8 -4 11 -10z m-875 -24 c0 -2 -8 -10 -17 -17 -16 -13
-17 -12 -4 4 13 16 21 21 21 13z m1057 -11 c0 -8 -4 -12 -9 -9 -5 3 -6 10 -3
15 9 13 12 11 12 -6z m-417 -5 c0 -5 -2 -10 -4 -10 -3 0 -8 5 -11 10 -3 6 -1
10 4 10 6 0 11 -4 11 -10z m197 -35 c0 -8 -4 -15 -9 -15 -10 0 -11 14 -1 23 9
10 10 9 10 -8z m-317 -39 c0 -3 -4 -8 -10 -11 -5 -3 -10 -1 -10 4 0 6 5 11 10
11 6 0 10 -2 10 -4z m37 -41 c0 -8 -4 -12 -9 -9 -5 3 -6 10 -3 15 9 13 12 11
12 -6z m-82 -4 c3 -5 2 -12 -3 -15 -5 -3 -9 1 -9 9 0 17 3 19 12 6z m530 -20
c-9 -8 -36 -10 -30 -2 2 4 11 8 20 8 8 0 13 -3 10 -6z m-845 -5 c0 -2 -8 -10
-17 -17 -16 -13 -17 -12 -4 4 13 16 21 21 21 13z m680 -10 c0 -3 -4 -8 -10
-11 -5 -3 -10 -1 -10 4 0 6 5 11 10 11 6 0 10 -2 10 -4z m-1363 -81 c0 -8 -4
-12 -9 -9 -5 3 -6 10 -3 15 9 13 12 11 12 -6z m881 -50 c-3 -3 -9 2 -12 12 -6
14 -5 15 5 6 7 -7 10 -15 7 -18z m636 -101 c3 -8 2 -12 -4 -9 -6 3 -10 10 -10
16 0 14 7 11 14 -7z m-994 -50 c0 -8 -19 -13 -24 -6 -3 5 1 9 9 9 8 0 15 -2
15 -3z m-245 -84 c3 -5 1 -10 -4 -10 -6 0 -11 5 -11 10 0 6 2 10 4 10 3 0 8
-4 11 -10z m-878 -45 c0 -8 -4 -12 -9 -9 -5 3 -6 10 -3 15 9 13 12 11 12 -6z
m1399 -41 c1 -9 0 -13 -4 -10 -3 4 -7 14 -8 22 -1 9 0 13 4 10 3 -4 7 -14 8
-22z m-62 -44 c-6 -6 -10 -3 -10 10 0 13 4 16 10 10 7 -7 7 -13 0 -20z m-814
10 c0 -5 -5 -10 -11 -10 -5 0 -7 5 -4 10 3 6 8 10 11 10 2 0 4 -4 4 -10z m75
-8 c-3 -3 -11 0 -18 7 -9 10 -8 11 6 5 10 -3 15 -9 12 -12z m-40 -32 c3 -5 1
-10 -4 -10 -6 0 -11 5 -11 10 0 6 2 10 4 10 3 0 8 -4 11 -10z m82 -5 c0 -8 -4
-12 -9 -9 -5 3 -6 10 -3 15 9 13 12 11 12 -6z m-636 -32 c13 -16 12 -17 -3 -4
-17 13 -22 21 -14 21 2 0 10 -8 17 -17z m479 -43 c0 -5 -2 -10 -4 -10 -3 0 -8
5 -11 10 -3 6 -1 10 4 10 6 0 11 -4 11 -10z m74 2 c3 -5 -1 -9 -9 -9 -8 0 -12
4 -9 9 3 4 7 8 9 8 2 0 6 -4 9 -8z m-669 -41 c-9 -8 -36 -10 -30 -2 2 4 11 8
20 8 8 0 13 -3 10 -6z m0 -120 c-9 -8 -36 -10 -30 -2 2 4 11 8 20 8 8 0 13 -3
10 -6z m350 -1 c3 -5 1 -10 -4 -10 -6 0 -11 5 -11 10 0 6 2 10 4 10 3 0 8 -4
11 -10z m670 -40 c-3 -5 -12 -10 -18 -10 -7 0 -6 4 3 10 19 12 23 12 15 0z
m-952 -75 c-3 -9 -8 -14 -10 -11 -3 3 -2 9 2 15 9 16 15 13 8 -4z m44 -40 c0
-8 -4 -12 -9 -9 -5 3 -6 10 -3 15 9 13 12 11 12 -6z m-316 -42 c13 -16 12 -17
-3 -4 -10 7 -18 15 -18 17 0 8 8 3 21 -13z m70 -10 c13 -16 12 -17 -3 -4 -10
7 -18 15 -18 17 0 8 8 3 21 -13z m1289 -909 c0 -8 -19 -13 -24 -6 -3 5 1 9 9
9 8 0 15 -2 15 -3z"/>
</g>
</svg>
