<?xml version="1.0" encoding="UTF-8"?> <!-- Generator: Adobe Illustrator 24.0.3, SVG Export Plug-In . SVG Version: 6.00 Build 0) --> <svg xmlns="http://www.w3.org/2000/svg" xmlns:xlink="http://www.w3.org/1999/xlink" id="Слой_1" x="0px" y="0px" viewBox="0 0 175.7 104" style="enable-background:new 0 0 175.7 104;" xml:space="preserve"> <style type="text/css"> .st0{fill-rule:evenodd;clip-rule:evenodd;fill:#FFFFFF;} </style> <g> <path class="st0" d="M126.9,56.1c-1.7,1.1-2.1,3.2-0.4,3.8c1.7,0.6,4.2-0.5,4.5-2.2l0.4-2.1C130.5,55.5,128.6,55,126.9,56.1z"></path> <path class="st0" d="M83.7,48.7c-2.1,0-3.6,1.1-4.2,3.5H86C86.4,50.3,85.8,48.7,83.7,48.7z"></path> <path class="st0" d="M123.7,0C111.3,0,99.9,4.4,91,11.7c6.8,6.6,12.1,14.9,14.8,24.2l-4.3,0c-2.7-8.3-7.5-15.6-13.7-21.5 C81.7,20.2,77,27.6,74.3,35.8h-4.3c2.8-9.3,7.9-17.6,14.7-24.1C75.7,4.5,64.4,0,52,0C23.3,0,0,23.3,0,52c0,28.7,23.3,52,52,52 c12.4,0,23.7-4.5,32.6-11.7c-6.8-6.6-11.9-14.9-14.7-24.1l4.3,0c2.7,8.3,7.4,15.6,13.6,21.5c6.2-5.9,10.9-13.2,13.7-21.5l4.3,0 c-2.8,9.3-8,17.6-14.8,24.2c9,7.3,20.3,11.7,32.8,11.7c28.7,0,52-23.3,52-52C175.7,23.3,152.5,0,123.7,0z M23.6,64.2l3.1-16.4 l-7.3,16.4h-5L13,47.4L9.7,64.2H4.5L9,41h8.4l1,14.1L24.8,41h8.6L29,64.2H23.6z M42,64.2l-0.7-1.1c-0.9,0.7-1.7,1-4.4,1.1 c-2.7,0.1-6.1-1.9-5.5-5.8c1.5-8.1,10.9-6.6,12.2-6.7c0.6-2.9-1.4-2.6-3.2-2.7c-1.8-0.1-5.2,0.5-6.5,0.6l0.8-4.2 c3.4-0.7,5.2-0.6,6.8-0.7c8.8,0,7.9,6.3,7.4,8.9l-2.1,10.5H42z M63.3,58.8c-0.9,5.8-7.1,5.4-8.4,5.4c-1.8,0-3.8,0-6.2-0.7l0.7-4 c2.6,0.9,6.1,0.5,6.9,0.5c1.8,0,2-2.2,0.7-2.9c-1.1-0.5-2.2-1.3-4.2-2.2c-1.2-0.5-2.5-2-1.8-5.6c1-4.6,7.2-4.6,8-4.6 c0.7,0,2.7-0.2,5.2,0.7l-1.2,3.9c-1.5-0.4-4-0.4-5.2-0.3c-1.9,0.5-1.1,2.3-0.1,2.8c1.1,0.5,2.8,1.4,3.8,2.1 C62.5,54.7,63.7,56,63.3,58.8z M72.3,63.3c-1.1,0.7-2.7,0.9-3.9,0.9c-1.2,0-5.2-0.7-4.2-6l3.6-18.3h5.2l-1.1,5.1h2.8L74,49.3h-2.7 l-1.5,7.8c-0.3,1.5-0.1,2.8,2.9,2.3L72.3,63.3z M84,59.9c2.1,0,5.1-0.3,5.9-0.5l-0.8,4c-1.3,0.7-4.5,0.9-6.7,0.9 c-9.1,0-8.9-8.5-8.7-9.7c0.2-1.2,1.3-9.6,9.7-9.6c9.2,0,7.8,7.6,7.2,10.7H79.2C78.6,60,81.9,59.9,84,59.9z M97.6,55.5L96,64.2h-5.2 l3.6-19.1h4.5l0.5,1.9c0.8-0.9,2.3-1.9,5-1.9l-1.3,5C101.6,50.2,99.1,49.8,97.6,55.5z M117.5,58.3L119,63c-1.7,0.8-3.5,1.2-6.4,1.2 c-5.4,0-11.3-4.8-8.7-14.6c2-7.2,8.2-9.9,11.8-9.7c4.3,0.2,5.8,1.6,7.2,3.1l-3.4,3.4c-1.3-0.8-2.3-0.9-4-0.9 c-1.7,0-5.6,1.7-6.4,6.4C108.3,57.4,112.1,60.1,117.5,58.3z M130.6,64.2l-0.7-1.1c-0.9,0.7-1.7,1-4.4,1.1c-2.7,0.1-6.1-1.9-5.5-5.8 c1.5-8.1,10.9-6.6,12.2-6.7c0.6-2.9-1.4-2.6-3.2-2.7c-1.8-0.1-5.2,0.5-6.5,0.6l0.8-4.2c3.4-0.7,5.2-0.6,6.8-0.7 c8.8,0,7.9,6.3,7.4,8.9l-2.1,10.5H130.6z M144.4,55.4l-1.6,8.8h-5.3l3.6-19.2h4.5l0.5,1.9c0.8-0.9,2.4-1.9,5-1.9l-1.4,5 C148.4,50,146,49.6,144.4,55.4z M160.9,64.2l-0.7-1.5c-1.1,0.7-2.8,1.5-4.6,1.5c-3.8,0-7.2-5.3-5.5-11.1c2.5-8.7,7-8.2,9.9-8.2 c2.5,0,3.1,1.5,4.1,2.3l1.4-7.4h5.5l-4.6,24.4H160.9z"></path> <path class="st0" d="M155.5,54.1c-0.7,2.8,0.9,4.8,2.7,4.8c1.9,0,3.2-1.5,4.1-3.9c0.5-1.7,0.2-3.9-0.3-4.7 C160.4,48.2,156.7,49.9,155.5,54.1z"></path> <path class="st0" d="M38.3,56.1c-1.7,1.1-2.1,3.2-0.4,3.8c1.7,0.6,4.2-0.5,4.5-2.2l0.4-2.1C41.9,55.5,40,55,38.3,56.1z"></path> </g> </svg> 