<?xml version="1.0" encoding="UTF-8"?> <!-- Generator: Adobe Illustrator 24.0.3, SVG Export Plug-In . SVG Version: 6.00 Build 0) --> <svg xmlns="http://www.w3.org/2000/svg" xmlns:xlink="http://www.w3.org/1999/xlink" id="Слой_1" x="0px" y="0px" viewBox="0 0 42.52 42.52" style="enable-background:new 0 0 42.52 42.52;" xml:space="preserve"> <path d="M21.3,0C9.53-0.02,0,9.5,0,21.26c0.02,11.47,9.12,21.23,21.21,21.26c11.83,0.03,21.31-9.39,21.3-21.26 C42.51,9.15,32.75,0.02,21.3,0z M15.07,32.74c-1.93,0-3.85,0-5.82,0c0-5.56,0-11.12,0-16.73c1.95,0,3.87,0,5.82,0 C15.07,21.59,15.07,27.15,15.07,32.74z M14.01,12.8c-0.5,0.42-1.14,0.68-1.84,0.68c-0.2,0-0.4-0.02-0.59-0.06 c-1.34-0.27-2.38-1.48-2.38-2.89c0.01-1.62,1.32-2.93,2.93-2.94c0,0,0,0,0.01,0c0,0,0,0,0,0c1.63-0.01,2.96,1.32,2.96,2.95 C15.09,11.45,14.67,12.26,14.01,12.8z M34.38,32.42c0,0.1-0.02,0.2-0.03,0.33c0,0-0.01,0-0.01,0c-1.67,0-3.3,0-5.01,0 c0,0-0.01,0-0.01,0c0-0.2,0-0.37,0-0.55c0-2.6,0.02-5.2-0.01-7.8c-0.01-0.82-0.11-1.65-0.32-2.44c-0.32-1.19-1.16-1.77-2.39-1.82 c-1.41-0.06-2.43,0.45-2.82,1.61c-0.27,0.8-0.4,1.67-0.42,2.51c-0.05,2.66-0.02,5.32-0.02,7.98c0,0.17,0,0.33,0,0.51 c0,0-0.01,0-0.01,0c-1.65,0-3.24,0-4.86,0c0,0-0.01,0-0.01,0c0.01-5.59,0.01-11.14,0.01-16.75c1.57,0,3.07,0,4.64,0 c0,0,0.01,0,0.01,0c0,0.72,0,1.41,0,2.11c0.04,0,0.06,0,0.08,0c0.02,0,0.03,0,0.04,0c1.05-1.54,2.63-2.01,4.37-2.11 c0.31-0.02,0.61-0.02,0.91-0.02c0.91,0.02,1.81,0.15,2.69,0.49c1.64,0.64,2.52,1.91,2.84,3.57c0.2,1.05,0.31,2.12,0.32,3.18 C34.41,26.29,34.38,29.35,34.38,32.42z"></path> </svg> 