<?xml version="1.0" encoding="UTF-8"?> <!-- Generator: Adobe Illustrator 24.0.3, SVG Export Plug-In . SVG Version: 6.00 Build 0) --> <svg xmlns="http://www.w3.org/2000/svg" xmlns:xlink="http://www.w3.org/1999/xlink" id="Слой_1" x="0px" y="0px" viewBox="0 0 413.9 286.3" style="enable-background:new 0 0 413.9 286.3;" xml:space="preserve"> <style type="text/css"> .st0{fill:#FFFFFF;} </style> <g> <path class="st0" d="M0,232.3c0-59.3,0-118.7,0-178c0.3-0.8,0.7-1.5,0.9-2.3C7.4,19.9,31.5,0,64.1,0c95.3,0,190.6,0,285.9,0 c3.8,0,7.7,0,11.4,0.7c31.1,5.9,51.9,29.8,52.2,61.5c0.5,54.3,0.5,108.6,0,162.9c-0.3,34.3-28.2,61.1-62.3,61.1 c-96.5,0.1-192.9,0.2-289.4-0.1c-25.4-0.1-44-12.6-55.5-35.2C3.4,245.1,2.1,238.5,0,232.3z M377.8,190.6 c-7.5-36-14.8-71.3-22.3-106.5c-0.3-1.3-2.6-2.9-4-3c-7.8-0.3-15.7-0.3-23.5,0c-1.7,0.1-4.2,1.8-5,3.5 c-13.9,31.4-27.7,62.9-41.4,94.4c-1.6,3.7-3.3,7.4-4.9,11.1c1,0.4,1.3,0.7,1.6,0.7c5.2,0.1,10.3,0.1,15.5,0.1 c11.8,0,11.8,0,16.2-11.1c0.3-0.8,0.5-1.7,1-2.2c0.8-0.8,1.9-2,2.9-2c11.3-0.1,22.6-0.1,33.9-0.1c1.2,5.4,2.3,10.4,3.3,15.2 C360.2,190.6,368.6,190.6,377.8,190.6z M276.9,108.7c1.4-7.7,2.9-14.9,4-22.1c0.1-0.9-0.9-2.7-1.7-2.9c-18.5-5.9-36.9-7.5-54.7,2 c-21.4,11.5-22.7,40.5-2.6,54.1c3.7,2.5,7.9,4.3,11.7,6.6c3.7,2.2,7.7,4.1,10.9,7c5.6,5,4.5,12.4-2.3,15.4c-3.2,1.5-7,2.2-10.6,2.5 c-10.6,0.8-20.7-1.5-30.8-6c-1.7,7.8-3.3,15.2-5,23.3c5.6,1.6,10.7,3.4,16.1,4.4c21,4.1,39.8-0.3,55.4-15.3 c15.3-14.7,13.2-34.4-4.4-46.1c-3.5-2.3-7.2-4.1-10.8-6.2c-3.7-2.2-7.7-4-11.1-6.6c-5.2-3.8-5-10.1,0.4-13.7c2-1.4,4.5-2.1,6.9-2.7 C258.4,99.5,267.4,103.1,276.9,108.7z M78.1,190.8c9.6,0,18.8-0.2,27.9,0.1c3.5,0.1,4.9-1.2,6.1-4.3c12.6-31.6,25.3-63.1,38-94.7 c1.4-3.4,2.7-6.9,4.3-10.9c-9.3,0-17.6,0.2-25.9-0.1c-3.9-0.1-5.7,0.9-7,4.9c-7,21.7-14.3,43.2-21.6,64.8c-0.8,2.4-1.7,4.7-2.8,7.8 c-6.8-24.9-21.4-42.5-42.5-57C62.6,132.1,70.3,161.4,78.1,190.8z M178,190.6c5.9-36.5,11.8-72.7,17.8-109.3c-10.1,0-19.9,0-29.8,0 c-5.8,36.5-11.5,72.7-17.3,109.3C158.7,190.6,168,190.6,178,190.6z M92.2,135.7c-2.7-13.1-5.3-26.3-8-39.4c-2-9.9-8-14.8-18.2-14.8 c-12.3,0-24.6,0-37,0c-1.2,0-2.3,0.2-4.9,0.3C53,93.4,77.7,108,92.2,135.7z"></path> <path class="st0" d="M335.6,112.9c3,14.6,5.6,27.7,8.3,41.2c-8,0-15.7,0-24.1,0C325,140.7,330,127.5,335.6,112.9z"></path> </g> </svg> 