<?xml version="1.0" encoding="UTF-8"?> <!-- Generator: Adobe Illustrator 24.0.3, SVG Export Plug-In . SVG Version: 6.00 Build 0) --> <svg xmlns="http://www.w3.org/2000/svg" xmlns:xlink="http://www.w3.org/1999/xlink" id="Слой_1" x="0px" y="0px" viewBox="0 0 234 234" style="enable-background:new 0 0 234 234;" xml:space="preserve"> <style type="text/css"> .st0{fill:none;stroke:#000000;stroke-width:11;stroke-miterlimit:10;} </style> <circle class="st0" cx="117" cy="117" r="108.71"></circle> <g> <path d="M163.08,64.6c-23.78,9.08-47.53,18.22-71.3,27.34c-13.39,5.14-26.84,10.15-40.14,15.53c-2.29,0.93-3.92,3.46-5.85,5.26 c2.01,1.44,3.81,3.45,6.05,4.22c7.87,2.71,15.93,4.88,23.84,7.5c2.77,0.92,4.84,0.54,7.28-1.02c20.56-13.12,41.2-26.11,61.84-39.09 c1.83-1.15,3.88-1.95,5.83-2.91c0.56,0.77,1.11,1.53,1.67,2.3c-1.38,0.92-2.91,1.68-4.13,2.78c-12.18,10.93-24.34,21.9-36.46,32.9 c-5.37,4.87-12.82,8.93-15.36,15.01c-2.62,6.28-0.47,14.57-0.31,21.98c0.05,2.19,0.4,4.37,0.62,6.56c0.43,0.19,0.86,0.39,1.29,0.58 c5.48-5.05,10.95-10.11,16.65-15.36c9.53,7.04,18.89,14.07,28.38,20.92c5.98,4.32,10.21,2.67,11.8-4.47 c1.81-8.13,3.46-16.3,5.2-24.45c4.7-22.03,9.54-44.04,13.96-66.13c0.63-3.14,0.19-7.39-1.55-9.87 C170.02,60.8,166.15,63.42,163.08,64.6z"></path> </g> </svg> 