<?xml version="1.0" encoding="UTF-8"?> <!-- Generator: Adobe Illustrator 24.0.2, SVG Export Plug-In . SVG Version: 6.00 Build 0) --> <svg xmlns="http://www.w3.org/2000/svg" xmlns:xlink="http://www.w3.org/1999/xlink" id="Design" x="0px" y="0px" viewBox="0 0 50 50" style="enable-background:new 0 0 50 50;" xml:space="preserve"> <g> <path d="M32.1,10.6H18.5c-3.9,0-7.1,3.2-7.1,7.1v13.6c0,3.9,3.2,7.1,7.1,7.1h13.6c3.9,0,7.1-3.2,7.1-7.1V17.7 C39.2,13.8,36,10.6,32.1,10.6z M25.3,33.1c-4.6,0-8.4-3.8-8.4-8.4c0-4.6,3.8-8.4,8.4-8.4c4.7,0,8.5,3.8,8.4,8.4 C33.7,29.3,29.9,33.1,25.3,33.1z M34.3,17.8c-1.1,0-2-0.9-2-2c0-1.1,0.9-2,2-2c1.1,0,2,0.9,2,2C36.3,16.9,35.4,17.8,34.3,17.8z"></path> <ellipse transform="matrix(0.7071 -0.7071 0.7071 0.7071 -10.0553 25.1243)" cx="25.3" cy="24.7" rx="5.4" ry="5.4"></ellipse> <path d="M25,0C11.2,0,0,11.2,0,25s11.2,25,25,25s25-11.2,25-25S38.8,0,25,0z M42.3,31.3c0,5.7-4.6,10.3-10.2,10.3H18.5 c-5.7,0-10.3-4.6-10.3-10.3V17.7c0-5.7,4.6-10.3,10.3-10.3H32c5.7,0,10.3,4.6,10.3,10.3V31.3z"></path> </g> </svg> 