<?xml version="1.0" encoding="UTF-8"?> <!-- Generator: Adobe Illustrator 24.0.3, SVG Export Plug-In . SVG Version: 6.00 Build 0) --> <svg xmlns="http://www.w3.org/2000/svg" xmlns:xlink="http://www.w3.org/1999/xlink" id="Слой_1" x="0px" y="0px" viewBox="0 0 42.52 42.52" style="enable-background:new 0 0 42.52 42.52;" xml:space="preserve"> <g id="ypISuk_1_"> <g> <path d="M12.71,40.66C4.14,37.12-2.59,26.63,0.98,14.98C4.54,3.35,17.14-2.86,28.51,1.28c11.41,4.16,17.07,17.03,12.34,28.21 C36.18,40.52,24.3,44.5,15.28,41.6c0.93-1.57,1.78-3.17,2.22-4.95c0.43-1.74,0.89-3.48,1.34-5.24c0.07,0.02,0.13,0.03,0.16,0.06 c1.59,2.02,3.73,2.63,6.17,2.35c4.22-0.48,6.99-2.94,8.73-6.66c1.44-3.07,2.04-6.34,1.45-9.68c-0.82-4.68-3.65-7.91-8.1-9.39 C21.2,6.1,15.52,7,10.82,11.49c-3.57,3.41-4.77,7.71-3.41,12.55c0.55,1.96,1.68,3.51,3.58,4.41c0.78,0.37,1.16,0.18,1.38-0.66 c0.01-0.05,0.02-0.1,0.03-0.15c0.5-2.14,0.62-1.71-0.45-3.21c-1.14-1.6-1.08-3.51-0.74-5.36c0.97-5.19,5.47-8.59,10.82-8.26 c1.74,0.11,3.4,0.46,4.88,1.42c2.01,1.31,3.12,3.21,3.33,5.57c0.29,3.32-0.24,6.51-1.98,9.41c-0.92,1.54-2.18,2.69-4.04,2.98 c-2.66,0.41-4.57-1.66-3.92-4.25c0.16-0.64,0.35-1.28,0.53-1.91c0.35-1.24,0.74-2.47,1.05-3.72c0.15-0.6,0.22-1.24,0.21-1.86 c-0.02-1.17-0.4-2.2-1.54-2.73c-1.18-0.55-2.33-0.34-3.36,0.43c-1.19,0.91-1.72,2.19-1.95,3.63c-0.23,1.41-0.03,2.77,0.42,4.11 c0.09,0.27,0.11,0.6,0.05,0.88c-0.83,3.59-1.68,7.17-2.54,10.75c-0.36,1.5-0.48,3.02-0.47,4.55 C12.71,40.24,12.71,40.42,12.71,40.66z"></path> </g> </g> </svg> 