<?xml version="1.0" encoding="UTF-8"?> <!-- Generator: Adobe Illustrator 24.0.2, SVG Export Plug-In . SVG Version: 6.00 Build 0) --> <svg xmlns="http://www.w3.org/2000/svg" xmlns:xlink="http://www.w3.org/1999/xlink" id="Layer_1" x="0px" y="0px" viewBox="0 0 433.55 110" style="enable-background:new 0 0 433.55 110;" xml:space="preserve"> <g> <path d="M69.73,73.35c0,21.82-15.59,34.72-34.72,34.72C15.73,108.07,0,92.34,0,73.07h12.61c0,12.47,9.92,22.39,22.25,22.39 c10.77,0,21.68-6.52,21.68-19.98c0-12.61-9.07-16.58-21.68-16.58C5.1,58.9,5.1,31.83,5.1,31.83c0-16.44,13.18-29.9,29.76-29.9 c16.58,0,29.76,13.46,29.76,29.9h-12.9c0-9.35-7.65-17.01-16.86-17.01c-8.93,0-16.58,7.08-17.15,15.87v1.84 c0,1.13,0.14,2.27,0.42,3.26c0.99,3.97,4.54,10.35,16.72,10.35C69.73,46.14,69.73,73.07,69.73,73.35z"></path> <path d="M154.75,32.25c0,16.01-13.04,29.05-29.05,29.05H97.78v45.63H85.02V3.06h40.67C141.71,3.06,154.75,16.1,154.75,32.25z M142.14,32.25c0-9.07-7.37-16.44-16.44-16.44H97.64v32.88h28.06C134.77,48.69,142.14,41.32,142.14,32.25z"></path> <path d="M180.2,3.2v103.74h-12.75V3.2H180.2z"></path> <path d="M263.5,94.33v12.61h-69.87V3.06h12.61v91.27H263.5z"></path> <path d="M348.53,3.06v104.02h-25.94L292.26,6.32h-0.99v100.76h-12.61V3.06h25.94l30.33,100.76h0.99V3.06H348.53z"></path> <polygon points="376.3,61.31 376.3,48.69 376.3,15.81 433.41,15.81 433.41,3.06 363.68,3.06 363.68,106.94 433.55,106.94 433.55,94.33 376.3,94.33 "></polygon> </g> </svg> 