<svg width="227" height="105" viewBox="0 0 227 105" fill="none" xmlns="http://www.w3.org/2000/svg">
<g clip-path="url(#clip0_2_9)">
<path d="M48.21 -0.359985H22.6599L0.25 104.36H13.0901L34.79 2.93001H36.22L57.9199 104.36H70.6201L48.21 -0.359985Z" fill="black"/>
<path d="M122.66 58.36L152.07 104.36H137.08L107.67 58.36H94.54V104.36H81.6899V-0.359985H122.66C138.79 -0.359985 151.92 12.78 151.92 29.07C151.92 45.21 138.79 58.36 122.66 58.36ZM94.3999 45.64H122.66C131.8 45.64 139.22 38.21 139.22 29.07C139.22 19.93 131.8 12.5 122.66 12.5H94.3999V45.64Z" fill="black"/>
<path d="M226.46 12.5H198.05V104.36H185.2V12.5H156.22V-0.359985H226.45V12.5H226.46Z" fill="black"/>
<path d="M50 46H17V58H50V46Z" fill="black"/>
</g>
<defs>
<clipPath id="clip0_2_9">
<rect width="226.21" height="104.72" fill="white"/>
</clipPath>
</defs>
</svg>
