<svg fill="#222" viewBox="0 0 28 28" xmlns="http://www.w3.org/2000/svg"><path d="M23 8.73a7.38 7.38 0 0 1-2.12.583 3.706 3.706 0 0 0 1.623-2.043 7.397 7.397 0 0 1-2.346.896 3.693 3.693 0 0 0-6.293 3.368 10.485 10.485 0 0 1-7.61-3.858c-.32.545-.5 1.18-.5 1.856 0 1.28.65 2.41 1.642 3.073a3.683 3.683 0 0 1-1.673-.462v.047c0 1.788 1.273 3.28 2.962 3.62a3.718 3.718 0 0 1-1.667.063 3.697 3.697 0 0 0 3.45 2.564A7.41 7.41 0 0 1 5 19.967a10.453 10.453 0 0 0 5.66 1.658c6.794 0 10.508-5.626 10.508-10.505 0-.16-.003-.32-.01-.478A7.507 7.507 0 0 0 23 8.732z" fill-rule="evenodd"/></svg>