<svg xmlns="http://www.w3.org/2000/svg" width="22" height="22" viewBox="0 0 22 22"><path fill="#fc5e30" fill-rule="evenodd" d="M11 0A11 11 0 1 1 0 11 11.005 11.005 0 0 1 11 0Zm0 4.125c-1.867 0-2.1.008-2.835.041a5.047 5.047 0 0 0-1.669.32A3.516 3.516 0 0 0 4.486 6.5a5.047 5.047 0 0 0-.32 1.669c-.033.733-.041.967-.041 2.835s.008 2.1.041 2.835a5.047 5.047 0 0 0 .32 1.669A3.516 3.516 0 0 0 6.5 17.514a5.048 5.048 0 0 0 1.669.32c.733.033.967.041 2.835.041s2.1-.008 2.835-.041a5.048 5.048 0 0 0 1.669-.32 3.516 3.516 0 0 0 2.006-2.014 5.048 5.048 0 0 0 .32-1.669c.033-.733.041-.967.041-2.835s-.008-2.1-.041-2.835a5.047 5.047 0 0 0-.32-1.669A3.516 3.516 0 0 0 15.5 4.486a5.046 5.046 0 0 0-1.669-.32c-.731-.033-.964-.041-2.831-.041Zm0 1.239c1.836 0 2.053.007 2.778.04a3.8 3.8 0 0 1 1.277.237 2.277 2.277 0 0 1 1.3 1.3 3.8 3.8 0 0 1 .245 1.281c.033.725.04.942.04 2.778s-.007 2.053-.04 2.778a3.8 3.8 0 0 1-.237 1.277 2.277 2.277 0 0 1-1.3 1.3 3.8 3.8 0 0 1-1.277.237c-.725.033-.942.04-2.778.04s-2.053-.007-2.778-.04a3.8 3.8 0 0 1-1.277-.237 2.277 2.277 0 0 1-1.3-1.3 3.8 3.8 0 0 1-.253-1.277c-.033-.725-.04-.942-.04-2.778s.007-2.053.04-2.778a3.8 3.8 0 0 1 .237-1.277 2.277 2.277 0 0 1 1.3-1.3A3.8 3.8 0 0 1 8.222 5.4c.725-.029.942-.036 2.778-.036Zm0 2.106A3.53 3.53 0 1 0 14.53 11 3.53 3.53 0 0 0 11 7.47Zm0 5.822A2.292 2.292 0 1 1 13.292 11 2.292 2.292 0 0 1 11 13.292Zm4.495-5.962a.825.825 0 1 1-.825-.825.825.825 0 0 1 .825.825Z" data-name="5279112_camera_instagram_social media_instagram logo_icon"/></svg>