<svg xmlns="http://www.w3.org/2000/svg" width="22" height="22" viewBox="0 0 22 22"><defs><clipPath id="a"><path fill="#fc5e30" d="M0-.408h22v22H0z" data-name="Rectangle 118"/></clipPath></defs><g data-name="Group 156"><g clip-path="url(#a)" data-name="Group 123" transform="translate(0 .408)"><path fill="#fc5e30" fill-rule="evenodd" d="M10.789.097A10.706 10.706 0 1 1 .083 10.803 10.711 10.711 0 0 1 10.789.097m-1.886 16.4a7.279 7.279 0 0 0 7.328-7.328c0-.112 0-.224-.005-.331a5.276 5.276 0 0 0 1.287-1.335 5.226 5.226 0 0 1-1.48.406 2.574 2.574 0 0 0 1.132-1.426 5.218 5.218 0 0 1-1.634.625 2.577 2.577 0 0 0-4.454 1.763 2.358 2.358 0 0 0 .069.587 7.306 7.306 0 0 1-5.308-2.692 2.574 2.574 0 0 0 .8 3.434 2.529 2.529 0 0 1-1.164-.32v.032a2.578 2.578 0 0 0 2.067 2.526 2.571 2.571 0 0 1-.678.091 2.458 2.458 0 0 1-.486-.048 2.571 2.571 0 0 0 2.4 1.789 5.177 5.177 0 0 1-3.2 1.1 4.684 4.684 0 0 1-.614-.037 7.176 7.176 0 0 0 3.94 1.164Z" data-name="Path 95"/></g></g></svg>