<svg xmlns="http://www.w3.org/2000/svg" width="22" height="22" viewBox="0 0 22 22"><path fill="#fc5e30" fill-rule="evenodd" d="M10.958 22Zm.078 0Zm-.111 0Zm.147 0Zm-.179 0Zm.215 0Zm.035 0Zm-.291 0Zm.327 0Zm-.361 0Zm.4 0Zm-.429 0Zm-.04 0Zm.5 0Zm-.54 0Zm.575 0Zm.035 0Zm-.643 0Zm-.031 0Zm.709 0Zm.035 0Zm-.789 0Zm-.032 0Zm.857 0Zm-.888 0Zm.924 0Zm-.968 0Zm1 0Zm-1.035 0Zm1.07 0Zm-1.1 0Zm1.136 0Zm.035 0Zm-1.2 0Zm1.235 0Zm-1.282 0Zm-.031 0Zm1.348 0Zm-1.378 0Zm1.413 0Zm.035 0Zm-1.493 0Zm-.031 0Zm1.559 0Zm-1.59 0Zm1.625 0Zm-1.667 0Zm1.7 0Zm.035 0Zm-1.768 0Zm-.031 0Zm1.835 0Zm-1.869 0Zm1.9 0Zm.035 0Zm-1.975 0Zm-.032 0Zm2.042 0Zm-2.739-.087a11 11 0 1 1 3.438 0V14.18h2.563L15.77 11h-3.051V8.937a1.59 1.59 0 0 1 1.793-1.718H15.9V4.512a16.915 16.915 0 0 0-2.464-.212c-2.513 0-4.155 1.523-4.155 4.28V11H6.488v3.18h2.793Z" data-name="5279111_network_fb_social media_facebook_facebook logo_icon"/></svg>