<svg width="85" height="53" viewBox="0 0 85 53" fill="none" xmlns="http://www.w3.org/2000/svg">
<path d="M7.94695 17.8493C5.44003 17.8493 3.48463 17.1557 2.08075 15.7685C0.693582 14.3814 0 12.4009 0 9.82714V0H4.06122V9.67673C4.06122 12.8187 5.36482 14.3897 7.97202 14.3897C9.2422 14.3897 10.2115 14.0137 10.88 13.2616C11.5486 12.4928 11.8828 11.2979 11.8828 9.67673V0H15.8939V9.82714C15.8939 12.4009 15.192 14.3814 13.7881 15.7685C12.4009 17.1557 10.4539 17.8493 7.94695 17.8493Z" fill="#77D14D"/>
<path d="M36.0015 0V17.5485H32.6674L23.9182 6.89405V17.5485H19.9071V0H23.2664L31.9904 10.6544V0H36.0015Z" fill="#77D14D"/>
<path d="M40.1534 0H44.2147V17.5485H40.1534V0Z" fill="#77D14D"/>
<path d="M52.0143 3.30914H46.3988V0H61.6911V3.30914H56.0756V17.5485H52.0143V3.30914Z" fill="#77D14D"/>
<path d="M76.5766 12.9188C76.2589 13.9216 75.7243 14.7071 74.972 15.2753C74.2368 15.8435 73.3258 16.1276 72.2395 16.1276C70.702 16.1276 69.5154 15.526 68.6797 14.3227C67.8607 13.136 67.4512 11.3979 67.4512 9.10827V0.0332031L84.9999 0.033204V8.60687C84.9999 10.7461 84.5904 12.384 83.7714 13.5204C82.9524 14.6736 81.8411 15.2502 80.4373 15.2502C79.5847 15.2502 78.8244 15.0413 78.1559 14.6235C77.4874 14.2224 76.961 13.6541 76.5766 12.9188ZM81.9414 4.06935H77.8048V8.1055C77.8048 9.10827 77.9804 9.8687 78.3314 10.3868C78.6823 10.9049 79.2005 11.1639 79.8856 11.1639C80.571 11.1639 81.0805 10.9049 81.4148 10.3868C81.7658 9.8687 81.9414 9.10827 81.9414 8.1055V4.06935ZM70.5097 8.80743C70.5097 9.87705 70.6853 10.6793 71.0363 11.2141C71.3871 11.7656 71.9303 12.0414 72.6658 12.0414C74.1197 12.0414 74.8469 10.9634 74.8469 8.80743V4.06935H70.5097V8.80743Z" fill="white"/>
<path d="M67.1507 24.8674C67.1507 22.3605 67.8443 20.405 69.2315 19.0012C70.6185 17.614 72.599 16.9204 75.1728 16.9204H85V20.9816H75.3232C72.1812 20.9816 70.6102 22.2853 70.6102 24.8924C70.6102 26.1625 70.9863 27.132 71.7383 27.8005C72.5072 28.469 73.7021 28.8033 75.3232 28.8033H85V32.8142H75.1728C72.599 32.8142 70.6185 32.1123 69.2315 30.7085C67.8443 29.3214 67.1507 27.3742 67.1507 24.8674Z" fill="white"/>
<path d="M84.9999 34.6973V42.6692C84.9999 44.5745 84.632 46.2541 83.8968 47.7082C83.1781 49.1789 82.1585 50.3153 80.8383 51.1175C79.518 51.9365 77.9804 52.346 76.2256 52.346C74.4707 52.346 72.9331 51.9365 71.6128 51.1175C70.2926 50.3153 69.2647 49.1789 68.5292 47.7082C67.8106 46.2541 67.4512 44.5745 67.4512 42.6692V34.6973H84.9999ZM70.7856 42.4686C70.7856 44.2234 71.2703 45.6189 72.2395 46.6553C73.2257 47.7082 74.5542 48.2346 76.2256 48.2346C77.8969 48.2346 79.2171 47.7082 80.1865 46.6553C81.1725 45.6189 81.6655 44.2234 81.6655 42.4686V38.7583H70.7856V42.4686Z" fill="white"/>
<path fill-rule="evenodd" clip-rule="evenodd" d="M57.7415 26.9057H4.0721V48.2674H57.7415V26.9057ZM0.0115967 22.8452V52.328H61.8019V22.8452H0.0115967Z" fill="white"/>
<path d="M51.8534 35.3141C53.2494 35.3141 54.3811 34.1824 54.3811 32.7864C54.3811 31.3905 53.2494 30.2588 51.8534 30.2588C50.4574 30.2588 49.3257 31.3905 49.3257 32.7864C49.3257 34.1824 50.4574 35.3141 51.8534 35.3141Z" fill="#77D14D"/>
</svg>
