<?xml version="1.0" encoding="utf-8"?>
<!-- Generator: Adobe Illustrator 28.1.0, SVG Export Plug-In . SVG Version: 6.00 Build 0)  -->
<svg version="1.1" id="Шар_1" xmlns="http://www.w3.org/2000/svg" xmlns:xlink="http://www.w3.org/1999/xlink" x="0px" y="0px"
	 viewBox="0 0 19 28.6" style="enable-background:new 0 0 19 28.6;" xml:space="preserve">
<style type="text/css">
	.st0{fill:#FFFFFF;}
</style>
<g>
	<path class="st0" d="M15.6,12.3l-0.8,7l-2.8,0v0.8c0,1.1-1.2,2.1-2.6,2.1c-1.4,0-2.7-1-2.7-2.1v-0.8H4.2l-0.8-7H1.8c0,0,0,0,0,0
		l0.9,8.2l0,0.4l0.6,5.2c0.2,1.4,1.4,2.5,2.8,2.5h6.8c1.4,0,2.6-1.1,2.8-2.5l1.5-13.8H15.6z M14.1,25.9C14,26.5,13.5,27,12.9,27H6.1
		c-0.6,0-1.1-0.5-1.2-1.1l-0.6-5h1c0.4,1.6,2.1,2.9,4.2,2.9c2,0,3.7-1.2,4.1-2.9h1.1L14.1,25.9z"/>
</g>
<g>
	<path class="st0" d="M13.4,0v1.6c0.5,0,0.8-0.4,0.8-0.8S13.8,0,13.4,0z"/>
	<path class="st0" d="M13.4,0v1.6h-1.9c-0.7,0-1.2,0.5-1.2,1.2v1.1H8.7V2.8C8.7,1.3,10,0,11.5,0H13.4z"/>
</g>
<g>
	<path class="st0" d="M17.2,7.2h-0.4c0-0.3,0-0.6-0.1-0.9L16.1,5c-0.3-0.7-0.9-1.1-1.7-1.1H4.5c-0.7,0-1.4,0.5-1.7,1.2L2.3,6.4
		C2.2,6.7,2.1,7,2.2,7.2H1.8C0.8,7.2,0,8,0,9v1.5c0,1,0.8,1.8,1.8,1.8c0,0,0,0,0,0h15.4c1,0,1.8-0.8,1.8-1.8V9
		C19,8,18.2,7.2,17.2,7.2z M3.8,7l0.5-1.3c0-0.1,0.1-0.1,0.2-0.1h9.9c0.1,0,0.2,0.1,0.2,0.1L15.2,7c0,0.1,0,0.1,0,0.2
		c0,0-0.1,0.1-0.2,0.1H4c-0.1,0-0.1,0-0.2-0.1C3.8,7.1,3.8,7,3.8,7z M17.4,10.5c0,0.1-0.1,0.2-0.2,0.2H1.8c-0.1,0-0.2-0.1-0.2-0.2V9
		c0-0.1,0.1-0.2,0.2-0.2h15.4c0.1,0,0.2,0.1,0.2,0.2V10.5z"/>
</g>
</svg>
