<?xml version="1.0" encoding="utf-8"?>
<!-- Generator: Adobe Illustrator 28.1.0, SVG Export Plug-In . SVG Version: 6.00 Build 0)  -->
<svg version="1.1" id="Шар_1" xmlns="http://www.w3.org/2000/svg" xmlns:xlink="http://www.w3.org/1999/xlink" x="0px" y="0px"
	 viewBox="0 0 28 24" style="enable-background:new 0 0 28 24;" xml:space="preserve">
<style type="text/css">
	.st0{fill:#FFFFFF;}
</style>
<g>
	<path class="st0" d="M25,7.2h-0.8c2.4-3.3,1.8-4.1,1.5-4.4c-0.2-0.2-0.4-0.4-0.7-0.4c0.2-0.3,0.2-0.5,0.2-0.9
		c-0.2-0.9-1.3-1.1-2.3-1.2c-3.4-0.5-6.7,1.3-7.9,2.1c0.3,0.2,0.5,0.5,0.6,0.8c0.1,0.2,0.1,0.4,0.2,0.6c1-0.6,4-2.3,6.9-1.9
		c0.2,0,0.3,0.1,0.5,0.1c-0.3,0.2-0.6,0.4-0.9,0.6c-1.4,0.8-3.3,2-4.4,3.6c-0.3,0.4-0.5,0.7-0.6,0.9c0,0.1-0.1,0.1-0.2,0.2H3
		c-1.5,0-2.8,1.3-2.8,2.8v1.8c0,0.7,0.2,1.3,0.7,1.8l5.7,6.6c0.1,0.1,0.2,0.3,0.2,0.4l0.4,1.2c0.4,1.2,1.4,2,2.7,2H19
		c1.2,0,2.3-0.8,2.7-2l0.4-1.3c0-0.1,0.1-0.3,0.2-0.4l5-6.7c0.4-0.5,0.6-1.1,0.6-1.7V10C27.8,8.5,26.5,7.2,25,7.2z M23.5,4.4
		c0.3-0.1,0.5-0.2,0.7-0.3c-0.3,0.6-0.9,1.7-2,3.1h-2.8C20.3,6.4,21.7,5.3,23.5,4.4z M21,19.2c-0.2,0.2-0.3,0.5-0.4,0.8l-0.4,1.3
		c-0.2,0.5-0.6,0.8-1.2,0.8H9.9c-0.5,0-1-0.3-1.2-0.8l-0.4-1.2c-0.1-0.4-0.3-0.7-0.6-1l-4.6-5.4H25L21,19.2z M26.2,11.8
		c0,0.1,0,0.2-0.1,0.4H1.8c0-0.1-0.1-0.3-0.1-0.4V10c0-0.7,0.5-1.2,1.2-1.2h22c0.7,0,1.2,0.5,1.2,1.2V11.8z"/>
</g>
<g>
	<path class="st0" d="M14.5,6.4c-0.2,0.2-0.4,0.5-0.6,0.8c0,0,0.1,0,0.2,0h-1.9c0.1-0.6,0.5-1.2,1-1.8c0.4-0.5,1-1.3,0.9-1.6
		c0-0.1-0.4-0.7-3.8-1c1,0.9,2.1,2.5,0.9,4.4H8.4C8.3,7.1,8.2,7.1,8.1,7c-0.8-0.7-2-1.7-3.9-2.8C4.1,4.1,3.9,4.1,3.8,4
		c0.3,0.7,0.9,1.8,2,3.2h-2C1.4,3.7,2,2.9,2.3,2.6C3,1.8,4.4,2.5,5,2.8c2.1,1.1,3.4,2.2,4.2,3C9.4,6,9.7,6.2,9.9,6.4
		c0.6-1,0.1-1.8-1.2-2.9C8.1,3,7.6,2.5,7.8,1.9c0.3-0.8,1.3-0.7,2.2-0.6c2.4,0.1,4,0.5,4.8,1.1c0.3,0.2,0.5,0.5,0.6,0.8
		c0.1,0.2,0.1,0.4,0.2,0.6C15.8,4.7,15,5.6,14.5,6.4z"/>
</g>
</svg>
