<?xml version="1.0" encoding="utf-8"?>
<!-- Generator: Adobe Illustrator 28.1.0, SVG Export Plug-In . SVG Version: 6.00 Build 0)  -->
<svg version="1.1" id="Шар_1" xmlns="http://www.w3.org/2000/svg" xmlns:xlink="http://www.w3.org/1999/xlink" x="0px" y="0px"
	 viewBox="0 0 35.2 26" style="enable-background:new 0 0 35.2 26;" xml:space="preserve">
<style type="text/css">
	.st0{fill:#FFFFFF;}
</style>
<g>
	<path class="st0" d="M31.9,12.3v4.9c0,3.2-2.6,5.8-5.8,5.8H20v-1.6h6.1c2.3,0,4.2-1.9,4.2-4.2v-4.9H31.9z"/>
</g>
<g>
	<path class="st0" d="M29.7,4.4l-3.3-0.3c-1.6-0.1-3.2-0.2-4.8-0.3c-0.5,0-1.1,0-1.6,0v1.6c0.5,0,1.1,0,1.6,0.1
		c1.6,0,3.1,0.2,4.7,0.3L29.5,6c2.3,0.2,4.1,2.1,4.1,4.4c0,0.2-0.1,0.4-0.2,0.5S33.1,11,32.9,11L32,10.9c-3.5-0.4-6.9-0.7-10.4-0.8
		c-0.5,0-1.1,0-1.6,0v1.6c0.5,0,1.1,0,1.6,0c2.9,0.1,5.8,0.3,8.7,0.6v0h1.6v0.2l0.8,0.1c0.1,0,0.2,0,0.3,0c0.5,0,1.1-0.2,1.5-0.6
		c0.5-0.4,0.7-1,0.7-1.7C35.2,7.2,32.8,4.6,29.7,4.4z"/>
	<path class="st0" d="M1.6,10.4c0,0.2,0.1,0.4,0.2,0.5C2,11,2.1,11,2.3,11l0.9-0.1c3.1-0.4,6.3-0.6,9.4-0.7c0.5,0,1.1,0,1.6,0v1.6
		c-0.5,0-1.1,0-1.6,0.1c-3,0.1-6,0.3-9,0.7v4.7c0,2.3,1.9,4.2,4.2,4.2h6.4V23H7.8C4.6,23,2,20.4,2,17.2v-4.6c-0.5,0-0.9-0.2-1.3-0.5
		C0.3,11.6,0,11,0,10.4c0-3.2,2.4-5.8,5.5-6l3.2-0.3c1.3-0.1,2.5-0.2,3.8-0.2c0.5,0,1.1,0,1.6-0.1v1.6c-0.5,0-1.1,0-1.6,0.1
		c-1.2,0-2.5,0.1-3.7,0.2L5.7,6C3.4,6.1,1.6,8,1.6,10.4z"/>
</g>
<g>
	<path class="st0" d="M18.6,0h-3c-1.7,0-3,1.4-3,3v20c0,1.7,1.3,3,3,3h3c1.7,0,3-1.3,3-3V3C21.6,1.4,20.3,0,18.6,0z M20,23
		c0,0.8-0.6,1.4-1.4,1.4h-3c-0.8,0-1.4-0.6-1.4-1.4V3c0-0.8,0.6-1.4,1.4-1.4h3C19.4,1.6,20,2.2,20,3V23z"/>
</g>
</svg>
