<?xml version="1.0" encoding="utf-8"?>
<!-- Generator: Adobe Illustrator 28.1.0, SVG Export Plug-In . SVG Version: 6.00 Build 0)  -->
<svg version="1.1" id="Шар_1" xmlns="http://www.w3.org/2000/svg" xmlns:xlink="http://www.w3.org/1999/xlink" x="0px" y="0px"
	 viewBox="0 0 29.7 28" style="enable-background:new 0 0 29.7 28;" xml:space="preserve">
<style type="text/css">
	.st0{fill:#FFFFFF;}
</style>
<g>
	<path class="st0" d="M4,26.4c-0.8,0-1.5-0.3-1.9-0.9c-0.5-0.6-0.6-1.4-0.4-2.1l2.8-10.3C4.7,13.5,5,13.8,5.4,14
		c0.8,0.6,1.7,0.8,2.8,0.8c1.2,0,2.4-0.2,3.7-0.5c1.2-0.2,2.4-0.5,3.6-0.5l1,3.6h1.7l-2.6-9.6c-0.3-1.1-1.1-2-2.1-2.5l1.2-2.3
		c0.3-0.6,0.3-1.4-0.1-2c-0.4-0.6-1-1-1.7-1H6.9C6.2,0,5.6,0.4,5.2,1c-0.4,0.6-0.4,1.3-0.1,2l1.2,2.3c-1,0.5-1.8,1.4-2.1,2.5
		l-0.7,2.4l0,0.1L0.1,23c-0.3,1.2-0.1,2.5,0.7,3.5C1.6,27.4,2.7,28,4,28h11.7c0.6,0,1.2-0.1,1.8-0.4c-0.9-0.3-1.7-0.7-2.4-1.2H4z
		 M6.6,1.8c0-0.1,0.1-0.2,0.3-0.2h5.9c0.2,0,0.3,0.1,0.3,0.2c0,0.1,0.1,0.2,0,0.4l-1.4,2.7c-0.1,0-0.1,0-0.2,0H8.2
		c-0.1,0-0.1,0-0.2,0L6.6,2.2C6.5,2,6.5,1.9,6.6,1.8z M5.8,8.2c0.2-0.8,0.9-1.4,1.6-1.7c0.2-0.1,0.5-0.1,0.7-0.1h3.4
		c0.2,0,0.5,0,0.7,0.1c0.8,0.2,1.4,0.8,1.6,1.7l1.1,4c-1.1,0.1-2.3,0.3-3.4,0.5c-2.1,0.4-4.1,0.8-5.2,0c-0.6-0.4-0.9-1.2-1.1-2.3
		L5.8,8.2z"/>
</g>
<g>
	<path class="st0" d="M27.9,17.4H13.1c-1,0-1.8,0.8-1.8,1.8c0,3,1.5,5.6,3.8,7.2c0.7,0.5,1.5,0.9,2.4,1.2c0.8,0.3,1.7,0.4,2.7,0.4
		h0.6c4.9,0,8.8-4,8.8-8.8C29.7,18.2,28.9,17.4,27.9,17.4z M20.8,26.4h-0.6c-0.4,0-0.8,0-1.2-0.1c-0.6-0.1-1.2-0.3-1.7-0.5
		c-2.6-1.1-4.4-3.7-4.4-6.7c0-0.1,0.1-0.2,0.2-0.2h14.8c0.1,0,0.2,0.1,0.2,0.2C28.1,23.2,24.8,26.4,20.8,26.4z"/>
</g>
</svg>
