<svg width="58" height="60" viewBox="0 0 58 60" fill="none" xmlns="http://www.w3.org/2000/svg">
<path d="M33.7557 14.1677C33.6683 14.6276 33.5275 15.0779 33.4821 15.5456C33.3282 15.9461 33.2801 16.3762 33.1822 16.7924C32.4827 20.1175 31.7255 23.4312 31.0602 26.7632C31.4186 26.4362 31.7614 26.0935 32.1094 25.7534C34.5269 23.3682 36.9899 21.0294 39.3864 18.6232C40.4399 17.6326 41.4568 16.6044 42.4964 15.599C43.8804 14.2516 45.2723 12.9139 46.6319 11.5421C45.8853 10.8094 45.0468 10.1799 44.2048 9.5626C41.6194 7.71428 38.7035 6.32673 35.6285 5.51797C34.9806 8.39538 34.3817 11.285 33.7557 14.1677ZM18.0047 6.82946C12.6582 9.16304 8.12922 13.303 5.3034 18.4047C2.19605 23.9697 1.23516 30.6706 2.56763 36.8967C3.33879 40.5662 4.91083 44.0626 7.13337 47.0799C10.3465 51.462 14.907 54.8527 20.0585 56.597C24.0883 57.967 28.4459 58.3526 32.6558 57.731C35.8139 57.2649 38.888 56.2227 41.6762 54.6682C46.8741 51.7768 51.0718 47.1131 53.3599 41.6189C56.1516 34.9976 56.0965 27.2388 53.2104 20.6587C51.9889 17.8582 50.2814 15.2702 48.183 13.0503C47.9137 13.2426 47.6724 13.4717 47.445 13.713C45.2881 15.8394 43.0961 17.9299 40.954 20.0711C39.9328 20.9962 38.9754 21.9894 37.9787 22.9415C35.4528 25.408 32.9269 27.8736 30.4001 30.3392C30.2278 30.4931 30.1806 30.7283 30.1334 30.9442C29.6569 33.2306 29.1471 35.51 28.6698 37.7963C28.6068 38.188 28.3192 38.5605 27.917 38.6366C27.3364 38.7869 26.6938 38.2352 26.7935 37.6355C27.0601 36.0713 27.4973 34.5395 27.75 32.9709C26.8144 33.7648 25.9987 34.6872 25.0903 35.5117C24.7038 35.8693 24.0472 35.8527 23.6826 35.4706C23.2743 35.0947 23.2656 34.397 23.6608 34.0079C24.7843 32.8783 25.9471 31.7871 27.0741 30.6592C27.5602 30.174 28.0953 29.7307 28.5325 29.1991C28.7301 28.7864 28.7686 28.316 28.8735 27.8745C29.3657 25.589 29.8615 23.3044 30.3493 21.0171C30.7489 19.049 31.2272 17.0967 31.597 15.1224C31.8689 13.9631 32.1137 12.7967 32.3594 11.6321C32.8149 9.44982 33.3317 7.27974 33.7461 5.09043C28.4835 4.07359 22.9176 4.68387 18.0047 6.82946ZM34.7079 0.742406C34.7848 0.369069 35.1066 0.0665522 35.4834 0.014967C36.0552 -0.097821 36.6559 0.445135 36.5658 1.02831C36.4329 1.88078 36.1785 2.71051 36.0543 3.56473C39.2115 4.42069 42.2306 5.79776 44.9287 7.64871C46.0487 8.39276 47.0665 9.27233 48.0938 10.1353C49.9299 8.35254 51.7555 6.55842 53.5898 4.7748C53.9378 4.42069 54.5367 4.35162 54.9398 4.65152C55.3218 4.91381 55.4932 5.43928 55.3245 5.87382C55.2047 6.18858 54.9328 6.40017 54.7028 6.63274C53.3345 7.96958 51.9601 9.30206 50.5952 10.6433C50.2578 10.9685 49.9063 11.2815 49.6081 11.6444C51.7257 13.929 53.5085 16.5301 54.8025 19.3655C57.86 25.9711 58.2264 33.7508 55.8578 40.6265C54.0261 45.9835 50.555 50.7591 46.0435 54.1751C43.3969 56.179 40.4067 57.7353 37.232 58.7102C30.2846 60.8908 22.5066 60.2884 15.9859 57.0402C10.9306 54.5458 6.64287 50.5256 3.83016 45.6399C1.40041 41.4458 0.0749304 36.623 0.00410999 31.7757C-0.0658361 27.6646 0.757779 23.5387 2.4155 19.7739C4.55235 14.9039 8.07676 10.6581 12.4641 7.65308C15.0548 5.87295 17.9383 4.51774 20.9678 3.67927C24.6968 2.64232 28.6348 2.36166 32.4713 2.86964C33.0466 2.93084 33.6097 3.06112 34.1841 3.13106C34.3747 2.3398 34.5181 1.53629 34.7079 0.742406Z" fill="white"/>
<path d="M22.2649 16.1015C25.2052 14.9159 28.4752 14.5924 31.5966 15.1258C31.2267 17.1 30.7485 19.0524 30.3489 21.0205C29.8602 23.3068 29.3653 25.5923 28.873 27.8778C28.7681 28.3194 28.7288 28.7897 28.5312 29.2024C28.094 29.7349 27.5589 30.1773 27.0728 30.6634C25.9467 31.7904 24.7838 32.8816 23.6594 34.0112C23.2642 34.4003 23.273 35.098 23.6813 35.474C24.0459 35.856 24.7025 35.8727 25.089 35.5151C25.9974 34.6906 26.8131 33.769 27.7487 32.9751C27.496 34.5437 27.0588 36.0746 26.7921 37.6397C26.6925 38.2395 27.3351 38.792 27.9157 38.6408C28.3178 38.5647 28.6055 38.1931 28.6685 37.8014C29.145 35.5151 29.6556 33.2357 30.1321 30.9485C30.1793 30.7325 30.2265 30.4973 30.3987 30.3434C32.9264 27.8778 35.4523 25.4122 37.9783 22.9457C38.975 21.9936 39.9315 20.9995 40.9527 20.0745C43.198 22.3127 44.7508 25.2251 45.4389 28.3159C46.1401 31.4459 45.9478 34.7728 44.8688 37.7953C43.8992 40.5512 42.2039 43.0439 40.0093 44.97C37.7658 46.9469 34.9977 48.33 32.0626 48.9089C28.3957 49.6407 24.4874 49.1711 21.1283 47.5187C18.3969 46.1923 16.0344 44.1254 14.3505 41.6021C12.0877 38.2447 11.0936 34.0689 11.5763 30.0514C11.9242 27.0385 13.095 24.1261 14.9284 21.7095C16.8047 19.2202 19.3691 17.2548 22.2649 16.1015Z" fill="#E30613"/>
<path d="M33.1854 16.7898C33.2842 16.3736 33.3314 15.9434 33.4853 15.543C35.6212 16.1908 37.6462 17.2225 39.3887 18.6206C36.9931 21.0267 34.5292 23.3656 32.1117 25.7507C31.7637 26.09 31.4218 26.4336 31.0625 26.7606C31.7287 23.4285 32.4868 20.1157 33.1854 16.7898Z" fill="#E62829"/>
</svg>
