<svg width="20" height="30" viewBox="0 0 20 30" fill="none" xmlns="http://www.w3.org/2000/svg">
<path d="M2.55273 12.1962L4.16937 26.7209C4.28209 27.7336 5.13815 28.4996 6.1571 28.4996H12.9778C13.9967 28.4996 14.8527 27.7336 14.9655 26.721L16.5833 12.1953" stroke="white" stroke-width="1.6" stroke-miterlimit="10"/>
<path d="M13.4345 2.3C13.8764 2.3 14.2345 1.94183 14.2345 1.5C14.2345 1.05817 13.8764 0.7 13.4345 0.7V2.3ZM10.3537 5.42668V3.5H8.75371V5.42668H10.3537ZM11.5537 2.3H13.4345V0.7H11.5537V2.3ZM10.3537 3.5C10.3537 2.83726 10.891 2.3 11.5537 2.3V0.7C10.0073 0.7 8.75371 1.95361 8.75371 3.5H10.3537Z" fill="white"/>
<path d="M2.75486 20.7858L4.40809 20.7858L6.06132 20.7858L6.06132 20.7943C6.06132 22.3807 7.61104 23.6787 9.50523 23.6787C11.3994 23.6787 12.9492 22.3807 12.9492 20.7943L12.9492 20.7858L14.602 20.7858L16.2549 20.7858" stroke="white" stroke-width="1.6" stroke-miterlimit="10"/>
<path d="M0.863281 9.73061C0.863281 9.17833 1.311 8.73061 1.86328 8.73061H17.2706C17.8228 8.73061 18.2706 9.17833 18.2706 9.73061V11.1959C18.2706 11.7481 17.8228 12.1959 17.2706 12.1959H1.86328C1.311 12.1959 0.863281 11.7481 0.863281 11.1959V9.73061ZM3.09263 7.36923C2.83862 8.02461 3.32217 8.73061 4.02504 8.73061H15.0393C15.7606 8.73061 16.2446 7.99022 15.9553 7.3295L15.3844 6.02565C15.2251 5.66182 14.8656 5.42676 14.4684 5.42676H4.53038C4.11755 5.42676 3.74715 5.68045 3.59796 6.06538L3.09263 7.36923Z" stroke="#ED1A21" stroke-width="1.6" stroke-miterlimit="10"/>
</svg>
