<svg width="6" height="12" viewBox="0 0 6 12" fill="none" xmlns="http://www.w3.org/2000/svg">
<path d="M3.94741 4.42487V3.03097C3.94741 2.5241 4.26991 2.39738 4.51179 2.39738C4.75366 2.39738 5.92272 2.39738 5.92272 2.39738V0.0742188H3.98773C1.81086 0.0742188 1.28679 1.80603 1.28679 2.90425V4.42487H0.0371094V6.79027H1.28679C1.28679 9.8315 1.28679 11.9261 1.28679 11.9261H3.94741C3.94741 11.9261 3.94741 9.78926 3.94741 6.79027H5.72116L5.96303 4.42487H3.94741Z" fill="white"/>
<path d="M3.94741 4.42487V3.03097C3.94741 2.5241 4.26991 2.39738 4.51179 2.39738C4.75366 2.39738 5.92272 2.39738 5.92272 2.39738V0.0742188H3.98773C1.81086 0.0742188 1.28679 1.80603 1.28679 2.90425V4.42487H0.0371094V6.79027H1.28679C1.28679 9.8315 1.28679 11.9261 1.28679 11.9261H3.94741C3.94741 11.9261 3.94741 9.78926 3.94741 6.79027H5.72116L5.96303 4.42487H3.94741Z" fill="white"/>
</svg>
