<svg width="36" height="30" viewBox="0 0 36 30" fill="none" xmlns="http://www.w3.org/2000/svg">
<path d="M25.1667 12.208C30.2293 12.208 34.3333 9.74557 34.3333 6.70801C34.3333 3.67044 30.2293 1.20801 25.1667 1.20801C20.1041 1.20801 16 3.67044 16 6.70801C16 9.74557 20.1041 12.208 25.1667 12.208Z" stroke="white" stroke-width="1.6"/>
<path d="M25.167 9.45801C28.2046 9.45801 30.667 8.22679 30.667 6.70801C30.667 5.18922 28.2046 3.95801 25.167 3.95801C22.1294 3.95801 19.667 5.18922 19.667 6.70801C19.667 8.22679 22.1294 9.45801 25.167 9.45801Z" fill="#ED1A21"/>
<path d="M16 6.70801V17.708C16 20.7458 20.1039 23.208 25.1667 23.208C30.2294 23.208 34.3333 20.7458 34.3333 17.708V6.70801" stroke="white" stroke-width="1.6"/>
<path d="M18.4167 9.54167C18.1678 9.54167 16.8486 9.1896 15.549 8.48546C14.5372 7.93727 13.188 7.97455 12.4679 8.87217C11.2812 10.3515 9.96474 12.1831 9.70842 13.2083C9.25008 15.0417 7.87508 18.7083 8.79175 23.2917C9.70842 27.875 11.5418 28.7917 13.8334 28.7917C15.2589 28.7917 17.1461 26.9445 18.418 25.8353C18.9589 25.3636 19.3345 24.6859 19.3236 23.9683C19.2484 19.0152 18.7547 9.54167 18.4167 9.54167Z" fill="#151515"/>
<path d="M10.1667 17.791C15.2293 17.791 19.3333 15.3286 19.3333 12.291C19.3333 9.25345 15.2293 6.79102 10.1667 6.79102C5.10406 6.79102 1 9.25345 1 12.291C1 15.3286 5.10406 17.791 10.1667 17.791Z" stroke="white" stroke-width="1.6"/>
<path d="M10.167 15.041C13.2046 15.041 15.667 13.8098 15.667 12.291C15.667 10.7722 13.2046 9.54102 10.167 9.54102C7.12943 9.54102 4.66699 10.7722 4.66699 12.291C4.66699 13.8098 7.12943 15.041 10.167 15.041Z" fill="#ED1A21"/>
<path d="M1 12.291V23.291C1 26.3288 5.10392 28.791 10.1667 28.791C15.2294 28.791 19.3333 26.3288 19.3333 23.291V12.291" stroke="white" stroke-width="1.6"/>
</svg>
