<svg width="36" height="26" viewBox="0 0 36 26" fill="none" xmlns="http://www.w3.org/2000/svg">
<path d="M3.56348 12.3076V17.1538C3.56348 19.9152 5.80205 22.1538 8.56348 22.1538H26.8712C29.6326 22.1538 31.8712 19.9152 31.8712 17.1538V12.3076" stroke="#6C6C6C" stroke-width="1.6"/>
<path d="M6.32503 5.14626C3.6149 5.37789 1.53301 7.64532 1.53301 10.3653C1.53301 11.2224 2.27994 11.8881 3.13139 11.7899L3.9967 11.69C13.5226 10.5909 23.1434 10.5909 32.6693 11.69L33.5346 11.7899C34.3861 11.8881 35.133 11.2224 35.133 10.3653C35.133 7.64532 33.0511 5.37789 30.341 5.14626L27.0847 4.86794C21.2609 4.37018 15.4052 4.37018 9.58132 4.86794L6.32503 5.14626Z" stroke="#6C6C6C" stroke-width="1.6"/>
<rect x="14.133" y="0.8" width="7.4" height="24.4" rx="2.2" fill="#151515" stroke="#ED1A21" stroke-width="1.6"/>
</svg>
