<?xml version="1.0" encoding="utf-8"?>
<!-- Generator: Adobe Illustrator 28.1.0, SVG Export Plug-In . SVG Version: 6.00 Build 0)  -->
<svg version="1.1" id="Шар_1" xmlns="http://www.w3.org/2000/svg" xmlns:xlink="http://www.w3.org/1999/xlink" x="0px" y="0px"
	 viewBox="0 0 29 28" style="enable-background:new 0 0 29 28;" xml:space="preserve">
<style type="text/css">
	.st0{fill:#FFFFFF;}
</style>
<g>
	<path class="st0" d="M9.3,28h-5c-2.2,0-4-1.8-4-4v-5c0-2.2,1.8-4,4-4h5c2.2,0,4,1.8,4,4v5C13.3,26.2,11.5,28,9.3,28z M4.3,16.6
		c-1.3,0-2.4,1.1-2.4,2.4v5c0,1.3,1.1,2.4,2.4,2.4h5c1.3,0,2.4-1.1,2.4-2.4v-5c0-1.3-1.1-2.4-2.4-2.4H4.3z"/>
</g>
<g>
	<path class="st0" d="M8.1,24.8H5.6c-1.1,0-2-0.9-2-2v-2.5c0-1.1,0.9-2,2-2h2.5c1.1,0,2,0.9,2,2v2.5C10.1,23.9,9.2,24.8,8.1,24.8z
		 M5.6,19.9c-0.2,0-0.4,0.2-0.4,0.4v2.5c0,0.2,0.2,0.4,0.4,0.4h2.5c0.2,0,0.4-0.2,0.4-0.4v-2.5c0-0.2-0.2-0.4-0.4-0.4H5.6z"/>
</g>
<g>
	<path class="st0" d="M24.3,13h-5c-2.2,0-4-1.8-4-4V4c0-2.2,1.8-4,4-4h5c2.2,0,4,1.8,4,4v5C28.3,11.2,26.5,13,24.3,13z M19.4,1.6
		C18,1.6,17,2.7,17,4v5c0,1.3,1.1,2.4,2.4,2.4h5c1.3,0,2.4-1.1,2.4-2.4V4c0-1.3-1.1-2.4-2.4-2.4C24.4,1.6,19.4,1.6,19.4,1.6z"/>
</g>
<g>
	<path class="st0" d="M23.1,9.7h-2.5c-1.1,0-2-0.9-2-2V5.2c0-1.1,0.9-2,2-2h2.5c1.1,0,2,0.9,2,2v2.5C25.1,8.8,24.2,9.7,23.1,9.7z
		 M20.6,4.8c-0.2,0-0.4,0.2-0.4,0.4v2.5c0,0.2,0.2,0.4,0.4,0.4h2.5c0.2,0,0.4-0.2,0.4-0.4V5.2c0-0.2-0.2-0.4-0.4-0.4
		C23.1,4.8,20.6,4.8,20.6,4.8z"/>
</g>
<g>
	<path class="st0" d="M21.8,24.8c-1.8,0-3.2-1.5-3.2-3.2s1.5-3.2,3.2-3.2s3.2,1.5,3.2,3.2S23.6,24.8,21.8,24.8z M21.8,19.9
		c-0.9,0-1.6,0.7-1.6,1.6s0.7,1.6,1.6,1.6s1.6-0.7,1.6-1.6S22.8,19.9,21.8,19.9z"/>
</g>
<g>
	<path class="st0" d="M21.8,28c-3.6,0-6.5-2.9-6.5-6.5s2.9-6.5,6.5-6.5s6.5,2.9,6.5,6.5S25.4,28,21.8,28z M21.8,16.6
		c-2.7,0-4.9,2.2-4.9,4.9s2.2,4.9,4.9,4.9s4.9-2.2,4.9-4.9S24.5,16.6,21.8,16.6z"/>
</g>
<g>
	<path class="st0" d="M6.8,9.7C5,9.7,3.6,8.3,3.6,6.5s1.5-3.2,3.2-3.2S10,4.8,10,6.5C10.1,8.3,8.6,9.7,6.8,9.7z M6.8,4.8
		c-0.9,0-1.6,0.7-1.6,1.6S5.9,8,6.8,8s1.6-0.7,1.6-1.6C8.5,5.6,7.7,4.8,6.8,4.8z"/>
</g>
<g>
	<path class="st0" d="M6.8,13c-3.6,0-6.5-2.9-6.5-6.5S3.2,0,6.8,0s6.5,2.9,6.5,6.5S10.4,13,6.8,13z M6.8,1.6c-2.7,0-4.9,2.2-4.9,4.9
		s2.2,4.9,4.9,4.9s4.9-2.2,4.9-4.9S9.5,1.6,6.8,1.6z"/>
</g>
</svg>
