<svg width="14" height="17" viewBox="0 0 14 17" fill="none" xmlns="http://www.w3.org/2000/svg">
<path d="M13.4076 7.03452V4.29255C9.88654 4.14231 9.79437 0.893263 9.79437 0.592773H7.08448V11.2038C7.08448 12.4058 6.12588 13.3824 4.92763 13.3824C3.74782 13.3824 2.78922 12.4058 2.78922 11.2038C2.78922 10.0019 3.76625 9.02527 4.94607 9.02527C5.14885 9.02527 5.37007 9.06283 5.57285 9.11917V6.30208C2.89983 5.94525 0.466459 7.86087 0.116201 10.5653C-0.234056 13.2697 1.64627 15.7487 4.30086 16.1056C6.95544 16.4624 9.40724 14.5468 9.73907 11.8424C9.77594 11.5419 9.77593 11.2789 9.77593 10.9972V5.75744C11.0295 6.92184 13.4076 7.03452 13.4076 7.03452Z" fill="white"/>
</svg>
