<?xml version="1.0" encoding="utf-8"?>
<!-- Generator: Adobe Illustrator 28.1.0, SVG Export Plug-In . SVG Version: 6.00 Build 0)  -->
<svg version="1.1" id="Шар_1" xmlns="http://www.w3.org/2000/svg" xmlns:xlink="http://www.w3.org/1999/xlink" x="0px" y="0px"
	 viewBox="0 0 34.9 29.2" style="enable-background:new 0 0 34.9 29.2;" xml:space="preserve">
<style type="text/css">
	.st0{fill:#FFFFFF;}
</style>
<g>
	<path class="st0" d="M25,9.1c3,0,5.5-1.2,5.5-2.8c0-1.5-2.5-2.8-5.5-2.8s-5.5,1.2-5.5,2.8C19.5,7.8,21.9,9.1,25,9.1z"/>
</g>
<g>
	<path class="st0" d="M15.5,11.9c0,0.4-0.2,0.8-0.5,1.1c-0.9,1-2.8,1.6-5,1.6c-3,0-5.5-1.2-5.5-2.8c0-1.5,2.5-2.8,5.5-2.8
		c2.2,0,4.2,0.7,5,1.6C15.3,11.1,15.5,11.5,15.5,11.9z"/>
</g>
<g>
	<path class="st0" d="M25,0c-5.6,0-10,2.8-10,6.3v0.1c-1.5-0.5-3.2-0.8-5-0.8c-5.6,0-10,2.8-10,6.3v11c0,3.5,4.4,6.3,10,6.3
		c5.6,0,10-2.8,10-6.3v-0.1c1.5,0.5,3.2,0.8,5,0.8c5.6,0,10-2.8,10-6.3v-11C34.9,2.8,30.6,0,25,0z M18.3,22.9c0,2.5-3.8,4.7-8.4,4.7
		c-4.5,0-8.4-2.1-8.4-4.7v-7.5c1.8,1.7,4.8,2.8,8.4,2.8c1.8,0,3.6-0.3,5-0.8c0.6-0.2,1.1-0.4,1.6-0.7c0.7-0.4,1.2-0.8,1.7-1.3V22.9z
		 M16.6,14.7c-0.5,0.3-1,0.6-1.6,0.9c-1.4,0.6-3.2,1-5,1c-4.5,0-8.4-2.1-8.4-4.7c0-2.5,3.8-4.7,8.4-4.7c1.9,0,3.6,0.4,5,1
		c0.2,0.1,0.4,0.2,0.6,0.3c0.4,0.2,0.7,0.4,1,0.6c0.7,0.5,1.3,1.2,1.5,1.9c0.1,0.3,0.2,0.6,0.2,1C18.3,12.9,17.7,13.9,16.6,14.7z
		 M33.3,17.3c0,2.5-3.8,4.7-8.4,4.7c-1.9,0-3.6-0.4-5-1v-9.3c1.5,0.5,3.2,0.8,5,0.8c3.5,0,6.6-1.1,8.4-2.8V17.3z M25,11
		c-2.1,0-4.1-0.5-5.6-1.2c-0.5-1-1.4-1.8-2.6-2.5v0c-0.1-0.3-0.2-0.6-0.2-0.9c0-2.5,3.8-4.7,8.4-4.7c4.5,0,8.4,2.2,8.4,4.7
		S29.5,11,25,11z"/>
</g>
</svg>
