<svg width="32" height="28" viewBox="0 0 32 28" fill="none" xmlns="http://www.w3.org/2000/svg">
<path d="M7.27722 7.98207C7.658 6.59141 8.92177 5.62715 10.3636 5.62715H13.7769C15.2187 5.62715 16.4825 6.59141 16.8633 7.98206L21.0176 23.1545C21.5752 25.1908 20.0426 27.1996 17.9312 27.1996H6.20927C4.09793 27.1996 2.56529 25.1909 3.12287 23.1545L7.27722 7.98207Z" stroke="#6C6C6C" stroke-width="1.6"/>
<path d="M14.6166 5.32125C14.4085 5.71353 14.0007 5.95879 13.5566 5.95879L10.5831 5.95879C10.139 5.95879 9.7312 5.71353 9.52305 5.32125L8.0593 2.56262C7.63521 1.76339 8.21453 0.800169 9.11931 0.800169L15.0204 0.800169C15.9252 0.800169 16.5045 1.76339 16.0804 2.56263L14.6166 5.32125Z" stroke="#6C6C6C" stroke-width="1.6"/>
<path d="M6.9668 10C7.65276 16.5783 13.1668 13 17.9668 13" stroke="#6C6C6C" stroke-width="1.6"/>
<path d="M31.0633 19.1494C31.0633 23.5956 27.4589 27.2 23.0127 27.2L22.369 27.2C17.9228 27.2 14.3185 23.5956 14.3185 19.1494C14.3185 18.6136 14.7528 18.1793 15.2886 18.1793L30.0932 18.1793C30.6289 18.1793 31.0633 18.6136 31.0633 19.1494Z" fill="#151515" stroke="#ED1A21" stroke-width="1.6"/>
</svg>
