<svg width="16" height="16" viewBox="0 0 16 16" fill="none" xmlns="http://www.w3.org/2000/svg">
<path d="M8.00675 4.3311C7.88012 4.3311 7.75487 4.33756 7.63147 4.3502C7.50806 4.36284 7.38637 4.38157 7.26675 4.40616C7.14713 4.43075 7.02963 4.46119 6.91448 4.49713L6.57652 4.62123L6.25475 4.7766L5.95111 4.96136L5.6674 5.17356L5.4056 5.41137L5.16756 5.67294L4.95512 5.95633L4.77013 6.25969L4.61467 6.5811C4.56793 6.69103 4.52637 6.80373 4.49039 6.91878C4.4544 7.03383 4.42396 7.15129 4.39932 7.27077C4.37469 7.39025 4.35596 7.51181 4.34327 7.63512C4.33059 7.75843 4.32422 7.88354 4.32422 8.01003C4.32422 8.13653 4.33068 8.26164 4.34327 8.38495C4.35579 8.50728 4.3745 8.6289 4.39932 8.74934C4.42396 8.86929 4.4544 8.98628 4.49039 9.10133C4.52637 9.21638 4.56789 9.32904 4.61467 9.43902L4.77013 9.76042L4.95512 10.0637L5.16756 10.3472L5.4056 10.6087L5.6674 10.8465L5.95111 11.0588L6.25475 11.2435L6.57652 11.3989L6.91448 11.523L7.26675 11.614C7.3873 11.6388 7.50903 11.6574 7.63147 11.67C7.75616 11.6827 7.88141 11.689 8.00675 11.689C8.13338 11.689 8.25863 11.6826 8.38199 11.67C8.50443 11.6574 8.62615 11.6388 8.74671 11.614L9.09902 11.523L9.43698 11.3989L9.7587 11.2435L10.0624 11.0588L10.3461 10.8465L10.6079 10.6087L10.846 10.3472L11.0584 10.0637L11.2434 9.76042L11.3989 9.43902L11.5232 9.10133C11.5591 8.98628 11.5896 8.86883 11.6142 8.74934L11.6703 8.3849C11.6829 8.26159 11.6894 8.13648 11.6894 8.00999C11.6894 7.88349 11.6829 7.75838 11.6703 7.63507C11.6578 7.51275 11.639 7.39115 11.6142 7.27072C11.5896 7.15078 11.5591 7.03383 11.5232 6.91874L11.3989 6.58105L11.2434 6.25965L11.0584 5.95628L10.846 5.6729L10.6079 5.41133L10.3461 5.17352L10.0624 4.96131L9.7587 4.77655L9.43698 4.62118L9.09902 4.49708L8.74671 4.40611L8.38199 4.35015C8.25731 4.33742 8.13207 4.33105 8.00675 4.33105V4.3311ZM8.00675 5.60093C8.09048 5.60093 8.1731 5.60508 8.25448 5.61329L8.49436 5.6496L8.72609 5.70865L8.94798 5.78924L9.15894 5.89027L9.35731 6.01044L9.54276 6.1487L9.71373 6.3038L9.86896 6.47458L10.0074 6.65984L10.1277 6.85849L10.2287 7.06931C10.2591 7.14146 10.286 7.21541 10.3094 7.29102C10.3329 7.36663 10.3526 7.4439 10.3685 7.5226C10.3844 7.6013 10.3962 7.68139 10.4048 7.76272L10.4171 8.01026C10.4171 8.0939 10.413 8.17648 10.4048 8.25785C10.3966 8.33923 10.3845 8.41932 10.3685 8.49797C10.3525 8.57663 10.3327 8.6539 10.3094 8.72955L10.2287 8.95126L10.1277 9.16209L10.0074 9.36068L9.86896 9.546L9.71373 9.71678L9.54276 9.87187L9.35731 10.0101L9.15894 10.1303L8.94798 10.2313L8.72609 10.3119L8.49436 10.371L8.25448 10.4072C8.17214 10.4155 8.08945 10.4196 8.0067 10.4196C7.92394 10.4196 7.84123 10.4155 7.75888 10.4072L7.519 10.371C7.44025 10.355 7.36293 10.3353 7.28723 10.3119L7.06533 10.2313L6.85437 10.1303L6.65601 10.0101L6.47055 9.87187L6.29959 9.71678L6.14436 9.546L6.00596 9.36068L5.88565 9.16209L5.78462 8.95126L5.70389 8.72955L5.64484 8.49797L5.60853 8.25785C5.60028 8.17558 5.59615 8.09295 5.59617 8.01026C5.59615 7.92759 5.60028 7.84498 5.60853 7.76272C5.6167 7.68139 5.62883 7.60126 5.64484 7.5226C5.66069 7.44449 5.68041 7.36722 5.70393 7.29107L5.78466 7.06936L5.88569 6.85853L6.00601 6.65989L6.1444 6.47462L6.29964 6.30384L6.4706 6.14875L6.65605 6.01049L6.85442 5.89032L7.06538 5.78929C7.13799 5.75879 7.21206 5.7319 7.28732 5.70869L7.51909 5.64964C7.59784 5.63368 7.67801 5.6215 7.75897 5.61334C7.84132 5.60509 7.92403 5.60096 8.0068 5.60098L8.00675 5.60093Z" fill="white"/>
<path d="M11.8379 3.28418C11.8087 3.28419 11.7794 3.28566 11.7503 3.28861C11.7213 3.29155 11.6923 3.29595 11.6637 3.3018C11.635 3.30765 11.6067 3.31493 11.5787 3.32362C11.5508 3.33232 11.5233 3.34242 11.4964 3.35389C11.4695 3.36536 11.4431 3.37819 11.4175 3.39231C11.3918 3.40641 11.3669 3.42179 11.3427 3.4384C11.3186 3.45502 11.2953 3.47285 11.2729 3.49182C11.2506 3.51077 11.2292 3.53083 11.2088 3.55193C11.1884 3.57304 11.1691 3.59517 11.151 3.61822C11.1328 3.64128 11.1158 3.66524 11.1 3.69C11.0842 3.71475 11.0696 3.74028 11.0564 3.76649C11.0431 3.79272 11.0311 3.8196 11.0205 3.84704C11.0099 3.87446 11.0007 3.90241 10.9929 3.93077C10.9851 3.95912 10.9787 3.98785 10.9737 4.01685C10.9687 4.04584 10.9652 4.07506 10.9632 4.10441C10.9617 4.12519 10.9609 4.14603 10.9609 4.16687C10.9609 4.19631 10.9624 4.22573 10.9653 4.25503C10.9682 4.28431 10.9726 4.31342 10.9784 4.34226C10.9842 4.3711 10.9915 4.39963 11.0001 4.42775C11.0087 4.45587 11.0188 4.48353 11.0302 4.51064C11.0416 4.53776 11.0543 4.56429 11.0683 4.59013C11.0823 4.61596 11.0976 4.64108 11.1141 4.66537C11.1307 4.68965 11.1484 4.71308 11.1672 4.73558C11.186 4.7581 11.206 4.77966 11.2269 4.80017C11.2479 4.82067 11.2699 4.8401 11.2928 4.85839C11.3157 4.87669 11.3395 4.89383 11.3641 4.90973C11.3887 4.92564 11.4141 4.9403 11.4402 4.95365C11.4663 4.96701 11.4929 4.97905 11.5202 4.98972C11.5474 5.00039 11.5752 5.00967 11.6034 5.01754C11.6315 5.0254 11.6601 5.03184 11.6889 5.03683C11.7177 5.04184 11.7467 5.04539 11.7759 5.04748C11.7966 5.04896 11.8172 5.0497 11.838 5.0497C11.8672 5.04971 11.8964 5.04824 11.9255 5.04531C11.9546 5.04237 11.9835 5.03797 12.0122 5.03212C12.0408 5.02628 12.0692 5.01899 12.0971 5.0103C12.1251 5.0016 12.1525 4.9915 12.1795 4.98004C12.2064 4.96858 12.2327 4.95577 12.2584 4.94166C12.2841 4.92754 12.309 4.91215 12.3331 4.89552C12.3573 4.87891 12.3806 4.8611 12.4029 4.84215C12.4253 4.82319 12.4467 4.80311 12.4671 4.78199C12.4874 4.76088 12.5067 4.73876 12.5249 4.7157C12.5431 4.69264 12.5601 4.66869 12.5759 4.64392C12.5917 4.61916 12.6062 4.59361 12.6195 4.56739C12.6327 4.54116 12.6447 4.51427 12.6553 4.48684C12.6659 4.45941 12.6751 4.43147 12.683 4.40311C12.6908 4.37476 12.6972 4.34603 12.7021 4.31703C12.7071 4.28804 12.7106 4.25882 12.7127 4.22947C12.7142 4.20868 12.7149 4.18785 12.7149 4.16701C12.7149 4.13758 12.7135 4.10817 12.7105 4.0789C12.7076 4.04962 12.7032 4.0205 12.6974 3.99166C12.6916 3.96282 12.6844 3.93429 12.6758 3.90618C12.6671 3.87806 12.6571 3.85039 12.6457 3.82328C12.6343 3.79616 12.6216 3.76963 12.6075 3.74379C12.5935 3.71796 12.5782 3.69285 12.5617 3.66855C12.5452 3.64425 12.5275 3.62081 12.5086 3.59829C12.4898 3.57578 12.4699 3.55422 12.4489 3.53371C12.4279 3.51321 12.406 3.49378 12.383 3.47549C12.3601 3.4572 12.3363 3.44008 12.3117 3.42419C12.2871 3.40828 12.2617 3.39363 12.2357 3.38027C12.2096 3.36691 12.1829 3.35487 12.1557 3.3442C12.1284 3.33353 12.1007 3.32425 12.0725 3.31638C12.0443 3.30851 12.0158 3.30205 11.987 3.29705C11.9582 3.29206 11.9291 3.28851 11.9 3.28644C11.8793 3.28496 11.8586 3.28423 11.8379 3.28423V3.28418Z" fill="white"/>
<path d="M7.30867 0.812634C6.90815 0.811988 6.55072 0.813649 6.22964 0.81817L5.36882 0.841236C5.1138 0.852307 4.88849 0.866746 4.68625 0.885429C4.58513 0.894748 4.48972 0.905174 4.39931 0.916661C4.31326 0.927505 4.22745 0.940133 4.14194 0.954536C4.06051 0.968375 3.98324 0.983321 3.90915 0.99956C3.83507 1.0158 3.7643 1.03333 3.69602 1.05215C3.62928 1.07056 3.56305 1.0908 3.49743 1.11286C3.43312 1.13454 3.37038 1.15752 3.30842 1.18206C3.18451 1.23114 3.06365 1.28622 2.93918 1.34795C2.84341 1.39546 2.75493 1.44358 2.67088 1.49451C2.58683 1.54544 2.5072 1.59923 2.42924 1.65782C2.34895 1.71845 2.27156 1.78283 2.19733 1.85074C2.11974 1.92142 2.04049 1.99915 1.95814 2.08601C1.85467 2.19456 1.76475 2.29578 1.68495 2.3951C1.64504 2.44474 1.60768 2.49382 1.57248 2.54318C1.53767 2.59183 1.50439 2.64155 1.47269 2.69228C1.44132 2.74256 1.41161 2.79377 1.3832 2.84645C1.35434 2.90004 1.32706 2.95447 1.30141 3.00967C1.24891 3.12242 1.19992 3.24383 1.15102 3.37937C1.11474 3.47957 1.08225 3.5811 1.05363 3.68375C1.02443 3.78865 0.998457 3.8984 0.975298 4.0171C0.95214 4.1358 0.931934 4.26344 0.914174 4.40461C0.895034 4.55935 0.879745 4.71453 0.868318 4.87003C0.855401 5.041 0.844699 5.22912 0.835934 5.43852L0.815174 6.13474L0.80401 6.98343L0.800781 8.00927L0.810238 9.50104L0.839763 10.6313L0.862506 11.0728L0.890923 11.4386C0.900033 11.5372 0.91143 11.6356 0.925107 11.7336C0.937563 11.8207 0.950941 11.8969 0.965334 11.9629C0.994539 12.097 1.02907 12.2299 1.06885 12.3613C1.10694 12.4871 1.1505 12.6112 1.19941 12.7331C1.24748 12.8526 1.30007 12.9679 1.35727 13.0788C1.41448 13.1897 1.47629 13.2962 1.54272 13.3986C1.60915 13.501 1.6802 13.5991 1.75604 13.6931C1.83179 13.7871 1.91237 13.8771 1.99744 13.9627C2.08265 14.0485 2.17252 14.1302 2.26722 14.2077C2.36305 14.2862 2.46266 14.36 2.5657 14.4287C2.66133 14.4927 2.75595 14.5512 2.85126 14.6049C2.94656 14.6587 3.0427 14.7074 3.14152 14.7518C3.24033 14.7961 3.34164 14.836 3.44746 14.8719C3.55329 14.9078 3.66355 14.9397 3.78008 14.968C3.89661 14.9964 4.01996 15.0212 4.15052 15.0429C4.28107 15.0646 4.42062 15.0832 4.56972 15.0992C4.71882 15.1152 4.87788 15.1284 5.0488 15.1395C5.21972 15.1506 5.4024 15.1594 5.59869 15.1666C5.90192 15.1775 6.36093 15.1839 6.89025 15.1864L8.60382 15.1829L10.2265 15.1602L10.8434 15.1428L11.2454 15.1222C11.3316 15.1152 11.4161 15.1069 11.4975 15.0971C11.579 15.0874 11.6594 15.0763 11.7376 15.0636C11.8159 15.051 11.8923 15.0369 11.9675 15.0212C12.0418 15.0057 12.1157 14.9884 12.1891 14.9694C12.2618 14.9509 12.3335 14.9299 12.4044 14.9077C12.4754 14.8854 12.5456 14.8613 12.6154 14.8355C12.6856 14.8095 12.7552 14.7818 12.824 14.7524C12.8934 14.7229 12.9626 14.6913 13.0321 14.6578C13.1388 14.6064 13.2247 14.5636 13.3001 14.5217C13.371 14.4828 13.4394 14.4393 13.5047 14.3914C13.569 14.344 13.6331 14.29 13.7069 14.222C13.7807 14.154 13.8643 14.0721 13.9679 13.9685C14.0589 13.8775 14.1357 13.7985 14.2019 13.7265C14.2681 13.6546 14.3239 13.5899 14.3728 13.5275C14.4194 13.4683 14.4628 13.4067 14.5029 13.3429C14.5419 13.2806 14.5779 13.216 14.6146 13.1442C14.6698 13.0363 14.7188 12.9363 14.7628 12.8398C14.8055 12.7469 14.8445 12.6523 14.8797 12.5562C14.9144 12.4609 14.9444 12.364 14.9697 12.2658C14.9957 12.1648 15.0181 12.0581 15.0375 11.9411C15.0569 11.8242 15.0733 11.6968 15.0875 11.5546C15.1017 11.4125 15.1138 11.2553 15.1244 11.0788L15.1525 10.4861L15.1767 9.74909L15.194 8.92794L15.2006 8.06933L15.1852 6.38298L15.1646 5.62766L15.1364 4.97914L15.1014 4.47353C15.0886 4.33283 15.0749 4.22202 15.0603 4.1471C15.0442 4.06432 15.0262 3.98192 15.0062 3.89997C14.9869 3.82023 14.9656 3.74096 14.9424 3.66225C14.9197 3.58557 14.8951 3.50947 14.8686 3.43404C14.8424 3.35953 14.8147 3.2866 14.7856 3.21523C14.7565 3.14387 14.7251 3.07416 14.6923 3.00593C14.6596 2.9377 14.6252 2.87113 14.5892 2.80609C14.5532 2.74104 14.5156 2.67761 14.4764 2.61575C14.4371 2.55388 14.3962 2.49359 14.3537 2.43491C14.3113 2.37642 14.2672 2.31926 14.2213 2.26353C14.1756 2.2081 14.1282 2.15413 14.0791 2.1017C14.0301 2.04933 13.9794 1.99853 13.9272 1.94937C13.8749 1.9002 13.8211 1.85259 13.7655 1.80655C13.7098 1.76036 13.6526 1.71591 13.5941 1.67327C13.535 1.6302 13.4745 1.58894 13.4129 1.54955C13.3504 1.50959 13.2867 1.4715 13.222 1.43532C13.1561 1.39854 13.0892 1.36365 13.0213 1.3307C12.9087 1.27594 12.8045 1.22736 12.7022 1.18427C12.6017 1.14151 12.4992 1.10353 12.3951 1.07047C12.2904 1.03748 12.1814 1.0092 12.0614 0.984798C11.9415 0.960395 11.8107 0.94005 11.6626 0.922751C11.5146 0.905451 11.3493 0.891474 11.1603 0.879848C10.9712 0.868223 10.7586 0.859088 10.5158 0.851707L9.69069 0.833255L8.6464 0.820938L7.30913 0.812726L7.30867 0.812634ZM8.00318 2.08135L9.93164 2.09233L10.6591 2.10636C10.8595 2.11199 11.0124 2.11858 11.102 2.1262C11.2187 2.13602 11.3299 2.14834 11.4362 2.1631C11.5383 2.17719 11.6398 2.19472 11.7407 2.21564C11.8376 2.23594 11.93 2.25901 12.0184 2.28503C12.1069 2.31105 12.1913 2.3402 12.2724 2.37245C12.3534 2.40469 12.4309 2.44017 12.5055 2.47901C12.5795 2.51756 12.6514 2.55999 12.721 2.60611C12.7902 2.65201 12.8569 2.70146 12.9216 2.75474C12.9864 2.80803 13.0492 2.86514 13.1105 2.92622C13.1752 2.99066 13.2349 3.05631 13.29 3.12403C13.3448 3.19133 13.3955 3.26187 13.4419 3.33527C13.4887 3.40971 13.531 3.48697 13.5684 3.56662C13.6066 3.64781 13.6409 3.73362 13.6717 3.82482C13.7025 3.91602 13.73 4.01295 13.7543 4.11651C13.7797 4.22631 13.8011 4.33703 13.8182 4.44843C13.8367 4.56653 13.8524 4.69247 13.8658 4.82731C13.8792 4.96216 13.8903 5.10595 13.8994 5.2598C13.9067 5.3832 13.9131 5.54605 13.9185 5.73838L13.932 6.39414L13.9423 8.00046L13.9305 9.60525L13.9164 10.2591L13.897 10.7347C13.8835 10.9574 13.8693 11.1446 13.8523 11.3075C13.8438 11.389 13.8346 11.4644 13.8243 11.5351C13.8148 11.6019 13.8034 11.6684 13.7903 11.7347C13.7783 11.7951 13.7643 11.8551 13.7485 11.9146C13.7333 11.9714 13.7163 12.0276 13.6973 12.0833C13.6783 12.1392 13.6575 12.1945 13.6351 12.2492C13.6114 12.3069 13.5864 12.3641 13.5601 12.4206C13.5368 12.4712 13.5122 12.5203 13.4862 12.5681C13.4604 12.6155 13.4331 12.6619 13.4042 12.7074C13.3756 12.7525 13.3456 12.7963 13.3143 12.8387C13.2831 12.8809 13.2504 12.9221 13.2162 12.962C13.1821 13.0017 13.1466 13.0401 13.1098 13.0773C13.0729 13.1144 13.0346 13.1503 12.9949 13.1849C12.9552 13.2195 12.9141 13.2527 12.8715 13.2847C12.8289 13.3167 12.7849 13.3474 12.7393 13.3769C12.6938 13.4063 12.6468 13.4345 12.5983 13.4615C12.5499 13.4884 12.4998 13.5142 12.4484 13.5386C12.3961 13.5635 12.343 13.5868 12.2893 13.6085C12.2338 13.6309 12.1776 13.6517 12.1209 13.671C12.0056 13.7103 11.8839 13.7448 11.7559 13.7746C11.6224 13.8054 11.4877 13.8306 11.3521 13.8501C11.3 13.8577 11.1802 13.8649 11.0086 13.8715L10.3546 13.8897L8.50058 13.9138L6.55999 13.9168L5.79789 13.9087L5.30303 13.8933L4.93813 13.8677C4.82483 13.8581 4.71946 13.8475 4.62074 13.8355C4.52202 13.8234 4.43008 13.81 4.34358 13.7949C4.26161 13.7807 4.18014 13.7638 4.09931 13.7441C4.02561 13.7262 3.95266 13.7053 3.88064 13.6815C3.81122 13.6584 3.74483 13.633 3.68025 13.6051C3.61566 13.5772 3.55292 13.5466 3.49078 13.5132C3.42864 13.4798 3.36715 13.4436 3.30496 13.404C3.25805 13.3742 3.2127 13.3441 3.16906 13.3121C3.12542 13.2801 3.08325 13.2482 3.04266 13.2148C3.00206 13.1814 2.96308 13.147 2.92548 13.1116C2.88813 13.0763 2.85207 13.0398 2.81735 13.0019C2.78275 12.9642 2.74967 12.9253 2.71793 12.8851C2.68607 12.8447 2.65571 12.8032 2.62692 12.7605C2.59769 12.7173 2.57004 12.6729 2.54402 12.6277C2.51772 12.582 2.49272 12.5348 2.46896 12.4861C2.4448 12.4364 2.42226 12.386 2.40138 12.3349C2.38016 12.2828 2.36004 12.2291 2.34113 12.1737C2.3033 12.0627 2.27008 11.9446 2.24121 11.8187C2.21233 11.6928 2.18769 11.559 2.16684 11.4164C2.14599 11.2739 2.1292 11.1228 2.11582 10.9621C2.10595 10.8438 2.0981 10.6595 2.09211 10.427L2.07956 9.60008L2.08417 7.49208L2.12048 5.47778L2.14816 4.76808L2.16384 4.5335C2.16929 4.47085 2.17491 4.42444 2.18068 4.39658C2.19969 4.30492 2.21883 4.21962 2.23862 4.13976C2.25711 4.06443 2.27768 3.98962 2.3003 3.91542C2.3218 3.8454 2.34445 3.7798 2.36867 3.71766C2.39202 3.65746 2.41805 3.59834 2.44668 3.54046C2.47463 3.48418 2.50467 3.4303 2.53728 3.37785C2.5699 3.3254 2.6051 3.27451 2.64348 3.22391C2.68186 3.1733 2.72319 3.12334 2.76817 3.07269C2.81315 3.02203 2.86173 2.97087 2.91441 2.91814C2.97581 2.85639 3.03974 2.79722 3.10604 2.74077C3.16865 2.68751 3.23393 2.63748 3.30164 2.59088C3.36821 2.54475 3.43649 2.50369 3.50758 2.46596C3.57866 2.42822 3.65257 2.39413 3.7303 2.36345C3.80803 2.33277 3.88969 2.30533 3.97618 2.28041C4.06705 2.25492 4.15894 2.23318 4.25159 2.21523C4.34902 2.19613 4.4525 2.17948 4.56298 2.16495C4.67347 2.15041 4.79101 2.13787 4.91668 2.12698C5.00433 2.11941 5.15536 2.11268 5.35424 2.107L6.07805 2.0927L8.0035 2.08094L8.00318 2.08135Z" fill="white"/>
</svg>
