<svg width="28" height="24" viewBox="0 0 28 24" fill="none" xmlns="http://www.w3.org/2000/svg">
<path d="M22.5477 8C24.3409 5.74738 26.9711 1.72485 23.1454 3.65566C18.3633 6.06918 15.9723 9.9309 18.3633 6.55197C20.7544 3.17304 27.4119 1.69414 22.6784 1.0645C18.7872 0.546914 14.8961 3.31427 14.8961 3.31427" stroke="white" stroke-width="1.6"/>
<path d="M5.17425 7.75052C3.52978 5.56171 1.11788 1.65312 4.62609 3.52924C9.01136 5.8744 9.60488 8.19119 10.4969 6.86921C12.7054 3.59639 5.67307 1.77929 10.0509 2.02149C20.7485 2.61332 9.74434 7.49864 14.0652 8" stroke="#ED1A21" stroke-width="1.6"/>
<path d="M1.9668 13L25.9668 13" stroke="white" stroke-width="1.6"/>
<path d="M0.966797 11.7539V10C0.966797 8.89543 1.86223 8 2.9668 8H24.9668C26.0714 8 26.9668 8.89543 26.9668 10V11.8384C26.9668 12.268 26.8285 12.6862 26.5723 13.0311L21.5993 19.7254C21.4643 19.9072 21.3612 20.1105 21.2942 20.3267L20.9028 21.5914C20.6436 22.4289 19.869 23 18.9922 23H9.86994C8.99316 23 8.21861 22.4289 7.95936 21.5914L7.59096 20.4012C7.50908 20.1366 7.37314 19.8919 7.19177 19.6827L1.45542 13.0638C1.14028 12.7002 0.966797 12.2351 0.966797 11.7539Z" stroke="white" stroke-width="1.6"/>
</svg>
