<svg width="17" height="16" viewBox="0 0 17 16" fill="none" xmlns="http://www.w3.org/2000/svg">
<path d="M6.25 10.6259L11.5005 5.37537" stroke="white" stroke-width="2" stroke-linecap="round" stroke-linejoin="round"/>
<path d="M8 2.75032L8.40517 2.28128C9.22583 1.46073 10.3388 0.999796 11.4994 0.999878C12.6599 0.99996 13.7728 1.46105 14.5934 2.28171C15.4139 3.10238 15.8748 4.21539 15.8748 5.3759C15.8747 6.53641 15.4136 7.64936 14.5929 8.4699L14.1256 8.87594" stroke="white" stroke-width="2" stroke-linecap="round" stroke-linejoin="round"/>
<path d="M9.75092 13.2514L9.40351 13.7187C8.57327 14.5396 7.45276 15.0001 6.28513 15.0001C5.11751 15.0001 3.997 14.5396 3.16675 13.7187C2.75753 13.314 2.43264 12.8322 2.21091 12.3011C1.98917 11.7701 1.875 11.2003 1.875 10.6248C1.875 10.0493 1.98917 9.47949 2.21091 8.94842C2.43264 8.41735 2.75753 7.93554 3.16675 7.5309L3.6253 7.12573" stroke="white" stroke-width="2" stroke-linecap="round" stroke-linejoin="round"/>
</svg>
