<svg width="46" height="46" viewBox="0 0 46 46" fill="none" xmlns="http://www.w3.org/2000/svg">
<g clip-path="url(#clip0_836_39857)">
<path d="M14.375 18.6875L21.5625 4.3125C23.0875 4.3125 24.55 4.9183 25.6284 5.99664C26.7067 7.07497 27.3125 8.53751 27.3125 10.0625V14.375H38.4352C38.8428 14.374 39.246 14.4602 39.6175 14.6279C39.9891 14.7956 40.3205 15.0409 40.5894 15.3473C40.8583 15.6536 41.0586 16.014 41.1767 16.4042C41.2948 16.7944 41.3281 17.2053 41.2742 17.6094L39.118 34.8594C39.0307 35.5519 38.6946 36.189 38.1722 36.6518C37.6498 37.1147 36.9769 37.3717 36.2789 37.375H14.375" stroke="#6C6C6C" stroke-width="2" stroke-linecap="round" stroke-linejoin="round"/>
<path d="M5.75 18.6875H14.375V37.375H5.75C5.36875 37.375 5.00312 37.2236 4.73353 36.954C4.46395 36.6844 4.3125 36.3187 4.3125 35.9375V20.125C4.3125 19.7438 4.46395 19.3781 4.73353 19.1085C5.00312 18.839 5.36875 18.6875 5.75 18.6875Z" stroke="#ED1A21" stroke-width="2" stroke-linecap="round" stroke-linejoin="round"/>
</g>
<defs>
<clipPath id="clip0_836_39857">
<rect width="46" height="46" fill="white"/>
</clipPath>
</defs>
</svg>
