<svg width="46" height="46" viewBox="0 0 46 46" fill="none" xmlns="http://www.w3.org/2000/svg">
<g clip-path="url(#clip0_1005_44378)">
<path d="M18.6875 31.625C21.8631 31.625 24.4375 29.0506 24.4375 25.875C24.4375 22.6994 21.8631 20.125 18.6875 20.125C15.5119 20.125 12.9375 22.6994 12.9375 25.875C12.9375 29.0506 15.5119 31.625 18.6875 31.625Z" stroke="#6C6C6C" stroke-width="2" stroke-linecap="round" stroke-linejoin="round"/>
<path d="M9.59531 37.375C10.4112 35.6542 11.6988 34.2003 13.3082 33.1822C14.9177 32.1641 16.7831 31.6237 18.6875 31.6237C20.5919 31.6237 22.4573 32.1641 24.0668 33.1822C25.6762 34.2003 26.9638 35.6542 27.7797 37.375H38.8125C39.1937 37.375 39.5594 37.2236 39.829 36.954C40.0986 36.6844 40.25 36.3187 40.25 35.9375V10.0625C40.25 9.68125 40.0986 9.31562 39.829 9.04603C39.5594 8.77645 39.1937 8.625 38.8125 8.625H7.1875C6.80625 8.625 6.44062 8.77645 6.17103 9.04603C5.90145 9.31562 5.75 9.68125 5.75 10.0625V35.9375C5.75 36.3187 5.90145 36.6844 6.17103 36.954C6.44062 37.2236 6.80625 37.375 7.1875 37.375H9.59531Z" stroke="#6C6C6C" stroke-width="2" stroke-linecap="round" stroke-linejoin="round"/>
<path d="M31.625 31.625H34.5V14.375H11.5V17.25" stroke="#ED1A21" stroke-width="2" stroke-linecap="round" stroke-linejoin="round"/>
</g>
<defs>
<clipPath id="clip0_1005_44378">
<rect width="46" height="46" fill="white"/>
</clipPath>
</defs>
</svg>
