<svg width="46" height="46" viewBox="0 0 46 46" fill="none" xmlns="http://www.w3.org/2000/svg">
<g clip-path="url(#clip0_836_39892)">
<path d="M7.1875 11.5V34.5C7.1875 35.2625 7.4904 35.9938 8.02957 36.5329C8.56873 37.0721 9.3 37.375 10.0625 37.375H38.8125C39.1937 37.375 39.5594 37.2236 39.829 36.954C40.0986 36.6844 40.25 36.3187 40.25 35.9375V15.8125C40.25 15.4313 40.0986 15.0656 39.829 14.796C39.5594 14.5265 39.1937 14.375 38.8125 14.375H10.0625C9.3 14.375 8.56873 14.0721 8.02957 13.5329C7.4904 12.9938 7.1875 12.2625 7.1875 11.5ZM7.1875 11.5C7.1875 10.7375 7.4904 10.0062 8.02957 9.46707C8.56873 8.9279 9.3 8.625 10.0625 8.625H34.5" stroke="#6C6C6C" stroke-width="2" stroke-linecap="round" stroke-linejoin="round"/>
<path d="M32.3438 27.6719C33.3361 27.6719 34.1406 26.8674 34.1406 25.875C34.1406 24.8826 33.3361 24.0781 32.3438 24.0781C31.3514 24.0781 30.5469 24.8826 30.5469 25.875C30.5469 26.8674 31.3514 27.6719 32.3438 27.6719Z" fill="#ED1A21"/>
</g>
<defs>
<clipPath id="clip0_836_39892">
<rect width="46" height="46" fill="white"/>
</clipPath>
</defs>
</svg>
