<svg width="46" height="46" viewBox="0 0 46 46" fill="none" xmlns="http://www.w3.org/2000/svg">
<path d="M9 8.625L9 37.375C9 38.9628 10.2872 40.25 11.875 40.25L34.875 40.25C36.4628 40.25 37.75 38.9628 37.75 37.375L37.75 8.625C37.75 7.03718 36.4628 5.75 34.875 5.75L11.875 5.75C10.2872 5.75 9 7.03718 9 8.625Z" stroke="#6C6C6C" stroke-width="2" stroke-linecap="round" stroke-linejoin="round"/>
<path d="M23 31.9844C22.0076 31.9844 21.2031 32.7889 21.2031 33.7812C21.2031 34.7736 22.0076 35.5781 23 35.5781C23.9924 35.5781 24.7969 34.7736 24.7969 33.7812C24.7969 32.7889 23.9924 31.9844 23 31.9844Z" fill="#6C6C6C"/>
<rect x="18" y="16" width="11" height="2" rx="1" fill="#ED1A21"/>
<rect x="18" y="20" width="11" height="2" rx="1" fill="#ED1A21"/>
</svg>
