<svg width="19" height="18" viewBox="0 0 19 18" fill="none" xmlns="http://www.w3.org/2000/svg">
<path fill-rule="evenodd" clip-rule="evenodd" d="M16.2524 2.61584C14.5603 0.929883 12.31 0.000988768 9.91264 0C4.97262 0 0.952164 4.00111 0.950177 8.91881C0.949514 10.4908 1.36216 12.0254 2.14649 13.3781L0.875 18L5.62614 16.7596C6.93527 17.4703 8.40911 17.8449 9.909 17.8453H9.91275C14.8522 17.8453 18.8731 13.8439 18.875 8.92595C18.876 6.54258 17.9446 4.3017 16.2524 2.61584ZM9.91264 16.339H9.90955C8.57293 16.3384 7.26203 15.9809 6.11816 15.3056L5.84626 15.1449L3.02686 15.881L3.7794 13.1453L3.60222 12.8648C2.85653 11.6844 2.46276 10.3201 2.46342 8.91936C2.46497 4.8319 5.80674 1.50645 9.91562 1.50645C11.9053 1.5071 13.7757 2.27922 15.1821 3.68053C16.5885 5.08184 17.3625 6.94446 17.3619 8.9254C17.3601 13.0132 14.0185 16.339 9.91264 16.339ZM13.9987 10.7866C13.7748 10.675 12.6738 10.136 12.4684 10.0615C12.2633 9.98712 12.1138 9.9501 11.9647 10.1731C11.8154 10.3961 11.3863 10.8982 11.2556 11.0469C11.1249 11.1956 10.9944 11.2143 10.7704 11.1027C10.5464 10.9912 9.82488 10.7557 8.96946 9.99646C8.3038 9.40551 7.85439 8.67568 7.72369 8.45266C7.59321 8.22942 7.72259 8.12043 7.82194 7.99783C8.06436 7.69823 8.30711 7.38413 8.38173 7.23549C8.45647 7.08673 8.41905 6.95654 8.36297 6.84503C8.30711 6.73352 7.85925 5.63654 7.67269 5.19016C7.49076 4.75576 7.3063 4.81443 7.16875 4.80762C7.03827 4.80114 6.88891 4.79982 6.73955 4.79982C6.5903 4.79982 6.34766 4.85552 6.14233 5.07876C5.93711 5.30189 5.35866 5.84099 5.35866 6.93798C5.35866 8.03496 6.1611 9.0947 6.27303 9.24346C6.38497 9.39221 7.85219 11.6433 10.0985 12.6086C10.6328 12.8384 11.0499 12.9754 11.3752 13.0781C11.9117 13.2478 12.3998 13.2238 12.7857 13.1665C13.216 13.1024 14.1105 12.6272 14.2973 12.1067C14.4838 11.5861 14.4838 11.1399 14.4278 11.0469C14.3719 10.9539 14.2225 10.8982 13.9987 10.7866Z" fill="white"/>
</svg>
