<svg width="17" height="18" viewBox="0 0 17 18" fill="none" xmlns="http://www.w3.org/2000/svg">
<path d="M15.4795 10.0852C15.0365 13.744 12.4236 13.9724 11.9394 14.1323C11.7339 14.2008 9.8291 14.685 7.43098 14.5251L4.83644 17.4029L4.83187 14.0866L4.8136 14.0821C1.32377 13.0908 1.44253 9.36804 1.47907 7.41756C1.52018 5.46709 1.87648 3.86378 2.94078 2.79033C4.85015 1.01801 8.7922 1.28294 8.7922 1.28294C12.1176 1.29665 13.7118 2.32441 14.0818 2.667C15.3105 3.74045 15.9363 6.31671 15.4795 10.0852ZM14.9908 1.75343C14.5523 1.34232 12.7891 0.0313517 8.85615 0.0130803C8.85615 0.0130803 4.21978 -0.274694 1.9587 1.84936C0.702538 3.13749 0.259457 5.02401 0.20921 7.36275C0.163532 9.70149 0.10415 14.0821 4.22892 15.2697H4.23349V17.0831C4.23349 17.0831 4.20608 17.8186 4.68114 17.9647C5.25212 18.1474 5.58557 17.5902 6.13371 16.9872C6.43519 16.6583 6.8463 16.1741 7.15691 15.8041C9.97984 16.0462 12.1496 15.489 12.3917 15.4113C12.9626 15.2195 16.183 14.7992 16.7083 10.4186C17.2427 5.89647 16.4388 3.04156 14.9908 1.75343Z" fill="white"/>
<path d="M12.4733 10.6333C12.4733 10.6333 11.9435 10.1811 11.6877 9.98926C11.4456 9.80655 11.0573 9.55988 10.8426 9.43655C10.4544 9.21729 10.057 9.35433 9.89251 9.57359L9.54992 10.0121C9.37634 10.2359 9.10684 10.1948 9.03832 10.1811C8.53586 10.0532 8.00142 9.7426 7.45328 9.21273C6.90057 8.67829 6.56254 8.12101 6.44378 7.54089L6.43464 7.50435C6.40267 7.26682 6.44378 7.15719 6.53971 6.99275L6.55798 6.97905C6.78637 6.76436 7.21575 6.50399 7.27056 6.25733C7.43957 5.82795 6.70872 4.92808 6.60822 4.77278C6.60822 4.77278 6.07835 4.07389 5.89107 3.93686C5.69009 3.76785 5.3749 3.67192 5.05515 3.86834L5.03688 3.88204C4.12331 4.4987 3.79443 4.855 3.88578 5.3803L3.93146 5.59499C4.39282 7.05213 5.28811 8.6052 6.61736 9.98926C7.9329 11.355 9.35807 12.1727 10.7604 12.7391C11.1258 12.8624 11.505 12.7574 11.8932 12.4239L11.8978 12.4194C12.1947 12.1407 12.4322 11.8438 12.6058 11.5241V11.5195C12.784 11.1678 12.7246 10.848 12.4733 10.6333Z" fill="white"/>
<path d="M10.2921 7.44029C10.2373 7.44029 10.1916 7.39461 10.187 7.3398C10.1688 6.96067 10.0683 6.67289 9.88556 6.48104C9.70285 6.28919 9.43335 6.18413 9.07705 6.16129C9.01767 6.15672 8.97656 6.10648 8.97656 6.0471C8.98113 5.98771 9.02681 5.94204 9.08619 5.9466C9.4973 5.96944 9.81248 6.09734 10.0317 6.3303C10.251 6.56326 10.3743 6.89672 10.3926 7.33066C10.3972 7.39004 10.3515 7.44029 10.2921 7.44486" fill="white"/>
<path d="M11.3268 7.79732C11.2674 7.79732 11.2217 7.74707 11.2217 7.68769C11.24 6.9614 11.0253 6.34931 10.5914 5.86512C10.3767 5.62302 10.1118 5.43117 9.81028 5.2987C9.5088 5.16167 9.15251 5.07945 8.76424 5.05204C8.70486 5.04747 8.66375 4.99723 8.66831 4.93784C8.67288 4.87846 8.72313 4.83278 8.78251 4.83735C9.61843 4.9013 10.2808 5.19821 10.7513 5.72351C11.2217 6.24882 11.4547 6.91572 11.4364 7.69683C11.4319 7.75164 11.3862 7.79732 11.3268 7.79732Z" fill="white"/>
<path d="M12.3916 8.22622C12.3322 8.22622 12.2865 8.18054 12.2865 8.12116C12.282 7.48166 12.186 6.90154 11.9988 6.39908C11.8115 5.90118 11.5328 5.46267 11.1674 5.09267C10.802 4.72724 10.3817 4.44861 9.92952 4.26132C9.47273 4.07404 8.9657 3.97812 8.41756 3.97812C8.35818 3.97812 8.3125 3.92787 8.3125 3.86849C8.3125 3.80911 8.35818 3.76343 8.41756 3.76343C9.56866 3.77256 10.5416 4.1654 11.3136 4.93737C11.7018 5.32563 11.9988 5.79155 12.1952 6.32142C12.3916 6.84673 12.4921 7.45425 12.4967 8.12116C12.4967 8.17597 12.451 8.22165 12.3916 8.22622Z" fill="white"/>
</svg>
