<svg width="46" height="46" viewBox="0 0 46 46" fill="none" xmlns="http://www.w3.org/2000/svg">
<path d="M8 40H37.92" stroke="#ED1A21" stroke-width="2" stroke-linecap="round" stroke-linejoin="round"/>
<path d="M20.2405 25.04L17.2145 10.93C17.0878 10.335 17.0957 9.71925 17.2377 9.12773C17.3797 8.53621 17.6521 7.98392 18.0351 7.5113C18.4181 7.03867 18.9019 6.65767 19.4512 6.39618C20.0004 6.13469 20.6012 5.99933 21.2095 6H24.7115C25.3198 5.99933 25.9206 6.13469 26.4699 6.39618C27.0191 6.65767 27.5029 7.03867 27.8859 7.5113C28.2689 7.98392 28.5414 8.53621 28.6834 9.12773C28.8253 9.71925 28.8333 10.335 28.7065 10.93L25.6805 25.04" stroke="#5B5B5B" stroke-width="2" stroke-linecap="round" stroke-linejoin="round"/>
<path d="M36.56 25.0391H9.36C8.60889 25.0391 8 25.648 8 26.3991V33.1991C8 33.9502 8.60889 34.5591 9.36 34.5591H36.56C37.3111 34.5591 37.92 33.9502 37.92 33.1991V26.3991C37.92 25.648 37.3111 25.0391 36.56 25.0391Z" stroke="#5B5B5B" stroke-width="2" stroke-linecap="round" stroke-linejoin="round"/>
</svg>
