<svg width="42" height="20" viewBox="0 0 42 20" fill="none" xmlns="http://www.w3.org/2000/svg">
<g clip-path="url(#clip0_1042_75725)">
<path d="M19.8445 10.3413V15.2231H18.2695V3.14966H22.3645C23.362 3.14966 24.307 3.51711 25.042 4.19953C25.777 4.82945 26.1445 5.77433 26.1445 6.77171C26.1445 7.76908 25.777 8.66147 25.042 9.34388C24.307 10.0263 23.4145 10.3938 22.3645 10.3938L19.8445 10.3413ZM19.8445 4.61947V8.81895H22.4695C23.047 8.81895 23.6245 8.60898 23.992 8.18903C24.832 7.40163 24.832 6.08929 24.0445 5.30189L23.992 5.2494C23.572 4.82945 23.047 4.56698 22.4695 4.61947H19.8445Z" fill="white"/>
<path d="M29.767 6.71924C30.922 6.71924 31.8145 7.0342 32.497 7.66412C33.1795 8.29404 33.4945 9.13394 33.4945 10.1838V15.2232H32.0245V14.0683H31.972C31.342 15.0132 30.4495 15.4856 29.3995 15.4856C28.507 15.4856 27.7195 15.2232 27.0895 14.6982C26.512 14.1733 26.1445 13.4384 26.1445 12.651C26.1445 11.8111 26.4595 11.1287 27.0895 10.6038C27.7195 10.0788 28.612 9.86884 29.662 9.86884C30.607 9.86884 31.342 10.0263 31.9195 10.3938V10.0263C31.9195 9.50139 31.7095 8.97646 31.2895 8.6615C30.8695 8.29404 30.3445 8.08407 29.767 8.08407C28.8745 8.08407 28.192 8.45152 27.7195 9.18643L26.3545 8.34653C27.1945 7.24417 28.297 6.71924 29.767 6.71924ZM27.772 12.7035C27.772 13.1234 27.982 13.4909 28.297 13.7009C28.6645 13.9633 29.0845 14.1208 29.5045 14.1208C30.1345 14.1208 30.7645 13.8583 31.237 13.3859C31.762 12.9135 32.0245 12.336 32.0245 11.7061C31.552 11.3387 30.8695 11.1287 29.977 11.1287C29.347 11.1287 28.822 11.2862 28.402 11.6011C27.982 11.8636 27.772 12.2311 27.772 12.7035Z" fill="white"/>
<path d="M42.0003 6.98145L36.8028 18.8975H35.2278L37.1703 14.7505L33.7578 7.03394H35.4378L37.9053 12.9657H37.9578L40.3728 7.03394H42.0003V6.98145Z" fill="white"/>
<path d="M13.5972 9.29135C13.5972 8.81891 13.5447 8.34646 13.4922 7.87402H6.92969V10.5512H10.6572C10.4997 11.3911 10.0272 12.1785 9.29219 12.6509V14.3832H11.5497C12.8622 13.1759 13.5972 11.3911 13.5972 9.29135Z" fill="#4285F4"/>
<path d="M6.92938 16.0631C8.81938 16.0631 10.3944 15.4332 11.5494 14.3833L9.29188 12.651C8.66188 13.071 7.87438 13.3334 6.92938 13.3334C5.14438 13.3334 3.56938 12.1261 3.04438 10.4463H0.734375V12.2311C1.94188 14.5933 4.30438 16.0631 6.92938 16.0631Z" fill="#34A853"/>
<path d="M3.04445 10.4463C2.72945 9.60642 2.72945 8.66154 3.04445 7.76915V5.98438H0.734453C-0.263047 7.92663 -0.263047 10.2363 0.734453 12.2311L3.04445 10.4463Z" fill="#FBBC04"/>
<path d="M6.92961 4.93439C7.92711 4.93439 8.87211 5.30184 9.60711 5.98426L11.6021 3.98951C10.3421 2.83465 8.66211 2.15224 6.98211 2.20473C4.35711 2.20473 1.94211 3.67454 0.787109 6.03675L3.09711 7.82153C3.56961 6.14174 5.14461 4.93439 6.92961 4.93439Z" fill="#EA4335"/>
</g>
<defs>
<clipPath id="clip0_1042_75725">
<rect width="42" height="20" fill="white"/>
</clipPath>
</defs>
</svg>
