<svg width="41" height="17" viewBox="0 0 41 17" fill="none" xmlns="http://www.w3.org/2000/svg">
<g clip-path="url(#clip0_1042_75721)">
<path d="M7.49452 2.19172C7.01405 2.76594 6.2453 3.21884 5.47655 3.15414C5.38046 2.37774 5.75683 1.55281 6.19726 1.04329C6.67772 0.452902 7.51854 0.0323501 8.19921 0C8.27929 0.808754 7.96698 1.60133 7.49452 2.19172ZM8.1912 3.3078C7.07811 3.2431 6.12519 3.94672 5.59667 3.94672C5.06015 3.94672 4.25136 3.34015 3.3705 3.35633C2.22538 3.3725 1.16034 4.02759 0.575772 5.07089C-0.6254 7.15747 0.263467 10.2469 1.4246 11.9453C1.99315 12.7864 2.67382 13.7084 3.57069 13.676C4.41952 13.6437 4.75585 13.118 5.78085 13.118C6.81386 13.118 7.11015 13.676 8.00702 13.6598C8.93593 13.6437 9.5205 12.8187 10.0891 11.9776C10.7377 11.0233 11.0019 10.0932 11.018 10.0447C11.0019 10.0285 9.22421 9.3411 9.20819 7.27069C9.19218 5.53996 10.6096 4.71503 10.6736 4.66651C9.87284 3.46955 8.62362 3.34015 8.1912 3.3078ZM14.6215 0.962417V13.5709H16.5594V9.26023H19.242C21.6924 9.26023 23.4141 7.56185 23.4141 5.10324C23.4141 2.64462 21.7244 0.962417 19.306 0.962417H14.6215ZM16.5594 2.61227H18.7935C20.4752 2.61227 21.4361 3.51808 21.4361 5.11132C21.4361 6.70457 20.4752 7.61846 18.7855 7.61846H16.5594V2.61227ZM26.9535 13.6679C28.1707 13.6679 29.2998 13.0452 29.8123 12.0585H29.8523V13.5709H31.6461V7.29496C31.6461 5.47526 30.2047 4.30257 27.9865 4.30257C25.9285 4.30257 24.407 5.49144 24.351 7.12512H26.0967C26.2408 6.34872 26.9535 5.8392 27.9305 5.8392C29.1156 5.8392 29.7803 6.39724 29.7803 7.42436V8.11989L27.3619 8.26546C25.1117 8.40295 23.8945 9.33302 23.8945 10.9505C23.8945 12.5842 25.1517 13.6679 26.9535 13.6679ZM27.474 12.1717C26.441 12.1717 25.7844 11.6703 25.7844 10.902C25.7844 10.1094 26.417 9.64843 27.6262 9.57564L29.7803 9.43815V10.1499C29.7803 11.3306 28.7873 12.1717 27.474 12.1717ZM34.0404 17C35.9303 17 36.8191 16.2721 37.5959 14.0642L40.9992 4.42388H39.0293L36.7471 11.8725H36.707L34.4248 4.42388H32.3988L35.682 13.6032L35.5058 14.1613C35.2096 15.1075 34.7291 15.4715 33.8723 15.4715C33.7201 15.4715 33.4238 15.4553 33.3037 15.4391V16.9515C33.4158 16.9838 33.8963 17 34.0404 17Z" fill="white"/>
</g>
<defs>
<clipPath id="clip0_1042_75721">
<rect width="41" height="17" fill="white"/>
</clipPath>
</defs>
</svg>
