<svg width="156" height="120" viewBox="0 0 156 120" fill="none" xmlns="http://www.w3.org/2000/svg">
<path d="M86.0673 21.3852C85.9353 22.0794 85.7228 22.759 85.6542 23.4651C85.4219 24.0695 85.3493 24.7188 85.2015 25.347C84.1457 30.366 83.0028 35.3678 81.9985 40.3973C82.5396 39.9037 83.0569 39.3864 83.5822 38.873C87.2313 35.2728 90.949 31.7425 94.5664 28.1106C96.1567 26.6153 97.6915 25.0633 99.2607 23.5456C101.35 21.5119 103.451 19.4927 105.503 17.422C104.376 16.3161 103.11 15.3659 101.839 14.4341C97.937 11.6442 93.5357 9.54977 88.8941 8.32902C87.9162 12.6723 87.0122 17.034 86.0673 21.3852ZM62.2922 10.3086C54.222 13.831 47.3858 20.08 43.1204 27.7806C38.43 36.1808 36.9796 46.2952 38.9909 55.6931C40.1549 61.232 42.5278 66.5096 45.8826 71.064C50.7326 77.6786 57.6164 82.7965 65.3923 85.4294C71.4749 87.4974 78.0525 88.0794 84.407 87.1411C89.1739 86.4377 93.8141 84.8645 98.0228 82.518C105.869 78.1537 112.205 71.1142 115.658 62.821C119.872 52.8266 119.789 41.1152 115.433 31.1829C113.589 26.9558 111.012 23.0494 107.844 19.6986C107.438 19.9889 107.074 20.3347 106.73 20.6989C103.475 23.9085 100.166 27.064 96.9327 30.296C95.3912 31.6923 93.9461 33.1915 92.4416 34.6287C88.6289 38.3517 84.8162 42.0734 81.0021 45.795C80.7421 46.0273 80.6709 46.3823 80.5996 46.7083C79.8803 50.1594 79.1109 53.6 78.3904 57.0511C78.2953 57.6423 77.8611 58.2045 77.2541 58.3193C76.3778 58.5463 75.4077 57.7136 75.5582 56.8082C75.9607 54.4472 76.6206 52.1351 77.002 49.7674C75.5899 50.9658 74.3586 52.3581 72.9873 53.6026C72.404 54.1424 71.4129 54.1173 70.8626 53.5406C70.2463 52.9731 70.2331 51.9199 70.8296 51.3327C72.5254 49.6276 74.2807 47.9805 75.9818 46.2781C76.7156 45.5456 77.5233 44.8765 78.1832 44.0741C78.4814 43.4512 78.5395 42.7412 78.6978 42.0747C79.4409 38.6249 80.1891 35.1764 80.9256 31.724C81.5287 28.7533 82.2506 25.8063 82.8088 22.8263C83.2193 21.0764 83.5888 19.3158 83.9596 17.5579C84.6472 14.2639 85.4272 10.9883 86.0527 7.68367C78.1092 6.14881 69.7078 7.06999 62.2922 10.3086ZM87.5045 1.12061C87.6206 0.557085 88.1063 0.100456 88.6751 0.0225917C89.5382 -0.147654 90.4448 0.671902 90.3089 1.55217C90.1083 2.83891 89.7243 4.09134 89.5368 5.38072C94.3024 6.67275 98.8595 8.75133 102.932 11.5452C104.623 12.6683 106.159 13.996 107.71 15.2985C110.481 12.6076 113.237 9.8995 116.006 7.20724C116.531 6.67275 117.435 6.56849 118.043 7.02116C118.62 7.41708 118.879 8.21024 118.624 8.86615C118.443 9.34125 118.033 9.66063 117.686 10.0117C115.62 12.0296 113.546 14.0408 111.485 16.0653C110.976 16.5563 110.445 17.0287 109.995 17.5764C113.192 21.0249 115.883 24.9511 117.836 29.231C122.451 39.2016 123.004 50.9446 119.429 61.3231C116.664 69.4091 111.425 76.6175 104.615 81.7737C100.62 84.7986 96.1065 87.1477 91.3145 88.6192C80.8279 91.9106 69.0875 91.0013 59.2449 86.0985C51.6142 82.3333 45.1422 76.2651 40.8966 68.8904C37.2291 62.5597 35.2283 55.28 35.1214 47.9634C35.0159 41.758 36.2591 35.5301 38.7613 29.8473C41.9867 22.4964 47.3066 16.0878 53.929 11.5518C57.8394 8.86483 62.1919 6.81924 66.7648 5.55361C72.3935 3.9884 78.3376 3.56477 84.1286 4.33153C84.997 4.42392 85.8469 4.62056 86.7139 4.72613C87.0016 3.53177 87.2181 2.31893 87.5045 1.12061Z" fill="white"/>
<path d="M68.7259 24.3064C73.1641 22.5169 78.1 22.0286 82.8114 22.8336C82.2532 25.8136 81.5313 28.7605 80.9282 31.7313C80.1904 35.1824 79.4434 38.6322 78.7004 42.082C78.5421 42.7484 78.4827 43.4584 78.1844 44.0814C77.5245 44.8851 76.7169 45.5529 75.9831 46.2866C74.2833 47.9878 72.528 49.6348 70.8308 51.3399C70.2343 51.9272 70.2475 52.9803 70.8638 53.5478C71.4142 54.1246 72.4053 54.1496 72.9886 53.6099C74.3598 52.3654 75.5911 50.9743 77.0033 49.776C76.6218 52.1436 75.962 54.4545 75.5595 56.8168C75.409 57.7222 76.379 58.5562 77.2553 58.3279C77.8624 58.2131 78.2966 57.6522 78.3916 57.061C79.1109 53.6099 79.8816 50.1693 80.6009 46.7169C80.6721 46.3909 80.7434 46.0359 81.0034 45.8036C84.8187 42.082 88.6315 38.3603 92.4442 34.6373C93.9487 33.2001 95.3925 31.6996 96.9339 30.3033C100.323 33.6818 102.667 38.0779 103.706 42.7431C104.764 47.4678 104.474 52.4894 102.845 57.0517C101.381 61.2115 98.8225 64.9741 95.5099 67.8815C92.1235 70.8654 87.9452 72.9533 83.5148 73.8269C77.9799 74.9315 72.0806 74.2228 67.0102 71.7285C62.8873 69.7265 59.3214 66.6066 56.7796 62.7979C53.3641 57.7301 51.8636 51.427 52.5921 45.3628C53.1173 40.815 54.8845 36.419 57.6519 32.7712C60.4841 29.0139 64.3549 26.0472 68.7259 24.3064Z" fill="#E30613"/>
<path d="M85.2131 25.3448C85.3622 24.7166 85.4335 24.0673 85.6658 23.4629C88.8899 24.4408 91.9464 25.9981 94.5766 28.1084C90.9606 31.7403 87.2415 35.2706 83.5925 38.8708C83.0672 39.3829 82.5512 39.9015 82.0088 40.3951C83.0144 35.3656 84.1586 30.3651 85.2131 25.3448Z" fill="#E62829"/>
<path d="M15.0457 105.248L13.2141 108.803L12.8885 108.626C12.8885 108.326 12.7936 108.09 12.6036 107.917C12.0881 107.454 11.3283 107.073 10.3244 106.773C9.32044 106.474 8.30292 106.324 7.27184 106.324C6.39452 106.324 5.61668 106.446 4.93834 106.692C3.96153 107.046 3.47312 107.559 3.47312 108.231C3.47312 108.676 3.70828 108.994 4.1786 109.184C4.64891 109.366 5.55789 109.511 6.90554 109.62L9.0491 109.784C10.9213 109.929 12.3458 110.292 13.3227 110.873C13.8653 111.2 14.313 111.636 14.6658 112.181C15.109 112.862 15.3306 113.63 15.3306 114.483C15.3306 116.036 14.6341 117.262 13.2413 118.161C11.9117 119.024 10.1118 119.455 7.84165 119.455C5.55337 119.455 3.34197 118.969 1.20745 117.998C1.06274 117.934 0.940636 117.902 0.841146 117.902C0.660254 117.902 0.49293 118.011 0.339172 118.229L0 118.093L1.56019 114.361L1.89936 114.497C1.89936 114.551 1.89936 114.588 1.89936 114.606C1.89936 114.842 1.98981 115.042 2.1707 115.205C2.62293 115.605 3.40528 115.954 4.51777 116.254C5.63025 116.545 6.72917 116.69 7.81452 116.69C8.77324 116.69 9.63248 116.563 10.3922 116.308C11.3329 116 11.8032 115.5 11.8032 114.81C11.8032 114.256 11.4776 113.87 10.8264 113.652C10.3922 113.507 9.60987 113.384 8.47929 113.284L6.34929 113.107C5.20063 113.017 4.32331 112.899 3.71732 112.753C3.11134 112.608 2.58223 112.394 2.13 112.113C1.55115 111.75 1.09892 111.255 0.773311 110.628C0.447707 110.002 0.284904 109.316 0.284904 108.571C0.284904 106.9 0.999426 105.624 2.42847 104.744C3.73089 103.944 5.34082 103.545 7.25827 103.545C8.2984 103.545 9.26617 103.663 10.1616 103.899C11.066 104.126 12.1423 104.53 13.3905 105.111C13.7613 105.284 14.0191 105.37 14.1638 105.37C14.3085 105.37 14.4939 105.27 14.7201 105.071L15.0457 105.248Z" fill="white"/>
<path d="M33.4966 105.261V113.339C33.4966 115.182 33.1348 116.536 32.4112 117.398C31.2445 118.769 29.0467 119.455 25.8178 119.455C23.6561 119.455 21.9105 119.124 20.5809 118.461C19.6222 117.979 18.9665 117.294 18.6137 116.404C18.2881 115.587 18.1253 114.565 18.1253 113.339V105.261C18.1253 104.98 18.062 104.766 17.9354 104.621C17.8088 104.476 17.5827 104.353 17.2571 104.253V103.872H22.6431V104.253C22.3085 104.344 22.0778 104.467 21.9512 104.621C21.8246 104.766 21.7613 104.98 21.7613 105.261V112.603C21.7613 113.457 21.8336 114.111 21.9783 114.565C22.1321 115.019 22.3944 115.391 22.7652 115.682C23.5069 116.272 24.5786 116.567 25.9806 116.567C27.3825 116.567 28.4542 116.272 29.1959 115.682C29.5577 115.391 29.8109 115.019 29.9556 114.565C30.1004 114.111 30.1727 113.457 30.1727 112.603V105.261C30.1727 104.98 30.1094 104.766 29.9828 104.621C29.8652 104.476 29.6391 104.353 29.3044 104.253V103.872H34.3649V104.253C34.0393 104.344 33.8132 104.467 33.6865 104.621C33.5599 104.766 33.4966 104.98 33.4966 105.261Z" fill="white"/>
<path d="M51.3506 105.248L49.5191 108.803L49.1935 108.626C49.1935 108.326 49.0985 108.09 48.9086 107.917C48.393 107.454 47.6333 107.073 46.6293 106.773C45.6254 106.474 44.6079 106.324 43.5768 106.324C42.6995 106.324 41.9216 106.446 41.2433 106.692C40.2665 107.046 39.7781 107.559 39.7781 108.231C39.7781 108.676 40.0132 108.994 40.4835 109.184C40.9539 109.366 41.8628 109.511 43.2105 109.62L45.354 109.784C47.2263 109.929 48.6508 110.292 49.6276 110.873C50.1703 111.2 50.618 111.636 50.9707 112.181C51.4139 112.862 51.6355 113.63 51.6355 114.483C51.6355 116.036 50.9391 117.262 49.5462 118.161C48.2167 119.024 46.4168 119.455 44.1466 119.455C41.8583 119.455 39.6469 118.969 37.5124 117.998C37.3677 117.934 37.2456 117.902 37.1461 117.902C36.9652 117.902 36.7979 118.011 36.6441 118.229L36.3049 118.093L37.8651 114.361L38.2043 114.497C38.2043 114.551 38.2043 114.588 38.2043 114.606C38.2043 114.842 38.2947 115.042 38.4756 115.205C38.9279 115.605 39.7102 115.954 40.8227 116.254C41.9352 116.545 43.0341 116.69 44.1195 116.69C45.0782 116.69 45.9374 116.563 46.6972 116.308C47.6378 116 48.1081 115.5 48.1081 114.81C48.1081 114.256 47.7825 113.87 47.1313 113.652C46.6972 113.507 45.9148 113.384 44.7842 113.284L42.6542 113.107C41.5056 113.017 40.6283 112.899 40.0223 112.753C39.4163 112.608 38.8872 112.394 38.4349 112.113C37.8561 111.75 37.4039 111.255 37.0783 110.628C36.7526 110.002 36.5898 109.316 36.5898 108.571C36.5898 106.9 37.3044 105.624 38.7334 104.744C40.0358 103.944 41.6458 103.545 43.5632 103.545C44.6033 103.545 45.5711 103.663 46.4665 103.899C47.371 104.126 48.4473 104.53 49.6954 105.111C50.0663 105.284 50.324 105.37 50.4688 105.37C50.6135 105.37 50.7989 105.27 51.025 105.071L51.3506 105.248Z" fill="white"/>
<path d="M66.844 112.494H58.3647V117.739C58.3647 118.02 58.428 118.238 58.5546 118.393C58.6812 118.538 58.9073 118.661 59.2329 118.76V119.128H53.8605V118.747C54.177 118.665 54.3986 118.547 54.5252 118.393C54.6609 118.238 54.7287 118.02 54.7287 117.739V105.261C54.7287 104.98 54.6654 104.766 54.5388 104.621C54.4122 104.476 54.1861 104.353 53.8605 104.253V103.872H59.2329V104.253C58.9073 104.344 58.6812 104.467 58.5546 104.621C58.428 104.766 58.3647 104.98 58.3647 105.261V109.729H66.844V105.261C66.844 104.98 66.7806 104.766 66.654 104.621C66.5364 104.476 66.3103 104.353 65.9757 104.253V103.872H71.3482V104.253C71.0226 104.344 70.7964 104.467 70.6698 104.621C70.5432 104.766 70.4799 104.98 70.4799 105.261V117.739C70.4799 118.02 70.5432 118.238 70.6698 118.393C70.7964 118.538 71.0226 118.661 71.3482 118.76V119.128H65.9757V118.747C66.2922 118.665 66.5138 118.547 66.6405 118.393C66.7761 118.238 66.844 118.02 66.844 117.739V112.494Z" fill="white"/>
<path d="M78.525 105.261V117.739C78.525 118.02 78.5883 118.238 78.715 118.393C78.8416 118.538 79.0677 118.661 79.3933 118.76V119.128H74.0208V118.747C74.3374 118.665 74.559 118.547 74.6856 118.393C74.8213 118.238 74.8891 118.02 74.8891 117.739V105.261C74.8891 104.98 74.8258 104.766 74.6992 104.621C74.5726 104.476 74.3464 104.353 74.0208 104.253V103.872H79.3933V104.253C79.0677 104.344 78.8416 104.467 78.715 104.621C78.5883 104.766 78.525 104.98 78.525 105.261Z" fill="white"/>
<path d="M89.7014 109.143V113.857H89.2673C89.1768 113.53 89.0593 113.303 88.9145 113.175C88.7698 113.048 88.5573 112.985 88.2769 112.985H84.9394C84.6681 112.985 84.4556 113.053 84.3018 113.189C84.1571 113.316 84.044 113.539 83.9626 113.857H83.5285V109.143H83.9626C84.044 109.47 84.1571 109.702 84.3018 109.838C84.4556 109.965 84.6681 110.029 84.9394 110.029H88.2769C88.5573 110.029 88.7698 109.965 88.9145 109.838C89.0593 109.711 89.1768 109.479 89.2673 109.143H89.7014Z" fill="white"/>
<path d="M102.207 106.637V117.739C102.207 118.02 102.271 118.238 102.397 118.393C102.524 118.538 102.75 118.661 103.076 118.76V119.128H97.7032V118.747C98.0197 118.665 98.2413 118.547 98.3679 118.393C98.5036 118.238 98.5714 118.02 98.5714 117.739V106.637H94.0944C93.8049 106.637 93.5834 106.705 93.4296 106.841C93.2849 106.968 93.1673 107.196 93.0769 107.522H92.7105V103H93.0904C93.1718 103.318 93.2849 103.545 93.4296 103.681C93.5834 103.808 93.8049 103.872 94.0944 103.872H106.684C106.974 103.872 107.191 103.808 107.336 103.681C107.489 103.554 107.611 103.327 107.702 103H108.068V107.522H107.702C107.611 107.196 107.489 106.968 107.336 106.841C107.191 106.705 106.974 106.637 106.684 106.637H102.207Z" fill="white"/>
<path d="M114.146 105.261V117.739C114.146 118.02 114.21 118.238 114.336 118.393C114.463 118.538 114.689 118.661 115.014 118.76V119.128H109.642V118.747C109.959 118.665 110.18 118.547 110.307 118.393C110.442 118.238 110.51 118.02 110.51 117.739V105.261C110.51 104.98 110.447 104.766 110.32 104.621C110.194 104.476 109.968 104.353 109.642 104.253V103.872H115.014V104.253C114.689 104.344 114.463 104.467 114.336 104.621C114.21 104.766 114.146 104.98 114.146 105.261Z" fill="white"/>
<path d="M127.415 118.651L121.879 109.103V117.739C121.879 118.02 121.943 118.238 122.069 118.393C122.196 118.538 122.422 118.661 122.748 118.76V119.128H117.701V118.747C118.017 118.665 118.239 118.547 118.366 118.393C118.501 118.238 118.569 118.02 118.569 117.739V105.261C118.569 104.98 118.506 104.766 118.379 104.621C118.252 104.467 118.026 104.344 117.701 104.253V103.872H124.118V104.253C123.693 104.389 123.48 104.648 123.48 105.03C123.48 105.402 123.634 105.856 123.941 106.392L127.727 112.808L131.539 106.487C131.973 105.77 132.19 105.261 132.19 104.962C132.19 104.589 131.969 104.353 131.525 104.253V103.872H137.78V104.253C137.454 104.344 137.228 104.467 137.101 104.621C136.975 104.766 136.911 104.98 136.911 105.261V117.739C136.911 118.02 136.975 118.238 137.101 118.393C137.228 118.547 137.454 118.67 137.78 118.76V119.128H132.407V118.747C132.724 118.665 132.945 118.547 133.072 118.393C133.208 118.238 133.275 118.02 133.275 117.739V109.103L127.415 118.651Z" fill="white"/>
<path d="M144.97 112.644V116.363H154.616C154.897 116.363 155.109 116.299 155.254 116.172C155.408 116.045 155.53 115.814 155.62 115.478H156V120H155.62C155.539 119.682 155.421 119.455 155.267 119.319C155.114 119.192 154.897 119.128 154.616 119.128H140.466V118.747C140.783 118.665 141.004 118.547 141.131 118.393C141.266 118.238 141.334 118.02 141.334 117.739V105.261C141.334 104.98 141.271 104.766 141.144 104.621C141.018 104.476 140.792 104.353 140.466 104.253V103.872H154.196C154.485 103.872 154.702 103.808 154.847 103.681C155.001 103.554 155.123 103.327 155.213 103H155.579V107.522H155.213C155.123 107.186 155.001 106.955 154.847 106.828C154.702 106.701 154.485 106.637 154.196 106.637H144.97V109.988H150.695C150.976 109.988 151.188 109.924 151.333 109.797C151.487 109.67 151.613 109.443 151.713 109.116H152.079V113.53H151.713C151.622 113.203 151.5 112.976 151.347 112.849C151.202 112.712 150.985 112.644 150.695 112.644H144.97Z" fill="white"/>
</svg>
