<svg width="181" height="35" viewBox="0 0 181 35" fill="none" xmlns="http://www.w3.org/2000/svg">
<path d="M19.1282 8.98294C19.0787 9.24355 18.9989 9.49871 18.9732 9.76377C18.886 9.99069 18.8587 10.2345 18.8032 10.4703C18.4069 12.3545 17.9778 14.2322 17.6008 16.1204C17.8039 15.9351 17.9981 15.7409 18.1953 15.5482C19.5652 14.1966 20.9609 12.8712 22.3189 11.5078C22.916 10.9464 23.4922 10.3638 24.0813 9.79399C24.8656 9.03051 25.6543 8.27246 26.4247 7.4951C26.0016 7.07991 25.5265 6.72319 25.0494 6.3734C23.5843 5.32601 21.932 4.53973 20.1895 4.08144C19.8224 5.71197 19.483 7.34944 19.1282 8.98294ZM10.2027 4.82462C7.17299 6.14698 4.60656 8.49294 3.00526 11.3839C1.24443 14.5374 0.699925 18.3346 1.45499 21.8627C1.89198 23.9421 2.7828 25.9234 4.04224 27.6332C5.86302 30.1164 8.4473 32.0378 11.3665 33.0262C13.65 33.8026 16.1194 34.0211 18.505 33.6688C20.2945 33.4047 22.0365 32.8141 23.6165 31.9332C26.562 30.2948 28.9406 27.652 30.2372 24.5386C31.8192 20.7866 31.788 16.3899 30.1525 12.6612C29.4604 11.0742 28.4928 9.60771 27.3037 8.34975C27.1511 8.45875 27.0143 8.58856 26.8855 8.72531C25.6632 9.93024 24.4211 11.1149 23.2073 12.3282C22.6286 12.8524 22.0861 13.4152 21.5213 13.9548C20.0899 15.3525 18.6585 16.7496 17.2267 18.1468C17.1291 18.234 17.1023 18.3673 17.0756 18.4897C16.8056 19.7853 16.5167 21.0769 16.2462 22.3725C16.2105 22.5945 16.0475 22.8055 15.8196 22.8486C15.4906 22.9339 15.1265 22.6212 15.183 22.2813C15.3341 21.395 15.5818 20.527 15.725 19.6381C15.1948 20.088 14.7326 20.6107 14.2178 21.0779C13.9988 21.2805 13.6267 21.2711 13.4201 21.0546C13.1888 20.8416 13.1838 20.4462 13.4078 20.2257C14.0444 19.5856 14.7034 18.9673 15.342 18.3281C15.6175 18.0532 15.9207 17.802 16.1684 17.5007C16.2804 17.2669 16.3022 17.0003 16.3616 16.7501C16.6406 15.455 16.9215 14.1604 17.198 12.8643C17.4244 11.749 17.6954 10.6427 17.905 9.52397C18.059 8.86701 18.1978 8.20607 18.337 7.54613C18.5951 6.30949 18.8879 5.07978 19.1228 3.83917C16.1407 3.26296 12.9866 3.60878 10.2027 4.82462ZM19.6678 1.37529C19.7114 1.16373 19.8937 0.992303 20.1072 0.963071C20.4313 0.899158 20.7716 1.20683 20.7206 1.5373C20.6453 2.02036 20.5011 2.49055 20.4308 2.9746C22.2198 3.45965 23.9306 4.23999 25.4596 5.28886C26.0943 5.71048 26.671 6.20891 27.2531 6.69792C28.2936 5.68769 29.3281 4.67103 30.3675 3.66031C30.5647 3.45965 30.9041 3.42051 31.1325 3.59045C31.349 3.73908 31.4461 4.03685 31.3505 4.28309C31.2826 4.46145 31.1286 4.58135 30.9983 4.71314C30.2229 5.47069 29.444 6.22575 28.6706 6.98578C28.4794 7.17008 28.2802 7.34746 28.1113 7.55307C29.3112 8.84768 30.3215 10.3217 31.0547 11.9284C32.7873 15.6715 32.9949 20.0801 31.6527 23.9763C30.6148 27.0119 28.6478 29.7181 26.0913 31.6538C24.5916 32.7894 22.8971 33.6713 21.0981 34.2237C17.1613 35.4594 12.7538 35.118 9.05868 33.2774C6.19398 31.8639 3.76429 29.5858 2.17042 26.8172C0.793565 24.4405 0.0424605 21.7076 0.002329 18.9608C-0.0373071 16.6312 0.429408 14.2932 1.36878 12.1598C2.57967 9.40011 4.57683 6.9942 7.063 5.29133C8.53103 4.28259 10.165 3.51465 11.8818 3.03951C13.9949 2.4519 16.2264 2.29286 18.4004 2.58072C18.7264 2.6154 19.0455 2.68922 19.371 2.72886C19.479 2.28048 19.5603 1.82516 19.6678 1.37529Z" fill="white"/>
<path d="M12.6176 10.0782C14.2838 9.40637 16.1368 9.22305 17.9056 9.52528C17.696 10.644 17.425 11.7503 17.1986 12.8656C16.9216 14.1612 16.6412 15.4563 16.3622 16.7514C16.3028 17.0016 16.2805 17.2682 16.1685 17.502C15.9208 17.8038 15.6176 18.0545 15.3421 18.3299C14.704 18.9686 14.045 19.5869 13.4079 20.227C13.1839 20.4475 13.1889 20.8429 13.4202 21.0559C13.6269 21.2724 13.9989 21.2818 14.2179 21.0792C14.7327 20.612 15.195 20.0898 15.7251 19.6399C15.5819 20.5288 15.3342 21.3963 15.1831 22.2831C15.1266 22.623 15.4907 22.9362 15.8197 22.8504C16.0476 22.8073 16.2106 22.5968 16.2463 22.3748C16.5163 21.0792 16.8057 19.7876 17.0757 18.4915C17.1024 18.3691 17.1292 18.2358 17.2268 18.1486C18.6592 16.7514 20.0905 15.3543 21.5219 13.9566C22.0867 13.417 22.6287 12.8537 23.2074 12.3295C24.4797 13.5979 25.3596 15.2482 25.7496 16.9997C26.1469 18.7734 26.0379 20.6586 25.4265 22.3713C24.8771 23.933 23.9164 25.3455 22.6728 26.437C21.4015 27.5572 19.8329 28.341 18.1696 28.669C16.0917 29.0837 13.8771 28.8177 11.9735 27.8812C10.4257 27.1296 9.08703 25.9584 8.13279 24.5285C6.85056 22.626 6.28723 20.2597 6.56072 17.9831C6.75791 16.2758 7.42132 14.6255 8.46028 13.256C9.52352 11.8455 10.9767 10.7317 12.6176 10.0782Z" fill="#E30613"/>
<path d="M18.8045 10.4687C18.8605 10.2329 18.8873 9.98912 18.9745 9.76221C20.1848 10.1293 21.3323 10.714 22.3197 11.5062C20.9622 12.8697 19.566 14.195 18.1961 15.5466C17.9989 15.7388 17.8052 15.9335 17.6016 16.1188C17.9791 14.2307 18.4087 12.3534 18.8045 10.4687Z" fill="#E62829"/>
<path d="M56.2756 13.9832L54.6595 17.1202L54.3722 16.9639C54.3722 16.6995 54.2884 16.4912 54.1208 16.3389C53.666 15.9303 52.9956 15.5938 52.1098 15.3293C51.2239 15.0649 50.3261 14.9327 49.4163 14.9327C48.6422 14.9327 47.9559 15.0409 47.3574 15.2572C46.4955 15.5697 46.0645 16.0224 46.0645 16.6154C46.0645 17.008 46.272 17.2885 46.687 17.4567C47.102 17.617 47.904 17.7452 49.0931 17.8413L50.9845 17.9856C52.6365 18.1138 53.8934 18.4343 54.7553 18.9471C55.2341 19.2356 55.6292 19.6202 55.9404 20.101C56.3314 20.7019 56.527 21.379 56.527 22.1322C56.527 23.5024 55.9125 24.5841 54.6835 25.3774C53.5103 26.1386 51.9222 26.5192 49.9191 26.5192C47.9 26.5192 45.9488 26.0905 44.0654 25.2332C43.9377 25.1771 43.83 25.149 43.7422 25.149C43.5826 25.149 43.4349 25.2452 43.2993 25.4375L43 25.3173L44.3766 22.024L44.6759 22.1442C44.6759 22.1923 44.6759 22.2244 44.6759 22.2404C44.6759 22.4487 44.7557 22.625 44.9153 22.7692C45.3143 23.1218 46.0047 23.4303 46.9863 23.6947C47.9679 23.9511 48.9375 24.0793 49.8952 24.0793C50.7411 24.0793 51.4992 23.9671 52.1696 23.7428C52.9996 23.4704 53.4146 23.0296 53.4146 22.4207C53.4146 21.9319 53.1273 21.5913 52.5527 21.399C52.1696 21.2708 51.4793 21.1627 50.4817 21.0745L48.6023 20.9183C47.5888 20.8381 46.8147 20.734 46.28 20.6058C45.7453 20.4776 45.2784 20.2893 44.8794 20.0409C44.3687 19.7204 43.9696 19.2837 43.6823 18.7308C43.395 18.1779 43.2514 17.5729 43.2514 16.9159C43.2514 15.4415 43.8818 14.3157 45.1428 13.5385C46.292 12.8333 47.7125 12.4808 49.4044 12.4808C50.3221 12.4808 51.176 12.5849 51.9661 12.7933C52.7642 12.9936 53.7138 13.3502 54.8151 13.863C55.1423 14.0152 55.3698 14.0913 55.4975 14.0913C55.6252 14.0913 55.7888 14.0032 55.9883 13.8269L56.2756 13.9832Z" fill="white"/>
<path d="M72.5558 13.9952V21.1226C72.5558 22.7492 72.2366 23.9431 71.5982 24.7043C70.5687 25.9143 68.6294 26.5192 65.7804 26.5192C63.873 26.5192 62.3328 26.2268 61.1597 25.6418C60.3137 25.2171 59.7351 24.6122 59.4239 23.8269C59.1366 23.1058 58.9929 22.2043 58.9929 21.1226V13.9952C58.9929 13.7468 58.9371 13.5585 58.8254 13.4303C58.7136 13.3021 58.5141 13.1939 58.2268 13.1058V12.7692H62.9792V13.1058C62.6839 13.1859 62.4804 13.2941 62.3687 13.4303C62.257 13.5585 62.2011 13.7468 62.2011 13.9952V20.4736C62.2011 21.2268 62.265 21.8037 62.3926 22.2043C62.5283 22.605 62.7597 22.9335 63.0869 23.1899C63.7413 23.7107 64.687 23.9712 65.924 23.9712C67.161 23.9712 68.1067 23.7107 68.7611 23.1899C69.0803 22.9335 69.3038 22.605 69.4315 22.2043C69.5591 21.8037 69.623 21.2268 69.623 20.4736V13.9952C69.623 13.7468 69.5671 13.5585 69.4554 13.4303C69.3516 13.3021 69.1521 13.1939 68.8569 13.1058V12.7692H73.322V13.1058C73.0347 13.1859 72.8351 13.2941 72.7234 13.4303C72.6117 13.5585 72.5558 13.7468 72.5558 13.9952Z" fill="white"/>
<path d="M88.3094 13.9832L86.6933 17.1202L86.406 16.9639C86.406 16.6995 86.3222 16.4912 86.1546 16.3389C85.6997 15.9303 85.0294 15.5938 84.1435 15.3293C83.2577 15.0649 82.3599 14.9327 81.4501 14.9327C80.676 14.9327 79.9897 15.0409 79.3911 15.2572C78.5292 15.5697 78.0983 16.0224 78.0983 16.6154C78.0983 17.008 78.3058 17.2885 78.7208 17.4567C79.1358 17.617 79.9378 17.7452 81.1269 17.8413L83.0183 17.9856C84.6702 18.1138 85.9272 18.4343 86.7891 18.9471C87.2679 19.2356 87.6629 19.6202 87.9742 20.101C88.3652 20.7019 88.5607 21.379 88.5607 22.1322C88.5607 23.5024 87.9462 24.5841 86.7172 25.3774C85.5441 26.1386 83.956 26.5192 81.9529 26.5192C79.9338 26.5192 77.9826 26.0905 76.0992 25.2332C75.9715 25.1771 75.8637 25.149 75.776 25.149C75.6163 25.149 75.4687 25.2452 75.333 25.4375L75.0338 25.3173L76.4104 22.024L76.7097 22.1442C76.7097 22.1923 76.7097 22.2244 76.7097 22.2404C76.7097 22.4487 76.7895 22.625 76.9491 22.7692C77.3481 23.1218 78.0384 23.4303 79.02 23.6947C80.0016 23.9511 80.9713 24.0793 81.9289 24.0793C82.7749 24.0793 83.533 23.9671 84.2034 23.7428C85.0334 23.4704 85.4483 23.0296 85.4483 22.4207C85.4483 21.9319 85.161 21.5913 84.5864 21.399C84.2034 21.2708 83.5131 21.1627 82.5155 21.0745L80.6361 20.9183C79.6226 20.8381 78.8485 20.734 78.3138 20.6058C77.7791 20.4776 77.3122 20.2893 76.9132 20.0409C76.4024 19.7204 76.0034 19.2837 75.7161 18.7308C75.4288 18.1779 75.2852 17.5729 75.2852 16.9159C75.2852 15.4415 75.9156 14.3157 77.1765 13.5385C78.3257 12.8333 79.7463 12.4808 81.4381 12.4808C82.3559 12.4808 83.2098 12.5849 83.9999 12.7933C84.7979 12.9936 85.7476 13.3502 86.8489 13.863C87.1761 14.0152 87.4036 14.0913 87.5312 14.0913C87.6589 14.0913 87.8225 14.0032 88.0221 13.8269L88.3094 13.9832Z" fill="white"/>
<path d="M101.98 20.3774H94.4982V25.0048C94.4982 25.2532 94.5541 25.4455 94.6658 25.5817C94.7776 25.7099 94.9771 25.8181 95.2644 25.9062V26.2308H90.5239V25.8942C90.8033 25.8221 90.9988 25.7179 91.1105 25.5817C91.2302 25.4455 91.2901 25.2532 91.2901 25.0048V13.9952C91.2901 13.7468 91.2342 13.5585 91.1225 13.4303C91.0108 13.3021 90.8112 13.1939 90.5239 13.1058V12.7692H95.2644V13.1058C94.9771 13.1859 94.7776 13.2941 94.6658 13.4303C94.5541 13.5585 94.4982 13.7468 94.4982 13.9952V17.9375H101.98V13.9952C101.98 13.7468 101.924 13.5585 101.812 13.4303C101.709 13.3021 101.509 13.1939 101.214 13.1058V12.7692H105.954V13.1058C105.667 13.1859 105.467 13.2941 105.356 13.4303C105.244 13.5585 105.188 13.7468 105.188 13.9952V25.0048C105.188 25.2532 105.244 25.4455 105.356 25.5817C105.467 25.7099 105.667 25.8181 105.954 25.9062V26.2308H101.214V25.8942C101.493 25.8221 101.689 25.7179 101.8 25.5817C101.92 25.4455 101.98 25.2532 101.98 25.0048V20.3774Z" fill="white"/>
<path d="M112.287 13.9952V25.0048C112.287 25.2532 112.343 25.4455 112.454 25.5817C112.566 25.7099 112.766 25.8181 113.053 25.9062V26.2308H108.312V25.8942C108.592 25.8221 108.787 25.7179 108.899 25.5817C109.019 25.4455 109.079 25.2532 109.079 25.0048V13.9952C109.079 13.7468 109.023 13.5585 108.911 13.4303C108.799 13.3021 108.6 13.1939 108.312 13.1058V12.7692H113.053V13.1058C112.766 13.1859 112.566 13.2941 112.454 13.4303C112.343 13.5585 112.287 13.7468 112.287 13.9952Z" fill="white"/>
<path d="M122.148 17.4207V21.5793H121.765C121.685 21.2909 121.582 21.0905 121.454 20.9784C121.326 20.8662 121.139 20.8101 120.891 20.8101H117.947C117.707 20.8101 117.52 20.8702 117.384 20.9904C117.256 21.1026 117.157 21.2989 117.085 21.5793H116.702V17.4207H117.085C117.157 17.7091 117.256 17.9135 117.384 18.0337C117.52 18.1458 117.707 18.2019 117.947 18.2019H120.891C121.139 18.2019 121.326 18.1458 121.454 18.0337C121.582 17.9215 121.685 17.7171 121.765 17.4207H122.148Z" fill="white"/>
<path d="M133.183 15.2091V25.0048C133.183 25.2532 133.239 25.4455 133.351 25.5817C133.462 25.7099 133.662 25.8181 133.949 25.9062V26.2308H129.209V25.8942C129.488 25.8221 129.684 25.7179 129.795 25.5817C129.915 25.4455 129.975 25.2532 129.975 25.0048V15.2091H126.024C125.769 15.2091 125.574 15.2692 125.438 15.3894C125.31 15.5016 125.206 15.7019 125.127 15.9904H124.803V12H125.139C125.21 12.2804 125.31 12.4808 125.438 12.601C125.574 12.7131 125.769 12.7692 126.024 12.7692H137.133C137.389 12.7692 137.58 12.7131 137.708 12.601C137.844 12.4888 137.951 12.2885 138.031 12H138.354V15.9904H138.031C137.951 15.7019 137.844 15.5016 137.708 15.3894C137.58 15.2692 137.389 15.2091 137.133 15.2091H133.183Z" fill="white"/>
<path d="M143.717 13.9952V25.0048C143.717 25.2532 143.773 25.4455 143.885 25.5817C143.997 25.7099 144.196 25.8181 144.483 25.9062V26.2308H139.743V25.8942C140.022 25.8221 140.218 25.7179 140.33 25.5817C140.449 25.4455 140.509 25.2532 140.509 25.0048V13.9952C140.509 13.7468 140.453 13.5585 140.341 13.4303C140.23 13.3021 140.03 13.1939 139.743 13.1058V12.7692H144.483V13.1058C144.196 13.1859 143.997 13.2941 143.885 13.4303C143.773 13.5585 143.717 13.7468 143.717 13.9952Z" fill="white"/>
<path d="M155.425 25.8101L150.541 17.3846V25.0048C150.541 25.2532 150.596 25.4455 150.708 25.5817C150.82 25.7099 151.019 25.8181 151.307 25.9062V26.2308H146.854V25.8942C147.133 25.8221 147.328 25.7179 147.44 25.5817C147.56 25.4455 147.62 25.2532 147.62 25.0048V13.9952C147.62 13.7468 147.564 13.5585 147.452 13.4303C147.34 13.2941 147.141 13.1859 146.854 13.1058V12.7692H152.516V13.1058C152.141 13.226 151.953 13.4543 151.953 13.7909C151.953 14.1194 152.089 14.52 152.36 14.9928L155.7 20.6538L159.064 15.0769C159.447 14.4439 159.638 13.9952 159.638 13.7308C159.638 13.4022 159.443 13.1939 159.052 13.1058V12.7692H164.57V13.1058C164.283 13.1859 164.084 13.2941 163.972 13.4303C163.86 13.5585 163.804 13.7468 163.804 13.9952V25.0048C163.804 25.2532 163.86 25.4455 163.972 25.5817C164.084 25.7179 164.283 25.8261 164.57 25.9062V26.2308H159.83V25.8942C160.109 25.8221 160.305 25.7179 160.416 25.5817C160.536 25.4455 160.596 25.2532 160.596 25.0048V17.3846L155.425 25.8101Z" fill="white"/>
<path d="M170.915 20.5096V23.7909H179.426C179.673 23.7909 179.861 23.7348 179.989 23.6226C180.124 23.5104 180.232 23.3061 180.312 23.0096H180.647V27H180.312C180.24 26.7196 180.136 26.5192 180.001 26.399C179.865 26.2869 179.673 26.2308 179.426 26.2308H166.941V25.8942C167.22 25.8221 167.415 25.7179 167.527 25.5817C167.647 25.4455 167.707 25.2532 167.707 25.0048V13.9952C167.707 13.7468 167.651 13.5585 167.539 13.4303C167.427 13.3021 167.228 13.1939 166.941 13.1058V12.7692H179.055C179.31 12.7692 179.502 12.7131 179.63 12.601C179.765 12.4888 179.873 12.2885 179.953 12H180.276V15.9904H179.953C179.873 15.6939 179.765 15.4896 179.63 15.3774C179.502 15.2652 179.31 15.2091 179.055 15.2091H170.915V18.1659H175.966C176.214 18.1659 176.401 18.1098 176.529 17.9976C176.665 17.8854 176.777 17.6851 176.864 17.3966H177.188V21.2909H176.864C176.785 21.0024 176.677 20.8021 176.541 20.6899C176.413 20.5697 176.222 20.5096 175.966 20.5096H170.915Z" fill="white"/>
</svg>
