<svg width="99" height="40" viewBox="0 0 99 40" fill="none" xmlns="http://www.w3.org/2000/svg">
<path d="M22.5038 9.44512C22.4455 9.75172 22.3517 10.0519 22.3214 10.3637C22.2188 10.6307 22.1867 10.9175 22.1214 11.1949C21.6551 13.4116 21.1504 15.6208 20.7068 17.8421C20.9458 17.6241 21.1743 17.3957 21.4062 17.1689C23.0179 15.5788 24.6599 14.0196 26.2576 12.4155C26.96 11.7551 27.6379 11.0696 28.3309 10.3993C29.2536 9.50108 30.1816 8.60926 31.0879 7.69472C30.5902 7.20626 30.0312 6.78659 29.4699 6.37507C27.7463 5.14285 25.8024 4.21782 23.7523 3.67865C23.3204 5.59692 22.9212 7.52335 22.5038 9.44512ZM12.0032 4.55298C8.43882 6.10869 5.41948 8.86865 3.5356 12.2698C1.46403 15.9798 0.823441 20.4471 1.71176 24.5978C2.22586 27.0441 3.27389 29.3751 4.75558 31.3866C6.89768 34.308 9.938 36.5685 13.3724 37.7313C16.0589 38.6447 18.964 38.9017 21.7705 38.4873C23.8759 38.1766 25.9253 37.4818 27.7842 36.4455C31.2494 34.5179 34.0478 31.4088 35.5732 27.7459C37.4344 23.3317 37.3977 18.1592 35.4736 13.7724C34.6593 11.9055 33.5209 10.1801 32.122 8.70019C31.9425 8.82843 31.7816 8.98114 31.63 9.14202C30.1921 10.5596 28.7308 11.9533 27.3027 13.3808C26.6219 13.9974 25.9836 14.6596 25.3191 15.2944C23.6352 16.9387 21.9512 18.5824 20.2667 20.2261C20.1519 20.3287 20.1204 20.4855 20.0889 20.6295C19.7713 22.1537 19.4314 23.6733 19.1132 25.1976C19.0712 25.4587 18.8794 25.707 18.6113 25.7577C18.2243 25.858 17.7959 25.4902 17.8623 25.0903C18.0401 24.0475 18.3315 23.0263 18.5 21.9806C17.8763 22.5099 17.3325 23.1248 16.7269 23.6745C16.4692 23.9129 16.0315 23.9018 15.7884 23.6471C15.5162 23.3964 15.5104 22.9313 15.7738 22.6719C16.5228 21.9188 17.2981 21.1914 18.0494 20.4395C18.3735 20.116 18.7302 19.8205 19.0217 19.4661C19.1534 19.1909 19.179 18.8773 19.249 18.583C19.5772 17.0593 19.9076 15.5363 20.2329 14.0114C20.4993 12.6994 20.8181 11.3978 21.0647 10.0816C21.2459 9.30872 21.4092 8.53116 21.5729 7.75476C21.8766 6.29988 22.2211 4.85316 22.4974 3.39362C18.989 2.71573 15.2784 3.12258 12.0032 4.55298ZM23.1386 0.494937C23.1899 0.246046 23.4044 0.0443681 23.6556 0.00997799C24.0368 -0.065214 24.4372 0.296757 24.3772 0.68554C24.2886 1.25385 24.119 1.80701 24.0362 2.37649C26.141 2.94713 28.1537 3.86517 29.9525 5.09914C30.6992 5.59517 31.3776 6.18155 32.0625 6.75686C33.2866 5.56836 34.5036 4.37228 35.7265 3.1832C35.9585 2.94713 36.3578 2.90108 36.6265 3.10101C36.8812 3.27588 36.9955 3.62619 36.883 3.91588C36.8031 4.12572 36.6218 4.26678 36.4686 4.42183C35.5563 5.31306 34.64 6.20137 33.7302 7.09551C33.5052 7.31235 33.2708 7.52102 33.0721 7.76292C34.4838 9.28599 35.6723 11.0201 36.535 12.9104C38.5733 17.3141 38.8176 22.5006 37.2385 27.0844C36.0174 30.6557 33.7033 33.8394 30.6957 36.1167C28.9313 37.4527 26.9378 38.4902 24.8214 39.1401C20.1898 40.5939 15.0044 40.1922 10.6573 38.0268C7.28704 36.3639 4.42858 33.6838 2.55344 30.4266C0.933606 27.6305 0.0499536 24.4153 0.00274 21.1838C-0.0438907 18.4431 0.505186 15.6925 1.61033 13.1826C3.0349 9.93591 5.38451 7.10542 8.30942 5.10205C10.0365 3.9153 11.9589 3.01183 13.9786 2.45284C16.4646 1.76154 19.0899 1.57444 21.6476 1.91309C22.0311 1.9539 22.4065 2.04075 22.7894 2.08738C22.9165 1.55987 23.0121 1.0242 23.1386 0.494937Z" fill="white"/>
<path d="M14.8498 10.7363C16.81 9.94591 18.99 9.73025 21.0709 10.0858C20.8243 11.402 20.5055 12.7035 20.2391 14.0156C19.9133 15.5398 19.5834 17.0635 19.2552 18.5872C19.1853 18.8815 19.159 19.1951 19.0273 19.4702C18.7359 19.8252 18.3791 20.1201 18.0551 20.4442C17.3043 21.1956 16.5291 21.923 15.7795 22.6761C15.516 22.9355 15.5218 23.4006 15.794 23.6513C16.0371 23.906 16.4749 23.9171 16.7325 23.6787C17.3381 23.129 17.8819 22.5146 18.5056 21.9854C18.3372 23.0311 18.0457 24.0517 17.8679 25.0951C17.8015 25.4949 18.2299 25.8633 18.617 25.7625C18.8851 25.7118 19.0768 25.464 19.1188 25.2029C19.4365 23.6787 19.7769 22.1591 20.0946 20.6343C20.126 20.4903 20.1575 20.3335 20.2723 20.2309C21.9575 18.5872 23.6414 16.9434 25.3254 15.2991C25.9898 14.6644 26.6275 14.0016 27.3083 13.3849C28.8052 14.8771 29.8404 16.8187 30.2991 18.8792C30.7666 20.9659 30.6383 23.1838 29.9191 25.1988C29.2727 27.0361 28.1424 28.6979 26.6794 29.982C25.1837 31.2999 23.3383 32.222 21.3816 32.6079C18.937 33.0957 16.3315 32.7827 14.092 31.6811C12.2711 30.7968 10.6961 29.4189 9.57351 27.7367C8.065 25.4984 7.40226 22.7146 7.72401 20.0362C7.956 18.0276 8.73648 16.086 9.95879 14.4749C11.2097 12.8155 12.9193 11.5051 14.8498 10.7363Z" fill="#E30613"/>
<path d="M22.1262 11.1945C22.192 10.917 22.2235 10.6302 22.3261 10.3633C23.7501 10.7952 25.1001 11.483 26.2617 12.415C24.6646 14.0191 23.0221 15.5783 21.4104 17.1684C21.1784 17.3946 20.9505 17.6237 20.7109 17.8417C21.1551 15.6203 21.6605 13.4118 22.1262 11.1945Z" fill="#E62829"/>
<path d="M53.5837 9.1051L52.3902 11.4125L52.178 11.2976C52.178 11.1031 52.1161 10.9499 51.9924 10.8379C51.6564 10.5373 51.1613 10.2898 50.5071 10.0953C49.8529 9.90076 49.1898 9.80352 48.5179 9.80352C47.9462 9.80352 47.4394 9.88308 46.9973 10.0422C46.3608 10.2721 46.0425 10.6051 46.0425 11.0412C46.0425 11.33 46.1958 11.5363 46.5023 11.6601C46.8087 11.778 47.4011 11.8723 48.2792 11.943L49.6761 12.0491C50.8961 12.1434 51.8244 12.3791 52.4609 12.7563C52.8146 12.9685 53.1063 13.2514 53.3362 13.605C53.625 14.0471 53.7694 14.5451 53.7694 15.0991C53.7694 16.107 53.3155 16.9026 52.4079 17.4861C51.5415 18.0461 50.3686 18.326 48.8893 18.326C47.3981 18.326 45.9571 18.0107 44.5661 17.38C44.4718 17.3388 44.3923 17.3182 44.3274 17.3182C44.2095 17.3182 44.1005 17.3889 44.0003 17.5303L43.7793 17.4419L44.796 15.0196L45.017 15.108C45.017 15.1433 45.017 15.1669 45.017 15.1787C45.017 15.3319 45.0759 15.4616 45.1938 15.5677C45.4885 15.827 45.9983 16.0539 46.7233 16.2484C47.4482 16.437 48.1643 16.5313 48.8716 16.5313C49.4963 16.5313 50.0562 16.4488 50.5513 16.2838C51.1643 16.0834 51.4708 15.7592 51.4708 15.3113C51.4708 14.9518 51.2586 14.7013 50.8342 14.5598C50.5513 14.4655 50.0415 14.386 49.3048 14.3211L47.9168 14.2062C47.1683 14.1473 46.5966 14.0707 46.2017 13.9764C45.8068 13.8821 45.462 13.7435 45.1673 13.5608C44.7901 13.3251 44.4954 13.0039 44.2832 12.5972C44.071 12.1905 43.965 11.7455 43.965 11.2622C43.965 10.1778 44.4306 9.34969 45.3618 8.77799C46.2105 8.25933 47.2596 8 48.5091 8C49.1869 8 49.8175 8.07662 50.401 8.22986C50.9904 8.37721 51.6918 8.63948 52.5051 9.01669C52.7468 9.12867 52.9148 9.18466 53.0091 9.18466C53.1034 9.18466 53.2242 9.11983 53.3715 8.99017L53.5837 9.1051Z" fill="white"/>
<path d="M66.3314 9.11394V14.3565C66.3314 15.553 66.0956 16.4311 65.6241 16.9911C64.8638 17.881 63.4316 18.326 61.3275 18.326C59.9189 18.326 58.7814 18.1109 57.915 17.6806C57.2902 17.3683 56.8629 16.9233 56.6331 16.3457C56.4209 15.8152 56.3148 15.1522 56.3148 14.3565V9.11394C56.3148 8.93123 56.2735 8.79272 56.191 8.69842C56.1085 8.60412 55.9612 8.52455 55.749 8.45972V8.21218H59.2588V8.45972C59.0407 8.51866 58.8904 8.59822 58.8079 8.69842C58.7254 8.79272 58.6841 8.93123 58.6841 9.11394V13.8791C58.6841 14.4331 58.7313 14.8575 58.8256 15.1522C58.9258 15.4469 59.0967 15.6885 59.3383 15.8771C59.8216 16.2602 60.52 16.4518 61.4336 16.4518C62.3471 16.4518 63.0456 16.2602 63.5289 15.8771C63.7646 15.6885 63.9296 15.4469 64.0239 15.1522C64.1182 14.8575 64.1654 14.4331 64.1654 13.8791V9.11394C64.1654 8.93123 64.1241 8.79272 64.0416 8.69842C63.965 8.60412 63.8176 8.52455 63.5996 8.45972V8.21218H66.8972V8.45972C66.685 8.51866 66.5377 8.59822 66.4551 8.69842C66.3726 8.79272 66.3314 8.93123 66.3314 9.11394Z" fill="white"/>
<path d="M78.69 9.1051L77.4965 11.4125L77.2844 11.2976C77.2844 11.1031 77.2225 10.9499 77.0987 10.8379C76.7628 10.5373 76.2677 10.2898 75.6135 10.0953C74.9592 9.90076 74.2962 9.80352 73.6243 9.80352C73.0526 9.80352 72.5457 9.88308 72.1037 10.0422C71.4671 10.2721 71.1489 10.6051 71.1489 11.0412C71.1489 11.33 71.3021 11.5363 71.6086 11.6601C71.9151 11.778 72.5074 11.8723 73.3856 11.943L74.7824 12.0491C76.0025 12.1434 76.9307 12.3791 77.5673 12.7563C77.9209 12.9685 78.2127 13.2514 78.4425 13.605C78.7313 14.0471 78.8757 14.5451 78.8757 15.0991C78.8757 16.107 78.4219 16.9026 77.5142 17.4861C76.6478 18.0461 75.475 18.326 73.9956 18.326C72.5045 18.326 71.0634 18.0107 69.6725 17.38C69.5782 17.3388 69.4986 17.3182 69.4338 17.3182C69.3159 17.3182 69.2069 17.3889 69.1067 17.5303L68.8856 17.4419L69.9023 15.0196L70.1234 15.108C70.1234 15.1433 70.1234 15.1669 70.1234 15.1787C70.1234 15.3319 70.1823 15.4616 70.3002 15.5677C70.5949 15.827 71.1047 16.0539 71.8296 16.2484C72.5546 16.437 73.2707 16.5313 73.9779 16.5313C74.6027 16.5313 75.1626 16.4488 75.6577 16.2838C76.2706 16.0834 76.5771 15.7592 76.5771 15.3113C76.5771 14.9518 76.3649 14.7013 75.9406 14.5598C75.6577 14.4655 75.1479 14.386 74.4111 14.3211L73.0231 14.2062C72.2746 14.1473 71.7029 14.0707 71.308 13.9764C70.9131 13.8821 70.5683 13.7435 70.2736 13.5608C69.8964 13.3251 69.6017 13.0039 69.3896 12.5972C69.1774 12.1905 69.0713 11.7455 69.0713 11.2622C69.0713 10.1778 69.5369 9.34969 70.4681 8.77799C71.3169 8.25933 72.366 8 73.6155 8C74.2932 8 74.9239 8.07662 75.5074 8.22986C76.0968 8.37721 76.7981 8.63948 77.6115 9.01669C77.8531 9.12867 78.0211 9.18466 78.1154 9.18466C78.2097 9.18466 78.3305 9.11983 78.4779 8.99017L78.69 9.1051Z" fill="white"/>
<path d="M89.5104 13.8084H83.985V17.2121C83.985 17.3948 84.0262 17.5362 84.1087 17.6364C84.1912 17.7307 84.3386 17.8103 84.5508 17.8751V18.1138H81.0498V17.8663C81.2561 17.8132 81.4005 17.7366 81.483 17.6364C81.5714 17.5362 81.6156 17.3948 81.6156 17.2121V9.11394C81.6156 8.93123 81.5744 8.79272 81.4919 8.69842C81.4093 8.60412 81.262 8.52455 81.0498 8.45972V8.21218H84.5508V8.45972C84.3386 8.51866 84.1912 8.59822 84.1087 8.69842C84.0262 8.79272 83.985 8.93123 83.985 9.11394V12.0137H89.5104V9.11394C89.5104 8.93123 89.4692 8.79272 89.3867 8.69842C89.31 8.60412 89.1627 8.52455 88.9446 8.45972V8.21218H92.4456V8.45972C92.2334 8.51866 92.086 8.59822 92.0035 8.69842C91.921 8.79272 91.8798 8.93123 91.8798 9.11394V17.2121C91.8798 17.3948 91.921 17.5362 92.0035 17.6364C92.086 17.7307 92.2334 17.8103 92.4456 17.8751V18.1138H88.9446V17.8663C89.1509 17.8132 89.2953 17.7366 89.3778 17.6364C89.4662 17.5362 89.5104 17.3948 89.5104 17.2121V13.8084Z" fill="white"/>
<path d="M97.8466 9.11394V17.2121C97.8466 17.3948 97.8878 17.5362 97.9703 17.6364C98.0528 17.7307 98.2002 17.8103 98.4124 17.8751V18.1138H94.9114V17.8663C95.1177 17.8132 95.2621 17.7366 95.3446 17.6364C95.433 17.5362 95.4772 17.3948 95.4772 17.2121V9.11394C95.4772 8.93123 95.436 8.79272 95.3535 8.69842C95.271 8.60412 95.1236 8.52455 94.9114 8.45972V8.21218H98.4124V8.45972C98.2002 8.51866 98.0528 8.59822 97.9703 8.69842C97.8878 8.79272 97.8466 8.93123 97.8466 9.11394Z" fill="white"/>
<path d="M55.4841 25.3272V32.5324C55.4841 32.7151 55.5254 32.8566 55.6079 32.9568C55.6904 33.0511 55.8377 33.1307 56.0499 33.1955V33.4342H52.549V33.1867C52.7553 33.1336 52.8997 33.057 52.9822 32.9568C53.0706 32.8566 53.1148 32.7151 53.1148 32.5324V25.3272H50.1973C50.0087 25.3272 49.8643 25.3714 49.7641 25.4598C49.6698 25.5423 49.5932 25.6897 49.5343 25.9019H49.2956V22.9667H49.5431C49.5962 23.173 49.6698 23.3204 49.7641 23.4088C49.8643 23.4913 50.0087 23.5325 50.1973 23.5325H58.4016C58.5902 23.5325 58.7316 23.4913 58.8259 23.4088C58.9261 23.3263 59.0057 23.1789 59.0646 22.9667H59.3033V25.9019H59.0646C59.0057 25.6897 58.9261 25.5423 58.8259 25.4598C58.7316 25.3714 58.5902 25.3272 58.4016 25.3272H55.4841Z" fill="white"/>
<path d="M63.9882 24.4343V32.5324C63.9882 32.7151 64.0295 32.8566 64.112 32.9568C64.1945 33.0511 64.3418 33.1307 64.554 33.1955V33.4342H61.0531V33.1867C61.2594 33.1336 61.4038 33.057 61.4863 32.9568C61.5747 32.8566 61.6189 32.7151 61.6189 32.5324V24.4343C61.6189 24.2516 61.5776 24.1131 61.4951 24.0188C61.4126 23.9245 61.2653 23.8449 61.0531 23.7801V23.5325H64.554V23.7801C64.3418 23.839 64.1945 23.9186 64.112 24.0188C64.0295 24.1131 63.9882 24.2516 63.9882 24.4343Z" fill="white"/>
<path d="M73.3587 33.1248L69.7517 26.9274V32.5324C69.7517 32.7151 69.7929 32.8566 69.8755 32.9568C69.958 33.0511 70.1053 33.1307 70.3175 33.1955V33.4342H67.0287V33.1867C67.235 33.1336 67.3794 33.057 67.4619 32.9568C67.5503 32.8566 67.5945 32.7151 67.5945 32.5324V24.4343C67.5945 24.2516 67.5533 24.1131 67.4708 24.0188C67.3883 23.9186 67.2409 23.839 67.0287 23.7801V23.5325H71.2104V23.7801C70.9334 23.8685 70.7949 24.0365 70.7949 24.284C70.7949 24.5257 70.8951 24.8203 71.0955 25.1681L73.5621 29.3321L76.0463 25.23C76.3292 24.7644 76.4707 24.4343 76.4707 24.2398C76.4707 23.9982 76.3263 23.8449 76.0375 23.7801V23.5325H80.1131V23.7801C79.9009 23.839 79.7535 23.9186 79.671 24.0188C79.5885 24.1131 79.5472 24.2516 79.5472 24.4343V32.5324C79.5472 32.7151 79.5885 32.8566 79.671 32.9568C79.7535 33.057 79.9009 33.1366 80.1131 33.1955V33.4342H76.6121V33.1867C76.8184 33.1336 76.9628 33.057 77.0453 32.9568C77.1337 32.8566 77.1779 32.7151 77.1779 32.5324V26.9274L73.3587 33.1248Z" fill="white"/>
<path d="M85.5229 29.226V31.6395H91.8087C91.9914 31.6395 92.1299 31.5983 92.2242 31.5157C92.3244 31.4332 92.404 31.2829 92.4629 31.0649H92.7104V34H92.4629C92.4098 33.7937 92.3332 33.6464 92.233 33.558C92.1328 33.4754 91.9914 33.4342 91.8087 33.4342H82.5878V33.1867C82.794 33.1336 82.9384 33.057 83.021 32.9568C83.1094 32.8566 83.1536 32.7151 83.1536 32.5324V24.4343C83.1536 24.2516 83.1123 24.1131 83.0298 24.0188C82.9473 23.9245 82.7999 23.8449 82.5878 23.7801V23.5325H91.5346C91.7232 23.5325 91.8647 23.4913 91.959 23.4088C92.0592 23.3263 92.1387 23.1789 92.1977 22.9667H92.4364V25.9019H92.1977C92.1387 25.6838 92.0592 25.5335 91.959 25.451C91.8647 25.3685 91.7232 25.3272 91.5346 25.3272H85.5229V27.502H89.2537C89.4364 27.502 89.5749 27.4608 89.6692 27.3783C89.7694 27.2958 89.8519 27.1484 89.9168 26.9362H90.1555V29.8006H89.9168C89.8578 29.5885 89.7782 29.4411 89.6781 29.3586C89.5838 29.2702 89.4423 29.226 89.2537 29.226H85.5229Z" fill="white"/>
</svg>
