<svg width="77" height="63" viewBox="0 0 77 63" fill="none" xmlns="http://www.w3.org/2000/svg"><g clip-path="url(#clip0)"><path d="M72.04 26.794a1.089 1.089 0 00-.664-1.39c-.57-.201-1.195.097-1.395.665l-2.566 7.25c-3.963-7.686-10.576-13.505-18.764-16.405-8.53-3.016-17.725-2.53-25.889 1.367C14.596 22.18 8.44 29.022 5.417 37.553c-.101.287-.076.587.042.835.119.248.34.46.621.554a1.086 1.086 0 001.393-.665C10.297 30.3 16.058 23.896 23.7 20.248c7.636-3.645 16.238-4.102 24.217-1.278 7.968 2.824 14.362 8.57 18.01 16.192l-8.618-3.046a1.09 1.09 0 00-1.396.666 1.08 1.08 0 00.663 1.39l11.42 4.038 4.045-11.416z" fill="#fff"/></g><defs><clipPath id="clip0"><path fill="#fff" transform="translate(.854 .565)" d="M0 0h75.163v61.99H0z"/></clipPath></defs></svg>