<svg width="39" height="48" viewBox="0 0 39 48" fill="none" xmlns="http://www.w3.org/2000/svg"><g clip-path="url(#clip0)"><path fill="#F6860D" d="M26 28h8v16h-8zM4 14V4h30v10z"/><path d="M32.8 48H5.6A5.606 5.606 0 010 42.4V5.6A5.606 5.606 0 015.6 0h27.2a5.606 5.606 0 015.6 5.6v36.8a5.606 5.606 0 01-5.6 5.6zM5.6 1.6a4.005 4.005 0 00-4 4v36.8a4.005 4.005 0 004 4h27.2a4.005 4.005 0 004-4V5.6a4.005 4.005 0 00-4-4H5.6z" fill="#011529"/><path d="M21.6 44.8h-4.8a2.4 2.4 0 01-2.4-2.4v-3.2a2.4 2.4 0 012.4-2.4h4.8a2.4 2.4 0 012.4 2.4v3.2a2.4 2.4 0 01-2.4 2.4zm-4.8-6.4a.8.8 0 00-.8.8v3.2a.8.8 0 00.8.8h4.8a.8.8 0 00.8-.8v-3.2a.8.8 0 00-.8-.8h-4.8zM10.4 44.8H5.6a2.4 2.4 0 01-2.4-2.4v-3.2a2.4 2.4 0 012.4-2.4h4.8a2.4 2.4 0 012.4 2.4v3.2a2.4 2.4 0 01-2.4 2.4zm-4.8-6.4a.8.8 0 00-.8.8v3.2a.8.8 0 00.8.8h4.8a.8.8 0 00.8-.8v-3.2a.8.8 0 00-.8-.8H5.6zM32.8 44.8H28a2.4 2.4 0 01-2.4-2.4V29.6a2.4 2.4 0 012.4-2.4h4.8a2.4 2.4 0 012.4 2.4v12.8a2.4 2.4 0 01-2.4 2.4zm-4.8-16a.8.8 0 00-.8.8v12.8a.8.8 0 00.8.8h4.8a.8.8 0 00.8-.8V29.6a.8.8 0 00-.8-.8H28zM21.6 35.2h-4.8a2.4 2.4 0 01-2.4-2.4v-3.2a2.4 2.4 0 012.4-2.4h4.8a2.4 2.4 0 012.4 2.4v3.2a2.4 2.4 0 01-2.4 2.4zm-4.8-6.4a.8.8 0 00-.8.8v3.2a.8.8 0 00.8.8h4.8a.8.8 0 00.8-.8v-3.2a.8.8 0 00-.8-.8h-4.8zM10.4 35.2H5.6a2.4 2.4 0 01-2.4-2.4v-3.2a2.4 2.4 0 012.4-2.4h4.8a2.4 2.4 0 012.4 2.4v3.2a2.4 2.4 0 01-2.4 2.4zm-4.8-6.4a.8.8 0 00-.8.8v3.2a.8.8 0 00.8.8h4.8a.8.8 0 00.8-.8v-3.2a.8.8 0 00-.8-.8H5.6zM21.6 25.6h-4.8a2.4 2.4 0 01-2.4-2.4V20a2.4 2.4 0 012.4-2.4h4.8A2.4 2.4 0 0124 20v3.2a2.4 2.4 0 01-2.4 2.4zm-4.8-6.4a.8.8 0 00-.8.8v3.2a.8.8 0 00.8.8h4.8a.8.8 0 00.8-.8V20a.8.8 0 00-.8-.8h-4.8zM10.4 25.6H5.6a2.4 2.4 0 01-2.4-2.4V20a2.4 2.4 0 012.4-2.4h4.8a2.4 2.4 0 012.4 2.4v3.2a2.4 2.4 0 01-2.4 2.4zm-4.8-6.4a.8.8 0 00-.8.8v3.2a.8.8 0 00.8.8h4.8a.8.8 0 00.8-.8V20a.8.8 0 00-.8-.8H5.6zM32.8 25.6H28a2.4 2.4 0 01-2.4-2.4V20a2.4 2.4 0 012.4-2.4h4.8a2.4 2.4 0 012.4 2.4v3.2a2.4 2.4 0 01-2.4 2.4zM28 19.2a.8.8 0 00-.8.8v3.2a.8.8 0 00.8.8h4.8a.8.8 0 00.8-.8V20a.8.8 0 00-.8-.8H28zM32.8 14.4H5.6A2.4 2.4 0 013.2 12V5.6a2.4 2.4 0 012.4-2.4h27.2a2.4 2.4 0 012.4 2.4V12a2.4 2.4 0 01-2.4 2.4zM5.6 4.8a.8.8 0 00-.8.8V12a.8.8 0 00.8.8h27.2a.8.8 0 00.8-.8V5.6a.8.8 0 00-.8-.8H5.6z" fill="#011529"/><path d="M30.4 12A2.4 2.4 0 0128 9.6V8a2.4 2.4 0 014.8 0v1.6a2.4 2.4 0 01-2.4 2.4zm0-4.8a.8.8 0 00-.8.8v1.6a.8.8 0 001.6 0V8a.8.8 0 00-.8-.8z" fill="#011529"/></g><defs><clipPath id="clip0"><path fill="#fff" d="M0 0h38.4v48H0z"/></clipPath></defs></svg>