<svg width="51" height="46" viewBox="0 0 51 46" fill="none" xmlns="http://www.w3.org/2000/svg"><g clip-path="url(#clip0)"><path fill="#F5850E" d="M17 0h17v12.974H17zM0 28.308h17v16.513H0z"/><path fill="#F6860D" d="M32.786 28.308h17v16.513h-17z"/><path d="M43.902 28.308v-6.235c0-1.095-.964-2.022-2.103-2.022h-.263c-1.14 0-2.103.927-2.103 2.022" stroke="#011529" stroke-width="1.5" stroke-miterlimit="10" stroke-linecap="round" stroke-linejoin="round"/><path d="M17.236 45.22h32.949V28.203H17.236v17.019zM50.211.758H33.737v12.3h16.474V.758zM23.835 38.333h3.33M33.737 28.308v16.934M37.242 35.132v3.286M33.737 34.963H17.263M23.835 31.678h3.33M40.222 9.689h3.417M33.737 13.059H17.263V.758h16.474M23.835 9.689h3.33" stroke="#011529" stroke-width="1.5" stroke-miterlimit="10" stroke-linecap="round" stroke-linejoin="round"/><path d="M44.253 27.38c0 .338.263.59.613.59s.613-.252.613-.59c0-.336-.262-.589-.613-.589-.35 0-.613.337-.613.59zM42.325 27.38c0 .338.263.59.613.59s.613-.252.613-.59c0-.336-.262-.589-.613-.589-.35 0-.613.337-.613.59z" fill="#313131" stroke="#011529" stroke-width="1.5" stroke-miterlimit="10" stroke-linecap="round" stroke-linejoin="round"/><path d="M17.526 13.059l-5.083-3.707V.758H6.485v8.594l-5.083 3.707h16.124zM17.263 45.242H.789V28.308h16.474M14.634 32.267H3.418" stroke="#011529" stroke-width="1.5" stroke-miterlimit="10" stroke-linecap="round" stroke-linejoin="round"/></g><defs><clipPath id="clip0"><path fill="#fff" d="M0 0h51v46H0z"/></clipPath></defs></svg>