<svg width="60" height="60" viewBox="0 0 60 60" fill="none" xmlns="http://www.w3.org/2000/svg"><g clip-path="url(#clip0)"><path d="M56.999 25.78c-.97-.813-1.974-1.654-2.164-2.367-.206-.768.253-2.038.697-3.266.642-1.774 1.305-3.611.452-5.083-.865-1.492-2.805-1.838-4.675-2.17-1.27-.224-2.586-.456-3.128-1-.542-.544-.777-1.86-1-3.13-.333-1.875-.676-3.815-2.171-4.675-1.472-.852-3.31-.188-5.083.453-1.228.444-2.498.902-3.266.696-.713-.19-1.555-1.193-2.369-2.164-1.243-1.48-2.524-3.006-4.29-3.006-1.768 0-3.049 1.526-4.288 3.003-.814.97-1.655 1.973-2.368 2.163-.769.205-2.039-.253-3.266-.696-1.776-.642-3.613-1.305-5.083-.453-1.492.865-1.839 2.805-2.17 4.68-.225 1.27-.457 2.587-1 3.129-.545.542-1.86.777-3.13 1-1.875.333-3.815.676-4.675 2.17-.853 1.473-.19 3.31.452 5.084.445 1.228.903 2.498.697 3.266-.192.713-1.194 1.554-2.165 2.368C1.527 27.02 0 28.302 0 30.068c0 1.767 1.527 3.048 3.003 4.288.97.813 1.974 1.655 2.163 2.368.206.768-.252 2.038-.696 3.266-.641 1.775-1.305 3.61-.452 5.083.865 1.492 2.805 1.838 4.68 2.17 1.27.224 2.586.456 3.128 1 .542.544.777 1.86 1.001 3.13.332 1.875.676 3.814 2.17 4.675 1.472.852 3.309.188 5.084-.453 1.228-.443 2.5-.9 3.265-.696.713.19 1.555 1.193 2.369 2.164 1.24 1.476 2.52 3.003 4.287 3.003s3.048-1.527 4.287-3.003c.814-.97 1.655-1.973 2.369-2.163.766-.207 2.037.253 3.265.696 1.775.64 3.611 1.303 5.084.453 1.492-.866 1.837-2.805 2.169-4.676.225-1.27.456-2.586 1-3.128.545-.542 1.86-.777 3.13-1 1.875-.333 3.815-.676 4.675-2.171.852-1.472.19-3.308-.452-5.083-.445-1.228-.904-2.498-.697-3.266.191-.713 1.194-1.554 2.165-2.368 1.476-1.24 3.003-2.52 3.003-4.288 0-1.766-1.525-3.049-3.001-4.288z" fill="#F6860D"/><circle cx="29.388" cy="29.388" r="19.592" fill="#fff"/><path d="M56.999 25.78c-.97-.813-1.974-1.654-2.164-2.367-.206-.768.253-2.038.697-3.266.642-1.774 1.305-3.611.452-5.083-.865-1.492-2.805-1.838-4.675-2.17-1.27-.224-2.586-.456-3.128-1-.542-.544-.777-1.86-1-3.13-.333-1.875-.676-3.815-2.171-4.675-1.472-.852-3.31-.188-5.083.453-1.228.444-2.497.902-3.266.696-.713-.19-1.555-1.193-2.369-2.164-1.243-1.48-2.524-3.006-4.29-3.006-1.768 0-3.049 1.526-4.288 3.003-.814.97-1.655 1.973-2.368 2.163-.769.205-2.039-.253-3.266-.696-1.776-.642-3.613-1.305-5.083-.453-1.492.865-1.839 2.805-2.17 4.68-.225 1.27-.457 2.587-1 3.129-.545.542-1.86.777-3.13 1-1.875.333-3.815.676-4.675 2.17-.853 1.473-.19 3.31.452 5.084.445 1.228.903 2.498.697 3.266-.192.713-1.194 1.554-2.165 2.368C1.527 27.02 0 28.302 0 30.068c0 1.767 1.527 3.048 3.003 4.288.97.813 1.974 1.655 2.163 2.368.206.768-.252 2.038-.696 3.266-.641 1.775-1.305 3.61-.452 5.083.865 1.492 2.805 1.838 4.68 2.17 1.27.224 2.586.456 3.128 1 .542.544.777 1.86 1.001 3.13.332 1.875.676 3.814 2.17 4.675 1.472.852 3.309.188 5.084-.453 1.228-.443 2.5-.9 3.265-.696.713.19 1.555 1.193 2.369 2.164 1.24 1.476 2.52 3.003 4.287 3.003s3.048-1.527 4.287-3.003c.814-.97 1.655-1.973 2.369-2.163.766-.207 2.037.253 3.265.696 1.775.64 3.611 1.303 5.084.453 1.492-.866 1.837-2.805 2.169-4.676.225-1.27.456-2.586 1-3.128.545-.542 1.86-.777 3.13-1 1.875-.333 3.815-.676 4.675-2.171.852-1.472.19-3.308-.452-5.083-.445-1.228-.904-2.498-.697-3.266.191-.713 1.194-1.554 2.165-2.368 1.476-1.24 3.003-2.52 3.003-4.288 0-1.766-1.525-3.049-3.001-4.288zm-1.28 7.052c-1.206 1.011-2.453 2.059-2.807 3.382-.365 1.372.2 2.94.75 4.455.463 1.286.99 2.74.596 3.412-.398.696-1.944.966-3.305 1.207-1.574.278-3.201.566-4.189 1.554-.988.987-1.275 2.614-1.553 4.187-.24 1.362-.513 2.905-1.206 3.306-.67.388-2.127-.138-3.411-.597-1.516-.55-3.084-1.117-4.456-.748-1.32.352-2.367 1.6-3.382 2.806-.903 1.075-1.925 2.288-2.764 2.288-.838 0-1.861-1.218-2.763-2.288-1.012-1.206-2.06-2.454-3.382-2.807a3.64 3.64 0 00-.939-.116c-1.212.09-2.4.383-3.517.865-1.285.464-2.741.99-3.412.597-.696-.398-.966-1.944-1.206-3.306-.279-1.573-.566-3.2-1.554-4.188-.988-.988-2.614-1.276-4.188-1.553-1.362-.241-2.904-.513-3.305-1.207-.388-.671.138-2.127.601-3.41.55-1.518 1.115-3.084.748-4.457-.352-1.32-1.6-2.366-2.806-3.382-1.075-.902-2.287-1.925-2.287-2.764 0-.838 1.217-1.86 2.287-2.763 1.207-1.012 2.454-2.059 2.807-3.382.366-1.371-.198-2.94-.749-4.455-.463-1.285-.994-2.74-.601-3.412.397-.696 1.943-.966 3.305-1.207 1.574-.279 3.201-.566 4.189-1.554.988-.988 1.275-2.614 1.553-4.187.24-1.362.513-2.905 1.206-3.306.669-.388 2.127.138 3.411.602 1.517.548 3.084 1.116 4.457.748 1.318-.352 2.366-1.6 3.382-2.806.902-1.076 1.925-2.288 2.763-2.288.839 0 1.861 1.217 2.764 2.288 1.01 1.206 2.059 2.454 3.382 2.807 1.372.366 2.94-.199 4.455-.75 1.284-.463 2.74-.994 3.412-.601.696.398.966 1.944 1.206 3.306.279 1.573.566 3.2 1.554 4.188.988.988 2.614 1.276 4.188 1.553 1.361.241 2.905.514 3.305 1.207.388.671-.138 2.127-.597 3.41-.549 1.518-1.114 3.084-.748 4.457.353 1.319 1.6 2.367 2.807 3.382 1.075.902 2.288 1.925 2.288 2.763 0 .84-1.213 1.861-2.288 2.764z" fill="#011529"/><path d="M30.002 9.179c-11.537 0-20.89 9.353-20.89 20.89 0 11.536 9.353 20.889 20.89 20.889 11.536 0 20.889-9.353 20.889-20.89C50.878 18.537 41.533 9.192 30 9.18zm0 39.79c-10.439 0-18.9-8.462-18.9-18.9 0-10.439 8.461-18.9 18.9-18.9 10.437 0 18.9 8.461 18.9 18.9-.012 10.433-8.467 18.888-18.9 18.9z" fill="#011529"/><path d="M20.345 38.318L38.25 20.413l1.407 1.406L21.75 39.725l-1.406-1.407zM35.97 32.058a3.979 3.979 0 10-.001 7.957 3.979 3.979 0 000-7.957zm0 5.968a1.99 1.99 0 110-3.979 1.99 1.99 0 010 3.98zM24.033 28.08a3.979 3.979 0 100-7.958 3.979 3.979 0 000 7.957zm0-5.969a1.99 1.99 0 110 3.98 1.99 1.99 0 010-3.98z" fill="#011529"/></g><defs><clipPath id="clip0"><path fill="#fff" d="M0 0h60v60H0z"/></clipPath></defs></svg>