<svg width="60" height="60" viewBox="0 0 60 60" fill="none" xmlns="http://www.w3.org/2000/svg">
<g clip-path="url(#clip0)">
<circle cx="30.3266" cy="30.3266" r="28.4603" fill="white"/>
<path d="M31.0645 38.4413L47.7721 21.7335L49.0851 23.0461L32.377 39.7543L31.0645 38.4413Z" fill="#011529"/>
<path d="M45.6442 32.6C43.5934 32.6 41.9314 34.2624 41.9314 36.3128C41.9314 38.3636 43.5934 40.0256 45.6442 40.0256C47.6946 40.0256 49.357 38.3636 49.357 36.3128C49.357 34.2624 47.6946 32.6 45.6442 32.6ZM45.6442 38.1692C44.619 38.1692 43.7878 37.338 43.7878 36.3128C43.7878 35.2876 44.619 34.4564 45.6442 34.4564C46.6694 34.4564 47.5006 35.2876 47.5006 36.3128C47.5006 37.338 46.6694 38.1692 45.6442 38.1692Z" fill="#011529"/>
<path d="M34.506 28.8875C36.5564 28.8875 38.2189 27.2255 38.2189 25.1746C38.2189 23.1242 36.5564 21.4618 34.506 21.4618C32.4552 21.4618 30.7932 23.1242 30.7932 25.1746C30.7932 27.2255 32.4552 28.8875 34.506 28.8875ZM34.506 23.3182C35.5312 23.3182 36.3624 24.1494 36.3624 25.1746C36.3624 26.1998 35.5312 27.031 34.506 27.031C33.4808 27.031 32.6496 26.1998 32.6496 25.1746C32.6496 24.1494 33.4808 23.3182 34.506 23.3182Z" fill="#011529"/>
<path d="M25.0119 39.7572C23.6217 41.2461 21.8386 41.9906 19.6625 41.9906C17.4865 41.9906 15.6933 41.2461 14.2829 39.7572C12.8926 38.2479 12.1975 36.3103 12.1975 33.9443V27.6419C12.1975 25.2759 12.8926 23.3485 14.2829 21.8596C15.6933 20.3502 17.4865 19.5956 19.6625 19.5956C21.8386 19.5956 23.6217 20.3502 25.0119 21.8596C26.4223 23.3485 27.1275 25.2759 27.1275 27.6419V33.9443C27.1275 36.3103 26.4223 38.2479 25.0119 39.7572ZM15.794 38.3193C16.7813 39.3799 18.0708 39.9102 19.6625 39.9102C21.2542 39.9102 22.5437 39.3799 23.531 38.3193C24.5183 37.2383 25.0119 35.78 25.0119 33.9443V27.6419C25.0119 25.8062 24.5183 24.3581 23.531 23.2975C22.5437 22.2165 21.2542 21.676 19.6625 21.676C18.0708 21.676 16.7813 22.2165 15.794 23.2975C14.8067 24.3581 14.3131 25.8062 14.3131 27.6419V33.9443C14.3131 35.78 14.8067 37.2383 15.794 38.3193Z" fill="#011529"/>
<path d="M1.51726 58.1197L4.99116 41.9907L19.4547 52.255L1.51726 58.1197Z" fill="white"/>
<path d="M5.3187 42.7371C3.26582 38.818 2.05275 34.339 2.05275 29.58C2.05275 13.9035 14.7433 1.21301 30.4198 1.21301C46.0963 1.21301 58.7868 13.9035 58.7868 29.58C58.7868 45.2566 46.0963 57.9471 30.4198 57.9471C25.101 57.9471 20.2487 56.4541 15.9563 53.9346L16.0496 54.0279L1.11963 58.7869L5.3187 42.7371Z" stroke="#313131" stroke-width="1.7" stroke-miterlimit="10" stroke-linecap="round" stroke-linejoin="round"/>
<rect x="14.0637" y="21.4619" width="11.1975" height="18.6625" rx="5.59876" fill="white"/>
</g>
<defs>
<clipPath id="clip0">
<rect width="60" height="60" fill="white"/>
</clipPath>
</defs>
</svg>
