<svg width="60" height="75" viewBox="0 0 60 75" fill="none" xmlns="http://www.w3.org/2000/svg">
<circle cx="30" cy="30" r="20" fill="white"/>
<path d="M28.7748 0.0190888C13.914 0.541925 1.5683 12.1673 0.142023 27.0067C-0.149366 29.9745 0.0193331 32.8501 0.540766 35.6027C0.540766 35.6027 0.586775 35.9257 0.740138 36.5408C1.20023 38.6013 1.89036 40.6004 2.74919 42.4765C5.73976 49.5809 12.6564 61.4678 28.1767 74.4003C29.1276 75.1999 30.5232 75.1999 31.4894 74.4003C47.0097 61.4831 53.9263 49.5963 56.9322 42.4611C57.8064 40.585 58.4812 38.6014 58.9413 36.5254C59.0793 35.9257 59.1407 35.5874 59.1407 35.5874C59.4934 33.742 59.6774 31.8506 59.6774 29.913C59.6774 13.0285 45.7368 -0.580635 28.7748 0.0190888ZM29.833 44.7985C21.8275 44.7985 15.3403 38.2938 15.3403 30.2667C15.3403 22.2396 21.8275 15.7349 29.833 15.7349C37.8386 15.7349 44.3258 22.2396 44.3258 30.2667C44.3258 38.2938 37.8386 44.7985 29.833 44.7985Z" fill="#F6860D"/>
</svg>
