<svg width="125" height="32" viewBox="0 0 125 32" fill="none" xmlns="http://www.w3.org/2000/svg">
<mask id="mask0_133_227" style="mask-type:alpha" maskUnits="userSpaceOnUse" x="0" y="0" width="125" height="32">
<path d="M0 0H125V32H0V0Z" fill="white"/>
</mask>
<g mask="url(#mask0_133_227)">
<path fill-rule="evenodd" clip-rule="evenodd" d="M16.3067 18.3698H2.52237V2.93216H0V20.2614H16.3067V18.3698ZM13.5369 9.06205L16.9326 2.93216H14.1999L11.6667 9.06205H13.5369ZM30.4107 19.5726C25.348 19.5726 21.177 15.6652 21.177 10.9579C21.177 6.2557 25.1521 2.16143 30.6059 2.16143C35.9271 2.16143 39.8369 6.25498 39.8369 10.9579C39.8375 15.6652 35.4714 19.5726 30.4107 19.5726ZM30.4972 0C23.1815 0 18.1947 4.95385 18.1947 10.9528C18.1947 17.2669 23.704 21.7221 30.4972 21.7221C37.29 21.7221 42.7959 17.3304 42.7959 10.9528C42.7959 4.95385 37.747 0 30.4972 0ZM57.0909 10.944H48.6684V4.98434H57.386C59.3917 4.98434 60.521 5.88401 60.9279 7.02631C61.1965 7.81098 61.0238 8.83959 60.5805 9.53913C59.8515 10.6987 58.4676 10.944 57.0909 10.944ZM59.2515 13.0171C63.3834 11.9572 63.7864 9.00094 63.7665 7.947C63.519 4.85096 61.3485 2.93216 57.4442 2.93216H46.0751V20.2614H48.6676V12.9935H56.0682L61.5133 20.2614H64.78C64.7812 20.2614 60.8644 15.3697 59.2515 13.0171ZM92.0239 13.6074L96.3457 5.32877L100.721 13.6074H92.0239ZM94.588 2.93216L85.4159 20.2614H88.5157L90.8635 15.7763H101.864L104.232 20.2614H107.3L98.1199 2.93216H94.588ZM125 18.3698H111.216V2.93216H108.693V20.2614H125V18.3698ZM81.0584 0.134099H76.3873L74.2021 2.49001L81.0584 0.134099ZM80.8083 12.3131V10.3969H70.7715V4.81975H84.1351V2.93216H68.0036V20.2614H84.1351V18.3698H70.7715V12.3131H80.8083ZM72.4345 31.7485H73.7285V26.801H72.4345V31.7485ZM72.4266 26.0684H73.72V24.8263H72.4266V26.0684ZM82.3132 28.0577L79.5348 27.6034C78.9659 27.5081 78.383 27.3144 78.383 26.726C78.383 25.6764 79.7781 25.5125 80.6052 25.5125C81.7034 25.5125 82.9502 25.85 83.0171 26.9199H84.2509C84.1966 26.158 83.8572 24.712 80.4562 24.712C78.0986 24.712 77.1082 25.7717 77.1082 26.8511C77.1082 28.057 78.5451 28.3748 79.1823 28.4802L81.1747 28.8094C82.773 29.0786 83.248 29.3106 83.248 30.0329C83.248 31.026 81.649 31.1995 80.6997 31.1995C79.4527 31.1995 78.0166 30.8334 78.0166 29.58H76.7829C76.7829 30.2268 76.9455 30.805 77.7725 31.3348C78.2057 31.6137 78.911 32 80.713 32C82.38 32 84.5215 31.547 84.5215 29.9078C84.5221 28.81 83.5727 28.27 82.3132 28.0577ZM52.1771 28.9427L53.9665 25.8962H53.9976L55.6469 28.9427H52.1771ZM53.1886 24.8652L48.9871 31.7873H50.5438L51.7106 29.7719H56.192L57.2966 31.7873H58.9466L54.9006 24.8652H53.1886ZM62.7444 28.0654H65.4574C66.6799 28.0654 67.5095 27.7565 67.5095 26.8219C67.5095 25.9445 66.6381 25.6644 65.5136 25.6644H62.7444V28.0654ZM69.232 31.7371H67.6934L65.6354 28.9287C65.6095 28.8926 65.5594 28.8741 65.5076 28.8652H65.5751C65.5534 28.8615 65.5308 28.8601 65.5076 28.8652H62.7444V31.7865H61.381V24.8644H65.9204C67.7892 24.8644 68.9139 25.6935 68.9139 26.8111C68.9139 27.6079 68.3635 28.4891 66.9345 28.7706L69.232 31.7371ZM45.1681 28.0654H42.4559V25.6644H45.2244C46.349 25.6644 47.2202 25.9445 47.2202 26.8219C47.2202 27.7565 46.3906 28.0654 45.1681 28.0654ZM45.6319 24.8652H41.0925V31.7873H42.4559V28.8659H45.6319C47.8242 28.8659 48.6254 27.7763 48.6254 26.8124C48.6254 25.6942 47.5014 24.8652 45.6319 24.8652Z" fill="#191B1D"/>
</g>
</svg>
