<svg width="98" height="39" viewBox="0 0 98 39" fill="none" xmlns="http://www.w3.org/2000/svg">
<path d="M72.4588 16.0838H68.6612V15.1163H69.0287C69.0287 15.1163 69.0287 15.1163 69.09 15.0559C69.1512 14.9953 69.2125 14.9349 69.2125 14.8744C69.2737 14.7535 69.2737 14.6326 69.335 14.5116C69.335 14.3907 69.3963 14.2698 69.3963 14.1488V7.25581C69.3963 7.19534 69.3962 7.07442 69.335 6.95349C69.335 6.83257 69.2737 6.71164 69.2125 6.65117C69.1512 6.59071 69.1512 6.53024 69.09 6.46977C69.0287 6.40931 69.0287 6.40931 69.0287 6.40931H68.6612V5.44186H72.4588V6.40931H72.0912C72.03 6.40931 72.03 6.40931 72.03 6.40931C71.9687 6.46977 71.9075 6.53024 71.9075 6.59071C71.8464 6.71164 71.8462 6.83257 71.785 6.95349C71.785 7.07442 71.7237 7.19534 71.7237 7.25581V12.093L76.685 7.25581C76.685 7.19534 76.685 7.07442 76.6237 6.95349C76.6237 6.83257 76.5625 6.71164 76.5014 6.65117C76.44 6.59071 76.3787 6.46977 76.3175 6.46977C76.2562 6.40931 76.2562 6.40931 76.2562 6.40931H75.95V5.44186H79.7475V6.40931H79.38C79.38 6.40931 79.3187 6.40931 79.2575 6.46977C79.1962 6.53024 79.135 6.59071 79.135 6.65117C79.0737 6.7721 79.0737 6.89302 79.0125 7.01395C79.0125 7.13487 78.9512 7.25581 78.9512 7.31627V14.2698C78.9512 14.3907 78.9512 14.4512 79.0125 14.5721C79.0737 14.6931 79.0737 14.814 79.135 14.9349C79.1962 14.9953 79.2575 15.1163 79.3187 15.1768C79.38 15.2372 79.38 15.2372 79.38 15.2372H79.7475V16.2047H75.95V15.2372H76.3175C76.3175 15.2372 76.3175 15.2372 76.3787 15.1768C76.44 15.1163 76.5012 15.0559 76.5625 14.9349C76.6238 14.814 76.6237 14.6931 76.685 14.5721C76.685 14.4512 76.7462 14.3303 76.7462 14.2093V9.37209L71.785 14.2093C71.785 14.3303 71.785 14.4512 71.8464 14.5721C71.8464 14.6931 71.9075 14.814 71.9687 14.9349C72.03 15.0559 72.0912 15.1163 72.1525 15.1768H72.2137H72.5812L72.4588 16.0838ZM58.8 8.28373C58.8 8.1628 58.8 7.9814 58.8612 7.8C58.9225 7.6186 58.9837 7.49767 59.1062 7.31627C59.1675 7.19534 59.29 7.07441 59.4737 7.01395C59.5962 6.95349 59.78 6.89302 59.9637 6.89302H61.6787V14.1488C61.6787 14.2698 61.6787 14.3907 61.6175 14.5116C61.6175 14.6326 61.5562 14.7535 61.495 14.814C61.4337 14.9349 61.3725 14.9953 61.3112 15.0559C61.25 15.1163 61.25 15.1163 61.25 15.1163H60.8825V16.0838H64.7412V15.1163H64.3737H64.3125C64.2512 15.0559 64.19 14.9349 64.1287 14.8744C64.0675 14.7535 64.0062 14.6326 64.0062 14.5721C64.0062 14.4512 63.945 14.3303 63.945 14.2698V7.01395H65.7214C65.905 7.01395 66.0887 7.07442 66.2112 7.13487C66.3337 7.19534 66.5175 7.31627 66.5787 7.4372C66.7012 7.55814 66.7625 7.73953 66.8237 7.86047C66.885 8.04186 66.885 8.1628 66.885 8.34419V8.70698H67.8037V5.44186H57.8812V8.64651H58.8V8.28373ZM96.8363 7.67907C96.8975 7.49767 96.9587 7.25581 97.02 7.13487C97.0812 7.01395 97.2037 6.89302 97.3262 6.7721C97.4487 6.71164 97.51 6.65117 97.6325 6.65117H98V5.50233H92.365V6.59071H92.7325C92.7937 6.59071 92.9162 6.65117 92.9775 6.71164C93.1 6.83257 93.2225 6.95349 93.2839 7.13487C93.345 7.31627 93.4675 7.49767 93.4675 7.67907C93.5287 7.92093 93.5287 8.04186 93.5287 8.22326V8.28373L85.1375 16.386V8.22326C85.1375 8.04186 85.1375 7.86047 85.1987 7.67907C85.26 7.49767 85.3212 7.31627 85.3825 7.13487C85.4437 6.95349 85.5664 6.83257 85.6275 6.7721C85.6889 6.71164 85.8112 6.65117 85.8725 6.65117H86.24V5.50233H80.6662V6.59071H81.0339C81.095 6.59071 81.1562 6.59071 81.2787 6.71164C81.4012 6.83257 81.5237 6.95349 81.585 7.13487C81.6462 7.31627 81.7687 7.49767 81.7687 7.67907C81.83 7.86047 81.83 8.04186 81.83 8.22326V19.2883C81.83 19.4698 81.83 19.6511 81.7687 19.8929C81.7075 20.0744 81.6462 20.3164 81.585 20.4976C81.5237 20.6791 81.4012 20.8 81.2787 20.921C81.1562 21.0419 81.095 21.0419 81.0339 21.0419H80.6662V22.1302H86.24V21.0419H85.8725C85.8112 21.0419 85.75 21.0419 85.6887 20.921C85.5662 20.8 85.4437 20.6187 85.3825 20.4976C85.3212 20.3164 85.26 20.1349 85.1987 19.8929C85.1375 19.7117 85.1375 19.4698 85.1375 19.2883V19.1674L93.5287 11.0651V19.2883C93.5287 19.4698 93.5287 19.6511 93.4675 19.8929C93.4062 20.0744 93.345 20.3164 93.2839 20.4976C93.2225 20.6791 93.1 20.8 92.9775 20.921C92.9162 20.9814 92.7937 21.0419 92.7325 21.0419H92.365V22.1302H98V21.0419H97.6325C97.6325 21.0419 97.51 21.0419 97.3875 20.921C97.265 20.8 97.1425 20.6791 97.0812 20.4976C96.9587 20.3164 96.8975 20.1349 96.8363 19.8929C96.775 19.7117 96.775 19.4698 96.775 19.2883V8.22326C96.775 8.04186 96.775 7.86047 96.8363 7.67907ZM86.3012 3.56744C87.1587 3.99069 88.2612 4.23256 89.67 4.23256C90.8337 4.23256 91.9362 4.05116 92.7937 3.62791C93.7737 3.20465 94.2637 2.53954 94.2637 1.69302C94.2637 1.26977 94.1412 0.846513 93.835 0.544186C93.5287 0.181395 93.1 0 92.6712 0C92.2425 0 91.875 0.12093 91.5687 0.423256C91.3237 0.665117 91.0787 1.0279 90.7725 1.63256C90.5275 2.11628 90.0987 2.72093 89.6087 2.72093C89.2412 2.72093 88.8125 2.35814 88.445 1.63256C88.0775 0.967442 87.7712 0.544186 87.5262 0.362791C87.2812 0.12093 86.9137 0.0604651 86.5462 0.0604651C86.0562 0.0604651 85.6887 0.24186 85.3825 0.544186C85.0762 0.846513 84.8925 1.26977 84.8925 1.69302C84.8925 2.47907 85.3825 3.08371 86.3012 3.56744ZM10.5963 11.1255C11.3925 10.6418 11.9438 10.2186 12.3113 9.73489C12.8013 9.13023 13.0463 8.40466 13.0463 7.55814C13.0463 6.28838 12.5563 5.2 11.515 4.35349C10.4738 3.44651 8.9425 3.02325 6.92125 3.02325C5.69625 3.02325 4.59375 3.14418 3.61375 3.44651C2.695 3.68837 2.0825 3.99069 1.715 4.29302L1.65375 4.35349V4.47442C1.53125 5.2 1.47 5.92558 1.47 6.71164C1.47 6.89302 1.47 7.07441 1.47 7.31627V7.55814L1.715 7.6186C1.8375 7.67907 1.96 7.67907 2.0825 7.67907C2.14375 7.67907 2.205 7.67907 2.38875 7.6186L2.5725 7.55814L2.63375 7.37674C3.0625 6.34884 3.675 5.62325 4.47125 5.13953C5.2675 4.65582 6.06375 4.41396 6.86 4.41396C7.90125 4.41396 8.63625 4.71629 9.1875 5.26046C9.73875 5.80465 9.98375 6.59071 9.98375 7.49767C9.98375 8.34419 9.61625 9.13023 8.88125 9.91624C8.14625 10.6418 6.7375 11.0651 4.655 11.0651H4.2875V12.5163H4.655C4.83875 12.5163 5.20625 12.5163 5.94125 12.4558C6.67625 12.3954 7.105 12.3954 7.2275 12.3954C8.4525 12.3954 9.4325 12.6977 10.1675 13.3628C10.9025 14.0279 11.27 14.9953 11.27 16.2651C11.27 17.5349 10.8413 18.6233 10.045 19.4698C9.24875 20.3164 8.2075 20.7396 6.92125 20.7396C6.30875 20.7396 5.69625 20.6187 5.08375 20.3164C4.2875 19.9535 4.0425 19.7117 3.92 19.5302C3.73625 19.2883 3.61375 18.8651 3.43 18.3209C3.185 17.414 2.5725 16.9302 1.715 16.9302C1.225 16.9302 0.79625 17.1116 0.49 17.4745C0.1225 17.7163 0 18.1395 0 18.6233C0 19.5907 0.67375 20.4373 2.02125 21.1023C3.3075 21.7069 4.83875 22.0698 6.7375 22.0698C8.82 22.0698 10.5963 21.4651 12.1275 20.3767C13.6588 19.228 14.455 17.7767 14.455 16.0838C14.3938 13.6651 13.1075 12.0326 10.5963 11.1255ZM15.0675 13.4838C14.5163 12.5767 14.21 11.5489 14.21 10.4605C14.21 9.85579 14.3325 9.13023 14.5775 8.46513C14.8225 7.73953 15.2513 7.07441 15.8025 6.53024C16.3537 5.98605 16.905 5.50233 17.5175 5.26046C18.375 4.89767 19.4162 4.65582 20.58 4.65582C22.295 4.65582 23.765 5.26046 24.99 6.40931C26.1537 7.55814 26.7663 9.00929 26.7663 10.6418C26.7663 12.1535 26.1537 13.4838 24.9287 14.6326C23.7037 15.7814 22.1725 16.386 20.2737 16.386C19.11 16.386 18.0075 16.0838 17.0275 15.4791C16.2925 15.0559 15.6188 14.3907 15.0675 13.4838ZM16.9663 10.7024C16.9663 12.2139 17.2725 13.3023 17.9462 14.0279C18.62 14.7535 19.4162 15.1163 20.3962 15.1163C21.0087 15.1163 21.56 14.9349 22.1725 14.6326C22.7238 14.3303 23.1525 13.786 23.52 13.0604C23.8875 12.3349 24.01 11.4883 24.01 10.4605C24.01 9.79534 23.8875 9.06976 23.5812 8.22326C23.3362 7.37674 22.9075 6.7721 22.4175 6.40931C21.8662 5.98605 21.2537 5.80465 20.5187 5.80465C19.9675 5.80465 19.4162 5.92558 18.865 6.16744C18.3137 6.40931 17.885 6.89302 17.5175 7.55814C17.15 8.34419 16.9663 9.37209 16.9663 10.7024ZM49.245 25.7581V36.0976C49.245 36.2791 49.245 36.4605 49.3062 36.6419C49.3675 36.8233 49.4287 37.0046 49.49 37.186C49.5512 37.3069 49.6737 37.4884 49.7962 37.5489C49.9187 37.6698 49.98 37.6698 49.98 37.6698H50.3475V38.7582H45.08V37.6698H45.4475C45.4475 37.6698 45.57 37.6698 45.6312 37.5489C45.7537 37.4278 45.815 37.3069 45.8763 37.186C45.9375 37.0046 45.9987 36.8233 46.06 36.6419C46.1212 36.4605 46.1213 36.2791 46.1213 36.0976V25.7581C46.1213 25.6372 46.1212 25.4558 46.06 25.2743C45.9987 25.0931 45.9375 24.9116 45.8763 24.7302C45.815 24.6093 45.6925 24.4884 45.6312 24.3675C45.5087 24.2465 45.4475 24.2465 45.4475 24.2465H45.08V23.1582H50.3475V24.2465H49.98C49.8575 24.2465 49.7962 24.3069 49.6737 24.3675C49.5512 24.4884 49.49 24.5487 49.4287 24.7302C49.3675 24.9116 49.3062 25.0931 49.245 25.2743C49.245 25.5163 49.245 25.6372 49.245 25.7581ZM47.9587 24.4884H47.4687V37.5489H47.9587V24.4884ZM67.6812 38.7582C67.1912 38.7582 67.0075 38.7582 66.8237 38.7582C66.5787 38.7582 66.2725 38.7582 65.3537 38.7582C64.435 38.7582 63.7 37.3675 63.0262 36.0373C62.965 35.9767 62.965 35.9164 62.965 35.8558L61.0662 32.1069C60.8212 31.5629 60.3312 31.0791 59.7187 30.7162C59.1675 30.414 58.6163 30.1722 58.065 30.1116V35.6744C58.065 35.9164 58.065 36.0976 58.1263 36.3396C58.1875 36.5814 58.2487 36.7628 58.31 36.9442C58.3712 37.1255 58.4937 37.3069 58.6162 37.4278C58.7387 37.5489 58.8 37.5489 58.9225 37.5489H59.29V38.6977H53.3487V37.5489H53.7162C53.8387 37.5489 53.9 37.4884 54.0225 37.4278C54.145 37.3069 54.2675 37.186 54.3287 37.0046C54.4512 36.7628 54.5125 36.5814 54.5737 36.3396C54.635 36.0976 54.635 35.9164 54.635 35.6744V23.4C54.635 23.2186 54.635 23.0371 54.5737 22.7953C54.5125 22.5535 54.4512 22.3722 54.39 22.1302C54.3287 21.9489 54.2063 21.8278 54.0838 21.7069C54.0225 21.6466 53.9 21.586 53.7162 21.586H53.3487V20.4373H59.2287V21.586H58.8612C58.8 21.586 58.7387 21.586 58.6162 21.7069C58.4937 21.8278 58.3712 22.0093 58.31 22.1907C58.1875 22.3722 58.1263 22.614 58.1263 22.8559C58.065 23.0977 58.065 23.2791 58.065 23.4605V27.814C58.065 27.9953 58.065 27.9953 58.065 27.9953C58.065 27.9953 58.1262 28.0558 58.31 28.1164C59.045 27.9953 59.9025 27.814 60.0862 27.6929C60.76 27.028 61.3113 25.9395 61.74 24.3069C62.5364 21.5257 63.8839 20.014 65.7214 19.8326C65.905 19.8326 66.0275 19.8326 66.15 19.8326C67.375 19.8326 68.11 20.4976 68.2325 21.6466C68.2937 22.1302 68.1713 22.5535 67.9263 22.8559C67.6814 23.1582 67.2525 23.3395 66.7625 23.4C66.7012 23.4 66.64 23.4 66.5787 23.4C65.9662 23.4 65.415 23.0977 65.0475 22.4931C64.8025 22.1907 64.7411 22.1302 64.68 22.1302C64.435 22.1907 63.8225 22.5535 63.21 24.9722C62.7812 26.5442 62.1687 27.7535 61.3725 28.6C61.3112 28.6605 61.3113 28.6605 61.25 28.721C61.5562 28.7814 61.8012 28.9023 62.0462 29.0837C62.8425 29.5675 63.5162 30.3535 64.0675 31.3814L66.0275 35.1907C66.15 35.4929 66.395 35.7953 66.64 36.0976C66.885 36.4 67.1912 36.7023 67.4975 36.9442C67.8036 37.186 68.11 37.4278 68.4775 37.6093C68.7837 37.7302 69.0287 37.8513 69.335 37.8513H69.7025V39H67.6812V38.7582ZM56.5338 21.7675C56.5338 21.7675 55.4925 21.2837 55.6763 21.4651C55.7375 21.5255 56.0437 21.9489 56.0437 21.9489V37.4278H56.5338V21.7675ZM67.4362 37.9116L66.7012 37.4278C66.7012 37.4278 65.7212 36.6419 64.9862 35.5535C63.945 34.0418 63.2712 31.8047 62.5362 30.7768C61.6787 29.5675 60.0862 29.386 60.0862 29.386C60.0862 29.386 61.1887 29.9907 62.0462 31.0791C62.6587 31.8651 63.7613 34.2836 64.8025 35.7953C65.5988 37.0651 67.4362 37.9116 67.4362 37.9116ZM41.405 37.5489C40.7312 37.9722 39.935 38.2744 39.0775 38.4559C38.22 38.6371 37.3625 38.7582 36.4437 38.7582H30.5638V37.7907H31.0537C31.115 37.7907 31.115 37.7907 31.1762 37.7302C31.2987 37.6698 31.36 37.5489 31.4212 37.4278C31.4825 37.3069 31.5437 37.186 31.605 37.0651C31.6662 36.9442 31.6663 36.7628 31.6663 36.7023V22.3116C31.6663 22.1907 31.6662 22.1302 31.605 21.9489C31.5437 21.8278 31.5437 21.7069 31.4212 21.586C31.36 21.4651 31.2987 21.4046 31.1762 21.2837C31.115 21.2233 31.0537 21.2233 30.9312 21.2233H30.4412V20.2558H35.8312C37.7912 20.2558 39.3837 20.6791 40.4862 21.4046C41.65 22.1907 42.2625 23.2791 42.2625 24.6698C42.2625 25.214 42.14 25.7581 41.895 26.2418C41.65 26.6651 41.405 27.0883 41.0375 27.4511C40.7312 27.814 40.3637 28.0558 39.935 28.2976C39.8737 28.3582 39.8125 28.3582 39.7513 28.4187C40.2413 28.5396 40.67 28.721 41.0375 28.9628C41.65 29.3257 42.14 29.7489 42.5075 30.2325C42.875 30.7162 43.1812 31.2 43.3037 31.8047C43.4875 32.3487 43.5487 32.8931 43.5487 33.3767C43.5487 34.4047 43.3037 35.2511 42.9362 35.9164C42.63 36.5814 42.0787 37.1255 41.405 37.5489ZM39.3225 22.0093C39.3225 22.0093 40.8537 22.9768 40.8537 24.6698C40.8537 26.6651 39.2612 27.7535 39.2612 27.7535C39.2612 27.7535 41.2825 26.786 41.2213 24.6093C41.16 22.7953 39.3225 22.0093 39.3225 22.0093ZM34.4837 27.9349H35.7087C36.505 27.9349 37.1787 27.814 37.6687 27.6326C38.1587 27.4511 38.5875 27.2093 38.8325 26.9674C39.1387 26.6651 39.3225 26.4233 39.445 26.0604C39.5675 25.6977 39.6287 25.3954 39.6287 25.0325V24.8511C39.5675 23.8838 39.2 23.1582 38.5263 22.614C37.8525 22.0698 36.8725 21.7675 35.6475 21.7675H34.4837V27.9349ZM33.32 21.5255C33.32 21.5255 32.2787 20.9814 32.4625 21.1628C32.5237 21.2233 32.83 21.6466 32.83 21.6466V37.4884H33.32V21.5255ZM40.8537 33.8V33.4977C40.67 32.2278 40.18 31.2 39.3838 30.5349C38.5263 29.8093 37.3625 29.5069 35.8312 29.5069H34.4837V37.186H35.8925C37.485 37.186 38.71 36.8837 39.6287 36.2791C40.425 35.6744 40.8537 34.8883 40.8537 33.8ZM42.5075 32.8325C42.2012 30.4744 39.8125 29.6278 39.8125 29.6278C39.8125 29.6278 41.8337 30.7768 42.0787 32.9534C42.385 35.5535 40.4862 37.0651 40.4862 37.0651C40.4862 37.0651 42.875 35.6744 42.5075 32.8325ZM39.8125 17.7767H17.5175V18.3813H40.7312L39.8125 17.7767ZM54.635 18.3813H77.91V17.7767H55.5537L54.635 18.3813ZM41.0375 11.6093C41.0987 10.5209 41.5275 9.67442 42.2625 9.06976C42.9362 8.52559 43.5488 8.28373 44.2838 8.34419C44.835 8.34419 45.2637 8.52559 45.57 8.88836C45.815 9.19069 45.9375 9.55349 45.9375 9.97679C45.8762 10.7024 45.6312 11.307 45.1412 11.7907C44.7125 12.2139 44.2837 12.5163 43.6712 12.5767C43.6712 12.5767 43.4875 12.5163 43.4262 12.4558C43.4262 12.3954 43.4875 12.2139 43.5487 12.2139C44.1 11.9721 44.4062 11.7907 44.7125 11.4279C45.08 11.0046 45.325 10.5209 45.325 10.0372C45.325 9.61395 45.2637 9.25116 45.08 9.00929C44.8962 8.76743 44.6513 8.58605 44.345 8.58605C43.7325 8.52559 42.9975 8.88836 42.5075 9.49302C42.0175 10.0977 41.5888 10.8837 41.5888 11.6698C41.5888 12.2139 41.7725 12.6372 42.0787 12.8791C42.4462 13.1814 42.8137 13.3628 43.4262 13.3628C44.2837 13.4232 45.1412 13.1814 45.9987 12.4558C46.9787 11.6698 47.4687 10.7024 47.53 9.61395C47.53 9.19069 47.4687 8.8279 47.2237 8.52559C47.1625 8.46513 47.1013 8.40466 47.04 8.34419C46.7338 8.46513 46.4887 8.64651 46.2437 8.88836C46.1825 8.94883 46.1212 8.94883 46.06 8.94883C45.9375 8.94883 45.8763 8.88836 45.8763 8.70698C45.8763 8.52559 45.9987 8.40466 46.2437 8.28373C46.3662 8.22326 46.4887 8.1628 46.6725 8.10233C46.4887 7.9814 46.2437 7.92093 45.9375 7.86047C45.6313 7.92093 45.4475 7.92093 45.2637 7.92093C45.1412 7.92093 44.9575 7.92093 44.7125 7.92093C44.6512 7.92093 44.6513 7.92093 44.59 7.86047C44.5289 7.8 44.4675 7.73953 44.5287 7.6186C44.59 7.4372 44.6512 7.37674 44.835 7.37674C45.57 7.4372 46.1825 7.31627 46.6725 7.19534C47.53 6.89302 48.265 6.16744 48.3262 5.2C48.3262 4.83722 48.1425 4.53489 47.775 4.29302C47.4687 4.11163 47.1012 3.93023 46.7337 3.93023C46.305 3.93023 45.8763 3.99069 45.5088 4.11163C45.2638 4.17209 44.835 4.41396 44.7125 4.53489C44.59 4.65582 44.5287 4.77675 44.4675 4.83722C44.4062 5.0186 44.4675 5.26046 44.59 5.26046C44.7125 5.26046 44.8962 5.3814 44.8962 5.50233C44.9575 5.68372 44.8962 5.86511 44.7125 5.98605C44.5287 6.16744 44.2837 6.22791 44.1 6.16744C43.9162 6.16744 43.7325 6.04651 43.6712 5.86511C43.61 5.74418 43.5487 5.56278 43.5487 5.3814C43.5487 4.83722 43.9163 4.41396 44.59 4.05116C45.2638 3.68837 45.9987 3.56744 46.9175 3.56744C47.4687 3.56744 47.9587 3.74884 48.3875 4.05116C48.8162 4.35349 49 4.65582 48.9388 5.0186C48.8775 5.68372 48.5712 6.28838 47.8362 6.83257C47.285 7.25581 46.795 7.49767 46.3662 7.55814C46.6112 7.6186 46.8563 7.67907 47.04 7.8C48.02 7.49767 49.1225 7.31627 50.2862 7.37674C50.6537 7.01395 51.205 6.65117 51.8787 6.40931C52.0012 6.34884 52.0625 6.34884 52.0625 6.40931C52.0625 6.46977 52.0012 6.53024 51.8787 6.53024C51.3887 6.65117 51.0212 6.95349 50.715 7.31627C52.7362 7.37674 53.7162 8.04186 53.655 9.37209C53.5937 9.97679 53.2875 10.5209 52.7362 10.9442C52.185 11.3674 51.5112 11.6093 50.7762 11.6698V11.7302C51.5112 11.7302 52.1238 11.9117 52.6138 12.3349C53.1038 12.7582 53.2875 13.2419 53.2875 13.8466C53.2262 14.6931 52.7975 15.4187 52.0013 15.9023C51.2663 16.386 50.4087 16.6278 49.4287 16.6278C48.9387 16.6278 48.265 16.5675 47.4075 16.5069C46.55 16.386 46.06 16.386 45.8763 16.386C45.2638 16.386 44.835 16.5069 44.5287 16.6884C44.4675 16.7487 44.4063 16.7487 44.4063 16.7487C44.4063 16.7487 44.4063 16.6884 44.4063 16.6278C44.59 16.2047 44.9575 15.9629 45.5088 15.9629C45.6313 15.9629 45.815 15.9629 45.9375 15.9629C45.9988 15.9629 46.1212 15.9629 46.1825 15.9023C46.6725 15.6605 47.04 15.1768 47.285 14.4512C47.53 13.7256 47.8362 12.8791 48.1425 11.8511C48.51 10.6418 48.755 9.73489 48.9388 9.25116C49.1838 8.52559 49.5512 7.9814 50.0412 7.49767C49 7.49767 48.0812 7.67907 47.2237 7.9814C47.3462 8.10233 47.53 8.22326 47.6525 8.40466C48.02 8.8279 48.2037 9.25116 48.1425 9.61395C48.0812 10.8233 47.4687 11.8511 46.2437 12.6372C45.2025 13.3628 44.2225 13.6651 43.2425 13.6047C42.4462 13.5442 41.8339 13.3023 41.3437 12.8791C41.2212 12.6372 41.0375 12.2139 41.0375 11.6093ZM49.6125 10.1581C49.3062 10.9442 49.0612 11.7907 48.755 12.5767C48.4487 13.4232 48.1425 14.0884 47.8975 14.5116C47.4075 15.2977 46.9175 15.7814 46.3662 16.0232C46.55 16.0232 47.04 16.1441 47.8975 16.3256C48.5712 16.4465 49.1225 16.5069 49.6125 16.5069C50.4087 16.5069 51.0825 16.2651 51.5725 15.7814C52.1237 15.2977 52.3687 14.6931 52.3687 13.8466C52.3687 13.2419 52.185 12.7582 51.7562 12.3954C51.3275 12.0326 50.7762 11.8511 50.0412 11.8511C49.98 11.8511 49.8575 11.8511 49.6737 11.8511C49.5512 11.8511 49.49 11.8511 49.49 11.8511C49.49 11.8511 49.5512 11.7907 49.6125 11.6698C49.735 11.5489 49.7962 11.5489 49.98 11.5489C50.0412 11.5489 50.1637 11.5489 50.2862 11.5489C50.4087 11.5489 50.5312 11.5489 50.5925 11.5489C51.0825 11.5489 51.5725 11.307 52.0625 10.8837C52.6137 10.4 52.8587 9.85579 52.8587 9.25116C52.8587 8.70698 52.6137 8.28373 52.185 7.9814C51.7562 7.67907 51.2662 7.49767 50.6537 7.4372C50.47 7.92093 50.1025 8.76743 49.6125 10.1581ZM38.955 14.0279C38.6487 13 38.465 11.8511 38.465 10.6418C38.465 9.61395 38.5875 8.70698 38.7712 7.9814C39.0162 7.19534 39.3225 6.34884 39.8737 5.44186C40.3637 4.53489 40.9762 3.74884 41.7112 3.14418C42.4462 2.53954 43.4262 1.99535 44.7125 1.51163C45.6312 1.2093 46.7337 1.0279 48.1425 1.0279C49.0612 1.0279 49.98 1.14883 50.8375 1.45116C51.695 1.75349 52.5525 2.11628 53.2262 2.6C53.9612 3.08371 54.6962 3.86977 55.37 4.89768C55.86 5.62325 56.2275 6.34884 56.5338 7.19534C56.84 8.28373 57.0237 9.37209 57.0237 10.5209C57.0237 11.8511 56.9012 12.8791 56.7175 13.786C56.4725 14.6325 56.105 15.4791 55.615 16.3256C55.1863 16.9907 54.5125 17.7163 53.4713 18.5627C52.7975 19.1071 51.94 19.5907 50.96 19.9535C49.98 20.3164 48.8775 20.4976 47.7137 20.4976C46.55 20.4976 45.5089 20.3164 44.59 20.014C43.6713 19.7117 42.9362 19.3489 42.3237 18.9256C41.7112 18.5024 41.0987 17.8372 40.425 16.9907C39.7512 15.9629 39.2612 15.0559 38.955 14.0279ZM53.2875 3.26511C54.8187 5.2 55.7987 7.8 55.7987 10.7024C55.7987 13.6047 54.88 16.2047 53.2875 18.1395C55.1862 16.3256 56.4112 13.6651 56.4112 10.7024C56.4112 7.73953 55.2475 5.07907 53.2875 3.26511ZM47.5912 19.8326C57.82 20.1953 57.3912 1.81395 47.775 1.51163C38.4037 1.14883 37.8525 19.5302 47.5912 19.8326ZM39.2 10.7024C39.2 13.6651 40.425 16.3256 42.3237 18.1395C40.7925 16.2047 39.8125 13.6047 39.8125 10.7024C39.8125 7.8 40.7312 5.2 42.3237 3.26511C40.425 5.07907 39.2 7.73953 39.2 10.7024ZM25.97 15.2372C25.97 15.8418 26.5825 16.386 27.3175 16.386C27.3787 16.386 27.44 16.386 27.5013 16.386H27.5625C30.9925 16.3256 31.605 11.7907 31.7275 10.2186V7.25581V7.07441C31.7275 6.28838 32.1562 6.04651 32.5237 5.92558H33.1362H33.7487C34.1162 5.98605 34.545 6.28838 34.545 7.07441V14.5116C34.545 15.2977 34.1162 15.5395 33.7487 15.6605H33.1362H33.075V16.1441H37.975V15.6605H37.3625C37.1787 15.6 36.9337 15.5396 36.8112 15.2977V6.22791C36.995 6.04651 37.1787 5.92558 37.3625 5.86511H37.975H38.0362V5.74418V5.3814V5.26046H37.9137H29.4612H29.3388V5.32093V5.92558H30.0125C30.3187 5.98605 30.625 6.16744 30.7475 6.53024V9.67442C30.625 13.8466 29.155 14.6931 28.6038 14.8744C28.42 14.3907 27.93 14.0884 27.3175 14.0884C26.5825 14.0884 25.97 14.5721 25.97 15.2372Z" fill="#191B1D"/>
</svg>
