<svg width="141" height="28" viewBox="0 0 141 28" fill="none" xmlns="http://www.w3.org/2000/svg">
<path d="M0 26.0468L2.95414 2.01746H9.76306C14.0382 2.01746 17.2445 3.01418 19.382 5.00762C21.3995 6.88098 22.4082 9.58293 22.4082 13.1135C22.4082 17.4366 21.0632 20.715 18.3733 22.9486C15.8515 25.0141 12.3689 26.0468 7.92573 26.0468H0ZM10.0513 7.31329H8.39407L6.73687 20.751H8.5742C10.8799 20.751 12.6812 20.1386 13.9781 18.9137C15.4192 17.5927 16.1397 15.7554 16.1397 13.4017C16.1397 11.3362 15.5633 9.76306 14.4104 8.68228C13.4257 7.76962 11.9727 7.31329 10.0513 7.31329Z" fill="#191B1D"/>
<path d="M26.6354 9.94319H32.5797L30.5982 26.0468H24.6539L26.6354 9.94319ZM27.8602 5.54801C27.2358 4.89954 26.9236 4.13099 26.9236 3.24235C26.9236 2.3537 27.2358 1.59716 27.8602 0.972704C28.5087 0.324235 29.2773 0 30.1659 0C31.0546 0 31.8111 0.324235 32.4356 0.972704C33.084 1.59716 33.4083 2.3537 33.4083 3.24235C33.4083 4.13099 33.084 4.89954 32.4356 5.54801C31.8111 6.17246 31.0546 6.48469 30.1659 6.48469C29.2773 6.48469 28.5087 6.17246 27.8602 5.54801Z" fill="#191B1D"/>
<path d="M36.4159 9.94319H42.3602L41.8558 12.0327C42.9606 11.072 43.9333 10.4115 44.7739 10.0513C45.6145 9.66699 46.5872 9.47485 47.692 9.47485C49.3252 9.47485 50.5741 9.89516 51.4387 10.7358C52.3274 11.5764 52.7717 12.7893 52.7717 14.3744C52.7717 15.191 52.7117 16.0676 52.5916 17.0043L51.4748 26.0468H45.5305L46.4311 18.9497C46.5272 18.1091 46.5752 17.4486 46.5752 16.9683C46.5752 15.263 45.8547 14.4104 44.4137 14.4104C43.453 14.4104 42.7324 14.7347 42.2521 15.3831C41.7958 16.0316 41.4715 17.1604 41.2794 18.7696L40.3787 26.0468H34.4344L36.4159 9.94319Z" fill="#191B1D"/>
<path d="M73.5506 19.2019H61.5179C61.5179 20.5228 61.7941 21.4355 62.3465 21.9399C62.7548 22.3482 63.3672 22.5523 64.1838 22.5523C64.7842 22.5523 65.2886 22.4082 65.6969 22.12C66.0812 21.8558 66.3454 21.4955 66.4895 21.0392H72.9742C72.5899 22.1921 72.0014 23.1648 71.2089 23.9573C69.5517 25.6626 67.222 26.5152 64.2198 26.5152C61.65 26.5152 59.5965 25.8067 58.0594 24.3896C56.5943 22.9726 55.8618 21.0752 55.8618 18.6975C55.8618 15.9595 56.7384 13.7379 58.4917 12.0327C60.245 10.3275 62.5386 9.47485 65.3727 9.47485C67.9425 9.47485 69.972 10.2194 71.4611 11.7085C72.9021 13.1495 73.6226 15.191 73.6226 17.8329C73.6226 18.1691 73.5986 18.6255 73.5506 19.2019ZM61.9142 15.8515H67.5342C67.4862 15.0589 67.21 14.4224 66.7056 13.9421C66.2253 13.5098 65.6008 13.2936 64.8323 13.2936C63.9917 13.2936 63.3072 13.5578 62.7788 14.0862C62.3465 14.5185 62.0583 15.1069 61.9142 15.8515Z" fill="#191B1D"/>
<path d="M77.9655 9.94319H83.9097L83.4414 12.1408C84.3781 11.3002 85.2187 10.7238 85.9632 10.4115C86.7318 10.0993 87.6805 9.94319 88.8093 9.94319C88.9054 9.94319 89.2896 9.96721 89.9621 10.0152L89.3137 15.4912C88.425 15.0109 87.5244 14.7707 86.6117 14.7707C85.3868 14.7707 84.4862 15.1069 83.9097 15.7794C83.3573 16.4279 82.9731 17.5687 82.7569 19.2019L81.9283 26.0468H75.984L77.9655 9.94319Z" fill="#191B1D"/>
<path d="M100.598 9.47485C103.432 9.47485 105.69 10.2314 107.371 11.7445C109.076 13.2336 109.929 15.227 109.929 17.7248C109.929 20.3187 109.04 22.4322 107.263 24.0654C105.51 25.6986 103.228 26.5152 100.418 26.5152C97.5358 26.5152 95.2061 25.7466 93.4288 24.2095C91.6515 22.6484 90.7629 20.5949 90.7629 18.0491C90.7629 15.5512 91.6755 13.4978 93.5008 11.8886C95.3502 10.2794 97.7159 9.47485 100.598 9.47485ZM100.094 21.8678C101.198 21.8678 102.099 21.4595 102.796 20.6429C103.516 19.8263 103.876 18.7816 103.876 17.5087C103.876 16.4759 103.588 15.6593 103.012 15.0589C102.435 14.4585 101.655 14.1582 100.67 14.1582C99.5652 14.1582 98.6406 14.5785 97.896 15.4192C97.1755 16.2357 96.8152 17.2565 96.8152 18.4814C96.8152 19.5141 97.1155 20.3427 97.7159 20.9672C98.3163 21.5676 99.1089 21.8678 100.094 21.8678Z" fill="#191B1D"/>
<rect x="114.191" y="9.11462" width="26.8094" height="18.3433" rx="9.17163" fill="#828282"/>
<path d="M108.899 27.4578C112.568 26.0468 113.955 20.9906 114.191 18.6389L124.421 27.4578H108.899Z" fill="#828282"/>
<path d="M119.327 19.532C119.68 19.532 119.976 19.6481 120.216 19.8803C120.456 20.1124 120.576 20.3966 120.576 20.7329C120.576 21.0771 120.46 21.3693 120.228 21.6095C119.996 21.8497 119.712 21.9698 119.375 21.9698C119.039 21.9698 118.747 21.8497 118.499 21.6095C118.259 21.3613 118.138 21.0731 118.138 20.7449C118.138 20.4087 118.255 20.1244 118.487 19.8923C118.719 19.6521 118.999 19.532 119.327 19.532Z" fill="black"/>
<path d="M126.192 16.4458H128.161L127.825 19.2798C127.697 20.3046 127.429 20.9851 127.021 21.3213C126.516 21.7536 125.76 21.9698 124.751 21.9698C123.894 21.9698 123.23 21.7896 122.757 21.4294C122.293 21.0611 122.061 20.5367 122.061 19.8563C122.061 19.6321 122.077 19.3879 122.109 19.1237L122.445 16.4458H124.415L124.102 19.0036C124.062 19.3639 124.042 19.572 124.042 19.6281C124.042 20.0924 124.311 20.3246 124.847 20.3246C125.159 20.3246 125.391 20.2445 125.543 20.0844C125.696 19.9163 125.796 19.6361 125.844 19.2438L126.192 16.4458Z" fill="black"/>
<path d="M133.537 16.4458H135.519L134.858 21.8137H132.877L133.021 21.2252C132.717 21.5054 132.429 21.7016 132.156 21.8137C131.884 21.9177 131.564 21.9698 131.196 21.9698C130.515 21.9698 129.971 21.7416 129.563 21.2853C129.162 20.829 128.962 20.2125 128.962 19.4359C128.962 18.5313 129.23 17.7828 129.767 17.1903C130.303 16.5899 130.976 16.2897 131.784 16.2897C132.16 16.2897 132.473 16.3457 132.721 16.4578C132.969 16.5619 133.237 16.762 133.525 17.0582L133.537 16.4458ZM132.06 20.4207C132.421 20.4207 132.717 20.2846 132.949 20.0124C133.189 19.7322 133.309 19.3839 133.309 18.9676C133.309 18.6234 133.213 18.3512 133.021 18.151C132.829 17.9509 132.573 17.8508 132.252 17.8508C131.892 17.8508 131.588 17.9909 131.34 18.2711C131.1 18.5433 130.98 18.8835 130.98 19.2918C130.98 19.6361 131.076 19.9123 131.268 20.1204C131.468 20.3206 131.732 20.4207 132.06 20.4207Z" fill="black"/>
</svg>
