<svg width="156" height="27" viewBox="0 0 156 27" fill="none" xmlns="http://www.w3.org/2000/svg">
<path fill-rule="evenodd" clip-rule="evenodd" d="M43.51 9.82215C44.5383 8.69227 45.7895 8.04927 47.4797 8.04927H48.2227V12.1491C44.194 12.1491 43.51 12.2096 43.51 13.7295V18.8493H39.5988V8.04927H43.51V9.82215ZM72.9794 7.84474C76.167 7.84474 78.6505 9.62521 78.6505 13.445C78.6505 17.2649 76.167 19.0451 72.9794 19.0451C71.0112 19.0451 69.7101 18.0737 69.0098 17.1693V18.845H65.0989V5.625H69.0098V9.72091C69.7101 8.81644 71.0112 7.84474 72.9794 7.84474ZM71.865 15.5049C73.4489 15.5049 74.5245 14.785 74.5245 13.445C74.5245 12.1051 73.4489 11.3853 71.865 11.3853C70.1051 11.3853 69.0098 12.1051 69.0098 13.445C69.0098 14.785 70.1051 15.5049 71.865 15.5049ZM86.7468 7.68494C90.5407 7.68494 93.6301 9.46462 93.6301 13.4447C93.6301 17.465 90.5407 19.125 86.7468 19.125C82.9525 19.125 79.8631 17.465 79.8631 13.4447C79.8631 9.46462 82.9525 7.68494 86.7468 7.68494ZM86.7469 15.5853C88.3307 15.5853 89.4064 14.8254 89.4064 13.4448C89.4064 12.0645 88.3307 11.3046 86.7469 11.3046C84.9865 11.3046 83.892 12.0645 83.892 13.4448C83.892 14.8254 84.9865 15.5853 86.7469 15.5853ZM56.5093 7.68494C60.3032 7.68494 63.3925 9.46462 63.3925 13.4447C63.3925 17.465 60.3032 19.125 56.5093 19.125C52.715 19.125 49.6256 17.465 49.6256 13.4447C49.6256 9.46462 52.715 7.68494 56.5093 7.68494ZM56.5093 15.5853C58.0931 15.5853 59.1688 14.8254 59.1688 13.4448C59.1688 12.0645 58.0931 11.3046 56.5093 11.3046C54.7489 11.3046 53.6542 12.0645 53.6542 13.4448C53.6542 14.8254 54.7489 15.5853 56.5093 15.5853ZM100.592 5.64478V8.04484H104.307V11.6448H100.592V14.0452C100.592 15.3249 102.391 15.0853 104.307 14.9848V18.8453C102.997 19.0448 101.648 19.0448 101.413 19.0448C99.1248 19.0448 96.6806 18.0047 96.6806 14.6448V11.6448H94.5297V8.04484H96.6806V5.64478H100.592ZM115.473 9.72089V8.04483H119.384V18.845H115.473V17.1692C114.773 18.0735 113.472 19.0451 111.504 19.0451C108.316 19.0451 105.832 17.2649 105.832 13.445C105.832 9.6252 108.316 7.84472 111.504 7.84472C113.472 7.84472 114.773 8.81642 115.473 9.72089ZM112.618 15.5049C114.378 15.5049 115.473 14.785 115.473 13.445C115.473 12.1051 114.378 11.3853 112.618 11.3853C111.034 11.3853 109.958 12.1051 109.958 13.445C109.958 14.785 111.034 15.5049 112.618 15.5049ZM151.494 8.0646H155.405V18.8648H151.494V17.1892C150.794 18.0935 149.493 19.0649 147.524 19.0649C144.338 19.0649 141.854 17.2851 141.854 13.4648C141.854 9.64497 144.338 7.8645 147.524 7.8645C149.493 7.8645 150.794 8.8362 151.494 9.74067V8.0646ZM148.639 15.5252C150.4 15.5252 151.494 14.8047 151.494 13.4648C151.494 12.1251 150.4 11.4051 148.639 11.4051C147.055 11.4051 145.98 12.1251 145.98 13.4648C145.98 14.8047 147.055 15.5252 148.639 15.5252ZM123.471 14.7047C125.036 14.7047 125.936 15.7456 125.936 16.8852C125.936 18.0254 125.036 19.0255 123.471 19.0255C121.888 19.0255 120.988 18.0254 120.988 16.8852C120.988 15.7456 121.888 14.7047 123.471 14.7047ZM136.045 12.525V8.04481H139.956V18.845H136.045V17.1509C135.374 18.0508 134.004 19.0451 132.271 19.0451C128.791 19.0451 126.874 17.2254 126.874 13.5249V8.04481H130.785V12.805C130.785 14.6852 131.783 15.0849 133.405 15.0849C135.048 15.0849 136.045 14.4049 136.045 12.525Z" fill="#191B1D"/>
<path fill-rule="evenodd" clip-rule="evenodd" d="M13.1858 9.87329V8.1001H9.2749V18.9002H13.1858V13.7804C13.1858 12.2601 13.8703 12.2003 17.8985 12.2003V8.1001H17.1555C15.4653 8.1001 14.2141 8.74357 13.1858 9.87329Z" fill="#191B1D"/>
<path fill-rule="evenodd" clip-rule="evenodd" d="M0 13.5001C0 6.0548 5.92016 0 13.1998 0C20.4792 0 26.3992 6.0548 26.3992 13.5001C26.3992 20.9454 20.4792 27 13.1998 27C5.92016 27 0 20.9454 0 13.5001ZM2.63992 13.5001C2.63992 19.4539 7.37849 24.3 13.1998 24.3C19.021 24.3 23.7593 19.4539 23.7593 13.5001C23.7593 7.54627 19.021 2.69996 13.1998 2.69996C7.37849 2.69996 2.63992 7.54627 2.63992 13.5001Z" fill="#191B1D"/>
</svg>
