<svg width="72" height="72" viewBox="0 0 72 72" fill="none" xmlns="http://www.w3.org/2000/svg">
<path fill-rule="evenodd" clip-rule="evenodd" d="M19.754 52.9064L18.5509 43.1617C15.3654 40.8967 12.9114 39.0324 9.96196 36.8853C8.56945 26.6207 11.1416 21.0522 14.9168 15.7667C19.6125 9.79697 27.163 5.3374 36.2001 5.3374C45.2377 5.43153 52.8117 9.9856 57.2717 15.9554C61.4477 21.6184 63.6897 28.7443 62.0611 37.1685L53.9207 43.1617L52.7169 52.9064H39.8107C39.0083 53.544 37.9232 54.1334 36.2001 54.1809C34.5013 54.1334 33.4394 53.544 32.5665 52.9064H19.754Z" fill="#191B1D"/>
<path fill-rule="evenodd" clip-rule="evenodd" d="M36.2006 39.3861C35.5163 30.3015 35.3276 19.0934 34.7613 10.1037C33.7939 9.86759 32.4253 9.93856 31.2928 10.1272C30.1602 10.4813 29.3343 10.788 28.3669 11.3307C30.1367 19.9667 32.1896 30.9623 33.9358 39.5277C31.5527 31.1984 28.3669 20.769 26.0077 12.4632C24.8751 12.6993 23.7661 13.3362 22.9642 13.997C22.1148 14.6577 21.6191 15.1534 20.8403 16.333C24.2614 23.6478 28.3669 32.9681 31.8123 40.2355C27.8242 33.6285 22.987 24.9219 18.9756 18.3624C18.1972 19.0467 17.607 19.5424 16.8282 20.8635C16.1674 21.9255 15.8372 23.1761 15.6957 24.3796C20.0846 29.736 25.3226 36.154 29.7351 41.4861C25.1344 37.0501 19.4709 31.3399 14.9172 26.9039C14.469 27.8004 14.1859 28.5556 14.0443 30.0419C13.8792 31.4811 14.1623 33.2035 14.469 34.2419L23.3646 40.8489L24.3085 48.1872L34.1009 48.2578C34.8088 49.0837 35.0445 49.5084 36.2009 49.579C37.3096 49.5084 37.9472 48.8241 38.2303 48.2578H47.9985L48.9891 40.8959L57.8145 34.336C58.1443 33.2509 58.3564 31.5752 58.2392 30.136C58.0976 28.5788 57.8145 27.8 57.4368 26.9741C52.8596 31.3866 47.1726 37.0971 42.6189 41.5328C47.0546 36.2473 52.2459 29.8055 56.6815 24.4024C56.4458 23.1992 56.1627 21.9718 55.4545 20.9102C54.6286 19.5887 54.1565 19.0934 53.4016 18.3856C49.3671 24.9216 44.4589 33.6995 40.4711 40.2587C44.0111 32.9678 48.022 23.6475 51.491 16.4275C50.7361 15.2711 50.193 14.6813 49.4381 14.0679C48.5416 13.3836 47.4326 12.7468 46.3471 12.4872C43.8695 20.769 40.826 31.2929 38.4189 39.5512C40.0939 30.9858 42.1942 20.0847 43.8695 11.4726C43.0205 10.8589 42.1946 10.5523 41.0848 10.2221C39.8111 9.986 38.5605 9.93893 37.5692 10.104C36.9088 19.1644 36.8845 30.3489 36.2006 39.3861Z" fill="#E8E8E8"/>
<path fill-rule="evenodd" clip-rule="evenodd" d="M9.15967 63.2885H13.7373C13.6667 64.3034 14.1623 64.5391 14.3984 64.7046C14.6576 64.7987 16.5694 64.8928 17.5129 64.7277C17.8905 64.6571 18.2443 64.5156 18.2443 63.3591C18.2443 62.8638 18.1262 62.3211 17.56 62.2027C15.5541 62.038 13.5957 62.2501 11.5902 62.0611C9.58437 61.6132 9.27808 61.0937 9.15967 59.5129C9.30124 57.3184 10.08 56.6815 12.3216 56.6106C14.6571 56.54 16.9942 56.54 19.3297 56.6106C21.7129 56.6106 22.4442 57.5313 22.4442 59.5368H18.2443C18.2443 58.5455 18.0556 58.1682 17.56 58.1207C16.5387 58.0501 15.5138 58.0501 14.4925 58.1207C14.1149 58.1207 13.6196 58.3098 13.6196 59.2062C13.6196 60.0553 13.8318 60.2678 14.3984 60.3391C16.1208 60.4094 17.867 60.4333 19.5658 60.5506C22.3972 60.716 22.4917 61.9666 22.5858 63.2878C22.6329 65.176 21.9486 65.836 21.4533 66.1434C20.9815 66.3556 18.6925 66.6156 18.2443 66.6156H13.7141C12.6992 66.6156 11.4251 66.4975 10.3161 66.167C9.2777 65.8842 9.15967 64.492 9.15967 63.2885ZM52.1753 66.6626H56.1862V56.6584H52.1753V66.6626ZM58.876 66.6626H62.8403V56.6584H58.876V66.6626ZM49.8392 61.4242C49.7662 61.1113 49.6714 60.8039 49.5554 60.5042C48.871 59.3952 46.5118 59.3952 44.2232 59.3478C42.5009 59.3478 39.9291 59.3952 39.1739 60.1262C38.8668 60.4568 38.7017 60.9286 38.6076 61.4242C38.4896 62.0144 38.5127 62.6274 38.5127 62.9109C38.5127 63.4297 38.5602 65.4352 39.5276 65.9544C40.4241 66.5446 43.1374 66.6156 44.1754 66.6156C45.2844 66.6156 48.3522 66.4975 48.8008 65.978C49.6024 65.6948 49.7914 64.7042 49.9565 63.9258H46.0162C46.0162 64.7042 45.4025 65.1764 44.1754 65.1046C43.0664 65.176 42.4295 64.9164 42.4295 63.5246L49.9561 63.5478C49.9565 62.8638 49.9808 62.1321 49.8392 61.4242ZM46.0162 62.1086H42.4295C42.4295 61.8254 42.477 61.589 42.5476 61.4242C42.8064 60.7874 43.4676 60.7638 44.175 60.7164C45.2605 60.7164 45.7327 60.976 45.9217 61.4242C46.0162 61.6132 46.0397 61.8489 46.0162 62.1086ZM24.9454 66.6626H28.8622V62.4152C28.9567 61.8258 29.0983 61.3536 30.5375 61.3536C31.9057 61.3305 32.2834 61.7074 32.2834 62.4152V66.6626H36.2002V62.4152C36.2002 61.0231 36.177 60.2682 35.2802 59.8677C34.4778 59.3482 33.3214 59.4191 32.2363 59.4191C31.1038 59.4191 29.8297 59.5607 28.8622 60.0328V56.6587H24.9454V66.6626Z" fill="#191B1D"/>
</svg>
