<svg width="124" height="30" viewBox="0 0 124 30" fill="none" xmlns="http://www.w3.org/2000/svg">
<g clip-path="url(#clip0_133_274)">
<path d="M7.35495 4.48467C7.35495 12.4211 0.869873 13.9063 0.869873 21.5345C0.869873 24.5126 2.70058 27.0915 4.86145 27.3997C4.70376 26.8566 4.65201 26.4373 4.65201 25.8513C4.65201 20.3448 13.2856 18.6373 13.2856 9.246C13.2856 4.75494 10.1959 0.95851 6.59113 0.0567627C6.59113 0.0567627 7.35249 2.49426 7.35249 4.48215L7.35495 4.48467Z" fill="#191B1D"/>
<path d="M6.80786 26.1847C6.80786 27.7432 7.8846 29.4027 9.28904 29.9432C9.21513 29.7134 9.18063 29.5113 9.18063 29.1728C9.18063 26.1038 18.036 25.1263 18.036 17.1066C18.036 14.8888 17.1318 12.4816 15.3405 10.903C14.1282 20.0189 6.80786 21.2743 6.80786 26.1847Z" fill="#828282"/>
<path d="M2.16826 2.60291C2.16826 2.60291 2.59452 3.38846 2.59452 4.26495C2.59452 7.08133 0 8.15484 0 11.0167C0 12.3681 0.717005 13.4769 1.72968 14.121C1.75679 13.876 1.78142 13.6462 1.84302 13.4542C2.44915 11.4663 5.29253 9.26624 5.29253 6.14675C5.29253 4.27758 3.77968 2.7393 2.16826 2.60291Z" fill="#4F4F4F"/>
<path d="M30.336 18.9606C32.0139 20.5115 33.6056 21.4233 35.902 21.4233C37.1758 21.4233 39.4969 20.8727 39.4969 19.1551C39.4969 18.1624 38.7676 17.6597 37.3409 17.4122L33.337 16.7453C29.7742 16.1669 27.8252 14.227 27.8252 11.3197C27.8252 6.5609 31.5827 4.5907 35.6901 4.5907C38.8784 4.5907 42.015 5.91932 44.1734 8.38461L40.5243 11.0696C39.2529 9.49095 37.3877 8.57405 35.3624 8.57405C34.261 8.57405 32.6348 9.29393 32.6348 10.5695C32.6348 11.6203 33.475 12.1482 35.3082 12.4538L37.1512 12.7569C40.9851 13.3935 44.1488 14.611 44.1488 18.3746C44.1488 24.3029 38.9302 25.4143 35.3402 25.4143C32.073 25.4143 29.0054 24.3306 26.3813 21.3981L30.336 18.9606ZM55.9781 25.4168C49.8405 25.4168 46.2481 20.5393 46.2481 14.9974C46.2481 9.46569 49.8405 4.5907 55.9781 4.5907C62.1084 4.5907 65.6984 9.46569 65.6984 14.9974C65.6984 20.5367 62.1059 25.4168 55.9781 25.4168ZM55.9781 8.74076C53.1643 8.74076 51.0601 10.572 51.0601 14.9974C51.0601 17.882 52.196 21.2617 55.9781 21.2617C59.541 21.2617 60.8937 18.0462 60.8937 14.9974C60.8937 11.8981 59.541 8.74076 55.9781 8.74076ZM81.4257 11.7087C80.7481 9.87742 79.0997 8.73823 77.4193 8.73823C74.778 8.73823 72.6738 10.5746 72.6738 14.9999C72.6738 17.882 73.8072 21.2617 77.5918 21.2617C78.8878 21.2617 80.7801 20.2665 81.5341 18.4907L85.3433 20.3751C83.6949 23.4491 80.8319 25.4143 77.5918 25.4143C71.4541 25.4143 67.8592 20.5393 67.8592 14.9999C67.8592 9.46822 71.2126 4.59322 77.2099 4.59322C80.9895 4.59322 83.4732 6.47502 85.2595 9.73849L81.4257 11.7087ZM92.8288 5.14892H97.7985L105.067 24.8586H99.9027L98.9319 21.7593H91.8309L90.8551 24.8586H85.7277L92.8288 5.14892ZM97.7689 18.1018L95.3962 9.9633H95.3444L92.9643 18.1018H97.7689ZM106.974 5.1464H116.591C120.915 5.1464 123.566 7.19743 123.566 11.6228C123.566 14.174 121.997 16.2174 119.59 16.9398L124 24.8586H118.619L114.837 17.7709H111.786V24.8586H106.974V5.1464ZM111.786 14.1083H116.189C117.729 14.0856 118.757 13.2874 118.757 11.4561C118.757 9.62483 117.729 8.82411 116.189 8.79633H111.786V14.1083Z" fill="#191B1D"/>
</g>
<defs>
<clipPath id="clip0_133_274">
<rect width="124" height="30" fill="white"/>
</clipPath>
</defs>
</svg>
