<svg width="110" height="42" viewBox="0 0 110 42" fill="none" xmlns="http://www.w3.org/2000/svg">
<g clip-path="url(#clip0_133_279)">
<path d="M20.9355 41.8086C9.49688 41.8086 0.190674 32.4737 0.190674 21.0006C0.190674 9.52642 9.49688 0.191895 20.9355 0.191895C32.3738 0.191895 41.6796 9.52681 41.6796 21.0006C41.6796 32.4737 32.3738 41.8086 20.9355 41.8086Z" fill="white"/>
<path d="M20.9355 0.382725C32.2865 0.382725 41.489 9.61325 41.489 21.0003C41.489 32.3873 32.2865 41.6175 20.9355 41.6175C9.58382 41.6175 0.381339 32.3869 0.381339 21.0003C0.381339 9.61364 9.58382 0.382725 20.9355 0.382725ZM20.9355 0.000366211C9.39163 0.000366211 0 9.42093 0 21.0003C0 32.58 9.39163 41.9998 20.9355 41.9998C32.4791 41.9998 41.8703 32.5789 41.8703 21.0003C41.8703 9.42093 32.4791 0.000366211 20.9355 0.000366211Z" fill="#191B1D"/>
<path d="M109.615 12.544C109.846 12.274 110 11.9662 110 11.5804C110.003 11.1975 109.866 10.8267 109.615 10.5381C109.344 10.2674 109 10.1129 108.614 10.1129C108.23 10.1129 107.923 10.2678 107.614 10.5381C107.345 10.8084 107.228 11.1556 107.228 11.5804C107.228 11.9662 107.345 12.274 107.614 12.544C107.923 12.8143 108.23 12.9298 108.614 12.9298C109 12.9298 109.344 12.8143 109.615 12.544ZM109.693 26.7444V14.2806H107.614L107.653 26.7444H109.693ZM104.881 14.8985L104.536 14.7437C103.612 14.203 102.495 13.9334 101.149 13.9334C99.6863 13.9334 98.4934 14.2802 97.6083 14.975C97.1465 15.3226 96.8384 15.6694 96.6077 16.1332C96.3774 16.5572 96.2607 16.9816 96.2607 17.4829C96.2607 18.3321 96.6466 19.0265 97.3399 19.6436C97.9931 20.2229 98.9549 20.6859 100.225 21.0713C101.302 21.4185 102.033 21.7661 102.495 22.1136C102.881 22.4998 103.112 22.9238 103.112 23.4637C103.112 24.0426 102.804 24.5057 102.264 24.8918C101.725 25.2008 100.955 25.3935 99.994 25.3935C98.9541 25.3935 97.9161 25.1232 96.8384 24.6208L96.5688 24.4288L95.6837 26.0489L95.9926 26.2033C97.1851 26.7822 98.4942 27.0518 99.9177 27.0518C101.457 27.0518 102.727 26.7432 103.727 26.0489C104.228 25.7399 104.574 25.3163 104.844 24.8922C105.112 24.3906 105.228 23.8495 105.228 23.3096V23.2699C105.228 22.3442 104.844 21.5336 104.112 20.8782C103.497 20.3387 102.496 19.8749 101.188 19.4895C100.187 19.1408 99.4559 18.794 99.0323 18.524C98.5705 18.1761 98.3783 17.7911 98.3783 17.3666C98.3783 16.8646 98.5705 16.4796 98.9949 16.1324C99.4559 15.8231 100.071 15.63 100.879 15.63C101.996 15.63 102.919 15.8231 103.651 16.2861L103.92 16.4792L104.881 14.8985ZM92.3363 15.8242C90.9124 14.5896 89.1426 13.9338 87.1017 13.9338C85.1008 13.9338 83.4462 14.5506 82.0997 15.747C80.5979 17.0982 79.8292 18.9496 79.8292 21.3806V31.0658H81.8293V24.815C82.4455 25.509 83.2162 26.0496 84.1391 26.4362C85.0627 26.8599 86.0629 27.0526 87.1413 27.0526C89.1808 27.0526 90.9124 26.4362 92.3363 25.1228C93.7991 23.8495 94.529 22.3067 94.529 20.4924C94.529 18.6407 93.7991 17.0978 92.3363 15.8242ZM87.1017 15.6694C88.6034 15.6694 89.911 16.1332 90.9113 17.0585C91.9512 17.9845 92.49 19.1416 92.49 20.5322C92.49 21.8429 92.0275 22.9235 91.1042 23.8495C90.104 24.8142 88.7571 25.3163 87.141 25.3163C85.5233 25.3163 84.2146 24.8146 83.1762 23.8495C82.2148 22.8856 81.7534 21.8051 81.7534 20.5322C81.7534 19.2578 82.2152 18.1394 83.1762 17.2126C84.1776 16.21 85.4863 15.6694 87.1017 15.6694ZM76.6343 16.4421C75.2886 14.7437 73.3639 13.9334 70.7849 13.9334C68.8607 13.9334 67.2049 14.4737 65.7818 15.6307C64.2431 16.8271 63.4735 18.4483 63.4735 20.4546C63.4735 21.5734 63.7809 22.6925 64.4349 23.7341C65.013 24.737 65.8977 25.548 67.0909 26.1647C68.2834 26.744 69.5532 27.0136 70.9386 27.0136C72.2474 27.0136 73.4783 26.744 74.6723 26.1647C75.864 25.548 76.7495 24.737 77.3268 23.7341L77.712 23.0779H75.4804C75.0178 23.7341 74.3627 24.2747 73.5176 24.6988C72.671 25.1228 71.7474 25.3163 70.862 25.3163C69.6306 25.3163 68.5915 25.0066 67.6675 24.3894C66.7439 23.7337 66.1288 22.9235 65.7436 21.8429C67.0127 21.3413 68.2834 21.0709 69.6695 21.0709L71.7474 21.3019L74.9797 21.6112C75.9799 21.6112 76.828 21.4567 77.5964 21.2258C77.9049 21.1096 78.0967 20.9551 78.1745 20.762C78.2893 20.6079 78.2893 20.3387 78.2134 20.0286C77.9812 18.6407 77.4813 17.445 76.6343 16.4421ZM76.0966 19.6069L76.1348 19.6834L75.0182 19.8374L72.594 19.6065L69.2073 19.3354H68.63C67.5523 19.4126 66.5521 19.6065 65.5896 19.9529C65.7429 18.5248 66.4365 17.4053 67.5912 16.5958C68.5526 15.9775 69.631 15.6307 70.7849 15.6307C72.5929 15.6307 73.979 16.2096 75.0182 17.3674C75.5574 18.0625 75.9414 18.7951 76.0966 19.6069ZM54.5059 13.9334C52.5432 13.9334 50.85 14.5502 49.5032 15.7466C48.0022 17.0978 47.2708 18.9492 47.2708 21.3799L47.2327 31.065H49.311L49.2721 24.8142C49.8879 25.5086 50.6575 26.0489 51.5429 26.4354C52.5047 26.8595 53.5057 27.0514 54.583 27.0514C56.6228 27.0514 58.3544 26.4354 59.7787 25.1224C61.2408 23.8492 61.9333 22.3056 61.9333 20.4917C61.9333 18.6395 61.2408 17.0967 59.8165 15.8231C58.3544 14.5892 56.6228 13.9334 54.5059 13.9334ZM50.5808 17.2129C51.62 16.21 52.8902 15.6694 54.5059 15.6694C56.0458 15.6694 57.3157 16.1332 58.3537 17.0585C59.394 17.9845 59.8931 19.1416 59.8931 20.5322C59.8931 21.8429 59.4321 22.9235 58.5459 23.8495C57.5464 24.8142 56.2376 25.3163 54.5445 25.3163C52.9665 25.3163 51.62 24.8146 50.5804 23.8495C49.6568 22.8856 49.195 21.8051 49.195 20.5322C49.1954 19.2582 49.6568 18.1398 50.5808 17.2129Z" fill="#191B1D"/>
<path d="M32.6884 5.37779C32.5118 5.24369 32.3441 5.09808 32.1866 4.9419C28.8948 2.6138 24.9638 1.36674 20.9355 1.37258C10.1295 1.37258 1.3694 10.16 1.3694 20.9998C1.36343 25.2239 2.72176 29.3363 5.24114 32.7218C11.7887 30.7833 17.5012 27.4105 22.3968 22.5358C27.2864 17.6844 30.7222 11.9425 32.6884 5.37779Z" fill="#828282"/>
<path d="M20.9355 40.6271C31.7408 40.6271 40.5009 31.8386 40.5009 20.9994C40.5009 17.1625 39.4027 13.5847 37.5059 10.5622C37.4561 10.5123 37.4114 10.4577 37.3724 10.3989C37.7705 11.7163 37.9722 13.0854 37.9707 14.4619C37.9707 16.6891 37.4575 18.7971 36.4492 20.7708C35.4521 22.6452 34.0504 24.273 32.3464 25.5354C30.9789 26.5467 29.3376 27.404 27.4053 28.1067C25.8674 28.6711 23.8669 29.2546 21.3886 29.8193L14.2423 31.4317C11.2041 32.1299 8.43715 32.877 5.97217 33.6421C9.56095 37.9142 14.9317 40.6271 20.9355 40.6271Z" fill="#191B1D"/>
</g>
<defs>
<clipPath id="clip0_133_279">
<rect width="110" height="42" fill="white"/>
</clipPath>
</defs>
</svg>
