<svg width="43" height="69" viewBox="0 0 43 69" fill="none" xmlns="http://www.w3.org/2000/svg">
<path d="M30.8145 59.9674C29.2072 61.1504 28.317 62.7481 28.3218 64.3471C28.3295 66.7174 30.2975 69 34.857 68.9853C35.9887 68.9778 36.9868 68.8664 37.8941 68.7162C38.159 68.6743 38.4186 68.6277 38.6648 68.5783L39.1948 66.372C38.3114 66.6596 37.1948 66.8975 36.3002 66.9015C33.8718 66.9091 32.2438 65.5063 32.2402 63.6671C32.2361 62.6869 32.6499 61.8259 33.3978 61.1961C34.1988 60.5213 35.3795 60.1132 36.8562 60.1132C38.0255 60.1132 38.7093 60.428 39.1757 60.8777C39.2678 60.9635 39.3533 61.0562 39.4312 61.1551H39.8117L40.556 58.5513C39.789 58.3047 38.6522 58.0973 37.4528 58.0843C34.6603 58.048 32.3915 58.8065 30.8146 59.9674H30.8145ZM27.6166 60.3292C27.9444 60.3292 28.2164 60.4455 28.399 60.5976C28.5552 60.7268 28.6488 60.8805 28.6488 61.0132H29.0232L29.7488 58.1859H19.8951L19.7511 58.739L19.7169 58.8733C19.7169 58.8733 20.7958 58.9914 20.4652 60.0416L18.0054 68.7474L22.1891 68.7553H22.9228L23.1089 68.0078C23.1089 68.0078 22.1891 67.7917 22.4295 66.9639C22.4409 66.9121 22.7873 65.6743 22.9942 64.931C23.0866 64.6103 23.1523 64.3795 23.1523 64.3795L25.4042 64.378C25.7724 64.378 26.0547 64.4439 26.2729 64.5262C26.7239 64.6944 26.8971 64.9497 26.8971 64.9497L27.5505 62.3625H23.7542L24.1643 60.8848L24.3183 60.3336L27.6166 60.3292ZM15.6436 67.1934C15.3521 66.8892 12.8204 63.0476 12.8204 63.0476L17.2976 59.5569L17.4461 59.4407C17.6173 59.3003 17.8031 59.1788 18.0001 59.0783C18.4758 58.8401 18.7824 58.8741 18.7824 58.8741L18.9622 58.1783L13.2072 58.1866L13.064 58.7378L13.03 58.8741C13.421 58.9007 13.9669 59.2411 13.5208 59.6468C13.4624 59.6955 8.89548 63.095 8.89548 63.095L8.93113 62.9749L9.88074 59.624C10.0814 58.9547 10.8196 58.8741 10.8196 58.8741L11.0001 58.1846L5.50601 58.1862L5.36484 58.7374L5.32879 58.8737C5.59153 58.9397 6.34188 59.0815 6.08188 60.042C4.24826 66.4973 4.45788 65.8584 4.33387 66.2101C3.92336 67.7403 3.30768 67.9508 2.93738 67.99C2.85664 67.9976 2.78697 67.9976 2.73629 68.0002L2.66082 68.2895L2.54443 68.747H8.29077L8.48263 67.9892C8.48263 67.9892 7.57079 67.8134 7.74447 67.1725C7.83283 66.8505 8.06317 66.0335 8.2665 65.3124C8.46353 64.6126 8.63832 63.9994 8.63832 63.9994C9.63486 65.5558 9.86399 65.7482 11.067 67.3558C12.1738 68.8431 13.3569 68.7736 16.2131 68.7546C16.4459 68.7529 16.6868 68.751 16.9464 68.751L17.1363 68.0074C16.4122 68.0118 15.9328 67.4969 15.6436 67.1935V67.1934ZM42.1354 58.3683C41.9926 58.2321 41.8235 58.1641 41.6202 58.1641C41.4212 58.1641 41.252 58.2321 41.1088 58.3683C40.9692 58.5047 40.8979 58.6722 40.8979 58.8673C40.8979 59.0641 40.9692 59.2309 41.1088 59.3699C41.2483 59.5067 41.4211 59.5777 41.6202 59.5777C41.8234 59.5777 41.9926 59.5062 42.1354 59.3699C42.2768 59.2309 42.3478 59.0641 42.3478 58.8673C42.3499 58.6721 42.2764 58.5047 42.1354 58.3683ZM42.0643 59.3004C41.9439 59.4201 41.7938 59.4809 41.6206 59.4809C41.4479 59.4809 41.301 59.4205 41.1809 59.3004C41.0605 59.1823 40.9985 59.0377 40.9985 58.8673C40.9985 58.7007 41.0604 58.556 41.181 58.4379C41.3031 58.3181 41.4479 58.2577 41.6206 58.2577C41.7938 58.2577 41.9403 58.3181 42.0644 58.4379C42.1848 58.556 42.2449 58.7006 42.2449 58.8673C42.2449 59.0372 42.1848 59.1823 42.0644 59.3004" fill="black"/>
<path d="M41.9495 58.7002C41.9495 58.6031 41.9064 58.5375 41.827 58.5035C41.7742 58.4869 41.7065 58.4779 41.6092 58.4779H41.3306V59.2534H41.468V58.9468H41.5784C41.655 58.9468 41.7056 58.956 41.7385 58.9725C41.7856 59.0025 41.812 59.0615 41.8099 59.1511V59.2107L41.816 59.2373V59.2463C41.816 59.2463 41.816 59.2499 41.8201 59.2538H41.9495L41.9475 59.2427C41.9397 59.2372 41.9397 59.2246 41.9365 59.2032V59.0887C41.9365 59.0491 41.9215 59.0061 41.8918 58.9666C41.8654 58.927 41.816 58.9006 41.7564 58.8915C41.8051 58.884 41.8427 58.8733 41.8708 58.854C41.9211 58.8203 41.9495 58.7701 41.9495 58.7002ZM41.7281 58.8362C41.7001 58.8472 41.6562 58.8508 41.5986 58.8508H41.4692V58.5714H41.5876C41.6663 58.5699 41.7247 58.5806 41.7605 58.5999C41.7945 58.618 41.8132 58.6576 41.8132 58.7144C41.8124 58.7722 41.7839 58.8133 41.728 58.8362" fill="black"/>
<path d="M35.9036 23.7042C35.7866 25.3831 34.8475 27.014 34.6205 27.4294C34.1162 28.3519 33.9456 29.002 33.8464 29.3107C33.7481 29.6169 33.5113 29.5268 33.4564 29.4709C33.4026 29.411 33.361 29.1588 33.3273 29.118C33.2959 29.0767 33.1953 29.0814 33.0968 29.3421C32.9953 29.5994 32.7337 29.9417 32.5809 30.1281C32.4819 30.25 32.4693 30.4389 32.4676 30.5875C32.4676 30.874 32.4713 31.9781 32.2528 33.2026C31.8669 35.3838 30.9197 36.6665 30.2558 37.3149C28.6924 38.8422 27.3495 39.3921 27.1867 39.4741C26.9758 39.5802 26.6576 39.5174 26.5536 39.4698C26.4486 39.424 26.3674 39.3029 26.1856 39.1339C25.9986 38.9667 25.9341 39.2205 25.9268 39.2851C25.9192 39.3462 25.987 39.5862 26.0134 39.8153C26.0601 40.245 25.7542 40.7164 25.4503 41.0837C25.26 41.313 25.0621 41.5541 24.8975 41.8102C24.6938 42.1277 24.5431 42.4709 24.5368 42.8538C24.5247 42.9124 24.5206 42.9561 24.465 42.9686C24.0778 43.0534 23.7265 42.6033 23.4254 42.3481C23.2227 42.1724 23.0232 41.9931 22.8268 41.8102L22.8255 41.8094C22.6115 41.6085 22.4078 41.4038 22.2176 41.1877C22.2046 41.1734 22.1924 41.1589 22.18 41.1444C22.1054 41.0578 22.0329 40.9693 21.9626 40.8791C21.9416 40.8518 21.9205 40.8247 21.9004 40.7975C21.8185 40.6894 21.7409 40.5781 21.6679 40.4638C20.9487 39.3378 21.1269 38.6448 21.5566 37.3651C21.8572 36.4568 21.6642 35.5431 21.6141 35.4102C21.5634 35.278 21.6562 35.1606 21.847 35.2798C22.0368 35.3986 22.1929 35.7108 22.3639 35.9826C22.5393 36.2546 22.6084 36.0871 22.6487 35.9222C22.7461 35.5239 22.6873 35.1855 22.6654 35.0039C22.6501 34.8959 22.5819 34.6437 22.3714 34.5733C22.0906 34.4785 21.8084 34.4161 21.6706 34.2875C21.6029 34.2272 21.5374 34.1139 21.6276 34.0514C21.7954 33.9326 22.034 33.7762 22.2467 33.7364C22.5347 33.6786 22.8201 33.5721 23.1728 33.6225C25.5311 33.9411 26.2418 33.4931 27.1957 33.2481C27.3832 33.2004 27.4933 33.1797 27.6399 33.2455C27.7857 33.3099 28.1773 33.5151 28.2574 33.7067C28.3381 33.8974 28.2537 34.6437 28.3793 35.2064C28.5067 35.7706 28.9227 35.2573 29.0257 35.0348C29.1299 34.8132 29.2372 34.2664 29.2587 34.1278C29.2816 33.9902 29.4027 33.4094 29.6213 33.2365C30.0533 32.894 30.2053 32.4438 30.2749 32.2684C30.3463 32.0923 30.4594 31.5492 30.4392 30.7556C30.418 29.9642 30.2687 29.8783 30.0681 29.7081C29.8706 29.5382 29.6325 29.5713 29.1272 29.1295C28.6764 28.7349 28.3053 28.0977 27.9795 27.6964C27.652 27.296 27.1105 26.8664 26.4921 26.7215C25.8758 26.5792 26.1664 27.1672 26.2002 27.3202C26.2251 27.4275 26.2825 27.7516 26.0772 27.9095C25.8758 28.0679 24.7069 28.839 23.7315 28.6891C22.1732 28.4508 21.6222 27.3703 21.5436 26.9652C21.458 26.5328 21.9475 25.5958 22.0331 24.8914C22.0687 24.5815 22.0856 23.9841 22.0932 23.5675C22.1018 23.1505 22.402 22.6246 22.5254 22.5069C22.6466 22.3875 22.9449 22.3115 23.3034 22.2818C23.6623 22.2508 24.0464 22.4703 24.1114 22.7633C24.342 23.7803 24.718 24.0375 24.8446 24.1199C24.9733 24.2024 25.2143 24.0375 25.308 23.9781C25.4028 23.9191 25.6442 23.6868 25.5679 23.562C25.4526 23.3684 25.3893 23.2521 25.3642 23.1386C25.3202 22.9458 25.5693 22.9753 25.6253 23.0079C26.3292 23.4103 26.6783 23.5183 27.4016 23.5917C28.1235 23.6619 29.3068 23.3476 29.4476 23.3624C29.5603 23.3747 29.7725 23.4702 29.842 23.5934C29.8989 23.7 30.004 23.9424 30.109 23.9853C30.214 24.024 30.4693 24.0394 30.602 24.0613C30.7846 24.091 31.1112 24.0716 31.0561 24.3933C30.9157 25.2558 30.1353 25.7034 30.0636 25.7479C30.0515 25.7564 30.0474 25.7686 30.0376 25.7776C30.0426 25.7729 30.044 25.7662 30.0497 25.7606C29.92 25.8311 29.7617 25.8884 29.5418 25.9258C29.3798 25.9534 29.2789 25.9891 29.2272 26.0328C29.1226 26.1233 29.3112 26.3054 29.4803 26.4366C29.5989 26.5312 30 26.4493 30.3104 26.3542H30.3099C30.3216 26.3496 30.3314 26.3517 30.3426 26.3475C30.9902 26.0756 31.2917 25.6982 31.6214 25.2175C31.9517 24.7389 32.3228 23.0638 32.3752 22.7868C32.4268 22.5111 32.5427 22.3507 32.7023 22.2559C32.8593 22.1612 33.6162 21.8182 33.7204 21.8092C33.8213 21.7996 33.9366 21.8046 34.0162 22.0709C34.0946 22.3396 34.1274 23.9344 34.1444 24.1802C34.1619 24.4423 34.3023 24.4296 34.378 24.389C34.5434 24.3022 34.668 24.1871 34.834 23.9824C34.9986 23.777 34.9412 23.4597 34.8283 23.2992C34.7168 23.14 34.5378 22.8831 34.6585 22.6683C34.9328 22.1779 35.3535 22.2606 35.4667 22.2929C35.5765 22.3251 35.9821 22.5697 35.9036 23.7043V23.7042ZM26.0413 32.5624C25.7595 32.6607 24.9455 32.8413 24.552 32.8637C24.1541 32.8855 22.8938 32.9666 22.6828 32.9572C22.4226 32.9429 22.0722 32.8227 21.7868 32.5729C21.7294 32.5229 21.667 32.3495 21.8995 32.3453C22.332 32.3381 23.062 32.1181 25.5746 32.3212C25.8433 32.342 25.9704 32.3538 26.034 32.3598C26.0996 32.3653 26.3225 32.4667 26.0413 32.5623V32.5624ZM20.1554 31.2809C19.022 31.5063 18.7704 31.0991 18.6873 30.9763C18.6075 30.857 18.7417 30.7645 18.8623 30.7276C19.136 30.6448 19.5152 30.4376 19.7117 30.2942C19.9095 30.154 20.3254 29.6275 20.6005 29.4581C20.7302 29.3773 21.3871 29.2529 21.829 29.5316C22.3567 29.8632 23.2262 30.0032 23.7727 30.0045C24.3179 30.0045 24.5753 29.65 24.7225 29.4411C24.8715 29.2318 25.1686 29.1846 25.326 29.1438C25.7595 29.0356 26.3808 28.5579 26.445 28.5086C26.511 28.4593 26.6914 28.4008 26.9377 28.5883C27.3891 28.934 27.5932 29.3345 27.9809 29.8993C28.368 30.4581 28.8957 30.6083 29.0546 30.6376C29.2115 30.6682 29.2843 30.8589 29.2856 30.9098C29.2869 30.9593 29.1313 31.1115 29.0236 31.1693C28.9145 31.23 28.8431 31.3488 27.9643 31.2575C23.5595 30.7931 21.5171 31.0058 20.1554 31.2809ZM19.5174 37.1782C18.629 37.2033 16.3987 36.2458 15.3887 32.4473C15.127 31.4701 15.6817 30.599 16.0823 30.4631C16.3193 30.3807 16.4435 30.3544 16.5229 30.3446C16.605 30.3348 17.0097 30.3378 16.9949 30.7739C16.9815 31.1267 17.2854 34.0718 18.0901 35.138C18.2902 35.4029 18.4742 35.4123 18.5662 35.1792C18.6505 34.9631 18.791 34.6828 18.8363 34.5766C18.8691 34.5002 19.1275 34.2866 19.2141 34.6116C19.398 35.3018 19.6139 36.2037 19.7865 36.5745C19.9526 36.9374 19.8508 37.1689 19.5174 37.1782ZM14.6627 26.2494C14.7601 26.3155 15.0422 26.5312 15.3645 26.6405C15.56 26.7062 15.6938 26.6288 15.7583 26.4943C15.8253 26.361 16.0033 26.1003 15.7324 25.9531C15.4622 25.8043 14.682 25.4499 14.2208 24.2698C14.1544 24.1025 14.2585 23.9815 14.3231 23.9434C14.3881 23.9039 14.6196 23.8015 14.7304 23.753C14.8426 23.705 14.9803 23.7292 15.1101 23.8465C15.2379 23.9612 15.513 24.2142 15.7597 24.224C15.9864 24.2337 16.0235 24.1459 16.0693 24.0953C16.2601 23.8906 16.8065 23.128 17.9403 23.2606C18.4073 23.3148 18.839 23.4138 18.9956 23.4251C19.1544 23.4355 19.7117 23.4589 20.0661 23.2851C20.4165 23.1153 20.5318 23.286 20.3156 23.497C20.0984 23.7051 19.9454 23.8121 20.1218 24.0529C20.2537 24.2316 20.3156 24.3021 20.3623 24.3506L20.3519 24.4338C20.3519 24.4368 20.3462 24.4804 20.3321 24.5518C20.2671 24.8816 20.0244 25.2209 19.8132 25.4112C19.5295 25.6654 19.0356 25.8112 18.8493 25.8667C18.612 25.939 18.2293 25.969 18.1763 25.9712C18.1556 25.9737 18.0853 25.9737 18.0422 25.9737L17.9615 25.9772C17.9394 25.9792 17.9094 25.9827 17.869 25.9843L17.8345 25.9857L17.7698 25.9843C17.7442 25.9843 17.7147 25.9857 17.6837 25.9928C17.5523 26.0239 17.4745 26.1262 17.4809 26.2637C17.4862 26.3295 17.518 26.3984 17.5523 26.4641C17.5863 26.5588 17.7559 26.7563 18.0623 26.7563C18.0816 26.7563 18.1009 26.7555 18.1224 26.7529C18.4819 26.721 18.7115 26.6829 18.9341 26.6442C19.0517 26.6237 19.206 26.5877 19.3379 26.5511C19.2747 26.62 19.2123 26.6914 19.1594 26.7727C18.861 27.2225 18.8669 27.3859 18.8183 27.5566C18.7695 27.7292 18.6218 27.7801 18.4568 27.8302C18.2898 27.8798 17.6693 28.138 17.1721 28.5294C16.6773 28.9219 16.1016 28.9184 15.657 28.4372C15.2119 27.9571 14.6533 27.2518 14.4599 26.4522C14.3971 26.1966 14.5631 26.181 14.6627 26.2494ZM14.0605 21.9966C14.1154 21.8232 14.3787 21.3795 14.8211 21.3015C14.8785 21.2903 15.0979 21.2514 15.2814 21.2304C15.4959 21.2093 15.7238 21.191 15.84 21.1865C16.1532 21.1737 16.1874 21.4088 15.9751 21.5298C15.8342 21.6109 15.6166 21.7111 15.4178 21.8283C15.119 22.0053 14.826 22.211 14.6031 22.3455C14.3312 22.5132 13.9489 22.3528 14.0605 21.9966ZM18.9378 22.1396C18.66 22.0936 18.3644 22.0223 17.829 22.1396C17.2305 22.2704 16.8235 22.4894 16.5346 22.6126C16.2389 22.743 15.9396 22.7743 15.8409 22.77C15.7455 22.7638 15.399 22.675 15.6754 22.4605C15.7515 22.4025 15.9105 22.3714 16.1676 22.2373C16.3502 22.1396 16.4857 22.0699 16.6961 21.9396C17.0776 21.7026 17.8231 21.3893 18.1296 21.3918C18.3518 21.3949 18.7384 21.4861 18.9449 21.7005C19.1598 21.9239 19.2186 22.185 18.9378 22.1396ZM20.9886 27.7761C21.0582 27.8989 21.0811 28.1052 21.0609 28.1897C21.0406 28.2941 20.6566 28.4306 20.3376 27.9754C20.0191 27.5222 20.1684 26.966 20.3578 26.747C20.6589 26.3964 21.1178 26.6514 21.0515 26.7809C20.8218 27.2311 20.9241 27.6548 20.9886 27.7761ZM30.3558 23.1153C30.2354 23.1731 29.8896 23.0628 29.7647 22.996C29.5146 22.8623 29.3364 22.7675 28.9994 22.4928C28.7759 22.3133 28.3645 22.1859 27.9835 22.2458C27.7326 22.284 27.5313 22.32 27.3041 22.3702C27.0812 22.422 27.0637 22.228 27.131 22.1545C27.1974 22.0822 27.5895 21.7408 28.0593 21.6369C28.1598 21.6144 28.3515 21.6204 28.4488 21.63C28.7342 21.6607 29.0761 21.842 29.3216 22.0699C29.5674 22.2993 29.9577 22.6683 30.2261 22.824C30.3544 22.8979 30.6388 22.9764 30.3558 23.1153ZM30.1578 21.8988C30.0031 21.7604 29.7302 21.5392 29.5565 21.4509C29.4387 21.3918 29.505 21.2471 29.6845 21.2463C30.3188 21.2394 30.7146 21.2899 30.9978 21.5162C31.2038 21.6811 31.3191 21.9626 31.2181 22.185C31.101 22.4398 30.9978 22.3672 30.8651 22.3489C30.7317 22.3303 30.3104 22.0368 30.1578 21.8988ZM32.854 21.3357C32.8463 21.4033 32.8203 21.5693 32.813 21.6332C32.8078 21.6973 32.7181 21.7524 32.6349 21.7545C32.5528 21.7548 31.995 21.7328 31.9072 21.7277C31.822 21.7222 31.7435 21.6666 31.7461 21.5854C31.7502 21.5083 31.7565 21.3209 31.7578 21.2739C31.7565 21.2262 31.7651 21.1626 31.8791 21.1652C31.9418 21.1652 32.5246 21.1885 32.7377 21.1923C32.8198 21.1923 32.8626 21.2678 32.854 21.3357ZM13.9094 19.7062C13.9009 19.5185 13.8892 19.2022 13.9317 19.0103C13.951 18.9337 13.9995 18.7449 14.1095 18.6532C14.2665 18.522 14.4639 18.4107 14.5923 18.3335C14.8287 18.1941 14.844 17.7534 14.8933 17.505C15.0396 16.7878 15.2894 14.4899 17.1259 12.4977C18.0633 11.482 18.9969 11.5165 19.9733 11.4832C20.9074 11.4506 21.9528 11.7301 22.4764 11.9708C22.8938 12.1613 23.1 12.2892 23.2639 12.1771C23.4276 12.0616 23.866 11.6935 24.0469 11.5674C24.2281 11.4383 24.1599 11.2378 23.9885 11.1067C23.8239 10.983 22.2189 9.48551 19.8238 9.11865C17.4835 8.75782 15.4694 9.31532 14.94 9.41845C14.8323 9.43839 14.7771 9.4481 14.7174 9.44135C14.6587 9.43542 14.4613 9.33944 14.5604 9.20789C14.6605 9.06427 14.9037 8.85493 15.1459 8.69292C15.3998 8.52457 16.65 7.65685 17.8111 7.32904C18.0265 7.26955 18.0816 7.2399 18.2189 7.20924C18.393 7.16733 18.5406 6.81979 18.1781 6.7694C17.798 6.71849 17.6433 6.74129 17.4404 6.74732C17.2377 6.75161 17.1398 6.65093 17.2871 6.50302C17.4364 6.3545 17.7056 6.20291 18.179 6.02669C19.2128 5.64542 21.0451 5.33846 21.8995 5.26793C23.0144 5.17911 23.149 5.18258 23.8746 5.234C24.5543 5.28143 25.0869 5.39918 25.3394 5.44027C27.4837 5.79967 29.8692 6.81049 31.6206 8.28436C33.2708 9.82354 35.5978 12.3308 35.3804 17.7534C35.354 18.4022 35.2599 18.7614 35.214 18.9177C35.1664 19.0768 34.9395 19.3483 34.8192 18.989C34.4272 17.8141 33.7853 16.2584 33.0217 14.7608C32.8962 14.5146 32.7216 14.5889 32.7458 14.8293C32.7548 14.9295 32.857 16.4206 32.8419 16.6239C32.827 16.8277 32.6565 17.3098 33.3053 18.3229C33.5727 18.7394 33.8101 19.0951 33.8756 19.6659C33.9442 20.2374 33.9591 20.4798 33.9538 20.5354C33.947 20.594 33.9932 20.7676 33.7182 20.7337C33.4445 20.6992 32.4133 20.4917 31.967 20.4423C31.5174 20.3961 28.3946 20.29 27.2159 20.3779C26.0357 20.4641 25.3786 20.665 24.71 21.1872C24.5479 21.3133 24.3295 21.4208 24.2855 21.4274C24.2388 21.4339 24.0895 21.4126 23.8005 21.3553C23.5124 21.2988 22.9979 21.3028 22.716 21.3847C22.4347 21.4653 22.2288 21.5477 21.9251 21.3796C21.4924 21.1383 20.8155 20.2157 18.7583 20.0492C16.8402 19.8925 16.3726 19.8602 14.232 19.9877C14.0381 20 13.9191 19.9018 13.9094 19.7062ZM13.3615 14.8823C13.1973 15.0117 12.8635 15.2831 12.6997 15.7149C12.5341 16.151 11.8974 17.6716 11.8145 20.0866C11.8055 20.3668 11.8719 20.7506 11.5852 20.8522C11.4093 20.9112 11.2564 20.9651 11.1159 21.002C10.9732 21.042 10.8502 21.0415 10.7811 20.8518C10.6147 20.3906 10.5523 19.5988 10.5532 19.0943C10.5555 18.5861 10.6587 17.0834 10.8041 16.2727C10.9504 15.4652 10.8502 14.9902 10.604 14.5605C10.3541 14.1333 10.1988 13.8386 10.1444 13.6989C10.0741 13.5222 10.1508 13.4182 10.3464 13.3172C10.4411 13.2695 10.6124 13.3273 10.752 13.3172C11.0289 13.2997 11.9733 13.1014 12.7123 12.6777C13.4512 12.2557 14.6547 11.4085 15.4281 11.1246C16.2039 10.8383 16.5463 10.7066 17.405 10.7177C17.5553 10.7198 17.7693 10.8277 17.4903 10.9815C17.2112 11.1363 16.3622 11.3092 15.2227 12.5699C14.524 13.341 14.3621 13.8177 14.1261 14.1727C13.8879 14.5294 13.6967 14.6139 13.3615 14.8823ZM13.423 21.6229C13.3813 21.6249 12.9747 21.6172 12.7545 21.6317C12.6154 21.6369 12.4704 21.6674 12.4736 21.5404C12.475 21.3948 12.4565 21.2029 12.4507 21.1486C12.4467 21.0958 12.4812 21.0488 12.5449 21.0428C12.7115 21.0288 13.3422 21.006 13.4006 21.0118C13.4616 21.0181 13.5182 21.0457 13.5271 21.1694C13.5352 21.2903 13.5464 21.4221 13.5464 21.4746C13.5459 21.5282 13.5486 21.6207 13.423 21.6229ZM11.8337 24.3633C11.7027 24.2473 11.2226 23.4061 11.0562 22.5149C11.0387 22.422 11.032 22.1888 11.1971 22.1421C11.3321 22.1082 11.5125 22.0348 11.6044 22.0053C11.6996 21.9774 11.9263 21.9473 11.915 22.258C11.9024 22.5698 11.8814 22.9357 12.1178 23.8933C12.1613 24.0635 12.1676 24.117 12.1761 24.1841C12.1976 24.3777 11.9527 24.4715 11.8338 24.3633H11.8337ZM36.7162 20.625C36.7162 20.625 38.7307 13.5531 32.8962 7.97443C32.8922 7.97188 32.701 7.80925 32.5842 7.71102C32.3411 7.50822 32.0301 7.25554 31.6722 7.00716C30.9157 6.48309 30.3121 6.08107 29.0681 5.50569C28.7535 5.36228 27.3738 4.75368 26.1013 4.47391C25.6478 4.37425 24.7643 4.16961 23.9382 4.09724C23.8974 4.09438 23.8508 4.09091 23.8005 4.08753C23.7927 4.0876 23.7849 4.08705 23.7772 4.0859C23.735 4.08375 23.687 4.0816 23.6399 4.07905C23.6119 4.07743 23.5839 4.0764 23.556 4.07598C23.5103 4.07343 23.4613 4.07189 23.4115 4.06975C23.3752 4.06842 23.3366 4.06842 23.298 4.0676C23.1152 4.06025 22.9322 4.05855 22.7492 4.06249C22.6694 4.06249 22.5882 4.06331 22.5047 4.06464C22.4464 4.06545 22.3889 4.06668 22.3284 4.0676C22.2705 4.06842 22.2095 4.07097 22.1502 4.07312C22.0842 4.07516 22.0197 4.0766 21.9511 4.07905C21.7456 4.08753 21.4745 4.11605 21.1896 4.15346C20.7302 4.21418 20.2371 4.29861 19.9329 4.36403C19.5933 4.43998 19.1347 4.52778 18.5617 4.67906C18.3249 4.74276 18.0891 4.80985 17.8542 4.88033C17.7878 4.89944 17.7214 4.91856 17.6559 4.93808C17.3986 5.01568 17.1424 5.09664 16.8872 5.18095C16.6997 5.24166 15.9029 5.56007 15.7296 5.63346C15.6466 5.66924 15.5319 5.71421 15.4084 5.76052C14.6061 5.9948 14.708 6.50742 14.708 6.50742C13.7671 8.72471 10.8323 8.58079 10.8323 8.58079C10.7587 9.51607 12.9123 10.415 12.9123 10.415C12.5157 11.1819 11.2783 11.7452 9.86769 11.8527C8.41168 11.964 8.28198 13.1375 8.28198 13.1375C8.97434 14.1923 9.85469 14.4653 9.0627 19.7388C8.2699 25.0125 12.8756 28.8959 12.8756 28.8959C12.5288 31.2448 14.1135 33.834 14.1135 33.834C13.6182 35.7506 15.4681 38.5433 15.4681 38.5433C15.6 38.725 16.819 40.1249 18.9736 41.4148C19.3083 41.6166 19.5457 41.7418 19.6709 41.825C19.6781 41.8297 19.6848 41.8348 19.692 41.8395C19.7046 41.8483 19.7158 41.8569 19.7255 41.8645C19.7368 41.874 19.7444 41.8814 19.7516 41.8896C19.7547 41.8926 19.7601 41.8962 19.7624 41.8994C19.8198 41.9758 19.901 42.1299 19.6898 42.1511C19.4753 42.1699 18.8637 42.1128 18.1898 42.2756C17.5164 42.4381 17.6078 42.6742 17.5944 43.0518C17.5805 43.3922 17.6078 43.6381 17.5885 44.0941C17.5692 44.5493 17.4862 44.9539 17.6882 45.1748C17.8874 45.3918 18.1812 45.5428 19.028 45.4937C19.8329 45.4482 20.1021 45.4188 20.194 45.4278C20.2846 45.4347 22.0668 45.339 22.3266 45.255C22.5684 45.1748 22.6547 45.3483 22.4935 45.6686C22.1444 46.3612 20.6589 49.0939 17.7016 51.666C17.2059 52.0504 19.7498 52.7012 19.9509 52.6269C20.1532 52.5535 21.5778 51.1315 22.4307 49.8211C22.4764 49.769 22.8857 49.1818 23.2128 48.3677C23.2652 48.2366 23.3672 48.1521 23.3989 48.3568C23.4213 48.5045 23.7233 52.3548 23.5241 53.7636C23.4232 54.4773 24.062 54.3645 25.7486 54.7598C26.1654 54.8566 25.9232 48.237 24.9285 45.5116C24.9281 45.5111 24.9285 45.5102 24.9285 45.5102C24.9203 45.4894 24.916 45.4672 24.9159 45.4448C24.9159 45.3518 24.9841 45.2745 25.0738 45.2571C25.0738 45.2571 25.1161 45.2481 25.1402 45.2449C25.7125 45.1649 27.0341 45.2155 27.2594 45.2248C27.4811 45.2312 28.0747 45.3345 28.3946 45.3624C28.7104 45.3921 29.4269 45.4652 29.4109 44.5464C29.4072 44.3009 29.4068 44.0538 29.4076 43.8254C29.4081 43.794 29.4086 43.7625 29.4086 43.732C29.4088 43.6753 29.4096 43.6187 29.4109 43.5621L29.4121 43.4656C29.4126 43.4346 29.4131 43.4032 29.414 43.3731C29.4143 43.3452 29.4153 43.3167 29.4157 43.2904C29.4171 43.2408 29.418 43.1928 29.4202 43.149C29.4202 43.135 29.4207 43.1226 29.4215 43.1096C29.4224 43.0768 29.4233 43.0457 29.4252 43.0179C29.4255 43.0034 29.4266 42.9893 29.4269 42.9758C29.4283 42.9502 29.43 42.929 29.4314 42.9099C29.4319 42.9036 29.4323 42.8951 29.4323 42.8895C29.4345 42.8623 29.4373 42.8322 29.4381 42.7995C29.4462 42.5755 29.4027 42.2488 28.9572 42.1383C28.4453 42.0153 27.5635 42.0203 26.7489 42.1826C26.6375 42.2046 26.5671 42.1897 26.5464 42.1533C26.5271 42.1175 26.5567 42.0619 26.6447 42.0039C26.8192 41.8853 28.3012 41.203 29.6409 40.0617C31.1149 38.8044 31.8194 37.8321 32.2716 36.9218C32.2716 36.9218 33.745 33.9647 33.4111 30.7298L33.6705 30.4053C33.6705 30.4053 34.6739 30.7658 35.2678 29.2912C35.8625 27.8174 39.6506 21.5252 36.7162 20.625Z" fill="black"/>
<path d="M28.5478 45.6083V45.6722H28.3572V46.1435H28.28V45.6722H28.0894V45.6084L28.5478 45.6083ZM28.6163 45.6083H28.726L28.8885 46.0608L29.05 45.6084H29.1589V46.1435H29.0858V45.8276C29.0858 45.8168 29.0862 45.7987 29.0867 45.7735C29.087 45.748 29.0874 45.7209 29.0874 45.6921L28.9259 46.1435H28.8501L28.6871 45.6921V45.7084C28.6871 45.7216 28.6874 45.7417 28.6883 45.7685C28.689 45.7952 28.6893 45.815 28.6893 45.8277V46.1435H28.6162L28.6163 45.6083Z" fill="black"/>
</svg>
