<svg width="56" height="48" viewBox="0 0 56 48" fill="none" xmlns="http://www.w3.org/2000/svg">
<g clip-path="url(#clip0_105_533)">
<path fill-rule="evenodd" clip-rule="evenodd" d="M55.9733 46.5863C55.7267 34.5744 53.7952 23.0133 50.5322 14.0338C47.2436 4.9879 43.1387 0.00537109 38.9768 0.00537109C36.3906 0.00537109 33.9614 1.89027 31.7531 5.61115C30.3856 7.91894 29.1111 10.949 28.0029 14.5149C26.8912 10.949 25.619 7.91894 24.2492 5.61115C22.0432 1.89027 19.6129 0.00537109 17.0266 0.00537109C12.8613 0.00537109 8.75869 4.9879 5.47127 14.0338C2.20944 23.0133 0.276761 34.5744 0.0302344 46.5851L0 47.9947H8.3575L8.37378 46.634C8.69822 21.5385 14.6649 5.62164 17.0953 5.62164C18.7326 5.62164 22.9165 16.6433 23.5515 43.9313L23.584 45.2757H32.4195L32.4509 43.9313C33.0846 16.6433 37.2698 5.62047 38.9071 5.62047C41.3386 5.62047 47.3029 21.5373 47.6285 46.6329L47.646 47.9947H56L55.9733 46.5863Z" fill="#191B1D"/>
<path fill-rule="evenodd" clip-rule="evenodd" d="M55.3407 46.6015C55.0965 34.6572 53.1754 23.1742 49.9368 14.2622C46.7971 5.61238 42.8015 0.651978 38.9769 0.651978C34.7905 0.651978 30.8484 6.47911 28.0029 16.7506C25.1562 6.48027 21.2129 0.653142 17.0243 0.653142C13.202 0.653142 9.20522 5.61354 6.06316 14.261C2.82575 23.173 0.907024 34.6572 0.662822 46.6015L0.647705 47.3459H7.73303L7.74117 46.626C8.07026 21.1937 14.0683 4.97281 17.0952 4.97281C19.6884 4.97281 23.5945 18.505 24.1852 43.9139L24.2038 44.6281H31.8008L31.8171 43.9139C32.4078 18.5062 36.3162 4.97281 38.9071 4.97281C41.9352 4.97281 47.9332 21.1937 48.2612 46.626L48.2705 47.3459H55.3558L55.3407 46.6015Z" fill="#191B1D"/>
<path fill-rule="evenodd" clip-rule="evenodd" d="M16.9475 2.81763V4.25286C12.8158 4.68622 7.33057 23.1986 7.02939 46.6166L4.21875 43.7345V43.6623C5.11183 20.7009 11.3587 3.00169 16.9475 2.81879V2.81763Z" fill="#191B1D"/>
<path fill-rule="evenodd" clip-rule="evenodd" d="M16.8035 1.39404H17.2837C21.427 1.67363 25.3703 8.70766 27.996 19.5744V40.574C26.9727 18.8836 22.4189 2.81413 17.0349 2.81413C15.9244 2.81413 14.7859 3.51311 13.6672 4.81087V2.78617C14.7138 1.93225 15.7674 1.45462 16.8035 1.39404ZM40.8573 3.45719V5.46907C40.1898 4.66875 39.5316 4.24237 38.9072 4.24237C34.9186 4.24237 31.6242 21.5071 31.1044 43.8988L28.0053 40.7196V40.6695C29.017 18.9313 33.5766 2.81413 38.9688 2.81413C39.5921 2.81413 40.2247 3.03547 40.8573 3.45719Z" fill="#191B1D"/>
<path fill-rule="evenodd" clip-rule="evenodd" d="M54.6184 46.2776V46.6072L51.8008 43.7205L51.7892 43.7321C50.9682 22.4192 45.5341 5.62279 40.2908 3.13327V1.60718C47.0051 3.83808 54.073 22.6941 54.6172 46.2776H54.6184Z" fill="#191B1D"/>
</g>
<defs>
<clipPath id="clip0_105_533">
<rect width="56" height="48" fill="white"/>
</clipPath>
</defs>
</svg>
