<svg width="108" height="51" viewBox="0 0 108 51" fill="none" xmlns="http://www.w3.org/2000/svg">
<path fill-rule="evenodd" clip-rule="evenodd" d="M46.0269 18.3432C44.5673 19.0685 43.1078 19.7576 41.6476 20.4646L40.443 18.0353L44.8223 15.8961C45.2455 16.7011 45.6472 17.5171 46.0269 18.3432ZM19.2028 23.5468V23.5646L23.6555 16.6398H34.6221V19.3045H32.5602L32.5417 31.4869L34.6221 31.5053V34.2062H21.0092V31.5053H23.1809L23.1994 23.3837L23.1809 23.3653L15.9184 34.7139H15.9005L7.36046 23.6375L7.32404 23.6191L7.30555 31.4869L9.6599 31.5053V34.2062H1.66675V31.5053H4.0211L4.03959 19.3229L1.66675 19.3045V16.6398H13.8201L19.2028 23.5468ZM83.2881 31.4869L85.5512 31.5053V34.2062H71.7562V31.5053H74.0366L74.0551 19.3229L71.7562 19.3045V16.6398H83.2881V31.4869ZM70.1134 24.0906C71.0446 25.3598 71.2261 27.0459 71.0446 28.7137H59.6034C59.4207 30.0368 60.0225 31.2698 61.1728 31.9406C62.0295 32.4666 63.3798 32.3397 64.1832 31.7419C64.7576 31.2803 65.1618 30.6424 65.3324 29.9283H70.6608C69.7856 31.9406 67.7237 33.6985 65.6434 34.2251C62.1034 35.2221 57.6143 35.059 54.4397 33.4269C52.031 32.2668 50.5888 29.8008 50.8264 27.1188C50.8628 24.689 52.9068 22.5314 55.0964 21.7338C58.8913 20.2653 64.2023 20.1384 67.8145 22.0967C68.6538 22.5676 69.5301 23.2384 70.1134 24.0906ZM104.948 23.456C106.298 24.8521 106.682 26.7553 106.408 28.7137H94.9848C94.8022 30.0006 95.3316 31.1607 96.4259 31.8677C97.2837 32.4126 98.6155 32.4126 99.4549 31.7959C100.073 31.346 100.508 30.6893 100.677 29.9467L106.043 29.9283C105.149 31.905 103.123 33.6629 101.061 34.2067C97.4837 35.2221 92.8854 35.0952 89.6749 33.3729C87.1928 32.1042 85.8425 29.5119 86.2258 26.7203C86.4084 24.3088 88.7252 22.2242 90.9333 21.5534C95.0756 20.1935 100.714 20.1211 104.272 22.8042L104.948 23.456ZM47.9975 31.4869L50.3333 31.5053V34.2062H36.4285V31.5053H38.6002L38.6187 23.7283L36.4285 23.7099V21.009H47.9975V31.4869Z" fill="black"/>
<path fill-rule="evenodd" clip-rule="evenodd" d="M97.741 23.3292C98.2693 23.9671 98.0508 24.6017 98.0508 26.1759H94.9669L94.9854 23.9454C95.0588 23.5101 95.423 23.0753 95.8606 22.9122C96.4999 22.6768 97.2843 22.8037 97.741 23.3292ZM62.3769 23.3292C62.9064 23.9671 62.6879 24.6017 62.6879 26.1759H59.604L59.6214 23.9454C59.6948 23.5101 60.059 23.0753 60.4977 22.9122C61.1358 22.6768 61.9203 22.8037 62.3769 23.3292Z" fill="white"/>
</svg>
