<svg width="113" height="67" viewBox="0 0 113 67" fill="none" xmlns="http://www.w3.org/2000/svg">
<path fill-rule="evenodd" clip-rule="evenodd" d="M56.6594 54.3955C86.9343 54.3955 111.48 45.1309 111.48 33.675C111.48 22.2191 86.9343 12.9193 56.6594 12.9193C26.3494 12.9193 1.80322 22.2191 1.80322 33.675C1.80322 45.1315 26.3494 54.3955 56.6594 54.3955Z" fill="#191B1D"/>
<path fill-rule="evenodd" clip-rule="evenodd" d="M56.6595 52.274C27.587 52.274 3.96118 43.9998 3.96118 33.675C3.96118 23.386 27.587 15.0057 56.6595 15.0057C85.8029 15.0057 109.393 23.386 109.393 33.675C109.393 43.9998 85.8029 52.274 56.6595 52.274Z" fill="white"/>
<path fill-rule="evenodd" clip-rule="evenodd" d="M56.6594 50.8246C84.8478 50.8246 107.73 43.1518 107.73 33.675C107.73 24.2346 84.8478 16.5618 56.6594 16.5618C28.4357 16.5618 5.62305 24.2346 5.62305 33.675C5.62363 43.1518 28.4357 50.8246 56.6594 50.8246Z" fill="#191B1D"/>
<path fill-rule="evenodd" clip-rule="evenodd" d="M70.0298 37.1047C72.4345 34.8419 73.7776 32.473 77.2446 32.5081C79.331 32.5433 79.8609 34.2054 80.2144 34.9128L84.7771 27.2048H87.5711L80.0028 40.6059C79.8609 40.8884 79.5068 41.4188 79.5426 41.8431C79.6147 42.5147 80.463 42.3383 80.1447 42.3383C81.6654 42.2674 84.4588 39.3681 85.1312 38.6613C85.2719 38.4837 85.5204 38.1661 85.6611 38.1661C85.803 38.1661 86.0861 38.3073 86.0861 38.5195C86.0861 38.6613 85.7678 39.1911 85.5204 39.5093C84.1053 41.2775 81.7715 43.9998 79.1188 44.0707C77.8103 44.0707 77.3143 43.5403 77.1379 42.5153C76.537 43.0451 74.4852 43.9646 72.3988 43.9646C70.6653 43.9295 69.9577 42.9039 69.6048 42.091C69.2864 41.4193 69.1446 40.4295 69.392 39.4396C68.437 39.9348 67.5529 40.0052 66.2796 39.97C64.7935 39.9342 63.8737 39.2626 63.4147 37.5296C61.717 40.6416 61.6455 40.7471 59.9131 44.0004H56.9069L60.762 37.4593C61.258 36.5749 61.5054 35.8681 61.6812 35.1261C61.7879 34.7012 61.4696 34.3121 61.0094 34.2775C60.5146 34.2775 59.7021 34.7727 58.923 35.5147C58.923 35.5147 56.9427 37.6363 55.4924 39.793C54.1124 41.8442 51.7434 44.1774 49.1616 44.1774C47.2868 44.1774 45.5891 43.1524 45.2356 41.172C45.2356 41.172 45.0586 41.6315 43.396 42.5862C43.2547 42.6565 42.9012 42.8687 42.7957 42.7984C42.4768 42.5159 42.3003 42.1619 42.2646 41.914C42.3707 41.9497 42.5829 41.7727 43.2547 41.2424C44.5632 40.2525 44.8464 39.4736 44.8464 39.4736C45.1641 38.802 45.731 37.7412 46.1197 36.9986C47.1813 34.877 49.0198 32.7203 52.026 32.6142C52.5213 32.6142 52.6626 32.8264 52.7687 33.0034C53.0513 33.2155 52.9458 33.6399 52.9458 33.6399C50.8236 33.9581 49.3738 35.1953 48.4892 36.3979C47.9593 37.1756 47.393 38.4486 47.2868 39.3675C47.0746 40.9587 47.8174 42.0189 48.9136 42.2668C50.9649 42.585 52.6626 41.0999 54.0068 38.802C54.3609 38.2006 54.6083 36.6446 54.6083 35.796C54.6083 34.9474 54.1481 34.0636 53.7946 33.7096C53.7946 33.1089 54.1833 32.7197 54.6429 32.7197C54.7842 32.7197 54.9261 32.7197 55.0673 32.861C55.7749 33.5683 56.1642 34.9122 56.1642 35.9372C56.1642 36.2912 56.1642 36.6446 56.0933 36.9986C57.5788 35.1953 59.453 32.8615 60.9039 32.4021C61.1864 32.2608 61.4696 32.2608 61.7522 32.2608C64.4049 32.1899 64.0514 34.5946 64.0514 34.5946C65.4654 32.9682 66.4561 32.3669 67.7646 32.4372C69.1797 32.5081 69.6745 33.4986 69.6745 34.2763C69.6388 35.1953 68.9681 36.2561 67.8015 36.2912C66.7744 36.2912 66.1735 35.796 65.8552 34.877C65.1834 35.125 64.8657 35.5844 64.7238 36.5034C64.511 37.6703 65.3956 38.5898 66.527 38.5898C68.4727 38.5904 69.3222 37.7412 70.0298 37.1047ZM72.1514 21.8657C72.1514 22.9974 68.1896 25.1541 64.8293 25.1541C59.5954 25.1541 54.1487 22.6434 51.6385 22.0779C48.9148 21.4414 46.4392 20.911 44.4934 20.911C37.6673 20.911 34.6254 23.846 34.7672 26.5332C34.8382 27.6291 35.7216 28.3365 37.0307 28.0886C38.4459 27.8413 40.4262 26.4974 40.9215 25.3305C41.0276 25.0832 41.3108 25.0475 41.4169 25.1184C41.6291 25.2954 41.5582 25.5427 41.5582 25.5427C41.3811 26.9217 39.259 30.7406 35.5809 30.7406C33.5297 30.7406 32.1503 28.8311 32.1855 26.9569C32.2206 23.4563 35.7932 19.9205 44.5996 19.9205C46.2615 19.9205 48.1363 20.0618 50.1881 20.4158C52.5571 20.8401 58.4634 21.83 63.2734 21.9009C65.0427 21.9009 67.3061 21.9718 69.1452 21.6887C71.0903 21.3705 70.6658 21.2996 71.4444 21.2996C72.1514 21.2996 72.1514 21.5826 72.1514 21.8657Z" fill="white"/>
<path fill-rule="evenodd" clip-rule="evenodd" d="M77.3862 34.1702C76.1475 34.0289 74.5911 35.0897 73.3184 36.6458C72.6817 37.4235 72.0099 38.9086 71.9032 39.7924C71.7625 40.6767 72.0099 41.5605 72.3282 41.8079C72.6465 42.0552 74.0617 42.7977 76.2542 40.5707C77.4918 39.3329 78.6941 37.3174 78.6941 37.3174L78.3049 37.2107C79.0476 35.8323 78.9052 34.3466 77.3862 34.1702Z" fill="#191B1D"/>
<path fill-rule="evenodd" clip-rule="evenodd" d="M51.5317 29.998C51.5317 30.3872 52.0616 30.7054 52.5218 30.7412C52.4157 31.1297 52.4509 31.3067 52.2744 31.2715C51.2134 31.2715 50.7889 30.2459 50.7889 30.2459C49.3749 30.4932 47.9955 30.6702 45.201 30.9533C38.1626 42.3389 35.9701 44.2132 31.6549 44.2132C28.5777 44.2132 25.8547 42.1977 25.7837 38.591C25.748 36.3991 27.5166 33.7114 30.806 32.8979C31.1953 32.8979 31.3365 33.0397 31.3365 33.2519C31.3365 33.3937 31.1953 33.5701 30.8763 33.7114C29.9214 34.0653 28.2594 35.939 28.2594 37.672C28.2594 38.9801 29.0731 40.4301 30.4519 40.7477C30.8412 40.8544 31.1953 40.8186 31.5488 40.8186C34.9794 40.8186 38.8345 36.9646 43.0079 31.0951C42.336 31.1303 39.4711 31.4491 38.7635 32.262C38.4458 32.5093 38.2336 32.3681 38.1626 32.085C38.1626 32.0141 38.2687 31.7668 38.3754 31.6249C39.5069 30.352 42.9023 30.0695 43.7154 29.9634C46.8987 25.0838 51.0012 22.0427 51.85 22.0784C51.9913 22.0784 52.3102 22.2906 52.1683 22.644C52.1326 22.7149 51.7791 23.1035 51.6384 23.2096C50.9308 23.846 48.5255 25.402 45.9085 29.8216C48.0307 29.7155 50.5064 29.2912 50.5064 29.2912C50.5064 29.2912 50.3651 28.8317 50.3651 28.4426C50.4712 26.9223 51.3552 26.0028 52.4873 26.1798C53.1245 26.2858 53.5483 26.8162 53.5483 27.3818C53.5483 27.9831 53.0887 28.8669 52.6285 29.2912C52.3096 29.5379 51.9555 29.7859 51.5317 29.998Z" fill="white"/>
<path fill-rule="evenodd" clip-rule="evenodd" d="M51.3539 29.2197C51.3539 29.2197 51.708 29.2554 52.238 28.6541C52.4502 28.442 52.8043 27.8055 52.7334 27.3812C52.6976 27.169 52.5921 26.9217 52.3447 26.9569C51.8136 27.0635 51.4952 27.3108 51.3539 27.8412C51.1775 28.4068 51.2484 28.7959 51.3539 29.2197Z" fill="#191B1D"/>
</svg>
