<svg width="147" height="53" viewBox="0 0 147 53" fill="none" xmlns="http://www.w3.org/2000/svg">
<path fill-rule="evenodd" clip-rule="evenodd" d="M138.37 29.3863C137.657 27.1764 136.23 26.5089 136.23 26.5089C137.657 26.098 138.534 24.8139 138.534 23.6322C138.534 21.9372 137.382 20.4989 134.747 20.4989H126.957V32.2629H128.877V27.1263H133.706C135.297 27.1263 135.9 28.1545 136.558 30.1062L137.217 32.2629H139.247C138.37 29.3863 139.247 32.2622 138.37 29.3863ZM134.255 25.6355H128.877V21.9881H134.309C135.845 21.9881 136.613 22.7072 136.613 23.7864C136.614 24.6081 136.119 25.6355 134.255 25.6355ZM107.04 32.2622H108.96V20.4981H107.04V32.2622ZM102.704 30.4646L95.1328 20.4981H92.334V32.2622H94.2558V22.2964L101.771 32.2622H104.626V20.4981H102.704V30.4646ZM117.958 20.1906C112.691 20.1906 110.716 23.3748 110.716 26.3547C110.716 29.3863 112.691 32.5712 117.958 32.5712C121.415 32.5712 123.445 31.1846 124.433 29.3346H122.239C121.305 30.4646 119.714 31.0296 117.958 31.0296C114.995 31.0296 112.636 29.4888 112.636 26.3547C112.636 23.273 114.995 21.7322 117.958 21.7322C120.646 21.7322 122.842 23.0156 123.226 25.6363H114.83L115.05 27.1263H125.146C125.146 26.8696 125.201 26.6114 125.201 26.3547C125.201 23.3748 123.171 20.1906 117.958 20.1906ZM63.693 25.6355H53.377L53.5966 27.1255H61.717C61.3876 29.7447 59.1927 31.0296 56.5045 31.0296C53.4868 31.0296 51.1821 29.4888 51.1821 26.3547C51.1821 23.273 53.4868 21.7322 56.5045 21.7322C58.2608 21.7322 59.7967 22.2455 60.7843 23.3755H62.9792C61.9923 21.578 59.9615 20.1913 56.5045 20.1913C51.2371 20.1913 49.2619 23.3755 49.2619 26.3555C49.2619 29.387 51.2371 32.572 56.5045 32.572C61.717 32.572 63.6922 29.3878 63.6922 26.3555L63.693 25.6355ZM69.0702 20.4981L63.1988 32.2622H65.2838L67.6983 27.1255H72.8566L75.3801 32.2622H77.4102L71.5396 20.4981H69.0702ZM68.4113 25.6355L70.2774 21.7314L72.1428 25.6355H68.4113ZM87.7812 26.5089C89.1516 26.098 90.085 24.8139 90.085 23.6322C90.085 21.9372 88.877 20.4989 86.2986 20.4989H78.452V32.2629H80.3723V27.1263H85.2012C86.8469 27.1263 87.4517 28.1545 88.0549 30.1062L88.7687 32.2629H90.7988L89.8646 29.387C89.1508 27.1764 87.7812 26.5089 87.7812 26.5089ZM85.751 25.6355H80.3723V21.9881H85.8044C87.3968 21.9881 88.1655 22.7072 88.1655 23.7864C88.1655 24.6081 87.6706 25.6355 85.751 25.6355ZM40.7495 32.5021C44.0936 32.5021 46.8207 29.7865 46.8207 26.4549C46.8207 23.1249 44.0928 20.4093 40.7495 20.4093C37.4046 20.4093 34.6775 23.1257 34.6775 26.4549C34.6775 29.7865 37.4046 32.5021 40.7495 32.5021ZM26.1323 32.5021C29.4764 32.5021 32.2035 29.7865 32.2035 26.4549C32.2035 23.1249 29.4764 20.4093 26.1323 20.4093C22.7882 20.4093 20.0611 23.1257 20.0611 26.4549C20.0603 29.7865 22.7874 32.5021 26.1323 32.5021ZM11.2901 32.5021C14.6342 32.5021 17.3614 29.7865 17.3614 26.4549C17.3614 23.1249 14.6342 20.4093 11.2901 20.4093C7.94604 20.4093 5.21814 23.1257 5.21814 26.4549C5.21814 29.7865 7.94604 32.5021 11.2901 32.5021Z" fill="#191B1D"/>
</svg>
