<svg width="102" height="32" viewBox="0 0 102 32" fill="none" xmlns="http://www.w3.org/2000/svg">
<path d="M52.231 31.2288C52.808 32.3165 54.4862 32.0079 54.7257 30.9144C55.4159 31.9208 57.0142 31.451 57.1666 30.3923C57.8351 31.1214 59.1612 30.8295 59.4617 29.8855C59.466 29.8717 59.4573 29.8993 59.4617 29.8855C64.3806 27.8618 67.9807 24.2008 69.3888 19.8303C69.6876 19.7053 69.949 19.5049 70.1473 19.2487C71.6686 19.6066 73.3685 20.3226 73.9949 18.622C75.3376 18.98 78.1531 19.9174 79.0052 17.6381C80.9736 17.9068 83.8363 18.0854 84.1949 16.0269C85.8947 16.0269 88.8467 15.7582 88.8467 13.789C90.5473 13.789 93.4992 12.6251 93.1414 11.2825C94.6627 11.1038 96.7211 9.4926 96.7211 8.41867C98.2417 7.97139 99.9423 6.80743 99.5838 5.28622C100.478 4.74889 101.999 4.12226 101.999 3.22768C101.999 2.33311 101.284 1.61644 100.478 1.61644C99.6723 1.61644 96.6304 1.80087 95.5569 1.80087C94.4841 1.80087 81.51 1.62152 78.4681 1.80087C75.4262 1.97949 71.5786 2.06372 69.6994 1.8851C68.3153 1.75149 63.5996 1.48138 60.7682 2.23872C54.7714 -0.733994 47.2294 -0.73472 41.2312 2.23872C38.4004 1.48211 33.684 1.75222 32.2992 1.88365C30.42 2.063 26.5731 1.97804 23.5305 1.79942C20.4886 1.62007 7.51445 1.79942 6.44096 1.79942C5.36747 1.79942 2.32554 1.61498 1.51988 1.61498C0.714211 1.61498 0 2.33166 0 3.22623C0 4.12153 1.52133 4.74817 2.41627 5.28476C2.05771 6.8067 3.75832 7.96994 5.27892 8.41722C5.27892 9.49114 7.33663 11.1024 8.85796 11.281C8.50012 12.6243 11.4528 13.7876 13.1527 13.7876C13.1527 15.7561 16.1053 16.0254 17.8052 16.0254C18.163 18.084 21.0264 17.9054 22.9948 17.6367C23.8469 19.9167 26.6631 18.9793 28.0052 18.6206C28.6316 20.3219 30.3315 19.6052 31.8528 19.2472C32.0604 19.5173 32.3217 19.7047 32.6113 19.8288C34.0194 24.2 37.6202 27.8611 42.5384 29.8848C42.542 29.8986 42.534 29.871 42.5384 29.8848C42.8389 30.8287 44.1649 31.1206 44.8334 30.3916C44.9858 31.4503 46.5841 31.9194 47.2744 30.9137C47.5132 32.0072 49.192 32.3158 49.7683 31.2281C49.9055 32.2454 52.0938 32.2454 52.231 31.2288Z" fill="black"/>
<path d="M35.521 19.6066C36.0472 20.8097 37.7101 20.5592 38.7059 20.1838C40.0342 22.2053 42.2436 23.8507 44.964 24.8448L42.8032 28.5087C38.6028 26.6782 35.4934 23.614 34.123 20.0059C34.6081 19.9522 35.0807 19.8172 35.521 19.6066Z" fill="#F8F8F8"/>
<path d="M42.4903 29.46C37.8531 27.5009 34.4446 24.0737 33.0329 19.9653C33.2658 20.0161 33.5075 20.0357 33.7492 20.0314C35.1319 23.7687 38.3248 26.9447 42.6435 28.8304C42.5566 29.0299 42.5047 29.2429 42.4903 29.46ZM44.9168 29.5696C44.9162 29.5718 44.9154 29.574 44.9146 29.5761C44.2272 31.268 42.1884 30.2892 43.1109 28.6917L45.308 24.9668C45.7108 25.1033 46.1238 25.2253 46.5462 25.3342C46.555 25.3916 44.9407 29.4926 44.9168 29.5696ZM47.2401 30.096C46.8148 31.7886 44.7752 31.2724 45.255 29.688L47.0013 25.4431C47.4165 25.5375 47.8397 25.6174 48.2701 25.682C48.2744 25.698 47.2401 30.096 47.2401 30.096ZM49.6346 30.3633C49.4829 32.1843 47.2481 31.8685 47.6488 30.0547C47.6488 30.0561 48.6468 25.7452 48.6504 25.7357C49.0699 25.7887 49.4953 25.8294 49.9271 25.8541C49.9424 25.8933 49.6361 30.327 49.6346 30.3633ZM50.0237 30.3357C50.0237 30.3364 50.2617 25.9274 50.2654 25.9165C50.6834 25.934 51.3011 25.9463 51.7315 25.9027C51.7519 25.9405 52.0291 30.2899 52.0335 30.3255C52.1685 32.1081 49.917 32.1444 50.0237 30.3357ZM1.47186 2.68597C1.67219 2.53276 2.10333 2.54075 2.64842 2.51025C5.42179 2.51025 11.8642 2.6896 13.117 2.6896C14.3697 2.6896 23.2277 3.67421 24.614 4.12223C25.2404 4.30158 25.3747 4.92749 24.614 4.97251C23.8534 5.01752 14.3973 5.15258 13.0553 5.15258C12.0145 5.15258 6.60053 5.13443 3.47151 4.5136C1.77889 4.17741 0.870154 3.14488 1.47186 2.68597ZM4.51814 6.00068C6.12875 6.0457 14.181 6.09072 15.121 6.0457C16.0602 6.00068 23.3525 5.59842 24.2025 5.5534C26.041 5.45682 26.6362 6.27588 24.6946 6.71736C23.7104 6.94173 14.6289 7.97063 7.73935 7.8363C6.44158 7.88132 4.69742 7.20966 4.24959 6.58303C3.80248 5.95639 4.29459 6.00068 4.51814 6.00068ZM7.65007 8.95524C8.76857 8.95524 21.9655 7.97063 24.7396 7.38901C27.1522 7.0216 26.6079 8.2618 25.6338 8.46294C24.8151 8.63212 15.031 10.5215 10.0656 10.6108C8.41001 10.5665 6.48658 8.99953 7.65007 8.95524ZM11.0048 11.7297C12.5712 11.5504 22.9947 9.89483 25.8131 9.13386C28.3622 8.4731 27.8476 10.1679 26.9316 10.4322C26.1158 10.6674 17.2324 12.8305 15.2103 12.9387C14.3528 12.9838 13.4931 12.9258 12.6495 12.7659C9.7927 12.1944 11.0048 11.7297 11.0048 11.7297ZM15.2103 14.0569C16.3287 13.8333 25.4103 11.774 28.0051 10.7901C29.2695 10.3494 29.6498 11.5918 28.855 11.9534C28.3629 12.177 21.3841 15.0858 18.0736 15.2652C16.8659 15.2652 14.6318 14.6146 15.2103 14.0569ZM30.0178 12.177C28.9893 12.6693 22.7262 15.3102 20.3099 15.8475C19.9746 15.9368 19.6204 16.085 19.6487 16.2716C19.8635 17.7006 24.3099 16.485 24.6184 16.3863C26.3284 15.8381 29.8146 14.5579 31.2931 13.1166C30.9352 12.938 30.1078 12.3564 30.0178 12.177ZM31.8969 13.6989C31.2263 14.1462 26.8416 16.4299 24.8289 17.0558C23.7772 17.4065 24.884 18.4884 26.9381 17.9024C29.2085 17.5503 32.5233 14.8629 33.0604 14.3706C32.7919 14.2363 32.2105 13.8783 31.8969 13.6989ZM33.9554 14.9079C33.1446 15.4627 31.5841 16.4996 30.5934 17.1611C30.1847 17.4341 29.2092 17.9736 29.2303 18.4049C29.2404 18.6111 29.6324 19.0025 31.423 18.3519C32.5364 17.8959 33.8842 16.9686 35.0289 15.3109C34.8053 15.2427 34.2232 15.0415 33.9554 14.9079ZM35.9681 15.5789C35.5486 15.9985 35.0064 16.5722 34.4758 17.1008C33.9873 17.7311 32.8986 18.1849 33.2731 18.9132C33.6788 19.7017 34.9563 18.5668 35.4165 18.1326C36.0668 17.5176 36.6946 16.7051 36.9305 15.8918C36.617 15.8025 36.2591 15.7132 35.9681 15.5789Z" fill="#F8F8F8"/>
<path d="M20.4001 2.33159C21.5636 2.33159 25.4997 2.60025 26.9317 2.60025C31.0457 2.60025 36.6128 1.87414 40.4393 2.66052C42.8178 3.14919 43.159 3.83828 43.159 4.57891C43.159 5.54247 42.354 6.12118 41.7835 6.53942C41.1129 7.03173 39.0544 8.23998 38.9652 11.3732C38.4288 11.1495 37.6681 11.0152 38.2052 9.89625C39.1423 8.02069 41.2493 5.73634 37.6456 4.76335C37.0773 4.61014 36.3769 4.50993 35.5211 4.48089C32.882 4.39158 29.0548 4.37197 27.757 4.14833C26.46 3.92468 21.5628 2.78033 20.5343 2.64672C20.0865 2.59953 20.0865 2.37588 20.4001 2.33159Z" fill="#F8F8F8"/>
<path d="M30.7423 5.05305C31.6815 5.05305 34.558 5.03344 35.5226 5.07919C38.1907 5.20626 40.096 6.50673 38.1689 8.9472C37.7915 9.42425 36.7826 10.4241 36.3798 10.7821C36.0219 11.0508 35.3505 10.6027 35.9319 9.93181C35.1713 10.3791 34.2321 10.2898 34.6792 9.26088C34.0078 9.7982 32.89 9.8425 33.5607 8.45562C33.1136 8.81359 31.8608 8.7693 32.6657 7.69465C31.9951 7.91829 31.2344 7.5153 31.7265 6.84437C30.8766 6.97943 30.3845 6.35207 31.2794 5.86049C30.4295 6.08195 30.2059 5.09734 30.7423 5.05305ZM28.1177 4.57744C27.7555 4.55421 26.1841 4.29861 26.2219 5.14599C26.2596 5.99409 28.0052 5.67387 28.3638 5.60707C29.0243 5.48436 29.5519 5.2825 29.5367 5.00875C29.5215 4.72775 28.8334 4.62246 28.1177 4.57744ZM28.1816 6.0304C27.7998 6.05944 26.4273 5.99191 26.6414 6.7674C26.7089 7.01138 27.2133 7.50513 28.9009 7.09488C29.6405 6.9148 30.0237 6.51835 30.0237 6.20321C30.0237 5.92801 29.0293 5.96577 28.1816 6.0304ZM29.2652 7.28948C28.9938 7.3345 27.4202 7.44196 27.6837 8.23561C27.868 8.7889 28.1511 8.61391 28.6309 8.67127C28.9473 8.70903 31.2917 8.04827 30.9252 7.29601C30.8163 7.07237 30.1268 7.14789 29.2652 7.28948ZM30.0433 8.41423C28.4828 9.04813 28.5031 9.47726 28.5743 9.70889C28.6447 9.94125 29.3603 10.2281 30.841 9.50413C31.5908 9.13744 31.6002 8.72065 31.4159 8.42585C31.1858 8.05626 30.6037 8.18623 30.0433 8.41423ZM31.1357 9.48017C29.5113 10.0465 29.6042 10.5635 29.7327 10.867C29.8742 11.2025 30.3874 11.5598 31.7432 10.6957C32.5619 10.1743 33.0947 9.73721 32.9488 9.39013C32.8167 9.07499 32.0422 9.15704 31.1357 9.48017ZM31.7715 11.1081C31.3455 11.3666 31.1517 11.7166 31.4202 12.1152C31.9007 12.8297 33.3175 11.5692 33.6732 11.1836C33.9374 10.8975 34.1065 10.5969 33.957 10.3769C33.8024 10.1504 33.3219 10.1678 31.7715 11.1081ZM34.3366 11.2294C32.4451 12.1944 32.6265 12.662 32.89 12.8617C33.1811 13.0824 33.867 13.314 35.0138 11.9882C35.5168 11.4073 35.2402 10.7712 34.3366 11.2294ZM35.2809 12.2416C34.8817 12.6881 33.9461 13.3612 34.6705 13.863C35.2809 14.2856 35.6387 13.8216 35.9392 13.5341C37.6768 11.8618 37.102 10.8031 35.2809 12.2416Z" fill="#F8F8F8"/>
<path d="M40.9888 3.47601C42.3171 4.1404 42.8665 4.84619 41.5027 5.81046C41.3358 5.9281 41.5419 6.22072 41.7088 6.10309C43.2098 5.04296 42.8868 3.9429 41.1492 3.15579C40.9663 3.0643 40.8066 3.38452 40.9888 3.47601Z" fill="black"/>
<path d="M59.22 18.6249C59.22 17.1974 57.7502 15.7698 56.1178 15.2775C55.6816 15.1788 55.7506 14.791 56.0902 14.6378C56.4169 14.4897 58.3221 13.1609 58.2953 11.4872C58.2953 9.86289 56.3893 7.40137 50.8367 7.40137C47.5705 7.40137 44.8487 8.13983 43.2156 9.51872C43.5959 9.81424 44.0321 10.2572 44.0321 10.7495V19.7584C43.9777 20.3001 43.7055 20.743 43.2693 21.2353C44.7354 22.2765 47.3608 23.2699 51.13 23.2575C55.1583 23.1588 59.22 21.9723 59.22 18.6249Z" fill="#F8F8F8"/>
<path d="M51.1126 14.2886C52.8451 14.2886 54.2496 13.1664 54.2496 11.7821C54.2496 10.3977 52.8451 9.27551 51.1126 9.27551C49.3801 9.27551 47.9756 10.3977 47.9756 11.7821C47.9756 13.1664 49.3801 14.2886 51.1126 14.2886Z" fill="black"/>
<path d="M51.5169 21.2215C53.459 21.2215 55.0335 20.0368 55.0335 18.5755C55.0335 17.1142 53.459 15.9296 51.5169 15.9296C49.5747 15.9296 48.0002 17.1142 48.0002 18.5755C48.0002 20.0368 49.5747 21.2215 51.5169 21.2215Z" fill="black"/>
<path d="M37.4844 14.253C37.6071 13.6424 37.8038 13.0491 38.0665 12.4791C38.0513 12.4566 37.586 11.8612 36.44 13.5182C35.807 14.4324 36.9248 14.8005 37.4844 14.253ZM37.4474 17.0674C36.9756 17.6157 36.5307 18.076 36.2367 18.4434C35.6227 19.2117 37.2202 20.1585 38.081 19.0664C37.7827 18.4309 37.5697 17.7588 37.4474 17.0674ZM59.466 2.74702C59.7191 2.60357 59.9855 2.4849 60.2615 2.39268C54.5333 -0.308465 47.4659 -0.308465 41.7385 2.39268C42.036 2.49579 42.3031 2.61342 42.5332 2.74702C47.8375 0.435802 54.2081 0.456133 59.466 2.74702Z" fill="#F8F8F8"/>
<path d="M62.1028 9.8534C61.4597 7.61551 59.8542 6.70497 59.2315 6.2693C57.9794 5.39433 58.0476 4.10112 59.1175 2.98654C54.0055 0.830703 47.934 0.855391 42.8823 2.98654C43.9522 4.10112 44.0197 5.39433 42.7683 6.2693C42.1456 6.70497 40.5393 7.61551 39.897 9.8534C45.3573 4.22383 56.6425 4.22311 62.1028 9.8534ZM66.4788 19.6066C65.9519 20.8097 64.289 20.5592 63.2939 20.1838C61.9656 22.2053 59.7562 23.8507 57.0351 24.8447L59.1966 28.5087C63.397 26.6782 66.5057 23.614 67.8775 20.0059C67.3921 19.9524 66.9193 19.8174 66.4788 19.6066Z" fill="#F8F8F8"/>
<path d="M59.5096 29.46C64.1468 27.5009 67.556 24.0737 68.967 19.9653C68.7316 20.015 68.4912 20.0372 68.2506 20.0314C66.868 23.7687 63.6751 26.9447 59.3564 28.8304C59.4433 29.0299 59.4951 29.2429 59.5096 29.46ZM57.0824 29.5696L57.0853 29.5762C57.7727 31.268 59.8115 30.2892 58.889 28.6918L56.6919 24.9668C56.2891 25.1033 55.8768 25.2253 55.4536 25.3342C55.4449 25.3916 57.0592 29.4927 57.0824 29.5696ZM54.759 30.0961C55.1851 31.7886 57.2239 31.2724 56.7442 29.688C56.7442 29.688 55.0893 25.6631 54.9978 25.4431C54.5834 25.5375 54.1602 25.6174 53.7298 25.682C53.7255 25.698 54.759 30.0961 54.759 30.0961ZM52.3653 30.3633C52.517 32.1844 54.751 31.8685 54.3504 30.0547C54.3511 30.0561 53.3531 25.7452 53.3488 25.7357C52.9292 25.7888 52.5032 25.8294 52.072 25.8541C52.0575 25.8933 52.3638 30.327 52.3653 30.3633ZM100.528 2.68597C100.328 2.53276 99.8966 2.54075 99.3515 2.51025C96.5781 2.51025 90.1357 2.6896 88.8829 2.6896C87.6301 2.6896 78.7722 3.67422 77.3859 4.12223C76.7595 4.30158 76.6252 4.92749 77.3859 4.97251C78.1465 5.01753 87.6018 5.15258 88.9439 5.15258C89.9854 5.15258 95.3994 5.13443 98.5277 4.5136C100.222 4.17741 101.13 3.14488 100.528 2.68597ZM97.481 6.00069C95.8704 6.0457 87.8189 6.09072 86.8789 6.0457C85.9397 6.00069 78.6474 5.59842 77.7974 5.5534C75.9589 5.45683 75.363 6.27588 77.3053 6.71736C78.2888 6.94173 87.371 7.97063 94.2598 7.8363C95.5569 7.88132 97.3018 7.20967 97.7496 6.58303C98.1974 5.95639 97.7053 6.00069 97.481 6.00069ZM94.3498 8.95524C93.2313 8.95524 80.0344 7.97063 77.2603 7.38902C74.8477 7.0216 75.392 8.26181 76.3661 8.46294C77.1848 8.63212 86.9682 10.5215 91.9343 10.6108C93.5892 10.5665 95.5126 8.99954 94.3498 8.95524ZM90.9951 11.7297C89.4295 11.5504 79.0052 9.89484 76.1875 9.13387C73.6384 8.4731 74.1523 10.1679 75.069 10.4322C75.8841 10.6674 84.7675 12.8305 86.7896 12.9387C87.647 12.9838 88.5068 12.9258 89.3503 12.7659C92.2072 12.1944 90.9951 11.7297 90.9951 11.7297ZM86.7896 14.0569C85.6711 13.8333 76.5896 11.774 73.9948 10.7901C72.7312 10.3494 72.3501 11.5918 73.1449 11.9534C73.637 12.177 80.6158 15.0858 83.9263 15.2652C85.134 15.2652 87.3681 14.6146 86.7896 14.0569ZM71.9814 12.177C73.0099 12.6693 79.2737 15.3102 81.6893 15.8475C82.0246 15.9368 82.3788 16.085 82.3505 16.2716C82.1357 17.7006 77.6893 16.485 77.3808 16.3863C75.6715 15.8381 72.1846 14.5579 70.7061 13.1166C71.0647 12.938 71.8921 12.3564 71.9814 12.177ZM70.1022 13.6989C70.7729 14.1462 75.1576 16.4299 77.1703 17.0558C78.222 17.4065 77.1151 18.4884 75.0611 17.9024C72.7907 17.5503 69.4758 14.8629 68.9387 14.3706C69.208 14.2363 69.7894 13.8783 70.1022 13.6989ZM68.0452 14.9079C68.8553 15.4627 70.4165 16.4996 71.4073 17.1611C71.8159 17.4341 72.7914 17.9736 72.7704 18.4049C72.7602 18.6111 72.3682 19.0025 70.5776 18.3519C69.4642 17.8959 68.1164 16.9686 66.9717 15.3109C67.1946 15.2427 67.776 15.0415 68.0452 14.9079ZM66.0311 15.5789C66.4506 15.9986 66.9935 16.5722 67.5241 17.1008C68.0133 17.7311 69.102 18.1849 68.7268 18.9132C68.3211 19.7017 67.0436 18.5668 66.5842 18.1326C65.9338 17.5176 65.3053 16.7051 65.0694 15.8918C65.3829 15.8025 65.7408 15.7132 66.0311 15.5789Z" fill="#F8F8F8"/>
<path d="M81.6 2.33159C80.4365 2.33159 76.5004 2.60025 75.0683 2.60025C70.9536 2.60025 65.3865 1.87414 61.5607 2.66052C59.1822 3.14919 58.8411 3.83828 58.8411 4.57891C58.8411 5.54247 59.6453 6.12118 60.2158 6.53942C60.8872 7.03173 62.9456 8.23998 63.0349 11.3732C63.5713 11.1495 64.3319 11.0152 63.7955 9.89625C62.8578 8.02069 60.7514 5.73634 64.3552 4.76335C64.9235 4.61014 65.6239 4.50993 66.4804 4.48089C69.1195 4.39158 72.9467 4.37197 74.2438 4.14833C75.5408 3.92468 80.438 2.78033 81.4665 2.64672C81.9136 2.59953 81.9136 2.37588 81.6 2.33159Z" fill="#F8F8F8"/>
<path d="M71.2569 5.05305C70.3177 5.05305 67.4412 5.03344 66.4766 5.07919C63.8085 5.20626 61.9032 6.50673 63.8303 8.9472C64.2077 9.42425 65.2166 10.4241 65.6194 10.7821C65.9773 11.0508 66.6486 10.6027 66.0665 9.93181C66.8279 10.3791 67.7671 10.2898 67.32 9.26088C67.9907 9.7982 69.1092 9.8425 68.4385 8.45562C68.8856 8.81359 70.1384 8.7693 69.3327 7.69465C70.0041 7.91829 70.7648 7.5153 70.272 6.84437C71.1226 6.97943 71.6147 6.35207 70.7191 5.86049C71.5705 6.08195 71.794 5.09734 71.2569 5.05305ZM73.8822 4.57744C74.2444 4.55421 75.8158 4.29861 75.7781 5.14599C75.7403 5.99409 73.9947 5.67387 73.6362 5.60707C72.9757 5.48436 72.448 5.2825 72.4632 5.00875C72.4785 4.72775 73.1665 4.62246 73.8822 4.57744ZM73.8191 6.0304C74.2001 6.05944 75.5734 5.99191 75.3585 6.7674C75.291 7.01138 74.7873 7.50513 73.0998 7.09488C72.3594 6.9148 71.9769 6.51835 71.9769 6.20321C71.9769 5.92801 72.9706 5.96577 73.8191 6.0304ZM72.734 7.28948C73.0054 7.3345 74.579 7.44196 74.3155 8.23561C74.1312 8.7889 73.8481 8.61391 73.3683 8.67127C73.0519 8.70903 70.7074 8.04827 71.074 7.29601C71.1836 7.07237 71.8731 7.14789 72.734 7.28948ZM71.9566 8.41423C73.5164 9.04813 73.4961 9.47726 73.4257 9.70889C73.3545 9.94125 72.6396 10.2281 71.1589 9.50413C70.4091 9.13744 70.399 8.72065 70.5833 8.42585C70.8141 8.05626 71.3963 8.18623 71.9566 8.41423ZM70.8635 9.48017C72.4879 10.0465 72.395 10.5635 72.2665 10.867C72.125 11.2025 71.6118 11.5598 70.2553 10.6957C69.4365 10.1743 68.9038 9.73721 69.0504 9.39013C69.1832 9.07499 69.957 9.15704 70.8635 9.48017ZM70.2277 11.1081C70.6537 11.3666 70.8475 11.7166 70.579 12.1152C70.0992 12.8297 68.6817 11.5692 68.326 11.1836C68.0626 10.8975 67.8927 10.5969 68.0422 10.3769C68.1968 10.1504 68.678 10.1678 70.2277 11.1081ZM67.6633 11.2294C69.5548 12.1944 69.3734 12.662 69.1099 12.8617C68.8189 13.0824 68.133 13.314 66.9862 11.9882C66.4832 11.4073 66.7597 10.7712 67.6633 11.2294ZM66.7183 12.2416C67.1175 12.6881 68.0531 13.3612 67.3295 13.863C66.7183 14.2856 66.3605 13.8216 66.0607 13.5341C64.3231 11.8618 64.898 10.8031 66.7183 12.2416Z" fill="#F8F8F8"/>
<path d="M61.0112 3.47601C59.683 4.1404 59.1335 4.84619 60.4981 5.81046C60.6643 5.9281 60.4582 6.22072 60.2912 6.10309C58.7909 5.04296 59.1139 3.9429 60.8516 3.15579C61.0337 3.0643 61.1934 3.38452 61.0112 3.47601Z" fill="black"/>
<path d="M64.5156 14.253C64.3922 13.6423 64.1962 13.0491 63.9327 12.4791C63.948 12.4566 64.4132 11.8611 65.5593 13.5181C66.1929 14.4323 65.0752 14.8005 64.5156 14.253ZM64.5519 17.0674C65.0236 17.6156 65.4693 18.076 65.7633 18.4434C66.3773 19.2116 64.7798 20.1585 63.9189 19.0664C64.2173 18.4267 64.4321 17.7572 64.5519 17.0674Z" fill="#F8F8F8"/>
</svg>
