<svg width="102" height="44" viewBox="0 0 102 44" fill="none" xmlns="http://www.w3.org/2000/svg">
<path fill-rule="evenodd" clip-rule="evenodd" d="M1.69067 15.8155V17.6249H4.65559L10.4579 28.5177H17.5979L23.4003 17.6069L26.3647 17.5884L26.371 15.8155H17.5011V17.5948H19.8633L15.766 25.3384L11.3342 17.6218L14.5669 17.6069L14.5611 15.8155H1.69067ZM58.9132 15.8155V17.6249H61.877L67.6804 28.5177H74.8199L80.6222 17.6069L83.5877 17.5884L83.5924 15.8155H74.7241V17.5948H77.0853L72.9885 25.3384L68.5567 17.6218L71.7888 17.6069L71.7835 15.8155H58.9132ZM44.3246 15.8155V17.6249H47.2895L47.2937 26.5181H44.169V28.5012L47.2958 28.5177H62.0987V22.6052H60.1699C60.0646 25.7357 57.3516 26.5223 56.2096 26.5223C55.1619 26.5223 53.1331 26.5181 53.1331 26.5181V17.6218L56.053 17.6069L56.0488 15.8155H44.3246ZM34.344 15.4511C29.3047 15.4511 25.2201 18.4545 25.2201 22.1581C25.2201 25.8618 29.3047 28.8652 34.344 28.8652C39.3832 28.8652 43.4684 25.8618 43.4684 22.1581C43.4684 18.4545 39.3832 15.4511 34.344 15.4511ZM34.2132 26.891C32.4368 26.891 30.9975 24.761 30.9975 22.1322C30.9975 19.5027 32.4368 17.3712 34.2132 17.3712C35.9891 17.3712 37.4295 19.5027 37.4295 22.1322C37.4295 24.761 35.9891 26.891 34.2132 26.891ZM91.5675 15.2307C86.5282 15.2307 82.4436 18.2823 82.4436 22.0474C82.4436 25.8109 86.5282 28.863 91.5675 28.863C96.6057 28.863 100.691 25.8109 100.691 22.0474C100.691 18.2828 96.6057 15.2307 91.5675 15.2307ZM91.4363 26.8571C89.6609 26.8571 88.221 24.6917 88.221 22.0199C88.221 19.3481 89.6609 17.1821 91.4363 17.1821C93.2127 17.1821 94.6515 19.3475 94.6515 22.0199C94.6515 24.6917 93.2127 26.8571 91.4363 26.8571Z" fill="#191B1D"/>
</svg>
