<svg width="80" height="49" viewBox="0 0 80 49" fill="none" xmlns="http://www.w3.org/2000/svg">
<g clip-path="url(#clip0_105_575)">
<path d="M38.9558 25.5377C39.0265 25.5513 39.0972 25.5639 39.1677 25.5766L38.9558 25.5377ZM39.5339 25.6347C39.6162 25.6471 39.6986 25.6581 39.7811 25.669L39.5339 25.6347ZM40.1452 25.7086C40.2256 25.716 40.3056 25.7229 40.386 25.7291L40.1452 25.7086ZM40.4721 25.735C40.54 25.74 40.6079 25.7441 40.6758 25.7477L40.4721 25.735ZM40.7747 25.7529C40.8551 25.7565 40.9355 25.7596 41.0159 25.7622L40.7747 25.7529ZM41.0959 25.7632C41.2756 25.768 41.4553 25.7681 41.635 25.7636L41.0959 25.7632ZM41.7209 25.7622C41.8047 25.7597 41.8884 25.7564 41.9721 25.7524L41.7209 25.7622ZM42.0511 25.7486C42.1238 25.7446 42.1952 25.74 42.2673 25.735L42.0511 25.7486ZM42.3423 25.7298C42.4209 25.7238 42.4996 25.7172 42.5777 25.7098L42.3423 25.7298ZM42.9806 25.6645C43.0411 25.6573 43.1012 25.6495 43.1611 25.64L42.9806 25.6645ZM54.0177 5.21326C53.9526 5.1779 53.8858 5.14577 53.8176 5.11698L54.0177 5.21326ZM53.3619 4.97566C53.2783 4.9584 53.1938 4.94535 53.1088 4.93658L53.3619 4.97566ZM69.0711 17.3351L69.0254 17.3415L69.0711 17.3351ZM10.4282 13.744C10.1371 13.4748 9.9158 13.1379 9.78382 12.7627C9.67642 12.4493 9.53733 12.0577 9.53733 11.7253C9.54419 10.2263 10.4126 9.11295 11.3475 8.59749C11.7723 8.36347 11.9301 8.20285 11.9949 8.12039C11.9638 8.10655 11.9306 8.09801 11.8968 8.09513C10.6243 8.09513 9.97188 7.59707 9.65158 7.1755C9.34808 6.78062 9.19313 6.27159 9.19313 5.7149C9.19313 5.44442 9.23098 5.16131 9.3055 4.87176C9.66412 4.27503 10.0048 4.43899 10.2134 4.74426C10.3464 4.93539 11.2573 5.58597 12.3798 5.68916C13.1967 5.76733 13.6369 6.16983 13.8659 6.49131C14.1299 6.86355 14.2311 7.31205 14.2311 7.69358C14.2311 7.84967 14.2136 7.99624 14.1803 8.12659C14.0573 8.62942 13.5314 9.08269 12.799 9.66011L12.3836 10.0071C11.7754 10.5433 11.4407 11.14 11.4407 11.6457C11.4407 11.772 11.4627 11.8952 11.505 12.0089C11.5225 12.0556 11.5436 12.1006 11.5684 12.1433C11.8402 12.6068 12.6083 12.8975 13.7225 12.5048C14.2375 12.3249 15.2289 11.6962 15.8343 11.0916C16.5466 10.3758 17.4973 10.2039 18.4128 10.131C19.2067 10.0707 19.6954 9.87459 20.0396 9.48472C21.0568 8.33011 22.0357 8.16782 22.9519 8.09918C23.3024 8.07202 23.3214 8.04676 23.367 7.98456C23.8721 7.30704 24.3908 6.94839 24.8564 6.73963C25.2112 6.58068 25.5353 6.50823 25.8007 6.44961L26.1229 6.36977L26.2034 6.34118C26.7134 6.17579 27.1082 6.03876 28.1457 5.33241L28.19 5.30429L28.1902 5.30381L28.2337 5.27641L28.2342 5.27617L28.278 5.2502L28.2787 5.24996L28.3224 5.2247L28.3232 5.22446L28.3672 5.2011L28.3686 5.20063L28.4121 5.17775L28.4135 5.17727L28.4573 5.15582L28.4592 5.15535L28.5032 5.13485L28.5048 5.1339L28.5491 5.11531L28.551 5.1146L28.595 5.09625L28.5973 5.09577L28.6416 5.07909L28.6437 5.0779L28.6875 5.06217L28.7341 5.04644L28.7371 5.04573L28.7807 5.03167L28.7835 5.03095L28.8277 5.01808L28.8308 5.01737L28.8746 5.00521L28.8779 5.00426L28.9219 4.99377L28.9259 4.99282L28.9692 4.98281L28.9727 4.98186L29.017 4.9728L29.0208 4.97185L29.0645 4.96375L29.0686 4.96303L29.1123 4.95565L29.1163 4.95517L29.1596 4.94873L29.1641 4.94778L29.2077 4.94278L29.2121 4.94182L29.255 4.93706L29.2597 4.93682L29.303 4.93277L29.308 4.93229L29.351 4.92919L29.356 4.92872L29.3983 4.92609L29.4033 4.92586L29.4461 4.92395L29.4939 4.92252H29.4989L29.5414 4.92204H29.5944L29.6365 4.92252L29.6415 4.92276H29.6465C29.6767 4.92347 29.707 4.92538 29.7373 4.92705L29.7789 4.92967L29.7849 4.93015L29.8258 4.93324L29.8319 4.93372L29.8729 4.93777L29.8792 4.93849L29.9199 4.94254L29.9266 4.94301L29.967 4.94802L29.9734 4.94897L30.0136 4.95398L30.0205 4.95517L30.0602 4.96113L30.0668 4.96232L30.1068 4.96851L30.1139 4.96994L30.1529 4.97685L30.1603 4.97805L30.1991 4.9852L30.2062 4.98686C30.2681 4.99854 30.3292 5.01236 30.389 5.02714L30.4266 5.03667L30.4342 5.03881C30.4945 5.05454 30.5541 5.07123 30.6128 5.08886L30.6476 5.09982L30.6561 5.10244C30.7725 5.13938 30.8853 5.18109 30.9946 5.22517L31.0254 5.23804L31.0656 5.25472C33.2845 2.21795 36.7927 0.19732 40.7799 0.0145369V0.0135836C40.9762 0.00469283 41.1726 0.000163855 41.3691 0C41.499 8.6115e-05 41.6289 0.00207224 41.7587 0.00595774C41.8233 0.00810252 41.8879 0.0107239 41.9523 0.0133453H41.953C42.0168 0.0164434 42.0814 0.0195414 42.1455 0.0235926C46.0038 0.257136 49.4017 2.21461 51.5901 5.14129C51.9026 5.0319 52.243 4.95255 52.5905 4.92872L52.5998 4.92824L52.6326 4.92609L52.6669 4.92443L52.6752 4.92395L52.6842 4.92371L52.7178 4.92276L52.7268 4.92228L52.7604 4.92204L52.7694 4.9218L52.8037 4.92157H52.812L52.8463 4.9218H52.8548L52.8971 4.92252L52.9316 4.92395L52.9392 4.92419L52.9738 4.92586L52.9818 4.92633L53.0166 4.92872L53.0232 4.92919L53.0584 4.93205L53.0653 4.93253L53.1008 4.9361L53.1072 4.93682C53.1921 4.94558 53.2766 4.95862 53.3603 4.9759L53.3974 4.98353L53.4024 4.98472L53.4391 4.99354L53.4443 4.99449L53.4812 5.00402L53.4861 5.00521L53.5235 5.01522L53.5275 5.01641L53.5659 5.02714L53.5694 5.02833L53.6068 5.04001L53.611 5.0412L53.6491 5.05383L53.6524 5.05478L53.6936 5.06932L53.7322 5.08314L53.7345 5.08433L53.7729 5.09935L53.7752 5.1003L53.8143 5.11603L53.8166 5.11722C53.884 5.14582 53.9507 5.17751 54.0167 5.2135L54.0179 5.21421L54.057 5.23518L54.0574 5.23566L54.0965 5.2583L54.0972 5.25854L54.1362 5.28237L54.1367 5.28261L54.1752 5.30715V5.30739L54.2143 5.33265C54.9291 5.82214 55.3422 6.03781 55.6947 6.17865C55.8531 6.24228 56.0003 6.29018 56.1564 6.34141L56.2385 6.37001L56.564 6.44985C56.7405 6.48893 56.942 6.53397 57.1604 6.60594C57.7066 6.78515 58.3592 7.13308 58.9925 7.9848C59.0384 8.047 59.0588 8.07226 59.411 8.09942C60.3262 8.16829 61.3035 8.33034 62.3249 9.48495C62.6665 9.87483 63.1529 10.0707 63.9465 10.1312C64.8675 10.2042 65.8151 10.3758 66.526 11.0919C67.132 11.6965 68.1223 12.3251 68.6387 12.505C69.7524 12.8978 70.5243 12.607 70.7897 12.1435C70.8479 12.0458 70.8869 11.9383 70.9068 11.8247C70.9172 11.7657 70.9225 11.7059 70.9226 11.6459C70.9226 11.1403 70.5874 10.5435 69.9809 10.0073L69.9054 9.94418L69.5615 9.66035C68.8319 9.08293 68.3058 8.62966 68.179 8.12683C68.1457 7.99647 68.1313 7.84991 68.1313 7.69382C68.1313 7.31205 68.2349 6.86379 68.4937 6.49155C68.7243 6.17007 69.1693 5.76757 69.9809 5.6894C71.1093 5.58621 72.0153 4.93563 72.1478 4.7445C72.36 4.43923 72.6973 4.27527 73.0545 4.872C73.1302 5.16154 73.1681 5.44466 73.1681 5.71514C73.1681 6.27493 73.0131 6.78086 72.7098 7.17574C72.3874 7.59731 71.7371 8.09537 70.4625 8.09537C70.4356 8.09537 70.398 8.108 70.3665 8.12063C70.4297 8.20333 70.5874 8.36395 71.0132 8.59773C71.9481 9.11343 72.8175 10.2268 72.8253 11.7255C72.8253 12.058 72.6878 12.4493 72.5769 12.7629C72.461 13.0918 72.2771 13.3923 72.0375 13.6444C72.0051 13.6782 71.9713 13.7116 71.9356 13.7443C71.409 14.2371 70.5318 14.6239 69.0704 14.5359C68.9165 14.5265 68.7629 14.5125 68.6098 14.494C68.572 15.2368 68.3697 16.1197 68.0851 16.5651C67.9985 16.705 67.9815 16.7989 67.9815 16.8449C67.9815 16.8642 67.9834 16.8754 67.9834 16.8835C67.9924 16.8866 68.6318 17.2667 68.6318 17.2667L68.7349 17.3194C68.7349 17.3194 68.795 17.348 68.8028 17.3544C68.8121 17.3511 69.0238 17.3415 69.0238 17.3415L69.0657 17.3356L69.0699 17.3351C69.4697 17.2967 70.0803 17.0997 70.3398 17.8298C70.4077 18.0236 70.4491 18.1923 70.4881 18.3417C70.5673 18.6472 70.6352 18.8741 70.9006 19.0802C70.9006 19.0802 71.0319 18.9668 71.181 18.8334C71.2961 18.7309 71.409 18.626 71.5195 18.5186C71.7045 18.3277 72.0468 18.4247 72.2935 18.5186C72.5431 18.6139 72.852 18.8305 73.0704 18.9558C73.2901 19.08 73.4112 19.2375 73.4744 19.4256C73.5404 19.6131 73.693 19.7373 73.9258 19.8614C74.1505 19.9901 74.4727 20.4024 74.4727 20.9588C74.4727 21.0442 74.4821 21.1171 74.506 21.1945C74.5224 21.2458 74.5446 21.2991 74.5751 21.3599C74.8893 21.9979 74.6371 22.3191 74.4552 22.4545C74.2106 22.6389 73.7791 22.7152 73.3736 22.6485L73.3769 22.7533L72.7848 22.6737C72.5554 22.6449 72.2528 22.704 72.0721 22.7419L72.0295 22.7533C71.608 22.8377 71.0568 22.694 70.7471 22.1873C70.7358 22.1685 70.7244 22.1497 70.7138 22.1297C70.5557 21.8501 70.3097 21.5906 70.1893 21.5189C70.0154 21.567 69.7408 21.6323 69.4139 21.5987C69.1106 21.568 68.7607 21.4507 68.405 21.1538C68.3461 21.1044 68.2867 21.0499 68.2278 20.9908C67.705 20.4624 67.0152 20.3542 66.5816 20.4212L66.323 20.4674C65.7893 20.5647 65.1227 20.6886 64.5069 20.3102C64.3536 20.216 64.1327 20.119 63.916 20.0268C63.357 19.7816 62.7791 19.5287 62.7003 18.9956C62.6871 18.9006 62.5849 18.7268 62.5009 18.5886C62.4271 18.4664 62.3467 18.3327 62.2845 18.1894C62.2246 18.0527 62.1816 17.907 62.1775 17.755C61.9945 17.8024 61.8054 17.8219 61.6167 17.8127C61.55 17.8093 61.4835 17.8027 61.4175 17.7929L61.1748 17.755C60.7658 17.6847 59.9092 17.5429 59.6364 17.6432C59.0933 17.8406 57.3842 17.9359 56.9155 17.8279C56.9155 17.8279 56.7431 17.7898 56.5806 17.755C56.4244 17.9173 56.2503 18.0696 56.0672 18.2052C56.4102 18.224 56.7119 18.1811 56.9191 18.235L57.3496 18.3493C57.4871 18.3084 57.8232 18.3131 58.0141 18.3305L58.5185 18.3687L59.0938 18.4244C59.371 18.4804 59.6653 18.601 59.6149 19.1482C59.5955 19.3169 59.5018 19.5554 59.3608 19.6956C59.2833 19.7814 58.9826 20.2206 58.9166 20.3588L58.8951 20.4019C58.778 20.6533 58.6043 20.8842 58.0988 20.8842C58.0346 20.8834 57.9704 20.8859 57.9065 20.8919C57.8911 20.9331 57.8497 21.0096 57.8497 21.0096C57.7359 21.2703 57.5715 21.6333 57.2574 21.8432L57.1734 21.904C56.9212 22.0853 56.5011 22.3842 55.8579 22.149L55.6365 22.0691C55.0758 21.8656 54.228 21.5603 53.8001 21.3246L53.74 21.2913C53.3414 21.0716 53.2531 21.0275 53.1084 21.048L53.0279 21.0606C52.7223 21.1037 52.146 21.1817 51.7477 20.5163L51.7112 20.4586C49.8223 23.0705 46.9831 24.94 43.7063 25.5503L43.6919 25.5534C43.5802 25.5739 43.4676 25.593 43.355 25.6109L43.3132 25.6171L43.1592 25.64C43.0993 25.649 43.0392 25.6571 42.9787 25.6647L42.8689 25.6786L42.6958 25.6974L42.5758 25.71C42.4978 25.7174 42.419 25.7241 42.3404 25.73L42.2659 25.735C42.1938 25.74 42.1223 25.7448 42.0497 25.7486L41.9707 25.7529C41.887 25.757 41.8037 25.7601 41.7195 25.7627L41.6341 25.7641C41.4544 25.7686 41.2746 25.7685 41.095 25.7636L41.0145 25.7627C40.9341 25.7601 40.8537 25.757 40.7732 25.7534L40.6748 25.7479C40.6069 25.7441 40.5391 25.7405 40.4712 25.7353L40.3848 25.7296C40.3045 25.7233 40.2242 25.7165 40.144 25.7091L40.0252 25.6967L39.8679 25.6795L39.7802 25.6693C39.6976 25.659 39.6152 25.6475 39.533 25.6347L39.4334 25.6199L39.2574 25.5923L39.1668 25.577C39.096 25.5644 39.0253 25.552 38.9548 25.5382L38.8022 25.5075L38.7242 25.4915C38.6199 25.4686 38.5148 25.446 38.4112 25.4207L38.3838 25.4143L38.2208 25.3742L38.137 25.3526C38.0398 25.3273 37.9431 25.3001 37.8465 25.273L37.812 25.2627C34.9388 24.4277 32.4835 22.6048 30.8283 20.1836L30.6104 20.5177C30.2159 21.1831 29.6408 21.1049 29.3311 21.062L29.2507 21.0494C29.1064 21.0289 29.0151 21.073 28.6203 21.2927L28.5569 21.3261C28.1304 21.5618 27.2858 21.867 26.7221 22.0706L26.5002 22.1504C25.8575 22.3856 25.436 22.0863 25.1885 21.9054L25.1017 21.8446C24.7873 21.6349 24.6246 21.272 24.5091 21.011C24.5091 21.011 24.4713 20.9345 24.4528 20.8933C24.3887 20.8874 24.3244 20.8848 24.26 20.8857C23.7592 20.8857 23.5806 20.6548 23.4654 20.4033L23.4451 20.3602C23.3772 20.222 23.0803 19.7828 22.9982 19.697C22.8594 19.5571 22.7607 19.3183 22.7451 19.1496C22.6931 18.6024 22.9914 18.4818 23.266 18.4258L23.8416 18.3701L24.3468 18.332C24.5347 18.3146 24.8711 18.3098 25.0083 18.3508L25.4393 18.2364C25.6444 18.1825 25.9491 18.2254 26.289 18.2066C26.1083 18.0687 25.9373 17.9183 25.7773 17.7564C25.6129 17.7912 25.4421 17.8294 25.4421 17.8294C24.9721 17.9373 23.266 17.842 22.7262 17.6447C22.4518 17.5443 21.5959 17.6859 21.185 17.7564L20.9385 17.7943C20.687 17.8332 20.4303 17.8204 20.1839 17.7564C20.1709 18.0679 20.0034 18.3508 19.8598 18.59C19.7763 18.7283 19.6706 18.902 19.6578 18.9971C19.584 19.5302 18.999 19.783 18.4416 20.0282C18.2252 20.1205 18.0075 20.2175 17.8531 20.3116C17.2418 20.69 16.5721 20.5661 16.0368 20.4689L15.7775 20.4226C15.3463 20.3557 14.656 20.4639 14.132 20.9922C13.3308 21.7974 12.5336 21.6204 12.1705 21.5203C12.0503 21.592 11.8026 21.8515 11.6458 22.1311C11.343 22.6849 10.7646 22.8422 10.3289 22.7547L10.2851 22.7433C10.1062 22.7054 9.80748 22.6463 9.57872 22.6751L8.98307 22.7547L8.98945 22.6499C8.58186 22.7166 8.14896 22.6401 7.90341 22.4559C7.72292 22.3205 7.47004 21.9993 7.78939 21.3613C7.86344 21.2083 7.88875 21.1021 7.88875 20.9603C7.88875 20.4036 8.20834 19.9915 8.4326 19.8629C8.66774 19.7387 8.82244 19.6145 8.88537 19.427C8.94711 19.239 9.06823 19.0814 9.28823 18.9573C9.50586 18.8319 9.81552 18.6153 10.0637 18.52C10.3113 18.4261 10.6536 18.3291 10.8403 18.52C11.0284 18.7044 11.4591 19.0814 11.4591 19.0814C11.8544 18.774 11.8166 18.4197 12.0214 17.8308C12.2776 17.1006 12.8905 17.2977 13.2884 17.3361L13.3341 17.3425C13.3341 17.3425 13.5487 17.352 13.555 17.3554C13.5662 17.3489 13.6262 17.3203 13.6262 17.3203L13.7258 17.2677C13.7258 17.2677 14.3683 16.8876 14.3747 16.8845C14.3776 16.8766 14.3776 16.8652 14.3776 16.8459C14.3776 16.7999 14.3619 16.706 14.2751 16.5661C13.9894 16.1204 13.7873 15.2377 13.7507 14.4949C13.6475 14.5073 13.5479 14.5176 13.45 14.5254C11.8939 14.6513 10.9692 14.2547 10.4282 13.744Z" fill="#828282"/>
<path d="M14.2592 13.9523C14.2592 13.9523 14.1296 15.2165 14.6949 16.3306C14.6949 16.3306 15.1139 16.9288 14.6788 17.3129L13.8128 17.82C13.8128 17.82 13.6964 17.9073 13.3101 17.8777C13.3101 17.8777 12.7762 17.7445 12.5978 17.9821C12.5978 17.9821 12.4429 18.4389 12.2489 18.8154C12.2489 18.8154 11.8546 19.7282 11.2019 20.0206C11.2019 20.0206 10.6817 20.1407 10.5239 20.5951C10.5239 20.5951 10.3562 20.914 10.0203 20.9281C10.0203 20.9281 9.76978 21.0081 9.60395 21.5703C9.60395 21.5703 9.51359 21.934 9.51832 22.2128C9.51832 22.2128 9.94554 22.1563 10.224 22.2578C10.224 22.2578 10.9086 22.4895 11.2147 21.9213C11.2147 21.9213 11.8061 20.9011 12.2447 21.0546C12.2447 21.0546 13.1256 21.3515 13.7478 20.7038C13.7478 20.7038 14.6024 19.7632 15.8096 19.9567C15.8096 19.9567 17.1693 20.2341 17.5935 19.9181C17.5935 19.9181 18.451 19.4665 18.7727 19.3545C18.7727 19.3545 19.1664 19.238 19.2071 18.8038C19.2071 18.8038 19.4464 18.193 19.6206 17.9895L18.9719 17.9821C18.9719 17.9821 18.3845 18.9773 17.3865 19.2773C17.3865 19.2773 16.8408 19.497 15.7453 19.3185C15.7453 19.3185 14.1724 18.9596 12.7909 20.4626C12.7909 20.4626 12.6021 20.7374 12.3327 20.6276C12.3327 20.6276 13.096 19.3161 14.772 19.0054C14.772 19.0054 15.3206 18.8879 15.7781 18.9627C15.7781 18.9627 18.0356 19.0295 19.0824 16.7905C19.0824 16.7905 18.9691 14.8817 19.4689 14.4296C19.4689 14.4296 19.662 14.37 19.6234 14.7392C19.6234 14.7392 19.2799 16.7388 19.925 17.1261C19.925 17.1261 20.2995 17.4225 20.9924 17.3129C20.9924 17.3129 22.0427 17.0601 22.8964 17.2073C22.8964 17.2073 24.2093 17.5212 25.3375 17.3761C25.3375 17.3761 25.0446 16.9242 25.1021 16.384C25.1021 16.384 25.2637 15.9972 25.4489 16.246C25.4489 16.246 25.883 17.6906 27.0693 18.1241C27.0693 18.1241 28.1289 18.5128 28.1116 19.8666C28.1116 19.8666 27.9493 20.0523 26.5444 20.5551C26.5444 20.5551 26.0195 20.7222 25.8503 20.327C25.8503 20.327 25.1728 18.8662 24.5831 18.9112L23.4758 19.0018C23.4758 19.0018 23.098 19.0993 23.3762 19.4043C23.3762 19.4043 23.7554 19.9121 23.9103 20.2153C23.9103 20.2153 23.9555 20.4743 24.3118 20.4193C24.3118 20.4193 24.8059 20.1726 25.0846 21.0987C25.0846 21.0987 25.3396 21.5617 25.7713 21.7097C25.7713 21.7097 26.1751 21.8456 26.5541 21.6313C26.5541 21.6313 28.3829 20.955 28.7013 20.7153C28.7013 20.7153 29.0969 20.4922 29.4105 20.5994C29.4105 20.5994 29.9591 20.7312 30.185 20.2951L30.7518 19.4117C30.7518 19.4117 30.8763 19.1941 30.859 18.9208C30.859 18.9208 30.9103 18.6501 30.6837 18.3748C30.6837 18.3748 30.4696 18.1468 30.4358 17.9816L30.0317 17.025C30.0317 17.025 29.868 16.7696 29.6883 16.6645L29.1489 16.7043C29.1489 16.7043 29.5201 17.6599 29.7919 18.0493C29.7919 18.0493 30.1597 18.616 30.141 18.9763C30.141 18.9763 30.1167 19.2289 30.0178 19.3342C30.0178 19.3342 29.8933 19.5349 29.8432 19.6324C29.8432 19.6324 29.6797 19.9898 29.547 20.0692C29.547 20.0692 29.3176 20.206 29.2617 20.2115C29.2617 20.2115 29.1619 20.2393 29.236 20.0592C29.236 20.0592 29.5383 19.4184 29.5184 19.0757C29.5184 19.0757 29.5771 18.7187 29.3263 18.5097C29.3263 18.5097 28.7387 17.5753 28.6545 17.296C28.6545 17.296 28.4702 16.9223 28.372 16.8582C28.372 16.8582 28.1667 16.5863 28.4981 16.459C28.4981 16.459 29.3237 16.2713 29.4716 16.1693C29.4716 16.1693 29.8685 16.0482 30.1264 15.2153C30.1264 15.2153 30.4814 14.244 30.4762 13.6444C30.4762 13.6444 31.1722 14.9961 30.0623 16.3706C30.0623 16.3706 30.9406 16.6316 31.3039 16.3706C31.3039 16.3706 32.398 16.2095 32.6093 16.1509C32.6093 16.1509 32.8844 16.0839 32.7273 16.2806C32.7273 16.2806 32.3973 16.7534 32.3694 17.0632C32.3694 17.0632 32.3481 17.3098 32.1475 17.4542C32.1475 17.4542 31.5256 17.893 31.471 18.3131C31.471 18.3131 31.338 18.7175 31.6127 18.6207C31.6127 18.6207 31.985 18.447 32.1165 18.6219C32.1165 18.6219 32.1551 18.6403 32.0115 18.8026C32.0115 18.8026 31.638 19.13 31.6101 19.5695C31.6101 19.5695 31.6791 20.0766 31.8111 20.2396C31.8111 20.2396 31.9793 20.4746 32.2452 20.4C32.2452 20.4 32.3157 20.3425 32.443 20.3811C32.443 20.3811 32.5745 20.3807 32.918 20.261C32.918 20.261 33.4387 20.1169 33.6128 20.0549C33.6128 20.0549 34.2756 19.8161 34.6025 19.8328C34.6025 19.8328 34.8152 19.8092 35.0863 19.8638C35.0863 19.8638 35.9152 19.9586 36.4676 19.3435C36.4676 19.3435 36.8879 19.0078 37.0306 19.3338C37.0306 19.3338 38.039 20.6969 39.6713 20.3378C39.6713 20.3378 38.3726 19.7997 38.0357 19.0669C38.0357 19.0669 37.9908 18.4446 37.3104 17.5805C37.3104 17.5805 37.1025 17.2938 37.3031 17.2193C37.3031 17.2193 37.4192 17.1318 37.6726 17.388C37.6726 17.388 38.3189 18.0126 38.5523 18.5843C38.5523 18.5843 39.355 19.8061 40.5118 19.3955C40.5118 19.3955 39.6036 19.0426 39.1769 18.3843C39.1769 18.3843 38.9131 17.4935 38.0265 16.8308C38.0265 16.8308 37.9917 15.8297 37.5782 15.267C37.5782 15.267 37.3674 14.3269 37.3106 14.1072C37.3106 14.1072 37.0876 13.2814 37.089 13.0534C37.089 13.0534 37.1628 11.9748 36.4725 11.1352C36.4725 11.1352 36.01 10.237 35.2897 9.61122C35.2897 9.61122 34.7423 8.92989 34.3352 8.51261C34.3352 8.51261 33.7996 7.88014 32.632 7.05488C32.632 7.05488 32.1033 6.66762 31.716 6.2513C31.716 6.2513 29.6563 4.75781 28.1684 5.95579C28.1684 5.95579 27.1408 6.66 26.2825 6.87805C26.2825 6.87805 24.5187 7.0849 23.7667 8.31815C23.7667 8.31815 23.7024 8.54598 22.9915 8.63272C22.9915 8.63272 21.43 8.44279 20.2803 9.98989C20.2803 9.98989 19.7462 10.5151 18.6888 10.6429C18.6888 10.6429 16.9642 10.4651 15.8415 11.797C15.8415 11.797 13.0085 14.2866 11.3192 12.6721C11.3192 12.6721 10.444 11.8373 11.4446 10.3257C11.4446 10.3257 12.0793 9.55403 13.162 8.74783C13.162 8.74783 14.0404 8.12441 13.6378 7.1552C13.6378 7.1552 13.4251 6.21865 12.1086 6.19386C12.1086 6.19386 10.4567 5.87238 9.78871 5.0321C9.78871 5.0321 9.04284 7.67853 11.9702 7.63444C11.9702 7.63444 12.7332 7.74812 12.4668 8.35819C12.4668 8.35819 12.0928 8.88009 11.5908 9.07002C11.5908 9.07002 10.7077 9.45918 10.3087 10.7546C10.3087 10.7546 9.41683 13.0224 11.5927 13.8977C12.4301 14.1891 13.3974 14.1034 14.2592 13.9523ZM10.07 19.2961C10.188 19.1967 10.3609 19.1407 10.5145 19.177C10.8608 19.252 10.6512 19.5542 10.6512 19.5542C10.5109 19.8185 10.0532 20.2644 10.0532 20.2644C9.64606 20.5716 9.32363 20.2057 9.32363 20.2057C9.02202 19.9062 9.41447 19.7613 9.41447 19.7613C9.64275 19.6679 10.07 19.2961 10.07 19.2961ZM9.19707 20.7136C9.19707 20.7136 9.32363 20.8077 9.25597 20.9936C9.25597 20.9936 8.93284 21.8846 8.94798 22.1837C8.94798 22.1837 8.23286 22.3124 8.13374 21.9568C8.13374 21.9568 8.11458 21.8196 8.2312 21.6206C8.2312 21.6206 8.35256 21.4349 8.38402 21.0954C8.38402 21.0954 8.37337 20.2408 8.9229 20.4672C9.03195 20.5287 9.11806 20.618 9.19707 20.7136ZM34.4024 18.9053C34.2765 18.9022 34.2446 18.8557 34.2598 18.7161C34.3442 18.3279 34.6531 18.1603 34.6531 18.1603C35.2327 17.8115 35.3032 18.1608 35.3032 18.1608C35.4094 18.784 34.9205 18.8624 34.9205 18.8624C34.8228 18.8962 34.4024 18.9053 34.4024 18.9053ZM36.1508 16.1223C36.1614 15.8299 36.186 15.18 35.8911 14.9479C35.7822 14.8607 35.3517 14.3858 35.3517 14.3858C35.2862 14.2706 35.2358 14.2635 35.2358 14.2635C35.1471 14.2549 35.0326 14.4627 35.0326 14.4627C34.726 15.0587 34.4201 14.9861 34.4201 14.9861C34.4175 14.8774 34.4897 14.7561 34.4897 14.7561C34.6377 14.4665 34.7843 14.1763 34.9294 13.8853C34.9742 13.7819 35.0153 13.6441 35.0153 13.6441C35.3113 13.1821 35.5902 13.5338 35.5902 13.5338C35.7146 13.7785 36.3781 14.5759 36.3781 14.5759C36.5253 14.7523 36.5395 14.9417 36.5395 14.9417C36.6932 16.0339 36.1508 16.1223 36.1508 16.1223ZM30.0393 9.52924C29.9487 9.36505 29.9861 9.19752 30.0772 9.03785C30.2825 8.7209 30.4743 9.06668 30.4743 9.06668C31.1833 10.0623 30.6598 11.553 30.6598 11.553C30.5869 10.181 30.0393 9.52924 30.0393 9.52924ZM68.1047 13.9523C68.1047 13.9523 68.2343 15.2165 67.6689 16.3306C67.6689 16.3306 67.25 16.9288 67.685 17.3129L68.5513 17.82C68.5513 17.82 68.6674 17.9073 69.054 17.8777C69.054 17.8777 69.5877 17.7445 69.7658 17.9821C69.7658 17.9821 69.921 18.4389 70.1147 18.8154C70.1147 18.8154 70.5098 19.7282 71.1624 20.0206C71.1624 20.0206 71.6824 20.1407 71.8397 20.5951C71.8397 20.5951 72.0079 20.914 72.3433 20.9281C72.3433 20.9281 72.5943 21.0081 72.7599 21.5703C72.7599 21.5703 72.8505 21.934 72.846 22.2128C72.846 22.2128 72.4185 22.1563 72.1399 22.2578C72.1399 22.2578 71.4555 22.4895 71.1494 21.9213C71.1494 21.9213 70.558 20.9011 70.1194 21.0546C70.1194 21.0546 69.2387 21.3515 68.6163 20.7038C68.6163 20.7038 67.7619 19.7632 66.5545 19.9567C66.5545 19.9567 65.1952 20.2341 64.7708 19.9181C64.7708 19.9181 63.9133 19.4665 63.5916 19.3545C63.5916 19.3545 63.1977 19.238 63.1575 18.8038C63.1575 18.8038 62.9179 18.193 62.7438 17.9895L63.3922 17.9821C63.3922 17.9821 63.9793 18.9773 64.9774 19.2773C64.9774 19.2773 65.5236 19.497 66.6186 19.3185C66.6186 19.3185 68.1917 18.9596 69.5732 20.4626C69.5732 20.4626 69.7622 20.7374 70.0312 20.6276C70.0312 20.6276 69.2683 19.3161 67.592 19.0054C67.592 19.0054 67.0437 18.8879 66.5857 18.9627C66.5857 18.9627 64.3282 19.0295 63.281 16.7905C63.281 16.7905 63.3948 14.8817 62.8949 14.4296C62.8949 14.4296 62.7024 14.37 62.7402 14.7392C62.7402 14.7392 63.0835 16.7388 62.4388 17.1261C62.4388 17.1261 62.0641 17.4225 61.3713 17.3129C61.3713 17.3129 60.3212 17.0601 59.4677 17.2073C59.4677 17.2073 58.1543 17.5212 57.0261 17.3761C57.0261 17.3761 57.3192 16.9242 57.2618 16.384C57.2618 16.384 57.1 15.9972 56.9147 16.246C56.9147 16.246 56.4806 17.6906 55.2941 18.1241C55.2941 18.1241 54.2345 18.5128 54.2518 19.8666C54.2518 19.8666 54.4145 20.0523 55.8197 20.5551C55.8197 20.5551 56.3449 20.7222 56.514 20.327C56.514 20.327 57.1908 18.8662 57.7808 18.9112L58.8886 19.0018C58.8886 19.0018 59.2661 19.0993 58.9877 19.4043C58.9877 19.4043 58.609 19.9121 58.4535 20.2153C58.4535 20.2153 58.4088 20.4743 58.0523 20.4193C58.0523 20.4193 57.5582 20.1726 57.279 21.0987C57.279 21.0987 57.0245 21.5617 56.5928 21.7097C56.5928 21.7097 56.1887 21.8456 55.81 21.6313C55.81 21.6313 53.9812 20.955 53.663 20.7153C53.663 20.7153 53.2672 20.4922 52.9538 20.5994C52.9538 20.5994 52.4057 20.7312 52.1798 20.2951L51.613 19.4117C51.613 19.4117 51.4881 19.1941 51.5056 18.9208C51.5056 18.9208 51.454 18.6501 51.6809 18.3748C51.6809 18.3748 51.8952 18.1468 51.9288 17.9816L52.3331 17.025C52.3331 17.025 52.4968 16.7696 52.6763 16.6645L53.2161 16.7043C53.2161 16.7043 52.8445 17.6599 52.5725 18.0493C52.5725 18.0493 52.2046 18.616 52.2233 18.9763C52.2233 18.9763 52.2479 19.2289 52.3465 19.3342C52.3465 19.3342 52.471 19.5349 52.5214 19.6324C52.5214 19.6324 52.6841 19.9898 52.8173 20.0692C52.8173 20.0692 53.0465 20.206 53.1026 20.2115C53.1026 20.2115 53.2027 20.2393 53.1277 20.0592C53.1277 20.0592 52.8263 19.4184 52.8455 19.0757C52.8455 19.0757 52.7873 18.7187 53.0375 18.5097C53.0375 18.5097 53.6256 17.5753 53.7103 17.296C53.7103 17.296 53.8939 16.9223 53.9923 16.8582C53.9923 16.8582 54.1976 16.5863 53.8662 16.459C53.8662 16.459 53.0408 16.2713 52.893 16.1693C52.893 16.1693 52.4961 16.0482 52.238 15.2153C52.238 15.2153 51.8831 14.244 51.8881 13.6444C51.8881 13.6444 51.1921 14.9961 52.3023 16.3706C52.3023 16.3706 51.424 16.6316 51.0606 16.3706C51.0606 16.3706 49.9668 16.2095 49.7548 16.1509C49.7548 16.1509 49.4804 16.0839 49.637 16.2806C49.637 16.2806 49.9668 16.7534 49.9952 17.0632C49.9952 17.0632 50.016 17.3098 50.217 17.4542C50.217 17.4542 50.839 17.893 50.8931 18.3131C50.8931 18.3131 51.0263 18.7175 50.7514 18.6207C50.7514 18.6207 50.3793 18.447 50.2478 18.6219C50.2478 18.6219 50.2092 18.6403 50.3528 18.8026C50.3528 18.8026 50.7264 19.13 50.754 19.5695C50.754 19.5695 50.685 20.0766 50.5527 20.2396C50.5527 20.2396 50.3848 20.4746 50.1189 20.4C50.1189 20.4 50.0486 20.3425 49.9206 20.3811C49.9206 20.3811 49.7894 20.3807 49.4459 20.261C49.4459 20.261 48.9252 20.1169 48.7511 20.0549C48.7511 20.0549 48.0883 19.8161 47.7611 19.8328C47.7611 19.8328 47.5484 19.8092 47.2773 19.8638C47.2773 19.8638 46.4482 19.9586 45.8958 19.3435C45.8958 19.3435 45.4755 19.0078 45.3333 19.3338C45.3333 19.3338 44.3246 20.6969 42.6921 20.3378C42.6921 20.3378 43.9915 19.7997 44.3282 19.0669C44.3282 19.0669 44.3726 18.4446 45.053 17.5805C45.053 17.5805 45.2607 17.2938 45.0601 17.2193C45.0601 17.2193 44.9442 17.1318 44.6906 17.388C44.6906 17.388 44.045 18.0126 43.8113 18.5843C43.8113 18.5843 43.0082 19.8061 41.8519 19.3955C41.8519 19.3955 42.7595 19.0426 43.1863 18.3843C43.1863 18.3843 43.4501 17.4935 44.3374 16.8308C44.3374 16.8308 44.3719 15.8297 44.7857 15.267C44.7857 15.267 44.9967 14.3269 45.053 14.1072C45.053 14.1072 45.2758 13.2814 45.2744 13.0534C45.2744 13.0534 45.2006 11.9748 45.8911 11.1352C45.8911 11.1352 46.3533 10.237 47.0744 9.61122C47.0744 9.61122 47.6215 8.92989 48.0284 8.51261C48.0284 8.51261 48.5642 7.88014 49.7319 7.05488C49.7319 7.05488 50.2603 6.66762 50.6473 6.2513C50.6473 6.2513 52.7068 4.75781 54.1953 5.95579C54.1953 5.95579 55.2229 6.66 56.0816 6.87805C56.0816 6.87805 57.8449 7.0849 58.5964 8.31815C58.5964 8.31815 58.6608 8.54598 59.3716 8.63272C59.3716 8.63272 60.9332 8.44279 62.0831 9.98989C62.0831 9.98989 62.6172 10.5151 63.6749 10.6429C63.6749 10.6429 65.3984 10.4651 66.5211 11.797C66.5211 11.797 69.3544 14.2866 71.0439 12.6721C71.0439 12.6721 71.9187 11.8373 70.9183 10.3257C70.9183 10.3257 70.2838 9.55403 69.2013 8.74783C69.2013 8.74783 68.3223 8.12441 68.7254 7.1552C68.7254 7.1552 68.9381 6.21865 70.2545 6.19386C70.2545 6.19386 71.9064 5.87238 72.5742 5.0321C72.5742 5.0321 73.3205 7.67853 70.3927 7.63444C70.3927 7.63444 69.6295 7.74812 69.8961 8.35819C69.8961 8.35819 70.2701 8.88009 70.7721 9.07002C70.7721 9.07002 71.6552 9.45918 72.0545 10.7546C72.0545 10.7546 72.9465 13.0224 70.7697 13.8977C69.9335 14.1891 68.9664 14.1034 68.1047 13.9523ZM72.2941 19.2961C72.1758 19.1967 72.0029 19.1407 71.8499 19.177C71.5031 19.252 71.7129 19.5542 71.7129 19.5542C71.8534 19.8185 72.3111 20.2644 72.3111 20.2644C72.7187 20.5716 73.0407 20.2057 73.0407 20.2057C73.3418 19.9062 72.9492 19.7613 72.9492 19.7613C72.7213 19.6679 72.2941 19.2961 72.2941 19.2961ZM73.1665 20.7136C73.1665 20.7136 73.0407 20.8077 73.1076 20.9936C73.1076 20.9936 73.4308 21.8846 73.4159 22.1837C73.4159 22.1837 74.1315 22.3124 74.2299 21.9568C74.2299 21.9568 74.249 21.8196 74.1327 21.6206C74.1327 21.6206 74.0113 21.4349 73.9798 21.0954C73.9798 21.0954 73.9907 20.2408 73.4412 20.4672C73.3319 20.5287 73.2458 20.618 73.1665 20.7136ZM47.9612 18.9053C48.0873 18.9022 48.1197 18.8557 48.1041 18.7161C48.0194 18.3279 47.7109 18.1603 47.7109 18.1603C47.1314 17.8115 47.0606 18.1608 47.0606 18.1608C46.9549 18.784 47.4436 18.8624 47.4436 18.8624C47.5413 18.8962 47.9612 18.9053 47.9612 18.9053ZM46.2133 16.1223C46.2024 15.8299 46.1776 15.18 46.473 14.9479C46.5823 14.8607 47.0124 14.3858 47.0124 14.3858C47.0779 14.2706 47.1283 14.2635 47.1283 14.2635C47.2165 14.2549 47.3317 14.4627 47.3317 14.4627C47.6379 15.0587 47.9442 14.9861 47.9442 14.9861C47.9466 14.8774 47.8739 14.7561 47.8739 14.7561C47.726 14.4666 47.5795 14.1763 47.4344 13.8853C47.402 13.8063 47.3733 13.7258 47.3485 13.6441C47.0526 13.1821 46.7739 13.5338 46.7739 13.5338C46.6495 13.7785 45.9862 14.5759 45.9862 14.5759C45.8984 14.6796 45.8422 14.8066 45.8242 14.9417C45.6711 16.0339 46.2133 16.1223 46.2133 16.1223ZM52.3245 9.52924C52.4151 9.36505 52.3778 9.19752 52.2867 9.03785C52.0814 8.7209 51.89 9.06668 51.89 9.06668C51.1808 10.0623 51.7043 11.553 51.7043 11.553C51.7767 10.181 52.3245 9.52924 52.3245 9.52924Z" fill="#191B1D"/>
<path d="M0.0131836 30.1621V48.4264H3.67156V33.6479H5.39513C5.39513 33.6479 8.08575 33.5259 8.08575 35.9933C8.08575 38.4608 5.69698 38.3993 5.69698 38.3993H4.82006V42.6033L8.47914 48.4269H12.772L7.66254 40.959C7.66254 40.959 11.8652 40.5934 11.8652 35.9938C11.8652 31.3949 8.69039 30.1628 4.45788 30.1628L0.0131836 30.1621ZM53.5005 38.705C53.5005 38.705 55.1025 37.4496 55.1025 35.0706C55.1025 32.6903 53.3865 30.5446 49.7326 30.5446H43.6133V48.4266H51.1505C51.1505 48.4266 56.5528 48.3649 56.5528 43.4469C56.5531 40.592 55.4528 39.4986 53.5005 38.705ZM50.5523 45.3143H47.2722V33.6626H49.0253C49.0253 33.6626 51.4079 33.4825 51.4079 35.5765C51.4079 37.6705 49.5126 37.4858 49.5126 37.4858H48.4209V40.6249H50.5516C51.1101 40.6249 52.8895 40.8977 52.8895 42.9605C52.8892 45.0229 50.5523 45.3143 50.5523 45.3143ZM76.5702 29.803H79.987V48.4266H76.5702V29.803ZM70.6898 29.803H74.1516V48.4266H70.6898V29.803ZM57.5826 37.5168H61.0893V43.7605C61.0893 43.7605 61.2114 45.8631 63.176 45.8631C65.1406 45.8631 65.1115 43.7605 65.1115 43.7605V37.5464H68.6483V43.9745C68.6483 43.9745 69.1023 49.0002 63.2664 49.0002C57.4312 49.0002 57.5826 44.5837 57.5826 43.7918V37.5168ZM34.3315 29.803V38.2482C34.3315 38.2482 32.6382 36.9387 30.7019 36.9387C28.7676 36.9387 25.5021 38.3092 25.5021 42.634C25.5021 46.9591 28.2841 48.6049 30.6724 48.6049C33.0614 48.6049 34.3918 47.0206 34.3918 47.0206V48.4271H37.838V29.8032H34.3315V29.803ZM31.6702 45.5576C31.4885 45.5576 29.2208 45.5884 29.2208 42.7863C29.2208 39.9836 31.7 39.8923 31.7 39.8923C31.7 39.8923 34.4821 39.9836 34.4821 42.7251C34.4821 45.4666 31.8514 45.5576 31.6702 45.5576ZM18.6081 36.9382C24.4738 36.9382 24.2318 42.6953 24.2318 42.6953V43.6085H16.2801C16.2801 44.9178 17.3683 46.0452 18.8501 46.0452C20.3314 46.0452 21.0875 44.6137 21.0875 44.6137L23.899 46.0145C22.5991 47.9951 20.8455 48.7862 18.8804 48.7862C12.7724 48.7862 12.6516 43.6695 12.6516 43.0301C12.6516 42.39 12.7429 36.9382 18.6081 36.9382ZM16.3402 41.5064H20.6948C20.6948 41.5064 20.5134 39.4359 18.548 39.4359C16.5827 39.4357 16.3402 41.5064 16.3402 41.5064Z" fill="#191B1D"/>
</g>
<defs>
<clipPath id="clip0_105_575">
<rect width="80" height="49" fill="white"/>
</clipPath>
</defs>
</svg>
