<svg width="109" height="59" viewBox="0 0 109 59" fill="none" xmlns="http://www.w3.org/2000/svg">
<path fill-rule="evenodd" clip-rule="evenodd" d="M38.8288 24.8029C38.8288 24.8029 57.9314 19.0172 58.9662 18.6869L60.7729 12.0901L72.9409 8.71753L69.6012 20.3656C71.8841 18.4402 77.7368 13.4425 77.7368 13.4425L83.0438 20.8294L93.0913 10.0318L104.175 16.6968L90.252 29.2066L100.192 38.6206L88.235 48.9914C88.235 48.9914 82.7159 41.568 80.688 38.8014L70.4964 49.2398L64.5226 41.256C64.1811 42.8368 63.0495 48.3394 63.0495 48.3394L52.9246 44.246C52.9246 44.246 55.7633 30.5288 57.4654 24.1651C53.4431 30.7784 44.5176 47.8897 44.5176 47.8897L37.5112 44.6865C37.5112 44.6865 37.3207 41.5391 37.2257 40.4476C36.3447 42.5793 33.9481 48.4525 33.9481 48.4525L28.2453 45.9536C28.2453 45.9536 26.5692 36.983 26.0964 32.2C24.3762 37.4417 21.1835 49.7463 21.1835 49.7463L14.0895 47.4202C14.0895 47.4202 16.4623 37.266 17.751 32.8759L7.77368 38.5706L10.2578 30.0814L42.354 11.0868L38.8288 24.8029Z" fill="#828282"/>
<path d="M29.949 25.3758C29.949 25.3758 30.2628 27.1351 30.6377 29.3873M63.5737 23.6926C62.8781 28.4505 62.2677 33.2205 61.7426 38.0004C64.1612 35.2537 66.5272 32.7889 68.9638 30.103L63.5737 23.6926ZM68.9633 30.1035L63.5737 23.6926L68.9633 30.1035ZM30.6377 29.3873L32.013 25.1683L40.0089 22.6171L30.6377 29.3873ZM40.0089 22.6171C40.0089 22.6171 40.3872 24.7107 40.8277 27.2539C41.9191 24.4657 43.2389 21.4535 43.2389 21.4535C43.2389 21.4535 52.7147 18.6829 53.6834 18.3623L40.0089 22.6171ZM53.6828 18.3623L54.7499 11.6603L66.0974 8.47473L64.1018 20.2325L53.6828 18.3623ZM64.1018 20.2319C66.456 17.9432 68.8056 15.6497 71.1505 13.3514L64.1018 20.2319ZM71.1505 13.3514L76.9315 20.8941L85.2689 10.2085L96.2404 17.0696L84.5632 29.4078L94.7752 38.9071L84.6871 49.2778L71.1505 13.3514ZM84.6865 49.2778C84.6865 49.2778 78.7388 41.7993 76.5424 39.0003L84.6865 49.2778ZM76.5424 39.0003L67.9267 49.5478L61.3785 41.4264L76.5424 39.0003ZM61.3779 41.4259C61.2122 43.0346 60.6908 48.6383 60.6908 48.6383L61.3779 41.4259ZM60.6908 48.6383L50.4624 44.4517L60.6908 48.6383ZM50.4624 44.4511C50.4624 44.4511 51.8003 30.4241 52.7939 23.9365C49.5695 30.6595 42.6186 48.1881 42.6186 48.1881L50.4624 44.4511ZM42.6186 48.1887L35.3736 44.8826L42.6186 48.1887ZM35.3736 44.882C35.3736 44.882 34.8551 41.6299 34.6464 40.501C33.9973 42.7026 32.2324 48.7759 32.2324 48.7759L35.3736 44.882ZM32.233 48.7759L26.2847 46.1843L32.233 48.7759ZM26.2847 46.1843C26.2847 46.1843 23.662 36.8607 22.6842 31.8856C21.5092 37.3245 19.5944 50.1327 19.5944 50.1327L26.2847 46.1843ZM19.5944 50.1327L12.1708 47.71L19.5944 50.1327ZM12.1708 47.71C12.1708 47.71 13.5025 37.0971 14.3439 32.5194L12.1708 47.71ZM14.3439 32.5194L4.79126 38.4182L6.42776 29.5283L36.6477 10.2687L34.9043 21.4148L23.6914 27.2602L29.949 25.3758L14.3439 32.5194Z" stroke="#BDBDBD" stroke-width="1.84874" stroke-miterlimit="2.613"/>
<path fill-rule="evenodd" clip-rule="evenodd" d="M63.5737 23.6926C62.8781 28.4505 62.2677 33.2205 61.7426 38.0004C64.1612 35.2537 66.5272 32.7889 68.9638 30.103L63.5737 23.6926ZM30.6377 29.3873L32.013 25.1683L40.0089 22.6171C40.0089 22.6171 40.3872 24.7107 40.8277 27.2539C41.9191 24.4657 43.2389 21.4535 43.2389 21.4535C43.2389 21.4535 52.7147 18.6829 53.6834 18.3623L54.7504 11.6603L66.098 8.47473L64.1024 20.2325C66.4566 17.9438 68.8062 15.6503 71.1511 13.352L76.932 20.8947L85.2695 10.2091L96.241 17.0702L84.5638 29.4083L94.7758 38.9076L84.6876 49.2784C84.6876 49.2784 78.7399 41.7999 76.5435 39.0009L67.9279 49.5484L61.3796 41.427C61.2139 43.0357 60.6925 48.6394 60.6925 48.6394L50.4641 44.4528C50.4641 44.4528 51.802 30.4259 52.7956 23.9382C49.5712 30.6612 42.6203 48.1898 42.6203 48.1898L35.3753 44.8837C35.3753 44.8837 34.8568 41.6316 34.6481 40.5027C33.9984 42.7043 32.2341 48.7776 32.2341 48.7776L26.2858 46.186C26.2858 46.186 23.6631 36.8624 22.6854 31.8873C21.5103 37.3262 19.5956 50.1345 19.5956 50.1345L12.1719 47.7117C12.1719 47.7117 13.5036 37.0988 14.3451 32.5211L4.79126 38.4182L6.42776 29.5283L36.6477 10.2687L34.9043 21.4148L23.6914 27.2602L29.949 25.3758C29.949 25.3758 30.2628 27.1351 30.6377 29.3873Z" fill="white"/>
<path fill-rule="evenodd" clip-rule="evenodd" d="M93.5255 17.512L85.7139 12.6268L85.6805 12.67L76.9642 23.8405L70.9814 16.0346L64.6474 22.2722L71.3337 30.2259C68.3983 33.5223 62.4506 39.9895 62.4506 39.9895L67.9804 46.8473L76.6362 36.2509C79.1475 39.6848 84.9132 46.6529 84.9132 46.6529L92.3052 39.0533L82.1112 29.5716L93.4729 17.5683L93.5255 17.512ZM59.3449 46.3834L59.3692 46.1145C60.2429 36.5828 61.4621 26.8101 62.8028 18.5961L62.8503 18.3061L55.1168 19.9092C55.118 19.9092 55.0948 20.0462 55.0948 20.0462C53.7093 28.3836 52.8741 35.1231 52.2108 43.3087L52.1989 43.4576L59.3449 46.3834ZM63.0743 16.5246C63.0731 16.5246 63.9768 10.9573 63.9768 10.9573L56.1652 13.0571C56.1652 13.0571 55.8338 15.0114 55.7552 15.7135C55.6891 16.3149 55.3905 18.2311 55.3905 18.2311C55.3916 18.23 63.0743 16.5246 63.0743 16.5246ZM52.7966 20.4532L44.4315 22.9055C44.4315 22.9055 41.7053 29.1351 40.3069 33.6701C39.7532 30.0076 38.8151 24.8097 38.8151 24.8097L33.3113 26.5657L30.1361 36.2548C29.8511 34.4961 28.7507 27.5394 28.7507 27.5394L23.8208 29.0236L23.8508 29.2061C24.5695 33.549 25.4239 36.6653 26.3287 39.9662C26.7573 41.5295 27.6791 45.0777 27.6791 45.0777L31.2682 46.6409L32.1662 43.5508C33.0783 40.3931 34.1018 36.8517 35.1248 33.9037C35.3776 35.6091 36.6041 42.1218 36.8444 43.7197L36.8614 43.8317L41.7879 46.0787L41.8648 45.8769C44.6481 38.5684 48.9248 28.1715 52.5818 20.9108L52.7966 20.4532Z" fill="#191B1D"/>
<path fill-rule="evenodd" clip-rule="evenodd" d="M7.87944 30.5912L7.01538 35.2865L16.6523 29.336C15.613 33.9064 15.0588 38.1708 14.4752 42.6741L13.942 46.7089C13.942 46.71 18.3776 48.0925 18.3776 48.0925L18.42 47.8071C19.3757 41.3553 20.2805 35.5264 21.6761 29.5339L21.727 29.3161L18.6717 28.302L33.5489 20.4507L34.668 13.5696L7.87944 30.5912ZM89.1974 9.71214C89.1974 9.13062 89.617 8.70429 90.1429 8.70429C90.6609 8.70429 91.0884 9.13062 91.0884 9.71214C91.0884 10.3005 90.6609 10.728 90.1429 10.728C89.617 10.7274 89.1974 10.3005 89.1974 9.71214ZM88.8547 9.71214C88.8547 10.4972 89.4621 11.0031 90.1423 11.0031C90.8215 11.0031 91.4299 10.4972 91.4299 9.71214C91.4299 8.93451 90.8215 8.42859 90.1423 8.42859C89.4621 8.42859 88.8547 8.93394 88.8547 9.71214ZM89.6447 10.4312H89.9218V9.81446H90.0954L90.437 10.4312H90.7287L90.3533 9.80082C90.5608 9.78377 90.722 9.68145 90.722 9.41769C90.722 9.10618 90.524 8.99362 90.1729 8.99362H89.6447V10.4312ZM89.9218 9.21589H90.1559C90.2831 9.21589 90.4432 9.23976 90.4432 9.39381C90.4432 9.56832 90.3261 9.5922 90.1695 9.5922H89.9218V9.21589Z" fill="#191B1D"/>
</svg>
