<svg width="130" height="70" viewBox="0 0 130 70" fill="none" xmlns="http://www.w3.org/2000/svg">
<path fill-rule="evenodd" clip-rule="evenodd" d="M115.999 15.4645C112.579 14.4151 108.832 15.8332 106.884 18.9129C106.576 19.3993 106.305 19.9119 106.131 20.4622C106.036 20.7656 105.932 21.0663 105.864 21.3764C105.793 21.6953 105.795 22.0135 105.723 22.3284C105.662 22.5981 105.685 22.8739 105.701 23.1477C105.767 24.2362 105.875 25.291 106.222 26.3358C106.51 27.1989 106.815 28.2033 106.815 29.2137C106.815 30.6116 106.135 31.5568 104.846 31.9477C104.235 32.1333 103.588 32.054 103.021 31.7674C102.449 31.4788 102.115 31.1599 101.76 30.65C101.383 30.1098 101.09 29.6765 100.535 29.3503C99.9392 29.0018 99.2608 28.9769 98.6167 29.2016C97.6354 29.5447 96.8173 30.5524 96.5813 31.7075C96.3681 32.7617 96.584 34.1468 97.1188 35.1532C98.2093 37.2044 100.075 38.5276 102.51 38.9797C106.721 39.7627 111.159 37.9538 113.301 34.5801C114.564 32.5895 114.889 30.5854 114.351 28.0856C114.184 27.2566 113.947 26.4433 113.642 25.6543C113.385 24.9823 112.998 23.9678 112.982 23.1296C112.969 22.4703 113.221 21.9503 113.67 21.7034C114.396 21.3038 115.171 21.6287 115.971 22.6661C116.303 23.0973 116.763 23.6045 117.377 23.7041C117.379 23.7041 117.411 23.7095 117.418 23.7122C117.915 23.8359 118.467 23.7041 119.013 23.3341C119.715 22.8578 120.175 21.8891 120.187 20.8652C120.218 18.3364 118.612 16.2671 115.999 15.4645ZM102.464 18.3472C101.412 17.7289 100.145 17.5163 98.9384 17.6327C96.9205 17.8258 95.3255 18.6748 93.1437 20.4555C92.4902 20.9883 92.2346 21.3765 91.5365 22.1037L91.3126 22.3371L91.1386 22.064C91.0668 21.9466 90.987 21.8342 90.8999 21.7276C90.1027 20.7663 88.7768 20.397 87.347 20.7394C86.3643 20.9755 85.408 21.4659 84.1542 22.3761C82.7636 23.3879 80.8705 25.1323 80.0038 26.5719C79.3388 27.6752 79.1803 28.7098 79.5034 29.8293C79.7617 30.7233 80.3093 31.4176 81.087 31.838C81.8126 32.2296 82.7589 32.3197 83.3881 32.0567L83.873 31.8542L83.7294 32.358C83.5041 33.1593 82.9524 34.4139 82.4756 35.349C81.6063 36.9864 81.5732 38.1926 82.3636 39.2656C82.9909 40.1173 83.9391 40.4072 84.6257 40.498C85.8336 40.6608 87.1716 40.3258 88.0362 39.6437C89.1255 38.7833 89.4613 37.9208 89.8174 37.0093L89.9874 36.5807L90.4183 35.6309C90.8823 34.5881 91.6815 32.8458 92.6325 31.2521C94.6902 27.8064 96.7384 25.4861 99.1238 25.0556C100.142 24.8719 100.558 25.0327 100.856 25.2339C101.279 25.5184 101.716 25.8138 102.422 25.7424C103.079 25.6772 103.453 25.2803 103.677 25.0428C104.778 23.8743 105.105 19.9018 102.464 18.3472ZM80.399 33.1915C79.8959 32.2961 79.1581 31.8064 78.2651 31.7768C77.6541 31.7566 76.9271 32.054 76.2695 32.5942L75.6018 33.1525L75.0104 33.647L75.1931 32.8989C75.4967 31.66 75.8469 30.433 76.2432 29.2204L76.2446 29.2124L76.2486 29.2043C76.6742 27.8562 76.981 27.1283 77.0296 26.1878C77.1018 24.7872 76.2007 23.6886 74.7878 23.4525C73.8976 23.3038 72.8778 23.4854 71.9903 23.949L71.79 24.0613L71.6611 23.8904C71.1696 23.2733 70.554 22.7656 69.8539 22.4C69.1539 22.0343 68.3849 21.8188 67.5964 21.7673C64.0057 21.5103 59.5457 23.9967 56.2343 28.1017C53.1515 31.9221 51.7581 36.2013 52.4123 39.8408C52.763 41.7903 54.2171 43.68 55.8688 44.3332C58.4869 45.3672 62.4674 44.1704 65.7747 41.3571L65.9933 41.1721C66.5132 40.7321 67.0062 40.3157 67.5357 39.7567L67.6834 39.6107L67.9902 39.3113L68.1062 39.7224C68.4016 40.7812 69.2258 41.7237 70.2071 42.1213C71.9552 42.8337 74.222 42.3326 76.5905 40.7126C77.7816 39.898 79.3341 38.5747 80.1191 37.3059C81.0202 35.8481 81.1139 34.4637 80.399 33.1915ZM68.2485 28.8148C68.2391 29.4411 67.8958 30.0997 67.7913 30.2867C66.9982 31.7008 65.2662 33.8912 62.9927 35.4122C62.2468 35.91 61.1293 36.3843 60.4812 36.5565L60.09 36.6588L60.1676 36.2632C60.5823 34.1421 61.5326 32.3533 63.0737 30.7946L63.075 30.7933C64.9405 28.9386 67.04 28.2625 68.0678 28.5686L68.2519 28.6231L68.2485 28.8148ZM28.9915 16.3357C26.3295 18.7737 21.3192 24.4905 15.9548 32.5794C12.9853 37.057 8.15366 45.156 7.18518 48.0857C6.8419 49.1251 6.48243 51.113 7.94122 52.7504C8.59241 53.4746 9.469 53.9592 10.4299 54.1261C11.3747 54.2903 12.2926 54.1275 13.0143 53.6673C13.6422 53.2664 14.0306 52.6858 14.3975 51.5967C16.153 46.3911 20.2563 38.8303 25.1054 31.8663L25.8689 30.6513C25.5422 32.2042 25.2276 33.7596 24.9253 35.3174C24.1302 39.7204 23.7269 42.9118 23.7269 44.7988C23.7269 46.5754 23.9771 48.7645 25.9316 49.9438C26.8967 50.5257 28.3116 50.7228 29.297 50.414C30.4044 50.0642 30.7679 49.3827 31.2683 48.4402L31.4194 48.1577C34.4907 42.4792 38.3033 36.724 42.1556 31.9557L42.7113 31.2669L42.6041 32.1448C42.4314 33.5582 42.3391 36.1791 42.3391 37.5279C42.3391 39.0994 42.4112 40.4906 42.5488 41.5535C42.9919 44.9858 44.3772 47.0618 46.6655 47.7224C48.247 48.1799 49.6633 47.8657 50.5738 47.52C52.2714 46.8788 52.5897 45.6054 52.6477 45.2313C52.8095 44.1684 52.3132 43.4405 51.6259 42.4314L51.5578 42.3319C51.2246 41.8415 51.1019 41.2831 50.9758 40.603C50.5967 38.568 50.4868 35.799 50.6891 33.3765C50.9798 29.9046 51.4216 27.0361 52.0414 24.6082L52.1021 24.3728C52.3098 23.5689 52.5674 22.5699 52.4649 21.9214C52.2403 20.5006 51.4755 19.6065 49.9871 19.0219C48.5674 18.4649 47.0216 18.4259 45.8508 18.9176C45.1204 19.2244 44.4534 19.7653 43.4775 20.6566C41.2681 22.6748 37.5479 26.8403 35.1827 29.943L34.252 31.1673L35.118 28.4475L35.7971 26.1622C36.168 24.8854 36.8067 23.1208 37.2728 21.8319C37.4333 21.3988 37.5878 20.9635 37.7361 20.5261C38.3114 18.8531 38.2352 17.6724 37.4913 16.6923C36.8202 15.8063 35.9644 15.3327 34.5373 15.0575C32.2948 14.625 30.3767 15.0663 28.9915 16.3357Z" fill="#F8F8F8"/>
<path fill-rule="evenodd" clip-rule="evenodd" d="M118.467 19.8232C118.46 19.7833 118.453 19.7436 118.443 19.7041C118.176 18.5188 117.14 17.4485 115.539 16.9574C112.422 16.0001 108.85 17.6301 107.596 20.9662C107.076 22.348 107.119 24.0749 107.708 25.8448C108.102 27.0315 108.526 28.4792 108.331 29.9908C108.081 31.9296 106.727 33.156 105.03 33.5078C103.168 33.894 101.583 33.1715 100.409 31.4156C99.9607 30.7449 99.6606 30.4933 99.1332 30.677C98.6881 30.8324 98.2443 31.3847 98.1148 32.0204C97.9806 32.6804 98.1607 33.5516 98.5242 34.1725C99.8022 36.3548 102.497 37.415 105.339 37.1224C107.981 36.8493 110.252 35.5193 111.598 33.6693C113.146 31.5408 113.287 28.7591 112.033 25.4701C111.012 22.7987 111.307 20.9817 112.825 20.136C114.016 19.4996 115.527 19.8696 116.429 21.1821C116.823 21.7587 117.028 21.9241 117.345 21.9739C117.981 22.0742 118.741 21.3315 118.467 19.8232ZM81.3431 27.3901C80.6923 28.4113 80.8333 29.3376 81.3418 29.8186C81.8807 30.3272 82.6617 30.1799 83.5627 29.2797C83.9262 28.9158 84.4995 28.3958 84.8562 28.1704C85.066 28.0379 85.4477 27.7708 85.7256 27.8751C86.0338 27.9915 85.9906 28.5815 85.9798 28.8378C85.9245 30.1247 85.1537 33.5442 83.8682 36.0602C83.3152 37.1009 83.2902 37.6155 83.5863 38.0259C84.0274 38.6354 85.5765 38.7107 86.748 37.9498C87.6133 37.3888 87.9849 36.5412 88.368 35.779C88.9439 34.6373 89.6811 32.6831 91.1567 30.2572C93.4855 26.426 95.846 23.8455 98.6915 23.4223C99.749 23.2635 100.413 23.4243 100.893 23.7856C101.268 24.0648 101.511 24.1697 101.838 24.1199C102.119 24.0762 102.319 23.9228 102.482 23.6853C103.108 22.7973 103.028 21.205 102.321 20.3601C101.562 19.4532 100.545 19.0455 99.088 19.1855C97.4492 19.3436 95.9357 20.0136 94.1182 21.6766C92.8401 22.8444 91.6801 24.2995 91.0097 25.308C90.8054 25.6141 90.6307 25.871 90.421 25.8455C90.2051 25.8192 90.2355 25.4634 90.2456 25.2387C90.2955 24.2471 90.1849 23.3227 89.6899 22.7233C89.205 22.1381 88.3936 22.0997 87.7165 22.2612C86.7986 22.4818 86.0041 22.9514 85.1017 23.6261C83.4865 24.8344 82.085 26.2276 81.3431 27.3901ZM69.8057 39.6243C70.58 40.665 71.8553 40.6939 73.3006 40.2311C75.2065 39.6202 77.105 38.2102 78.4364 36.6017C79.3374 35.5152 79.5957 34.3682 78.8471 33.6141C78.3966 33.16 77.6763 33.3168 76.9857 33.8832C76.4981 34.2835 75.5761 35.1634 75.0899 35.417C74.2259 35.8704 73.7174 35.8691 73.3694 35.5563C73.074 35.2906 73.0463 34.6642 73.2203 33.6397C73.5077 31.9484 74.4464 28.8674 74.9752 27.5481C75.5532 26.1072 75.5363 25.797 75.3522 25.4627C75.2153 25.2124 74.9003 25.0449 74.5726 24.9985C73.9865 24.9151 73.2433 25.0476 72.7321 25.3221C72.3274 25.5333 71.9716 25.8266 71.6874 26.1832C71.57 26.3298 71.4689 26.3897 71.361 26.3729C71.249 26.3554 71.1869 26.204 71.1357 26.0735C70.522 24.4899 69.2048 23.4459 67.4843 23.3227C64.6106 23.1176 60.5715 25.2131 57.4522 29.0786C54.0808 33.2569 52.3563 39.2388 55.3258 41.7272C57.2115 43.3068 60.6915 43.0007 64.8116 39.7447C65.9075 38.8775 67.452 37.3693 68.3631 36.3575C68.5729 36.1234 68.9161 35.6821 69.1326 35.861C69.2406 35.9505 69.2028 36.1934 69.192 36.3118C69.0753 37.6828 69.2534 38.8822 69.8057 39.6243ZM59.1019 37.7823C58.0484 36.8614 58.3506 34.1456 60.2551 31.3908C62.1388 28.6662 65.0368 26.7826 66.9178 26.7752C67.7582 26.7705 68.4103 27.0483 68.9647 27.6067C69.4193 28.0635 69.6958 28.5747 69.7578 29.1243C69.9305 30.5142 67.3353 34.3871 63.8647 36.7093C61.6748 38.1698 59.9625 38.5351 59.1019 37.7823ZM49.1885 40.2802C48.7649 38.2277 48.717 35.528 48.9565 32.6145C49.1993 29.6578 49.6923 26.4886 50.4739 23.5441C50.9319 21.8205 50.7754 21.0099 49.4124 20.4751C48.4014 20.0789 47.2785 20.0123 46.4557 20.3574C45.9492 20.5699 45.3901 21.0254 44.5322 21.8098C41.0893 24.9561 35.9589 31.0874 32.6144 36.227C32.2889 36.676 31.9712 37.1306 31.6615 37.5906C31.507 37.8261 31.3741 37.9653 31.2844 37.9492C31.1644 37.9297 31.1644 37.7104 31.2035 37.4117C31.2689 36.9253 31.2946 36.6878 31.3768 36.1987C32.3521 30.4772 34.7146 23.0146 36.1444 19.6645C36.4121 19.0368 36.5092 18.3035 36.2826 17.8521C36.0014 17.2904 35.3398 16.804 34.2371 16.5908C32.5443 16.2632 31.0747 16.5464 30.0496 17.4855C27.1003 20.1878 22.1277 26.0998 17.2597 33.4406C14.1027 38.2014 9.53955 45.9486 8.67156 48.5762C8.3964 49.4064 8.54275 50.0482 8.79566 50.4969C9.1848 51.1878 9.95837 51.7939 10.7589 52.0462C11.5945 52.3079 12.4524 52.0226 12.8213 50.8844C15.3275 43.1689 21.717 32.6467 27.5043 25.7775C27.7572 25.4755 27.8718 25.3389 28.0715 25.1357C28.3068 24.9077 28.5193 24.7644 28.698 24.8646C28.8113 24.9272 28.7884 25.129 28.7182 25.4008C28.6137 25.8058 28.6184 25.7681 28.5051 26.1987C27.8428 28.6904 27.0639 32.2821 26.4657 35.5946C25.7002 39.8308 25.1809 43.5886 25.311 45.4016C25.3839 46.4242 25.7501 47.3135 26.7516 47.9109C28.3419 48.8595 29.2693 48.4525 29.9558 47.1723C34.726 38.2754 39.6615 31.7991 43.47 27.7392C43.8396 27.3241 44.0399 27.1465 44.2092 27.0153C44.4169 26.8788 44.5511 26.8573 44.6563 26.9185C44.7629 26.9763 44.7946 27.0853 44.7676 27.2858C44.7136 27.676 44.7217 27.713 44.6563 28.0971C43.9475 32.2734 43.6878 38.1463 44.1013 41.3552C44.371 43.4433 45.0509 44.8816 46.5211 45.4548C47.3648 45.7817 48.5248 45.8214 49.4663 45.5308C50.1664 45.3142 50.6675 44.9314 50.7977 44.4154C50.9481 43.8281 50.4928 43.2422 50.0133 42.4578C49.6923 41.9358 49.3726 41.1695 49.1885 40.2802Z" fill="#4F4F4F"/>
<path fill-rule="evenodd" clip-rule="evenodd" d="M28.5639 25.4721C28.6225 25.3489 28.7972 24.9796 28.6981 24.8693L28.6853 24.8592C28.625 24.8298 28.5558 24.8245 28.4917 24.8444C28.429 24.8686 28.3636 24.9063 28.3062 24.9379C28.2225 24.9974 28.1438 25.0635 28.0709 25.1357C27.8712 25.3389 27.7566 25.4754 27.5037 25.7775C21.7164 32.6467 15.3269 43.1695 12.8207 50.8843C12.4518 52.0219 11.5939 52.3071 10.7583 52.0461C10.0807 51.8225 9.48297 51.4072 9.03784 50.8507C8.98793 50.8022 8.94544 50.7861 8.88339 50.8258C8.75863 50.922 8.91712 51.5106 9.29952 51.9466C9.66506 52.363 10.0994 52.6839 10.699 52.8399C11.8489 53.1393 13.0325 52.6596 13.4634 51.3828C16.1065 43.5442 21.4871 34.6817 27.1907 27.4149C27.6925 26.7745 28.2509 26.132 28.5639 25.4721ZM69.1745 35.9202C69.1647 35.8979 69.1504 35.8778 69.1327 35.861C69.1218 35.8521 69.1098 35.8447 69.097 35.8388C69.0481 35.8248 68.9966 35.8225 68.9466 35.8321C68.7503 35.8939 68.5183 36.1825 68.3632 36.3575C67.4514 37.3692 65.9076 38.8775 64.8117 39.7446C61.0882 42.6865 57.8893 43.2186 55.916 42.1294C55.8411 42.1032 55.7757 42.0924 55.7399 42.19C55.6968 42.3097 56.1898 42.8432 56.7637 43.1029C59.1465 44.1826 62.8457 42.3891 65.3114 40.3777C66.0774 39.7595 66.8007 39.0904 67.4763 38.375C68.2931 37.4984 68.6235 36.9952 69.0849 36.2148C69.1665 36.0769 69.1887 35.9807 69.1745 35.9202ZM74.976 27.5488C74.4479 28.8673 73.5084 31.9491 73.2211 33.6403C73.0471 34.6649 73.0748 35.2919 73.3702 35.5569C73.5003 35.674 73.6534 35.7473 73.8389 35.7695C73.9603 35.7762 74.0284 35.7157 74.0351 35.6444C74.0446 35.5381 73.905 35.534 73.8402 35.236C73.7822 34.973 73.9643 33.9181 74.0142 33.6571C74.2658 32.3184 74.9611 29.7647 75.5081 28.3601C75.7017 27.8643 75.9654 27.1633 75.9256 26.4341C75.906 26.0466 75.6781 25.5373 75.5068 25.6066C75.4649 25.6241 75.4501 25.6577 75.4434 25.6974C75.5169 25.988 75.4238 26.4307 74.976 27.5488ZM103.228 20.9756C102.983 20.5591 102.585 20.2907 102.462 20.3943C102.421 20.43 102.432 20.4824 102.456 20.5437C103.034 21.4189 103.065 22.8572 102.482 23.6853C102.319 23.9228 102.118 24.0762 101.838 24.1199C101.51 24.1697 101.267 24.0647 100.892 23.7855C100.413 23.425 99.7491 23.2642 98.6909 23.4223C95.8455 23.8447 93.485 26.4253 91.1562 30.2572C89.6805 32.6823 88.9434 34.6373 88.3674 35.7789C87.9843 36.5411 87.6127 37.3887 86.7474 37.9498C85.8397 38.5384 84.7086 38.6252 84.0376 38.3521C83.96 38.34 83.9101 38.3548 83.8926 38.3978C83.8413 38.5277 83.9506 38.6346 84.1098 38.7537C84.8961 39.3423 86.3448 39.1674 87.1696 38.6501C88.1091 38.0588 88.5846 37.2024 88.9704 36.4389C89.545 35.2972 90.3839 33.1136 91.7922 30.755C94.0184 27.0267 96.2549 24.5834 98.9499 24.0977C100.003 23.908 100.759 23.9941 101.401 24.4273C101.789 24.6883 101.915 24.8215 102.261 24.7872C102.541 24.759 102.767 24.5847 102.966 24.3755C103.322 23.9981 103.631 23.3422 103.649 22.6136C103.662 22.0394 103.516 21.4726 103.228 20.9756ZM59.1991 37.6827C59.3475 37.534 59.2085 37.3881 59.1822 37.1627C59.0777 36.2787 59.2335 35.5495 59.4952 34.7348C59.7872 33.8213 60.2755 32.7738 60.8865 31.9074C62.6946 29.3409 64.8933 27.9874 66.5888 27.6228C67.0144 27.5319 67.5809 27.4842 68.1548 27.6577C68.6384 27.8044 68.9857 28.0937 69.0929 27.9692C69.1536 27.8986 69.1287 27.8091 69.0666 27.7149C69.0336 27.6786 69.0005 27.6423 68.9655 27.6059C68.4111 27.0476 67.7589 26.7697 66.9186 26.7745C65.0369 26.7825 62.1396 28.6662 60.2559 31.39C58.4066 34.0655 58.0735 36.6992 59.019 37.6928C59.0858 37.7231 59.1532 37.7285 59.1991 37.6827ZM116.331 14.3929C112.401 13.1867 108.103 14.8013 105.88 18.3203C105.642 18.7033 105.432 19.103 105.252 19.5164C104.706 18.6928 103.993 17.9916 103.16 17.4572C101.939 16.6862 100.443 16.3593 98.8305 16.514C96.6426 16.7239 94.6194 17.663 92.4632 19.466C92.126 19.7478 91.7186 20.1407 91.3214 20.5558C90.2322 19.5998 88.7134 19.2574 87.088 19.6469C85.9496 19.9194 84.8752 20.4643 83.4933 21.4687C82.0143 22.5444 79.9897 24.4192 79.0407 25.9934C79.0225 26.025 79.0145 26.06 78.9962 26.0916C78.7588 24.2094 77.1625 22.7085 74.9733 22.3432C74.0405 22.1878 73.0437 22.3217 72.0793 22.6998C70.9154 21.4971 69.3474 20.7653 67.676 20.6446C63.7279 20.3634 58.8915 23.0132 55.3555 27.3954C54.3655 28.617 53.5149 29.9449 52.8197 31.3544C53.0119 29.9033 53.3053 28.2114 53.9932 24.9305C54.1402 24.3614 54.2926 23.6483 54.2926 22.878C54.2926 22.5861 54.2704 22.2867 54.2191 21.984C53.9331 20.325 52.4696 18.7892 50.3985 17.9765C48.7111 17.3146 46.8469 17.2789 45.4118 17.8817C44.531 18.2524 43.7844 18.8518 42.7147 19.8292C41.6518 20.8 40.1512 22.3553 38.6257 24.0566C38.951 23.1993 39.2663 22.3381 39.5712 21.4734C39.8079 20.7906 39.9684 20.1542 39.9684 19.4384C39.9678 19.1427 39.9416 18.8476 39.8902 18.5564C39.752 17.7566 39.2617 16.8464 38.511 15.994C37.5864 14.9439 36.3211 14.2577 34.7504 13.9543C32.1444 13.4504 29.8891 13.9873 28.2294 15.507C25.5209 17.9893 20.4343 23.7869 15.0153 31.9598C12.0114 36.488 7.11437 44.712 6.11487 47.7339C5.38716 49.9344 5.76821 52.2049 7.13528 53.808C7.9392 54.7511 8.87732 55.3808 10.0036 55.7327C11.5035 56.2029 12.9529 56.106 14.0832 55.4582C15.4766 54.659 15.7963 53.8591 16.3331 52.2668C17.7386 48.0992 21.0386 42.0023 23.2325 38.6232C22.8204 41.3087 22.5992 43.407 22.5992 44.7988C22.5992 46.7329 22.5992 49.1399 25.1877 51.253C26.6424 52.4397 28.4654 52.5971 29.5856 52.3697C31.4214 51.9977 32.1673 51.3593 33.2174 49.2664C35.7 44.6757 38.6547 39.9902 41.2364 36.5256L41.2128 37.5293C41.2128 39.1466 41.2876 40.5882 41.4306 41.6982C42.0936 46.8372 44.798 48.6435 46.3499 49.2624C47.9631 49.9062 49.6438 49.9761 51.2078 49.4635C53.7328 48.6381 54.4228 46.9852 54.557 45.744C54.5685 45.6431 54.5739 45.5402 54.5739 45.4379C54.5739 45.3592 54.5395 45.2765 54.5327 45.1978C54.814 45.4016 55.104 45.5879 55.4034 45.742C58.5098 47.3451 62.7344 46.445 66.7034 43.3363C67.217 42.9409 67.714 42.5246 68.1933 42.0884C68.749 42.7457 69.387 43.3114 69.9481 43.6216C72.0598 44.7867 74.8654 44.4282 77.4511 42.6596C78.427 41.9922 80.132 40.7309 81.1787 39.4446C81.2697 39.6074 81.3419 39.7756 81.4566 39.931C82.5431 41.4049 83.7037 42.153 85.2212 42.3562C86.74 42.56 88.3721 42.1436 89.4795 41.2697C90.7427 40.2714 91.2418 39.082 91.8191 37.7036L92.1948 36.827C92.9299 35.1593 93.6543 33.7271 94.3449 32.5713C95.0314 31.4237 95.6755 30.4839 96.2973 29.6981C95.9156 30.2309 95.6135 30.8323 95.4806 31.4862C95.4123 31.8337 95.3788 32.187 95.3808 32.5411C95.3808 33.5751 95.6404 34.7039 96.1227 35.674C97.574 38.5949 99.8125 40.299 102.965 40.8849C107.618 41.748 112.552 39.6969 114.967 35.896C116.383 33.6665 116.764 31.3376 116.167 28.5653C115.989 27.6808 115.736 26.8132 115.411 25.9719C115.18 25.3705 114.835 24.4677 114.823 23.8252C114.818 23.5548 114.893 23.4216 114.93 23.4021C114.963 23.3846 115.042 23.3415 115.378 23.7102L115.448 23.7889C115.442 23.7835 115.842 24.2739 115.842 24.2739C116.042 24.5343 116.784 25.396 117.924 25.5615C118.788 25.6846 119.61 25.4889 120.364 24.9776C121.375 24.2914 122.013 22.9957 122.03 21.5945V21.5205C122.029 18.3486 119.696 15.4262 116.331 14.3929ZM76.9993 26.1858C76.9581 26.9891 76.7544 27.5979 76.4449 28.5195L76.2156 29.2124C75.8191 30.4257 75.4684 31.6534 75.1641 32.8929L74.9598 33.7271L76.2891 32.6151C76.9399 32.0823 77.6602 31.7869 78.2638 31.8071C79.1453 31.8361 79.8764 32.3204 80.3741 33.2071C81.0843 34.4684 80.9892 35.8421 80.0935 37.2912C79.3112 38.5566 77.762 39.8758 76.5723 40.6891C74.2118 42.3023 71.9552 42.8035 70.2165 42.0965C69.2433 41.6996 68.4253 40.7645 68.1326 39.7144L68.0058 39.2542L67.5195 39.7271C66.9847 40.2909 66.4944 40.706 65.9771 41.1459L65.7545 41.335C62.4545 44.1402 58.4869 45.3343 55.8775 44.3044C54.2339 43.6565 52.7873 41.7749 52.4393 39.8341C51.7864 36.2027 53.1771 31.9323 56.2552 28.1179C59.5599 24.0217 64.0111 21.5393 67.5923 21.7956C68.3772 21.8468 69.1427 22.0611 69.8396 22.4249C70.5365 22.7887 71.1494 23.2939 71.6389 23.908L71.7853 24.0896L72.0024 23.9746C72.8852 23.5131 73.8982 23.3341 74.7817 23.4815C76.1812 23.7142 77.0714 24.802 76.9993 26.1858ZM91.341 22.2013L91.5797 21.9793C92.0777 21.3946 92.6207 20.8496 93.2037 20.3492C95.1744 18.7024 96.9974 17.8474 98.9418 17.661C100.296 17.5312 101.541 17.7969 102.542 18.43C103.764 19.2029 104.507 20.6762 104.531 22.3708L104.506 23.026C104.441 23.6173 104.254 24.1569 103.906 24.7522C103.526 25.2595 103.197 25.6456 102.61 25.7472C102.118 25.8326 101.594 25.6672 101.294 25.4653C100.574 24.9823 100.005 24.8673 99.1191 25.0274C96.9455 25.4189 94.937 27.3342 92.6069 31.2367C91.8913 32.4368 91.1447 33.9114 90.3914 35.6201L90.0097 36.5135C89.4512 37.8449 89.0466 38.8075 88.0181 39.6195C87.1609 40.2963 85.8302 40.6299 84.6291 40.4698C83.9492 40.3777 83.0104 40.0924 82.3873 39.2482C81.6049 38.1853 81.6407 36.9871 82.5006 35.3659C82.9605 34.4664 83.5264 33.1923 83.7584 32.3662L83.9162 31.8044L83.3773 32.0298C82.7555 32.2895 81.8201 32.1993 81.1025 31.8118C80.3316 31.3954 79.7894 30.7072 79.5324 29.8219C79.2107 28.7106 79.3705 27.6826 80.0301 26.5868C80.8954 25.1505 82.7845 23.4101 84.1731 22.3997C85.4242 21.4909 86.3772 21.0025 87.3571 20.7677C88.8024 20.4212 90.1297 20.7758 90.9087 21.7156L91.0341 21.8474L91.341 22.2013ZM113.655 21.6792C113.195 21.9308 112.94 22.4603 112.953 23.1316C112.969 23.9752 113.358 24.9924 113.615 25.6665C113.919 26.4519 114.155 27.2616 114.32 28.0869C114.858 30.5848 114.535 32.5814 113.275 34.5646C111.139 37.9283 106.714 39.7332 102.515 38.9515C100.087 38.5021 98.2296 37.1829 97.1444 35.1398C96.6123 34.1401 96.3978 32.7631 96.6096 31.7143C96.8429 30.5693 97.6543 29.5703 98.6248 29.2313C99.8091 28.8175 100.81 29.2541 101.687 30.5659C102.532 31.8307 103.562 32.2928 104.838 31.9814C106.15 31.6591 106.845 30.7032 106.845 29.2151C106.845 28.2006 106.536 27.1929 106.248 26.3278L105.948 25.3294C105.368 22.9103 105.664 20.8175 106.856 18.9358C108.803 15.8554 112.558 14.44 115.989 15.4935C118.591 16.292 120.188 18.3499 120.159 20.8666C120.148 21.881 119.693 22.8404 118.998 23.3113C118.48 23.6617 117.946 23.7876 117.412 23.6826C116.899 23.5837 116.475 23.2749 115.994 22.6513C115.183 21.5978 114.397 21.2722 113.655 21.6792ZM42.1313 31.9383C38.2783 36.7079 34.4644 42.4631 31.3924 48.1443L31.2414 48.4268C30.743 49.364 30.3835 50.04 29.2875 50.3858C28.3089 50.6933 26.9034 50.4988 25.9457 49.9196C24.0041 48.7477 23.7552 46.5681 23.7552 44.7995C23.7552 42.9125 24.1585 39.7238 24.9537 35.3235L25.5876 32.0708L25.0791 31.8509C20.2293 38.8176 16.1254 46.3791 14.3685 51.5887C14.0037 52.6711 13.6192 53.2469 12.9974 53.6438C12.2825 54.1013 11.372 54.2614 10.4339 54.0986C9.47955 53.9329 8.60888 53.4517 7.96213 52.7323C6.51345 51.1056 6.87023 49.1298 7.21216 48.0965C8.17997 45.1675 13.0102 37.0726 15.9784 32.5969C21.3394 24.5114 26.3491 18.7959 29.0103 16.358C30.3889 15.0946 32.2975 14.6553 34.5292 15.0878C35.9482 15.3616 36.7986 15.8319 37.4656 16.7111C38.2028 17.6832 38.2777 18.8558 37.7078 20.5127L37.2438 21.8218C36.7771 23.1115 36.1377 24.8774 35.7668 26.1555L35.0923 28.4247L34.7072 29.7116L35.2029 29.9625C37.5661 26.8633 41.2856 22.6991 43.4944 20.6802C44.4682 19.7909 45.1339 19.2514 45.8589 18.9459C47.023 18.4575 48.5613 18.4966 49.9736 19.0509C51.4519 19.6301 52.2107 20.5174 52.4339 21.9268C52.4494 22.027 52.4568 22.136 52.4568 22.2497C52.4568 22.874 52.2464 23.6893 52.0717 24.3654L52.011 24.6029C51.3906 27.0321 50.9488 29.902 50.6581 33.3759C50.5497 34.7175 50.5283 36.0646 50.5941 37.4089C50.6811 39.1829 50.9239 41.4345 52.0414 43.115C52.4595 43.742 52.649 44.262 52.649 44.8177C52.649 44.9515 52.6382 45.0881 52.6167 45.2274C52.5607 45.5994 52.2444 46.858 50.561 47.4951C49.6546 47.8382 48.245 48.151 46.6716 47.6963C44.3954 47.0377 43.0169 44.9697 42.5751 41.5509C42.4382 40.488 42.366 39.0968 42.366 37.5287C42.366 36.1792 42.4584 33.5603 42.6311 32.1489L42.7505 31.1701L42.1313 31.9383ZM100.071 26.9043C100.657 26.7987 100.931 26.8518 101.396 27.1653C101.874 27.4855 102.692 27.7755 103.554 27.6261C104.291 27.499 104.778 27.1189 105.158 26.6998C105.418 27.4822 105.691 28.3762 105.691 29.2151C105.691 30.4314 105.089 30.7355 104.565 30.8633C103.765 31.0597 103.228 30.7967 102.648 29.9275C101.16 27.7015 99.4314 27.7297 98.2451 28.1455C97.6428 28.3554 97.1019 28.7597 96.6447 29.2588C97.835 27.8602 98.9431 27.1068 100.071 26.9043ZM50.793 42.9878C50.4531 42.4793 50.1766 41.6976 50.01 40.8028C49.6708 38.9818 49.4617 36.1348 49.7011 33.2212C49.9446 30.2652 50.4187 27.0328 51.1498 24.171C51.3063 23.5555 51.3602 23.0677 51.28 22.506C51.2273 22.1421 51.056 21.6826 50.8881 21.4996C50.7472 21.3456 50.5576 21.326 50.5927 21.4646C50.6082 21.5252 50.6399 21.5655 50.6453 21.6294V21.6382C50.7681 22.1131 50.6912 22.7246 50.4747 23.5434C49.6923 26.4879 49.1993 29.6571 48.9572 32.6137C48.7178 35.5273 48.765 38.227 49.1892 40.2794C49.3733 41.1688 49.693 41.935 50.0127 42.4577C50.4922 43.2421 50.9468 43.8281 50.7971 44.4154C50.6676 44.932 50.1658 45.3141 49.4657 45.5308C48.5242 45.8214 47.3642 45.7817 46.5205 45.4547C46.3987 45.4065 46.28 45.3507 46.1651 45.2879C46.0666 45.2496 45.9783 45.2341 45.9371 45.3276C45.8522 45.5234 46.4558 46.0212 47.1855 46.2317C48.3334 46.56 49.1157 46.4827 50.0545 46.1544C50.9434 45.8416 51.402 45.2348 51.4897 44.7746C51.6003 44.1799 51.315 43.7696 50.793 42.9878ZM79.4292 34.0312C79.2937 33.8811 79.1291 33.898 79.1736 34.1058C79.4663 34.8203 79.1581 35.7311 78.4358 36.6023C77.1038 38.2108 75.206 39.6202 73.3 40.2317C72.5399 40.4745 71.8298 40.5802 71.2106 40.4759C71.1526 40.4793 71.0945 40.4718 71.0393 40.4537C70.9341 40.4248 70.8889 40.4866 70.8775 40.5243C70.8444 40.632 70.9247 40.7409 71.0872 40.8304C71.6099 41.1197 72.345 41.2327 73.3439 41.004C75.3172 40.5492 78.1242 38.5209 79.3031 36.6864C79.79 35.9269 80.047 34.7079 79.4292 34.0312ZM84.8786 29.0691C85.0944 28.8207 85.3292 28.5893 85.5807 28.3769C85.6818 28.2915 85.9361 28.1737 85.8875 28.0432C85.8821 28.0277 85.8754 28.0136 85.8693 28.0008C85.8359 27.9449 85.7856 27.9008 85.7257 27.875C85.4478 27.7708 85.0654 28.0378 84.8563 28.1704C84.4996 28.3957 83.9263 28.9164 83.5628 29.2797C82.8594 29.984 82.2281 30.2249 81.7277 30.0547C81.5496 30.0493 81.5813 30.2632 81.7398 30.4105C81.9361 30.5922 82.1809 30.6709 82.3643 30.6843C82.8675 30.722 83.2876 30.5639 83.7988 30.1273C84.19 29.7937 84.4584 29.534 84.8786 29.0691ZM36.1451 19.6651C34.7153 23.0146 32.3528 30.4778 31.3776 36.1994C31.2953 36.6884 31.2697 36.9259 31.2043 37.4123C31.1678 37.6908 31.1665 37.8987 31.2636 37.9417C31.2724 37.9431 31.2784 37.9471 31.2886 37.9471C31.59 37.9471 31.9974 36.5835 32.1269 35.9996C32.3359 35.0625 32.5781 34.2727 32.7534 33.4856C33.1176 31.8495 33.56 30.0432 34.0402 28.4388C34.7605 26.0338 35.6056 23.2009 36.6826 20.5652C36.8856 20.0694 37.0219 19.5252 36.9349 18.8134C36.9072 18.5921 36.7305 18.1313 36.6226 17.9812C36.5842 17.9288 36.4587 17.7465 36.3421 17.8124C36.2861 17.8433 36.3198 17.9308 36.3454 18.0162C36.485 18.4676 36.3839 19.1074 36.1451 19.6651ZM119.067 20.5914C119.015 20.1743 118.84 19.7303 118.63 19.5857C118.577 19.5426 118.524 19.5359 118.49 19.5541C118.421 19.5998 118.439 19.6792 118.458 19.7794C118.461 19.7936 118.466 19.8084 118.468 19.8232C118.742 21.3321 117.982 22.0748 117.347 21.9732C117.029 21.9234 116.824 21.7586 116.43 21.1814C115.528 19.8689 114.017 19.4989 112.826 20.1353C111.309 20.9809 111.013 22.798 112.034 25.4694C113.288 28.7583 113.147 31.5407 111.599 33.6686C110.253 35.5186 107.982 36.8485 105.34 37.1217C103.45 37.3161 101.627 36.9091 100.241 35.9747C100.165 35.933 100.093 35.904 100.055 35.9801C99.9325 36.1691 100.484 36.7214 100.836 36.9548C101.463 37.3712 102.085 37.6121 102.593 37.7258C103.549 37.9424 104.488 38.0124 105.774 37.8482C108.479 37.5011 110.835 36.1254 112.181 34.2754C113.96 31.8313 113.888 29.0382 112.729 26.0028C112.159 24.5067 111.838 23.4041 112.061 22.3735C112.216 21.6712 112.609 21.1754 113.199 20.8511C114.296 20.2483 115.551 20.5336 116.746 22.0741C117.23 22.6977 117.676 22.8464 118.175 22.6601C118.779 22.4333 119.205 21.7034 119.067 20.5914ZM63.2544 30.9716C61.7902 32.4523 60.8292 34.1973 60.4164 36.3124C61.0079 36.1563 62.1072 35.7002 62.8518 35.2024C65.2089 33.6262 66.8667 31.4183 67.5701 30.1643C67.7522 29.8387 67.9876 29.2911 67.9956 28.8108C67.0514 28.5296 65.0443 29.1916 63.2544 30.9716ZM44.655 26.9285C44.6267 26.9029 44.5741 26.8922 44.5235 26.8915C44.5134 26.8915 44.5047 26.8915 44.4945 26.8929C44.4844 26.8935 44.4736 26.8942 44.4635 26.8962C44.3927 26.9117 44.3091 26.95 44.2079 27.016C44.0386 27.1472 43.839 27.3247 43.4687 27.7398C39.6609 31.7997 34.7254 38.2761 29.9545 47.1729C29.268 48.4524 28.3406 48.8601 26.7503 47.9115C26.526 47.7791 26.3197 47.6183 26.1366 47.4332C26.1022 47.4137 26.0658 47.4124 26.0206 47.4554C25.8682 47.6539 26.3632 48.3818 26.8077 48.6959C28.3379 49.771 29.8689 48.9926 30.4239 47.9667C35.2488 39.0436 39.9867 32.7045 43.7075 28.681C44.0387 28.3113 44.3246 27.9037 44.5593 27.4667C44.6881 27.2191 44.7603 27.0247 44.655 26.9285Z" fill="black"/>
<path fill-rule="evenodd" clip-rule="evenodd" d="M52.2773 42.9576C51.2644 41.4345 50.973 39.3625 50.8766 37.3941C50.8111 36.0619 50.8323 34.7269 50.94 33.3975C51.2178 30.0675 51.64 27.199 52.2854 24.6702C52.5134 23.7768 52.8351 22.6473 52.7137 21.8811C52.4918 20.4764 51.7661 19.4478 50.078 18.7865C48.599 18.2059 46.9804 18.1683 45.7502 18.6849C44.9861 19.0065 44.3016 19.5601 43.3041 20.4703C41.2053 22.389 37.5168 26.4596 34.9783 29.7903C35.2757 28.7852 35.6655 27.5158 36.0378 26.2323C36.5841 24.3527 37.7461 21.3213 37.9754 20.6029C38.542 18.9547 38.5291 17.6442 37.6915 16.5396C37.0144 15.6476 36.1282 15.108 34.5837 14.81C32.2597 14.3593 30.2667 14.8228 28.8194 16.1487C26.148 18.5961 21.1195 24.3311 15.7436 32.4395C12.7653 36.9286 7.91956 45.0551 6.94434 48.0064C6.46954 49.4413 6.37175 51.3687 7.75163 52.9166C8.43923 53.6852 9.36754 54.1988 10.3853 54.3738C11.4488 54.5588 12.4187 54.3462 13.1497 53.88C13.8019 53.4636 14.2322 52.8749 14.6362 51.6768C16.5239 46.0797 20.82 38.4611 25.3124 32.0103C25.1033 32.9817 24.7856 34.6622 24.675 35.2724C23.8765 39.6895 23.4725 42.8957 23.4725 44.7982C23.4725 46.6603 23.741 48.9173 25.7993 50.1605C26.7712 50.7464 28.2745 51 29.3724 50.6529C30.693 50.2378 31.0477 49.3747 31.6412 48.2775C34.9135 42.227 38.8347 36.4664 42.3511 32.1146C42.1771 33.5367 42.0847 36.1556 42.0847 37.5287C42.0847 39.1109 42.1576 40.5142 42.2958 41.5859C42.7517 45.1217 44.2294 47.2832 46.5933 47.966C48.0622 48.3905 49.4798 48.2049 50.6621 47.7568C52.1748 47.185 52.7697 46.0959 52.8958 45.2684C53.0334 44.3717 52.7602 43.6835 52.2773 42.9576ZM51.4889 44.7753C51.4013 45.2354 50.9427 45.8422 50.0538 46.1551C49.115 46.4833 48.3326 46.5614 47.1847 46.2324C46.9975 46.1783 46.816 46.1058 46.6432 46.0158C46.5319 46.0023 46.4328 46.0158 46.4031 46.0763C46.2979 46.2842 46.5076 46.5022 46.8199 46.702C47.2549 46.9778 47.524 47.0135 47.4977 47.2476C47.4457 47.4474 47.1476 47.4063 46.8718 47.3512C46.3505 47.2476 45.784 46.9731 45.2714 46.5802C44.8492 46.256 44.5005 45.9088 44.2024 45.4689C43.414 44.3051 43.0566 42.8896 42.8785 41.5139C42.7389 40.4288 42.6721 39.0477 42.6721 37.53C42.6721 36.124 42.7274 34.718 42.8239 33.3167C42.9203 31.9114 43.0465 30.7987 43.5685 29.7573C43.7216 29.4519 44.1249 28.9938 43.8814 28.7859C43.7917 28.7099 43.6548 28.7765 43.5172 28.8895C39.8254 32.9218 35.1671 39.1957 30.4239 47.9674C29.8688 48.9933 28.3372 49.7716 26.8076 48.6966C26.7463 48.6521 26.6875 48.6043 26.6316 48.5533C26.5088 48.4834 26.3807 48.4652 26.3375 48.6085C26.2856 48.7821 26.465 49.0384 26.5547 49.1473C26.8244 49.4756 27.1765 49.6021 27.1286 49.8228C27.0544 50.1396 26.3193 49.7663 26.1116 49.6411C24.5071 48.6717 24.06 47.0188 24.06 44.7995C24.06 42.9313 24.4606 39.7682 25.2537 35.3786C25.427 34.4214 25.6273 33.3975 25.8249 32.4449C26.0306 31.458 26.2336 30.1556 26.9114 28.7516C27.2837 27.9793 27.7552 27.5461 27.4415 27.3725C27.366 27.3301 27.2594 27.3786 27.1407 27.4788C21.456 34.7348 16.0977 43.5677 13.4627 51.3842C13.0317 52.661 11.8481 53.1407 10.6982 52.8413C10.0986 52.6852 9.66363 52.3643 9.29876 51.9479L9.29809 51.9466C9.23132 51.8995 9.16118 51.8719 9.09846 51.9136C9.00943 51.9728 9.02022 52.1477 9.07283 52.287C9.16725 52.5406 9.2556 52.6354 9.4033 52.8245C9.55032 53.0149 9.83358 53.1777 9.78503 53.3371C9.72433 53.5355 9.44511 53.4346 9.29 53.362C8.93457 53.1951 8.66413 52.998 8.29926 52.5816C7.1959 51.3243 7.02527 49.6344 7.50209 48.1934C8.46247 45.2899 13.2745 37.2273 16.2332 32.7664C21.5814 24.7025 26.5702 19.0092 29.2173 16.584C30.5217 15.3892 32.3379 14.9755 34.4718 15.3886C35.824 15.6503 36.8228 16.1958 37.3098 17.098C36.924 16.8679 36.3602 17.4485 36.5261 17.8676C36.5699 17.9093 36.6057 17.9591 36.6232 17.9826C36.7318 18.1326 36.9085 18.5941 36.9355 18.8148C37.0225 19.5265 36.8862 20.0707 36.6832 20.5665C35.6055 23.2023 34.7611 26.0351 34.0408 28.4401C33.5606 30.0446 33.1182 31.8509 32.754 33.4869C32.7001 33.7278 32.64 33.97 32.5766 34.2162C32.5389 34.5532 32.5652 34.7328 32.6845 34.7523C32.9341 34.794 32.9489 34.4039 33.2409 33.7116C33.5195 33.053 33.8661 32.2902 34.5392 31.3598C37.5182 27.3873 41.034 23.3436 43.7013 20.9056C44.6502 20.0398 45.2943 19.5157 45.9782 19.2278C47.0708 18.769 48.5221 18.8094 49.8615 19.3348C50.6405 19.6402 51.323 20.1844 51.6009 20.7045C51.2617 20.4428 50.716 20.9069 50.8415 21.4586C50.857 21.472 50.8725 21.4862 50.8874 21.5016C51.0553 21.6839 51.2266 22.1441 51.2792 22.508C51.3588 23.0691 51.3055 23.5575 51.149 24.173C50.4179 27.0348 49.9438 30.2673 49.7004 33.2232C49.4616 36.1368 49.6707 38.9838 50.0092 40.8049C50.1758 41.6996 50.4517 42.4813 50.7923 42.9899C51.3149 43.7696 51.6002 44.1799 51.4889 44.7753ZM80.6202 33.0685C80.0617 32.0749 79.2282 31.5569 78.2738 31.5253C77.507 31.4997 76.7051 31.9094 76.1082 32.3991L75.4379 32.9595C75.7407 31.727 76.0892 30.5061 76.4826 29.2992C76.8973 27.9901 77.2278 27.2373 77.2824 26.2013C77.36 24.6931 76.3787 23.4626 74.8295 23.2036C73.8651 23.0435 72.8036 23.2393 71.8722 23.7257L71.8587 23.7331C71.3442 23.0896 70.701 22.56 69.9701 22.1782C69.2391 21.7963 68.4364 21.5705 67.6132 21.5151C63.9422 21.2527 59.3973 23.7761 56.0353 27.9423C52.9059 31.8206 51.4943 36.1731 52.1613 39.8832C52.5174 41.8671 53.9708 43.855 55.7743 44.5674C58.389 45.5987 62.3897 44.5674 65.9379 41.5496C66.557 41.0215 67.106 40.5734 67.7177 39.9296L67.8613 39.789C68.1851 40.9556 69.0982 41.9451 70.1099 42.3562C71.8344 43.0565 74.1248 42.7046 76.7328 40.9212C78.0607 40.0117 79.5755 38.6642 80.3342 37.4379C81.3499 35.7944 81.325 34.3204 80.6202 33.0685ZM79.3529 33.9666C79.3812 33.9847 79.4069 34.0067 79.4291 34.0318C80.0469 34.7079 79.7899 35.9276 79.3023 36.6871C78.1234 38.5216 75.3165 40.5499 73.3431 41.0047C72.6397 41.1661 72.0664 41.1574 71.6071 41.0363C71.512 41.0322 71.4304 41.039 71.3886 41.082C71.2517 41.2159 71.3178 41.4325 71.622 41.5496C71.9619 41.6794 72.4043 41.6363 72.3517 41.8624C72.3004 42.1739 71.1633 42.1315 70.2913 41.7325C69.4402 41.3424 68.7792 40.6918 68.2943 39.3383C68.1837 39.0295 68.3631 38.3763 68.5014 37.9431C68.554 37.7816 68.6396 37.6478 68.7098 37.4567C68.7556 37.3329 68.7624 37.1795 68.6781 37.123C68.6106 37.08 68.5439 37.1096 68.4805 37.1674C68.2249 37.5287 67.9234 37.8967 67.4769 38.3763C66.8008 39.0912 66.0776 39.7603 65.312 40.379C62.8463 42.3905 59.1464 44.184 56.7643 43.1042C56.6093 43.033 56.462 42.9462 56.3246 42.8452C56.2194 42.8008 56.1223 42.7887 56.0535 42.8634C55.9907 42.932 55.9894 43.0827 56.1283 43.2603C56.5573 43.8045 57.0267 43.7702 56.9228 44.0117C56.8351 44.2142 56.245 44.151 55.6879 43.8557C55.1693 43.5781 54.6977 43.2208 54.2905 42.7968C53.5257 41.9572 52.9423 40.9038 52.7407 39.7803C52.071 36.0594 53.6626 31.8199 56.4939 28.311C59.7385 24.2894 64.0872 21.8521 67.5713 22.1017C68.5843 22.1737 69.8752 22.6385 70.5011 23.2359C69.9015 23.1061 69.5279 24.2248 69.9797 24.4852C70.1497 24.654 70.5462 25.0382 70.8396 25.4734C71.0527 25.8898 71.0649 25.9275 71.2456 25.9026C71.3616 25.8246 71.3744 25.7338 71.3495 25.5124C71.3151 24.9581 71.622 24.5888 71.7076 24.5134C71.7933 24.4381 71.9949 24.3271 72.15 24.243C72.8906 23.8468 73.7902 23.6295 74.7466 23.7855C75.3765 23.8871 75.8951 24.1878 76.2209 24.6231C76.0233 24.4253 75.4163 24.8855 75.6085 25.6255C75.7562 25.725 75.9086 26.1206 75.9262 26.4361C75.9659 27.1646 75.7022 27.8656 75.5087 28.3621C74.9617 29.7668 74.2664 32.3204 74.0148 33.6592C73.9649 33.9195 73.7828 34.975 73.8408 35.238C73.8591 35.3455 73.9064 35.446 73.9777 35.5287C74.0162 35.5509 74.0607 35.5536 74.1187 35.5408C74.2569 35.4896 74.1989 35.2818 74.3028 35.0732C74.4836 34.5283 75.0723 33.98 75.508 33.5993C75.8951 33.2622 76.285 32.9555 76.285 32.9555C76.8872 32.4617 77.5994 32.0998 78.2556 32.1173C78.835 32.1334 79.5067 32.3776 79.9167 33.1492C79.6699 32.9992 79.2464 33.5926 79.3529 33.9666ZM104.82 22.5134C104.837 20.8175 104.155 19.1168 102.693 18.1918C101.713 17.5709 100.415 17.2352 98.9134 17.3798C96.9083 17.5722 95.0509 18.4367 93.0215 20.132C92.4456 20.6143 91.7401 21.3429 91.3618 21.7997C91.2815 21.6718 91.2181 21.6469 91.1257 21.5346C90.2672 20.4986 88.8138 20.1266 87.2896 20.4925C86.1579 20.7637 85.1253 21.357 84.0058 22.1703C82.6428 23.1619 80.6876 24.9447 79.7866 26.4401C79.0858 27.6033 78.9186 28.7146 79.2598 29.8979C79.5195 30.7927 80.0725 31.5757 80.9668 32.0581C81.7728 32.494 82.7912 32.5781 83.4851 32.2888C83.2572 33.0994 82.7001 34.3494 82.2482 35.232C81.2656 37.0847 81.3789 38.3568 82.1572 39.4143C83.498 41.2341 86.5767 41.1157 88.1913 39.8402C89.5098 38.7995 89.8666 37.5011 90.6482 35.7332C91.1068 34.6965 91.9047 32.9629 92.8496 31.3813C94.8729 27.9914 96.8449 25.723 99.1683 25.3046C99.9574 25.1626 100.463 25.2481 101.135 25.6988C101.498 25.9423 102.095 26.1219 102.658 26.0244C103.344 25.9053 103.721 25.468 104.15 24.8935C104.567 24.1811 104.814 23.4694 104.82 22.5134ZM102.967 24.3755C102.768 24.5847 102.541 24.759 102.262 24.7872C101.915 24.8215 101.789 24.6883 101.402 24.4273C100.759 23.9934 100.003 23.908 98.9504 24.0977C96.2554 24.5834 94.019 27.0267 91.7927 30.755C90.3845 33.1136 89.5455 35.2966 88.9709 36.4389C88.5852 37.2024 88.1097 38.0588 87.1702 38.6501C86.5167 39.0598 85.4707 39.2529 84.6742 39.0235C84.5413 38.9959 84.4145 38.9946 84.3868 39.1392C84.345 39.3545 84.6519 39.5361 84.9648 39.6619C85.2521 39.7763 85.5469 39.8092 85.5469 39.9915C85.5469 40.1705 85.2609 40.2095 84.9884 40.1967C84.2439 40.1584 83.214 39.859 82.6401 39.0416C81.855 37.9236 82.1356 36.7012 82.7729 35.5004C83.2653 34.535 83.8412 33.1526 84.1575 32.0244C84.5056 30.788 84.8212 30.1004 85.2312 29.3947C85.4079 29.0913 85.5765 28.8841 85.4828 28.6985C85.4302 28.5922 85.3378 28.6177 85.2299 28.6985C85.1044 28.8196 84.9979 28.9353 84.8785 29.0698C84.5447 29.4483 84.1836 29.802 83.7981 30.128C83.2869 30.5646 82.8667 30.7227 82.3636 30.685C82.3264 30.6819 82.2895 30.6767 82.253 30.6696C81.8078 30.7167 81.9461 31.1277 82.3818 31.2609C82.8046 31.3907 83.034 31.3719 83.0151 31.6322C82.9982 31.8556 82.4067 31.8986 81.8793 31.7621C80.8731 31.5024 80.113 30.7288 79.823 29.7055C79.5593 28.7812 79.678 27.7553 80.2944 26.7503C81.1402 25.3685 83.1992 23.5165 84.3619 22.6466C85.3277 21.9234 86.2914 21.3415 87.4272 21.0697C88.6088 20.7865 89.7088 21.0314 90.4317 21.7243C89.9037 21.5084 89.4808 22.5376 89.7931 22.9951C90.0905 23.431 90.2503 24.2221 90.2395 24.8707C90.2328 25.2326 90.2867 25.3261 90.3974 25.3261C90.5923 25.3261 90.6348 25.0213 90.6752 24.685C90.746 24.1273 90.7885 23.6261 91.1716 23.0489C91.6181 22.4239 92.4611 21.4956 93.319 20.7273C95.0786 19.1505 97.0755 18.1454 98.9687 17.9638C100.889 17.7794 102.439 18.4152 103.332 19.5857C102.977 19.361 102.498 19.955 102.664 20.4091C102.837 20.4899 103.064 20.6991 103.226 20.9749C103.515 21.472 103.661 22.0387 103.648 22.613C103.632 23.3422 103.323 23.9981 102.967 24.3755ZM116.072 15.2231C112.475 14.1185 108.589 15.6637 106.616 18.7838C105.324 20.8276 105.108 23.0321 105.674 25.3987C105.77 25.7634 105.88 26.1091 105.981 26.4152C106.269 27.2756 106.562 28.2531 106.562 29.2138C106.562 30.2854 106.179 31.3611 104.772 31.7062C103.531 32.0103 102.649 31.495 101.923 30.4085C100.978 28.9945 99.8373 28.5081 98.5336 28.9642C97.4707 29.3355 96.5866 30.4186 96.3337 31.6578C96.103 32.7947 96.3492 34.2444 96.8961 35.2717C98.0319 37.4083 100.001 38.7705 102.463 39.228C106.512 39.9808 111.201 38.3568 113.515 34.7147C114.826 32.648 115.139 30.5458 114.597 28.0318C114.43 27.1902 114.189 26.3646 113.88 25.5642C113.621 24.8881 113.25 23.9134 113.237 23.1243C113.225 22.5854 113.412 22.134 113.793 21.9248C114.016 21.803 114.698 21.4283 115.771 22.8215C116.233 23.4196 116.724 23.8394 117.359 23.9571C117.948 24.0681 118.543 23.9584 119.157 23.5413C119.856 23.0677 120.428 22.0728 120.442 20.8673C120.469 18.4448 118.98 16.1151 116.072 15.2231ZM118.846 18.9163C118.662 19.1108 118.621 19.357 118.64 19.5951C118.846 19.7478 119.016 20.1824 119.066 20.5914C119.204 21.7035 118.779 22.4334 118.174 22.6601C117.675 22.8464 117.229 22.6984 116.745 22.0741C115.551 20.5336 114.295 20.2483 113.198 20.8511C112.609 21.1754 112.215 21.6705 112.061 22.3735C111.837 23.4041 112.158 24.5067 112.728 26.0029C113.888 29.0389 113.958 31.832 112.181 34.2754C110.835 36.1254 108.478 37.5011 105.774 37.8482C104.487 38.0124 103.549 37.9431 102.592 37.7258C102.084 37.6114 101.462 37.3713 100.835 36.9548C100.738 36.889 100.645 36.8166 100.558 36.7382C100.481 36.7053 100.406 36.7012 100.344 36.7631C100.227 36.8802 100.357 37.1694 100.639 37.419C100.984 37.7251 101.318 37.791 101.206 38.013C101.15 38.1261 100.919 38.1079 100.694 38.0312C100.289 37.8973 99.7071 37.5374 99.3807 37.2798C98.6645 36.7133 98.0966 36.1274 97.4829 35.0228C96.853 33.8906 96.7215 32.7099 96.911 31.7762C97.1227 30.7321 97.8538 29.8253 98.7272 29.5199C99.5507 29.2319 100.303 29.4634 100.803 29.9625C100.257 29.538 99.7503 30.4772 100.286 31.279C100.442 31.5098 100.779 32.1718 101.496 32.6776C101.609 32.7577 101.877 32.7664 101.944 32.5734C101.978 32.4698 101.949 32.278 101.883 32.1718C101.763 31.978 101.689 31.7405 101.734 31.6363C101.801 31.4795 101.969 31.4526 102.14 31.5885C102.194 31.6309 102.47 31.865 102.524 31.9027C103.182 32.3608 103.934 32.5048 104.81 32.3016C106.17 31.9874 106.963 30.9723 107.111 29.8354C107.273 28.5828 106.901 27.3194 106.54 26.2329C106.191 25.1815 106.014 24.1347 106.008 23.1424C105.995 22.1824 106.153 21.3065 106.443 20.5363C107.891 16.6883 112.044 14.6015 115.901 15.7855C117.681 16.3317 118.998 17.6099 119.483 18.8363C119.352 18.6957 119.067 18.6829 118.846 18.9163ZM66.5887 27.6228C64.8932 27.9874 62.6946 29.3402 60.8864 31.9074C60.2754 32.7738 59.7871 33.8206 59.4951 34.7348C59.2334 35.5495 59.0776 36.2787 59.1821 37.1627C59.1826 37.1679 59.1836 37.1731 59.1848 37.1782L59.2213 37.3322C59.2354 37.3793 59.2496 37.4217 59.2583 37.4621C59.3447 37.672 59.5295 37.6276 59.5989 37.4567C59.721 37.162 59.9975 37.0127 60.2255 36.9717C61.3376 36.7624 62.099 36.4133 63.1795 35.6894C64.6679 34.6938 65.979 33.419 67.0615 31.9968C67.4594 31.4735 67.8357 30.9252 68.1439 30.3426C68.4919 29.6847 68.5837 29.2454 68.6234 28.9978C68.6538 28.8014 68.6868 28.5518 68.8184 28.4253C68.9094 28.3372 68.9674 28.2968 68.9883 28.2175C69.0133 28.1132 68.9748 28.0325 68.7671 27.9181L68.7408 27.904C68.583 27.8293 68.384 27.7277 68.1547 27.6578C67.5808 27.4842 67.0143 27.532 66.5887 27.6228ZM67.57 30.1637C66.8666 31.4183 65.2088 33.6255 62.8517 35.2017C62.1071 35.6995 61.0078 36.1556 60.4163 36.3117C60.8291 34.1967 61.7901 32.4516 63.2543 30.9709C65.0443 29.1909 67.0507 28.5289 67.9956 28.8095C67.9875 29.2905 67.7521 29.8374 67.57 30.1637ZM123.663 15.2702C123.929 15.5319 124.061 15.8521 124.061 16.2187C124.067 16.3963 124.035 16.5729 123.969 16.7378C123.902 16.9026 123.802 17.052 123.676 17.1767C123.552 17.3037 123.404 17.4039 123.24 17.4709C123.076 17.538 122.9 17.5704 122.723 17.5662C122.546 17.5662 122.37 17.5302 122.207 17.4602C122.043 17.3902 121.896 17.2878 121.774 17.1592C121.647 17.0336 121.547 16.8839 121.48 16.719C121.412 16.554 121.379 16.3773 121.381 16.1992C121.377 16.0229 121.41 15.8476 121.477 15.6843C121.543 15.521 121.643 15.3732 121.77 15.25C122.029 14.9876 122.346 14.8578 122.715 14.8672C122.893 14.865 123.069 14.8997 123.232 14.969C123.395 15.0384 123.542 15.141 123.663 15.2702ZM123.817 15.1181C123.514 14.8127 123.143 14.6573 122.712 14.6526C122.508 14.6464 122.306 14.683 122.118 14.76C121.929 14.8369 121.759 14.9525 121.619 15.0993C121.319 15.3993 121.16 15.7707 121.167 16.1965C121.167 16.6318 121.32 17.0024 121.628 17.3119C121.925 17.6187 122.29 17.7767 122.727 17.7794C123.155 17.7821 123.527 17.6368 123.828 17.3294C124.136 17.0267 124.284 16.6567 124.281 16.2248C124.284 16.0185 124.244 15.8139 124.164 15.6236C124.084 15.4333 123.966 15.2613 123.817 15.1181ZM122.948 16.1414C122.887 16.1669 122.79 16.177 122.663 16.177L122.394 16.1743L122.392 15.5547L122.649 15.5567C122.812 15.5588 122.934 15.5789 123.01 15.6227C123.089 15.6691 123.126 15.7498 123.125 15.8749C123.133 16.0048 123.065 16.097 122.948 16.1414ZM122.095 17.0589L122.394 17.063V16.3856L122.634 16.3869C122.789 16.3869 122.904 16.4077 122.965 16.4434C123.073 16.5093 123.132 16.6405 123.129 16.8403V16.9755L123.136 17.0334C123.136 17.0401 123.136 17.0441 123.14 17.0515V17.0657L123.431 17.0704L123.421 17.0489C123.41 17.02 123.406 16.9894 123.407 16.9587C123.4 16.9177 123.4 16.8719 123.399 16.8302L123.396 16.7051C123.394 16.6093 123.361 16.5167 123.303 16.4407C123.269 16.3934 123.225 16.3538 123.174 16.3248C123.123 16.2958 123.067 16.278 123.009 16.2725C123.114 16.253 123.194 16.2248 123.253 16.1891C123.367 16.1151 123.422 16.0041 123.422 15.8501C123.419 15.6361 123.331 15.4895 123.155 15.4155C123.051 15.3731 122.897 15.3496 122.689 15.3482L122.089 15.3435L122.095 17.0589Z" fill="#E8E8E8"/>
</svg>
