<svg width="70" height="47" viewBox="0 0 70 47" fill="none" xmlns="http://www.w3.org/2000/svg">
<g clip-path="url(#clip0_336_10)">
<path d="M5.00709 46.9964C4.97733 46.9929 4.87648 46.9823 4.78297 46.9728C3.92938 46.8858 3.01818 46.5319 2.3019 46.0089C1.22797 45.2248 0.471197 44.0832 0.155537 42.7709C-0.0122081 42.0736 -0.0455469 41.2924 0.0617339 40.5737C0.349388 38.6467 1.60503 36.9962 3.34685 36.2553C3.78156 36.0704 4.21297 35.9535 4.72115 35.8829C5.00285 35.8437 5.6889 35.8435 5.97309 35.8825C6.57577 35.9652 7.0866 36.1193 7.61144 36.3769C8.18894 36.6602 8.58861 36.952 9.07237 37.4434C9.49528 37.873 9.75642 38.2306 10.0592 38.7946L10.1236 38.9146L9.89534 39.0858C9.5809 39.3217 8.84332 39.8554 8.6031 40.0209L8.40465 40.1576L8.32302 39.9776C8.2221 39.7552 8.15024 39.6234 8.03389 39.4471C7.56897 38.743 6.82758 38.2401 6.01946 38.0807C5.59185 37.9963 5.06542 38.0057 4.64387 38.1052C4.2012 38.2097 3.7205 38.4442 3.35328 38.7347C3.20526 38.8518 2.93283 39.1257 2.81297 39.2781C2.16621 40.1 1.92798 41.147 2.14979 42.1929C2.22659 42.5549 2.42537 43.028 2.63275 43.3422C3.1816 44.1738 4.02287 44.7065 4.97577 44.826C5.14423 44.8471 5.55001 44.8471 5.71847 44.826C6.56236 44.7202 7.3421 44.2756 7.87492 43.5963C8.03183 43.3962 8.14118 43.2231 8.2659 42.9772C8.32055 42.8694 8.36983 42.7812 8.3754 42.7812C8.38098 42.7812 8.7695 43.0593 9.23878 43.3991L10.092 44.017L10.0056 44.1829C9.82613 44.527 9.51746 44.9596 9.22996 45.2698C8.74015 45.7983 8.26307 46.1575 7.64234 46.465C7.10621 46.7306 6.53812 46.9001 5.93444 46.9744C5.79909 46.991 5.10332 47.0075 5.00709 46.9964ZM12.3024 41.3706V35.9552H14.3735V39.8424H19.7831V35.9552H21.8542V46.786H19.7831V42.0211H14.3735V46.786H12.3024V41.3706ZM23.9467 45.826C24.1775 45.2979 25.2427 42.861 26.3136 40.4106L28.2608 35.9552L29.7137 35.9554L31.1665 35.9555L33.5203 41.3042C34.8149 44.2459 35.8874 46.6828 35.9037 46.7194L35.9332 46.786H33.4533L32.9745 45.7124L32.4957 44.6388L29.7244 44.6427L26.9531 44.6465L26.4797 45.7163L26.0063 46.786H23.5269L23.9467 45.826ZM31.6198 42.4538C31.611 42.4156 29.7295 38.1504 29.7214 38.1505C29.7157 38.1506 27.9287 42.3799 27.9001 42.461C27.897 42.47 28.6115 42.4756 29.7599 42.4756C31.3462 42.4756 31.624 42.4724 31.6198 42.4538ZM37.604 41.3706V35.9552L39.0608 35.9555L40.5175 35.9558L42.7973 39.203L45.0771 42.4501L45.0809 39.2026L45.0848 35.9552H47.1714V46.7863L46.3341 46.7822L45.4969 46.7782L42.6054 42.7074C41.015 40.4685 39.7086 38.6364 39.7022 38.6361C39.6958 38.6357 39.6906 40.4693 39.6906 42.7107V46.786H37.604V41.3706ZM50.9426 41.3706V35.9552H58.4079V38.1339H53.0292V40.2969H58.0061V42.4756H53.0292V44.6387H59.1808V46.786H50.9426V41.3706ZM62.102 41.3706V35.9552H64.1885V44.6387H70V46.786H62.102V41.3706ZM26.3448 33.2006C24.1154 33.096 21.6329 32.4096 19.6316 31.3443C18.0951 30.5265 16.8774 29.6114 15.6017 28.3157C14.6026 27.3009 13.8654 26.3662 13.2415 25.3227L12.9683 24.8658L13.3558 24.6574C14.1109 24.2513 17.5532 22.4638 17.5802 22.4638C17.5953 22.4638 17.7375 22.6601 17.8962 22.9C19.69 25.6114 22.4964 27.3752 25.7805 27.8553C26.3546 27.9392 28.081 27.9258 28.7062 27.8326C29.4019 27.7289 30.2363 27.5365 30.7663 27.3577C30.8008 27.346 30.7349 27.2375 30.5833 27.0563C29.4094 25.653 28.3393 23.727 27.7373 21.934C26.6483 18.6906 26.5707 15.209 27.5147 11.9379C28.1009 9.9065 29.1097 7.93482 30.3872 6.32355C30.5776 6.0835 30.7333 5.8717 30.7333 5.8529C30.7333 5.78897 29.736 5.51976 29.0824 5.40725C28.0725 5.23344 26.4916 5.21189 25.579 5.3595C24.0433 5.60787 22.4846 6.19112 21.2666 6.97313C19.9093 7.84462 18.7774 8.96455 17.8742 10.3298L17.4754 10.9326L16.9677 10.6623C16.6885 10.5137 15.6513 9.9686 14.6629 9.45106C13.6744 8.93351 12.8626 8.5073 12.8588 8.50395C12.8431 8.48989 13.4619 7.49174 13.7167 7.12033C14.4901 5.99262 15.8634 4.49913 16.878 3.68235C19.5312 1.54659 22.4807 0.343752 25.8014 0.0433569C26.4174 -0.0123803 27.9448 -0.0128662 28.539 0.0424635C30.6473 0.238735 32.4544 0.757126 34.3214 1.70107L35.2137 2.1522L35.5126 1.97971C35.9953 1.70116 36.8529 1.29926 37.5042 1.04635C39.3317 0.336761 41.1722 -0.00100092 43.2056 2.22776e-06C44.6256 0.000707564 45.8103 0.142198 47.0963 0.464694C50.0016 1.19326 52.4792 2.59055 54.614 4.70435C55.7713 5.85032 56.6783 7.02037 57.4105 8.31214L57.5215 8.50793L55.7153 9.45288C54.7219 9.97262 53.6827 10.5182 53.406 10.6654L52.9029 10.9329L52.5226 10.3512C50.6461 7.48063 47.5768 5.61185 44.2172 5.2944C43.2225 5.20042 41.7457 5.28696 40.8479 5.49183C40.3859 5.59727 39.6359 5.81459 39.6361 5.84296C39.6362 5.85779 39.7589 6.02251 39.9088 6.20902C41.834 8.60464 43.0361 11.5248 43.4245 14.7497C43.5173 15.5194 43.5296 17.4845 43.4465 18.2465C43.0957 21.4643 41.8959 24.4339 39.9808 26.8245C39.5466 27.3664 39.5652 27.3289 39.7044 27.3835C39.7702 27.4093 40.0779 27.4956 40.3882 27.5753C41.9654 27.9806 43.6633 28.0379 45.2574 27.7395C48.1569 27.1969 50.7682 25.458 52.4478 22.9513C52.6039 22.7181 52.745 22.5118 52.7612 22.4926C52.7774 22.4735 53.1646 22.648 53.6216 22.8803C54.5268 23.3405 57.3625 24.8286 57.3929 24.8594C57.4436 24.9108 56.5399 26.2712 55.9856 26.9778C55.4609 27.6468 54.0855 29.04 53.4285 29.5681C51.0538 31.4765 48.389 32.6433 45.4537 33.0599C42.0834 33.5383 38.5142 32.8976 35.6101 31.2932L35.1997 31.0664L34.6906 31.3396C32.1683 32.6929 29.2752 33.3381 26.3448 33.2006ZM35.7606 23.799C37.1662 22.0345 38.0432 19.8942 38.2594 17.7009C38.3319 16.9648 38.2888 15.4653 38.1758 14.795C37.8649 12.9505 37.1998 11.3696 36.1267 9.92492C35.9246 9.65289 35.6304 9.28921 35.4728 9.11679L35.1863 8.80326L34.9205 9.09558C34.57 9.4809 33.9861 10.267 33.6918 10.7496C32.1973 13.2003 31.7094 16.211 32.3422 19.0765C32.7405 20.8798 33.6561 22.6963 34.8901 24.1311L35.1743 24.4615L35.2986 24.3421C35.367 24.2765 35.5749 24.0321 35.7606 23.799Z" fill="black"/>
</g>
<defs>
<clipPath id="clip0_336_10">
<rect width="70" height="47" fill="white"/>
</clipPath>
</defs>
</svg>
