<svg width="163" height="17" viewBox="0 0 163 17" fill="none" xmlns="http://www.w3.org/2000/svg">
<g clip-path="url(#clip0_133_596)">
<path d="M2.4366 0.00878906L6.68804 8.9415L10.9731 0.00878906H13.4097V10.6397H11.7293V1.80892H11.6957L7.47784 10.6397H5.93186L1.71402 1.79193H1.68041V10.6397H0V0.00878906H2.4366Z" fill="#191B1D"/>
<path d="M26.7689 1.29945H26.8025L29.0543 6.25829H24.4836L26.7689 1.29945ZM20.5514 10.6397H22.3998L23.9122 7.43007H29.6256L31.1044 10.6397H33.0873L27.8108 0.00878906H25.8279L20.5514 10.6397Z" fill="#191B1D"/>
<path d="M44.178 10.6397H42.3968V6.29225L37.1875 0.00878906H39.3216L43.3546 5.06953L47.3036 0.00878906H49.3537L44.178 6.29225V10.6397Z" fill="#191B1D"/>
<path d="M58.0415 5.7658H62.1417C63.6541 5.7658 65.0656 6.1564 65.0656 7.54895C65.0656 8.72073 64.0742 9.46795 62.5282 9.46795H58.0247L58.0415 5.7658ZM56.2603 10.6397H62.7803C65.4521 10.6397 66.8637 9.16227 66.8637 7.58291C66.8637 6.25829 65.9731 5.2903 64.3094 5.01858V4.98461C65.5698 4.57704 66.3091 3.72792 66.3091 2.5901C66.3091 1.5372 65.6202 0.772994 64.7295 0.365418C63.9229 0.00878906 62.3434 0.00878906 61.1503 0.00878906H56.2603V10.6397ZM58.0415 1.18057H61.6376C63.1836 1.18057 64.5111 1.38436 64.5111 2.8788C64.5111 3.99964 63.6877 4.59402 61.6376 4.59402H58.0415V1.18057Z" fill="#191B1D"/>
<path d="M76.7445 5.7658V9.46795H84.3063V10.6397H74.9464V0.00878906H84.2391V1.18057H76.7445V4.59402H83.735V5.7658H76.7445Z" fill="#191B1D"/>
<path d="M94.019 0.00878906V9.46795H101.161V10.6397H92.2378V0.00878906H94.019Z" fill="#191B1D"/>
<path d="M109.899 0.00878906V9.46795H117.024V10.6397H108.118V0.00878906H109.899Z" fill="#191B1D"/>
<path d="M124.418 0.00878906H126.199V10.6397H124.418V0.00878906Z" fill="#191B1D"/>
<path d="M143.39 10.6397L136.298 2.1146H136.265V10.6397H134.584V0.00878906H136.483L143.625 8.63582H143.658V0.00878906H145.339V10.6397H143.39Z" fill="#191B1D"/>
<path d="M155.405 5.7658V9.46795H162.983V10.6397H153.623V0.00878906H162.933V1.18057H155.405V4.59402H162.412V5.7658H155.405Z" fill="#191B1D"/>
<path d="M111.815 16.8554L109.109 13.4249H109.092V16.8554H108.168V12.2871H109.26L111.966 15.7175H111.983V12.2871H112.89V16.8554H111.815Z" fill="#191B1D"/>
<path d="M117.175 14.8684V16.1421H120.217V16.8554H116.234V12.2871H120.166V13.0004H117.175V14.1552H120.032V14.8684H117.175Z" fill="#191B1D"/>
<path d="M127.644 16.8554L126.518 13.357H126.501L125.376 16.8554H124.334L122.838 12.2871H123.863L124.888 15.8364H124.905L126.031 12.2871H127.022L128.148 15.8364H128.165L129.207 12.2871H130.198L128.669 16.8554H127.644Z" fill="#191B1D"/>
<path d="M134.803 12.2871H135.962L137.256 14.325L138.55 12.2871H139.71L137.743 15.1232V16.8554H136.786V15.1232L134.803 12.2871Z" fill="#191B1D"/>
<path d="M144.952 16.2779C143.894 16.2779 143.272 15.5817 143.272 14.5797C143.272 13.5777 143.877 12.8815 144.952 12.8815C146.011 12.8815 146.633 13.5777 146.633 14.5797C146.633 15.5817 146.028 16.2779 144.952 16.2779ZM144.952 16.9912C146.868 16.9912 147.624 15.8704 147.624 14.5797C147.624 13.289 146.868 12.1682 144.952 12.1682C143.037 12.1682 142.297 13.289 142.297 14.5797C142.297 15.8704 143.037 16.9912 144.952 16.9912Z" fill="#191B1D"/>
<path d="M151.657 14.342V13.0004H153.304C153.808 13.0004 154.111 13.1872 154.111 13.6627C154.111 14.1721 153.825 14.342 153.304 14.342H151.657ZM150.699 16.8554H151.657V15.0552H153.27C153.976 15.0552 154.06 15.5138 154.06 16.1761C154.06 16.5157 154.111 16.7365 154.178 16.8723H155.203C155.018 16.6176 155.018 16.1081 155.018 15.8874C155.018 15.242 154.9 14.7665 154.363 14.6477V14.6307C154.783 14.4948 155.119 14.1212 155.119 13.5268C155.119 12.8136 154.749 12.2871 153.59 12.2871H150.716L150.699 16.8554Z" fill="#191B1D"/>
<path d="M161.706 16.8554L160.009 14.7495L159.236 15.4458V16.8554H158.278V12.2871H159.236V14.4099L161.555 12.2871H162.866L160.748 14.1382L163 16.8554H161.706Z" fill="#191B1D"/>
</g>
<defs>
<clipPath id="clip0_133_596">
<rect width="163" height="17" fill="white"/>
</clipPath>
</defs>
</svg>
