<svg width="139" height="25" viewBox="0 0 139 25" fill="none" xmlns="http://www.w3.org/2000/svg">
<path fill-rule="evenodd" clip-rule="evenodd" d="M133.214 11.5954H123.021C123.147 10.3183 124.049 9.0411 125.676 9.0411H137.696V6.5871H125.125C120.118 6.5871 118.063 10.394 118.063 14.0494H132.087C132.562 14.0494 133.689 14.1497 133.689 15.3013C133.689 16.4536 132.713 16.5539 131.035 16.6037H116.409V6.5871H112.103V16.6037H103.889C101.409 16.6037 101.135 14.776 101.135 13.7998V6.5871H93.296L86.9094 10.8443L81.15 6.5871H64.3479C59.3396 6.5871 56.3343 10.0679 55.9086 13.0977H59.3723C57.9874 14.0316 57.0067 15.2968 56.474 16.5993L46.6937 16.6037C44.2144 16.6037 43.9388 14.776 43.9388 13.7998V6.5871H39.6318V13.4238C39.6318 18.132 42.9373 19.0585 44.5398 19.0585H78.9731L85.4087 14.7508L91.2439 19.0585H98.0308L88.9905 12.3971L96.4275 7.41327V13.9996C96.4275 18.2561 100.585 19.0585 101.737 19.0585H133.165C134.718 19.0585 139 18.8579 139 15.4521C139 12.0464 135.843 11.5954 133.214 11.5954ZM78.2725 16.6037H62.0693C62.1941 15.3266 63.5968 14.0494 65.2246 14.0494H74.791V11.5954H61.7186C61.8434 10.3183 63.2461 9.0411 64.8739 9.0411H75.7925V7.61387L83.3559 13.2232L78.2725 16.6037ZM17.0822 24.5423C22.7376 24.5423 27.7533 22.5682 30.8626 19.5258L28.0609 19.5392C25.4123 21.7666 21.54 23.1685 17.1513 23.1685C8.96458 23.1685 2.57362 18.2902 2.57362 12.2715C2.57362 5.33001 8.96458 1.37448 17.1513 1.37448C17.6721 1.37596 18.0882 1.61594 17.7761 2.06766C16.0755 4.11526 11.2321 10.7053 10.3487 12.1333C8.60573 14.9484 8.64733 18.4151 12.9171 18.658H30.8716C31.7891 18.658 32.0217 18.2278 32.353 17.7791C33.5365 16.1874 34.1718 14.2549 34.1636 12.2715C34.1606 7.099 30.5209 3.22223 25.1649 1.31505L24.3357 2.55356C28.7861 4.19551 31.7289 7.51357 31.7289 12.2715C31.7289 13.0977 31.6078 13.9023 31.379 14.6757C31.1799 15.3474 30.7913 15.9157 30.055 15.9157H15.7233C13.8874 15.9157 14.597 14.0219 15.2768 13.1044C16.2627 11.3369 21.6633 3.97633 22.9635 2.60482C23.2948 2.10184 24.2235 1.06021 22.9434 0.661236C21.1157 0.227346 19.1409 0 17.0814 0C7.64805 0 0.00520268 4.84411 1.94658e-06 12.2715C-0.00445582 19.768 7.64805 24.5423 17.0822 24.5423Z" fill="black"/>
</svg>
