<svg width="106" height="32" viewBox="0 0 106 32" fill="none" xmlns="http://www.w3.org/2000/svg">
<g clip-path="url(#clip0_133_236)">
<path d="M0 0.712641H4.20099L12.1649 18.2049L19.8405 0.712641H23.4592L13.1777 22.6147H10.5717L0 0.712641ZM27.224 22.6147H30.8447V0.712641H27.224V22.6147ZM79.9329 22.7561H76.3123V12.8015H63.5708V22.7561H59.806V0.854053H63.5689V10.0979H76.3123V0.854053H79.9329V22.7561ZM82.9751 0.569369H87.4625L94.9921 10.952L102.087 0.712641H106L96.8754 13.797V22.6147H92.9646V13.7951L82.9732 0.571229L82.9751 0.569369ZM55.8915 3.5539V0.855914C53.7636 0.311262 51.5774 0.0238789 49.3803 0C43.4439 0 37.6497 2.41889 35.1898 7.82231C33.7408 10.6691 34.3193 14.9338 36.2007 17.6374C40.9821 23.6102 49.6686 23.7516 56.6197 21.9021V19.3418C56.3295 19.3418 56.3295 19.3418 56.1854 19.4851C51.1176 21.1913 45.3235 22.0454 40.3999 16.9248C38.5184 14.6491 37.938 11.3781 38.8086 8.53309C40.3999 4.26654 44.3107 1.99093 49.0883 2.41703C49.0883 2.41703 52.4206 2.27561 55.8952 3.55576L55.8915 3.5539ZM10.8582 31.5758H12.0189V32.0037H10.2778V27.5939H10.8582V31.5758ZM19.4024 30.2975H17.9553L18.6779 28.448L19.4024 30.2956V30.2975ZM19.6926 30.7236L20.1269 32.0037H20.7073L18.6798 27.3092L16.6504 32.0037H17.2308L17.6651 30.7236H19.6926ZM26.2075 29.8677H26.6437C27.2222 29.8677 27.8025 30.0128 27.8025 30.7236C27.8025 31.4344 27.2222 31.5758 26.7878 31.5758H26.2094V29.8695L26.2075 29.8677ZM25.775 32.0037H26.7897C27.6565 32.0037 28.381 31.5758 28.381 30.7236C28.381 30.1542 28.0908 29.7281 27.5123 29.5848C27.8025 29.4434 27.9467 29.1569 27.9467 28.7308C27.9467 27.8786 27.2222 27.5958 26.4977 27.5958H25.775V32.0037ZM26.2094 28.0219H26.3535C27.078 28.0219 27.5123 28.0219 27.5123 28.7308C27.5123 29.4434 26.932 29.4434 26.3535 29.4434H26.2094V28.0219ZM35.7664 27.8786C36.7792 27.8786 37.5037 28.7308 37.5037 29.7281C37.5037 30.7236 36.7792 31.5758 35.7664 31.5758C34.7517 31.5758 33.8831 30.7236 33.8831 29.7281C33.8831 28.7308 34.6076 27.8786 35.7664 27.8786ZM35.7664 27.4506C34.4634 27.4506 33.3046 28.448 33.3046 29.7281C33.3046 31.0083 34.4634 32.0037 35.7664 32.0037C36.9252 32.0037 38.0822 31.0083 38.0822 29.7281C38.0822 28.448 36.9252 27.4525 35.7664 27.4525V27.4506ZM43.1518 28.02H43.296C43.8763 28.02 44.4548 28.02 44.4548 28.8741C44.4548 29.4434 43.8745 29.5848 43.296 29.5848H43.1518V28.02ZM43.1518 30.0109H43.296L44.599 32.0019H45.1793L43.7303 30.0109C44.4548 29.8695 44.891 29.4434 44.891 28.7308C44.891 27.7372 44.1646 27.5958 43.296 27.5958H42.5715V32.0019H43.1518V30.0109ZM52.2746 30.2956H50.6814L51.5501 28.448L52.2746 30.2956ZM52.4187 30.7236L52.9991 32.0037H53.5775L51.5501 27.3092L49.3784 32.0037H49.9588L50.5373 30.7236H52.4187ZM58.9336 32.0037H58.3551V28.0219H57.3423V27.5939H59.9483V28.0219H58.9355L58.9336 32.0037ZM66.3209 27.8786C67.3337 27.8786 68.2042 28.7308 68.2042 29.7281C68.2042 30.7236 67.3337 31.5758 66.3209 31.5758C65.3081 31.5758 64.5817 30.7236 64.5817 29.7281C64.5817 28.7308 65.3081 27.8786 66.3228 27.8786H66.3209ZM66.3209 27.4506C65.0179 27.4506 64.0033 28.448 64.0033 29.7281C64.0033 31.0083 65.0179 32.0019 66.3209 32.0019C67.6239 32.0019 68.7827 31.0064 68.7827 29.7281C68.7827 28.448 67.622 27.4525 66.3209 27.4525V27.4506ZM73.7045 27.5939H74.2848V32.0037H73.7045V27.5939ZM80.2212 28.0219H80.3673C81.0899 28.0219 81.5261 28.0219 81.5261 28.8741C81.5261 29.4434 80.9457 29.5848 80.5114 29.5848H80.2212V28.0219ZM80.2212 30.0128H80.3673L81.8144 32.0037H82.3947L80.9457 30.0128C81.6702 29.8695 82.1046 29.4434 82.1046 28.7308C82.1046 27.7372 81.2359 27.5958 80.3673 27.5958H79.7869V32.0019H80.2231V30.0109L80.2212 30.0128ZM87.3165 27.5939H89.7783V28.0219H87.895V29.3002H89.636V29.7281H87.895V31.5758H89.7783V32.0037H87.3165V27.5939ZM96.4392 28.448C96.1509 28.1633 96.0068 27.8786 95.5724 27.8786C95.1381 27.8786 94.8479 28.1633 94.8479 28.5894C94.8479 29.0173 95.2822 29.1587 95.5724 29.3002L95.8626 29.4434C96.4392 29.7281 96.8735 30.0109 96.8735 30.7236C96.8735 31.4344 96.2951 32.0019 95.5724 32.0019C94.8498 32.0019 94.2676 31.5758 94.1234 30.865L94.5577 30.7236C94.7019 31.2911 94.9921 31.5758 95.5724 31.5758C96.0068 31.5758 96.4392 31.2911 96.4392 30.7236C96.4392 30.1542 96.0068 30.0109 95.5724 29.8677L95.2804 29.7281C94.8479 29.4434 94.4136 29.3002 94.4136 28.5894C94.4136 27.8786 94.9921 27.4525 95.5724 27.4525C96.1509 27.4525 96.5834 27.7372 96.7312 28.1633L96.4392 28.448Z" fill="#191B1D"/>
</g>
<defs>
<clipPath id="clip0_133_236">
<rect width="106" height="32" fill="white"/>
</clipPath>
</defs>
</svg>
