<svg width="118" height="74" viewBox="0 0 118 74" fill="none" xmlns="http://www.w3.org/2000/svg">
<path d="M113.06 48.572H113.277L113.458 49.3883L113.639 48.572H113.839V49.8056H113.694V48.826L113.477 49.8056H113.386L113.187 48.826V49.8056H113.042V48.572H113.06ZM112.282 48.572H112.916V48.7715H112.698V49.8056H112.517V48.7715H112.3V48.572H112.282ZM108.681 48.4087L111.54 51.4928V48.572H111.974V52.6176L109.115 49.5516V52.4543H108.681V48.4087ZM106.835 51.6379C107.142 51.3295 107.305 50.9485 107.305 50.5131C107.305 50.0777 107.142 49.6968 106.835 49.3883C106.527 49.0799 106.129 48.9167 105.694 48.9167C105.26 48.9167 104.862 49.0799 104.554 49.3883C104.246 49.6968 104.084 50.0777 104.084 50.5131C104.084 50.9485 104.246 51.3295 104.554 51.6379C104.862 51.9463 105.26 52.0914 105.694 52.0914C106.129 52.1096 106.527 51.9463 106.835 51.6379ZM107.196 51.9463C106.798 52.3273 106.255 52.545 105.712 52.545C105.169 52.545 104.627 52.3454 104.228 51.9463C103.83 51.5653 103.595 51.0755 103.595 50.5131C103.595 49.9507 103.794 49.4609 104.228 49.0799C104.627 48.699 105.169 48.4813 105.712 48.4813C106.255 48.4813 106.798 48.6808 107.196 49.0799C107.595 49.4609 107.794 49.987 107.794 50.5131C107.794 51.0392 107.595 51.5835 107.196 51.9463ZM101.876 49.0074H100.754V48.572H103.468V49.0074H102.382V52.4543H101.912V49.0074H101.876ZM98.0569 48.572H98.5275V50.2954L100.174 48.572H100.717L99.0161 50.3136L100.862 52.4543H100.265L98.5275 50.3499V52.4361H98.0569V48.572ZM93.6953 48.4087L96.5548 51.4928V48.572H96.9891V52.6176L94.1296 49.5516V52.4543H93.6953V48.4087ZM90.7634 50.8578H92.0121L91.3787 49.4428L90.7634 50.8578ZM93.1704 52.4361H92.6818L92.1569 51.2569H90.6186L90.0937 52.4361H89.6051L91.3787 48.3906L93.1704 52.4361ZM87.5238 48.572H87.9943V52.0189H89.4784V52.4543H87.5238V48.572ZM85.3339 50.2954C86.0035 50.2954 86.3474 50.2229 86.3474 49.6786C86.3474 49.1162 86.0035 49.0074 85.3339 49.0074H85.0986V50.2954H85.3339ZM85.0986 52.4361H84.6643V48.5538H85.4968C85.895 48.5538 86.2207 48.5538 86.4922 48.7534C86.7275 48.9348 86.8904 49.2432 86.8904 49.6242C86.8904 50.0052 86.7275 50.3136 86.4922 50.495C86.2388 50.6764 85.913 50.6945 85.4968 50.6945H85.1348V52.418H85.0986V52.4361ZM79.9407 48.572H82.0038V48.9892H80.3931V50.0959H82.0038V50.5313H80.3931V52.0189H82.0038V52.4543H79.9407V48.572ZM77.0449 48.572H79.1081V48.9892H77.4974V50.0959H79.1081V50.5313H77.4974V52.4361H77.0268V48.572H77.0449ZM75.5066 48.572H75.9772V52.4543H75.5066V48.572ZM72.9005 48.572H73.371V52.0189H74.8551V52.4543H72.9005V48.572ZM68.2673 48.572H70.3305V48.9892H68.7198V50.0959H70.3305V50.5313H68.7198V52.4361H68.2492V48.572H68.2673ZM66.4394 51.6379C66.7471 51.3295 66.91 50.9485 66.91 50.5131C66.91 50.0777 66.7471 49.6968 66.4394 49.3883C66.1318 49.0799 65.7336 48.9167 65.2992 48.9167C64.8649 48.9167 64.4667 49.0799 64.1591 49.3883C63.8514 49.6968 63.6885 50.0777 63.6885 50.5131C63.6885 50.9485 63.8514 51.3295 64.1591 51.6379C64.4667 51.9463 64.8649 52.0914 65.2992 52.0914C65.7517 52.1096 66.1318 51.9463 66.4394 51.6379ZM66.7833 51.9463C66.3851 52.3273 65.8422 52.545 65.2992 52.545C64.7563 52.545 64.1953 52.3454 63.8152 51.9463C63.417 51.5653 63.1818 51.0755 63.1818 50.5131C63.1818 49.9507 63.3808 49.4609 63.8152 49.0799C64.2134 48.699 64.7563 48.4813 65.2992 48.4813C65.8422 48.4813 66.3851 48.6808 66.7833 49.0799C67.1814 49.4609 67.3805 49.987 67.3805 50.5131C67.3805 51.0392 67.1814 51.5835 66.7833 51.9463ZM59.0735 50.241H59.4354C60.0689 50.241 60.3403 50.1684 60.3403 49.6242C60.3403 49.0618 60.0508 48.9529 59.4354 48.9529H59.0735V50.241ZM58.6029 48.572H59.544C59.906 48.572 60.1956 48.572 60.4489 48.7715C60.6842 48.9529 60.8109 49.2614 60.8109 49.6242C60.8109 50.2591 60.4489 50.6038 59.7431 50.6038H59.6707L61.1729 52.4543H60.5756L59.1459 50.6038H59.0735V52.4543H58.621V48.572H58.6029ZM55.6348 48.572H57.698V48.9892H56.0873V50.0959H57.698V50.5313H56.0873V52.0189H57.698V52.4543H55.6348V48.572ZM50.5311 48.572L51.5265 51.4202L52.5762 48.4087L53.6259 51.4202L54.6213 48.572H55.11L53.5897 52.6176L52.5762 49.606L51.5627 52.6176L50.0606 48.572H50.5311ZM48.6851 51.6379C48.9928 51.3295 49.1557 50.9485 49.1557 50.5131C49.1557 50.0777 48.9928 49.6968 48.6851 49.3883C48.3775 49.0799 47.9793 48.9167 47.5449 48.9167C47.1106 48.9167 46.7124 49.0799 46.4048 49.3883C46.0971 49.6968 45.9342 50.0777 45.9342 50.5131C45.9342 50.9485 46.0971 51.3295 46.4048 51.6379C46.7124 51.9463 47.1106 52.0914 47.5449 52.0914C47.9793 52.1096 48.3594 51.9463 48.6851 51.6379ZM49.0471 51.9463C48.6489 52.3273 48.106 52.545 47.563 52.545C47.0201 52.545 46.4772 52.3454 46.079 51.9463C45.6808 51.5653 45.4456 51.0755 45.4456 50.5131C45.4456 49.9507 45.6446 49.4609 46.079 49.0799C46.4772 48.699 47.0201 48.4813 47.563 48.4813C48.106 48.4813 48.6489 48.6808 49.0471 49.0799C49.4453 49.4609 49.6443 49.987 49.6443 50.5131C49.6443 51.0392 49.4272 51.5835 49.0471 51.9463ZM43.4367 50.2954C44.1063 50.2954 44.4502 50.2229 44.4502 49.6786C44.4502 49.1162 44.1063 49.0074 43.4367 49.0074H43.2014V50.2954H43.4367ZM43.1833 52.4361H42.7489V48.5538H43.5814C43.9796 48.5538 44.3054 48.5538 44.5768 48.7534C44.8121 48.9348 44.975 49.2432 44.975 49.6242C44.975 50.0052 44.8121 50.3136 44.5768 50.495C44.3235 50.6764 43.9977 50.6945 43.5814 50.6945H43.2195V52.418H43.1833V52.4361ZM40.1971 50.4406V50.5676C40.1971 51.8012 39.437 52.545 38.2425 52.545C37.8443 52.545 37.5186 52.4724 37.2471 52.3092C36.5956 51.9826 36.2336 51.3295 36.2336 50.5313C36.2336 49.8963 36.4508 49.3702 36.867 48.9711C37.229 48.6445 37.6995 48.4631 38.2787 48.4631C39.0388 48.4631 39.5818 48.7171 39.9437 49.2795L39.5456 49.5879C39.256 49.1162 38.8397 48.8985 38.2968 48.8985C37.3919 48.8985 36.7584 49.5698 36.7584 50.5494C36.7584 51.4746 37.41 52.1459 38.2968 52.1459C39.075 52.1459 39.6541 51.6379 39.7084 50.8578H38.5864V50.4406H40.1971ZM32.0529 48.4087L34.9124 51.4928V48.572H35.3468V52.6176L32.4873 49.5516V52.4543H32.0529V48.4087ZM30.5327 48.572H31.0032V52.4543H30.5327V48.572ZM27.9084 48.572H28.379V52.0189H29.863V52.4543H27.9084V48.572ZM24.9946 50.8578H26.2434L25.61 49.4428L24.9946 50.8578ZM27.3836 52.4361H26.8949L26.3701 51.2569H24.8318L24.3069 52.4361H23.8183L25.5919 48.3906L27.3836 52.4361ZM21.3931 48.572H23.4744V48.9892H21.8637V50.0959H23.4744V50.5313H21.8637V52.0189H23.4744V52.4543H21.3931V48.572ZM17.321 48.572H17.7916V50.0596H19.891V48.572H20.3615V52.4543H19.891V50.495H17.8097V52.4543H17.3391V48.572H17.321ZM12.6336 48.572H14.6968V48.9892H13.086V50.0959H14.6968V50.5313H13.086V52.0189H14.6968V52.4543H12.6336V48.572ZM8.54341 48.572H9.01396V50.0596H11.0952V48.572H11.5658V52.4543H11.0952V50.495H9.01396V52.4543H8.54341V48.572ZM6.35353 49.0074H5.23145V48.572H7.90997V49.0074H6.80598V52.4543H6.33543V49.0074H6.35353ZM92.2655 41.6056L95.9937 21.5591H96.5186L101.785 33.9317L102.039 34.6211L102.509 35.8547C102.509 35.8547 102.925 36.9613 103.034 37.2697C103.323 36.5441 104.228 34.1312 104.228 34.1312L109.658 21.5591H110.128L113.694 41.6419H111.033L109.368 31.283C109.368 31.283 109.061 29.0697 109.024 28.7976C108.843 29.2148 108.554 29.9587 108.554 29.9587L103.36 42.0591H102.527L97.7311 30.7206L97.2968 29.6684C97.2968 29.6684 97.1158 29.1241 96.9891 28.7976C96.8624 29.614 96.5186 31.7547 96.5186 31.7547L94.8535 41.6237H92.2655V41.6056ZM87.1075 29.9224C87.4152 29.741 88.4468 29.0516 88.4468 27.4007C88.4468 26.6569 88.2839 26.1489 87.9762 25.6228C87.198 24.4073 85.8407 24.4073 84.5376 24.371H82.6011V30.4303H83.8318C85.3701 30.4122 86.3836 30.3215 87.1075 29.9224ZM86.3293 32.4985V32.5529H86.275L91.7226 41.6782H91.5959L88.6459 41.6237L83.5603 32.7343H82.5649V41.66H79.8864V22.0308H84.1394L85.6416 22.0489C87.1075 22.1215 88.9173 22.4662 90.0937 24.0263C90.7272 24.879 91.0529 25.8949 91.0529 27.056V27.183C91.0529 28.6162 90.6367 29.8498 89.7861 30.8295C89.5508 31.0834 89.2069 31.4463 88.5011 31.8272C87.7048 32.2626 86.7456 32.4259 86.3293 32.4985ZM70.0772 32.1175V39.2109H77.9499V41.6237H67.3986V32.2989H57.8609V41.6237H55.2367V22.0126H57.8609V29.8498H67.3986V22.0852L67.4348 22.0126H77.8775V24.4799H70.0953V29.7772H77.8051V32.1175H70.0772ZM41.6449 22.0126H54.0422V24.4255H49.1376V41.6237H46.4591V24.4255H41.6449V22.0126ZM27.9084 25.7861C25.429 27.8361 25.1756 30.6662 25.1756 31.8091C25.1756 32.8613 25.4109 34.9476 26.8768 36.8162C27.7094 37.8684 29.6097 39.61 32.9759 39.483C33.8808 39.4467 35.6907 39.229 37.3738 37.941C38.2606 37.2697 40.3238 35.3467 40.3238 31.7365C40.3238 31.3011 40.3238 29.9949 39.6903 28.5255C38.5502 25.8042 35.8897 24.1352 32.7225 24.1352C30.044 24.1533 28.5057 25.3325 27.9084 25.7861ZM39.7989 24.1715C42.8937 26.8746 43.129 30.5936 43.1109 31.6458C43.1109 32.4441 43.0023 34.0587 42.2603 35.7821C40.6495 39.5193 36.9937 41.8777 32.7225 41.9321C32.1434 41.9321 30.3879 41.9321 28.5057 41.152C24.7232 39.6281 22.4066 36.0542 22.4066 31.791C22.4066 30.3941 22.6962 27.7091 24.7051 25.26C25.8272 23.9175 28.3609 21.6679 32.813 21.6679C35.5459 21.6679 37.9167 22.5024 39.7989 24.1715ZM18.1716 22.0126H20.8502V41.6237H18.1716V22.0126ZM10.9143 30.2126C12.3802 29.7954 13.2127 28.725 13.1765 27.2011C13.1765 26.2033 12.8689 25.7135 12.5974 25.4051C11.7649 24.3529 10.4075 24.3529 9.21304 24.3529H7.89187V30.3941H9.39402L10.9143 30.2126ZM7.89187 32.6799V39.2835H9.5931L10.5523 39.229C11.6563 39.1565 12.6698 38.9932 13.4118 38.0498C13.8281 37.5056 14.0452 36.8888 14.0452 36.0905C14.0452 35.2742 13.81 34.5485 13.3937 34.0042C12.3802 32.6618 10.7695 32.6618 9.19494 32.6618H7.89187V32.6799ZM14.8235 32.0812C15.475 32.5892 16.5971 33.7865 16.5971 36.0724C16.5971 37.6326 16.0541 38.7211 15.6017 39.3923C14.1538 41.4242 11.8916 41.6056 9.33973 41.6056H5.23145V21.9945H9.43022L10.5161 22.0126C13.2851 22.1759 14.3529 23.1737 14.9683 24.0445C15.3121 24.4799 15.8551 25.4051 15.8551 26.8383C15.8551 27.5277 15.6922 29.2874 14.2081 30.5936L13.2489 31.2649C13.7919 31.5007 14.3348 31.7365 14.8235 32.0812Z" fill="#191B1D"/>
</svg>
