<svg width="149" height="25" viewBox="0 0 149 25" fill="none" xmlns="http://www.w3.org/2000/svg">
<path d="M16.0175 2.12963H15.1794V0H10.0575V2.12963H9.12625C3.53875 2.12963 0 4.90741 0 9.90741V10.8333C0 15.7407 3.44562 18.5185 9.21937 18.5185H10.0575V20.6481H15.1794V18.5185H16.0175C21.6981 18.5185 25.2369 15.7407 25.2369 10.7407V9.81481C25.2369 4.72222 21.6981 2.03704 16.0175 2.03704V2.12963ZM8.94 14.9074C6.42563 14.9074 5.12187 13.3333 5.12187 10.5556V10.1852C5.12187 7.40741 6.42563 5.83333 8.94 5.83333H10.0575V14.8148H8.94V14.9074ZM20.115 10.5556C20.115 13.3333 18.7181 14.9074 16.2037 14.9074H15.1794V5.83333H16.2037C18.7181 5.83333 20.115 7.31481 20.115 10.1852V10.5556ZM35.6669 5.92593C30.7312 5.92593 27.3787 8.98148 27.3787 13.3333C27.3787 17.7778 30.7312 20.7407 35.6669 20.7407C40.6025 20.7407 43.955 17.7778 43.955 13.3333C43.955 8.98148 40.6025 5.92593 35.6669 5.92593ZM35.6669 17.037C33.525 17.037 32.1281 15.5556 32.1281 13.3333C32.1281 11.1111 33.525 9.62963 35.6669 9.62963C37.7156 9.62963 39.2056 11.1111 39.2056 13.3333C39.2056 15.5556 37.7156 17.037 35.6669 17.037ZM62.6731 6.2037H57.2719L51.6844 12.8704V6.2037H47.0281V20.463H51.6844V13.7963L57.2719 20.463H63.0456L56.5269 13.0556L62.6731 6.2037ZM71.52 9.62963C73.1031 9.62963 74.2206 10.5556 74.5931 11.8519H79.2494C78.8769 8.33333 75.99 5.92593 71.6131 5.92593C66.6775 5.92593 63.325 8.98148 63.325 13.3333C63.325 17.7778 66.6775 20.7407 71.7062 20.7407C75.99 20.7407 78.8769 18.3333 79.1562 14.9074H74.5931C74.4057 15.5668 74.0007 16.1444 73.4434 16.5474C72.8861 16.9504 72.2087 17.1555 71.52 17.1296C69.4713 17.1296 68.0744 15.5556 68.0744 13.4259C68.0744 11.1111 69.4713 9.62963 71.52 9.62963ZM80.46 6.2037V10H85.675V20.463H90.3312V10H95.4531V6.2963H80.5531L80.46 6.2037ZM106.814 6.11111C104.952 6.11111 103.276 6.85185 102.158 8.24074V6.2037H97.7812V24.7222H102.438V18.7963C103.555 19.9074 105.045 20.6481 106.814 20.6481C111.098 20.6481 113.985 17.5926 113.985 13.3333C113.985 9.07407 111.098 6.11111 106.814 6.11111ZM105.697 17.1296C103.648 17.1296 102.158 15.5556 102.158 13.4259C102.158 11.1111 103.648 9.62963 105.697 9.62963C107.839 9.62963 109.236 11.1111 109.236 13.3333C109.236 15.5556 107.839 17.037 105.697 17.037V17.1296ZM124.508 5.92593C119.572 5.92593 116.22 8.98148 116.22 13.3333C116.22 17.7778 119.572 20.7407 124.508 20.7407C129.444 20.7407 132.796 17.7778 132.796 13.3333C132.796 8.98148 129.444 5.92593 124.415 5.92593H124.508ZM124.508 17.037C122.366 17.037 120.969 15.5556 120.969 13.3333C120.969 11.1111 122.366 9.62963 124.508 9.62963C126.557 9.62963 128.047 11.1111 128.047 13.3333C128.047 15.5556 126.557 17.037 124.508 17.037ZM134.1 6.2037V10H139.222V20.463H143.878V10H149V6.2963H134.1V6.2037Z" fill="#191B1D"/>
</svg>
