<svg width="113" height="20" viewBox="0 0 113 20" fill="none" xmlns="http://www.w3.org/2000/svg">
<path d="M70.8493 3.14H78.8128V19.445H82.0286V3.14H89.9913V0H70.8493V3.14ZM61.7379 6.70833H55.7659C54.771 6.70833 53.9537 5.90417 53.9537 4.92417C53.9537 3.94417 54.771 3.14083 55.7659 3.14083H63.7031V0H55.7659C53.0097 0 50.7633 2.21083 50.7633 4.92417C50.7633 7.6375 53.0097 9.84833 55.7659 9.84833H61.7388C63.5502 9.84833 65.0047 11.305 65.0047 13.0633C65.0047 14.8467 63.5247 16.28 61.7379 16.28H51.9375V19.42H61.7379C65.3114 19.42 68.2206 16.5558 68.2206 13.0383C68.2206 9.57167 65.3114 6.7075 61.7379 6.7075V6.70833ZM35.2203 0H28.8651V3.14H35.2203C38.4871 3.14 41.1422 5.72833 41.1932 8.91833C39.5339 7.53667 37.3903 6.7325 35.2203 6.7325H25.3443V10.4008C25.3443 15.375 29.4531 19.42 34.5066 19.42H44.3835V9.01917C44.3827 4.04417 40.2739 0 35.2203 0ZM28.5338 9.89833H35.2203C38.5126 9.89833 41.1932 12.5358 41.1932 15.7767V16.3042H34.5066C31.2135 16.3042 28.5338 13.6667 28.5338 10.4258V9.89833ZM103.314 0H96.9846V3.14H103.34C106.606 3.14 109.261 5.72833 109.312 8.91833C107.652 7.53667 105.509 6.7325 103.339 6.7325H93.462V10.4008C93.462 15.375 97.5717 19.42 102.625 19.42H112.502V9.01917C112.477 4.04417 108.368 0 103.314 0ZM109.285 15.7767V16.3042H102.599C99.3066 16.3042 96.6269 13.6667 96.6269 10.4258V9.89833H103.313C106.606 9.89833 109.286 12.5358 109.286 15.7767H109.285ZM12.5065 8.19C15.4147 6.45667 17.5074 3.54167 18.0944 0H14.8276C13.961 3.89417 10.3875 6.75833 6.27872 6.75833H3.19034V0H0V19.445H3.19034V9.89833H6.53361C11.8675 9.89833 16.2066 14.1692 16.2066 19.42H19.3969C19.4224 14.5708 16.6152 10.325 12.5065 8.19Z" fill="#191B1D"/>
</svg>
