<svg width="129" height="35" viewBox="0 0 129 35" fill="none" xmlns="http://www.w3.org/2000/svg">
<path d="M0 17.5C0 7.875 7.85639 0 17.4586 0H111.541C121.144 0 129 7.875 129 17.5C129 27.125 121.144 35 111.541 35H0V17.5Z" fill="#191B1D"/>
<path d="M51.7939 12.6388H57.9045V25.1805H60.7173V12.6388H66.8278V10.2083H51.7939V12.6388Z" fill="white"/>
<path d="M29.7767 22.6528H28.6128V10.1111H25.703V22.6528H16.6827V10.1111H13.7729V23.7222C13.7729 24.5 14.4519 25.1805 15.2278 25.1805H28.5158V27.4166H31.2316V24.2083C31.2316 24.2083 31.2316 24.2083 31.2316 24.1111C31.2316 24.1111 31.2316 24.1111 31.2316 24.0139C31.1346 23.2361 30.4557 22.6528 29.7767 22.6528Z" fill="white"/>
<path d="M47.9143 10.2083C47.9143 10.2083 46.9443 10.0139 46.1684 10.8889L36.7601 20.5139V10.1111H33.8503V24.0139C33.8503 24.7916 34.7233 25.4722 35.3052 25.4722C35.8872 25.4722 35.9842 25.375 36.2752 25.0833C36.3721 25.0833 36.3721 24.9861 36.4691 24.8889L46.5564 14.6805V25.0833H49.4661V11.5694C49.3691 10.7916 48.6902 10.2083 47.9143 10.2083Z" fill="white"/>
<path d="M111.541 20.3194C111.347 20.7083 111.056 21.0972 110.765 21.3888C110.28 21.8749 109.796 22.2638 109.214 22.4583C108.632 22.7499 108.05 22.8472 107.274 22.8472C106.595 22.8472 105.916 22.7499 105.334 22.4583C104.752 22.1666 104.267 21.8749 103.782 21.3888C103.297 20.9027 102.909 20.3194 102.715 19.7361C102.424 19.1527 102.327 18.4722 102.424 17.5972C102.424 16.8194 102.521 16.1388 102.812 15.5555C103.006 14.9722 103.394 14.3888 103.879 13.9027C104.364 13.4166 104.849 13.0277 105.431 12.8333C106.013 12.5416 106.595 12.4444 107.371 12.4444C108.05 12.4444 108.729 12.5416 109.311 12.8333C109.893 13.1249 110.377 13.4166 110.862 13.9027L113.093 12.1527V12.0555C112.317 11.2777 111.541 10.6944 110.571 10.3055C109.602 9.91661 108.632 9.72217 107.468 9.72217C106.401 9.72217 105.334 9.91661 104.364 10.3055C103.394 10.6944 102.618 11.2777 101.842 12.0555C101.066 12.8333 100.581 13.6111 100.193 14.5833C99.8053 15.5555 99.6113 16.5277 99.6113 17.6944C99.6113 18.8611 99.8053 19.8333 100.193 20.8055C100.581 21.7777 101.163 22.6527 101.842 23.4305C102.618 24.2083 103.394 24.7916 104.364 25.1805C105.334 25.5694 106.304 25.7638 107.468 25.7638C108.535 25.7638 109.602 25.5694 110.571 25.1805C111.541 24.7916 112.317 24.2083 113.093 23.4305C113.481 23.0416 113.772 22.6527 114.063 22.2638L111.541 20.3194Z" fill="white"/>
<path d="M96.4107 10.1111L92.6279 18.2778L87.8753 10.1111H84.6746L91.1731 21.1944C90.5911 22.2639 89.5242 22.9444 88.2633 22.9444C87.4873 22.9444 86.8084 22.75 86.1294 22.5555V25.1805C86.7114 25.4722 87.5843 25.5694 88.7482 25.5694C90.8821 25.5694 92.7249 24.2083 93.9858 21.4861L99.5144 10.2083H96.4107V10.1111Z" fill="white"/>
<path d="M77.303 10.1111H70.8045C70.0286 10.1111 69.3496 10.7916 69.3496 11.5694V25.1805H72.2594V20.4166H77.206C79.1458 20.4166 80.6007 19.9305 81.6677 18.9583C82.7346 17.9861 83.3165 16.7222 83.3165 15.1666C83.3165 13.6111 82.7346 12.4444 81.6677 11.4722C80.6977 10.5972 79.1458 10.1111 77.303 10.1111ZM77.012 17.8889H72.2594V12.6389H77.012C79.2428 12.6389 80.5037 13.6111 80.5037 15.2639C80.5037 16.9166 79.2428 17.8889 77.012 17.8889Z" fill="white"/>
</svg>
