<svg width="105" height="52" viewBox="0 0 105 52" fill="none" xmlns="http://www.w3.org/2000/svg">
<path d="M6.59027 45.0777V51.8738H5.66461V46.5631L3.36053 50.2621H3.2398L0.935717 46.5728V51.8738H0V45.0777H1.05646L3.30016 48.6699L5.53381 45.0777H6.59027Z" fill="#191B1D"/>
<path d="M8.61954 49.835C8.70674 50.2686 8.91132 50.6052 9.23329 50.8447C9.56197 51.0841 9.96443 51.2039 10.4407 51.2039C11.1047 51.2039 11.5877 50.9676 11.8895 50.4951L12.6341 50.9029C12.1444 51.6343 11.4066 52 10.4205 52C9.62233 52 8.97169 51.7605 8.46862 51.2816C7.97225 50.7961 7.72407 50.1845 7.72407 49.4466C7.72407 48.7152 7.9689 48.1068 8.45856 47.6214C8.94822 47.1359 9.58209 46.8932 10.3602 46.8932C11.098 46.8932 11.6984 47.1456 12.1612 47.6505C12.6307 48.1489 12.8655 48.7508 12.8655 49.4563C12.8655 49.5793 12.8554 49.7055 12.8353 49.835H8.61954ZM10.3602 47.6893C9.89064 47.6893 9.5016 47.8188 9.19305 48.0777C8.88449 48.3301 8.69333 48.6699 8.61954 49.0971H11.9801C11.9063 48.6375 11.7185 48.288 11.4166 48.0485C11.1148 47.8091 10.7626 47.6893 10.3602 47.6893Z" fill="#191B1D"/>
<path d="M16.461 47.835H15.1229V50.466C15.1229 50.7055 15.1698 50.877 15.2637 50.9806C15.3643 51.0777 15.5153 51.1294 15.7165 51.1359C15.9177 51.1359 16.1659 51.1294 16.461 51.1165V51.8738C15.6964 51.9709 15.1363 51.9126 14.7808 51.699C14.4253 51.479 14.2475 51.068 14.2475 50.466V47.835H13.2514V47.0194H14.2475V45.9126L15.1229 45.6602V47.0194H16.461V47.835Z" fill="#191B1D"/>
<path d="M21.4074 47.0194H22.2827V51.8738H21.4074V51.0388C20.9714 51.6796 20.3375 52 19.5057 52C18.8014 52 18.2011 51.754 17.7047 51.2621C17.2084 50.7638 16.9602 50.1586 16.9602 49.4466C16.9602 48.7346 17.2084 48.1327 17.7047 47.6408C18.2011 47.1424 18.8014 46.8932 19.5057 46.8932C20.3375 46.8932 20.9714 47.2136 21.4074 47.8544V47.0194ZM19.6164 51.1845C20.1262 51.1845 20.5521 51.0194 20.8942 50.6893C21.2363 50.3528 21.4074 49.9385 21.4074 49.4466C21.4074 48.9547 21.2363 48.5437 20.8942 48.2136C20.5521 47.877 20.1262 47.7087 19.6164 47.7087C19.1133 47.7087 18.6908 47.877 18.3487 48.2136C18.0066 48.5437 17.8355 48.9547 17.8355 49.4466C17.8355 49.9385 18.0066 50.3528 18.3487 50.6893C18.6908 51.0194 19.1133 51.1845 19.6164 51.1845Z" fill="#191B1D"/>
<path d="M30.2395 48.3495C30.5614 48.4984 30.8163 48.712 31.0041 48.9903C31.1986 49.2686 31.2959 49.589 31.2959 49.9515C31.2959 50.4951 31.098 50.9515 30.7023 51.3204C30.3065 51.6893 29.8236 51.8738 29.2534 51.8738H26.2149V45.0777H29.0321C29.5821 45.0777 30.0483 45.2557 30.4306 45.6117C30.813 45.9676 31.0041 46.4078 31.0041 46.932C31.0041 47.534 30.7492 48.0065 30.2395 48.3495ZM29.0321 45.9223H27.1506V48H29.0321C29.3272 48 29.5754 47.8997 29.7766 47.699C29.9779 47.4984 30.0785 47.2524 30.0785 46.9612C30.0785 46.6764 29.9745 46.4337 29.7666 46.233C29.5653 46.0259 29.3205 45.9223 29.0321 45.9223ZM29.2534 51.0291C29.5687 51.0291 29.8336 50.9223 30.0483 50.7087C30.2629 50.4951 30.3703 50.233 30.3703 49.9223C30.3703 49.6181 30.2596 49.3592 30.0382 49.1456C29.8236 48.932 29.562 48.8252 29.2534 48.8252H27.1506V51.0291H29.2534Z" fill="#191B1D"/>
<path d="M35.8938 47.0194H36.7691V51.8738H35.8938V51.1748C35.5383 51.7249 34.9949 52 34.2638 52C33.6735 52 33.2006 51.822 32.8451 51.466C32.4896 51.1036 32.3119 50.6149 32.3119 50V47.0194H33.1872V49.9515C33.1872 50.3463 33.2979 50.6537 33.5193 50.8738C33.7406 51.0874 34.0458 51.1942 34.4349 51.1942C34.8708 51.1942 35.223 51.0647 35.4913 50.8058C35.7596 50.5405 35.8938 50.1359 35.8938 49.5922V47.0194Z" fill="#191B1D"/>
<path d="M38.8466 48.3301C38.8466 48.5178 38.9438 48.6699 39.1384 48.7864C39.3329 48.8964 39.5676 48.9871 39.8427 49.0583C40.1177 49.123 40.3927 49.2006 40.6677 49.2913C40.9427 49.3754 41.1775 49.5243 41.372 49.7379C41.5665 49.945 41.6638 50.2136 41.6638 50.5437C41.6638 50.9838 41.486 51.3366 41.1305 51.6019C40.7817 51.8673 40.3323 52 39.7823 52C39.2926 52 38.8734 51.8964 38.5246 51.6893C38.1758 51.4822 37.9276 51.2071 37.7801 50.8641L38.5347 50.4466C38.6152 50.6796 38.7661 50.8641 38.9874 51C39.2088 51.1359 39.4737 51.2039 39.7823 51.2039C40.0707 51.2039 40.3088 51.1521 40.4967 51.0485C40.6845 50.9385 40.7784 50.7702 40.7784 50.5437C40.7784 50.356 40.6811 50.2071 40.4866 50.0971C40.2921 49.9806 40.0573 49.89 39.7823 49.8252C39.5073 49.754 39.2323 49.6731 38.9572 49.5825C38.6822 49.4919 38.4475 49.343 38.2529 49.1359C38.0584 48.9288 37.9612 48.6634 37.9612 48.3398C37.9612 47.9191 38.1289 47.5728 38.4642 47.301C38.8063 47.0291 39.2323 46.8932 39.742 46.8932C40.1512 46.8932 40.5134 46.9838 40.8287 47.165C41.1507 47.3398 41.3921 47.5858 41.5531 47.9029L40.8186 48.301C40.6375 47.8867 40.2787 47.6796 39.742 47.6796C39.4939 47.6796 39.2826 47.7379 39.1082 47.8544C38.9338 47.9644 38.8466 48.123 38.8466 48.3301Z" fill="#191B1D"/>
<path d="M43.0938 46.1359C42.9261 46.1359 42.7852 46.0809 42.6712 45.9709C42.5572 45.8608 42.5001 45.7282 42.5001 45.5728C42.5001 45.4175 42.5572 45.2848 42.6712 45.1748C42.7852 45.0583 42.9261 45 43.0938 45C43.2548 45 43.3923 45.0583 43.5063 45.1748C43.6203 45.2848 43.6773 45.4175 43.6773 45.5728C43.6773 45.7282 43.6203 45.8608 43.5063 45.9709C43.3923 46.0809 43.2548 46.1359 43.0938 46.1359ZM42.6511 51.8738V47.0194H43.5264V51.8738H42.6511Z" fill="#191B1D"/>
<path d="M47.3671 46.8932C47.9574 46.8932 48.4303 47.0744 48.7858 47.4369C49.1413 47.7929 49.3191 48.2783 49.3191 48.8932V51.8738H48.4437V48.9417C48.4437 48.5469 48.3331 48.2427 48.1117 48.0291C47.8904 47.8091 47.5851 47.699 47.1961 47.699C46.7601 47.699 46.408 47.8317 46.1396 48.0971C45.8713 48.356 45.7372 48.7573 45.7372 49.301V51.8738H44.8618V47.0194H45.7372V47.7184C46.0927 47.1683 46.636 46.8932 47.3671 46.8932Z" fill="#191B1D"/>
<path d="M51.1548 49.835C51.242 50.2686 51.4466 50.6052 51.7686 50.8447C52.0973 51.0841 52.4997 51.2039 52.976 51.2039C53.64 51.2039 54.123 50.9676 54.4248 50.4951L55.1694 50.9029C54.6797 51.6343 53.9419 52 52.9558 52C52.1576 52 51.507 51.7605 51.0039 51.2816C50.5075 50.7961 50.2594 50.1845 50.2594 49.4466C50.2594 48.7152 50.5042 48.1068 50.9938 47.6214C51.4835 47.1359 52.1174 46.8932 52.8955 46.8932C53.6333 46.8932 54.2336 47.1456 54.6965 47.6505C55.166 48.1489 55.4008 48.7508 55.4008 49.4563C55.4008 49.5793 55.3907 49.7055 55.3706 49.835H51.1548ZM52.8955 47.6893C52.4259 47.6893 52.0369 47.8188 51.7283 48.0777C51.4198 48.3301 51.2286 48.6699 51.1548 49.0971H54.5154C54.4416 48.6375 54.2538 48.288 53.9519 48.0485C53.6501 47.8091 53.2979 47.6893 52.8955 47.6893Z" fill="#191B1D"/>
<path d="M56.9651 48.3301C56.9651 48.5178 57.0624 48.6699 57.2569 48.7864C57.4514 48.8964 57.6862 48.9871 57.9612 49.0583C58.2362 49.123 58.5112 49.2006 58.7862 49.2913C59.0612 49.3754 59.296 49.5243 59.4905 49.7379C59.685 49.945 59.7823 50.2136 59.7823 50.5437C59.7823 50.9838 59.6046 51.3366 59.249 51.6019C58.9002 51.8673 58.4508 52 57.9008 52C57.4112 52 56.9919 51.8964 56.6431 51.6893C56.2943 51.4822 56.0461 51.2071 55.8986 50.8641L56.6532 50.4466C56.7337 50.6796 56.8846 50.8641 57.1059 51C57.3273 51.1359 57.5923 51.2039 57.9008 51.2039C58.1892 51.2039 58.4274 51.1521 58.6152 51.0485C58.803 50.9385 58.8969 50.7702 58.8969 50.5437C58.8969 50.356 58.7996 50.2071 58.6051 50.0971C58.4106 49.9806 58.1758 49.89 57.9008 49.8252C57.6258 49.754 57.3508 49.6731 57.0758 49.5825C56.8008 49.4919 56.566 49.343 56.3715 49.1359C56.1769 48.9288 56.0797 48.6634 56.0797 48.3398C56.0797 47.9191 56.2474 47.5728 56.5828 47.301C56.9248 47.0291 57.3508 46.8932 57.8606 46.8932C58.2697 46.8932 58.6319 46.9838 58.9472 47.165C59.2692 47.3398 59.5106 47.5858 59.6716 47.9029L58.9371 48.301C58.756 47.8867 58.3972 47.6796 57.8606 47.6796C57.6124 47.6796 57.4011 47.7379 57.2267 47.8544C57.0523 47.9644 56.9651 48.123 56.9651 48.3301Z" fill="#191B1D"/>
<path d="M61.2589 48.3301C61.2589 48.5178 61.3562 48.6699 61.5507 48.7864C61.7452 48.8964 61.98 48.9871 62.255 49.0583C62.53 49.123 62.805 49.2006 63.08 49.2913C63.355 49.3754 63.5898 49.5243 63.7843 49.7379C63.9789 49.945 64.0761 50.2136 64.0761 50.5437C64.0761 50.9838 63.8984 51.3366 63.5429 51.6019C63.1941 51.8673 62.7447 52 62.1946 52C61.705 52 61.2857 51.8964 60.9369 51.6893C60.5881 51.4822 60.34 51.2071 60.1924 50.8641L60.947 50.4466C61.0275 50.6796 61.1784 50.8641 61.3998 51C61.6211 51.1359 61.8861 51.2039 62.1946 51.2039C62.4831 51.2039 62.7212 51.1521 62.909 51.0485C63.0968 50.9385 63.1907 50.7702 63.1907 50.5437C63.1907 50.356 63.0934 50.2071 62.8989 50.0971C62.7044 49.9806 62.4696 49.89 62.1946 49.8252C61.9196 49.754 61.6446 49.6731 61.3696 49.5825C61.0946 49.4919 60.8598 49.343 60.6653 49.1359C60.4708 48.9288 60.3735 48.6634 60.3735 48.3398C60.3735 47.9191 60.5412 47.5728 60.8766 47.301C61.2187 47.0291 61.6446 46.8932 62.1544 46.8932C62.5635 46.8932 62.9258 46.9838 63.241 47.165C63.563 47.3398 63.8045 47.5858 63.9654 47.9029L63.231 48.301C63.0498 47.8867 62.691 47.6796 62.1544 47.6796C61.9062 47.6796 61.6949 47.7379 61.5205 47.8544C61.3461 47.9644 61.2589 48.123 61.2589 48.3301Z" fill="#191B1D"/>
<path d="M70.2741 45.0777C70.9247 45.0777 71.4647 45.288 71.894 45.7087C72.33 46.123 72.548 46.6408 72.548 47.2621C72.548 47.877 72.33 48.3948 71.894 48.8155C71.4647 49.2362 70.9247 49.4466 70.2741 49.4466H68.6542V51.8738H67.7185V45.0777H70.2741ZM70.2741 48.6019C70.6631 48.6019 70.9851 48.4757 71.24 48.2233C71.4949 47.9644 71.6223 47.644 71.6223 47.2621C71.6223 46.8738 71.4949 46.5534 71.24 46.301C70.9851 46.0485 70.6631 45.9223 70.2741 45.9223H68.6542V48.6019H70.2741Z" fill="#191B1D"/>
<path d="M77.3448 47.0194H78.2202V51.8738H77.3448V51.0388C76.9089 51.6796 76.275 52 75.4432 52C74.7389 52 74.1386 51.754 73.6422 51.2621C73.1459 50.7638 72.8977 50.1586 72.8977 49.4466C72.8977 48.7346 73.1459 48.1327 73.6422 47.6408C74.1386 47.1424 74.7389 46.8932 75.4432 46.8932C76.275 46.8932 76.9089 47.2136 77.3448 47.8544V47.0194ZM75.5539 51.1845C76.0637 51.1845 76.4896 51.0194 76.8317 50.6893C77.1738 50.3528 77.3448 49.9385 77.3448 49.4466C77.3448 48.9547 77.1738 48.5437 76.8317 48.2136C76.4896 47.877 76.0637 47.7087 75.5539 47.7087C75.0508 47.7087 74.6283 47.877 74.2862 48.2136C73.9441 48.5437 73.773 48.9547 73.773 49.4466C73.773 49.9385 73.9441 50.3528 74.2862 50.6893C74.6283 51.0194 75.0508 51.1845 75.5539 51.1845Z" fill="#191B1D"/>
<path d="M80.4218 47.835C80.7102 47.233 81.2334 46.932 81.9914 46.932V47.8155C81.5621 47.7961 81.1932 47.9061 80.8846 48.1456C80.576 48.3851 80.4218 48.7702 80.4218 49.301V51.8738H79.5464V47.0194H80.4218V47.835Z" fill="#191B1D"/>
<path d="M85.7025 47.835H84.3643V50.466C84.3643 50.7055 84.4113 50.877 84.5052 50.9806C84.6058 51.0777 84.7567 51.1294 84.9579 51.1359C85.1592 51.1359 85.4073 51.1294 85.7025 51.1165V51.8738C84.9378 51.9709 84.3777 51.9126 84.0222 51.699C83.6667 51.479 83.489 51.068 83.489 50.466V47.835H82.4929V47.0194H83.489V45.9126L84.3643 45.6602V47.0194H85.7025V47.835Z" fill="#191B1D"/>
<path d="M89.2736 46.8932C89.8639 46.8932 90.3368 47.0744 90.6923 47.4369C91.0478 47.7929 91.2255 48.2783 91.2255 48.8932V51.8738H90.3502V48.9417C90.3502 48.5469 90.2395 48.2427 90.0181 48.0291C89.7968 47.8091 89.4916 47.699 89.1025 47.699C88.6665 47.699 88.3144 47.8317 88.0461 48.0971C87.7778 48.356 87.6436 48.7573 87.6436 49.301V51.8738H86.7683V47.0194H87.6436V47.7184C87.9991 47.1683 88.5425 46.8932 89.2736 46.8932Z" fill="#191B1D"/>
<path d="M93.0613 49.835C93.1485 50.2686 93.3531 50.6052 93.675 50.8447C94.0037 51.0841 94.4062 51.2039 94.8824 51.2039C95.5465 51.2039 96.0294 50.9676 96.3312 50.4951L97.0758 50.9029C96.5861 51.6343 95.8483 52 94.8623 52C94.0641 52 93.4134 51.7605 92.9103 51.2816C92.414 50.7961 92.1658 50.1845 92.1658 49.4466C92.1658 48.7152 92.4106 48.1068 92.9003 47.6214C93.3899 47.1359 94.0238 46.8932 94.8019 46.8932C95.5397 46.8932 96.1401 47.1456 96.6029 47.6505C97.0724 48.1489 97.3072 48.7508 97.3072 49.4563C97.3072 49.5793 97.2971 49.7055 97.277 49.835H93.0613ZM94.8019 47.6893C94.3324 47.6893 93.9433 47.8188 93.6348 48.0777C93.3262 48.3301 93.1351 48.6699 93.0613 49.0971H96.4218C96.348 48.6375 96.1602 48.288 95.8584 48.0485C95.5565 47.8091 95.2044 47.6893 94.8019 47.6893Z" fill="#191B1D"/>
<path d="M99.1888 47.835C99.4772 47.233 100 46.932 100.758 46.932V47.8155C100.329 47.7961 99.9602 47.9061 99.6516 48.1456C99.3431 48.3851 99.1888 48.7702 99.1888 49.301V51.8738H98.3134V47.0194H99.1888V47.835Z" fill="#191B1D"/>
<path d="M102.183 48.3301C102.183 48.5178 102.28 48.6699 102.475 48.7864C102.669 48.8964 102.904 48.9871 103.179 49.0583C103.454 49.123 103.729 49.2006 104.004 49.2913C104.279 49.3754 104.514 49.5243 104.708 49.7379C104.903 49.945 105 50.2136 105 50.5437C105 50.9838 104.822 51.3366 104.467 51.6019C104.118 51.8673 103.669 52 103.118 52C102.629 52 102.21 51.8964 101.861 51.6893C101.512 51.4822 101.264 51.2071 101.116 50.8641L101.871 50.4466C101.951 50.6796 102.102 50.8641 102.324 51C102.545 51.1359 102.81 51.2039 103.118 51.2039C103.407 51.2039 103.645 51.1521 103.833 51.0485C104.021 50.9385 104.115 50.7702 104.115 50.5437C104.115 50.356 104.017 50.2071 103.823 50.0971C103.628 49.9806 103.394 49.89 103.118 49.8252C102.843 49.754 102.568 49.6731 102.293 49.5825C102.018 49.4919 101.784 49.343 101.589 49.1359C101.395 48.9288 101.297 48.6634 101.297 48.3398C101.297 47.9191 101.465 47.5728 101.8 47.301C102.143 47.0291 102.568 46.8932 103.078 46.8932C103.487 46.8932 103.85 46.9838 104.165 47.165C104.487 47.3398 104.728 47.5858 104.889 47.9029L104.155 48.301C103.974 47.8867 103.615 47.6796 103.078 47.6796C102.83 47.6796 102.619 47.7379 102.444 47.8544C102.27 47.9644 102.183 48.123 102.183 48.3301Z" fill="#191B1D"/>
<path d="M30.2544 25.7196C30.2544 27.9616 30.7397 29.6829 31.374 30.7242C32.2057 32.0882 33.4461 32.6661 34.7106 32.6661C36.3417 32.6661 37.8338 32.2557 40.7093 28.2229C43.013 24.9906 45.7274 20.4536 47.5538 17.6092L50.6467 12.7904C52.7953 9.44372 55.2822 5.7234 58.1335 3.20168C60.4613 1.14346 62.9723 0 65.4995 0C69.7422 0 73.7837 2.49314 76.8766 7.16906C80.2616 12.2901 81.9047 18.7404 81.9047 25.397C81.9047 29.3541 81.1355 32.2618 79.8266 34.5589C78.5621 36.7805 76.0974 39 71.9512 39V32.6661C75.5013 32.6661 76.3873 29.3582 76.3873 25.5726C76.3873 20.1779 75.1469 14.1911 72.4144 9.91335C70.4752 6.87911 67.9622 5.02508 65.1974 5.02508C62.2071 5.02508 59.8008 7.31199 57.0965 11.3896C55.6587 13.5561 54.1827 16.1962 52.5255 19.1753L50.7011 22.4526C47.0362 29.0417 46.1079 30.5425 44.2755 33.0193C41.0637 37.3563 38.3211 39 34.7106 39C30.4276 39 27.7192 37.1194 26.0418 34.2853C24.6726 31.9759 24 28.9458 24 25.4929L30.2544 25.7196Z" fill="#0081FB"/>
<path d="M28.9309 7.61623C31.7984 3.13429 35.9364 0 40.6826 0C43.4313 0 46.1638 0.824921 49.0171 3.18738C52.1383 5.77037 55.4649 10.0236 59.615 17.0334L61.1031 19.549C64.6955 25.6175 66.7393 28.7395 67.9355 30.2117C69.4739 32.1025 70.5512 32.6661 71.9507 32.6661C75.5008 32.6661 76.3868 29.3582 76.3868 25.5726L81.9042 25.397C81.9042 29.3541 81.135 32.2618 79.8261 34.5589C78.5615 36.7805 76.0968 39 71.9507 39C69.3732 39 67.0897 38.4324 64.5646 36.0168C62.6234 34.1628 60.354 30.8692 58.6082 27.9085L53.415 19.112C50.8093 14.6975 48.4191 11.406 47.0357 9.91539C45.5476 8.31251 43.6346 6.37681 40.5819 6.37681C38.1112 6.37681 36.0129 8.13487 34.257 10.824L28.9309 7.61623Z" fill="url(#paint0_linear_133_500)"/>
<path d="M40.5825 6.37681C38.1117 6.37681 36.0135 8.13487 34.2576 10.824C31.7747 14.624 30.2544 20.2841 30.2544 25.7196C30.2544 27.9616 30.7397 29.6829 31.374 30.7242L26.0418 34.2853C24.6726 31.9759 24 28.9458 24 25.4929C24 19.2141 25.6995 12.6699 28.9314 7.61623C31.7989 3.13429 35.937 0 40.6832 0L40.5825 6.37681Z" fill="url(#paint1_linear_133_500)"/>
<defs>
<linearGradient id="paint0_linear_133_500" x1="36.2828" y1="23.8901" x2="76.156" y2="25.876" gradientUnits="userSpaceOnUse">
<stop stop-color="#0064E1"/>
<stop offset="0.4" stop-color="#0064E1"/>
<stop offset="0.83" stop-color="#0073EE"/>
<stop offset="1" stop-color="#0082FB"/>
</linearGradient>
<linearGradient id="paint1_linear_133_500" x1="33.0615" y1="28.3822" x2="33.0615" y2="13.4764" gradientUnits="userSpaceOnUse">
<stop stop-color="#0082FB"/>
<stop offset="1" stop-color="#0064E0"/>
</linearGradient>
</defs>
</svg>
