<svg width="93" height="19" viewBox="0 0 93 19" fill="none" xmlns="http://www.w3.org/2000/svg">
<g clip-path="url(#clip0_133_479)">
<path d="M3.04703 12.5301C3.04703 13.6223 3.28345 14.4609 3.59247 14.9682C3.99763 15.6327 4.60193 15.9142 5.21801 15.9142C6.01263 15.9142 6.73956 15.7143 8.14044 13.7496C9.26272 12.1749 10.5851 9.96455 11.4749 8.57885L12.9817 6.2312C14.0285 4.60079 15.24 2.78832 16.6291 1.55979C17.7632 0.557068 18.9865 0 20.2177 0C22.2847 0 24.2536 1.21461 25.7604 3.49262C27.4095 5.98749 28.21 9.12995 28.21 12.3729C28.21 14.3007 27.8353 15.7173 27.1976 16.8364C26.5815 17.9187 25.3808 19 23.3609 19V15.9142C25.0904 15.9142 25.522 14.3027 25.522 12.4584C25.522 9.83026 24.9177 6.91361 23.5865 4.82958C22.6418 3.35136 21.4175 2.44812 20.0705 2.44812C18.6137 2.44812 17.4414 3.56225 16.1239 5.5488C15.4235 6.60424 14.7044 7.89047 13.897 9.34183L13.0082 10.9384C11.2228 14.1485 10.7705 14.8797 9.87782 16.0863C8.3131 18.1992 6.97696 19 5.21801 19C3.13139 19 1.81193 18.0838 0.994747 16.7031C0.327658 15.578 0 14.1018 0 12.4196L3.04703 12.5301Z" fill="#0081FB"/>
<path d="M2.40247 3.71047C3.79943 1.52696 5.81541 0 8.12766 0C9.46674 0 10.798 0.401885 12.1881 1.55283C13.7086 2.8112 15.3293 4.8833 17.3511 8.29832L18.0761 9.52387C19.8262 12.4803 20.822 14.0013 21.4047 14.7185C22.1542 15.6397 22.679 15.9142 23.3608 15.9142C25.0903 15.9142 25.522 14.3027 25.522 12.4584L28.21 12.3729C28.21 14.3007 27.8352 15.7173 27.1976 16.8364C26.5815 17.9187 25.3807 19 23.3608 19C22.1051 19 20.9927 18.7235 19.7625 17.5466C18.8168 16.6434 17.7112 15.0388 16.8606 13.5964L14.3306 9.311C13.0612 7.16031 11.8967 5.55675 11.2228 4.83058C10.4978 4.04969 9.56582 3.10665 8.07861 3.10665C6.8749 3.10665 5.85269 3.96314 4.99724 5.27325L2.40247 3.71047Z" fill="url(#paint0_linear_133_479)"/>
<path d="M8.07864 3.10665C6.87494 3.10665 5.85272 3.96314 4.99728 5.27325C3.78769 7.1245 3.04702 9.88199 3.04702 12.5301C3.04702 13.6223 3.28345 14.4609 3.59247 14.9682L0.994747 16.7031C0.327658 15.578 0 14.1018 0 12.4196C0 9.36073 0.827975 6.17251 2.4025 3.71047C3.79946 1.52696 5.81544 0 8.12769 0L8.07864 3.10665Z" fill="url(#paint1_linear_133_479)"/>
<path d="M34.1333 0.60083H37.6581L43.6511 11.595L49.6451 0.60083H53.0933V18.6658H50.218V4.82062L44.9617 14.4082H42.2639L37.0086 4.82062V18.6658H34.1333V0.60083ZM62.103 7.33638C60.0409 7.33638 58.7989 8.9101 58.5017 10.8588H65.5002C65.356 8.85141 64.2141 7.33638 62.103 7.33638ZM55.6508 11.969C55.6508 7.86858 58.2642 4.88429 62.153 4.88429C65.978 4.88429 68.2618 7.83078 68.2618 12.1878V12.9886H58.5017C58.848 15.1085 60.2351 16.537 62.4718 16.537C64.2563 16.537 65.3717 15.9849 66.4292 14.9752L67.9567 16.8722C66.5175 18.2141 64.6869 18.9881 62.3698 18.9881C58.1603 18.9881 55.6508 15.8754 55.6508 11.969ZM71.7483 7.59502H69.1015V5.20759H71.7483V1.25936H74.5226V5.20759H78.5437V7.59502H74.5226V13.6462C74.5226 15.7123 75.174 16.4464 76.775 16.4464C77.5058 16.4464 77.9247 16.3828 78.5437 16.2783V18.6399C77.7727 18.8607 77.0369 18.9622 76.2403 18.9622C73.2453 18.9622 71.7483 17.3029 71.7483 13.9814V7.59502ZM90.2256 9.9168C89.6684 8.49031 88.4255 7.43984 86.5988 7.43984C84.2248 7.43984 82.7052 9.14785 82.7052 11.9302C82.7052 14.6429 84.1041 16.4335 86.485 16.4335C88.3568 16.4335 89.693 15.3293 90.2256 13.9555V9.9168ZM92.9999 18.6658H90.2767V16.7817C89.5154 17.8908 88.1302 18.9881 85.8866 18.9881C82.2785 18.9881 79.8671 15.9252 79.8671 11.9302C79.8671 7.89743 82.3363 4.88429 86.0397 4.88429C87.8702 4.88429 89.3064 5.62638 90.2767 6.93649V5.20759H92.9999V18.6658Z" fill="#191B1D"/>
</g>
<defs>
<linearGradient id="paint0_linear_133_479" x1="5.98414" y1="11.6387" x2="25.4096" y2="12.6063" gradientUnits="userSpaceOnUse">
<stop stop-color="#0064E1"/>
<stop offset="0.4" stop-color="#0064E1"/>
<stop offset="0.83" stop-color="#0073EE"/>
<stop offset="1" stop-color="#0082FB"/>
</linearGradient>
<linearGradient id="paint1_linear_133_479" x1="4.41456" y1="13.8272" x2="4.41456" y2="6.56544" gradientUnits="userSpaceOnUse">
<stop stop-color="#0082FB"/>
<stop offset="1" stop-color="#0064E0"/>
</linearGradient>
<clipPath id="clip0_133_479">
<rect width="93" height="19" fill="white"/>
</clipPath>
</defs>
</svg>
