<svg width="114" height="48" viewBox="0 0 114 48" fill="none" xmlns="http://www.w3.org/2000/svg">
<path d="M17.8124 29.8471L17.9098 30.1225C17.8944 30.091 17.8587 29.9946 17.8124 29.8471ZM13.2904 27.8889C13.4614 26.4099 14.0421 25.5816 15.1364 24.7324C16.7021 23.5823 18.6579 24.2329 18.6579 24.2329V20.3728C19.1334 20.3606 19.609 20.3903 20.0794 20.4614V25.4275C20.0794 25.4275 18.1241 24.777 16.5584 25.9271C15.4647 26.7763 14.8829 27.6052 14.7125 29.0842C14.7071 29.8882 14.8514 30.9384 15.5158 31.8464C15.3515 31.7584 15.1841 31.6581 15.0135 31.5455C13.5499 30.5185 13.2833 28.9783 13.2904 27.8889ZM28.1549 13.2368C27.0779 12.0034 26.6706 10.7582 26.5233 9.88342H27.8783C27.8783 9.88342 27.6081 12.1771 29.577 14.4327L29.6043 14.463C29.0736 14.1142 28.587 13.7025 28.1549 13.2368Z" fill="#EE1D52"/>
<path d="M34.6821 16.734V21.6002C34.6821 21.6002 32.9531 21.5301 31.6735 21.1893C29.8869 20.7136 28.7386 19.9845 28.7386 19.9845C28.7386 19.9845 27.9454 19.4636 27.8813 19.4279V29.4808C27.8813 30.0398 27.7346 31.4373 27.2875 32.6035C26.7038 34.1282 25.8031 35.129 25.6375 35.333C25.6375 35.333 24.542 36.6865 22.6093 37.5975C20.8673 38.4193 19.3378 38.3985 18.8806 38.4193C18.8806 38.4193 16.2366 38.5288 13.8575 36.9124C13.3428 36.5568 12.8625 36.1537 12.423 35.7082L12.4348 35.7166C14.8146 37.3329 17.458 37.2235 17.458 37.2235C17.9158 37.2026 19.4453 37.2235 21.1867 36.4016C23.1182 35.4906 24.2148 34.1371 24.2148 34.1371C24.3787 33.9331 25.2836 32.9323 25.8649 31.407C26.3108 30.2414 26.4586 28.8439 26.4586 28.2844V18.232C26.5228 18.2683 27.316 18.7892 27.316 18.7892C27.316 18.7892 28.4643 19.5195 30.2509 19.994C31.531 20.3342 33.2594 20.405 33.2594 20.405V16.5919C33.8508 16.7305 34.3549 16.7685 34.6821 16.734Z" fill="#EE1D52"/>
<path d="M33.2601 16.5919V20.4044C33.2601 20.4044 31.5317 20.3336 30.2515 19.9935C28.4649 19.5177 27.3166 18.7887 27.3166 18.7887C27.3166 18.7887 26.5234 18.2677 26.4593 18.2314V28.282C26.4593 28.8416 26.3126 30.2391 25.8655 31.4046C25.2819 32.93 24.3811 33.9308 24.2155 34.1348C24.2155 34.1348 23.12 35.4882 21.1873 36.3993C19.4459 37.2211 17.9164 37.2003 17.4586 37.2211C17.4586 37.2211 14.8152 37.3305 12.4355 35.7142L12.4236 35.7059C12.1725 35.4515 11.936 35.1831 11.7153 34.9019C10.9558 33.9338 10.4903 32.7902 10.3734 32.4637C10.373 32.4624 10.373 32.4609 10.3734 32.4596C10.1846 31.8917 9.78913 30.5299 9.84316 29.2103C9.93875 26.8815 10.7225 25.4531 10.9297 25.0946C11.4788 24.1185 12.1928 23.2452 13.0399 22.5137C13.787 21.8818 14.6343 21.3793 15.5467 21.027C16.1157 20.7902 16.7085 20.6157 17.3149 20.5067C17.7585 20.4272 18.2075 20.3825 18.658 20.3729V24.2305C18.658 24.2305 16.7022 23.5799 15.1364 24.73C14.0422 25.5792 13.4615 26.4076 13.2905 27.8865C13.2833 28.976 13.5499 30.5162 15.0123 31.5444C15.1826 31.6574 15.35 31.7577 15.5147 31.8453C15.7703 32.1911 16.0811 32.4925 16.4344 32.7373C17.8629 33.6822 19.0599 33.7482 20.5906 33.1345C21.6125 32.7296 22.3778 31.8048 22.7406 30.7796C22.9644 30.1398 22.9615 29.4951 22.9615 28.8297V9.88403H26.524C26.6712 10.7588 27.0785 12.004 28.1556 13.2374C28.5877 13.7031 29.0743 14.1148 29.6049 14.4636C29.7617 14.6331 30.5633 15.4704 31.5922 15.9854C32.123 16.2511 32.6827 16.4546 33.2601 16.5919Z" fill="#191B1D"/>
<path d="M8.95557 31.2784V31.282L9.04344 31.5324C9.03394 31.5032 9.00069 31.4146 8.95557 31.2784Z" fill="#69C9D0"/>
<path d="M15.5468 21.027C14.6343 21.3793 13.7871 21.8817 13.0399 22.5136C12.1927 23.2469 11.4791 24.122 10.9309 25.0999C10.7237 25.4567 9.93998 26.8869 9.84438 29.2156C9.79035 30.5352 10.1858 31.897 10.3746 32.4649C10.3743 32.4662 10.3743 32.4677 10.3746 32.469C10.4934 32.7925 10.9571 33.9361 11.7165 34.9072C11.9372 35.1884 12.1737 35.4568 12.4248 35.7112C11.6198 35.1536 10.9019 34.4794 10.2944 33.7107C9.54157 32.7515 9.07726 31.6193 8.95613 31.285L8.95317 31.2779V31.2732C8.76435 30.707 8.36773 29.344 8.42295 28.0227C8.51854 25.6939 9.30229 24.2655 9.50951 23.907C10.0575 22.929 10.7712 22.0539 11.6185 21.3207C12.3655 20.6886 13.2128 20.1861 14.1253 19.834C14.6943 19.5973 15.2871 19.4228 15.8935 19.3137C16.8072 19.1536 17.7405 19.1398 18.6586 19.2727V20.3728C18.2082 20.3811 17.7592 20.4244 17.3155 20.5025C16.7088 20.6128 16.1157 20.7887 15.5468 21.027Z" fill="#69C9D0"/>
<path d="M26.5234 9.88396H22.9609V28.8308C22.9609 29.4962 22.9638 30.1391 22.74 30.7807C22.3802 31.8048 21.6148 32.7295 20.5948 33.1398C19.0635 33.7559 17.8665 33.6875 16.4385 32.7426C16.0852 32.4977 15.7745 32.1964 15.5188 31.8505C16.7354 32.5005 17.8243 32.4892 19.1733 31.9469C20.1875 31.5336 20.9593 30.6089 21.3156 29.5843C21.54 28.9444 21.5371 28.2998 21.5371 27.6349V8.68689H26.4563C26.4563 8.68689 26.4005 9.15846 26.5234 9.88396ZM33.26 15.5381V16.5919C32.6825 16.4546 32.1226 16.2511 31.5916 15.9853C30.5626 15.4703 29.7611 14.633 29.6043 14.4635C29.7861 14.5832 29.9749 14.6918 30.1696 14.7888C31.4206 15.4144 32.6497 15.6017 33.26 15.5381Z" fill="#69C9D0"/>
<path d="M85.899 25.4186C85.8989 25.6896 85.9389 25.9592 86.0178 26.2185C86.0222 26.2368 86.0278 26.2549 86.0344 26.2726C86.2244 26.8859 86.6054 27.4222 87.1216 27.803C87.6379 28.1838 88.2622 28.3892 88.9034 28.389V31.4337C87.4244 31.4337 86.3645 31.4855 84.7525 30.5304C82.9119 29.441 81.8776 27.4488 81.8776 25.38C81.8776 23.2475 83.0342 21.1096 84.9953 20.0803C86.4168 19.3334 87.4986 19.328 88.9034 19.328V22.3709C88.1066 22.3711 87.3425 22.6882 86.7792 23.2524C86.2158 23.8167 85.8992 24.582 85.899 25.38V25.4186Z" fill="#69C9D0"/>
<path d="M91.9309 25.4186C91.9313 25.6897 91.8913 25.9593 91.8121 26.2185C91.808 26.2369 91.8024 26.255 91.7955 26.2726C91.6057 26.886 91.2247 27.4224 90.7084 27.8032C90.1922 28.1841 89.5677 28.3893 88.9265 28.389V31.4337C90.4061 31.4337 91.4654 31.4855 93.0774 30.5304C94.918 29.441 95.9529 27.4488 95.9529 25.38C95.9529 23.2475 94.7957 21.1096 92.8352 20.0803C91.4137 19.3334 90.3313 19.328 88.9265 19.328V22.3709C89.7234 22.3709 90.4876 22.6879 91.0511 23.2522C91.6147 23.8165 91.9313 24.5819 91.9315 25.38L91.9309 25.4186Z" fill="#EE1D52"/>
<path d="M42.3973 16.5669H53.5248L52.4964 19.6336H49.5871V31.3689H46.0026V19.6336H42.3973V16.5669ZM71.8889 16.5669V19.6336H75.4942V31.3689H79.0763V19.6336H81.9856L83.0164 16.5669H71.8889ZM55.9455 20.0618C56.2883 20.0618 56.6234 19.96 56.9084 19.7692C57.1934 19.5785 57.4156 19.3074 57.5468 18.9902C57.6779 18.673 57.7123 18.324 57.6454 17.9873C57.5785 17.6506 57.4134 17.3413 57.1711 17.0985C56.9287 16.8557 56.6199 16.6904 56.2837 16.6234C55.9475 16.5565 55.599 16.5908 55.2823 16.7222C54.9656 16.8536 54.6949 17.0761 54.5045 17.3615C54.314 17.647 54.2124 17.9826 54.2124 18.3259C54.2124 18.7863 54.395 19.2278 54.72 19.5534C55.045 19.8789 55.4859 20.0618 55.9455 20.0618ZM54.2094 31.3689H57.7226V21.2886H54.2094V31.3689ZM70.3594 19.975H66.2518L62.7113 23.5246V16.5782H59.2218L59.21 31.3689H62.7345V27.5148L63.8323 26.5199L67.2523 31.3689H71.0197L66.0654 24.2774L70.3594 19.975ZM104.057 24.2774L108.353 19.975H104.245L100.705 23.5246V16.5782H97.2147L97.2034 31.3689H100.728V27.5148L101.828 26.5199L105.249 31.3689H109.013L104.057 24.2774ZM95.0262 25.3799C95.0262 28.7226 92.2842 31.4325 88.9016 31.4325C85.519 31.4325 82.7777 28.7226 82.7777 25.3799C82.7777 22.0373 85.5196 19.3274 88.9016 19.3274C92.2836 19.3274 95.0273 22.0379 95.0273 25.3799H95.0262ZM91.906 25.3799C91.906 24.7848 91.7298 24.203 91.3997 23.7082C91.0695 23.2134 90.6003 22.8277 90.0514 22.5999C89.5024 22.3722 88.8983 22.3126 88.3155 22.4287C87.7327 22.5448 87.1974 22.8314 86.7772 23.2522C86.357 23.673 86.0709 24.2092 85.955 24.7929C85.8391 25.3766 85.8986 25.9816 86.1259 26.5314C86.3533 27.0813 86.7384 27.5512 87.2325 27.8818C87.7266 28.2125 88.3074 28.389 88.9016 28.389C89.2963 28.3892 89.6871 28.3115 90.0518 28.1604C90.4165 28.0093 90.7479 27.7877 91.027 27.5082C91.3061 27.2288 91.5275 26.897 91.6785 26.5318C91.8296 26.1666 91.9073 25.7752 91.9072 25.3799H91.906Z" fill="#191B1D"/>
</svg>
