<svg width="110" height="49" viewBox="0 0 110 49" fill="none" xmlns="http://www.w3.org/2000/svg">
<rect width="12.25" height="49" fill="#EB4435"/>
<g clip-path="url(#clip0_133_512)">
<path d="M28.8921 5.25165H29.3356C30.8754 5.28583 32.39 5.91824 33.4779 7.03777C33.0762 7.45653 32.6662 7.85819 32.2729 8.27695C31.662 7.71291 30.9256 7.27706 30.1222 7.12323C28.9339 6.86685 27.6536 7.09759 26.6577 7.78982C25.5699 8.51624 24.8335 9.74687 24.6745 11.063C24.4987 12.362 24.8586 13.7293 25.687 14.7378C26.482 15.7206 27.6954 16.3359 28.9507 16.3786C30.1222 16.447 31.344 16.0795 32.1976 15.242C32.867 14.6523 33.1766 13.755 33.2771 12.8833C31.8879 12.8833 30.4988 12.8918 29.1097 12.8833V11.1228H34.9591C35.2604 13.0115 34.8252 15.1394 33.4193 16.4897C32.4821 17.4469 31.185 18.0109 29.8628 18.122C28.5825 18.2502 27.2603 18.0024 26.1222 17.3699C24.7581 16.6264 23.6703 15.3702 23.1347 13.8917C22.6326 12.5329 22.6242 10.9946 23.0929 9.62723C23.5196 8.3795 24.3397 7.27706 25.3941 6.50792C26.4067 5.74732 27.6368 5.32856 28.8921 5.25165Z" fill="#3780FF"/>
<path d="M62.449 5.69586H64.2398V17.8996C63.6456 17.8996 63.0431 17.9082 62.449 17.8911C62.4573 13.8317 62.449 9.76378 62.449 5.69586Z" fill="#38B137"/>
<path d="M38.9424 9.92615C40.047 9.7125 41.2437 9.95179 42.1558 10.6269C42.9843 11.2252 43.5617 12.1652 43.7374 13.1907C43.9634 14.3786 43.6789 15.6776 42.9257 16.6177C42.114 17.6689 40.7834 18.2329 39.4863 18.1474C38.298 18.0791 37.1432 17.4723 36.4403 16.481C35.6453 15.3871 35.4528 13.883 35.888 12.6011C36.3231 11.2252 37.5533 10.174 38.9424 9.92615ZM39.1935 11.5499C38.7416 11.6695 38.3232 11.9345 38.0219 12.3105C37.2102 13.3018 37.2604 14.917 38.1558 15.84C38.6663 16.3699 39.4361 16.6177 40.1474 16.4724C40.8085 16.3528 41.386 15.8998 41.7039 15.3016C42.2563 14.2846 42.0973 12.8831 41.2521 12.0883C40.7081 11.5755 39.9131 11.3619 39.1935 11.5499Z" fill="#FA3913"/>
<path d="M47.8128 9.92617C49.0764 9.67833 50.4572 10.0373 51.4028 10.9431C52.9426 12.3532 53.1099 14.994 51.7961 16.6177C51.0011 17.6432 49.7124 18.2073 48.4404 18.1475C47.227 18.1133 46.0304 17.498 45.3107 16.481C44.499 15.3615 44.3232 13.8232 44.7835 12.5156C45.2438 11.1824 46.4488 10.1655 47.8128 9.92617ZM48.0639 11.5499C47.612 11.6696 47.1936 11.9345 46.8923 12.302C46.089 13.2762 46.1224 14.8658 46.9844 15.7973C47.4948 16.3528 48.2898 16.6263 49.0262 16.4724C49.679 16.3443 50.2647 15.8999 50.5827 15.3016C51.1267 14.2761 50.9677 12.8746 50.1141 12.0798C49.5702 11.567 48.7752 11.3619 48.0639 11.5499Z" fill="#FCBD06"/>
<path d="M55.3358 10.4218C56.2982 9.80649 57.5785 9.63557 58.6162 10.1654C58.9425 10.3107 59.2103 10.5585 59.4697 10.8064C59.4781 10.5756 59.4697 10.3363 59.4781 10.0971C60.0388 10.1056 60.5995 10.0971 61.1685 10.1056V17.6432C61.1601 18.7798 60.8756 19.9848 60.0723 20.8138C59.1936 21.7282 57.8463 22.0102 56.6329 21.8222C55.3358 21.6257 54.2061 20.66 53.704 19.4379C54.2061 19.19 54.7333 18.9935 55.2521 18.7627C55.545 19.4635 56.1392 20.0617 56.8839 20.1985C57.6287 20.3352 58.4907 20.1472 58.976 19.5148C59.4949 18.8653 59.4949 17.9765 59.4697 17.1817C59.0848 17.5663 58.6413 17.9081 58.1057 18.0363C56.9425 18.3696 55.6622 17.9594 54.7668 17.1561C53.863 16.3528 53.3274 15.1136 53.3776 13.8829C53.4027 12.4899 54.1726 11.1482 55.3358 10.4218ZM57.0681 11.5157C56.5576 11.6012 56.0806 11.8917 55.7542 12.2934C54.9676 13.2505 54.9676 14.7803 55.7626 15.7203C56.2145 16.2758 56.9425 16.5835 57.6455 16.5066C58.3066 16.4382 58.9174 16.0109 59.2438 15.4212C59.7961 14.4214 59.7041 13.0625 58.9593 12.1908C58.499 11.6524 57.7626 11.3875 57.0681 11.5157Z" fill="#3780FF"/>
<path d="M66.3904 10.8577C67.3946 9.90052 68.9427 9.57577 70.2314 10.08C71.4532 10.55 72.2315 11.7379 72.6248 12.96C70.8088 13.7291 69.0013 14.4897 67.1854 15.2589C67.4364 15.746 67.8214 16.1904 68.3402 16.3699C69.0682 16.6348 69.9385 16.5408 70.5494 16.0451C70.7921 15.8571 70.9846 15.6093 71.1687 15.37C71.6289 15.6862 72.0892 15.9939 72.5495 16.3101C71.8967 17.3099 70.8005 18.0107 69.6205 18.1218C68.3151 18.2842 66.926 17.7714 66.0808 16.7288C64.6916 15.088 64.8255 12.3361 66.3904 10.8577ZM67.2858 12.4387C67.0013 12.8575 66.8841 13.3702 66.8925 13.8744C68.1059 13.3617 69.3193 12.8489 70.5327 12.3276C70.3319 11.849 69.8465 11.5585 69.3528 11.4815C68.5578 11.3363 67.7293 11.7721 67.2858 12.4387Z" fill="#FA3913"/>
</g>
<path d="M22.7498 21.8749H29.1973C30.2674 21.8749 31.2573 22.1224 32.1669 22.6173C33.0765 23.1121 33.7989 23.8086 34.334 24.7067C34.8869 25.5865 35.1633 26.5854 35.1633 27.7035C35.1633 28.8215 34.8869 29.8296 34.334 30.7277C33.7989 31.6075 33.0765 32.2949 32.1669 32.7897C31.2573 33.2846 30.2674 33.532 29.1973 33.532H24.997V41.56H22.7498V21.8749ZM29.2508 31.3051C29.9642 31.3051 30.5885 31.131 31.1235 30.7827C31.6765 30.4345 32.1045 29.9854 32.4077 29.4356C32.7109 28.8857 32.8625 28.3083 32.8625 27.7035C32.8625 27.0986 32.7109 26.5213 32.4077 25.9714C32.1045 25.4216 31.6765 24.9725 31.1235 24.6243C30.5885 24.276 29.9642 24.1019 29.2508 24.1019H24.997V31.3051H29.2508Z" fill="#767777"/>
<path d="M41.5477 41.9999C40.5489 41.9999 39.6572 41.7983 38.8724 41.3951C38.0876 40.9919 37.4812 40.442 37.0532 39.7455C36.6251 39.0307 36.4111 38.2242 36.4111 37.3261C36.4111 35.8415 36.9551 34.6868 38.043 33.862C39.131 33.0188 40.5044 32.5973 42.1631 32.5973C42.9835 32.5973 43.7415 32.6889 44.4371 32.8722C45.1505 33.0555 45.6945 33.2663 46.069 33.5045V32.6523C46.069 31.6075 45.7123 30.7736 44.9989 30.1504C44.2855 29.5089 43.3848 29.1881 42.2968 29.1881C41.5299 29.1881 40.8254 29.3622 40.1833 29.7105C39.5412 30.0404 39.0329 30.5078 38.6584 31.1126L36.9462 29.793C37.4812 28.9498 38.2125 28.29 39.1399 27.8135C40.0852 27.3369 41.1286 27.0986 42.2701 27.0986C44.125 27.0986 45.5786 27.6027 46.6309 28.6108C47.701 29.6005 48.2361 30.9568 48.2361 32.6798V41.56H46.069V39.553H45.962C45.5697 40.2312 44.9811 40.8086 44.1963 41.2851C43.4116 41.7617 42.5287 41.9999 41.5477 41.9999ZM41.7618 39.938C42.5287 39.938 43.2421 39.7363 43.902 39.3331C44.5619 38.9299 45.0881 38.3892 45.4805 37.711C45.8729 37.0328 46.069 36.2905 46.069 35.4841C45.641 35.1908 45.1148 34.9525 44.4906 34.7692C43.8664 34.5859 43.2064 34.4943 42.5109 34.4943C41.2624 34.4943 40.3171 34.7601 39.675 35.2916C39.0508 35.8231 38.7386 36.5105 38.7386 37.3536C38.7386 38.1234 39.024 38.7466 39.5947 39.2231C40.1655 39.6997 40.8878 39.938 41.7618 39.938Z" fill="#767777"/>
<path d="M51.3997 27.5385H53.5667V29.7655H53.6737C53.9947 28.9407 54.5387 28.2992 55.3056 27.841C56.0726 27.3827 56.9108 27.1536 57.8205 27.1536C58.2128 27.1536 58.5428 27.1811 58.8103 27.2361V29.628C58.5071 29.5547 58.0969 29.518 57.5797 29.518C56.4204 29.518 55.4751 29.9121 54.7438 30.7002C54.0304 31.4884 53.6737 32.5148 53.6737 33.7795V41.56H51.3997V27.5385ZM66.7828 41.78C66.2299 41.78 65.7127 41.6883 65.2311 41.5051C64.7674 41.3218 64.375 41.0743 64.054 40.7627C63.6973 40.4145 63.4297 40.0113 63.2514 39.553C63.073 39.0948 62.9838 38.5358 62.9838 37.876V29.6555H60.6028V27.5385H62.9838V23.5795H65.2579V27.5385H68.5753V29.6555H65.2579V37.2986C65.2579 38.0684 65.4006 38.6366 65.6859 39.0032C66.0248 39.4064 66.5153 39.608 67.1574 39.608C67.6746 39.608 68.174 39.4522 68.6556 39.1406V41.4226C68.388 41.5509 68.1116 41.6425 67.8262 41.6975C67.5587 41.7525 67.2109 41.78 66.7828 41.78Z" fill="#767777"/>
<path d="M71.4647 27.5385H73.6317V29.6005H73.7387C74.1132 28.904 74.7107 28.3175 75.5312 27.841C76.3516 27.3461 77.2255 27.0986 78.153 27.0986C79.7939 27.0986 81.0424 27.5935 81.8985 28.5833C82.7724 29.5547 83.2094 30.8835 83.2094 32.5698V41.56H80.9353V32.9272C80.9353 31.6258 80.6321 30.6819 80.0257 30.0954C79.4193 29.5089 78.59 29.2156 77.5377 29.2156C76.8064 29.2156 76.1465 29.4264 75.5579 29.848C74.9872 30.2695 74.5413 30.8285 74.2202 31.525C73.8992 32.2032 73.7387 32.918 73.7387 33.6695V41.56H71.4647V27.5385Z" fill="#767777"/>
<path d="M92.5342 41.9999C91.2322 41.9999 90.0639 41.6792 89.0295 41.0377C87.995 40.3962 87.1835 39.5164 86.5949 38.3983C86.0242 37.2619 85.7388 35.9881 85.7388 34.5768C85.7388 33.2205 86.0063 31.9741 86.5414 30.8377C87.0943 29.7013 87.8702 28.7941 88.8689 28.1159C89.8677 27.4377 91.0271 27.0986 92.3469 27.0986C93.6846 27.0986 94.8439 27.4102 95.8248 28.0334C96.8058 28.6383 97.5549 29.4814 98.0721 30.5628C98.6072 31.6442 98.8747 32.8814 98.8747 34.2744C98.8747 34.5493 98.8479 34.7876 98.7944 34.9892H88.0128C88.0664 36.0522 88.316 36.9504 88.7619 37.6835C89.2078 38.4167 89.7696 38.9665 90.4474 39.3331C91.143 39.6997 91.8653 39.883 92.6144 39.883C94.3623 39.883 95.7089 39.0398 96.6542 37.3536L98.5804 38.3159C97.9918 39.4522 97.1892 40.3503 96.1726 41.0102C95.1738 41.67 93.961 41.9999 92.5342 41.9999ZM96.4669 33.0647C96.4312 32.4781 96.2707 31.8916 95.9853 31.3051C95.7 30.7186 95.2452 30.2237 94.6209 29.8205C94.0145 29.4172 93.2476 29.2156 92.3201 29.2156C91.25 29.2156 90.3404 29.573 89.5913 30.2878C88.86 30.9843 88.3785 31.9099 88.1466 33.0647H96.4669Z" fill="#767777"/>
<path d="M101.536 27.5385H103.703V29.793H103.81C104.078 29.0232 104.595 28.3908 105.362 27.8959C106.129 27.3827 106.931 27.1261 107.77 27.1261C108.394 27.1261 108.929 27.2178 109.375 27.4011V29.9304C108.804 29.6372 108.162 29.4905 107.449 29.4905C106.789 29.4905 106.182 29.683 105.629 30.0679C105.076 30.4528 104.631 30.9752 104.292 31.635C103.971 32.2765 103.81 32.973 103.81 33.7245V41.56H101.536V27.5385Z" fill="#767777"/>
<path d="M2.62439 41.1249L2.62439 39.3307C2.62439 39.0329 2.69038 38.7574 2.82236 38.5043C2.95435 38.2511 3.1401 38.0501 3.37963 37.9012C3.61426 37.7473 3.88067 37.6704 4.17886 37.6704C4.47704 37.6704 4.7459 37.7473 4.98542 37.9012C5.22006 38.0501 5.40337 38.2511 5.53535 38.5043C5.66734 38.7574 5.73333 39.0329 5.73333 39.3307L5.73333 40.4996L7.87439 40.4996L7.87439 41.1249L2.62439 41.1249ZM5.1394 39.3158C5.1394 39.1172 5.09297 38.9435 5.00009 38.7946C4.90721 38.6408 4.78745 38.5216 4.6408 38.4373C4.49415 38.3529 4.34017 38.3107 4.17886 38.3107C4.01755 38.3107 3.86357 38.3529 3.71692 38.4373C3.57027 38.5216 3.45051 38.6408 3.35763 38.7946C3.26475 38.9435 3.21831 39.1172 3.21831 39.3158L3.21831 40.4996L5.1394 40.4996L5.1394 39.3158Z" fill="white"/>
<path d="M2.62439 36.0908L2.62439 34.2891C2.62439 33.9962 2.69038 33.7232 2.82236 33.4701C2.95435 33.217 3.1401 33.0159 3.37963 32.867C3.61426 32.7132 3.88067 32.6362 4.17886 32.6362C4.42327 32.6362 4.65058 32.6933 4.86077 32.8075C5.07097 32.9167 5.24695 33.0705 5.38871 33.2691C5.53047 33.4627 5.62579 33.6786 5.67467 33.9168L5.69667 33.9317L7.84506 32.4278L7.87439 32.4278L7.87439 33.1723L5.73333 34.6241L5.73333 35.4654L7.87439 35.4654L7.87439 36.0908L2.62439 36.0908ZM5.15407 34.3263C5.15407 34.1426 5.11252 33.9714 5.02942 33.8126C4.94632 33.6488 4.83144 33.5197 4.68479 33.4254C4.53326 33.3262 4.36461 33.2765 4.17886 33.2765C4.01755 33.2765 3.86357 33.3187 3.71692 33.4031C3.57027 33.4875 3.45051 33.6066 3.35763 33.7605C3.26475 33.9094 3.21831 34.0831 3.21831 34.2816L3.21831 35.4654L5.15407 35.4654L5.15407 34.3263Z" fill="white"/>
<path d="M2.62439 30.9839L2.62439 27.9016L3.21831 27.9016L3.21831 30.3585L4.95609 30.3585L4.95609 28.1399L5.54269 28.1399L5.54269 30.3585L7.28047 30.3585L7.28047 27.9016L7.87439 27.9016L7.87439 30.9839L2.62439 30.9839Z" fill="white"/>
<path d="M2.62439 26.1388L2.62439 25.223L6.92851 23.5255L6.92851 23.4958L2.62439 21.7983L2.62439 20.8825L7.87439 20.8825L7.87439 21.5079L4.53815 21.5079L3.54094 21.4781L3.54094 21.5079L7.87439 23.2501L7.87439 23.7712L3.54094 25.5134L3.54094 25.5432L4.53815 25.5134L7.87439 25.5134L7.87439 26.1388L2.62439 26.1388Z" fill="white"/>
<path d="M2.62439 18.9452L2.62439 18.3198L7.87439 18.3198L7.87439 18.9452L2.62439 18.9452Z" fill="white"/>
<path d="M2.62439 16.3831L2.62439 13.3008L3.21831 13.3008L3.21831 15.7577L4.95609 15.7577L4.95609 13.539L5.54269 13.539L5.54269 15.7577L7.28047 15.7577L7.28047 13.3008L7.87439 13.3008L7.87439 16.3831L2.62439 16.3831Z" fill="white"/>
<path d="M2.62439 11.5379L2.62439 9.73621C2.62439 9.44337 2.69038 9.17039 2.82236 8.91726C2.95435 8.66412 3.1401 8.4631 3.37963 8.3142C3.61426 8.16034 3.88067 8.0834 4.17886 8.0834C4.42327 8.0834 4.65058 8.14048 4.86077 8.25464C5.07097 8.36383 5.24694 8.5177 5.3887 8.71624C5.53046 8.90981 5.62579 9.12572 5.67467 9.36396L5.69667 9.37885L7.84506 7.87494L7.87439 7.87494L7.87439 8.61945L5.73333 10.0712L5.73333 10.9125L7.87439 10.9125L7.87439 11.5379L2.62439 11.5379ZM5.15407 9.77344C5.15407 9.5898 5.11252 9.41856 5.02942 9.25973C4.94632 9.09594 4.83144 8.96689 4.68479 8.87259C4.53326 8.77332 4.36461 8.72368 4.17886 8.72368C4.01755 8.72368 3.86356 8.76587 3.71692 8.85025C3.57027 8.93463 3.45051 9.05375 3.35763 9.20761C3.26475 9.35651 3.21831 9.53023 3.21831 9.72877L3.21831 10.9125L5.15407 10.9125L5.15407 9.77344Z" fill="white"/>
<defs>
<clipPath id="clip0_133_512">
<rect width="49.875" height="16.625" fill="white" transform="translate(22.7498 5.25)"/>
</clipPath>
</defs>
</svg>
