<svg width="95" height="30" viewBox="0 0 95 30" fill="none" xmlns="http://www.w3.org/2000/svg">
<g clip-path="url(#clip0_133_219)">
<path d="M11.6996 0.00268555H12.5444C15.4773 0.0643713 18.3624 1.20556 20.4345 3.22577C19.6694 3.98142 18.8884 4.70623 18.1392 5.46188C16.9757 4.44406 15.573 3.65757 14.0428 3.37998C11.7793 2.91734 9.34058 3.33372 7.44377 4.58285C5.37162 5.89368 3.96894 8.11436 3.66608 10.4893C3.33135 12.8333 4.01676 15.3008 5.59478 17.1205C7.10904 18.894 9.42028 20.0043 11.8112 20.0814C14.0428 20.2048 16.3699 19.5417 17.9958 18.0303C19.271 16.9663 19.8607 15.347 20.052 13.774C17.406 13.774 14.76 13.7895 12.1141 13.774V10.5972H23.2559C23.8297 14.0054 23.0008 17.8453 20.323 20.2819C18.5377 22.0091 16.0671 23.0269 13.5486 23.2274C11.1099 23.4587 8.59142 23.0115 6.42364 21.8703C3.82548 20.5286 1.75333 18.2617 0.733197 15.5938C-0.223179 13.1418 -0.239118 10.3659 0.653499 7.89846C1.46642 5.64693 3.0285 3.65757 5.03689 2.26964C6.96558 0.897129 9.3087 0.141479 11.6996 0.00268555Z" fill="#3780FF"/>
<path d="M75.6174 0.804565H79.0285V22.8264C77.8968 22.8264 76.7491 22.8418 75.6174 22.811C75.6334 15.4858 75.6174 8.14517 75.6174 0.804565Z" fill="#38B137"/>
<path d="M30.8431 8.43819C32.9472 8.05266 35.2265 8.48446 36.964 9.70275C38.542 10.7823 39.6418 12.4786 39.9765 14.3292C40.4069 16.4728 39.865 18.8168 38.4304 20.5132C36.8843 22.41 34.3499 23.4278 31.8792 23.2736C29.6158 23.1502 27.4161 22.0553 26.0772 20.2664C24.5629 18.2925 24.1963 15.5783 25.0252 13.2651C25.854 10.7822 28.1972 8.88541 30.8431 8.43819ZM31.3213 11.3683C30.4606 11.5842 29.6636 12.0622 29.0898 12.7408C27.5436 14.5297 27.6393 17.4443 29.3448 19.1098C30.3171 20.066 31.7836 20.5132 33.1384 20.251C34.3977 20.0351 35.4975 19.2178 36.1032 18.1383C37.1552 16.3031 36.8524 13.774 35.2425 12.3398C34.2064 11.4145 32.6921 11.029 31.3213 11.3683Z" fill="#FA3913"/>
<path d="M47.7391 8.43823C50.146 7.99101 52.776 8.63871 54.5772 10.2734C57.5101 12.8179 57.8289 17.5831 55.3264 20.5132C53.8121 22.3638 51.3574 23.3816 48.9346 23.2736C46.6234 23.212 44.344 22.1016 42.9732 20.2665C41.427 18.2463 41.0923 15.4704 41.969 13.1109C42.8457 10.7052 45.141 8.87003 47.7391 8.43823ZM48.2173 11.3683C47.3566 11.5842 46.5596 12.0623 45.9858 12.7254C44.4556 14.4834 44.5193 17.3518 46.1611 19.0328C47.1334 20.0351 48.6477 20.5286 50.0504 20.251C51.2937 20.0197 52.4094 19.2178 53.0151 18.1383C54.0512 16.2877 53.7484 13.7586 52.1225 12.3244C51.0864 11.3991 49.5722 11.029 48.2173 11.3683Z" fill="#FCBD06"/>
<path d="M62.0688 9.33266C63.9019 8.22232 66.3406 7.91389 68.3171 8.87002C68.9388 9.13218 69.4488 9.57941 69.943 10.0266C69.9589 9.61025 69.943 9.17845 69.9589 8.74665C71.0269 8.76207 72.0948 8.74665 73.1787 8.76207V22.3638C73.1628 24.4148 72.6208 26.5893 71.0906 28.0851C69.417 29.7352 66.8507 30.2441 64.5394 29.9049C62.0688 29.5502 59.917 27.8075 58.9606 25.6023C59.917 25.1551 60.9212 24.8004 61.9094 24.384C62.4673 25.6485 63.599 26.728 65.0176 26.9748C66.4363 27.2215 68.078 26.8823 69.0025 25.7411C69.9908 24.569 69.9908 22.9652 69.943 21.531C69.2097 22.225 68.365 22.8418 67.3448 23.0732C65.1292 23.6746 62.6905 22.9344 60.9849 21.4848C59.2634 20.0351 58.2433 17.799 58.3389 15.5783C58.3868 13.0647 59.8532 10.6435 62.0688 9.33266ZM65.3683 11.3066C64.396 11.4608 63.4874 11.9851 62.8658 12.71C61.3675 14.4372 61.3675 17.1976 62.8817 18.894C63.7425 19.8963 65.1292 20.4515 66.4681 20.3127C67.7274 20.1894 68.891 19.4183 69.5126 18.3542C70.5646 16.5499 70.3893 14.0979 68.9707 12.5249C68.094 11.5533 66.6913 11.0753 65.3683 11.3066Z" fill="#3780FF"/>
<path d="M83.125 10.1191C85.0378 8.39194 87.9866 7.80592 90.4413 8.71579C92.7685 9.56397 94.2509 11.7075 95 13.9128C91.5411 15.3007 88.0982 16.6733 84.6393 18.0612C85.1175 18.9402 85.8507 19.7421 86.8389 20.066C88.2257 20.544 89.8834 20.3744 91.047 19.48C91.5093 19.1407 91.8759 18.6935 92.2265 18.2617C93.1032 18.8323 93.9799 19.3874 94.8566 19.958C93.6133 21.7623 91.5252 23.0269 89.2777 23.2274C86.7911 23.5204 84.1452 22.5951 82.5353 20.7137C79.8893 17.7528 80.1443 12.787 83.125 10.1191ZM84.8306 12.9721C84.2886 13.7278 84.0655 14.653 84.0814 15.5629C86.3926 14.6376 88.7039 13.7123 91.0151 12.7716C90.6326 11.908 89.7081 11.3837 88.7676 11.2449C87.2534 10.9827 85.6754 11.7692 84.8306 12.9721Z" fill="#FA3913"/>
</g>
<defs>
<clipPath id="clip0_133_219">
<rect width="95" height="30" fill="white"/>
</clipPath>
</defs>
</svg>
