<svg width="99" height="37" viewBox="0 0 99 37" fill="none" xmlns="http://www.w3.org/2000/svg">
<path d="M0 0H15.3651L13.9451 4.18116H9.92778V20.181H4.97824V4.18116H0V0ZM40.7228 0V4.18116H45.7011V20.181H50.6473V4.18116H54.6647L56.088 0H40.7228ZM18.7077 4.76491C19.1811 4.76491 19.6438 4.62611 20.0373 4.36606C20.4309 4.10601 20.7376 3.73639 20.9188 3.30394C21.0999 2.8715 21.1473 2.39564 21.055 1.93656C20.9626 1.47747 20.7347 1.05578 20.4 0.724795C20.0653 0.393813 19.6389 0.168411 19.1746 0.0770938C18.7104 -0.0142239 18.2292 0.0326456 17.7919 0.211772C17.3546 0.390898 16.9808 0.694237 16.7179 1.08343C16.4549 1.47262 16.3146 1.93019 16.3146 2.39827C16.3146 3.02594 16.5667 3.62791 17.0155 4.07174C17.4643 4.51557 18.073 4.76491 18.7077 4.76491ZM16.3105 20.181H21.1616V6.43754H16.3105V20.181ZM38.6109 4.64654H32.939L28.0501 9.48605V0.0154049H23.2318L23.2154 20.181H28.0821V14.9263L29.598 13.5699L34.3205 20.181H39.5226L32.6816 10.5125L38.6109 4.64654ZM85.1416 10.5125L91.0734 4.64654H85.4015L80.5127 9.48605V0.0154049H75.6935L75.6779 20.181H80.5446V14.9263L82.0639 13.5699L86.7871 20.181H91.9843L85.1416 10.5125ZM72.6714 12.0157C72.6714 16.573 68.8853 20.2677 64.2145 20.2677C59.5437 20.2677 55.7584 16.573 55.7584 12.0157C55.7584 7.45831 59.5446 3.76361 64.2145 3.76361C68.8845 3.76361 72.6731 7.45912 72.6731 12.0157H72.6714ZM68.363 12.0157C68.363 11.2043 68.1197 10.4111 67.6639 9.73643C67.208 9.06177 66.5601 8.53594 65.8021 8.22543C65.044 7.91493 64.2099 7.83368 63.4052 7.99198C62.6004 8.15027 61.8612 8.541 61.2811 9.11475C60.7009 9.6885 60.3058 10.4195 60.1457 11.2153C59.9856 12.0111 60.0678 12.836 60.3818 13.5856C60.6958 14.3353 61.2275 14.976 61.9097 15.4268C62.5919 15.8776 63.394 16.1182 64.2145 16.1182C64.7595 16.1185 65.2992 16.0126 65.8027 15.8066C66.3063 15.6005 66.7638 15.2984 67.1493 14.9174C67.5347 14.5364 67.8404 14.084 68.049 13.5861C68.2575 13.0882 68.3648 12.5546 68.3647 12.0157H68.363Z" fill="#191B1D"/>
<path d="M10.806 34.5133H9.82888V28.5625L7.15656 34.5133H6.7563L4.09576 28.5625V34.5133H3.11865V27.2834H4.51956L6.95643 32.7248L9.40507 27.2834H10.806V34.5133Z" fill="#191B1D"/>
<path d="M17.0405 34.5133H16.1576V33.9171C15.6789 34.4013 15.051 34.6433 14.274 34.6433C13.7482 34.6433 13.2852 34.488 12.8849 34.1773C12.4846 33.8665 12.2845 33.4438 12.2845 32.9091C12.2845 32.3599 12.4807 31.9371 12.8731 31.6409C13.2734 31.3374 13.7404 31.1856 14.274 31.1856C15.0824 31.1856 15.7103 31.4241 16.1576 31.901V30.958C16.1576 30.6111 16.0242 30.3401 15.7573 30.145C15.4905 29.9499 15.1452 29.8524 14.7214 29.8524C14.0543 29.8524 13.4735 30.0944 12.9791 30.5786L12.567 30.015C13.1714 29.4369 13.9287 29.1478 14.8391 29.1478C15.4905 29.1478 16.0203 29.2923 16.4284 29.5814C16.8365 29.8704 17.0405 30.3148 17.0405 30.9146V34.5133ZM14.5919 34.058C15.2982 34.058 15.8201 33.8412 16.1576 33.4077V32.4213C15.8201 31.9877 15.2982 31.7709 14.5919 31.7709C14.1838 31.7709 13.8463 31.8793 13.5795 32.0961C13.3205 32.3057 13.191 32.5803 13.191 32.9199C13.191 33.2523 13.3205 33.5269 13.5795 33.7437C13.8463 33.9532 14.1838 34.058 14.5919 34.058Z" fill="#191B1D"/>
<path d="M19.6933 34.5133H18.8104V29.2779H19.6933V30.1233C20.2192 29.4874 20.851 29.1695 21.5887 29.1695V30.0041C21.4788 29.9824 21.3611 29.9716 21.2355 29.9716C20.9687 29.9716 20.6783 30.0583 20.3644 30.2317C20.0504 30.4052 19.8268 30.5967 19.6933 30.8062V34.5133Z" fill="#191B1D"/>
<path d="M27.6994 34.5133H26.5693L24.5209 32.1611L23.5791 33.0174V34.5133H22.6962V27.2834H23.5791V32.0636L26.5693 29.2779H27.6877L25.1684 31.6517L27.6994 34.5133Z" fill="#191B1D"/>
<path d="M31.2752 34.6433C30.4276 34.6433 29.733 34.3904 29.1915 33.8846C28.65 33.3715 28.3792 32.7067 28.3792 31.8902C28.3792 31.1242 28.646 30.4774 29.1797 29.9499C29.7134 29.4152 30.3805 29.1478 31.181 29.1478C32.0208 29.1478 32.684 29.4152 33.1705 29.9499C33.665 30.4774 33.9122 31.1459 33.9122 31.9552V32.1611H29.3092C29.3485 32.6742 29.5525 33.1042 29.9214 33.451C30.2902 33.7979 30.769 33.9713 31.3576 33.9713C32.0639 33.9713 32.6486 33.7509 33.1117 33.3101L33.5355 33.8412C32.9547 34.376 32.2013 34.6433 31.2752 34.6433ZM33.041 31.565C33.0332 31.117 32.8684 30.7159 32.5466 30.3618C32.2248 30.0005 31.7657 29.8198 31.1692 29.8198C30.6042 29.8198 30.1568 29.9969 29.8272 30.351C29.5054 30.7051 29.3328 31.1097 29.3092 31.565H33.041Z" fill="#191B1D"/>
<path d="M36.7785 34.6433C36.3625 34.6433 36.0486 34.5386 35.8367 34.329C35.6248 34.1194 35.5188 33.8159 35.5188 33.4185V29.9933H34.5771V29.2779H35.5188V27.8471H36.4018V29.2779H37.5555V29.9933H36.4018V33.2451C36.4018 33.4474 36.4489 33.61 36.543 33.7328C36.6451 33.8557 36.7903 33.9171 36.9786 33.9171C37.2376 33.9171 37.4377 33.8448 37.579 33.7003L37.838 34.3073C37.579 34.5313 37.2258 34.6433 36.7785 34.6433Z" fill="#191B1D"/>
<path d="M39.2383 28.53C39.0813 28.53 38.9439 28.4794 38.8262 28.3782C38.7085 28.2698 38.6496 28.1398 38.6496 27.988C38.6496 27.8363 38.7085 27.7062 38.8262 27.5978C38.9439 27.4894 39.0813 27.4352 39.2383 27.4352C39.4031 27.4352 39.5443 27.4894 39.6621 27.5978C39.7798 27.7062 39.8386 27.8363 39.8386 27.988C39.8386 28.1398 39.7798 28.2698 39.6621 28.3782C39.5443 28.4794 39.4031 28.53 39.2383 28.53ZM39.6856 34.5133H38.8027V29.2779H39.6856V34.5133Z" fill="#191B1D"/>
<path d="M46.1676 34.5133H45.2846V31.088C45.2846 30.6472 45.1748 30.3365 44.955 30.1559C44.7353 29.968 44.4213 29.874 44.0132 29.874C43.6836 29.874 43.3618 29.9535 43.0479 30.1125C42.7418 30.2715 42.5024 30.463 42.3298 30.687V34.5133H41.4469V29.2779H42.3298V30.0366C42.5495 29.7982 42.8438 29.5922 43.2127 29.4188C43.5816 29.2381 43.9622 29.1478 44.3546 29.1478C45.5632 29.1478 46.1676 29.7115 46.1676 30.8387V34.5133Z" fill="#191B1D"/>
<path d="M50.2147 36.6378C49.7124 36.6378 49.2846 36.58 48.9315 36.4643C48.5783 36.356 48.2408 36.1536 47.9191 35.8573L48.3664 35.2503C48.7981 35.7273 49.4141 35.9657 50.2147 35.9657C50.7405 35.9657 51.1761 35.8357 51.5214 35.5755C51.8667 35.3226 52.0394 34.9288 52.0394 34.394V33.6461C51.8275 33.9207 51.5528 34.1447 51.2153 34.3182C50.8778 34.4916 50.5168 34.5783 50.1323 34.5783C49.3788 34.5783 48.7667 34.3362 48.2958 33.8521C47.8327 33.3607 47.6012 32.6995 47.6012 31.8685C47.6012 31.0375 47.8327 30.3763 48.2958 29.8849C48.7667 29.3935 49.3788 29.1478 50.1323 29.1478C50.9092 29.1478 51.5449 29.4549 52.0394 30.0692V29.2779H52.9223V34.3615C52.9223 35.1636 52.6672 35.7417 52.1571 36.0958C51.647 36.4571 50.9995 36.6378 50.2147 36.6378ZM50.3442 33.8629C50.6816 33.8629 51.0073 33.7798 51.3213 33.6136C51.643 33.4474 51.8824 33.2451 52.0394 33.0066V30.7195C51.8824 30.481 51.647 30.2823 51.333 30.1233C51.0191 29.9571 50.6895 29.874 50.3442 29.874C49.7791 29.874 49.3317 30.0583 49.0021 30.4268C48.6803 30.7954 48.5194 31.2759 48.5194 31.8685C48.5194 32.4538 48.6843 32.9343 49.0139 33.3101C49.3435 33.6786 49.7869 33.8629 50.3442 33.8629Z" fill="#191B1D"/>
<path d="M58.7382 34.5133H57.7611V27.2834H60.9161C61.6773 27.2834 62.2777 27.493 62.7172 27.9121C63.1567 28.3312 63.3765 28.8479 63.3765 29.4622C63.3765 30.0764 63.1528 30.5931 62.7055 31.0122C62.266 31.4313 61.6695 31.6409 60.9161 31.6409H58.7382V34.5133ZM60.7983 30.8387C61.2614 30.8387 61.6381 30.7123 61.9285 30.4594C62.2189 30.1992 62.3641 29.8668 62.3641 29.4622C62.3641 29.0575 62.2189 28.7287 61.9285 28.4758C61.6381 28.2156 61.2614 28.0856 60.7983 28.0856H58.7382V30.8387H60.7983Z" fill="#191B1D"/>
<path d="M68.8433 34.5133H67.9604V33.9171C67.4817 34.4013 66.8538 34.6433 66.0769 34.6433C65.551 34.6433 65.088 34.488 64.6877 34.1773C64.2875 33.8665 64.0873 33.4438 64.0873 32.9091C64.0873 32.3599 64.2835 31.9371 64.6759 31.6409C65.0762 31.3374 65.5432 31.1856 66.0769 31.1856C66.8852 31.1856 67.5131 31.4241 67.9604 31.901V30.958C67.9604 30.6111 67.827 30.3401 67.5602 30.145C67.2933 29.9499 66.948 29.8524 66.5242 29.8524C65.8571 29.8524 65.2763 30.0944 64.7819 30.5786L64.3699 30.015C64.9742 29.4369 65.7315 29.1478 66.6419 29.1478C67.2933 29.1478 67.8231 29.2923 68.2312 29.5814C68.6393 29.8704 68.8433 30.3148 68.8433 30.9146V34.5133ZM66.3947 34.058C67.101 34.058 67.6229 33.8412 67.9604 33.4077V32.4213C67.6229 31.9877 67.101 31.7709 66.3947 31.7709C65.9866 31.7709 65.6491 31.8793 65.3823 32.0961C65.1233 32.3057 64.9938 32.5803 64.9938 32.9199C64.9938 33.2523 65.1233 33.5269 65.3823 33.7437C65.6491 33.9532 65.9866 34.058 66.3947 34.058Z" fill="#191B1D"/>
<path d="M71.4962 34.5133H70.6132V29.2779H71.4962V30.1233C72.022 29.4874 72.6538 29.1695 73.3915 29.1695V30.0041C73.2816 29.9824 73.1639 29.9716 73.0383 29.9716C72.7715 29.9716 72.4811 30.0583 72.1672 30.2317C71.8533 30.4052 71.6296 30.5967 71.4962 30.8062V34.5133Z" fill="#191B1D"/>
<path d="M75.9353 34.6433C75.5193 34.6433 75.2054 34.5386 74.9935 34.329C74.7816 34.1194 74.6756 33.8159 74.6756 33.4185V29.9933H73.7338V29.2779H74.6756V27.8471H75.5585V29.2779H76.7122V29.9933H75.5585V33.2451C75.5585 33.4474 75.6056 33.61 75.6998 33.7328C75.8018 33.8557 75.947 33.9171 76.1354 33.9171C76.3944 33.9171 76.5945 33.8448 76.7358 33.7003L76.9948 34.3073C76.7358 34.5313 76.3826 34.6433 75.9353 34.6433Z" fill="#191B1D"/>
<path d="M82.6801 34.5133H81.7972V31.088C81.7972 30.6472 81.6874 30.3365 81.4676 30.1559C81.2479 29.968 80.9339 29.874 80.5258 29.874C80.1962 29.874 79.8744 29.9535 79.5605 30.1125C79.2544 30.2715 79.015 30.463 78.8424 30.687V34.5133H77.9594V29.2779H78.8424V30.0366C79.0621 29.7982 79.3564 29.5922 79.7253 29.4188C80.0942 29.2381 80.4748 29.1478 80.8672 29.1478C82.0758 29.1478 82.6801 29.7115 82.6801 30.8387V34.5133Z" fill="#191B1D"/>
<path d="M87.0098 34.6433C86.1622 34.6433 85.4676 34.3904 84.9261 33.8846C84.3846 33.3715 84.1138 32.7067 84.1138 31.8902C84.1138 31.1242 84.3806 30.4774 84.9143 29.9499C85.448 29.4152 86.1151 29.1478 86.9156 29.1478C87.7554 29.1478 88.4185 29.4152 88.9051 29.9499C89.3996 30.4774 89.6468 31.1459 89.6468 31.9552V32.1611H85.0438C85.0831 32.6742 85.2871 33.1042 85.656 33.451C86.0248 33.7979 86.5036 33.9713 87.0922 33.9713C87.7985 33.9713 88.3832 33.7509 88.8463 33.3101L89.2701 33.8412C88.6893 34.376 87.9359 34.6433 87.0098 34.6433ZM88.7756 31.565C88.7678 31.117 88.603 30.7159 88.2812 30.3618C87.9594 30.0005 87.5003 29.8198 86.9038 29.8198C86.3388 29.8198 85.8914 29.9969 85.5618 30.351C85.24 30.7051 85.0674 31.1097 85.0438 31.565H88.7756Z" fill="#191B1D"/>
<path d="M91.9598 34.5133H91.0768V29.2779H91.9598V30.1233C92.4856 29.4874 93.1174 29.1695 93.8551 29.1695V30.0041C93.7452 29.9824 93.6275 29.9716 93.5019 29.9716C93.2351 29.9716 92.9447 30.0583 92.6308 30.2317C92.3169 30.4052 92.0932 30.5967 91.9598 30.8062V34.5133Z" fill="#191B1D"/>
<path d="M96.7638 34.6433C95.7985 34.6433 95.0333 34.3687 94.4682 33.8196L94.9273 33.2342C95.1235 33.4438 95.3904 33.6208 95.7278 33.7654C96.0732 33.9099 96.4303 33.9821 96.7991 33.9821C97.2229 33.9821 97.5526 33.899 97.788 33.7328C98.0234 33.5666 98.1412 33.3499 98.1412 33.0825C98.1412 32.8512 98.0195 32.6706 97.7762 32.5405C97.5329 32.4032 97.2386 32.3021 96.8933 32.237C96.5558 32.1648 96.2144 32.0853 95.8691 31.9986C95.5238 31.9046 95.2295 31.7492 94.9862 31.5325C94.7429 31.3084 94.6212 31.0158 94.6212 30.6545C94.6212 30.2281 94.8096 29.8704 95.1863 29.5814C95.5709 29.2923 96.0889 29.1478 96.7403 29.1478C97.5957 29.1478 98.2981 29.4007 98.8475 29.9066L98.4355 30.4702C98.0352 30.0294 97.4701 29.809 96.7403 29.809C96.3557 29.809 96.0496 29.8885 95.822 30.0475C95.5944 30.1992 95.4806 30.3943 95.4806 30.6328C95.4806 30.8424 95.6023 31.0086 95.8456 31.1314C96.0889 31.247 96.3792 31.341 96.7167 31.4132C97.062 31.4783 97.4074 31.5578 97.7527 31.6517C98.098 31.7456 98.3923 31.9118 98.6356 32.1503C98.8789 32.3815 99.0005 32.685 99.0005 33.0608C99.0005 33.5233 98.8043 33.9027 98.4119 34.1989C98.0195 34.4952 97.4701 34.6433 96.7638 34.6433Z" fill="#191B1D"/>
<circle cx="95.4911" cy="8.96457" r="1.94882" fill="#FE2C55"/>
<circle cx="95.4911" cy="15.2008" r="1.94882" fill="#25F4EE"/>
</svg>
