<svg width="175" height="35" viewBox="0 0 175 35" fill="none" xmlns="http://www.w3.org/2000/svg">
<g clip-path="url(#clip0_151_10)">
<path d="M32.9004 24.4999V8.07228H39.5577C40.781 8.07228 41.8012 8.25142 42.6185 8.60971C43.4358 8.96799 44.0501 9.46532 44.4615 10.1017C44.8728 10.7327 45.0785 11.4599 45.0785 12.2835C45.0785 12.9252 44.9486 13.4893 44.6888 13.976C44.429 14.4572 44.0718 14.853 43.6171 15.1631C43.1679 15.4679 42.6537 15.6845 42.0746 15.8128V15.9733C42.7078 16 43.3005 16.1765 43.8526 16.5027C44.41 16.8289 44.862 17.2861 45.2084 17.8743C45.5548 18.4572 45.728 19.1524 45.728 19.9599C45.728 20.8315 45.5088 21.6096 45.0704 22.2941C44.6374 22.9732 43.996 23.5106 43.1462 23.9063C42.2965 24.3021 41.2491 24.4999 40.0043 24.4999H32.9004ZM36.4158 21.6604H39.2817C40.2614 21.6604 40.9758 21.4759 41.4251 21.1069C41.8743 20.7326 42.0989 20.2353 42.0989 19.6149C42.0989 19.1604 41.988 18.7593 41.766 18.4117C41.5441 18.0642 41.2275 17.7914 40.8161 17.5936C40.4102 17.3957 39.9258 17.2968 39.3629 17.2968H36.4158V21.6604ZM36.4158 14.9465H39.0219C39.5036 14.9465 39.9312 14.8637 40.3047 14.6979C40.6835 14.5268 40.9812 14.2861 41.1977 13.976C41.4196 13.6658 41.5306 13.2942 41.5306 12.861C41.5306 12.2674 41.3168 11.7888 40.8892 11.4252C40.467 11.0616 39.8663 10.8797 39.0869 10.8797H36.4158V14.9465Z" fill="black"/>
<path d="M47.9505 24.4999V12.1792H51.4091V24.4999H47.9505ZM49.6879 10.591C49.1737 10.591 48.7326 10.4225 48.3645 10.0856C48.0019 9.74339 47.8206 9.3343 47.8206 8.85837C47.8206 8.38779 48.0019 7.98405 48.3645 7.64715C48.7326 7.30491 49.1737 7.13379 49.6879 7.13379C50.2021 7.13379 50.6405 7.30491 51.0031 7.64715C51.3712 7.98405 51.5552 8.38779 51.5552 8.85837C51.5552 9.3343 51.3712 9.74339 51.0031 10.0856C50.6405 10.4225 50.2021 10.591 49.6879 10.591Z" fill="black"/>
<path d="M57.6382 8.07228V24.4999H54.1796V8.07228H57.6382Z" fill="black"/>
<path d="M63.8672 8.07228V24.4999H60.4087V8.07228H63.8672Z" fill="black"/>
<path d="M66.6378 24.4999V12.1792H70.0963V24.4999H66.6378ZM68.3752 10.591C67.861 10.591 67.4199 10.4225 67.0518 10.0856C66.6892 9.74339 66.5079 9.3343 66.5079 8.85837C66.5079 8.38779 66.6892 7.98405 67.0518 7.64715C67.4199 7.30491 67.861 7.13379 68.3752 7.13379C68.8894 7.13379 69.3278 7.30491 69.6904 7.64715C70.0585 7.98405 70.2425 8.38779 70.2425 8.85837C70.2425 9.3343 70.0585 9.74339 69.6904 10.0856C69.3278 10.4225 68.8894 10.591 68.3752 10.591Z" fill="black"/>
<path d="M76.3254 17.377V24.4999H72.8669V12.1792H76.1631V14.353H76.3092C76.5852 13.6364 77.048 13.0696 77.6975 12.6524C78.347 12.23 79.1345 12.0188 80.06 12.0188C80.926 12.0188 81.6811 12.2059 82.3252 12.5803C82.9693 12.9546 83.4699 13.4893 83.8271 14.1845C84.1844 14.8743 84.363 15.6979 84.363 16.6551V24.4999H80.9044V17.2647C80.9098 16.5107 80.715 15.9225 80.3198 15.5C79.9247 15.0722 79.3808 14.8583 78.688 14.8583C78.2225 14.8583 77.8112 14.9572 77.4539 15.1551C77.1021 15.353 76.8261 15.6417 76.6258 16.0214C76.431 16.3957 76.3308 16.8476 76.3254 17.377Z" fill="black"/>
<path d="M92.707 29.3769C91.5866 29.3769 90.6259 29.2245 89.8248 28.9197C89.0292 28.6202 88.396 28.2111 87.9251 27.6924C87.4542 27.1737 87.1484 26.5908 87.0076 25.9437L90.2064 25.5186C90.3038 25.7646 90.4581 25.9945 90.6692 26.2085C90.8803 26.4224 91.159 26.5935 91.5054 26.7218C91.8572 26.8555 92.2848 26.9223 92.7882 26.9223C93.5405 26.9223 94.1602 26.7405 94.6474 26.3769C95.1399 26.0186 95.3862 25.417 95.3862 24.5721V22.3181H95.24C95.0885 22.6604 94.8612 22.9839 94.5581 23.2887C94.255 23.5935 93.8653 23.8422 93.389 24.0347C92.9127 24.2272 92.3444 24.3234 91.684 24.3234C90.7477 24.3234 89.8952 24.1095 89.1266 23.6817C88.3635 23.2486 87.7546 22.5882 87.2999 21.7005C86.8507 20.8074 86.6261 19.6791 86.6261 18.3155C86.6261 16.9198 86.8561 15.754 87.3162 14.8182C87.7762 13.8824 88.3878 13.1819 89.151 12.7166C89.9196 12.2514 90.7612 12.0188 91.6759 12.0188C92.3741 12.0188 92.9587 12.1364 93.4296 12.3717C93.9004 12.6016 94.2793 12.8904 94.5662 13.238C94.8585 13.5802 95.0831 13.9171 95.24 14.2487H95.3699V12.1792H98.8042V24.6202C98.8042 25.6683 98.5444 26.5453 98.0248 27.2512C97.5052 27.9571 96.7853 28.4865 95.8652 28.8394C94.9505 29.1977 93.8977 29.3769 92.707 29.3769ZM92.7801 21.7566C93.3376 21.7566 93.8084 21.6203 94.1927 21.3475C94.5824 21.0695 94.8801 20.6737 95.0858 20.1604C95.2969 19.6417 95.4024 19.0214 95.4024 18.2994C95.4024 17.5775 95.2996 16.9519 95.0939 16.4225C94.8882 15.8877 94.5905 15.4733 94.2008 15.1792C93.8111 14.885 93.3376 14.738 92.7801 14.738C92.2118 14.738 91.7327 14.8904 91.343 15.1952C90.9534 15.4947 90.6584 15.9118 90.4581 16.4465C90.2578 16.9813 90.1577 17.5989 90.1577 18.2994C90.1577 19.0107 90.2578 19.6256 90.4581 20.1443C90.6638 20.6577 90.9588 21.0561 91.343 21.3395C91.7327 21.6176 92.2118 21.7566 92.7801 21.7566Z" fill="black"/>
<path d="M106.848 24.4999V12.1792H110.144V14.353H110.29C110.55 13.631 110.983 13.0615 111.589 12.6444C112.195 12.2273 112.921 12.0188 113.765 12.0188C114.62 12.0188 115.348 12.23 115.949 12.6524C116.55 13.0696 116.95 13.6364 117.15 14.353H117.28C117.535 13.6471 117.995 13.0829 118.661 12.6605C119.332 12.2327 120.125 12.0188 121.039 12.0188C122.203 12.0188 123.147 12.3851 123.873 13.1177C124.603 13.8449 124.969 14.877 124.969 16.2139V24.4999H121.518V16.8877C121.518 16.2032 121.334 15.6898 120.966 15.3476C120.598 15.0054 120.138 14.8342 119.586 14.8342C118.958 14.8342 118.468 15.0321 118.117 15.4278C117.765 15.8182 117.589 16.3342 117.589 16.9759V24.4999H114.236V16.8155C114.236 16.2112 114.06 15.73 113.708 15.3717C113.362 15.0134 112.904 14.8342 112.336 14.8342C111.952 14.8342 111.605 14.9305 111.297 15.123C110.994 15.3102 110.753 15.5749 110.574 15.9171C110.396 16.254 110.306 16.6497 110.306 17.1043V24.4999H106.848Z" fill="black"/>
<path d="M133.384 24.7406C132.101 24.7406 130.997 24.4839 130.071 23.9705C129.151 23.4518 128.442 22.7192 127.944 21.7727C127.446 20.8208 127.197 19.6952 127.197 18.3957C127.197 17.1283 127.446 16.016 127.944 15.0588C128.442 14.1016 129.143 13.3556 130.047 12.8209C130.956 12.2861 132.023 12.0188 133.246 12.0188C134.069 12.0188 134.834 12.1498 135.543 12.4118C136.258 12.6685 136.88 13.0562 137.411 13.5749C137.947 14.0936 138.363 14.746 138.661 15.5321C138.959 16.3128 139.108 17.2273 139.108 18.2754V19.2139H130.615V17.0962H135.852C135.852 16.6043 135.744 16.1685 135.527 15.7888C135.311 15.4091 135.01 15.1123 134.626 14.8984C134.247 14.6792 133.806 14.5695 133.303 14.5695C132.778 14.5695 132.312 14.6899 131.906 14.9305C131.506 15.1658 131.192 15.484 130.964 15.885C130.737 16.2807 130.621 16.7219 130.615 17.2085V19.2219C130.615 19.8315 130.729 20.3582 130.956 20.8021C131.189 21.2459 131.517 21.5882 131.939 21.8288C132.361 22.0695 132.862 22.1898 133.441 22.1898C133.825 22.1898 134.177 22.1363 134.496 22.0294C134.815 21.9224 135.089 21.762 135.316 21.5481C135.543 21.3342 135.717 21.0721 135.836 20.762L139.034 20.9705C138.872 21.7299 138.539 22.393 138.036 22.9598C137.538 23.5213 136.894 23.9598 136.104 24.2753C135.319 24.5855 134.412 24.7406 133.384 24.7406Z" fill="black"/>
<path d="M145.96 24.7004C145.013 24.7004 144.155 24.4598 143.386 23.9785C142.623 23.4919 142.017 22.778 141.568 21.8368C141.124 20.8903 140.902 19.7299 140.902 18.3556C140.902 16.9438 141.132 15.7701 141.592 14.8342C142.052 13.8931 142.664 13.1899 143.427 12.7246C144.195 12.2541 145.037 12.0188 145.952 12.0188C146.65 12.0188 147.232 12.1364 147.697 12.3717C148.168 12.6016 148.547 12.8904 148.834 13.238C149.126 13.5802 149.348 13.9171 149.5 14.2487H149.605V8.07228H153.056V24.4999H149.646V22.5267H149.5C149.337 22.8689 149.107 23.2085 148.809 23.5454C148.517 23.8769 148.136 24.1523 147.665 24.3716C147.199 24.5908 146.631 24.7004 145.96 24.7004ZM147.056 21.9812C147.613 21.9812 148.084 21.8315 148.468 21.532C148.858 21.2272 149.156 20.8021 149.362 20.2566C149.573 19.7112 149.678 19.0722 149.678 18.3396C149.678 17.6069 149.575 16.9706 149.37 16.4305C149.164 15.8904 148.866 15.4733 148.477 15.1792C148.087 14.885 147.613 14.738 147.056 14.738C146.487 14.738 146.008 14.8904 145.619 15.1952C145.229 15.5 144.934 15.9225 144.734 16.4626C144.534 17.0027 144.433 17.6283 144.433 18.3396C144.433 19.0561 144.534 19.6898 144.734 20.2406C144.94 20.786 145.234 21.2139 145.619 21.524C146.008 21.8288 146.487 21.9812 147.056 21.9812Z" fill="black"/>
<path d="M155.899 24.4999V12.1792H159.358V24.4999H155.899ZM157.637 10.591C157.122 10.591 156.681 10.4225 156.313 10.0856C155.951 9.74339 155.769 9.3343 155.769 8.85837C155.769 8.38779 155.951 7.98405 156.313 7.64715C156.681 7.30491 157.122 7.13379 157.637 7.13379C158.151 7.13379 158.589 7.30491 158.952 7.64715C159.32 7.98405 159.504 8.38779 159.504 8.85837C159.504 9.3343 159.32 9.74339 158.952 10.0856C158.589 10.4225 158.151 10.591 157.637 10.591Z" fill="black"/>
<path d="M165.684 24.7325C164.889 24.7325 164.18 24.5962 163.557 24.3234C162.935 24.0454 162.442 23.6363 162.079 23.0962C161.722 22.5507 161.544 21.8716 161.544 21.0588C161.544 20.3743 161.671 19.7994 161.925 19.3342C162.18 18.869 162.526 18.4946 162.964 18.2112C163.403 17.9278 163.901 17.7139 164.458 17.5695C165.021 17.4251 165.611 17.3235 166.228 17.2647C166.953 17.1898 167.538 17.1203 167.982 17.0561C168.426 16.9866 168.748 16.885 168.948 16.7513C169.148 16.6176 169.248 16.4198 169.248 16.1578V16.1096C169.248 15.6016 169.086 15.2086 168.761 14.9305C168.442 14.6524 167.987 14.5134 167.397 14.5134C166.775 14.5134 166.28 14.6498 165.912 14.9225C165.543 15.1899 165.3 15.5267 165.181 15.9332L161.982 15.6765C162.144 14.9278 162.464 14.2808 162.94 13.7353C163.416 13.1845 164.031 12.7621 164.783 12.468C165.541 12.1685 166.418 12.0188 167.413 12.0188C168.106 12.0188 168.769 12.099 169.403 12.2594C170.041 12.4198 170.607 12.6685 171.099 13.0054C171.597 13.3423 171.99 13.7754 172.277 14.3048C172.563 14.8289 172.707 15.4572 172.707 16.1898V24.4999H169.427V22.7914H169.33C169.129 23.1764 168.861 23.516 168.526 23.8101C168.19 24.0988 167.787 24.3261 167.316 24.4919C166.845 24.6523 166.301 24.7325 165.684 24.7325ZM166.675 22.3743C167.183 22.3743 167.633 22.2753 168.022 22.0775C168.412 21.8743 168.718 21.6015 168.94 21.2593C169.162 20.9171 169.273 20.5294 169.273 20.0962V18.7887C169.164 18.8583 169.016 18.9224 168.826 18.9813C168.642 19.0347 168.434 19.0855 168.201 19.1337C167.968 19.1764 167.736 19.2165 167.503 19.254C167.27 19.2861 167.059 19.3155 166.87 19.3422C166.464 19.401 166.109 19.4946 165.806 19.623C165.503 19.7513 165.267 19.9251 165.1 20.1443C164.932 20.3582 164.848 20.6256 164.848 20.9465C164.848 21.4117 165.018 21.7673 165.359 22.0133C165.706 22.2539 166.144 22.3743 166.675 22.3743Z" fill="black"/>
<g clip-path="url(#clip1_151_10)">
<path d="M0.897827 11.1556V16.5113C5.2272 10.8851 10.0978 10.5966 11.9919 11.1556C19.2436 13.7523 16.9165 18.9457 16.9165 18.8916C20.1203 18.2857 20.5965 14.131 20.4341 12.1293C20.1635 6.28672 15.3471 3.4736 15.3471 3.3654C14.2215 2.54311 12.8938 2.77032 12.3707 2.98671C9.32207 4.7359 3.21404 8.23426 3.17075 8.23426C1.52559 9.05656 0.969983 10.5244 0.897827 11.1556Z" fill="#191B1D"/>
<path d="M25.2163 8.67344L20.5383 6.00503C23.2701 12.543 21.0668 16.8884 19.6237 18.2439C13.6999 23.2059 10.3368 18.6109 10.3841 18.6379C9.29824 21.7035 12.6871 24.1844 14.5173 25.0416C19.7569 27.7192 24.6421 24.9658 24.7366 25.0197C26.0223 24.4584 26.4931 23.1998 26.5678 22.6407C26.5768 19.1393 26.6003 12.1271 26.6221 12.0897C26.7332 10.2608 25.7312 9.05015 25.2163 8.67344Z" fill="#191B1D"/>
<path d="M15.0645 30.8395L19.7424 28.171C12.6457 27.2394 9.9384 23.1815 9.47184 21.269C8.08428 13.7194 13.7936 13.1393 13.7463 13.1663C11.6021 10.7044 7.73302 12.3636 6.06653 13.501C1.0997 16.6454 1.0706 22.2019 0.976098 22.2559C0.82531 23.6366 1.69307 24.6687 2.14579 25.0122C5.21044 26.7706 11.3452 30.2968 11.367 30.3342C12.9146 31.3437 14.4768 31.0917 15.0645 30.8395Z" fill="#191B1D"/>
</g>
</g>
<defs>
<clipPath id="clip0_151_10">
<rect width="175" height="35" fill="white"/>
</clipPath>
<clipPath id="clip1_151_10">
<rect width="31.1741" height="30.8" fill="white" transform="translate(-1.41699 2.1001)"/>
</clipPath>
</defs>
</svg>
